M48
; DRILL file {KiCad 9.0.3} date 2025-08-19T09:40:58+0200
; FORMAT={-:-/ absolute / metric / decimal}
; #@! TF.CreationDate,2025-08-19T09:40:58+02:00
; #@! TF.GenerationSoftware,Kicad,Pcbnew,9.0.3
; #@! TF.FileFunction,Plated,1,2,PTH
FMAT,2
METRIC
; #@! TA.AperFunction,Plated,PTH,ViaDrill
T1C0.400
; #@! TA.AperFunction,Plated,PTH,ComponentDrill
T2C0.800
; #@! TA.AperFunction,Plated,PTH,ComponentDrill
T3C0.900
; #@! TA.AperFunction,Plated,PTH,ComponentDrill
T4C1.000
; #@! TA.AperFunction,Plated,PTH,ComponentDrill
T5C1.100
; #@! TA.AperFunction,Plated,PTH,ComponentDrill
T6C1.400
; #@! TA.AperFunction,Plated,PTH,ComponentDrill
T7C1.500
%
G90
G05
T1
X74.403Y-125.2
X85.6Y-105.75
X86.303Y-123.7
X87.25Y-107.15
X89.653Y-141.55
X97.2Y-53.15
X101.0Y-49.0
X113.7Y-135.55
X114.153Y-140.3
X114.153Y-142.3
X115.153Y-139.3
X115.153Y-141.3
X121.2Y-51.0
X126.803Y-137.7
X127.603Y-139.1
X137.503Y-140.4
X139.3Y-96.5
X139.3Y-98.0
X139.3Y-99.5
X139.3Y-101.0
X140.5Y-96.5
X140.5Y-98.0
X140.5Y-99.5
X140.5Y-101.0
X140.603Y-124.6
X143.403Y-128.0
X144.525Y-106.5
X146.1Y-113.6
X146.103Y-114.9
X147.4Y-113.6
X147.403Y-114.9
X148.5Y-96.5
X148.5Y-98.0
X148.5Y-99.5
X148.5Y-101.0
X148.7Y-113.6
X148.703Y-114.9
X149.7Y-96.5
X149.7Y-98.0
X149.7Y-99.5
X149.7Y-101.0
X150.303Y-125.0
X151.127Y-120.123
X154.903Y-91.3
X154.903Y-92.4
X154.903Y-93.5
X159.503Y-102.3
X159.503Y-110.0
X161.803Y-96.1
X164.403Y-117.8
X165.5Y-107.4
X165.503Y-117.8
X166.603Y-117.8
X168.8Y-138.375
X171.103Y-116.7
X171.453Y-105.75
X171.803Y-95.3
X173.603Y-92.0
X173.603Y-99.8
X174.503Y-105.5
X175.403Y-95.3
X181.703Y-112.2
X185.227Y-97.527
X201.603Y-103.0
X201.603Y-104.4
X202.603Y-105.7
T2
X64.088Y-127.572
X64.088Y-142.812
X66.628Y-127.572
X66.628Y-142.812
X69.168Y-127.572
X69.168Y-142.812
X71.708Y-127.572
X71.708Y-142.812
X74.248Y-127.572
X74.248Y-142.812
X76.788Y-127.572
X76.788Y-142.812
X79.328Y-127.572
X79.328Y-142.812
X81.868Y-127.572
X81.868Y-142.812
X84.408Y-127.572
X84.408Y-130.112
X84.408Y-132.652
X84.408Y-135.192
X84.408Y-137.732
X84.408Y-140.272
X84.408Y-142.812
X102.777Y-135.732
X102.777Y-143.352
X105.317Y-135.732
X105.317Y-143.352
X107.858Y-135.732
X107.858Y-143.352
X110.397Y-135.732
X110.397Y-143.352
X142.92Y-36.13
X142.92Y-43.75
X145.46Y-36.13
X145.46Y-43.75
X148.0Y-36.13
X148.0Y-43.75
T3
X68.462Y-155.3
X71.001Y-155.3
X118.462Y-155.3
X121.001Y-155.3
X144.603Y-79.025
X144.603Y-81.565
X168.462Y-155.3
X171.001Y-155.3
X218.462Y-155.3
X221.001Y-155.3
T4
X67.126Y-73.3
X67.126Y-87.8
X67.126Y-117.8
X69.626Y-87.8
X69.626Y-117.8
X70.34Y-50.96
X70.34Y-53.5
X72.126Y-73.3
X72.126Y-87.8
X72.126Y-117.8
X72.88Y-50.96
X72.88Y-53.5
X75.42Y-50.96
X75.42Y-53.5
X75.903Y-155.26
X77.96Y-50.96
X77.96Y-53.5
X78.443Y-155.26
X80.5Y-50.96
X80.5Y-53.5
X83.04Y-50.96
X83.04Y-53.5
X85.58Y-50.96
X85.58Y-53.5
X88.12Y-50.96
X88.12Y-53.5
X97.126Y-117.8
X99.626Y-117.8
X102.126Y-117.8
X105.88Y-98.96
X105.88Y-101.5
X108.42Y-98.96
X108.42Y-101.5
X110.96Y-98.96
X110.96Y-101.5
X111.203Y-155.26
X111.227Y-69.7
X113.5Y-98.96
X113.5Y-101.5
X113.743Y-155.26
X113.766Y-69.7
X116.04Y-98.96
X116.04Y-101.5
X116.306Y-69.7
X118.58Y-98.96
X118.58Y-101.5
X118.846Y-69.7
X121.12Y-98.96
X121.12Y-101.5
X123.66Y-98.96
X123.66Y-101.5
X127.126Y-117.8
X129.626Y-117.8
X132.126Y-117.8
X133.933Y-143.45
X133.933Y-145.99
X133.933Y-148.53
X133.933Y-151.07
X133.933Y-153.61
X133.933Y-156.15
X140.283Y-142.815
X142.823Y-142.815
X145.363Y-142.815
X147.903Y-142.815
X150.443Y-142.815
X152.983Y-142.815
X155.523Y-142.815
X157.126Y-117.8
X158.063Y-142.815
X159.626Y-117.8
X160.603Y-142.815
X162.126Y-117.8
X175.278Y-155.26
X177.818Y-155.26
X182.503Y-136.72
X182.503Y-139.26
X182.503Y-141.8
X182.503Y-144.34
X182.503Y-146.88
X182.503Y-149.42
X187.126Y-87.85
X187.126Y-117.8
X189.626Y-87.85
X189.626Y-117.8
X192.126Y-87.85
X192.126Y-117.8
X192.663Y-126.56
X195.203Y-126.56
X197.743Y-126.56
X204.878Y-93.55
X207.418Y-93.55
X207.903Y-136.72
X207.903Y-139.26
X207.903Y-141.8
X207.903Y-144.34
X207.903Y-146.88
X207.903Y-149.42
X211.728Y-155.2
X214.268Y-155.2
X217.126Y-117.8
X217.15Y-87.875
X217.15Y-90.375
X219.626Y-117.8
X219.65Y-87.875
X219.65Y-90.375
X222.126Y-117.8
X222.15Y-87.875
X222.15Y-90.375
T6
X61.17Y-25.735
X61.17Y-32.085
X61.17Y-38.435
X77.4Y-25.735
X77.4Y-32.085
X77.4Y-38.435
X81.17Y-25.735
X81.17Y-32.085
X81.17Y-38.435
X97.4Y-25.735
X97.4Y-32.085
X97.4Y-38.435
X101.17Y-25.735
X101.17Y-32.085
X101.17Y-38.435
X117.4Y-25.735
X117.4Y-32.085
X117.4Y-38.435
X121.17Y-25.735
X121.17Y-32.085
X121.17Y-38.435
X137.4Y-25.735
X137.4Y-32.085
X137.4Y-38.435
X156.17Y-25.735
X156.17Y-32.085
X156.17Y-38.435
X172.4Y-25.735
X172.4Y-32.085
X172.4Y-38.435
X181.17Y-25.735
X181.17Y-32.085
X181.17Y-38.435
X197.4Y-25.735
X197.4Y-32.085
X197.4Y-38.435
T5
G00X64.826Y-109.95
M15
G01X64.826Y-110.65
M16
G05
G00X74.426Y-109.95
M15
G01X74.426Y-110.65
M16
G05
G00X94.826Y-109.95
M15
G01X94.826Y-110.65
M16
G05
G00X104.426Y-109.95
M15
G01X104.426Y-110.65
M16
G05
G00X124.826Y-109.95
M15
G01X124.826Y-110.65
M16
G05
G00X134.427Y-109.95
M15
G01X134.427Y-110.65
M16
G05
G00X154.826Y-109.95
M15
G01X154.826Y-110.65
M16
G05
G00X164.427Y-109.95
M15
G01X164.427Y-110.65
M16
G05
G00X184.826Y-80.0
M15
G01X184.826Y-80.7
M16
G05
G00X184.826Y-109.95
M15
G01X184.826Y-110.65
M16
G05
G00X194.427Y-80.0
M15
G01X194.427Y-80.7
M16
G05
G00X194.427Y-109.95
M15
G01X194.427Y-110.65
M16
G05
G00X214.826Y-109.95
M15
G01X214.826Y-110.65
M16
G05
G00X214.9Y-80.025
M15
G01X214.9Y-80.725
M16
G05
G00X224.4Y-80.025
M15
G01X224.4Y-80.725
M16
G05
G00X224.426Y-109.95
M15
G01X224.426Y-110.65
M16
G05
T7
G00X64.026Y-80.95
M15
G01X64.026Y-79.65
M16
G05
G00X75.227Y-80.95
M15
G01X75.227Y-79.65
M16
G05
M30
