%TF.GenerationSoftware,KiCad,Pcbnew,9.0.3*%
%TF.CreationDate,2025-08-21T10:37:57+02:00*%
%TF.ProjectId,RP2040_DSP,52503230-3430-45f4-9453-502e6b696361,V1.1*%
%TF.SameCoordinates,Original*%
%TF.FileFunction,Soldermask,Top*%
%TF.FilePolarity,Negative*%
%FSLAX46Y46*%
G04 Gerber Fmt 4.6, Leading zero omitted, Abs format (unit mm)*
G04 Created by KiCad (PCBNEW 9.0.3) date 2025-08-21 10:37:57*
%MOMM*%
%LPD*%
G01*
G04 APERTURE LIST*
G04 Aperture macros list*
%AMRoundRect*
0 Rectangle with rounded corners*
0 $1 Rounding radius*
0 $2 $3 $4 $5 $6 $7 $8 $9 X,Y pos of 4 corners*
0 Add a 4 corners polygon primitive as box body*
4,1,4,$2,$3,$4,$5,$6,$7,$8,$9,$2,$3,0*
0 Add four circle primitives for the rounded corners*
1,1,$1+$1,$2,$3*
1,1,$1+$1,$4,$5*
1,1,$1+$1,$6,$7*
1,1,$1+$1,$8,$9*
0 Add four rect primitives between the rounded corners*
20,1,$1+$1,$2,$3,$4,$5,0*
20,1,$1+$1,$4,$5,$6,$7,0*
20,1,$1+$1,$6,$7,$8,$9,0*
20,1,$1+$1,$8,$9,$2,$3,0*%
G04 Aperture macros list end*
%ADD10RoundRect,0.284146X-0.485854X0.298354X-0.485854X-0.298354X0.485854X-0.298354X0.485854X0.298354X0*%
%ADD11RoundRect,0.284146X0.485854X-0.298354X0.485854X0.298354X-0.485854X0.298354X-0.485854X-0.298354X0*%
%ADD12RoundRect,0.285000X0.510000X-0.285000X0.510000X0.285000X-0.510000X0.285000X-0.510000X-0.285000X0*%
%ADD13RoundRect,0.284146X-0.298354X-0.485854X0.298354X-0.485854X0.298354X0.485854X-0.298354X0.485854X0*%
%ADD14RoundRect,0.070000X0.850000X-0.850000X0.850000X0.850000X-0.850000X0.850000X-0.850000X-0.850000X0*%
%ADD15C,1.840000*%
%ADD16RoundRect,0.278750X0.491250X-0.278750X0.491250X0.278750X-0.491250X0.278750X-0.491250X-0.278750X0*%
%ADD17RoundRect,0.271875X-1.123125X-0.598125X1.123125X-0.598125X1.123125X0.598125X-1.123125X0.598125X0*%
%ADD18RoundRect,0.285000X0.285000X0.510000X-0.285000X0.510000X-0.285000X-0.510000X0.285000X-0.510000X0*%
%ADD19RoundRect,0.271875X1.123125X0.598125X-1.123125X0.598125X-1.123125X-0.598125X1.123125X-0.598125X0*%
%ADD20RoundRect,0.285000X-0.285000X-0.510000X0.285000X-0.510000X0.285000X0.510000X-0.285000X0.510000X0*%
%ADD21RoundRect,0.271875X0.598125X-1.123125X0.598125X1.123125X-0.598125X1.123125X-0.598125X-1.123125X0*%
%ADD22RoundRect,0.278750X-0.491250X0.278750X-0.491250X-0.278750X0.491250X-0.278750X0.491250X0.278750X0*%
%ADD23RoundRect,0.285000X-0.510000X0.285000X-0.510000X-0.285000X0.510000X-0.285000X0.510000X0.285000X0*%
%ADD24RoundRect,0.271875X-0.598125X0.598125X-0.598125X-0.598125X0.598125X-0.598125X0.598125X0.598125X0*%
%ADD25C,1.740000*%
%ADD26RoundRect,0.279166X0.390834X-0.890834X0.390834X0.890834X-0.390834X0.890834X-0.390834X-0.890834X0*%
%ADD27RoundRect,0.256032X2.713968X-3.013968X2.713968X3.013968X-2.713968X3.013968X-2.713968X-3.013968X0*%
%ADD28RoundRect,0.279166X-0.390834X0.890834X-0.390834X-0.890834X0.390834X-0.890834X0.390834X0.890834X0*%
%ADD29RoundRect,0.256032X-2.713968X3.013968X-2.713968X-3.013968X2.713968X-3.013968X2.713968X3.013968X0*%
%ADD30RoundRect,0.185000X0.860000X0.185000X-0.860000X0.185000X-0.860000X-0.185000X0.860000X-0.185000X0*%
%ADD31RoundRect,0.185000X-0.860000X-0.185000X0.860000X-0.185000X0.860000X0.185000X-0.860000X0.185000X0*%
%ADD32RoundRect,0.271875X-0.598125X1.123125X-0.598125X-1.123125X0.598125X-1.123125X0.598125X1.123125X0*%
%ADD33RoundRect,0.278750X-0.278750X-0.491250X0.278750X-0.491250X0.278750X0.491250X-0.278750X0.491250X0*%
%ADD34RoundRect,0.070000X-0.875000X-0.225000X0.875000X-0.225000X0.875000X0.225000X-0.875000X0.225000X0*%
%ADD35RoundRect,0.135000X0.672500X0.135000X-0.672500X0.135000X-0.672500X-0.135000X0.672500X-0.135000X0*%
%ADD36RoundRect,0.270589X-0.649411X0.649411X-0.649411X-0.649411X0.649411X-0.649411X0.649411X0.649411X0*%
%ADD37RoundRect,0.271875X-1.460625X-0.598125X1.460625X-0.598125X1.460625X0.598125X-1.460625X0.598125X0*%
%ADD38C,3.140000*%
%ADD39RoundRect,0.070000X1.000000X-1.000000X1.000000X1.000000X-1.000000X1.000000X-1.000000X-1.000000X0*%
%ADD40C,2.140000*%
%ADD41RoundRect,0.070000X1.000000X-1.600000X1.000000X1.600000X-1.000000X1.600000X-1.000000X-1.600000X0*%
%ADD42RoundRect,0.070000X0.900000X0.900000X-0.900000X0.900000X-0.900000X-0.900000X0.900000X-0.900000X0*%
%ADD43C,1.940000*%
%ADD44RoundRect,0.070000X-0.900000X0.900000X-0.900000X-0.900000X0.900000X-0.900000X0.900000X0.900000X0*%
%ADD45O,2.860000X3.380000*%
%ADD46RoundRect,0.070000X-0.900000X-0.900000X0.900000X-0.900000X0.900000X0.900000X-0.900000X0.900000X0*%
%ADD47O,1.740000X2.140000*%
%ADD48RoundRect,0.270589X0.649411X-0.649411X0.649411X0.649411X-0.649411X0.649411X-0.649411X-0.649411X0*%
G04 APERTURE END LIST*
D10*
%TO.C,R7*%
X217903250Y-150887500D03*
X217903250Y-152712500D03*
%TD*%
%TO.C,Rb1*%
X174803250Y-96987500D03*
X174803250Y-98812500D03*
%TD*%
D11*
%TO.C,Rg1*%
X179503250Y-98912500D03*
X179503250Y-97087500D03*
%TD*%
%TO.C,Rb4*%
X160753250Y-105100000D03*
X160753250Y-103275000D03*
%TD*%
D12*
%TO.C,C28*%
X136703250Y-155850000D03*
X136703250Y-153950000D03*
%TD*%
D13*
%TO.C,R5*%
X97390750Y-136800000D03*
X99215750Y-136800000D03*
%TD*%
D14*
%TO.C,J5*%
X211728250Y-155200000D03*
D15*
X214268250Y-155200000D03*
%TD*%
D11*
%TO.C,R1*%
X113250000Y-108162500D03*
X113250000Y-106337500D03*
%TD*%
D13*
%TO.C,Rp1*%
X116090750Y-135600000D03*
X117915750Y-135600000D03*
%TD*%
D11*
%TO.C,R2*%
X111050000Y-108162500D03*
X111050000Y-106337500D03*
%TD*%
D10*
%TO.C,R9*%
X117903250Y-150887500D03*
X117903250Y-152712500D03*
%TD*%
D12*
%TO.C,C21*%
X163003250Y-105137500D03*
X163003250Y-103237500D03*
%TD*%
D11*
%TO.C,R13*%
X144603250Y-87125000D03*
X144603250Y-85300000D03*
%TD*%
D12*
%TO.C,C25*%
X175803250Y-149350000D03*
X175803250Y-147450000D03*
%TD*%
D16*
%TO.C,D2*%
X168723250Y-123742500D03*
X168723250Y-121867500D03*
%TD*%
D17*
%TO.C,C15*%
X166928250Y-93400000D03*
X170278250Y-93400000D03*
%TD*%
D12*
%TO.C,C3*%
X149425000Y-104985000D03*
X149425000Y-103085000D03*
%TD*%
D18*
%TO.C,C9*%
X68853250Y-146050000D03*
X66953250Y-146050000D03*
%TD*%
D19*
%TO.C,C8*%
X145000000Y-111535000D03*
X141650000Y-111535000D03*
%TD*%
D20*
%TO.C,C18*%
X172653250Y-106800000D03*
X174553250Y-106800000D03*
%TD*%
D21*
%TO.C,C7*%
X173223250Y-115680000D03*
X173223250Y-112330000D03*
%TD*%
%TO.C,C26*%
X178423250Y-115680000D03*
X178423250Y-112330000D03*
%TD*%
D22*
%TO.C,D3*%
X138603250Y-107662500D03*
X138603250Y-109537500D03*
%TD*%
D23*
%TO.C,C12*%
X177203250Y-97050000D03*
X177203250Y-98950000D03*
%TD*%
D24*
%TO.C,SW2*%
X110397500Y-135732500D03*
D25*
X107857500Y-135732500D03*
X105317500Y-135732500D03*
X102777500Y-135732500D03*
X102777500Y-143352500D03*
X105317500Y-143352500D03*
X107857500Y-143352500D03*
X110397500Y-143352500D03*
%TD*%
D23*
%TO.C,C2*%
X180623250Y-118355000D03*
X180623250Y-120255000D03*
%TD*%
D26*
%TO.C,U13*%
X142245000Y-104975000D03*
X144525000Y-104975000D03*
D27*
X144525000Y-98675000D03*
D26*
X146805000Y-104975000D03*
%TD*%
D28*
%TO.C,U1*%
X178103250Y-118905000D03*
D29*
X175823250Y-125205000D03*
D28*
X173543250Y-118905000D03*
%TD*%
D30*
%TO.C,U5*%
X94853250Y-139340000D03*
X94853250Y-138070000D03*
X94853250Y-136800000D03*
X94853250Y-135530000D03*
X89903250Y-135530000D03*
X89903250Y-136800000D03*
X89903250Y-138070000D03*
X89903250Y-139340000D03*
%TD*%
D18*
%TO.C,C5*%
X144275000Y-107735000D03*
X142375000Y-107735000D03*
%TD*%
D13*
%TO.C,R6*%
X93990750Y-132800000D03*
X95815750Y-132800000D03*
%TD*%
D18*
%TO.C,C11*%
X122453250Y-135625000D03*
X120553250Y-135625000D03*
%TD*%
D14*
%TO.C,J8*%
X75903250Y-155260000D03*
D15*
X78443250Y-155260000D03*
%TD*%
D10*
%TO.C,R10*%
X67903250Y-150887500D03*
X67903250Y-152712500D03*
%TD*%
D12*
%TO.C,C17*%
X168403250Y-104350000D03*
X168403250Y-102450000D03*
%TD*%
D31*
%TO.C,U10*%
X157028250Y-97495000D03*
X157028250Y-98765000D03*
X157028250Y-100035000D03*
X157028250Y-101305000D03*
X161978250Y-101305000D03*
X161978250Y-100035000D03*
X161978250Y-98765000D03*
X161978250Y-97495000D03*
%TD*%
D14*
%TO.C,J7*%
X111203250Y-155260000D03*
D15*
X113743250Y-155260000D03*
%TD*%
D32*
%TO.C,C27*%
X149425000Y-107560000D03*
X149425000Y-110910000D03*
%TD*%
D15*
%TO.C,U4*%
X64087750Y-142812000D03*
X66627750Y-142812000D03*
X69167750Y-142812000D03*
X71707750Y-142812000D03*
X74247750Y-142812000D03*
X76787750Y-142812000D03*
X79327750Y-142812000D03*
X81867750Y-142812000D03*
X84407750Y-142812000D03*
X64087750Y-127572000D03*
X66627750Y-127572000D03*
X69167750Y-127572000D03*
X71707750Y-127572000D03*
X74247750Y-127572000D03*
X76787750Y-127572000D03*
X79327750Y-127572000D03*
X81867750Y-127572000D03*
X84407750Y-127572000D03*
X84407750Y-140272000D03*
X84407750Y-137732000D03*
X84407750Y-135192000D03*
X84407750Y-132652000D03*
X84407750Y-130112000D03*
%TD*%
D21*
%TO.C,C23*%
X170903250Y-149325000D03*
X170903250Y-145975000D03*
%TD*%
D33*
%TO.C,D1*%
X202912500Y-90450000D03*
X204787500Y-90450000D03*
%TD*%
D11*
%TO.C,Rg2*%
X167603250Y-98812500D03*
X167603250Y-96987500D03*
%TD*%
D10*
%TO.C,R11*%
X164503250Y-99687500D03*
X164503250Y-101512500D03*
%TD*%
D12*
%TO.C,C30*%
X173603250Y-95050000D03*
X173603250Y-93150000D03*
%TD*%
D23*
%TO.C,C24*%
X175803250Y-138350000D03*
X175803250Y-140250000D03*
%TD*%
%TO.C,C13*%
X170003250Y-96950000D03*
X170003250Y-98850000D03*
%TD*%
D12*
%TO.C,C20*%
X156003250Y-105137500D03*
X156003250Y-103237500D03*
%TD*%
D34*
%TO.C,U6*%
X117903250Y-137800000D03*
X117903250Y-138450000D03*
X117903250Y-139100000D03*
X117903250Y-139750000D03*
X117903250Y-140400000D03*
X117903250Y-141050000D03*
X117903250Y-141700000D03*
X117903250Y-142350000D03*
X117903250Y-143000000D03*
X117903250Y-143650000D03*
X117903250Y-144300000D03*
X117903250Y-144950000D03*
X125103250Y-144950000D03*
X125103250Y-144300000D03*
X125103250Y-143650000D03*
X125103250Y-143000000D03*
X125103250Y-142350000D03*
X125103250Y-141700000D03*
X125103250Y-141050000D03*
X125103250Y-140400000D03*
X125103250Y-139750000D03*
X125103250Y-139100000D03*
X125103250Y-138450000D03*
X125103250Y-137800000D03*
%TD*%
D11*
%TO.C,R4*%
X138603250Y-113012500D03*
X138603250Y-111187500D03*
%TD*%
D35*
%TO.C,U3*%
X148465750Y-126275000D03*
X148465750Y-125625000D03*
X148465750Y-124975000D03*
X148465750Y-124325000D03*
X148465750Y-123675000D03*
X148465750Y-123025000D03*
X148465750Y-122375000D03*
X148465750Y-121725000D03*
X142740750Y-121725000D03*
X142740750Y-122375000D03*
X142740750Y-123025000D03*
X142740750Y-123675000D03*
X142740750Y-124325000D03*
X142740750Y-124975000D03*
X142740750Y-125625000D03*
X142740750Y-126275000D03*
%TD*%
D20*
%TO.C,C10*%
X91453250Y-141400000D03*
X93353250Y-141400000D03*
%TD*%
D18*
%TO.C,C19*%
X160453250Y-95462500D03*
X158553250Y-95462500D03*
%TD*%
D20*
%TO.C,C6*%
X144603250Y-128000000D03*
X146503250Y-128000000D03*
%TD*%
D10*
%TO.C,R12*%
X165803250Y-103287500D03*
X165803250Y-105112500D03*
%TD*%
D36*
%TO.C,J13*%
X123660000Y-98960000D03*
D15*
X123660000Y-101500000D03*
X121120000Y-98960000D03*
X121120000Y-101500000D03*
X118580000Y-98960000D03*
X118580000Y-101500000D03*
X116040000Y-98960000D03*
X116040000Y-101500000D03*
X113500000Y-98960000D03*
X113500000Y-101500000D03*
X110960000Y-98960000D03*
X110960000Y-101500000D03*
X108420000Y-98960000D03*
X108420000Y-101500000D03*
X105880000Y-98960000D03*
X105880000Y-101500000D03*
%TD*%
D11*
%TO.C,Rb3*%
X158253250Y-105100000D03*
X158253250Y-103275000D03*
%TD*%
D37*
%TO.C,C1*%
X195615750Y-93550000D03*
X200690750Y-93550000D03*
%TD*%
D15*
%TO.C,U7*%
X182503250Y-136720000D03*
X182503250Y-139260000D03*
X182503250Y-141800000D03*
X182503250Y-144340000D03*
X182503250Y-146880000D03*
X182503250Y-149420000D03*
X207903250Y-149420000D03*
X207903250Y-146880000D03*
X207903250Y-144340000D03*
X207903250Y-141800000D03*
X207903250Y-139260000D03*
X207903250Y-136720000D03*
X197743250Y-126560000D03*
X195203250Y-126560000D03*
X192663250Y-126560000D03*
%TD*%
D11*
%TO.C,Rb2*%
X172403250Y-98812500D03*
X172403250Y-96987500D03*
%TD*%
D32*
%TO.C,C22*%
X170903250Y-138375000D03*
X170903250Y-141725000D03*
%TD*%
D10*
%TO.C,R3*%
X168723250Y-118392500D03*
X168723250Y-120217500D03*
%TD*%
D14*
%TO.C,J6*%
X175278250Y-155260000D03*
D15*
X177818250Y-155260000D03*
%TD*%
D30*
%TO.C,U9*%
X176078250Y-104505000D03*
X176078250Y-103235000D03*
X176078250Y-101965000D03*
X176078250Y-100695000D03*
X171128250Y-100695000D03*
X171128250Y-101965000D03*
X171128250Y-103235000D03*
X171128250Y-104505000D03*
%TD*%
D14*
%TO.C,J1*%
X204878250Y-93550000D03*
D15*
X207418250Y-93550000D03*
%TD*%
D23*
%TO.C,C4*%
X171023250Y-118355000D03*
X171023250Y-120255000D03*
%TD*%
D12*
%TO.C,C16*%
X178803250Y-104350000D03*
X178803250Y-102450000D03*
%TD*%
D23*
%TO.C,C29*%
X159503250Y-106987500D03*
X159503250Y-108887500D03*
%TD*%
D19*
%TO.C,C14*%
X180278250Y-93500000D03*
X176928250Y-93500000D03*
%TD*%
D10*
%TO.C,R8*%
X167903250Y-150887500D03*
X167903250Y-152712500D03*
%TD*%
D15*
%TO.C,U8*%
X133933250Y-156150000D03*
X133933250Y-153610000D03*
X133933250Y-151070000D03*
X133933250Y-148530000D03*
X133933250Y-145990000D03*
X133933250Y-143450000D03*
X140283250Y-142815000D03*
X142823250Y-142815000D03*
X145363250Y-142815000D03*
X147903250Y-142815000D03*
X150443250Y-142815000D03*
X152983250Y-142815000D03*
X155523250Y-142815000D03*
X158063250Y-142815000D03*
X160603250Y-142815000D03*
%TD*%
D38*
%TO.C,J3*%
X97400000Y-32085000D03*
X81170000Y-32085000D03*
X97400000Y-25735000D03*
X81170000Y-25735000D03*
X97400000Y-38435000D03*
X81170000Y-38435000D03*
%TD*%
D39*
%TO.C,SW1*%
X72126500Y-87800000D03*
D40*
X67126500Y-87800000D03*
X69626500Y-87800000D03*
D41*
X64026500Y-80300000D03*
X75226500Y-80300000D03*
D40*
X67126500Y-73300000D03*
X72126500Y-73300000D03*
%TD*%
D42*
%TO.C,D7*%
X71001500Y-155300000D03*
D43*
X68461500Y-155300000D03*
%TD*%
D44*
%TO.C,D8*%
X144603250Y-79025000D03*
D43*
X144603250Y-81565000D03*
%TD*%
D38*
%TO.C,J12*%
X172400000Y-32085000D03*
X156170000Y-32085000D03*
X172400000Y-25735000D03*
X156170000Y-25735000D03*
X172400000Y-38435000D03*
X156170000Y-38435000D03*
%TD*%
%TO.C,J11*%
X137400000Y-32085000D03*
X121170000Y-32085000D03*
X137400000Y-25735000D03*
X121170000Y-25735000D03*
X137400000Y-38435000D03*
X121170000Y-38435000D03*
%TD*%
D45*
%TO.C,RV6*%
X184826500Y-80350000D03*
X194426500Y-80350000D03*
D46*
X192126500Y-87850000D03*
D43*
X189626500Y-87850000D03*
X187126500Y-87850000D03*
%TD*%
D45*
%TO.C,RV7*%
X64826500Y-110300000D03*
X74426500Y-110300000D03*
D46*
X72126500Y-117800000D03*
D43*
X69626500Y-117800000D03*
X67126500Y-117800000D03*
%TD*%
D38*
%TO.C,J10*%
X117400000Y-32085000D03*
X101170000Y-32085000D03*
X117400000Y-25735000D03*
X101170000Y-25735000D03*
X117400000Y-38435000D03*
X101170000Y-38435000D03*
%TD*%
D45*
%TO.C,RV1*%
X214826500Y-110300000D03*
X224426500Y-110300000D03*
D46*
X222126500Y-117800000D03*
D43*
X219626500Y-117800000D03*
X217126500Y-117800000D03*
%TD*%
D38*
%TO.C,J2*%
X77400000Y-32085000D03*
X61170000Y-32085000D03*
X77400000Y-25735000D03*
X61170000Y-25735000D03*
X77400000Y-38435000D03*
X61170000Y-38435000D03*
%TD*%
D45*
%TO.C,RV2*%
X184826500Y-110300000D03*
X194426500Y-110300000D03*
D46*
X192126500Y-117800000D03*
D43*
X189626500Y-117800000D03*
X187126500Y-117800000D03*
%TD*%
D47*
%TO.C,U12*%
X118846500Y-69700000D03*
X116306500Y-69700000D03*
X113766500Y-69700000D03*
X111226500Y-69700000D03*
%TD*%
D45*
%TO.C,RV3*%
X154826500Y-110300000D03*
X164426500Y-110300000D03*
D46*
X162126500Y-117800000D03*
D43*
X159626500Y-117800000D03*
X157126500Y-117800000D03*
%TD*%
D42*
%TO.C,D4*%
X221001500Y-155300000D03*
D43*
X218461500Y-155300000D03*
%TD*%
D45*
%TO.C,RV5*%
X94826500Y-110300000D03*
X104426500Y-110300000D03*
D46*
X102126500Y-117800000D03*
D43*
X99626500Y-117800000D03*
X97126500Y-117800000D03*
%TD*%
D45*
%TO.C,RV8*%
X214900000Y-80375000D03*
X224400000Y-80375000D03*
D46*
X222150000Y-87875000D03*
D43*
X219650000Y-87875000D03*
X217150000Y-87875000D03*
X222150000Y-90375000D03*
X219650000Y-90375000D03*
X217150000Y-90375000D03*
%TD*%
D42*
%TO.C,D5*%
X171001500Y-155300000D03*
D43*
X168461500Y-155300000D03*
%TD*%
D48*
%TO.C,J4*%
X88120000Y-53500000D03*
D15*
X88120000Y-50960000D03*
X85580000Y-53500000D03*
X85580000Y-50960000D03*
X83040000Y-53500000D03*
X83040000Y-50960000D03*
X80500000Y-53500000D03*
X80500000Y-50960000D03*
X77960000Y-53500000D03*
X77960000Y-50960000D03*
X75420000Y-53500000D03*
X75420000Y-50960000D03*
X72880000Y-53500000D03*
X72880000Y-50960000D03*
X70340000Y-53500000D03*
X70340000Y-50960000D03*
%TD*%
D24*
%TO.C,U11*%
X142920000Y-36130000D03*
D25*
X145460000Y-36130000D03*
X148000000Y-36130000D03*
X148000000Y-43750000D03*
X145460000Y-43750000D03*
X142920000Y-43750000D03*
%TD*%
D42*
%TO.C,D6*%
X121001500Y-155300000D03*
D43*
X118461500Y-155300000D03*
%TD*%
D38*
%TO.C,J9*%
X197400000Y-32085000D03*
X181170000Y-32085000D03*
X197400000Y-25735000D03*
X181170000Y-25735000D03*
X197400000Y-38435000D03*
X181170000Y-38435000D03*
%TD*%
D45*
%TO.C,RV4*%
X124826500Y-110300000D03*
X134426500Y-110300000D03*
D46*
X132126500Y-117800000D03*
D43*
X129626500Y-117800000D03*
X127126500Y-117800000D03*
%TD*%
M02*
