%TF.GenerationSoftware,KiCad,Pcbnew,9.0.3*%
%TF.CreationDate,2025-08-21T10:37:57+02:00*%
%TF.ProjectId,RP2040_DSP,52503230-3430-45f4-9453-502e6b696361,V1.1*%
%TF.SameCoordinates,Original*%
%TF.FileFunction,Legend,Bot*%
%TF.FilePolarity,Positive*%
%FSLAX46Y46*%
G04 Gerber Fmt 4.6, Leading zero omitted, Abs format (unit mm)*
G04 Created by KiCad (PCBNEW 9.0.3) date 2025-08-21 10:37:57*
%MOMM*%
%LPD*%
G01*
G04 APERTURE LIST*
%ADD10C,0.200000*%
%ADD11C,0.150000*%
%ADD12C,0.100000*%
%ADD13C,0.120000*%
G04 APERTURE END LIST*
D10*
X132277945Y-144066600D02*
X132135088Y-144114219D01*
X132135088Y-144114219D02*
X131896993Y-144114219D01*
X131896993Y-144114219D02*
X131801755Y-144066600D01*
X131801755Y-144066600D02*
X131754136Y-144018980D01*
X131754136Y-144018980D02*
X131706517Y-143923742D01*
X131706517Y-143923742D02*
X131706517Y-143828504D01*
X131706517Y-143828504D02*
X131754136Y-143733266D01*
X131754136Y-143733266D02*
X131801755Y-143685647D01*
X131801755Y-143685647D02*
X131896993Y-143638028D01*
X131896993Y-143638028D02*
X132087469Y-143590409D01*
X132087469Y-143590409D02*
X132182707Y-143542790D01*
X132182707Y-143542790D02*
X132230326Y-143495171D01*
X132230326Y-143495171D02*
X132277945Y-143399933D01*
X132277945Y-143399933D02*
X132277945Y-143304695D01*
X132277945Y-143304695D02*
X132230326Y-143209457D01*
X132230326Y-143209457D02*
X132182707Y-143161838D01*
X132182707Y-143161838D02*
X132087469Y-143114219D01*
X132087469Y-143114219D02*
X131849374Y-143114219D01*
X131849374Y-143114219D02*
X131706517Y-143161838D01*
X130706517Y-144018980D02*
X130754136Y-144066600D01*
X130754136Y-144066600D02*
X130896993Y-144114219D01*
X130896993Y-144114219D02*
X130992231Y-144114219D01*
X130992231Y-144114219D02*
X131135088Y-144066600D01*
X131135088Y-144066600D02*
X131230326Y-143971361D01*
X131230326Y-143971361D02*
X131277945Y-143876123D01*
X131277945Y-143876123D02*
X131325564Y-143685647D01*
X131325564Y-143685647D02*
X131325564Y-143542790D01*
X131325564Y-143542790D02*
X131277945Y-143352314D01*
X131277945Y-143352314D02*
X131230326Y-143257076D01*
X131230326Y-143257076D02*
X131135088Y-143161838D01*
X131135088Y-143161838D02*
X130992231Y-143114219D01*
X130992231Y-143114219D02*
X130896993Y-143114219D01*
X130896993Y-143114219D02*
X130754136Y-143161838D01*
X130754136Y-143161838D02*
X130706517Y-143209457D01*
X130277945Y-144114219D02*
X130277945Y-143114219D01*
X129706517Y-144114219D02*
X130135088Y-143542790D01*
X129706517Y-143114219D02*
X130277945Y-143685647D01*
X131706517Y-153194838D02*
X131801755Y-153147219D01*
X131801755Y-153147219D02*
X131944612Y-153147219D01*
X131944612Y-153147219D02*
X132087469Y-153194838D01*
X132087469Y-153194838D02*
X132182707Y-153290076D01*
X132182707Y-153290076D02*
X132230326Y-153385314D01*
X132230326Y-153385314D02*
X132277945Y-153575790D01*
X132277945Y-153575790D02*
X132277945Y-153718647D01*
X132277945Y-153718647D02*
X132230326Y-153909123D01*
X132230326Y-153909123D02*
X132182707Y-154004361D01*
X132182707Y-154004361D02*
X132087469Y-154099600D01*
X132087469Y-154099600D02*
X131944612Y-154147219D01*
X131944612Y-154147219D02*
X131849374Y-154147219D01*
X131849374Y-154147219D02*
X131706517Y-154099600D01*
X131706517Y-154099600D02*
X131658898Y-154051980D01*
X131658898Y-154051980D02*
X131658898Y-153718647D01*
X131658898Y-153718647D02*
X131849374Y-153718647D01*
X131230326Y-154147219D02*
X131230326Y-153147219D01*
X131230326Y-153147219D02*
X130658898Y-154147219D01*
X130658898Y-154147219D02*
X130658898Y-153147219D01*
X130182707Y-154147219D02*
X130182707Y-153147219D01*
X130182707Y-153147219D02*
X129944612Y-153147219D01*
X129944612Y-153147219D02*
X129801755Y-153194838D01*
X129801755Y-153194838D02*
X129706517Y-153290076D01*
X129706517Y-153290076D02*
X129658898Y-153385314D01*
X129658898Y-153385314D02*
X129611279Y-153575790D01*
X129611279Y-153575790D02*
X129611279Y-153718647D01*
X129611279Y-153718647D02*
X129658898Y-153909123D01*
X129658898Y-153909123D02*
X129706517Y-154004361D01*
X129706517Y-154004361D02*
X129801755Y-154099600D01*
X129801755Y-154099600D02*
X129944612Y-154147219D01*
X129944612Y-154147219D02*
X130182707Y-154147219D01*
D11*
X90901064Y-140807200D02*
X90758207Y-140854819D01*
X90758207Y-140854819D02*
X90520112Y-140854819D01*
X90520112Y-140854819D02*
X90424874Y-140807200D01*
X90424874Y-140807200D02*
X90377255Y-140759580D01*
X90377255Y-140759580D02*
X90329636Y-140664342D01*
X90329636Y-140664342D02*
X90329636Y-140569104D01*
X90329636Y-140569104D02*
X90377255Y-140473866D01*
X90377255Y-140473866D02*
X90424874Y-140426247D01*
X90424874Y-140426247D02*
X90520112Y-140378628D01*
X90520112Y-140378628D02*
X90710588Y-140331009D01*
X90710588Y-140331009D02*
X90805826Y-140283390D01*
X90805826Y-140283390D02*
X90853445Y-140235771D01*
X90853445Y-140235771D02*
X90901064Y-140140533D01*
X90901064Y-140140533D02*
X90901064Y-140045295D01*
X90901064Y-140045295D02*
X90853445Y-139950057D01*
X90853445Y-139950057D02*
X90805826Y-139902438D01*
X90805826Y-139902438D02*
X90710588Y-139854819D01*
X90710588Y-139854819D02*
X90472493Y-139854819D01*
X90472493Y-139854819D02*
X90329636Y-139902438D01*
X89901064Y-140854819D02*
X89901064Y-139854819D01*
X89901064Y-139854819D02*
X89520112Y-139854819D01*
X89520112Y-139854819D02*
X89424874Y-139902438D01*
X89424874Y-139902438D02*
X89377255Y-139950057D01*
X89377255Y-139950057D02*
X89329636Y-140045295D01*
X89329636Y-140045295D02*
X89329636Y-140188152D01*
X89329636Y-140188152D02*
X89377255Y-140283390D01*
X89377255Y-140283390D02*
X89424874Y-140331009D01*
X89424874Y-140331009D02*
X89520112Y-140378628D01*
X89520112Y-140378628D02*
X89901064Y-140378628D01*
X88901064Y-140854819D02*
X88901064Y-139854819D01*
X88662970Y-140950057D02*
X87901065Y-140950057D01*
X87091541Y-140759580D02*
X87139160Y-140807200D01*
X87139160Y-140807200D02*
X87282017Y-140854819D01*
X87282017Y-140854819D02*
X87377255Y-140854819D01*
X87377255Y-140854819D02*
X87520112Y-140807200D01*
X87520112Y-140807200D02*
X87615350Y-140711961D01*
X87615350Y-140711961D02*
X87662969Y-140616723D01*
X87662969Y-140616723D02*
X87710588Y-140426247D01*
X87710588Y-140426247D02*
X87710588Y-140283390D01*
X87710588Y-140283390D02*
X87662969Y-140092914D01*
X87662969Y-140092914D02*
X87615350Y-139997676D01*
X87615350Y-139997676D02*
X87520112Y-139902438D01*
X87520112Y-139902438D02*
X87377255Y-139854819D01*
X87377255Y-139854819D02*
X87282017Y-139854819D01*
X87282017Y-139854819D02*
X87139160Y-139902438D01*
X87139160Y-139902438D02*
X87091541Y-139950057D01*
X86710588Y-140807200D02*
X86567731Y-140854819D01*
X86567731Y-140854819D02*
X86329636Y-140854819D01*
X86329636Y-140854819D02*
X86234398Y-140807200D01*
X86234398Y-140807200D02*
X86186779Y-140759580D01*
X86186779Y-140759580D02*
X86139160Y-140664342D01*
X86139160Y-140664342D02*
X86139160Y-140569104D01*
X86139160Y-140569104D02*
X86186779Y-140473866D01*
X86186779Y-140473866D02*
X86234398Y-140426247D01*
X86234398Y-140426247D02*
X86329636Y-140378628D01*
X86329636Y-140378628D02*
X86520112Y-140331009D01*
X86520112Y-140331009D02*
X86615350Y-140283390D01*
X86615350Y-140283390D02*
X86662969Y-140235771D01*
X86662969Y-140235771D02*
X86710588Y-140140533D01*
X86710588Y-140140533D02*
X86710588Y-140045295D01*
X86710588Y-140045295D02*
X86662969Y-139950057D01*
X86662969Y-139950057D02*
X86615350Y-139902438D01*
X86615350Y-139902438D02*
X86520112Y-139854819D01*
X86520112Y-139854819D02*
X86282017Y-139854819D01*
X86282017Y-139854819D02*
X86139160Y-139902438D01*
X68654819Y-138882268D02*
X68654819Y-139501315D01*
X68654819Y-139501315D02*
X69035771Y-139167982D01*
X69035771Y-139167982D02*
X69035771Y-139310839D01*
X69035771Y-139310839D02*
X69083390Y-139406077D01*
X69083390Y-139406077D02*
X69131009Y-139453696D01*
X69131009Y-139453696D02*
X69226247Y-139501315D01*
X69226247Y-139501315D02*
X69464342Y-139501315D01*
X69464342Y-139501315D02*
X69559580Y-139453696D01*
X69559580Y-139453696D02*
X69607200Y-139406077D01*
X69607200Y-139406077D02*
X69654819Y-139310839D01*
X69654819Y-139310839D02*
X69654819Y-139025125D01*
X69654819Y-139025125D02*
X69607200Y-138929887D01*
X69607200Y-138929887D02*
X69559580Y-138882268D01*
X68654819Y-139787030D02*
X69654819Y-140120363D01*
X69654819Y-140120363D02*
X68654819Y-140453696D01*
X68654819Y-140691792D02*
X68654819Y-141310839D01*
X68654819Y-141310839D02*
X69035771Y-140977506D01*
X69035771Y-140977506D02*
X69035771Y-141120363D01*
X69035771Y-141120363D02*
X69083390Y-141215601D01*
X69083390Y-141215601D02*
X69131009Y-141263220D01*
X69131009Y-141263220D02*
X69226247Y-141310839D01*
X69226247Y-141310839D02*
X69464342Y-141310839D01*
X69464342Y-141310839D02*
X69559580Y-141263220D01*
X69559580Y-141263220D02*
X69607200Y-141215601D01*
X69607200Y-141215601D02*
X69654819Y-141120363D01*
X69654819Y-141120363D02*
X69654819Y-140834649D01*
X69654819Y-140834649D02*
X69607200Y-140739411D01*
X69607200Y-140739411D02*
X69559580Y-140691792D01*
D10*
X161007219Y-138316040D02*
X161007219Y-137839850D01*
X161007219Y-137839850D02*
X160007219Y-137839850D01*
X160007219Y-138839850D02*
X160007219Y-139030326D01*
X160007219Y-139030326D02*
X160054838Y-139125564D01*
X160054838Y-139125564D02*
X160150076Y-139220802D01*
X160150076Y-139220802D02*
X160340552Y-139268421D01*
X160340552Y-139268421D02*
X160673885Y-139268421D01*
X160673885Y-139268421D02*
X160864361Y-139220802D01*
X160864361Y-139220802D02*
X160959600Y-139125564D01*
X160959600Y-139125564D02*
X161007219Y-139030326D01*
X161007219Y-139030326D02*
X161007219Y-138839850D01*
X161007219Y-138839850D02*
X160959600Y-138744612D01*
X160959600Y-138744612D02*
X160864361Y-138649374D01*
X160864361Y-138649374D02*
X160673885Y-138601755D01*
X160673885Y-138601755D02*
X160340552Y-138601755D01*
X160340552Y-138601755D02*
X160150076Y-138649374D01*
X160150076Y-138649374D02*
X160054838Y-138744612D01*
X160054838Y-138744612D02*
X160007219Y-138839850D01*
X160007219Y-139696993D02*
X160816742Y-139696993D01*
X160816742Y-139696993D02*
X160911980Y-139744612D01*
X160911980Y-139744612D02*
X160959600Y-139792231D01*
X160959600Y-139792231D02*
X161007219Y-139887469D01*
X161007219Y-139887469D02*
X161007219Y-140077945D01*
X161007219Y-140077945D02*
X160959600Y-140173183D01*
X160959600Y-140173183D02*
X160911980Y-140220802D01*
X160911980Y-140220802D02*
X160816742Y-140268421D01*
X160816742Y-140268421D02*
X160007219Y-140268421D01*
X160007219Y-140601755D02*
X160007219Y-141173183D01*
X161007219Y-140887469D02*
X160007219Y-140887469D01*
X147640552Y-140982707D02*
X148307219Y-140982707D01*
X147259600Y-140744612D02*
X147973885Y-140506517D01*
X147973885Y-140506517D02*
X147973885Y-141125564D01*
D12*
G36*
X220933277Y-126354444D02*
G01*
X218811940Y-126354444D01*
X218811940Y-125910000D01*
X219256384Y-125910000D01*
X220005233Y-125910000D01*
X220005233Y-122816908D01*
X220488833Y-122999846D01*
X220488833Y-122204836D01*
X219895812Y-121936901D01*
X219256384Y-121936901D01*
X219256384Y-125910000D01*
X218811940Y-125910000D01*
X218811940Y-121492457D01*
X220933277Y-121492457D01*
X220933277Y-126354444D01*
G37*
D11*
X190209523Y-89654819D02*
X189542857Y-90654819D01*
X189542857Y-89654819D02*
X190209523Y-90654819D01*
X189209523Y-89750057D02*
X189161904Y-89702438D01*
X189161904Y-89702438D02*
X189066666Y-89654819D01*
X189066666Y-89654819D02*
X188828571Y-89654819D01*
X188828571Y-89654819D02*
X188733333Y-89702438D01*
X188733333Y-89702438D02*
X188685714Y-89750057D01*
X188685714Y-89750057D02*
X188638095Y-89845295D01*
X188638095Y-89845295D02*
X188638095Y-89940533D01*
X188638095Y-89940533D02*
X188685714Y-90083390D01*
X188685714Y-90083390D02*
X189257142Y-90654819D01*
X189257142Y-90654819D02*
X188638095Y-90654819D01*
X145817535Y-91054819D02*
X145817535Y-90054819D01*
X145817535Y-90054819D02*
X145436583Y-90054819D01*
X145436583Y-90054819D02*
X145341345Y-90102438D01*
X145341345Y-90102438D02*
X145293726Y-90150057D01*
X145293726Y-90150057D02*
X145246107Y-90245295D01*
X145246107Y-90245295D02*
X145246107Y-90388152D01*
X145246107Y-90388152D02*
X145293726Y-90483390D01*
X145293726Y-90483390D02*
X145341345Y-90531009D01*
X145341345Y-90531009D02*
X145436583Y-90578628D01*
X145436583Y-90578628D02*
X145817535Y-90578628D01*
X144293726Y-91054819D02*
X144865154Y-91054819D01*
X144579440Y-91054819D02*
X144579440Y-90054819D01*
X144579440Y-90054819D02*
X144674678Y-90197676D01*
X144674678Y-90197676D02*
X144769916Y-90292914D01*
X144769916Y-90292914D02*
X144865154Y-90340533D01*
X143960392Y-90054819D02*
X143293726Y-90054819D01*
X143293726Y-90054819D02*
X143722297Y-91054819D01*
X170814285Y-145854819D02*
X170814285Y-144854819D01*
X170814285Y-144854819D02*
X170433333Y-144854819D01*
X170433333Y-144854819D02*
X170338095Y-144902438D01*
X170338095Y-144902438D02*
X170290476Y-144950057D01*
X170290476Y-144950057D02*
X170242857Y-145045295D01*
X170242857Y-145045295D02*
X170242857Y-145188152D01*
X170242857Y-145188152D02*
X170290476Y-145283390D01*
X170290476Y-145283390D02*
X170338095Y-145331009D01*
X170338095Y-145331009D02*
X170433333Y-145378628D01*
X170433333Y-145378628D02*
X170814285Y-145378628D01*
X169290476Y-145854819D02*
X169861904Y-145854819D01*
X169576190Y-145854819D02*
X169576190Y-144854819D01*
X169576190Y-144854819D02*
X169671428Y-144997676D01*
X169671428Y-144997676D02*
X169766666Y-145092914D01*
X169766666Y-145092914D02*
X169861904Y-145140533D01*
X168338095Y-145854819D02*
X168909523Y-145854819D01*
X168623809Y-145854819D02*
X168623809Y-144854819D01*
X168623809Y-144854819D02*
X168719047Y-144997676D01*
X168719047Y-144997676D02*
X168814285Y-145092914D01*
X168814285Y-145092914D02*
X168909523Y-145140533D01*
X70409523Y-119654819D02*
X69742857Y-120654819D01*
X69742857Y-119654819D02*
X70409523Y-120654819D01*
X69457142Y-119654819D02*
X68838095Y-119654819D01*
X68838095Y-119654819D02*
X69171428Y-120035771D01*
X69171428Y-120035771D02*
X69028571Y-120035771D01*
X69028571Y-120035771D02*
X68933333Y-120083390D01*
X68933333Y-120083390D02*
X68885714Y-120131009D01*
X68885714Y-120131009D02*
X68838095Y-120226247D01*
X68838095Y-120226247D02*
X68838095Y-120464342D01*
X68838095Y-120464342D02*
X68885714Y-120559580D01*
X68885714Y-120559580D02*
X68933333Y-120607200D01*
X68933333Y-120607200D02*
X69028571Y-120654819D01*
X69028571Y-120654819D02*
X69314285Y-120654819D01*
X69314285Y-120654819D02*
X69409523Y-120607200D01*
X69409523Y-120607200D02*
X69457142Y-120559580D01*
D10*
X144767219Y-140458898D02*
X144767219Y-141077945D01*
X144767219Y-141077945D02*
X145148171Y-140744612D01*
X145148171Y-140744612D02*
X145148171Y-140887469D01*
X145148171Y-140887469D02*
X145195790Y-140982707D01*
X145195790Y-140982707D02*
X145243409Y-141030326D01*
X145243409Y-141030326D02*
X145338647Y-141077945D01*
X145338647Y-141077945D02*
X145576742Y-141077945D01*
X145576742Y-141077945D02*
X145671980Y-141030326D01*
X145671980Y-141030326D02*
X145719600Y-140982707D01*
X145719600Y-140982707D02*
X145767219Y-140887469D01*
X145767219Y-140887469D02*
X145767219Y-140601755D01*
X145767219Y-140601755D02*
X145719600Y-140506517D01*
X145719600Y-140506517D02*
X145671980Y-140458898D01*
D11*
X77354819Y-136977506D02*
X76354819Y-136977506D01*
X76354819Y-136977506D02*
X77069104Y-137310839D01*
X77069104Y-137310839D02*
X76354819Y-137644172D01*
X76354819Y-137644172D02*
X77354819Y-137644172D01*
X76354819Y-138120363D02*
X77164342Y-138120363D01*
X77164342Y-138120363D02*
X77259580Y-138167982D01*
X77259580Y-138167982D02*
X77307200Y-138215601D01*
X77307200Y-138215601D02*
X77354819Y-138310839D01*
X77354819Y-138310839D02*
X77354819Y-138501315D01*
X77354819Y-138501315D02*
X77307200Y-138596553D01*
X77307200Y-138596553D02*
X77259580Y-138644172D01*
X77259580Y-138644172D02*
X77164342Y-138691791D01*
X77164342Y-138691791D02*
X76354819Y-138691791D01*
X76354819Y-139072744D02*
X77354819Y-139739410D01*
X76354819Y-139739410D02*
X77354819Y-139072744D01*
X77450057Y-139882268D02*
X77450057Y-140644172D01*
X77069104Y-140834649D02*
X77069104Y-141310839D01*
X77354819Y-140739411D02*
X76354819Y-141072744D01*
X76354819Y-141072744D02*
X77354819Y-141406077D01*
X77204819Y-129136779D02*
X76204819Y-129136779D01*
X76300057Y-129565350D02*
X76252438Y-129612969D01*
X76252438Y-129612969D02*
X76204819Y-129708207D01*
X76204819Y-129708207D02*
X76204819Y-129946302D01*
X76204819Y-129946302D02*
X76252438Y-130041540D01*
X76252438Y-130041540D02*
X76300057Y-130089159D01*
X76300057Y-130089159D02*
X76395295Y-130136778D01*
X76395295Y-130136778D02*
X76490533Y-130136778D01*
X76490533Y-130136778D02*
X76633390Y-130089159D01*
X76633390Y-130089159D02*
X77204819Y-129517731D01*
X77204819Y-129517731D02*
X77204819Y-130136778D01*
X77109580Y-131136778D02*
X77157200Y-131089159D01*
X77157200Y-131089159D02*
X77204819Y-130946302D01*
X77204819Y-130946302D02*
X77204819Y-130851064D01*
X77204819Y-130851064D02*
X77157200Y-130708207D01*
X77157200Y-130708207D02*
X77061961Y-130612969D01*
X77061961Y-130612969D02*
X76966723Y-130565350D01*
X76966723Y-130565350D02*
X76776247Y-130517731D01*
X76776247Y-130517731D02*
X76633390Y-130517731D01*
X76633390Y-130517731D02*
X76442914Y-130565350D01*
X76442914Y-130565350D02*
X76347676Y-130612969D01*
X76347676Y-130612969D02*
X76252438Y-130708207D01*
X76252438Y-130708207D02*
X76204819Y-130851064D01*
X76204819Y-130851064D02*
X76204819Y-130946302D01*
X76204819Y-130946302D02*
X76252438Y-131089159D01*
X76252438Y-131089159D02*
X76300057Y-131136778D01*
X77300057Y-131327255D02*
X77300057Y-132089159D01*
X77157200Y-132279636D02*
X77204819Y-132422493D01*
X77204819Y-132422493D02*
X77204819Y-132660588D01*
X77204819Y-132660588D02*
X77157200Y-132755826D01*
X77157200Y-132755826D02*
X77109580Y-132803445D01*
X77109580Y-132803445D02*
X77014342Y-132851064D01*
X77014342Y-132851064D02*
X76919104Y-132851064D01*
X76919104Y-132851064D02*
X76823866Y-132803445D01*
X76823866Y-132803445D02*
X76776247Y-132755826D01*
X76776247Y-132755826D02*
X76728628Y-132660588D01*
X76728628Y-132660588D02*
X76681009Y-132470112D01*
X76681009Y-132470112D02*
X76633390Y-132374874D01*
X76633390Y-132374874D02*
X76585771Y-132327255D01*
X76585771Y-132327255D02*
X76490533Y-132279636D01*
X76490533Y-132279636D02*
X76395295Y-132279636D01*
X76395295Y-132279636D02*
X76300057Y-132327255D01*
X76300057Y-132327255D02*
X76252438Y-132374874D01*
X76252438Y-132374874D02*
X76204819Y-132470112D01*
X76204819Y-132470112D02*
X76204819Y-132708207D01*
X76204819Y-132708207D02*
X76252438Y-132851064D01*
X77109580Y-133851064D02*
X77157200Y-133803445D01*
X77157200Y-133803445D02*
X77204819Y-133660588D01*
X77204819Y-133660588D02*
X77204819Y-133565350D01*
X77204819Y-133565350D02*
X77157200Y-133422493D01*
X77157200Y-133422493D02*
X77061961Y-133327255D01*
X77061961Y-133327255D02*
X76966723Y-133279636D01*
X76966723Y-133279636D02*
X76776247Y-133232017D01*
X76776247Y-133232017D02*
X76633390Y-133232017D01*
X76633390Y-133232017D02*
X76442914Y-133279636D01*
X76442914Y-133279636D02*
X76347676Y-133327255D01*
X76347676Y-133327255D02*
X76252438Y-133422493D01*
X76252438Y-133422493D02*
X76204819Y-133565350D01*
X76204819Y-133565350D02*
X76204819Y-133660588D01*
X76204819Y-133660588D02*
X76252438Y-133803445D01*
X76252438Y-133803445D02*
X76300057Y-133851064D01*
X77204819Y-134755826D02*
X77204819Y-134279636D01*
X77204819Y-134279636D02*
X76204819Y-134279636D01*
D10*
X131754136Y-155687219D02*
X132230326Y-155687219D01*
X132230326Y-155687219D02*
X132277945Y-156163409D01*
X132277945Y-156163409D02*
X132230326Y-156115790D01*
X132230326Y-156115790D02*
X132135088Y-156068171D01*
X132135088Y-156068171D02*
X131896993Y-156068171D01*
X131896993Y-156068171D02*
X131801755Y-156115790D01*
X131801755Y-156115790D02*
X131754136Y-156163409D01*
X131754136Y-156163409D02*
X131706517Y-156258647D01*
X131706517Y-156258647D02*
X131706517Y-156496742D01*
X131706517Y-156496742D02*
X131754136Y-156591980D01*
X131754136Y-156591980D02*
X131801755Y-156639600D01*
X131801755Y-156639600D02*
X131896993Y-156687219D01*
X131896993Y-156687219D02*
X132135088Y-156687219D01*
X132135088Y-156687219D02*
X132230326Y-156639600D01*
X132230326Y-156639600D02*
X132277945Y-156591980D01*
X131420802Y-155687219D02*
X131087469Y-156687219D01*
X131087469Y-156687219D02*
X130754136Y-155687219D01*
D11*
X74654819Y-129136779D02*
X73654819Y-129136779D01*
X73750057Y-129565350D02*
X73702438Y-129612969D01*
X73702438Y-129612969D02*
X73654819Y-129708207D01*
X73654819Y-129708207D02*
X73654819Y-129946302D01*
X73654819Y-129946302D02*
X73702438Y-130041540D01*
X73702438Y-130041540D02*
X73750057Y-130089159D01*
X73750057Y-130089159D02*
X73845295Y-130136778D01*
X73845295Y-130136778D02*
X73940533Y-130136778D01*
X73940533Y-130136778D02*
X74083390Y-130089159D01*
X74083390Y-130089159D02*
X74654819Y-129517731D01*
X74654819Y-129517731D02*
X74654819Y-130136778D01*
X74559580Y-131136778D02*
X74607200Y-131089159D01*
X74607200Y-131089159D02*
X74654819Y-130946302D01*
X74654819Y-130946302D02*
X74654819Y-130851064D01*
X74654819Y-130851064D02*
X74607200Y-130708207D01*
X74607200Y-130708207D02*
X74511961Y-130612969D01*
X74511961Y-130612969D02*
X74416723Y-130565350D01*
X74416723Y-130565350D02*
X74226247Y-130517731D01*
X74226247Y-130517731D02*
X74083390Y-130517731D01*
X74083390Y-130517731D02*
X73892914Y-130565350D01*
X73892914Y-130565350D02*
X73797676Y-130612969D01*
X73797676Y-130612969D02*
X73702438Y-130708207D01*
X73702438Y-130708207D02*
X73654819Y-130851064D01*
X73654819Y-130851064D02*
X73654819Y-130946302D01*
X73654819Y-130946302D02*
X73702438Y-131089159D01*
X73702438Y-131089159D02*
X73750057Y-131136778D01*
X74750057Y-131327255D02*
X74750057Y-132089159D01*
X74607200Y-132279636D02*
X74654819Y-132422493D01*
X74654819Y-132422493D02*
X74654819Y-132660588D01*
X74654819Y-132660588D02*
X74607200Y-132755826D01*
X74607200Y-132755826D02*
X74559580Y-132803445D01*
X74559580Y-132803445D02*
X74464342Y-132851064D01*
X74464342Y-132851064D02*
X74369104Y-132851064D01*
X74369104Y-132851064D02*
X74273866Y-132803445D01*
X74273866Y-132803445D02*
X74226247Y-132755826D01*
X74226247Y-132755826D02*
X74178628Y-132660588D01*
X74178628Y-132660588D02*
X74131009Y-132470112D01*
X74131009Y-132470112D02*
X74083390Y-132374874D01*
X74083390Y-132374874D02*
X74035771Y-132327255D01*
X74035771Y-132327255D02*
X73940533Y-132279636D01*
X73940533Y-132279636D02*
X73845295Y-132279636D01*
X73845295Y-132279636D02*
X73750057Y-132327255D01*
X73750057Y-132327255D02*
X73702438Y-132374874D01*
X73702438Y-132374874D02*
X73654819Y-132470112D01*
X73654819Y-132470112D02*
X73654819Y-132708207D01*
X73654819Y-132708207D02*
X73702438Y-132851064D01*
X74654819Y-133279636D02*
X73654819Y-133279636D01*
X73654819Y-133279636D02*
X73654819Y-133517731D01*
X73654819Y-133517731D02*
X73702438Y-133660588D01*
X73702438Y-133660588D02*
X73797676Y-133755826D01*
X73797676Y-133755826D02*
X73892914Y-133803445D01*
X73892914Y-133803445D02*
X74083390Y-133851064D01*
X74083390Y-133851064D02*
X74226247Y-133851064D01*
X74226247Y-133851064D02*
X74416723Y-133803445D01*
X74416723Y-133803445D02*
X74511961Y-133755826D01*
X74511961Y-133755826D02*
X74607200Y-133660588D01*
X74607200Y-133660588D02*
X74654819Y-133517731D01*
X74654819Y-133517731D02*
X74654819Y-133279636D01*
X74369104Y-134232017D02*
X74369104Y-134708207D01*
X74654819Y-134136779D02*
X73654819Y-134470112D01*
X73654819Y-134470112D02*
X74654819Y-134803445D01*
D12*
G36*
X122000731Y-149738506D02*
G01*
X121153453Y-149738506D01*
X120986609Y-149723000D01*
X120856877Y-149680491D01*
X120756070Y-149614187D01*
X120679424Y-149522753D01*
X120632218Y-149408913D01*
X120615386Y-149265896D01*
X120615386Y-149257592D01*
X120631860Y-149115163D01*
X120678156Y-149000893D01*
X120754724Y-148907854D01*
X120862560Y-148838471D01*
X120991783Y-148797187D01*
X121153453Y-148782295D01*
X122000731Y-148782295D01*
X122000731Y-149738506D01*
G37*
G36*
X122000731Y-148060802D02*
G01*
X121153453Y-148060802D01*
X121003058Y-148046233D01*
X120885841Y-148006173D01*
X120794416Y-147943321D01*
X120725409Y-147857329D01*
X120682534Y-147749360D01*
X120667166Y-147612861D01*
X120682235Y-147491133D01*
X120724737Y-147393718D01*
X120794416Y-147314884D01*
X120884973Y-147258307D01*
X121002166Y-147221772D01*
X121153453Y-147208394D01*
X122000731Y-147208394D01*
X122000731Y-148060802D01*
G37*
G36*
X123193780Y-150945476D02*
G01*
X116495820Y-150945476D01*
X116495820Y-149284947D01*
X116940264Y-149284947D01*
X116940264Y-149405359D01*
X116956626Y-149633207D01*
X117003059Y-149829048D01*
X117077040Y-149998136D01*
X117181695Y-150148655D01*
X117313574Y-150272783D01*
X117475888Y-150372561D01*
X117655173Y-150441773D01*
X117863772Y-150485548D01*
X118107012Y-150501032D01*
X118344627Y-150485675D01*
X118557554Y-150441391D01*
X118749371Y-150369874D01*
X118925428Y-150268232D01*
X119073890Y-150141306D01*
X119197556Y-149987390D01*
X119290292Y-149812992D01*
X119351725Y-149615009D01*
X119380494Y-149388750D01*
X118607221Y-149388750D01*
X118580100Y-149505113D01*
X118534925Y-149598066D01*
X118470558Y-149674186D01*
X118391311Y-149729225D01*
X118298985Y-149762492D01*
X118189078Y-149774166D01*
X118051757Y-149759631D01*
X117944275Y-149719406D01*
X117859838Y-149655464D01*
X117797462Y-149569396D01*
X117758070Y-149460023D01*
X117748840Y-149369699D01*
X119861164Y-149369699D01*
X119861164Y-149378004D01*
X119878214Y-149601827D01*
X119926760Y-149795002D01*
X120004535Y-149962721D01*
X120113690Y-150110859D01*
X120251803Y-150233754D01*
X120422678Y-150332993D01*
X120609869Y-150401310D01*
X120828034Y-150444648D01*
X121082623Y-150460000D01*
X122000731Y-150460000D01*
X122749336Y-150460000D01*
X122749336Y-146486901D01*
X122421318Y-146486901D01*
X121129029Y-146486901D01*
X120874443Y-146502304D01*
X120656808Y-146545744D01*
X120470550Y-146614152D01*
X120300582Y-146713264D01*
X120163366Y-146835682D01*
X120055093Y-146982958D01*
X119977968Y-147149638D01*
X119929841Y-147341453D01*
X119912944Y-147563524D01*
X119918202Y-147612861D01*
X119936670Y-147786171D01*
X120004535Y-147974829D01*
X120116301Y-148137086D01*
X120271004Y-148268653D01*
X120459012Y-148363096D01*
X120691834Y-148424235D01*
X120443722Y-148483710D01*
X120242427Y-148584214D01*
X120077452Y-148727607D01*
X119958129Y-148908080D01*
X119886437Y-149118281D01*
X119872433Y-149257592D01*
X119861164Y-149369699D01*
X117748840Y-149369699D01*
X117743823Y-149320607D01*
X117743823Y-149227550D01*
X117769810Y-149018166D01*
X117838101Y-148878039D01*
X117908692Y-148810387D01*
X117996506Y-148769437D01*
X118107012Y-148754940D01*
X118443334Y-148754940D01*
X118443334Y-148033447D01*
X118107012Y-148033447D01*
X117980145Y-148006046D01*
X117887193Y-147925736D01*
X117830733Y-147803645D01*
X117809280Y-147623607D01*
X117809280Y-147555464D01*
X117832735Y-147387100D01*
X117895498Y-147272630D01*
X117996272Y-147198825D01*
X118137298Y-147172735D01*
X118234117Y-147185821D01*
X118321701Y-147224759D01*
X118397210Y-147286994D01*
X118462385Y-147375212D01*
X118510390Y-147480406D01*
X118544207Y-147612861D01*
X119314793Y-147612861D01*
X119277070Y-147375215D01*
X119211498Y-147167580D01*
X119119643Y-146985645D01*
X118998823Y-146822320D01*
X118857732Y-146689373D01*
X118694660Y-146584110D01*
X118515301Y-146508162D01*
X118321409Y-146461938D01*
X118109943Y-146446113D01*
X117845765Y-146465226D01*
X117626758Y-146518629D01*
X117444976Y-146602361D01*
X117294172Y-146715268D01*
X117171735Y-146858377D01*
X117082381Y-147029258D01*
X117026022Y-147233526D01*
X117005965Y-147478771D01*
X117005965Y-147599183D01*
X117022125Y-147778844D01*
X117068859Y-147937816D01*
X117145428Y-148080097D01*
X117249563Y-148203494D01*
X117380276Y-148305248D01*
X117541590Y-148386133D01*
X117362713Y-148449605D01*
X117216476Y-148548938D01*
X117097556Y-148686552D01*
X117012957Y-148850184D01*
X116959390Y-149047109D01*
X116940264Y-149284947D01*
X116495820Y-149284947D01*
X116495820Y-146001669D01*
X123193780Y-146001669D01*
X123193780Y-150945476D01*
G37*
D10*
X152434838Y-138982707D02*
X152387219Y-138887469D01*
X152387219Y-138887469D02*
X152387219Y-138744612D01*
X152387219Y-138744612D02*
X152434838Y-138601755D01*
X152434838Y-138601755D02*
X152530076Y-138506517D01*
X152530076Y-138506517D02*
X152625314Y-138458898D01*
X152625314Y-138458898D02*
X152815790Y-138411279D01*
X152815790Y-138411279D02*
X152958647Y-138411279D01*
X152958647Y-138411279D02*
X153149123Y-138458898D01*
X153149123Y-138458898D02*
X153244361Y-138506517D01*
X153244361Y-138506517D02*
X153339600Y-138601755D01*
X153339600Y-138601755D02*
X153387219Y-138744612D01*
X153387219Y-138744612D02*
X153387219Y-138839850D01*
X153387219Y-138839850D02*
X153339600Y-138982707D01*
X153339600Y-138982707D02*
X153291980Y-139030326D01*
X153291980Y-139030326D02*
X152958647Y-139030326D01*
X152958647Y-139030326D02*
X152958647Y-138839850D01*
X153387219Y-139458898D02*
X152387219Y-139458898D01*
X152387219Y-139458898D02*
X153387219Y-140030326D01*
X153387219Y-140030326D02*
X152387219Y-140030326D01*
X153387219Y-140506517D02*
X152387219Y-140506517D01*
X152387219Y-140506517D02*
X152387219Y-140744612D01*
X152387219Y-140744612D02*
X152434838Y-140887469D01*
X152434838Y-140887469D02*
X152530076Y-140982707D01*
X152530076Y-140982707D02*
X152625314Y-141030326D01*
X152625314Y-141030326D02*
X152815790Y-141077945D01*
X152815790Y-141077945D02*
X152958647Y-141077945D01*
X152958647Y-141077945D02*
X153149123Y-141030326D01*
X153149123Y-141030326D02*
X153244361Y-140982707D01*
X153244361Y-140982707D02*
X153339600Y-140887469D01*
X153339600Y-140887469D02*
X153387219Y-140744612D01*
X153387219Y-140744612D02*
X153387219Y-140506517D01*
D12*
G36*
X69826280Y-123936351D02*
G01*
X69925810Y-123981427D01*
X70006279Y-124055708D01*
X70063591Y-124151693D01*
X70100665Y-124275364D01*
X70114234Y-124434284D01*
X70114234Y-124436971D01*
X70100802Y-124575150D01*
X70063960Y-124682149D01*
X70006279Y-124764989D01*
X69927425Y-124826961D01*
X69827942Y-124865636D01*
X69701708Y-124879539D01*
X69573611Y-124865415D01*
X69473240Y-124826216D01*
X69394207Y-124763524D01*
X69336458Y-124679791D01*
X69299644Y-124572317D01*
X69286251Y-124434284D01*
X69286251Y-124431598D01*
X69299933Y-124270841D01*
X69337098Y-124147383D01*
X69394207Y-124053021D01*
X69474542Y-123980506D01*
X69574958Y-123936173D01*
X69701708Y-123920397D01*
X69826280Y-123936351D01*
G37*
G36*
X71307283Y-126045476D02*
G01*
X68093203Y-126045476D01*
X68093203Y-124384947D01*
X68537647Y-124384947D01*
X68537647Y-124387878D01*
X68540493Y-124431598D01*
X68554056Y-124639952D01*
X68600525Y-124856730D01*
X68674179Y-125043670D01*
X68779965Y-125212356D01*
X68911736Y-125349700D01*
X69071806Y-125458883D01*
X69250971Y-125535675D01*
X69459066Y-125583983D01*
X69701708Y-125601032D01*
X69942443Y-125584193D01*
X70149631Y-125536409D01*
X70328680Y-125460348D01*
X70488858Y-125352123D01*
X70620598Y-125216500D01*
X70726307Y-125050509D01*
X70799900Y-124866259D01*
X70846395Y-124651735D01*
X70862839Y-124401311D01*
X70862839Y-124398625D01*
X70849964Y-124180381D01*
X70809594Y-123942379D01*
X70745628Y-123703026D01*
X70657919Y-123458778D01*
X70623969Y-123376713D01*
X70586844Y-123297578D01*
X69780843Y-121586901D01*
X68933809Y-121586901D01*
X69719836Y-123215373D01*
X69573237Y-123199148D01*
X69358326Y-123215743D01*
X69173268Y-123262965D01*
X69012943Y-123338611D01*
X68871675Y-123444392D01*
X68754254Y-123578355D01*
X68659280Y-123744298D01*
X68593882Y-123925898D01*
X68552361Y-124137689D01*
X68537647Y-124384947D01*
X68093203Y-124384947D01*
X68093203Y-121142457D01*
X71307283Y-121142457D01*
X71307283Y-126045476D01*
G37*
G36*
X68761199Y-94490181D02*
G01*
X67829412Y-94490181D01*
X67720284Y-94475496D01*
X67627179Y-94432784D01*
X67550563Y-94364236D01*
X67491869Y-94268897D01*
X67455851Y-94156722D01*
X67441311Y-94022944D01*
X67453818Y-93888990D01*
X67489182Y-93776992D01*
X67547876Y-93681653D01*
X67624493Y-93613105D01*
X67717954Y-93570477D01*
X67829412Y-93555708D01*
X68761199Y-93555708D01*
X68761199Y-94490181D01*
G37*
G36*
X76300653Y-97295476D02*
G01*
X62753880Y-97295476D01*
X62753880Y-96088506D01*
X63198324Y-96088506D01*
X63198324Y-96810000D01*
X65111234Y-96810000D01*
X65859838Y-96810000D01*
X66504151Y-96810000D01*
X67411269Y-96810000D01*
X68306949Y-95211430D01*
X68761199Y-95211430D01*
X68761199Y-96810000D01*
X69509803Y-96810000D01*
X69509803Y-93558394D01*
X69945532Y-93558394D01*
X71027528Y-93558394D01*
X71027528Y-96810000D01*
X71776133Y-96810000D01*
X71776133Y-94167780D01*
X72995149Y-94167780D01*
X73771352Y-94167780D01*
X73828675Y-93981295D01*
X73906663Y-93831702D01*
X74009157Y-93707224D01*
X74127947Y-93618478D01*
X74264128Y-93563511D01*
X74418840Y-93544717D01*
X74618163Y-93567411D01*
X74776900Y-93630935D01*
X74906060Y-93735684D01*
X75002336Y-93882260D01*
X75059375Y-94058062D01*
X75080006Y-94279644D01*
X75080006Y-95369944D01*
X75059349Y-95591395D01*
X75002336Y-95766350D01*
X74906163Y-95911706D01*
X74776900Y-96016210D01*
X74618180Y-96079550D01*
X74418840Y-96102184D01*
X74261494Y-96083705D01*
X74123795Y-96029888D01*
X74004280Y-95942000D01*
X73902511Y-95818129D01*
X73826223Y-95668034D01*
X73771352Y-95479364D01*
X72995149Y-95479364D01*
X73061812Y-95763707D01*
X73152197Y-96009336D01*
X73264549Y-96221130D01*
X73406443Y-96412525D01*
X73568065Y-96567600D01*
X73750836Y-96689832D01*
X73952103Y-96778230D01*
X74173414Y-96832372D01*
X74418840Y-96851032D01*
X74717117Y-96830255D01*
X74973522Y-96771334D01*
X75194800Y-96677620D01*
X75392818Y-96544203D01*
X75555795Y-96376897D01*
X75686705Y-96172037D01*
X75778063Y-95944583D01*
X75835789Y-95679557D01*
X75856209Y-95369944D01*
X75856209Y-94279644D01*
X75835785Y-93970029D01*
X75778055Y-93705092D01*
X75686705Y-93477794D01*
X75555839Y-93272852D01*
X75392859Y-93105121D01*
X75194800Y-92970990D01*
X74973434Y-92876455D01*
X74717034Y-92817053D01*
X74418840Y-92796113D01*
X74173399Y-92814749D01*
X73951575Y-92868869D01*
X73749371Y-92957313D01*
X73565817Y-93079611D01*
X73403720Y-93234699D01*
X73261618Y-93426015D01*
X73149565Y-93637718D01*
X73060142Y-93883319D01*
X72995149Y-94167780D01*
X71776133Y-94167780D01*
X71776133Y-93558394D01*
X72858128Y-93558394D01*
X72858128Y-92836901D01*
X69945532Y-92836901D01*
X69945532Y-93558394D01*
X69509803Y-93558394D01*
X69509803Y-92834214D01*
X69212071Y-92834214D01*
X67769329Y-92834214D01*
X67554732Y-92851388D01*
X67363895Y-92900986D01*
X67192671Y-92981737D01*
X67039959Y-93093075D01*
X66912138Y-93230971D01*
X66807500Y-93398415D01*
X66733047Y-93582462D01*
X66686822Y-93789260D01*
X66670724Y-94022944D01*
X66686818Y-94256464D01*
X66733039Y-94463185D01*
X66807500Y-94647229D01*
X66912224Y-94814569D01*
X67040507Y-94952476D01*
X67194137Y-95063907D01*
X67366103Y-95144789D01*
X67456065Y-95168192D01*
X66504151Y-96810000D01*
X65859838Y-96810000D01*
X65859838Y-92836901D01*
X65111234Y-92836901D01*
X65111234Y-96088506D01*
X63198324Y-96088506D01*
X62753880Y-96088506D01*
X62753880Y-92351669D01*
X76300653Y-92351669D01*
X76300653Y-97295476D01*
G37*
D10*
X140687219Y-141077945D02*
X140687219Y-140506517D01*
X140687219Y-140792231D02*
X139687219Y-140792231D01*
X139687219Y-140792231D02*
X139830076Y-140696993D01*
X139830076Y-140696993D02*
X139925314Y-140601755D01*
X139925314Y-140601755D02*
X139972933Y-140506517D01*
X206277945Y-144699600D02*
X206135088Y-144747219D01*
X206135088Y-144747219D02*
X205896993Y-144747219D01*
X205896993Y-144747219D02*
X205801755Y-144699600D01*
X205801755Y-144699600D02*
X205754136Y-144651980D01*
X205754136Y-144651980D02*
X205706517Y-144556742D01*
X205706517Y-144556742D02*
X205706517Y-144461504D01*
X205706517Y-144461504D02*
X205754136Y-144366266D01*
X205754136Y-144366266D02*
X205801755Y-144318647D01*
X205801755Y-144318647D02*
X205896993Y-144271028D01*
X205896993Y-144271028D02*
X206087469Y-144223409D01*
X206087469Y-144223409D02*
X206182707Y-144175790D01*
X206182707Y-144175790D02*
X206230326Y-144128171D01*
X206230326Y-144128171D02*
X206277945Y-144032933D01*
X206277945Y-144032933D02*
X206277945Y-143937695D01*
X206277945Y-143937695D02*
X206230326Y-143842457D01*
X206230326Y-143842457D02*
X206182707Y-143794838D01*
X206182707Y-143794838D02*
X206087469Y-143747219D01*
X206087469Y-143747219D02*
X205849374Y-143747219D01*
X205849374Y-143747219D02*
X205706517Y-143794838D01*
X204706517Y-144651980D02*
X204754136Y-144699600D01*
X204754136Y-144699600D02*
X204896993Y-144747219D01*
X204896993Y-144747219D02*
X204992231Y-144747219D01*
X204992231Y-144747219D02*
X205135088Y-144699600D01*
X205135088Y-144699600D02*
X205230326Y-144604361D01*
X205230326Y-144604361D02*
X205277945Y-144509123D01*
X205277945Y-144509123D02*
X205325564Y-144318647D01*
X205325564Y-144318647D02*
X205325564Y-144175790D01*
X205325564Y-144175790D02*
X205277945Y-143985314D01*
X205277945Y-143985314D02*
X205230326Y-143890076D01*
X205230326Y-143890076D02*
X205135088Y-143794838D01*
X205135088Y-143794838D02*
X204992231Y-143747219D01*
X204992231Y-143747219D02*
X204896993Y-143747219D01*
X204896993Y-143747219D02*
X204754136Y-143794838D01*
X204754136Y-143794838D02*
X204706517Y-143842457D01*
X204277945Y-144747219D02*
X204277945Y-143747219D01*
X203706517Y-144747219D02*
X204135088Y-144175790D01*
X203706517Y-143747219D02*
X204277945Y-144318647D01*
D11*
X74469104Y-138834649D02*
X74469104Y-139310839D01*
X74754819Y-138739411D02*
X73754819Y-139072744D01*
X73754819Y-139072744D02*
X74754819Y-139406077D01*
X74754819Y-139739411D02*
X73754819Y-139739411D01*
X73754819Y-139739411D02*
X73754819Y-139977506D01*
X73754819Y-139977506D02*
X73802438Y-140120363D01*
X73802438Y-140120363D02*
X73897676Y-140215601D01*
X73897676Y-140215601D02*
X73992914Y-140263220D01*
X73992914Y-140263220D02*
X74183390Y-140310839D01*
X74183390Y-140310839D02*
X74326247Y-140310839D01*
X74326247Y-140310839D02*
X74516723Y-140263220D01*
X74516723Y-140263220D02*
X74611961Y-140215601D01*
X74611961Y-140215601D02*
X74707200Y-140120363D01*
X74707200Y-140120363D02*
X74754819Y-139977506D01*
X74754819Y-139977506D02*
X74754819Y-139739411D01*
X74659580Y-141310839D02*
X74707200Y-141263220D01*
X74707200Y-141263220D02*
X74754819Y-141120363D01*
X74754819Y-141120363D02*
X74754819Y-141025125D01*
X74754819Y-141025125D02*
X74707200Y-140882268D01*
X74707200Y-140882268D02*
X74611961Y-140787030D01*
X74611961Y-140787030D02*
X74516723Y-140739411D01*
X74516723Y-140739411D02*
X74326247Y-140691792D01*
X74326247Y-140691792D02*
X74183390Y-140691792D01*
X74183390Y-140691792D02*
X73992914Y-140739411D01*
X73992914Y-140739411D02*
X73897676Y-140787030D01*
X73897676Y-140787030D02*
X73802438Y-140882268D01*
X73802438Y-140882268D02*
X73754819Y-141025125D01*
X73754819Y-141025125D02*
X73754819Y-141120363D01*
X73754819Y-141120363D02*
X73802438Y-141263220D01*
X73802438Y-141263220D02*
X73850057Y-141310839D01*
D12*
G36*
X101463389Y-126395476D02*
G01*
X98238074Y-126395476D01*
X98238074Y-124398869D01*
X98682518Y-124398869D01*
X98682518Y-124732260D01*
X98699136Y-124986250D01*
X98746130Y-125203933D01*
X98820516Y-125390983D01*
X98927174Y-125559726D01*
X99059837Y-125697596D01*
X99220830Y-125807662D01*
X99401033Y-125885103D01*
X99610486Y-125933831D01*
X99854884Y-125951032D01*
X100064352Y-125934851D01*
X100254983Y-125887703D01*
X100430076Y-125810348D01*
X100588076Y-125703072D01*
X100724175Y-125567480D01*
X100839915Y-125400509D01*
X100926374Y-125215483D01*
X100986661Y-125004222D01*
X101018945Y-124762302D01*
X101018945Y-124759616D01*
X100270097Y-124759616D01*
X100270097Y-124762302D01*
X100223282Y-124962866D01*
X100136252Y-125102533D01*
X100054702Y-125169648D01*
X99958722Y-125210069D01*
X99843893Y-125224166D01*
X99718620Y-125208861D01*
X99619120Y-125165865D01*
X99539322Y-125095694D01*
X99481967Y-125004069D01*
X99444930Y-124885448D01*
X99431367Y-124732260D01*
X99431367Y-124398869D01*
X99443738Y-124244790D01*
X99477229Y-124126747D01*
X99528331Y-124036901D01*
X99600984Y-123966789D01*
X99689868Y-123924692D01*
X99800174Y-123909895D01*
X99951894Y-123931144D01*
X100074947Y-123991960D01*
X100169918Y-124088819D01*
X100231995Y-124221304D01*
X100931506Y-124221304D01*
X100931506Y-121936901D01*
X98797312Y-121936901D01*
X98797312Y-122658394D01*
X100182658Y-122658394D01*
X100182658Y-123360593D01*
X100086467Y-123289341D01*
X99951848Y-123230900D01*
X99804839Y-123194820D01*
X99660711Y-123183028D01*
X99459068Y-123199808D01*
X99284512Y-123247768D01*
X99132169Y-123325177D01*
X98999308Y-123432230D01*
X98887949Y-123569113D01*
X98797312Y-123740390D01*
X98735770Y-123926087D01*
X98696485Y-124143778D01*
X98682518Y-124398869D01*
X98238074Y-124398869D01*
X98238074Y-121492457D01*
X101463389Y-121492457D01*
X101463389Y-126395476D01*
G37*
D10*
X205754136Y-142207219D02*
X206230326Y-142207219D01*
X206230326Y-142207219D02*
X206230326Y-141207219D01*
X204849374Y-142207219D02*
X205182707Y-141731028D01*
X205420802Y-142207219D02*
X205420802Y-141207219D01*
X205420802Y-141207219D02*
X205039850Y-141207219D01*
X205039850Y-141207219D02*
X204944612Y-141254838D01*
X204944612Y-141254838D02*
X204896993Y-141302457D01*
X204896993Y-141302457D02*
X204849374Y-141397695D01*
X204849374Y-141397695D02*
X204849374Y-141540552D01*
X204849374Y-141540552D02*
X204896993Y-141635790D01*
X204896993Y-141635790D02*
X204944612Y-141683409D01*
X204944612Y-141683409D02*
X205039850Y-141731028D01*
X205039850Y-141731028D02*
X205420802Y-141731028D01*
X203849374Y-142111980D02*
X203896993Y-142159600D01*
X203896993Y-142159600D02*
X204039850Y-142207219D01*
X204039850Y-142207219D02*
X204135088Y-142207219D01*
X204135088Y-142207219D02*
X204277945Y-142159600D01*
X204277945Y-142159600D02*
X204373183Y-142064361D01*
X204373183Y-142064361D02*
X204420802Y-141969123D01*
X204420802Y-141969123D02*
X204468421Y-141778647D01*
X204468421Y-141778647D02*
X204468421Y-141635790D01*
X204468421Y-141635790D02*
X204420802Y-141445314D01*
X204420802Y-141445314D02*
X204373183Y-141350076D01*
X204373183Y-141350076D02*
X204277945Y-141254838D01*
X204277945Y-141254838D02*
X204135088Y-141207219D01*
X204135088Y-141207219D02*
X204039850Y-141207219D01*
X204039850Y-141207219D02*
X203896993Y-141254838D01*
X203896993Y-141254838D02*
X203849374Y-141302457D01*
X203420802Y-142207219D02*
X203420802Y-141207219D01*
X202849374Y-142207219D02*
X203277945Y-141635790D01*
X202849374Y-141207219D02*
X203420802Y-141778647D01*
D12*
G36*
X222441617Y-97054444D02*
G01*
X216914313Y-97054444D01*
X216914313Y-96610000D01*
X221220969Y-96610000D01*
X221997173Y-96610000D01*
X221997173Y-92636901D01*
X221220969Y-92636901D01*
X221220969Y-96610000D01*
X216914313Y-96610000D01*
X216914313Y-96607313D01*
X217358757Y-96607313D01*
X218279553Y-96607313D01*
X219686880Y-93742946D01*
X219686880Y-96607313D01*
X220402756Y-96607313D01*
X220402756Y-92636901D01*
X219487334Y-92636901D01*
X218074633Y-95546103D01*
X218074633Y-92636901D01*
X217358757Y-92636901D01*
X217358757Y-96607313D01*
X216914313Y-96607313D01*
X216914313Y-92192457D01*
X222441617Y-92192457D01*
X222441617Y-97054444D01*
G37*
D11*
X90901064Y-138207200D02*
X90758207Y-138254819D01*
X90758207Y-138254819D02*
X90520112Y-138254819D01*
X90520112Y-138254819D02*
X90424874Y-138207200D01*
X90424874Y-138207200D02*
X90377255Y-138159580D01*
X90377255Y-138159580D02*
X90329636Y-138064342D01*
X90329636Y-138064342D02*
X90329636Y-137969104D01*
X90329636Y-137969104D02*
X90377255Y-137873866D01*
X90377255Y-137873866D02*
X90424874Y-137826247D01*
X90424874Y-137826247D02*
X90520112Y-137778628D01*
X90520112Y-137778628D02*
X90710588Y-137731009D01*
X90710588Y-137731009D02*
X90805826Y-137683390D01*
X90805826Y-137683390D02*
X90853445Y-137635771D01*
X90853445Y-137635771D02*
X90901064Y-137540533D01*
X90901064Y-137540533D02*
X90901064Y-137445295D01*
X90901064Y-137445295D02*
X90853445Y-137350057D01*
X90853445Y-137350057D02*
X90805826Y-137302438D01*
X90805826Y-137302438D02*
X90710588Y-137254819D01*
X90710588Y-137254819D02*
X90472493Y-137254819D01*
X90472493Y-137254819D02*
X90329636Y-137302438D01*
X89901064Y-138254819D02*
X89901064Y-137254819D01*
X89901064Y-137254819D02*
X89520112Y-137254819D01*
X89520112Y-137254819D02*
X89424874Y-137302438D01*
X89424874Y-137302438D02*
X89377255Y-137350057D01*
X89377255Y-137350057D02*
X89329636Y-137445295D01*
X89329636Y-137445295D02*
X89329636Y-137588152D01*
X89329636Y-137588152D02*
X89377255Y-137683390D01*
X89377255Y-137683390D02*
X89424874Y-137731009D01*
X89424874Y-137731009D02*
X89520112Y-137778628D01*
X89520112Y-137778628D02*
X89901064Y-137778628D01*
X88901064Y-138254819D02*
X88901064Y-137254819D01*
X88662970Y-138350057D02*
X87901065Y-138350057D01*
X87091541Y-138254819D02*
X87424874Y-137778628D01*
X87662969Y-138254819D02*
X87662969Y-137254819D01*
X87662969Y-137254819D02*
X87282017Y-137254819D01*
X87282017Y-137254819D02*
X87186779Y-137302438D01*
X87186779Y-137302438D02*
X87139160Y-137350057D01*
X87139160Y-137350057D02*
X87091541Y-137445295D01*
X87091541Y-137445295D02*
X87091541Y-137588152D01*
X87091541Y-137588152D02*
X87139160Y-137683390D01*
X87139160Y-137683390D02*
X87186779Y-137731009D01*
X87186779Y-137731009D02*
X87282017Y-137778628D01*
X87282017Y-137778628D02*
X87662969Y-137778628D01*
X86758207Y-137254819D02*
X86091541Y-138254819D01*
X86091541Y-137254819D02*
X86758207Y-138254819D01*
X64454819Y-129136779D02*
X63454819Y-129136779D01*
X63454819Y-129136779D02*
X64169104Y-129470112D01*
X64169104Y-129470112D02*
X63454819Y-129803445D01*
X63454819Y-129803445D02*
X64454819Y-129803445D01*
X64454819Y-130279636D02*
X63454819Y-130279636D01*
X64454819Y-130755826D02*
X63454819Y-130755826D01*
X63454819Y-130755826D02*
X63454819Y-130993921D01*
X63454819Y-130993921D02*
X63502438Y-131136778D01*
X63502438Y-131136778D02*
X63597676Y-131232016D01*
X63597676Y-131232016D02*
X63692914Y-131279635D01*
X63692914Y-131279635D02*
X63883390Y-131327254D01*
X63883390Y-131327254D02*
X64026247Y-131327254D01*
X64026247Y-131327254D02*
X64216723Y-131279635D01*
X64216723Y-131279635D02*
X64311961Y-131232016D01*
X64311961Y-131232016D02*
X64407200Y-131136778D01*
X64407200Y-131136778D02*
X64454819Y-130993921D01*
X64454819Y-130993921D02*
X64454819Y-130755826D01*
X64454819Y-131755826D02*
X63454819Y-131755826D01*
X64550057Y-131993921D02*
X64550057Y-132755825D01*
X63454819Y-132851064D02*
X63454819Y-133422492D01*
X64454819Y-133136778D02*
X63454819Y-133136778D01*
X63454819Y-133660588D02*
X64454819Y-134327254D01*
X63454819Y-134327254D02*
X64454819Y-133660588D01*
D10*
X205706517Y-146334838D02*
X205801755Y-146287219D01*
X205801755Y-146287219D02*
X205944612Y-146287219D01*
X205944612Y-146287219D02*
X206087469Y-146334838D01*
X206087469Y-146334838D02*
X206182707Y-146430076D01*
X206182707Y-146430076D02*
X206230326Y-146525314D01*
X206230326Y-146525314D02*
X206277945Y-146715790D01*
X206277945Y-146715790D02*
X206277945Y-146858647D01*
X206277945Y-146858647D02*
X206230326Y-147049123D01*
X206230326Y-147049123D02*
X206182707Y-147144361D01*
X206182707Y-147144361D02*
X206087469Y-147239600D01*
X206087469Y-147239600D02*
X205944612Y-147287219D01*
X205944612Y-147287219D02*
X205849374Y-147287219D01*
X205849374Y-147287219D02*
X205706517Y-147239600D01*
X205706517Y-147239600D02*
X205658898Y-147191980D01*
X205658898Y-147191980D02*
X205658898Y-146858647D01*
X205658898Y-146858647D02*
X205849374Y-146858647D01*
X205230326Y-147287219D02*
X205230326Y-146287219D01*
X205230326Y-146287219D02*
X204658898Y-147287219D01*
X204658898Y-147287219D02*
X204658898Y-146287219D01*
X204182707Y-147287219D02*
X204182707Y-146287219D01*
X204182707Y-146287219D02*
X203944612Y-146287219D01*
X203944612Y-146287219D02*
X203801755Y-146334838D01*
X203801755Y-146334838D02*
X203706517Y-146430076D01*
X203706517Y-146430076D02*
X203658898Y-146525314D01*
X203658898Y-146525314D02*
X203611279Y-146715790D01*
X203611279Y-146715790D02*
X203611279Y-146858647D01*
X203611279Y-146858647D02*
X203658898Y-147049123D01*
X203658898Y-147049123D02*
X203706517Y-147144361D01*
X203706517Y-147144361D02*
X203801755Y-147239600D01*
X203801755Y-147239600D02*
X203944612Y-147287219D01*
X203944612Y-147287219D02*
X204182707Y-147287219D01*
D12*
G36*
X131486244Y-126357130D02*
G01*
X127933399Y-126357130D01*
X127933399Y-124579364D01*
X128377843Y-124579364D01*
X128377843Y-125300614D01*
X128689252Y-125300614D01*
X128689252Y-125912686D01*
X129437857Y-125912686D01*
X129437857Y-125300614D01*
X131041800Y-125300614D01*
X131041800Y-124612093D01*
X129817654Y-121939832D01*
X128970620Y-121939832D01*
X130162037Y-124579364D01*
X129437857Y-124579364D01*
X129437857Y-123573817D01*
X128689252Y-123573817D01*
X128689252Y-124579364D01*
X128377843Y-124579364D01*
X127933399Y-124579364D01*
X127933399Y-121495388D01*
X131486244Y-121495388D01*
X131486244Y-126357130D01*
G37*
G36*
X171667514Y-149738506D02*
G01*
X170820236Y-149738506D01*
X170653392Y-149723000D01*
X170523660Y-149680491D01*
X170422853Y-149614187D01*
X170346207Y-149522753D01*
X170299001Y-149408913D01*
X170282169Y-149265896D01*
X170282169Y-149257592D01*
X170298643Y-149115163D01*
X170344939Y-149000893D01*
X170421507Y-148907854D01*
X170529343Y-148838471D01*
X170658566Y-148797187D01*
X170820236Y-148782295D01*
X171667514Y-148782295D01*
X171667514Y-149738506D01*
G37*
G36*
X171667514Y-148060802D02*
G01*
X170820236Y-148060802D01*
X170669841Y-148046233D01*
X170552624Y-148006173D01*
X170461199Y-147943321D01*
X170392192Y-147857329D01*
X170349317Y-147749360D01*
X170333949Y-147612861D01*
X170349018Y-147491133D01*
X170391520Y-147393718D01*
X170461199Y-147314884D01*
X170551756Y-147258307D01*
X170668949Y-147221772D01*
X170820236Y-147208394D01*
X171667514Y-147208394D01*
X171667514Y-148060802D01*
G37*
G36*
X172860563Y-150904444D02*
G01*
X166148925Y-150904444D01*
X166148925Y-149738506D01*
X166593369Y-149738506D01*
X166593369Y-150460000D01*
X168943474Y-150460000D01*
X168943474Y-149785157D01*
X168627423Y-149369699D01*
X169527947Y-149369699D01*
X169527947Y-149378004D01*
X169544997Y-149601827D01*
X169593543Y-149795002D01*
X169671318Y-149962721D01*
X169780473Y-150110859D01*
X169918586Y-150233754D01*
X170089461Y-150332993D01*
X170276652Y-150401310D01*
X170494817Y-150444648D01*
X170749406Y-150460000D01*
X171667514Y-150460000D01*
X172416119Y-150460000D01*
X172416119Y-146486901D01*
X172088101Y-146486901D01*
X170795812Y-146486901D01*
X170541226Y-146502304D01*
X170323591Y-146545744D01*
X170137333Y-146614152D01*
X169967365Y-146713264D01*
X169830149Y-146835682D01*
X169721876Y-146982958D01*
X169644751Y-147149638D01*
X169596624Y-147341453D01*
X169579727Y-147563524D01*
X169584985Y-147612861D01*
X169603453Y-147786171D01*
X169671318Y-147974829D01*
X169783084Y-148137086D01*
X169937787Y-148268653D01*
X170125795Y-148363096D01*
X170358617Y-148424235D01*
X170110505Y-148483710D01*
X169909210Y-148584214D01*
X169744235Y-148727607D01*
X169624912Y-148908080D01*
X169553220Y-149118281D01*
X169539216Y-149257592D01*
X169527947Y-149369699D01*
X168627423Y-149369699D01*
X167579866Y-147992658D01*
X167496681Y-147868978D01*
X167436496Y-147745240D01*
X167397871Y-147619283D01*
X167385937Y-147508813D01*
X167385937Y-147503440D01*
X167413083Y-147357861D01*
X167489741Y-147254801D01*
X167608816Y-147191231D01*
X167784786Y-147167362D01*
X167903444Y-147181546D01*
X168002132Y-147222073D01*
X168085449Y-147288995D01*
X168149243Y-147376566D01*
X168196297Y-147489675D01*
X168224667Y-147634598D01*
X168224667Y-147637285D01*
X168992567Y-147637285D01*
X168992567Y-147634598D01*
X168960194Y-147391037D01*
X168899858Y-147179533D01*
X168813537Y-146995415D01*
X168697481Y-146829567D01*
X168559216Y-146694300D01*
X168396859Y-146586796D01*
X168217099Y-146510011D01*
X168016291Y-146462578D01*
X167790404Y-146446113D01*
X167544793Y-146460841D01*
X167334818Y-146502371D01*
X167155128Y-146567745D01*
X166990987Y-146662612D01*
X166858284Y-146780009D01*
X166753348Y-146921409D01*
X166678530Y-147081643D01*
X166631786Y-147266707D01*
X166615351Y-147481702D01*
X166615351Y-147484389D01*
X166638668Y-147752348D01*
X166709629Y-148021235D01*
X166823179Y-148275915D01*
X166973411Y-148503614D01*
X167951604Y-149738506D01*
X166593369Y-149738506D01*
X166148925Y-149738506D01*
X166148925Y-146001669D01*
X172860563Y-146001669D01*
X172860563Y-150904444D01*
G37*
D10*
X150847219Y-140601755D02*
X150180552Y-141125564D01*
X150180552Y-140601755D02*
X150847219Y-141125564D01*
X186217292Y-136743409D02*
X186550625Y-136743409D01*
X186550625Y-137267219D02*
X186550625Y-136267219D01*
X186550625Y-136267219D02*
X186074435Y-136267219D01*
X185693482Y-137267219D02*
X185693482Y-136267219D01*
X185693482Y-136267219D02*
X185360149Y-136981504D01*
X185360149Y-136981504D02*
X185026816Y-136267219D01*
X185026816Y-136267219D02*
X185026816Y-137267219D01*
X184360149Y-136791028D02*
X184360149Y-137267219D01*
X184693482Y-136267219D02*
X184360149Y-136791028D01*
X184360149Y-136791028D02*
X184026816Y-136267219D01*
D11*
X160459523Y-119704819D02*
X159792857Y-120704819D01*
X159792857Y-119704819D02*
X160459523Y-120704819D01*
X159507142Y-119704819D02*
X158840476Y-119704819D01*
X158840476Y-119704819D02*
X159269047Y-120704819D01*
D10*
X186217292Y-143807838D02*
X186312530Y-143760219D01*
X186312530Y-143760219D02*
X186455387Y-143760219D01*
X186455387Y-143760219D02*
X186598244Y-143807838D01*
X186598244Y-143807838D02*
X186693482Y-143903076D01*
X186693482Y-143903076D02*
X186741101Y-143998314D01*
X186741101Y-143998314D02*
X186788720Y-144188790D01*
X186788720Y-144188790D02*
X186788720Y-144331647D01*
X186788720Y-144331647D02*
X186741101Y-144522123D01*
X186741101Y-144522123D02*
X186693482Y-144617361D01*
X186693482Y-144617361D02*
X186598244Y-144712600D01*
X186598244Y-144712600D02*
X186455387Y-144760219D01*
X186455387Y-144760219D02*
X186360149Y-144760219D01*
X186360149Y-144760219D02*
X186217292Y-144712600D01*
X186217292Y-144712600D02*
X186169673Y-144664980D01*
X186169673Y-144664980D02*
X186169673Y-144331647D01*
X186169673Y-144331647D02*
X186360149Y-144331647D01*
X185741101Y-144760219D02*
X185741101Y-143760219D01*
X185741101Y-143760219D02*
X185169673Y-144760219D01*
X185169673Y-144760219D02*
X185169673Y-143760219D01*
X184693482Y-144760219D02*
X184693482Y-143760219D01*
X184693482Y-143760219D02*
X184455387Y-143760219D01*
X184455387Y-143760219D02*
X184312530Y-143807838D01*
X184312530Y-143807838D02*
X184217292Y-143903076D01*
X184217292Y-143903076D02*
X184169673Y-143998314D01*
X184169673Y-143998314D02*
X184122054Y-144188790D01*
X184122054Y-144188790D02*
X184122054Y-144331647D01*
X184122054Y-144331647D02*
X184169673Y-144522123D01*
X184169673Y-144522123D02*
X184217292Y-144617361D01*
X184217292Y-144617361D02*
X184312530Y-144712600D01*
X184312530Y-144712600D02*
X184455387Y-144760219D01*
X184455387Y-144760219D02*
X184693482Y-144760219D01*
D12*
G36*
X221151673Y-149638506D02*
G01*
X220304395Y-149638506D01*
X220137551Y-149623000D01*
X220007819Y-149580491D01*
X219907012Y-149514187D01*
X219830366Y-149422753D01*
X219783160Y-149308913D01*
X219766328Y-149165896D01*
X219766328Y-149157592D01*
X219782802Y-149015163D01*
X219829098Y-148900893D01*
X219905666Y-148807854D01*
X220013502Y-148738471D01*
X220142725Y-148697187D01*
X220304395Y-148682295D01*
X221151673Y-148682295D01*
X221151673Y-149638506D01*
G37*
G36*
X221151673Y-147960802D02*
G01*
X220304395Y-147960802D01*
X220154000Y-147946233D01*
X220036783Y-147906173D01*
X219945358Y-147843321D01*
X219876351Y-147757329D01*
X219833476Y-147649360D01*
X219818108Y-147512861D01*
X219833177Y-147391133D01*
X219875679Y-147293718D01*
X219945358Y-147214884D01*
X220035915Y-147158307D01*
X220153108Y-147121772D01*
X220304395Y-147108394D01*
X221151673Y-147108394D01*
X221151673Y-147960802D01*
G37*
G36*
X222344722Y-150804444D02*
G01*
X216854543Y-150804444D01*
X216854543Y-150360000D01*
X217298987Y-150360000D01*
X218047835Y-150360000D01*
X218047835Y-149269699D01*
X219012106Y-149269699D01*
X219012106Y-149278004D01*
X219029156Y-149501827D01*
X219077702Y-149695002D01*
X219155477Y-149862721D01*
X219264632Y-150010859D01*
X219402745Y-150133754D01*
X219573620Y-150232993D01*
X219760811Y-150301310D01*
X219978976Y-150344648D01*
X220233565Y-150360000D01*
X221151673Y-150360000D01*
X221900278Y-150360000D01*
X221900278Y-146386901D01*
X221572260Y-146386901D01*
X220279971Y-146386901D01*
X220025385Y-146402304D01*
X219807750Y-146445744D01*
X219621492Y-146514152D01*
X219451524Y-146613264D01*
X219314308Y-146735682D01*
X219206035Y-146882958D01*
X219128910Y-147049638D01*
X219080783Y-147241453D01*
X219063886Y-147463524D01*
X219069144Y-147512861D01*
X219087612Y-147686171D01*
X219155477Y-147874829D01*
X219267243Y-148037086D01*
X219421946Y-148168653D01*
X219609954Y-148263096D01*
X219842776Y-148324235D01*
X219594664Y-148383710D01*
X219393369Y-148484214D01*
X219228394Y-148627607D01*
X219109071Y-148808080D01*
X219037379Y-149018281D01*
X219023375Y-149157592D01*
X219012106Y-149269699D01*
X218047835Y-149269699D01*
X218047835Y-147266908D01*
X218531436Y-147449846D01*
X218531436Y-146654836D01*
X217938415Y-146386901D01*
X217298987Y-146386901D01*
X217298987Y-150360000D01*
X216854543Y-150360000D01*
X216854543Y-145942457D01*
X222344722Y-145942457D01*
X222344722Y-150804444D01*
G37*
D11*
X66102438Y-138215601D02*
X66054819Y-138120363D01*
X66054819Y-138120363D02*
X66054819Y-137977506D01*
X66054819Y-137977506D02*
X66102438Y-137834649D01*
X66102438Y-137834649D02*
X66197676Y-137739411D01*
X66197676Y-137739411D02*
X66292914Y-137691792D01*
X66292914Y-137691792D02*
X66483390Y-137644173D01*
X66483390Y-137644173D02*
X66626247Y-137644173D01*
X66626247Y-137644173D02*
X66816723Y-137691792D01*
X66816723Y-137691792D02*
X66911961Y-137739411D01*
X66911961Y-137739411D02*
X67007200Y-137834649D01*
X67007200Y-137834649D02*
X67054819Y-137977506D01*
X67054819Y-137977506D02*
X67054819Y-138072744D01*
X67054819Y-138072744D02*
X67007200Y-138215601D01*
X67007200Y-138215601D02*
X66959580Y-138263220D01*
X66959580Y-138263220D02*
X66626247Y-138263220D01*
X66626247Y-138263220D02*
X66626247Y-138072744D01*
X67054819Y-138691792D02*
X66054819Y-138691792D01*
X66054819Y-138691792D02*
X67054819Y-139263220D01*
X67054819Y-139263220D02*
X66054819Y-139263220D01*
X67054819Y-139739411D02*
X66054819Y-139739411D01*
X66054819Y-139739411D02*
X66054819Y-139977506D01*
X66054819Y-139977506D02*
X66102438Y-140120363D01*
X66102438Y-140120363D02*
X66197676Y-140215601D01*
X66197676Y-140215601D02*
X66292914Y-140263220D01*
X66292914Y-140263220D02*
X66483390Y-140310839D01*
X66483390Y-140310839D02*
X66626247Y-140310839D01*
X66626247Y-140310839D02*
X66816723Y-140263220D01*
X66816723Y-140263220D02*
X66911961Y-140215601D01*
X66911961Y-140215601D02*
X67007200Y-140120363D01*
X67007200Y-140120363D02*
X67054819Y-139977506D01*
X67054819Y-139977506D02*
X67054819Y-139739411D01*
X67054819Y-140739411D02*
X66054819Y-140739411D01*
X66054819Y-140739411D02*
X66054819Y-140977506D01*
X66054819Y-140977506D02*
X66102438Y-141120363D01*
X66102438Y-141120363D02*
X66197676Y-141215601D01*
X66197676Y-141215601D02*
X66292914Y-141263220D01*
X66292914Y-141263220D02*
X66483390Y-141310839D01*
X66483390Y-141310839D02*
X66626247Y-141310839D01*
X66626247Y-141310839D02*
X66816723Y-141263220D01*
X66816723Y-141263220D02*
X66911961Y-141215601D01*
X66911961Y-141215601D02*
X67007200Y-141120363D01*
X67007200Y-141120363D02*
X67054819Y-140977506D01*
X67054819Y-140977506D02*
X67054819Y-140739411D01*
D10*
X186788720Y-139807219D02*
X186788720Y-138807219D01*
X186788720Y-138807219D02*
X186455387Y-139521504D01*
X186455387Y-139521504D02*
X186122054Y-138807219D01*
X186122054Y-138807219D02*
X186122054Y-139807219D01*
X185645863Y-139807219D02*
X185645863Y-138807219D01*
X185645863Y-138807219D02*
X185407768Y-138807219D01*
X185407768Y-138807219D02*
X185264911Y-138854838D01*
X185264911Y-138854838D02*
X185169673Y-138950076D01*
X185169673Y-138950076D02*
X185122054Y-139045314D01*
X185122054Y-139045314D02*
X185074435Y-139235790D01*
X185074435Y-139235790D02*
X185074435Y-139378647D01*
X185074435Y-139378647D02*
X185122054Y-139569123D01*
X185122054Y-139569123D02*
X185169673Y-139664361D01*
X185169673Y-139664361D02*
X185264911Y-139759600D01*
X185264911Y-139759600D02*
X185407768Y-139807219D01*
X185407768Y-139807219D02*
X185645863Y-139807219D01*
X184122054Y-139807219D02*
X184693482Y-139807219D01*
X184407768Y-139807219D02*
X184407768Y-138807219D01*
X184407768Y-138807219D02*
X184503006Y-138950076D01*
X184503006Y-138950076D02*
X184598244Y-139045314D01*
X184598244Y-139045314D02*
X184693482Y-139092933D01*
D11*
X79754819Y-129136779D02*
X78754819Y-129136779D01*
X78850057Y-129565350D02*
X78802438Y-129612969D01*
X78802438Y-129612969D02*
X78754819Y-129708207D01*
X78754819Y-129708207D02*
X78754819Y-129946302D01*
X78754819Y-129946302D02*
X78802438Y-130041540D01*
X78802438Y-130041540D02*
X78850057Y-130089159D01*
X78850057Y-130089159D02*
X78945295Y-130136778D01*
X78945295Y-130136778D02*
X79040533Y-130136778D01*
X79040533Y-130136778D02*
X79183390Y-130089159D01*
X79183390Y-130089159D02*
X79754819Y-129517731D01*
X79754819Y-129517731D02*
X79754819Y-130136778D01*
X79707200Y-130517731D02*
X79754819Y-130660588D01*
X79754819Y-130660588D02*
X79754819Y-130898683D01*
X79754819Y-130898683D02*
X79707200Y-130993921D01*
X79707200Y-130993921D02*
X79659580Y-131041540D01*
X79659580Y-131041540D02*
X79564342Y-131089159D01*
X79564342Y-131089159D02*
X79469104Y-131089159D01*
X79469104Y-131089159D02*
X79373866Y-131041540D01*
X79373866Y-131041540D02*
X79326247Y-130993921D01*
X79326247Y-130993921D02*
X79278628Y-130898683D01*
X79278628Y-130898683D02*
X79231009Y-130708207D01*
X79231009Y-130708207D02*
X79183390Y-130612969D01*
X79183390Y-130612969D02*
X79135771Y-130565350D01*
X79135771Y-130565350D02*
X79040533Y-130517731D01*
X79040533Y-130517731D02*
X78945295Y-130517731D01*
X78945295Y-130517731D02*
X78850057Y-130565350D01*
X78850057Y-130565350D02*
X78802438Y-130612969D01*
X78802438Y-130612969D02*
X78754819Y-130708207D01*
X78754819Y-130708207D02*
X78754819Y-130946302D01*
X78754819Y-130946302D02*
X78802438Y-131089159D01*
X79850057Y-131279636D02*
X79850057Y-132041540D01*
X78754819Y-132136779D02*
X78754819Y-132708207D01*
X79754819Y-132422493D02*
X78754819Y-132422493D01*
X78754819Y-132946303D02*
X79754819Y-133612969D01*
X78754819Y-133612969D02*
X79754819Y-132946303D01*
D10*
X142322457Y-140506517D02*
X142274838Y-140554136D01*
X142274838Y-140554136D02*
X142227219Y-140649374D01*
X142227219Y-140649374D02*
X142227219Y-140887469D01*
X142227219Y-140887469D02*
X142274838Y-140982707D01*
X142274838Y-140982707D02*
X142322457Y-141030326D01*
X142322457Y-141030326D02*
X142417695Y-141077945D01*
X142417695Y-141077945D02*
X142512933Y-141077945D01*
X142512933Y-141077945D02*
X142655790Y-141030326D01*
X142655790Y-141030326D02*
X143227219Y-140458898D01*
X143227219Y-140458898D02*
X143227219Y-141077945D01*
X131754136Y-151607219D02*
X132230326Y-151607219D01*
X132230326Y-151607219D02*
X132230326Y-150607219D01*
X130849374Y-151607219D02*
X131182707Y-151131028D01*
X131420802Y-151607219D02*
X131420802Y-150607219D01*
X131420802Y-150607219D02*
X131039850Y-150607219D01*
X131039850Y-150607219D02*
X130944612Y-150654838D01*
X130944612Y-150654838D02*
X130896993Y-150702457D01*
X130896993Y-150702457D02*
X130849374Y-150797695D01*
X130849374Y-150797695D02*
X130849374Y-150940552D01*
X130849374Y-150940552D02*
X130896993Y-151035790D01*
X130896993Y-151035790D02*
X130944612Y-151083409D01*
X130944612Y-151083409D02*
X131039850Y-151131028D01*
X131039850Y-151131028D02*
X131420802Y-151131028D01*
X129849374Y-151511980D02*
X129896993Y-151559600D01*
X129896993Y-151559600D02*
X130039850Y-151607219D01*
X130039850Y-151607219D02*
X130135088Y-151607219D01*
X130135088Y-151607219D02*
X130277945Y-151559600D01*
X130277945Y-151559600D02*
X130373183Y-151464361D01*
X130373183Y-151464361D02*
X130420802Y-151369123D01*
X130420802Y-151369123D02*
X130468421Y-151178647D01*
X130468421Y-151178647D02*
X130468421Y-151035790D01*
X130468421Y-151035790D02*
X130420802Y-150845314D01*
X130420802Y-150845314D02*
X130373183Y-150750076D01*
X130373183Y-150750076D02*
X130277945Y-150654838D01*
X130277945Y-150654838D02*
X130135088Y-150607219D01*
X130135088Y-150607219D02*
X130039850Y-150607219D01*
X130039850Y-150607219D02*
X129896993Y-150654838D01*
X129896993Y-150654838D02*
X129849374Y-150702457D01*
X129420802Y-151607219D02*
X129420802Y-150607219D01*
X128849374Y-151607219D02*
X129277945Y-151035790D01*
X128849374Y-150607219D02*
X129420802Y-151178647D01*
D11*
X82404819Y-136834649D02*
X81404819Y-136834649D01*
X81404819Y-136834649D02*
X82119104Y-137167982D01*
X82119104Y-137167982D02*
X81404819Y-137501315D01*
X81404819Y-137501315D02*
X82404819Y-137501315D01*
X81404819Y-137977506D02*
X82214342Y-137977506D01*
X82214342Y-137977506D02*
X82309580Y-138025125D01*
X82309580Y-138025125D02*
X82357200Y-138072744D01*
X82357200Y-138072744D02*
X82404819Y-138167982D01*
X82404819Y-138167982D02*
X82404819Y-138358458D01*
X82404819Y-138358458D02*
X82357200Y-138453696D01*
X82357200Y-138453696D02*
X82309580Y-138501315D01*
X82309580Y-138501315D02*
X82214342Y-138548934D01*
X82214342Y-138548934D02*
X81404819Y-138548934D01*
X81404819Y-138929887D02*
X82404819Y-139596553D01*
X81404819Y-139596553D02*
X82404819Y-138929887D01*
X82500057Y-139739411D02*
X82500057Y-140501315D01*
X82309580Y-141310839D02*
X82357200Y-141263220D01*
X82357200Y-141263220D02*
X82404819Y-141120363D01*
X82404819Y-141120363D02*
X82404819Y-141025125D01*
X82404819Y-141025125D02*
X82357200Y-140882268D01*
X82357200Y-140882268D02*
X82261961Y-140787030D01*
X82261961Y-140787030D02*
X82166723Y-140739411D01*
X82166723Y-140739411D02*
X81976247Y-140691792D01*
X81976247Y-140691792D02*
X81833390Y-140691792D01*
X81833390Y-140691792D02*
X81642914Y-140739411D01*
X81642914Y-140739411D02*
X81547676Y-140787030D01*
X81547676Y-140787030D02*
X81452438Y-140882268D01*
X81452438Y-140882268D02*
X81404819Y-141025125D01*
X81404819Y-141025125D02*
X81404819Y-141120363D01*
X81404819Y-141120363D02*
X81452438Y-141263220D01*
X81452438Y-141263220D02*
X81500057Y-141310839D01*
D12*
G36*
X191394408Y-126354444D02*
G01*
X188106322Y-126354444D01*
X188106322Y-125188506D01*
X188550766Y-125188506D01*
X188550766Y-125910000D01*
X190900871Y-125910000D01*
X190900871Y-125235157D01*
X189537263Y-123442658D01*
X189454078Y-123318978D01*
X189393893Y-123195240D01*
X189355268Y-123069283D01*
X189343335Y-122958813D01*
X189343335Y-122953440D01*
X189370480Y-122807861D01*
X189447138Y-122704801D01*
X189566213Y-122641231D01*
X189742183Y-122617362D01*
X189860841Y-122631546D01*
X189959529Y-122672073D01*
X190042846Y-122738995D01*
X190106640Y-122826566D01*
X190153694Y-122939675D01*
X190182064Y-123084598D01*
X190182064Y-123087285D01*
X190949964Y-123087285D01*
X190949964Y-123084598D01*
X190917591Y-122841037D01*
X190857255Y-122629533D01*
X190770934Y-122445415D01*
X190654878Y-122279567D01*
X190516613Y-122144300D01*
X190354256Y-122036796D01*
X190174496Y-121960011D01*
X189973688Y-121912578D01*
X189747801Y-121896113D01*
X189502191Y-121910841D01*
X189292215Y-121952371D01*
X189112525Y-122017745D01*
X188948384Y-122112612D01*
X188815681Y-122230009D01*
X188710746Y-122371409D01*
X188635927Y-122531643D01*
X188589183Y-122716707D01*
X188572748Y-122931702D01*
X188572748Y-122934389D01*
X188596065Y-123202348D01*
X188667026Y-123471235D01*
X188780576Y-123725915D01*
X188930808Y-123953614D01*
X189909001Y-125188506D01*
X188550766Y-125188506D01*
X188106322Y-125188506D01*
X188106322Y-121451669D01*
X191394408Y-121451669D01*
X191394408Y-126354444D01*
G37*
D10*
X157514838Y-138982707D02*
X157467219Y-138887469D01*
X157467219Y-138887469D02*
X157467219Y-138744612D01*
X157467219Y-138744612D02*
X157514838Y-138601755D01*
X157514838Y-138601755D02*
X157610076Y-138506517D01*
X157610076Y-138506517D02*
X157705314Y-138458898D01*
X157705314Y-138458898D02*
X157895790Y-138411279D01*
X157895790Y-138411279D02*
X158038647Y-138411279D01*
X158038647Y-138411279D02*
X158229123Y-138458898D01*
X158229123Y-138458898D02*
X158324361Y-138506517D01*
X158324361Y-138506517D02*
X158419600Y-138601755D01*
X158419600Y-138601755D02*
X158467219Y-138744612D01*
X158467219Y-138744612D02*
X158467219Y-138839850D01*
X158467219Y-138839850D02*
X158419600Y-138982707D01*
X158419600Y-138982707D02*
X158371980Y-139030326D01*
X158371980Y-139030326D02*
X158038647Y-139030326D01*
X158038647Y-139030326D02*
X158038647Y-138839850D01*
X158467219Y-139458898D02*
X157467219Y-139458898D01*
X157467219Y-139458898D02*
X158467219Y-140030326D01*
X158467219Y-140030326D02*
X157467219Y-140030326D01*
X158467219Y-140506517D02*
X157467219Y-140506517D01*
X157467219Y-140506517D02*
X157467219Y-140744612D01*
X157467219Y-140744612D02*
X157514838Y-140887469D01*
X157514838Y-140887469D02*
X157610076Y-140982707D01*
X157610076Y-140982707D02*
X157705314Y-141030326D01*
X157705314Y-141030326D02*
X157895790Y-141077945D01*
X157895790Y-141077945D02*
X158038647Y-141077945D01*
X158038647Y-141077945D02*
X158229123Y-141030326D01*
X158229123Y-141030326D02*
X158324361Y-140982707D01*
X158324361Y-140982707D02*
X158419600Y-140887469D01*
X158419600Y-140887469D02*
X158467219Y-140744612D01*
X158467219Y-140744612D02*
X158467219Y-140506517D01*
D11*
X73114285Y-89902438D02*
X73209523Y-89854819D01*
X73209523Y-89854819D02*
X73352380Y-89854819D01*
X73352380Y-89854819D02*
X73495237Y-89902438D01*
X73495237Y-89902438D02*
X73590475Y-89997676D01*
X73590475Y-89997676D02*
X73638094Y-90092914D01*
X73638094Y-90092914D02*
X73685713Y-90283390D01*
X73685713Y-90283390D02*
X73685713Y-90426247D01*
X73685713Y-90426247D02*
X73638094Y-90616723D01*
X73638094Y-90616723D02*
X73590475Y-90711961D01*
X73590475Y-90711961D02*
X73495237Y-90807200D01*
X73495237Y-90807200D02*
X73352380Y-90854819D01*
X73352380Y-90854819D02*
X73257142Y-90854819D01*
X73257142Y-90854819D02*
X73114285Y-90807200D01*
X73114285Y-90807200D02*
X73066666Y-90759580D01*
X73066666Y-90759580D02*
X73066666Y-90426247D01*
X73066666Y-90426247D02*
X73257142Y-90426247D01*
X72638094Y-90854819D02*
X72638094Y-89854819D01*
X72638094Y-89854819D02*
X72257142Y-89854819D01*
X72257142Y-89854819D02*
X72161904Y-89902438D01*
X72161904Y-89902438D02*
X72114285Y-89950057D01*
X72114285Y-89950057D02*
X72066666Y-90045295D01*
X72066666Y-90045295D02*
X72066666Y-90188152D01*
X72066666Y-90188152D02*
X72114285Y-90283390D01*
X72114285Y-90283390D02*
X72161904Y-90331009D01*
X72161904Y-90331009D02*
X72257142Y-90378628D01*
X72257142Y-90378628D02*
X72638094Y-90378628D01*
X71733332Y-89854819D02*
X71114285Y-89854819D01*
X71114285Y-89854819D02*
X71447618Y-90235771D01*
X71447618Y-90235771D02*
X71304761Y-90235771D01*
X71304761Y-90235771D02*
X71209523Y-90283390D01*
X71209523Y-90283390D02*
X71161904Y-90331009D01*
X71161904Y-90331009D02*
X71114285Y-90426247D01*
X71114285Y-90426247D02*
X71114285Y-90664342D01*
X71114285Y-90664342D02*
X71161904Y-90759580D01*
X71161904Y-90759580D02*
X71209523Y-90807200D01*
X71209523Y-90807200D02*
X71304761Y-90854819D01*
X71304761Y-90854819D02*
X71590475Y-90854819D01*
X71590475Y-90854819D02*
X71685713Y-90807200D01*
X71685713Y-90807200D02*
X71733332Y-90759580D01*
D10*
X132230326Y-149067219D02*
X132230326Y-148067219D01*
X132230326Y-148067219D02*
X131992231Y-148067219D01*
X131992231Y-148067219D02*
X131849374Y-148114838D01*
X131849374Y-148114838D02*
X131754136Y-148210076D01*
X131754136Y-148210076D02*
X131706517Y-148305314D01*
X131706517Y-148305314D02*
X131658898Y-148495790D01*
X131658898Y-148495790D02*
X131658898Y-148638647D01*
X131658898Y-148638647D02*
X131706517Y-148829123D01*
X131706517Y-148829123D02*
X131754136Y-148924361D01*
X131754136Y-148924361D02*
X131849374Y-149019600D01*
X131849374Y-149019600D02*
X131992231Y-149067219D01*
X131992231Y-149067219D02*
X132230326Y-149067219D01*
X131230326Y-149067219D02*
X131230326Y-148067219D01*
X130754136Y-149067219D02*
X130754136Y-148067219D01*
X130754136Y-148067219D02*
X130182708Y-149067219D01*
X130182708Y-149067219D02*
X130182708Y-148067219D01*
D11*
X69031009Y-129136779D02*
X69031009Y-129470112D01*
X69554819Y-129612969D02*
X69554819Y-129136779D01*
X69554819Y-129136779D02*
X68554819Y-129136779D01*
X68554819Y-129136779D02*
X68554819Y-129612969D01*
X69554819Y-130041541D02*
X68554819Y-130041541D01*
X68554819Y-130041541D02*
X69554819Y-130612969D01*
X69554819Y-130612969D02*
X68554819Y-130612969D01*
X69459580Y-131660588D02*
X69507200Y-131612969D01*
X69507200Y-131612969D02*
X69554819Y-131470112D01*
X69554819Y-131470112D02*
X69554819Y-131374874D01*
X69554819Y-131374874D02*
X69507200Y-131232017D01*
X69507200Y-131232017D02*
X69411961Y-131136779D01*
X69411961Y-131136779D02*
X69316723Y-131089160D01*
X69316723Y-131089160D02*
X69126247Y-131041541D01*
X69126247Y-131041541D02*
X68983390Y-131041541D01*
X68983390Y-131041541D02*
X68792914Y-131089160D01*
X68792914Y-131089160D02*
X68697676Y-131136779D01*
X68697676Y-131136779D02*
X68602438Y-131232017D01*
X68602438Y-131232017D02*
X68554819Y-131374874D01*
X68554819Y-131374874D02*
X68554819Y-131470112D01*
X68554819Y-131470112D02*
X68602438Y-131612969D01*
X68602438Y-131612969D02*
X68650057Y-131660588D01*
X69650057Y-131851065D02*
X69650057Y-132612969D01*
X69269104Y-132803446D02*
X69269104Y-133279636D01*
X69554819Y-132708208D02*
X68554819Y-133041541D01*
X68554819Y-133041541D02*
X69554819Y-133374874D01*
D12*
G36*
X71814060Y-149738506D02*
G01*
X70966782Y-149738506D01*
X70799938Y-149723000D01*
X70670206Y-149680491D01*
X70569399Y-149614187D01*
X70492753Y-149522753D01*
X70445547Y-149408913D01*
X70428715Y-149265896D01*
X70428715Y-149257592D01*
X70445189Y-149115163D01*
X70491485Y-149000893D01*
X70568053Y-148907854D01*
X70675889Y-148838471D01*
X70805112Y-148797187D01*
X70966782Y-148782295D01*
X71814060Y-148782295D01*
X71814060Y-149738506D01*
G37*
G36*
X71814060Y-148060802D02*
G01*
X70966782Y-148060802D01*
X70816387Y-148046233D01*
X70699170Y-148006173D01*
X70607745Y-147943321D01*
X70538738Y-147857329D01*
X70495863Y-147749360D01*
X70480495Y-147612861D01*
X70495564Y-147491133D01*
X70538066Y-147393718D01*
X70607745Y-147314884D01*
X70698302Y-147258307D01*
X70815495Y-147221772D01*
X70966782Y-147208394D01*
X71814060Y-147208394D01*
X71814060Y-148060802D01*
G37*
G36*
X73007109Y-150907130D02*
G01*
X65976002Y-150907130D01*
X65976002Y-149129364D01*
X66420446Y-149129364D01*
X66420446Y-149850614D01*
X66731855Y-149850614D01*
X66731855Y-150462686D01*
X67480460Y-150462686D01*
X67480460Y-149850614D01*
X69084402Y-149850614D01*
X69084402Y-149369699D01*
X69674493Y-149369699D01*
X69674493Y-149378004D01*
X69691543Y-149601827D01*
X69740089Y-149795002D01*
X69817864Y-149962721D01*
X69927019Y-150110859D01*
X70065132Y-150233754D01*
X70236007Y-150332993D01*
X70423198Y-150401310D01*
X70641363Y-150444648D01*
X70895952Y-150460000D01*
X71814060Y-150460000D01*
X72562665Y-150460000D01*
X72562665Y-146486901D01*
X72234647Y-146486901D01*
X70942358Y-146486901D01*
X70687772Y-146502304D01*
X70470137Y-146545744D01*
X70283879Y-146614152D01*
X70113911Y-146713264D01*
X69976695Y-146835682D01*
X69868422Y-146982958D01*
X69791297Y-147149638D01*
X69743170Y-147341453D01*
X69726273Y-147563524D01*
X69731531Y-147612861D01*
X69749999Y-147786171D01*
X69817864Y-147974829D01*
X69929630Y-148137086D01*
X70084333Y-148268653D01*
X70272341Y-148363096D01*
X70505163Y-148424235D01*
X70257051Y-148483710D01*
X70055756Y-148584214D01*
X69890781Y-148727607D01*
X69771458Y-148908080D01*
X69699766Y-149118281D01*
X69685762Y-149257592D01*
X69674493Y-149369699D01*
X69084402Y-149369699D01*
X69084402Y-149162093D01*
X67860257Y-146489832D01*
X67013223Y-146489832D01*
X68204640Y-149129364D01*
X67480460Y-149129364D01*
X67480460Y-148123817D01*
X66731855Y-148123817D01*
X66731855Y-149129364D01*
X66420446Y-149129364D01*
X65976002Y-149129364D01*
X65976002Y-146042457D01*
X73007109Y-146042457D01*
X73007109Y-150907130D01*
G37*
D11*
X92612969Y-130654819D02*
X92612969Y-129654819D01*
X92184398Y-129750057D02*
X92136779Y-129702438D01*
X92136779Y-129702438D02*
X92041541Y-129654819D01*
X92041541Y-129654819D02*
X91803446Y-129654819D01*
X91803446Y-129654819D02*
X91708208Y-129702438D01*
X91708208Y-129702438D02*
X91660589Y-129750057D01*
X91660589Y-129750057D02*
X91612970Y-129845295D01*
X91612970Y-129845295D02*
X91612970Y-129940533D01*
X91612970Y-129940533D02*
X91660589Y-130083390D01*
X91660589Y-130083390D02*
X92232017Y-130654819D01*
X92232017Y-130654819D02*
X91612970Y-130654819D01*
X91232017Y-130607200D02*
X91089160Y-130654819D01*
X91089160Y-130654819D02*
X90851065Y-130654819D01*
X90851065Y-130654819D02*
X90755827Y-130607200D01*
X90755827Y-130607200D02*
X90708208Y-130559580D01*
X90708208Y-130559580D02*
X90660589Y-130464342D01*
X90660589Y-130464342D02*
X90660589Y-130369104D01*
X90660589Y-130369104D02*
X90708208Y-130273866D01*
X90708208Y-130273866D02*
X90755827Y-130226247D01*
X90755827Y-130226247D02*
X90851065Y-130178628D01*
X90851065Y-130178628D02*
X91041541Y-130131009D01*
X91041541Y-130131009D02*
X91136779Y-130083390D01*
X91136779Y-130083390D02*
X91184398Y-130035771D01*
X91184398Y-130035771D02*
X91232017Y-129940533D01*
X91232017Y-129940533D02*
X91232017Y-129845295D01*
X91232017Y-129845295D02*
X91184398Y-129750057D01*
X91184398Y-129750057D02*
X91136779Y-129702438D01*
X91136779Y-129702438D02*
X91041541Y-129654819D01*
X91041541Y-129654819D02*
X90803446Y-129654819D01*
X90803446Y-129654819D02*
X90660589Y-129702438D01*
X90470113Y-130750057D02*
X89708208Y-130750057D01*
X88993922Y-130654819D02*
X89470112Y-130654819D01*
X89470112Y-130654819D02*
X89470112Y-129654819D01*
X88089160Y-130654819D02*
X88422493Y-130178628D01*
X88660588Y-130654819D02*
X88660588Y-129654819D01*
X88660588Y-129654819D02*
X88279636Y-129654819D01*
X88279636Y-129654819D02*
X88184398Y-129702438D01*
X88184398Y-129702438D02*
X88136779Y-129750057D01*
X88136779Y-129750057D02*
X88089160Y-129845295D01*
X88089160Y-129845295D02*
X88089160Y-129988152D01*
X88089160Y-129988152D02*
X88136779Y-130083390D01*
X88136779Y-130083390D02*
X88184398Y-130131009D01*
X88184398Y-130131009D02*
X88279636Y-130178628D01*
X88279636Y-130178628D02*
X88660588Y-130178628D01*
X87089160Y-130559580D02*
X87136779Y-130607200D01*
X87136779Y-130607200D02*
X87279636Y-130654819D01*
X87279636Y-130654819D02*
X87374874Y-130654819D01*
X87374874Y-130654819D02*
X87517731Y-130607200D01*
X87517731Y-130607200D02*
X87612969Y-130511961D01*
X87612969Y-130511961D02*
X87660588Y-130416723D01*
X87660588Y-130416723D02*
X87708207Y-130226247D01*
X87708207Y-130226247D02*
X87708207Y-130083390D01*
X87708207Y-130083390D02*
X87660588Y-129892914D01*
X87660588Y-129892914D02*
X87612969Y-129797676D01*
X87612969Y-129797676D02*
X87517731Y-129702438D01*
X87517731Y-129702438D02*
X87374874Y-129654819D01*
X87374874Y-129654819D02*
X87279636Y-129654819D01*
X87279636Y-129654819D02*
X87136779Y-129702438D01*
X87136779Y-129702438D02*
X87089160Y-129750057D01*
X86660588Y-130654819D02*
X86660588Y-129654819D01*
X86089160Y-130654819D02*
X86517731Y-130083390D01*
X86089160Y-129654819D02*
X86660588Y-130226247D01*
X67714285Y-89902438D02*
X67809523Y-89854819D01*
X67809523Y-89854819D02*
X67952380Y-89854819D01*
X67952380Y-89854819D02*
X68095237Y-89902438D01*
X68095237Y-89902438D02*
X68190475Y-89997676D01*
X68190475Y-89997676D02*
X68238094Y-90092914D01*
X68238094Y-90092914D02*
X68285713Y-90283390D01*
X68285713Y-90283390D02*
X68285713Y-90426247D01*
X68285713Y-90426247D02*
X68238094Y-90616723D01*
X68238094Y-90616723D02*
X68190475Y-90711961D01*
X68190475Y-90711961D02*
X68095237Y-90807200D01*
X68095237Y-90807200D02*
X67952380Y-90854819D01*
X67952380Y-90854819D02*
X67857142Y-90854819D01*
X67857142Y-90854819D02*
X67714285Y-90807200D01*
X67714285Y-90807200D02*
X67666666Y-90759580D01*
X67666666Y-90759580D02*
X67666666Y-90426247D01*
X67666666Y-90426247D02*
X67857142Y-90426247D01*
X67238094Y-90854819D02*
X67238094Y-89854819D01*
X67238094Y-89854819D02*
X66857142Y-89854819D01*
X66857142Y-89854819D02*
X66761904Y-89902438D01*
X66761904Y-89902438D02*
X66714285Y-89950057D01*
X66714285Y-89950057D02*
X66666666Y-90045295D01*
X66666666Y-90045295D02*
X66666666Y-90188152D01*
X66666666Y-90188152D02*
X66714285Y-90283390D01*
X66714285Y-90283390D02*
X66761904Y-90331009D01*
X66761904Y-90331009D02*
X66857142Y-90378628D01*
X66857142Y-90378628D02*
X67238094Y-90378628D01*
X66285713Y-89950057D02*
X66238094Y-89902438D01*
X66238094Y-89902438D02*
X66142856Y-89854819D01*
X66142856Y-89854819D02*
X65904761Y-89854819D01*
X65904761Y-89854819D02*
X65809523Y-89902438D01*
X65809523Y-89902438D02*
X65761904Y-89950057D01*
X65761904Y-89950057D02*
X65714285Y-90045295D01*
X65714285Y-90045295D02*
X65714285Y-90140533D01*
X65714285Y-90140533D02*
X65761904Y-90283390D01*
X65761904Y-90283390D02*
X66333332Y-90854819D01*
X66333332Y-90854819D02*
X65714285Y-90854819D01*
X121014285Y-145654819D02*
X121014285Y-144654819D01*
X121014285Y-144654819D02*
X120633333Y-144654819D01*
X120633333Y-144654819D02*
X120538095Y-144702438D01*
X120538095Y-144702438D02*
X120490476Y-144750057D01*
X120490476Y-144750057D02*
X120442857Y-144845295D01*
X120442857Y-144845295D02*
X120442857Y-144988152D01*
X120442857Y-144988152D02*
X120490476Y-145083390D01*
X120490476Y-145083390D02*
X120538095Y-145131009D01*
X120538095Y-145131009D02*
X120633333Y-145178628D01*
X120633333Y-145178628D02*
X121014285Y-145178628D01*
X119490476Y-145654819D02*
X120061904Y-145654819D01*
X119776190Y-145654819D02*
X119776190Y-144654819D01*
X119776190Y-144654819D02*
X119871428Y-144797676D01*
X119871428Y-144797676D02*
X119966666Y-144892914D01*
X119966666Y-144892914D02*
X120061904Y-144940533D01*
X119109523Y-144750057D02*
X119061904Y-144702438D01*
X119061904Y-144702438D02*
X118966666Y-144654819D01*
X118966666Y-144654819D02*
X118728571Y-144654819D01*
X118728571Y-144654819D02*
X118633333Y-144702438D01*
X118633333Y-144702438D02*
X118585714Y-144750057D01*
X118585714Y-144750057D02*
X118538095Y-144845295D01*
X118538095Y-144845295D02*
X118538095Y-144940533D01*
X118538095Y-144940533D02*
X118585714Y-145083390D01*
X118585714Y-145083390D02*
X119157142Y-145654819D01*
X119157142Y-145654819D02*
X118538095Y-145654819D01*
D12*
G36*
X141824992Y-85917032D02*
G01*
X141987299Y-85980935D01*
X142122490Y-86084731D01*
X142223481Y-86225422D01*
X142285159Y-86392661D01*
X142306768Y-86591542D01*
X142306768Y-87755603D01*
X142285172Y-87954306D01*
X142223481Y-88121723D01*
X142122490Y-88262414D01*
X141987299Y-88366210D01*
X141825007Y-88429928D01*
X141631925Y-88452184D01*
X141438879Y-88429921D01*
X141276796Y-88366210D01*
X141141404Y-88262396D01*
X141040369Y-88121723D01*
X140978679Y-87954306D01*
X140957082Y-87755603D01*
X140957082Y-86591542D01*
X140978692Y-86392661D01*
X141040369Y-86225422D01*
X141141404Y-86084749D01*
X141276796Y-85980935D01*
X141438895Y-85917039D01*
X141631925Y-85894717D01*
X141824992Y-85917032D01*
G37*
G36*
X149783941Y-89645476D02*
G01*
X139736435Y-89645476D01*
X139736435Y-86610593D01*
X140180879Y-86610593D01*
X140180879Y-87736308D01*
X140202008Y-88023179D01*
X140262860Y-88277896D01*
X140361374Y-88505673D01*
X140498656Y-88710954D01*
X140667515Y-88881140D01*
X140870865Y-89019316D01*
X141096774Y-89118599D01*
X141348748Y-89179808D01*
X141631925Y-89201032D01*
X141915102Y-89179808D01*
X142167077Y-89118599D01*
X142392986Y-89019316D01*
X142596353Y-88881149D01*
X142765296Y-88710962D01*
X142902721Y-88505673D01*
X143001097Y-88277910D01*
X143061870Y-88023191D01*
X143082972Y-87736308D01*
X143082972Y-86610593D01*
X143061866Y-86323711D01*
X143001089Y-86069079D01*
X142931644Y-85908394D01*
X143521632Y-85908394D01*
X145382518Y-85908394D01*
X145382518Y-86861919D01*
X143822295Y-86861919D01*
X143822295Y-87583412D01*
X145382518Y-87583412D01*
X145382518Y-89160000D01*
X146131123Y-89160000D01*
X146131123Y-88438506D01*
X146677982Y-88438506D01*
X146677982Y-89160000D01*
X148590892Y-89160000D01*
X149339497Y-89160000D01*
X149339497Y-85186901D01*
X148590892Y-85186901D01*
X148590892Y-88438506D01*
X146677982Y-88438506D01*
X146131123Y-88438506D01*
X146131123Y-85186901D01*
X145857815Y-85186901D01*
X143521632Y-85186901D01*
X143521632Y-85908394D01*
X142931644Y-85908394D01*
X142902721Y-85841472D01*
X142765272Y-85636045D01*
X142596327Y-85465866D01*
X142392986Y-85327829D01*
X142167077Y-85228546D01*
X141915102Y-85167337D01*
X141631925Y-85146113D01*
X141348748Y-85167337D01*
X141096774Y-85228546D01*
X140870865Y-85327829D01*
X140667540Y-85465875D01*
X140498680Y-85636053D01*
X140361374Y-85841472D01*
X140262868Y-86069093D01*
X140202012Y-86323723D01*
X140182282Y-86591542D01*
X140180879Y-86610593D01*
X139736435Y-86610593D01*
X139736435Y-84701669D01*
X149783941Y-84701669D01*
X149783941Y-89645476D01*
G37*
D11*
X90662969Y-135607200D02*
X90520112Y-135654819D01*
X90520112Y-135654819D02*
X90282017Y-135654819D01*
X90282017Y-135654819D02*
X90186779Y-135607200D01*
X90186779Y-135607200D02*
X90139160Y-135559580D01*
X90139160Y-135559580D02*
X90091541Y-135464342D01*
X90091541Y-135464342D02*
X90091541Y-135369104D01*
X90091541Y-135369104D02*
X90139160Y-135273866D01*
X90139160Y-135273866D02*
X90186779Y-135226247D01*
X90186779Y-135226247D02*
X90282017Y-135178628D01*
X90282017Y-135178628D02*
X90472493Y-135131009D01*
X90472493Y-135131009D02*
X90567731Y-135083390D01*
X90567731Y-135083390D02*
X90615350Y-135035771D01*
X90615350Y-135035771D02*
X90662969Y-134940533D01*
X90662969Y-134940533D02*
X90662969Y-134845295D01*
X90662969Y-134845295D02*
X90615350Y-134750057D01*
X90615350Y-134750057D02*
X90567731Y-134702438D01*
X90567731Y-134702438D02*
X90472493Y-134654819D01*
X90472493Y-134654819D02*
X90234398Y-134654819D01*
X90234398Y-134654819D02*
X90091541Y-134702438D01*
X89662969Y-135654819D02*
X89662969Y-134654819D01*
X89662969Y-134654819D02*
X89282017Y-134654819D01*
X89282017Y-134654819D02*
X89186779Y-134702438D01*
X89186779Y-134702438D02*
X89139160Y-134750057D01*
X89139160Y-134750057D02*
X89091541Y-134845295D01*
X89091541Y-134845295D02*
X89091541Y-134988152D01*
X89091541Y-134988152D02*
X89139160Y-135083390D01*
X89139160Y-135083390D02*
X89186779Y-135131009D01*
X89186779Y-135131009D02*
X89282017Y-135178628D01*
X89282017Y-135178628D02*
X89662969Y-135178628D01*
X88662969Y-135654819D02*
X88662969Y-134654819D01*
X88424875Y-135750057D02*
X87662970Y-135750057D01*
X87567731Y-134654819D02*
X86996303Y-134654819D01*
X87282017Y-135654819D02*
X87282017Y-134654819D01*
X86758207Y-134654819D02*
X86091541Y-135654819D01*
X86091541Y-134654819D02*
X86758207Y-135654819D01*
X220814285Y-145654819D02*
X220814285Y-144654819D01*
X220814285Y-144654819D02*
X220433333Y-144654819D01*
X220433333Y-144654819D02*
X220338095Y-144702438D01*
X220338095Y-144702438D02*
X220290476Y-144750057D01*
X220290476Y-144750057D02*
X220242857Y-144845295D01*
X220242857Y-144845295D02*
X220242857Y-144988152D01*
X220242857Y-144988152D02*
X220290476Y-145083390D01*
X220290476Y-145083390D02*
X220338095Y-145131009D01*
X220338095Y-145131009D02*
X220433333Y-145178628D01*
X220433333Y-145178628D02*
X220814285Y-145178628D01*
X219290476Y-145654819D02*
X219861904Y-145654819D01*
X219576190Y-145654819D02*
X219576190Y-144654819D01*
X219576190Y-144654819D02*
X219671428Y-144797676D01*
X219671428Y-144797676D02*
X219766666Y-144892914D01*
X219766666Y-144892914D02*
X219861904Y-144940533D01*
X218671428Y-144654819D02*
X218576190Y-144654819D01*
X218576190Y-144654819D02*
X218480952Y-144702438D01*
X218480952Y-144702438D02*
X218433333Y-144750057D01*
X218433333Y-144750057D02*
X218385714Y-144845295D01*
X218385714Y-144845295D02*
X218338095Y-145035771D01*
X218338095Y-145035771D02*
X218338095Y-145273866D01*
X218338095Y-145273866D02*
X218385714Y-145464342D01*
X218385714Y-145464342D02*
X218433333Y-145559580D01*
X218433333Y-145559580D02*
X218480952Y-145607200D01*
X218480952Y-145607200D02*
X218576190Y-145654819D01*
X218576190Y-145654819D02*
X218671428Y-145654819D01*
X218671428Y-145654819D02*
X218766666Y-145607200D01*
X218766666Y-145607200D02*
X218814285Y-145559580D01*
X218814285Y-145559580D02*
X218861904Y-145464342D01*
X218861904Y-145464342D02*
X218909523Y-145273866D01*
X218909523Y-145273866D02*
X218909523Y-145035771D01*
X218909523Y-145035771D02*
X218861904Y-144845295D01*
X218861904Y-144845295D02*
X218814285Y-144750057D01*
X218814285Y-144750057D02*
X218766666Y-144702438D01*
X218766666Y-144702438D02*
X218671428Y-144654819D01*
X78214285Y-153054819D02*
X78214285Y-152054819D01*
X78214285Y-152054819D02*
X77833333Y-152054819D01*
X77833333Y-152054819D02*
X77738095Y-152102438D01*
X77738095Y-152102438D02*
X77690476Y-152150057D01*
X77690476Y-152150057D02*
X77642857Y-152245295D01*
X77642857Y-152245295D02*
X77642857Y-152388152D01*
X77642857Y-152388152D02*
X77690476Y-152483390D01*
X77690476Y-152483390D02*
X77738095Y-152531009D01*
X77738095Y-152531009D02*
X77833333Y-152578628D01*
X77833333Y-152578628D02*
X78214285Y-152578628D01*
X77023809Y-152054819D02*
X76928571Y-152054819D01*
X76928571Y-152054819D02*
X76833333Y-152102438D01*
X76833333Y-152102438D02*
X76785714Y-152150057D01*
X76785714Y-152150057D02*
X76738095Y-152245295D01*
X76738095Y-152245295D02*
X76690476Y-152435771D01*
X76690476Y-152435771D02*
X76690476Y-152673866D01*
X76690476Y-152673866D02*
X76738095Y-152864342D01*
X76738095Y-152864342D02*
X76785714Y-152959580D01*
X76785714Y-152959580D02*
X76833333Y-153007200D01*
X76833333Y-153007200D02*
X76928571Y-153054819D01*
X76928571Y-153054819D02*
X77023809Y-153054819D01*
X77023809Y-153054819D02*
X77119047Y-153007200D01*
X77119047Y-153007200D02*
X77166666Y-152959580D01*
X77166666Y-152959580D02*
X77214285Y-152864342D01*
X77214285Y-152864342D02*
X77261904Y-152673866D01*
X77261904Y-152673866D02*
X77261904Y-152435771D01*
X77261904Y-152435771D02*
X77214285Y-152245295D01*
X77214285Y-152245295D02*
X77166666Y-152150057D01*
X77166666Y-152150057D02*
X77119047Y-152102438D01*
X77119047Y-152102438D02*
X77023809Y-152054819D01*
X76357142Y-152054819D02*
X75738095Y-152054819D01*
X75738095Y-152054819D02*
X76071428Y-152435771D01*
X76071428Y-152435771D02*
X75928571Y-152435771D01*
X75928571Y-152435771D02*
X75833333Y-152483390D01*
X75833333Y-152483390D02*
X75785714Y-152531009D01*
X75785714Y-152531009D02*
X75738095Y-152626247D01*
X75738095Y-152626247D02*
X75738095Y-152864342D01*
X75738095Y-152864342D02*
X75785714Y-152959580D01*
X75785714Y-152959580D02*
X75833333Y-153007200D01*
X75833333Y-153007200D02*
X75928571Y-153054819D01*
X75928571Y-153054819D02*
X76214285Y-153054819D01*
X76214285Y-153054819D02*
X76309523Y-153007200D01*
X76309523Y-153007200D02*
X76357142Y-152959580D01*
X177564285Y-153204819D02*
X177564285Y-152204819D01*
X177564285Y-152204819D02*
X177183333Y-152204819D01*
X177183333Y-152204819D02*
X177088095Y-152252438D01*
X177088095Y-152252438D02*
X177040476Y-152300057D01*
X177040476Y-152300057D02*
X176992857Y-152395295D01*
X176992857Y-152395295D02*
X176992857Y-152538152D01*
X176992857Y-152538152D02*
X177040476Y-152633390D01*
X177040476Y-152633390D02*
X177088095Y-152681009D01*
X177088095Y-152681009D02*
X177183333Y-152728628D01*
X177183333Y-152728628D02*
X177564285Y-152728628D01*
X176373809Y-152204819D02*
X176278571Y-152204819D01*
X176278571Y-152204819D02*
X176183333Y-152252438D01*
X176183333Y-152252438D02*
X176135714Y-152300057D01*
X176135714Y-152300057D02*
X176088095Y-152395295D01*
X176088095Y-152395295D02*
X176040476Y-152585771D01*
X176040476Y-152585771D02*
X176040476Y-152823866D01*
X176040476Y-152823866D02*
X176088095Y-153014342D01*
X176088095Y-153014342D02*
X176135714Y-153109580D01*
X176135714Y-153109580D02*
X176183333Y-153157200D01*
X176183333Y-153157200D02*
X176278571Y-153204819D01*
X176278571Y-153204819D02*
X176373809Y-153204819D01*
X176373809Y-153204819D02*
X176469047Y-153157200D01*
X176469047Y-153157200D02*
X176516666Y-153109580D01*
X176516666Y-153109580D02*
X176564285Y-153014342D01*
X176564285Y-153014342D02*
X176611904Y-152823866D01*
X176611904Y-152823866D02*
X176611904Y-152585771D01*
X176611904Y-152585771D02*
X176564285Y-152395295D01*
X176564285Y-152395295D02*
X176516666Y-152300057D01*
X176516666Y-152300057D02*
X176469047Y-152252438D01*
X176469047Y-152252438D02*
X176373809Y-152204819D01*
X175088095Y-153204819D02*
X175659523Y-153204819D01*
X175373809Y-153204819D02*
X175373809Y-152204819D01*
X175373809Y-152204819D02*
X175469047Y-152347676D01*
X175469047Y-152347676D02*
X175564285Y-152442914D01*
X175564285Y-152442914D02*
X175659523Y-152490533D01*
D12*
G36*
X161482335Y-126395476D02*
G01*
X158153217Y-126395476D01*
X158153217Y-124734947D01*
X158597661Y-124734947D01*
X158597661Y-124855359D01*
X158614023Y-125083207D01*
X158660456Y-125279048D01*
X158734437Y-125448136D01*
X158839092Y-125598655D01*
X158970972Y-125722783D01*
X159133286Y-125822561D01*
X159312570Y-125891773D01*
X159521170Y-125935548D01*
X159764409Y-125951032D01*
X160002024Y-125935675D01*
X160214951Y-125891391D01*
X160406768Y-125819874D01*
X160582825Y-125718232D01*
X160731288Y-125591306D01*
X160854953Y-125437390D01*
X160947689Y-125262992D01*
X161009122Y-125065009D01*
X161037891Y-124838750D01*
X160264618Y-124838750D01*
X160237497Y-124955113D01*
X160192323Y-125048066D01*
X160127955Y-125124186D01*
X160048708Y-125179225D01*
X159956382Y-125212492D01*
X159846475Y-125224166D01*
X159709154Y-125209631D01*
X159601672Y-125169406D01*
X159517235Y-125105464D01*
X159454859Y-125019396D01*
X159415467Y-124910023D01*
X159401220Y-124770607D01*
X159401220Y-124677550D01*
X159427207Y-124468166D01*
X159495498Y-124328039D01*
X159566090Y-124260387D01*
X159653903Y-124219437D01*
X159764409Y-124204940D01*
X160100732Y-124204940D01*
X160100732Y-123483447D01*
X159764409Y-123483447D01*
X159637542Y-123456046D01*
X159544591Y-123375736D01*
X159488130Y-123253645D01*
X159466677Y-123073607D01*
X159466677Y-123005464D01*
X159490132Y-122837100D01*
X159552895Y-122722630D01*
X159653669Y-122648825D01*
X159794695Y-122622735D01*
X159891515Y-122635821D01*
X159979099Y-122674759D01*
X160054607Y-122736994D01*
X160119782Y-122825212D01*
X160167787Y-122930406D01*
X160201604Y-123062861D01*
X160972190Y-123062861D01*
X160934467Y-122825215D01*
X160868895Y-122617580D01*
X160777040Y-122435645D01*
X160656220Y-122272320D01*
X160515129Y-122139373D01*
X160352057Y-122034110D01*
X160172698Y-121958162D01*
X159978806Y-121911938D01*
X159767340Y-121896113D01*
X159503162Y-121915226D01*
X159284155Y-121968629D01*
X159102373Y-122052361D01*
X158951569Y-122165268D01*
X158829132Y-122308377D01*
X158739778Y-122479258D01*
X158683420Y-122683526D01*
X158663362Y-122928771D01*
X158663362Y-123049183D01*
X158679522Y-123228844D01*
X158726256Y-123387816D01*
X158802825Y-123530097D01*
X158906960Y-123653494D01*
X159037673Y-123755248D01*
X159198987Y-123836133D01*
X159020111Y-123899605D01*
X158873873Y-123998938D01*
X158754953Y-124136552D01*
X158670354Y-124300184D01*
X158616787Y-124497109D01*
X158597661Y-124734947D01*
X158153217Y-124734947D01*
X158153217Y-121451669D01*
X161482335Y-121451669D01*
X161482335Y-126395476D01*
G37*
D11*
X213864285Y-153104819D02*
X213864285Y-152104819D01*
X213864285Y-152104819D02*
X213483333Y-152104819D01*
X213483333Y-152104819D02*
X213388095Y-152152438D01*
X213388095Y-152152438D02*
X213340476Y-152200057D01*
X213340476Y-152200057D02*
X213292857Y-152295295D01*
X213292857Y-152295295D02*
X213292857Y-152438152D01*
X213292857Y-152438152D02*
X213340476Y-152533390D01*
X213340476Y-152533390D02*
X213388095Y-152581009D01*
X213388095Y-152581009D02*
X213483333Y-152628628D01*
X213483333Y-152628628D02*
X213864285Y-152628628D01*
X212673809Y-152104819D02*
X212578571Y-152104819D01*
X212578571Y-152104819D02*
X212483333Y-152152438D01*
X212483333Y-152152438D02*
X212435714Y-152200057D01*
X212435714Y-152200057D02*
X212388095Y-152295295D01*
X212388095Y-152295295D02*
X212340476Y-152485771D01*
X212340476Y-152485771D02*
X212340476Y-152723866D01*
X212340476Y-152723866D02*
X212388095Y-152914342D01*
X212388095Y-152914342D02*
X212435714Y-153009580D01*
X212435714Y-153009580D02*
X212483333Y-153057200D01*
X212483333Y-153057200D02*
X212578571Y-153104819D01*
X212578571Y-153104819D02*
X212673809Y-153104819D01*
X212673809Y-153104819D02*
X212769047Y-153057200D01*
X212769047Y-153057200D02*
X212816666Y-153009580D01*
X212816666Y-153009580D02*
X212864285Y-152914342D01*
X212864285Y-152914342D02*
X212911904Y-152723866D01*
X212911904Y-152723866D02*
X212911904Y-152485771D01*
X212911904Y-152485771D02*
X212864285Y-152295295D01*
X212864285Y-152295295D02*
X212816666Y-152200057D01*
X212816666Y-152200057D02*
X212769047Y-152152438D01*
X212769047Y-152152438D02*
X212673809Y-152104819D01*
X211388095Y-153104819D02*
X211959523Y-153104819D01*
X211673809Y-153104819D02*
X211673809Y-152104819D01*
X211673809Y-152104819D02*
X211769047Y-152247676D01*
X211769047Y-152247676D02*
X211864285Y-152342914D01*
X211864285Y-152342914D02*
X211959523Y-152390533D01*
X82254819Y-129136779D02*
X81254819Y-129136779D01*
X81350057Y-129565350D02*
X81302438Y-129612969D01*
X81302438Y-129612969D02*
X81254819Y-129708207D01*
X81254819Y-129708207D02*
X81254819Y-129946302D01*
X81254819Y-129946302D02*
X81302438Y-130041540D01*
X81302438Y-130041540D02*
X81350057Y-130089159D01*
X81350057Y-130089159D02*
X81445295Y-130136778D01*
X81445295Y-130136778D02*
X81540533Y-130136778D01*
X81540533Y-130136778D02*
X81683390Y-130089159D01*
X81683390Y-130089159D02*
X82254819Y-129517731D01*
X82254819Y-129517731D02*
X82254819Y-130136778D01*
X82207200Y-130517731D02*
X82254819Y-130660588D01*
X82254819Y-130660588D02*
X82254819Y-130898683D01*
X82254819Y-130898683D02*
X82207200Y-130993921D01*
X82207200Y-130993921D02*
X82159580Y-131041540D01*
X82159580Y-131041540D02*
X82064342Y-131089159D01*
X82064342Y-131089159D02*
X81969104Y-131089159D01*
X81969104Y-131089159D02*
X81873866Y-131041540D01*
X81873866Y-131041540D02*
X81826247Y-130993921D01*
X81826247Y-130993921D02*
X81778628Y-130898683D01*
X81778628Y-130898683D02*
X81731009Y-130708207D01*
X81731009Y-130708207D02*
X81683390Y-130612969D01*
X81683390Y-130612969D02*
X81635771Y-130565350D01*
X81635771Y-130565350D02*
X81540533Y-130517731D01*
X81540533Y-130517731D02*
X81445295Y-130517731D01*
X81445295Y-130517731D02*
X81350057Y-130565350D01*
X81350057Y-130565350D02*
X81302438Y-130612969D01*
X81302438Y-130612969D02*
X81254819Y-130708207D01*
X81254819Y-130708207D02*
X81254819Y-130946302D01*
X81254819Y-130946302D02*
X81302438Y-131089159D01*
X82350057Y-131279636D02*
X82350057Y-132041540D01*
X82254819Y-132851064D02*
X81778628Y-132517731D01*
X82254819Y-132279636D02*
X81254819Y-132279636D01*
X81254819Y-132279636D02*
X81254819Y-132660588D01*
X81254819Y-132660588D02*
X81302438Y-132755826D01*
X81302438Y-132755826D02*
X81350057Y-132803445D01*
X81350057Y-132803445D02*
X81445295Y-132851064D01*
X81445295Y-132851064D02*
X81588152Y-132851064D01*
X81588152Y-132851064D02*
X81683390Y-132803445D01*
X81683390Y-132803445D02*
X81731009Y-132755826D01*
X81731009Y-132755826D02*
X81778628Y-132660588D01*
X81778628Y-132660588D02*
X81778628Y-132279636D01*
X81254819Y-133184398D02*
X82254819Y-133851064D01*
X81254819Y-133851064D02*
X82254819Y-133184398D01*
D10*
X206325564Y-148827219D02*
X205706517Y-148827219D01*
X205706517Y-148827219D02*
X206039850Y-149208171D01*
X206039850Y-149208171D02*
X205896993Y-149208171D01*
X205896993Y-149208171D02*
X205801755Y-149255790D01*
X205801755Y-149255790D02*
X205754136Y-149303409D01*
X205754136Y-149303409D02*
X205706517Y-149398647D01*
X205706517Y-149398647D02*
X205706517Y-149636742D01*
X205706517Y-149636742D02*
X205754136Y-149731980D01*
X205754136Y-149731980D02*
X205801755Y-149779600D01*
X205801755Y-149779600D02*
X205896993Y-149827219D01*
X205896993Y-149827219D02*
X206182707Y-149827219D01*
X206182707Y-149827219D02*
X206277945Y-149779600D01*
X206277945Y-149779600D02*
X206325564Y-149731980D01*
X205420802Y-148827219D02*
X205087469Y-149827219D01*
X205087469Y-149827219D02*
X204754136Y-148827219D01*
X204516040Y-148827219D02*
X203896993Y-148827219D01*
X203896993Y-148827219D02*
X204230326Y-149208171D01*
X204230326Y-149208171D02*
X204087469Y-149208171D01*
X204087469Y-149208171D02*
X203992231Y-149255790D01*
X203992231Y-149255790D02*
X203944612Y-149303409D01*
X203944612Y-149303409D02*
X203896993Y-149398647D01*
X203896993Y-149398647D02*
X203896993Y-149636742D01*
X203896993Y-149636742D02*
X203944612Y-149731980D01*
X203944612Y-149731980D02*
X203992231Y-149779600D01*
X203992231Y-149779600D02*
X204087469Y-149827219D01*
X204087469Y-149827219D02*
X204373183Y-149827219D01*
X204373183Y-149827219D02*
X204468421Y-149779600D01*
X204468421Y-149779600D02*
X204516040Y-149731980D01*
D11*
X73214285Y-71654819D02*
X73214285Y-70654819D01*
X73214285Y-70654819D02*
X72833333Y-70654819D01*
X72833333Y-70654819D02*
X72738095Y-70702438D01*
X72738095Y-70702438D02*
X72690476Y-70750057D01*
X72690476Y-70750057D02*
X72642857Y-70845295D01*
X72642857Y-70845295D02*
X72642857Y-70988152D01*
X72642857Y-70988152D02*
X72690476Y-71083390D01*
X72690476Y-71083390D02*
X72738095Y-71131009D01*
X72738095Y-71131009D02*
X72833333Y-71178628D01*
X72833333Y-71178628D02*
X73214285Y-71178628D01*
X71690476Y-71654819D02*
X72261904Y-71654819D01*
X71976190Y-71654819D02*
X71976190Y-70654819D01*
X71976190Y-70654819D02*
X72071428Y-70797676D01*
X72071428Y-70797676D02*
X72166666Y-70892914D01*
X72166666Y-70892914D02*
X72261904Y-70940533D01*
X70833333Y-70988152D02*
X70833333Y-71654819D01*
X71071428Y-70607200D02*
X71309523Y-71321485D01*
X71309523Y-71321485D02*
X70690476Y-71321485D01*
D12*
G36*
X193070595Y-93467032D02*
G01*
X193232902Y-93530935D01*
X193368094Y-93634731D01*
X193469085Y-93775422D01*
X193530762Y-93942661D01*
X193552372Y-94141542D01*
X193552372Y-95305603D01*
X193530775Y-95504306D01*
X193469085Y-95671723D01*
X193368094Y-95812414D01*
X193232902Y-95916210D01*
X193070610Y-95979928D01*
X192877529Y-96002184D01*
X192684483Y-95979921D01*
X192522400Y-95916210D01*
X192387007Y-95812396D01*
X192285972Y-95671723D01*
X192224282Y-95504306D01*
X192202686Y-95305603D01*
X192202686Y-94141542D01*
X192224295Y-93942661D01*
X192285972Y-93775422D01*
X192387007Y-93634749D01*
X192522400Y-93530935D01*
X192684498Y-93467039D01*
X192877529Y-93444717D01*
X193070595Y-93467032D01*
G37*
G36*
X194773019Y-97195476D02*
G01*
X184260963Y-97195476D01*
X184260963Y-93458394D01*
X184705407Y-93458394D01*
X185787403Y-93458394D01*
X185787403Y-96710000D01*
X186536007Y-96710000D01*
X186536007Y-95272630D01*
X187893998Y-95272630D01*
X187914515Y-95580346D01*
X187972606Y-95844532D01*
X188064723Y-96072037D01*
X188196578Y-96276642D01*
X188361279Y-96443987D01*
X188562002Y-96577620D01*
X188785990Y-96671306D01*
X189045561Y-96730244D01*
X189347487Y-96751032D01*
X189649580Y-96730215D01*
X189908699Y-96671251D01*
X190131751Y-96577620D01*
X190331463Y-96444036D01*
X190495282Y-96276706D01*
X190626342Y-96072037D01*
X190717779Y-95844605D01*
X190775467Y-95580414D01*
X190795847Y-95272630D01*
X190795847Y-94160593D01*
X191426482Y-94160593D01*
X191426482Y-95286308D01*
X191447611Y-95573179D01*
X191508463Y-95827896D01*
X191606977Y-96055673D01*
X191744259Y-96260954D01*
X191913118Y-96431140D01*
X192116468Y-96569316D01*
X192342377Y-96668599D01*
X192594352Y-96729808D01*
X192877529Y-96751032D01*
X193160706Y-96729808D01*
X193412680Y-96668599D01*
X193638589Y-96569316D01*
X193841956Y-96431149D01*
X194010899Y-96260962D01*
X194148324Y-96055673D01*
X194246700Y-95827910D01*
X194307473Y-95573191D01*
X194328575Y-95286308D01*
X194328575Y-94160593D01*
X194307469Y-93873711D01*
X194246693Y-93619079D01*
X194148324Y-93391472D01*
X194010875Y-93186045D01*
X193841931Y-93015866D01*
X193638589Y-92877829D01*
X193412680Y-92778546D01*
X193160706Y-92717337D01*
X192877529Y-92696113D01*
X192594352Y-92717337D01*
X192342377Y-92778546D01*
X192116468Y-92877829D01*
X191913143Y-93015875D01*
X191744283Y-93186053D01*
X191606977Y-93391472D01*
X191508471Y-93619093D01*
X191447615Y-93873723D01*
X191427885Y-94141542D01*
X191426482Y-94160593D01*
X190795847Y-94160593D01*
X190795847Y-92736901D01*
X190046998Y-92736901D01*
X190046998Y-95291926D01*
X190024534Y-95512457D01*
X189962414Y-95685589D01*
X189864060Y-95821933D01*
X189730719Y-95923700D01*
X189561996Y-95987499D01*
X189347487Y-96010488D01*
X189131132Y-95987465D01*
X188961147Y-95923625D01*
X188827005Y-95821933D01*
X188727803Y-95685474D01*
X188665220Y-95512339D01*
X188642602Y-95291926D01*
X188642602Y-92736901D01*
X187893998Y-92736901D01*
X187893998Y-95272630D01*
X186536007Y-95272630D01*
X186536007Y-93458394D01*
X187618003Y-93458394D01*
X187618003Y-92736901D01*
X184705407Y-92736901D01*
X184705407Y-93458394D01*
X184260963Y-93458394D01*
X184260963Y-92251669D01*
X194773019Y-92251669D01*
X194773019Y-97195476D01*
G37*
D11*
X67004819Y-129136779D02*
X66004819Y-129136779D01*
X66004819Y-129136779D02*
X66719104Y-129470112D01*
X66719104Y-129470112D02*
X66004819Y-129803445D01*
X66004819Y-129803445D02*
X67004819Y-129803445D01*
X67004819Y-130279636D02*
X66004819Y-130279636D01*
X67004819Y-130755826D02*
X66004819Y-130755826D01*
X66004819Y-130755826D02*
X66004819Y-130993921D01*
X66004819Y-130993921D02*
X66052438Y-131136778D01*
X66052438Y-131136778D02*
X66147676Y-131232016D01*
X66147676Y-131232016D02*
X66242914Y-131279635D01*
X66242914Y-131279635D02*
X66433390Y-131327254D01*
X66433390Y-131327254D02*
X66576247Y-131327254D01*
X66576247Y-131327254D02*
X66766723Y-131279635D01*
X66766723Y-131279635D02*
X66861961Y-131232016D01*
X66861961Y-131232016D02*
X66957200Y-131136778D01*
X66957200Y-131136778D02*
X67004819Y-130993921D01*
X67004819Y-130993921D02*
X67004819Y-130755826D01*
X67004819Y-131755826D02*
X66004819Y-131755826D01*
X67100057Y-131993921D02*
X67100057Y-132755825D01*
X67004819Y-133565349D02*
X66528628Y-133232016D01*
X67004819Y-132993921D02*
X66004819Y-132993921D01*
X66004819Y-132993921D02*
X66004819Y-133374873D01*
X66004819Y-133374873D02*
X66052438Y-133470111D01*
X66052438Y-133470111D02*
X66100057Y-133517730D01*
X66100057Y-133517730D02*
X66195295Y-133565349D01*
X66195295Y-133565349D02*
X66338152Y-133565349D01*
X66338152Y-133565349D02*
X66433390Y-133517730D01*
X66433390Y-133517730D02*
X66481009Y-133470111D01*
X66481009Y-133470111D02*
X66528628Y-133374873D01*
X66528628Y-133374873D02*
X66528628Y-132993921D01*
X66004819Y-133898683D02*
X67004819Y-134565349D01*
X66004819Y-134565349D02*
X67004819Y-133898683D01*
D10*
X186788720Y-142220219D02*
X186788720Y-141220219D01*
X186788720Y-141220219D02*
X186455387Y-141934504D01*
X186455387Y-141934504D02*
X186122054Y-141220219D01*
X186122054Y-141220219D02*
X186122054Y-142220219D01*
X185645863Y-142220219D02*
X185645863Y-141220219D01*
X185645863Y-141220219D02*
X185407768Y-141220219D01*
X185407768Y-141220219D02*
X185264911Y-141267838D01*
X185264911Y-141267838D02*
X185169673Y-141363076D01*
X185169673Y-141363076D02*
X185122054Y-141458314D01*
X185122054Y-141458314D02*
X185074435Y-141648790D01*
X185074435Y-141648790D02*
X185074435Y-141791647D01*
X185074435Y-141791647D02*
X185122054Y-141982123D01*
X185122054Y-141982123D02*
X185169673Y-142077361D01*
X185169673Y-142077361D02*
X185264911Y-142172600D01*
X185264911Y-142172600D02*
X185407768Y-142220219D01*
X185407768Y-142220219D02*
X185645863Y-142220219D01*
X184455387Y-141220219D02*
X184360149Y-141220219D01*
X184360149Y-141220219D02*
X184264911Y-141267838D01*
X184264911Y-141267838D02*
X184217292Y-141315457D01*
X184217292Y-141315457D02*
X184169673Y-141410695D01*
X184169673Y-141410695D02*
X184122054Y-141601171D01*
X184122054Y-141601171D02*
X184122054Y-141839266D01*
X184122054Y-141839266D02*
X184169673Y-142029742D01*
X184169673Y-142029742D02*
X184217292Y-142124980D01*
X184217292Y-142124980D02*
X184264911Y-142172600D01*
X184264911Y-142172600D02*
X184360149Y-142220219D01*
X184360149Y-142220219D02*
X184455387Y-142220219D01*
X184455387Y-142220219D02*
X184550625Y-142172600D01*
X184550625Y-142172600D02*
X184598244Y-142124980D01*
X184598244Y-142124980D02*
X184645863Y-142029742D01*
X184645863Y-142029742D02*
X184693482Y-141839266D01*
X184693482Y-141839266D02*
X184693482Y-141601171D01*
X184693482Y-141601171D02*
X184645863Y-141410695D01*
X184645863Y-141410695D02*
X184598244Y-141315457D01*
X184598244Y-141315457D02*
X184550625Y-141267838D01*
X184550625Y-141267838D02*
X184455387Y-141220219D01*
D11*
X71531009Y-129136779D02*
X71531009Y-129470112D01*
X72054819Y-129612969D02*
X72054819Y-129136779D01*
X72054819Y-129136779D02*
X71054819Y-129136779D01*
X71054819Y-129136779D02*
X71054819Y-129612969D01*
X72054819Y-130041541D02*
X71054819Y-130041541D01*
X71054819Y-130041541D02*
X72054819Y-130612969D01*
X72054819Y-130612969D02*
X71054819Y-130612969D01*
X71959580Y-131660588D02*
X72007200Y-131612969D01*
X72007200Y-131612969D02*
X72054819Y-131470112D01*
X72054819Y-131470112D02*
X72054819Y-131374874D01*
X72054819Y-131374874D02*
X72007200Y-131232017D01*
X72007200Y-131232017D02*
X71911961Y-131136779D01*
X71911961Y-131136779D02*
X71816723Y-131089160D01*
X71816723Y-131089160D02*
X71626247Y-131041541D01*
X71626247Y-131041541D02*
X71483390Y-131041541D01*
X71483390Y-131041541D02*
X71292914Y-131089160D01*
X71292914Y-131089160D02*
X71197676Y-131136779D01*
X71197676Y-131136779D02*
X71102438Y-131232017D01*
X71102438Y-131232017D02*
X71054819Y-131374874D01*
X71054819Y-131374874D02*
X71054819Y-131470112D01*
X71054819Y-131470112D02*
X71102438Y-131612969D01*
X71102438Y-131612969D02*
X71150057Y-131660588D01*
X72150057Y-131851065D02*
X72150057Y-132612969D01*
X71531009Y-133184398D02*
X71578628Y-133327255D01*
X71578628Y-133327255D02*
X71626247Y-133374874D01*
X71626247Y-133374874D02*
X71721485Y-133422493D01*
X71721485Y-133422493D02*
X71864342Y-133422493D01*
X71864342Y-133422493D02*
X71959580Y-133374874D01*
X71959580Y-133374874D02*
X72007200Y-133327255D01*
X72007200Y-133327255D02*
X72054819Y-133232017D01*
X72054819Y-133232017D02*
X72054819Y-132851065D01*
X72054819Y-132851065D02*
X71054819Y-132851065D01*
X71054819Y-132851065D02*
X71054819Y-133184398D01*
X71054819Y-133184398D02*
X71102438Y-133279636D01*
X71102438Y-133279636D02*
X71150057Y-133327255D01*
X71150057Y-133327255D02*
X71245295Y-133374874D01*
X71245295Y-133374874D02*
X71340533Y-133374874D01*
X71340533Y-133374874D02*
X71435771Y-133327255D01*
X71435771Y-133327255D02*
X71483390Y-133279636D01*
X71483390Y-133279636D02*
X71531009Y-133184398D01*
X71531009Y-133184398D02*
X71531009Y-132851065D01*
X91901064Y-143407200D02*
X91758207Y-143454819D01*
X91758207Y-143454819D02*
X91520112Y-143454819D01*
X91520112Y-143454819D02*
X91424874Y-143407200D01*
X91424874Y-143407200D02*
X91377255Y-143359580D01*
X91377255Y-143359580D02*
X91329636Y-143264342D01*
X91329636Y-143264342D02*
X91329636Y-143169104D01*
X91329636Y-143169104D02*
X91377255Y-143073866D01*
X91377255Y-143073866D02*
X91424874Y-143026247D01*
X91424874Y-143026247D02*
X91520112Y-142978628D01*
X91520112Y-142978628D02*
X91710588Y-142931009D01*
X91710588Y-142931009D02*
X91805826Y-142883390D01*
X91805826Y-142883390D02*
X91853445Y-142835771D01*
X91853445Y-142835771D02*
X91901064Y-142740533D01*
X91901064Y-142740533D02*
X91901064Y-142645295D01*
X91901064Y-142645295D02*
X91853445Y-142550057D01*
X91853445Y-142550057D02*
X91805826Y-142502438D01*
X91805826Y-142502438D02*
X91710588Y-142454819D01*
X91710588Y-142454819D02*
X91472493Y-142454819D01*
X91472493Y-142454819D02*
X91329636Y-142502438D01*
X90901064Y-143454819D02*
X90901064Y-142454819D01*
X90901064Y-142454819D02*
X90520112Y-142454819D01*
X90520112Y-142454819D02*
X90424874Y-142502438D01*
X90424874Y-142502438D02*
X90377255Y-142550057D01*
X90377255Y-142550057D02*
X90329636Y-142645295D01*
X90329636Y-142645295D02*
X90329636Y-142788152D01*
X90329636Y-142788152D02*
X90377255Y-142883390D01*
X90377255Y-142883390D02*
X90424874Y-142931009D01*
X90424874Y-142931009D02*
X90520112Y-142978628D01*
X90520112Y-142978628D02*
X90901064Y-142978628D01*
X89901064Y-143454819D02*
X89901064Y-142454819D01*
X89662970Y-143550057D02*
X88901065Y-143550057D01*
X88710588Y-143407200D02*
X88567731Y-143454819D01*
X88567731Y-143454819D02*
X88329636Y-143454819D01*
X88329636Y-143454819D02*
X88234398Y-143407200D01*
X88234398Y-143407200D02*
X88186779Y-143359580D01*
X88186779Y-143359580D02*
X88139160Y-143264342D01*
X88139160Y-143264342D02*
X88139160Y-143169104D01*
X88139160Y-143169104D02*
X88186779Y-143073866D01*
X88186779Y-143073866D02*
X88234398Y-143026247D01*
X88234398Y-143026247D02*
X88329636Y-142978628D01*
X88329636Y-142978628D02*
X88520112Y-142931009D01*
X88520112Y-142931009D02*
X88615350Y-142883390D01*
X88615350Y-142883390D02*
X88662969Y-142835771D01*
X88662969Y-142835771D02*
X88710588Y-142740533D01*
X88710588Y-142740533D02*
X88710588Y-142645295D01*
X88710588Y-142645295D02*
X88662969Y-142550057D01*
X88662969Y-142550057D02*
X88615350Y-142502438D01*
X88615350Y-142502438D02*
X88520112Y-142454819D01*
X88520112Y-142454819D02*
X88282017Y-142454819D01*
X88282017Y-142454819D02*
X88139160Y-142502438D01*
X87139160Y-143359580D02*
X87186779Y-143407200D01*
X87186779Y-143407200D02*
X87329636Y-143454819D01*
X87329636Y-143454819D02*
X87424874Y-143454819D01*
X87424874Y-143454819D02*
X87567731Y-143407200D01*
X87567731Y-143407200D02*
X87662969Y-143311961D01*
X87662969Y-143311961D02*
X87710588Y-143216723D01*
X87710588Y-143216723D02*
X87758207Y-143026247D01*
X87758207Y-143026247D02*
X87758207Y-142883390D01*
X87758207Y-142883390D02*
X87710588Y-142692914D01*
X87710588Y-142692914D02*
X87662969Y-142597676D01*
X87662969Y-142597676D02*
X87567731Y-142502438D01*
X87567731Y-142502438D02*
X87424874Y-142454819D01*
X87424874Y-142454819D02*
X87329636Y-142454819D01*
X87329636Y-142454819D02*
X87186779Y-142502438D01*
X87186779Y-142502438D02*
X87139160Y-142550057D01*
X86710588Y-143454819D02*
X86710588Y-142454819D01*
X86139160Y-143454819D02*
X86567731Y-142883390D01*
X86139160Y-142454819D02*
X86710588Y-143026247D01*
D10*
X206039850Y-138667219D02*
X205849374Y-138667219D01*
X205849374Y-138667219D02*
X205754136Y-138714838D01*
X205754136Y-138714838D02*
X205658898Y-138810076D01*
X205658898Y-138810076D02*
X205611279Y-139000552D01*
X205611279Y-139000552D02*
X205611279Y-139333885D01*
X205611279Y-139333885D02*
X205658898Y-139524361D01*
X205658898Y-139524361D02*
X205754136Y-139619600D01*
X205754136Y-139619600D02*
X205849374Y-139667219D01*
X205849374Y-139667219D02*
X206039850Y-139667219D01*
X206039850Y-139667219D02*
X206135088Y-139619600D01*
X206135088Y-139619600D02*
X206230326Y-139524361D01*
X206230326Y-139524361D02*
X206277945Y-139333885D01*
X206277945Y-139333885D02*
X206277945Y-139000552D01*
X206277945Y-139000552D02*
X206230326Y-138810076D01*
X206230326Y-138810076D02*
X206135088Y-138714838D01*
X206135088Y-138714838D02*
X206039850Y-138667219D01*
X205182707Y-138667219D02*
X205182707Y-139476742D01*
X205182707Y-139476742D02*
X205135088Y-139571980D01*
X205135088Y-139571980D02*
X205087469Y-139619600D01*
X205087469Y-139619600D02*
X204992231Y-139667219D01*
X204992231Y-139667219D02*
X204801755Y-139667219D01*
X204801755Y-139667219D02*
X204706517Y-139619600D01*
X204706517Y-139619600D02*
X204658898Y-139571980D01*
X204658898Y-139571980D02*
X204611279Y-139476742D01*
X204611279Y-139476742D02*
X204611279Y-138667219D01*
X204277945Y-138667219D02*
X203706517Y-138667219D01*
X203992231Y-139667219D02*
X203992231Y-138667219D01*
D11*
X100459523Y-119654819D02*
X99792857Y-120654819D01*
X99792857Y-119654819D02*
X100459523Y-120654819D01*
X99221428Y-119654819D02*
X99126190Y-119654819D01*
X99126190Y-119654819D02*
X99030952Y-119702438D01*
X99030952Y-119702438D02*
X98983333Y-119750057D01*
X98983333Y-119750057D02*
X98935714Y-119845295D01*
X98935714Y-119845295D02*
X98888095Y-120035771D01*
X98888095Y-120035771D02*
X98888095Y-120273866D01*
X98888095Y-120273866D02*
X98935714Y-120464342D01*
X98935714Y-120464342D02*
X98983333Y-120559580D01*
X98983333Y-120559580D02*
X99030952Y-120607200D01*
X99030952Y-120607200D02*
X99126190Y-120654819D01*
X99126190Y-120654819D02*
X99221428Y-120654819D01*
X99221428Y-120654819D02*
X99316666Y-120607200D01*
X99316666Y-120607200D02*
X99364285Y-120559580D01*
X99364285Y-120559580D02*
X99411904Y-120464342D01*
X99411904Y-120464342D02*
X99459523Y-120273866D01*
X99459523Y-120273866D02*
X99459523Y-120035771D01*
X99459523Y-120035771D02*
X99411904Y-119845295D01*
X99411904Y-119845295D02*
X99364285Y-119750057D01*
X99364285Y-119750057D02*
X99316666Y-119702438D01*
X99316666Y-119702438D02*
X99221428Y-119654819D01*
D10*
X131896993Y-146130409D02*
X131754136Y-146178028D01*
X131754136Y-146178028D02*
X131706517Y-146225647D01*
X131706517Y-146225647D02*
X131658898Y-146320885D01*
X131658898Y-146320885D02*
X131658898Y-146463742D01*
X131658898Y-146463742D02*
X131706517Y-146558980D01*
X131706517Y-146558980D02*
X131754136Y-146606600D01*
X131754136Y-146606600D02*
X131849374Y-146654219D01*
X131849374Y-146654219D02*
X132230326Y-146654219D01*
X132230326Y-146654219D02*
X132230326Y-145654219D01*
X132230326Y-145654219D02*
X131896993Y-145654219D01*
X131896993Y-145654219D02*
X131801755Y-145701838D01*
X131801755Y-145701838D02*
X131754136Y-145749457D01*
X131754136Y-145749457D02*
X131706517Y-145844695D01*
X131706517Y-145844695D02*
X131706517Y-145939933D01*
X131706517Y-145939933D02*
X131754136Y-146035171D01*
X131754136Y-146035171D02*
X131801755Y-146082790D01*
X131801755Y-146082790D02*
X131896993Y-146130409D01*
X131896993Y-146130409D02*
X132230326Y-146130409D01*
X130658898Y-146558980D02*
X130706517Y-146606600D01*
X130706517Y-146606600D02*
X130849374Y-146654219D01*
X130849374Y-146654219D02*
X130944612Y-146654219D01*
X130944612Y-146654219D02*
X131087469Y-146606600D01*
X131087469Y-146606600D02*
X131182707Y-146511361D01*
X131182707Y-146511361D02*
X131230326Y-146416123D01*
X131230326Y-146416123D02*
X131277945Y-146225647D01*
X131277945Y-146225647D02*
X131277945Y-146082790D01*
X131277945Y-146082790D02*
X131230326Y-145892314D01*
X131230326Y-145892314D02*
X131182707Y-145797076D01*
X131182707Y-145797076D02*
X131087469Y-145701838D01*
X131087469Y-145701838D02*
X130944612Y-145654219D01*
X130944612Y-145654219D02*
X130849374Y-145654219D01*
X130849374Y-145654219D02*
X130706517Y-145701838D01*
X130706517Y-145701838D02*
X130658898Y-145749457D01*
X130230326Y-146654219D02*
X130230326Y-145654219D01*
X129658898Y-146654219D02*
X130087469Y-146082790D01*
X129658898Y-145654219D02*
X130230326Y-146225647D01*
X205896993Y-136603409D02*
X205754136Y-136651028D01*
X205754136Y-136651028D02*
X205706517Y-136698647D01*
X205706517Y-136698647D02*
X205658898Y-136793885D01*
X205658898Y-136793885D02*
X205658898Y-136936742D01*
X205658898Y-136936742D02*
X205706517Y-137031980D01*
X205706517Y-137031980D02*
X205754136Y-137079600D01*
X205754136Y-137079600D02*
X205849374Y-137127219D01*
X205849374Y-137127219D02*
X206230326Y-137127219D01*
X206230326Y-137127219D02*
X206230326Y-136127219D01*
X206230326Y-136127219D02*
X205896993Y-136127219D01*
X205896993Y-136127219D02*
X205801755Y-136174838D01*
X205801755Y-136174838D02*
X205754136Y-136222457D01*
X205754136Y-136222457D02*
X205706517Y-136317695D01*
X205706517Y-136317695D02*
X205706517Y-136412933D01*
X205706517Y-136412933D02*
X205754136Y-136508171D01*
X205754136Y-136508171D02*
X205801755Y-136555790D01*
X205801755Y-136555790D02*
X205896993Y-136603409D01*
X205896993Y-136603409D02*
X206230326Y-136603409D01*
X204658898Y-137031980D02*
X204706517Y-137079600D01*
X204706517Y-137079600D02*
X204849374Y-137127219D01*
X204849374Y-137127219D02*
X204944612Y-137127219D01*
X204944612Y-137127219D02*
X205087469Y-137079600D01*
X205087469Y-137079600D02*
X205182707Y-136984361D01*
X205182707Y-136984361D02*
X205230326Y-136889123D01*
X205230326Y-136889123D02*
X205277945Y-136698647D01*
X205277945Y-136698647D02*
X205277945Y-136555790D01*
X205277945Y-136555790D02*
X205230326Y-136365314D01*
X205230326Y-136365314D02*
X205182707Y-136270076D01*
X205182707Y-136270076D02*
X205087469Y-136174838D01*
X205087469Y-136174838D02*
X204944612Y-136127219D01*
X204944612Y-136127219D02*
X204849374Y-136127219D01*
X204849374Y-136127219D02*
X204706517Y-136174838D01*
X204706517Y-136174838D02*
X204658898Y-136222457D01*
X204230326Y-137127219D02*
X204230326Y-136127219D01*
X203658898Y-137127219D02*
X204087469Y-136555790D01*
X203658898Y-136127219D02*
X204230326Y-136698647D01*
D11*
X190409523Y-119654819D02*
X189742857Y-120654819D01*
X189742857Y-119654819D02*
X190409523Y-120654819D01*
X188933333Y-119654819D02*
X189123809Y-119654819D01*
X189123809Y-119654819D02*
X189219047Y-119702438D01*
X189219047Y-119702438D02*
X189266666Y-119750057D01*
X189266666Y-119750057D02*
X189361904Y-119892914D01*
X189361904Y-119892914D02*
X189409523Y-120083390D01*
X189409523Y-120083390D02*
X189409523Y-120464342D01*
X189409523Y-120464342D02*
X189361904Y-120559580D01*
X189361904Y-120559580D02*
X189314285Y-120607200D01*
X189314285Y-120607200D02*
X189219047Y-120654819D01*
X189219047Y-120654819D02*
X189028571Y-120654819D01*
X189028571Y-120654819D02*
X188933333Y-120607200D01*
X188933333Y-120607200D02*
X188885714Y-120559580D01*
X188885714Y-120559580D02*
X188838095Y-120464342D01*
X188838095Y-120464342D02*
X188838095Y-120226247D01*
X188838095Y-120226247D02*
X188885714Y-120131009D01*
X188885714Y-120131009D02*
X188933333Y-120083390D01*
X188933333Y-120083390D02*
X189028571Y-120035771D01*
X189028571Y-120035771D02*
X189219047Y-120035771D01*
X189219047Y-120035771D02*
X189314285Y-120083390D01*
X189314285Y-120083390D02*
X189361904Y-120131009D01*
X189361904Y-120131009D02*
X189409523Y-120226247D01*
D10*
X185026816Y-148840219D02*
X185503006Y-148840219D01*
X185503006Y-148840219D02*
X185550625Y-149316409D01*
X185550625Y-149316409D02*
X185503006Y-149268790D01*
X185503006Y-149268790D02*
X185407768Y-149221171D01*
X185407768Y-149221171D02*
X185169673Y-149221171D01*
X185169673Y-149221171D02*
X185074435Y-149268790D01*
X185074435Y-149268790D02*
X185026816Y-149316409D01*
X185026816Y-149316409D02*
X184979197Y-149411647D01*
X184979197Y-149411647D02*
X184979197Y-149649742D01*
X184979197Y-149649742D02*
X185026816Y-149744980D01*
X185026816Y-149744980D02*
X185074435Y-149792600D01*
X185074435Y-149792600D02*
X185169673Y-149840219D01*
X185169673Y-149840219D02*
X185407768Y-149840219D01*
X185407768Y-149840219D02*
X185503006Y-149792600D01*
X185503006Y-149792600D02*
X185550625Y-149744980D01*
X184693482Y-148840219D02*
X184360149Y-149840219D01*
X184360149Y-149840219D02*
X184026816Y-148840219D01*
D11*
X220409523Y-119654819D02*
X219742857Y-120654819D01*
X219742857Y-119654819D02*
X220409523Y-120654819D01*
X218933333Y-119988152D02*
X218933333Y-120654819D01*
X219171428Y-119607200D02*
X219409523Y-120321485D01*
X219409523Y-120321485D02*
X218790476Y-120321485D01*
X72204819Y-139453697D02*
X71204819Y-139453697D01*
X72204819Y-139929887D02*
X71204819Y-139929887D01*
X71204819Y-139929887D02*
X72204819Y-140501315D01*
X72204819Y-140501315D02*
X71204819Y-140501315D01*
X71204819Y-140834649D02*
X71204819Y-141406077D01*
X72204819Y-141120363D02*
X71204819Y-141120363D01*
X70414285Y-145654819D02*
X70414285Y-144654819D01*
X70414285Y-144654819D02*
X70033333Y-144654819D01*
X70033333Y-144654819D02*
X69938095Y-144702438D01*
X69938095Y-144702438D02*
X69890476Y-144750057D01*
X69890476Y-144750057D02*
X69842857Y-144845295D01*
X69842857Y-144845295D02*
X69842857Y-144988152D01*
X69842857Y-144988152D02*
X69890476Y-145083390D01*
X69890476Y-145083390D02*
X69938095Y-145131009D01*
X69938095Y-145131009D02*
X70033333Y-145178628D01*
X70033333Y-145178628D02*
X70414285Y-145178628D01*
X68890476Y-145654819D02*
X69461904Y-145654819D01*
X69176190Y-145654819D02*
X69176190Y-144654819D01*
X69176190Y-144654819D02*
X69271428Y-144797676D01*
X69271428Y-144797676D02*
X69366666Y-144892914D01*
X69366666Y-144892914D02*
X69461904Y-144940533D01*
X68557142Y-144654819D02*
X67938095Y-144654819D01*
X67938095Y-144654819D02*
X68271428Y-145035771D01*
X68271428Y-145035771D02*
X68128571Y-145035771D01*
X68128571Y-145035771D02*
X68033333Y-145083390D01*
X68033333Y-145083390D02*
X67985714Y-145131009D01*
X67985714Y-145131009D02*
X67938095Y-145226247D01*
X67938095Y-145226247D02*
X67938095Y-145464342D01*
X67938095Y-145464342D02*
X67985714Y-145559580D01*
X67985714Y-145559580D02*
X68033333Y-145607200D01*
X68033333Y-145607200D02*
X68128571Y-145654819D01*
X68128571Y-145654819D02*
X68414285Y-145654819D01*
X68414285Y-145654819D02*
X68509523Y-145607200D01*
X68509523Y-145607200D02*
X68557142Y-145559580D01*
D10*
X155927219Y-138220802D02*
X155451028Y-137887469D01*
X155927219Y-137649374D02*
X154927219Y-137649374D01*
X154927219Y-137649374D02*
X154927219Y-138030326D01*
X154927219Y-138030326D02*
X154974838Y-138125564D01*
X154974838Y-138125564D02*
X155022457Y-138173183D01*
X155022457Y-138173183D02*
X155117695Y-138220802D01*
X155117695Y-138220802D02*
X155260552Y-138220802D01*
X155260552Y-138220802D02*
X155355790Y-138173183D01*
X155355790Y-138173183D02*
X155403409Y-138125564D01*
X155403409Y-138125564D02*
X155451028Y-138030326D01*
X155451028Y-138030326D02*
X155451028Y-137649374D01*
X154927219Y-138839850D02*
X154927219Y-139030326D01*
X154927219Y-139030326D02*
X154974838Y-139125564D01*
X154974838Y-139125564D02*
X155070076Y-139220802D01*
X155070076Y-139220802D02*
X155260552Y-139268421D01*
X155260552Y-139268421D02*
X155593885Y-139268421D01*
X155593885Y-139268421D02*
X155784361Y-139220802D01*
X155784361Y-139220802D02*
X155879600Y-139125564D01*
X155879600Y-139125564D02*
X155927219Y-139030326D01*
X155927219Y-139030326D02*
X155927219Y-138839850D01*
X155927219Y-138839850D02*
X155879600Y-138744612D01*
X155879600Y-138744612D02*
X155784361Y-138649374D01*
X155784361Y-138649374D02*
X155593885Y-138601755D01*
X155593885Y-138601755D02*
X155260552Y-138601755D01*
X155260552Y-138601755D02*
X155070076Y-138649374D01*
X155070076Y-138649374D02*
X154974838Y-138744612D01*
X154974838Y-138744612D02*
X154927219Y-138839850D01*
X154927219Y-139696993D02*
X155736742Y-139696993D01*
X155736742Y-139696993D02*
X155831980Y-139744612D01*
X155831980Y-139744612D02*
X155879600Y-139792231D01*
X155879600Y-139792231D02*
X155927219Y-139887469D01*
X155927219Y-139887469D02*
X155927219Y-140077945D01*
X155927219Y-140077945D02*
X155879600Y-140173183D01*
X155879600Y-140173183D02*
X155831980Y-140220802D01*
X155831980Y-140220802D02*
X155736742Y-140268421D01*
X155736742Y-140268421D02*
X154927219Y-140268421D01*
X154927219Y-140601755D02*
X154927219Y-141173183D01*
X155927219Y-140887469D02*
X154927219Y-140887469D01*
X186550625Y-146300219D02*
X185931578Y-146300219D01*
X185931578Y-146300219D02*
X186264911Y-146681171D01*
X186264911Y-146681171D02*
X186122054Y-146681171D01*
X186122054Y-146681171D02*
X186026816Y-146728790D01*
X186026816Y-146728790D02*
X185979197Y-146776409D01*
X185979197Y-146776409D02*
X185931578Y-146871647D01*
X185931578Y-146871647D02*
X185931578Y-147109742D01*
X185931578Y-147109742D02*
X185979197Y-147204980D01*
X185979197Y-147204980D02*
X186026816Y-147252600D01*
X186026816Y-147252600D02*
X186122054Y-147300219D01*
X186122054Y-147300219D02*
X186407768Y-147300219D01*
X186407768Y-147300219D02*
X186503006Y-147252600D01*
X186503006Y-147252600D02*
X186550625Y-147204980D01*
X185645863Y-146300219D02*
X185312530Y-147300219D01*
X185312530Y-147300219D02*
X184979197Y-146300219D01*
X184741101Y-146300219D02*
X184122054Y-146300219D01*
X184122054Y-146300219D02*
X184455387Y-146681171D01*
X184455387Y-146681171D02*
X184312530Y-146681171D01*
X184312530Y-146681171D02*
X184217292Y-146728790D01*
X184217292Y-146728790D02*
X184169673Y-146776409D01*
X184169673Y-146776409D02*
X184122054Y-146871647D01*
X184122054Y-146871647D02*
X184122054Y-147109742D01*
X184122054Y-147109742D02*
X184169673Y-147204980D01*
X184169673Y-147204980D02*
X184217292Y-147252600D01*
X184217292Y-147252600D02*
X184312530Y-147300219D01*
X184312530Y-147300219D02*
X184598244Y-147300219D01*
X184598244Y-147300219D02*
X184693482Y-147252600D01*
X184693482Y-147252600D02*
X184741101Y-147204980D01*
D11*
X91755826Y-133054819D02*
X91755826Y-132054819D01*
X91327255Y-132150057D02*
X91279636Y-132102438D01*
X91279636Y-132102438D02*
X91184398Y-132054819D01*
X91184398Y-132054819D02*
X90946303Y-132054819D01*
X90946303Y-132054819D02*
X90851065Y-132102438D01*
X90851065Y-132102438D02*
X90803446Y-132150057D01*
X90803446Y-132150057D02*
X90755827Y-132245295D01*
X90755827Y-132245295D02*
X90755827Y-132340533D01*
X90755827Y-132340533D02*
X90803446Y-132483390D01*
X90803446Y-132483390D02*
X91374874Y-133054819D01*
X91374874Y-133054819D02*
X90755827Y-133054819D01*
X90374874Y-133007200D02*
X90232017Y-133054819D01*
X90232017Y-133054819D02*
X89993922Y-133054819D01*
X89993922Y-133054819D02*
X89898684Y-133007200D01*
X89898684Y-133007200D02*
X89851065Y-132959580D01*
X89851065Y-132959580D02*
X89803446Y-132864342D01*
X89803446Y-132864342D02*
X89803446Y-132769104D01*
X89803446Y-132769104D02*
X89851065Y-132673866D01*
X89851065Y-132673866D02*
X89898684Y-132626247D01*
X89898684Y-132626247D02*
X89993922Y-132578628D01*
X89993922Y-132578628D02*
X90184398Y-132531009D01*
X90184398Y-132531009D02*
X90279636Y-132483390D01*
X90279636Y-132483390D02*
X90327255Y-132435771D01*
X90327255Y-132435771D02*
X90374874Y-132340533D01*
X90374874Y-132340533D02*
X90374874Y-132245295D01*
X90374874Y-132245295D02*
X90327255Y-132150057D01*
X90327255Y-132150057D02*
X90279636Y-132102438D01*
X90279636Y-132102438D02*
X90184398Y-132054819D01*
X90184398Y-132054819D02*
X89946303Y-132054819D01*
X89946303Y-132054819D02*
X89803446Y-132102438D01*
X89612970Y-133150057D02*
X88851065Y-133150057D01*
X88660588Y-133007200D02*
X88517731Y-133054819D01*
X88517731Y-133054819D02*
X88279636Y-133054819D01*
X88279636Y-133054819D02*
X88184398Y-133007200D01*
X88184398Y-133007200D02*
X88136779Y-132959580D01*
X88136779Y-132959580D02*
X88089160Y-132864342D01*
X88089160Y-132864342D02*
X88089160Y-132769104D01*
X88089160Y-132769104D02*
X88136779Y-132673866D01*
X88136779Y-132673866D02*
X88184398Y-132626247D01*
X88184398Y-132626247D02*
X88279636Y-132578628D01*
X88279636Y-132578628D02*
X88470112Y-132531009D01*
X88470112Y-132531009D02*
X88565350Y-132483390D01*
X88565350Y-132483390D02*
X88612969Y-132435771D01*
X88612969Y-132435771D02*
X88660588Y-132340533D01*
X88660588Y-132340533D02*
X88660588Y-132245295D01*
X88660588Y-132245295D02*
X88612969Y-132150057D01*
X88612969Y-132150057D02*
X88565350Y-132102438D01*
X88565350Y-132102438D02*
X88470112Y-132054819D01*
X88470112Y-132054819D02*
X88232017Y-132054819D01*
X88232017Y-132054819D02*
X88089160Y-132102438D01*
X87089160Y-132959580D02*
X87136779Y-133007200D01*
X87136779Y-133007200D02*
X87279636Y-133054819D01*
X87279636Y-133054819D02*
X87374874Y-133054819D01*
X87374874Y-133054819D02*
X87517731Y-133007200D01*
X87517731Y-133007200D02*
X87612969Y-132911961D01*
X87612969Y-132911961D02*
X87660588Y-132816723D01*
X87660588Y-132816723D02*
X87708207Y-132626247D01*
X87708207Y-132626247D02*
X87708207Y-132483390D01*
X87708207Y-132483390D02*
X87660588Y-132292914D01*
X87660588Y-132292914D02*
X87612969Y-132197676D01*
X87612969Y-132197676D02*
X87517731Y-132102438D01*
X87517731Y-132102438D02*
X87374874Y-132054819D01*
X87374874Y-132054819D02*
X87279636Y-132054819D01*
X87279636Y-132054819D02*
X87136779Y-132102438D01*
X87136779Y-132102438D02*
X87089160Y-132150057D01*
X86660588Y-133054819D02*
X86660588Y-132054819D01*
X86089160Y-133054819D02*
X86517731Y-132483390D01*
X86089160Y-132054819D02*
X86660588Y-132626247D01*
X79854819Y-136834649D02*
X78854819Y-136834649D01*
X78854819Y-136834649D02*
X79569104Y-137167982D01*
X79569104Y-137167982D02*
X78854819Y-137501315D01*
X78854819Y-137501315D02*
X79854819Y-137501315D01*
X78854819Y-137977506D02*
X79664342Y-137977506D01*
X79664342Y-137977506D02*
X79759580Y-138025125D01*
X79759580Y-138025125D02*
X79807200Y-138072744D01*
X79807200Y-138072744D02*
X79854819Y-138167982D01*
X79854819Y-138167982D02*
X79854819Y-138358458D01*
X79854819Y-138358458D02*
X79807200Y-138453696D01*
X79807200Y-138453696D02*
X79759580Y-138501315D01*
X79759580Y-138501315D02*
X79664342Y-138548934D01*
X79664342Y-138548934D02*
X78854819Y-138548934D01*
X78854819Y-138929887D02*
X79854819Y-139596553D01*
X78854819Y-139596553D02*
X79854819Y-138929887D01*
X79950057Y-139739411D02*
X79950057Y-140501315D01*
X79331009Y-141072744D02*
X79378628Y-141215601D01*
X79378628Y-141215601D02*
X79426247Y-141263220D01*
X79426247Y-141263220D02*
X79521485Y-141310839D01*
X79521485Y-141310839D02*
X79664342Y-141310839D01*
X79664342Y-141310839D02*
X79759580Y-141263220D01*
X79759580Y-141263220D02*
X79807200Y-141215601D01*
X79807200Y-141215601D02*
X79854819Y-141120363D01*
X79854819Y-141120363D02*
X79854819Y-140739411D01*
X79854819Y-140739411D02*
X78854819Y-140739411D01*
X78854819Y-140739411D02*
X78854819Y-141072744D01*
X78854819Y-141072744D02*
X78902438Y-141167982D01*
X78902438Y-141167982D02*
X78950057Y-141215601D01*
X78950057Y-141215601D02*
X79045295Y-141263220D01*
X79045295Y-141263220D02*
X79140533Y-141263220D01*
X79140533Y-141263220D02*
X79235771Y-141215601D01*
X79235771Y-141215601D02*
X79283390Y-141167982D01*
X79283390Y-141167982D02*
X79331009Y-141072744D01*
X79331009Y-141072744D02*
X79331009Y-140739411D01*
X130459523Y-119654819D02*
X129792857Y-120654819D01*
X129792857Y-119654819D02*
X130459523Y-120654819D01*
X128888095Y-120654819D02*
X129459523Y-120654819D01*
X129173809Y-120654819D02*
X129173809Y-119654819D01*
X129173809Y-119654819D02*
X129269047Y-119797676D01*
X129269047Y-119797676D02*
X129364285Y-119892914D01*
X129364285Y-119892914D02*
X129459523Y-119940533D01*
X91803445Y-128054819D02*
X91803445Y-127054819D01*
X91374874Y-127150057D02*
X91327255Y-127102438D01*
X91327255Y-127102438D02*
X91232017Y-127054819D01*
X91232017Y-127054819D02*
X90993922Y-127054819D01*
X90993922Y-127054819D02*
X90898684Y-127102438D01*
X90898684Y-127102438D02*
X90851065Y-127150057D01*
X90851065Y-127150057D02*
X90803446Y-127245295D01*
X90803446Y-127245295D02*
X90803446Y-127340533D01*
X90803446Y-127340533D02*
X90851065Y-127483390D01*
X90851065Y-127483390D02*
X91422493Y-128054819D01*
X91422493Y-128054819D02*
X90803446Y-128054819D01*
X90422493Y-128007200D02*
X90279636Y-128054819D01*
X90279636Y-128054819D02*
X90041541Y-128054819D01*
X90041541Y-128054819D02*
X89946303Y-128007200D01*
X89946303Y-128007200D02*
X89898684Y-127959580D01*
X89898684Y-127959580D02*
X89851065Y-127864342D01*
X89851065Y-127864342D02*
X89851065Y-127769104D01*
X89851065Y-127769104D02*
X89898684Y-127673866D01*
X89898684Y-127673866D02*
X89946303Y-127626247D01*
X89946303Y-127626247D02*
X90041541Y-127578628D01*
X90041541Y-127578628D02*
X90232017Y-127531009D01*
X90232017Y-127531009D02*
X90327255Y-127483390D01*
X90327255Y-127483390D02*
X90374874Y-127435771D01*
X90374874Y-127435771D02*
X90422493Y-127340533D01*
X90422493Y-127340533D02*
X90422493Y-127245295D01*
X90422493Y-127245295D02*
X90374874Y-127150057D01*
X90374874Y-127150057D02*
X90327255Y-127102438D01*
X90327255Y-127102438D02*
X90232017Y-127054819D01*
X90232017Y-127054819D02*
X89993922Y-127054819D01*
X89993922Y-127054819D02*
X89851065Y-127102438D01*
X89660589Y-128150057D02*
X88898684Y-128150057D01*
X88327255Y-127531009D02*
X88184398Y-127578628D01*
X88184398Y-127578628D02*
X88136779Y-127626247D01*
X88136779Y-127626247D02*
X88089160Y-127721485D01*
X88089160Y-127721485D02*
X88089160Y-127864342D01*
X88089160Y-127864342D02*
X88136779Y-127959580D01*
X88136779Y-127959580D02*
X88184398Y-128007200D01*
X88184398Y-128007200D02*
X88279636Y-128054819D01*
X88279636Y-128054819D02*
X88660588Y-128054819D01*
X88660588Y-128054819D02*
X88660588Y-127054819D01*
X88660588Y-127054819D02*
X88327255Y-127054819D01*
X88327255Y-127054819D02*
X88232017Y-127102438D01*
X88232017Y-127102438D02*
X88184398Y-127150057D01*
X88184398Y-127150057D02*
X88136779Y-127245295D01*
X88136779Y-127245295D02*
X88136779Y-127340533D01*
X88136779Y-127340533D02*
X88184398Y-127435771D01*
X88184398Y-127435771D02*
X88232017Y-127483390D01*
X88232017Y-127483390D02*
X88327255Y-127531009D01*
X88327255Y-127531009D02*
X88660588Y-127531009D01*
X87089160Y-127959580D02*
X87136779Y-128007200D01*
X87136779Y-128007200D02*
X87279636Y-128054819D01*
X87279636Y-128054819D02*
X87374874Y-128054819D01*
X87374874Y-128054819D02*
X87517731Y-128007200D01*
X87517731Y-128007200D02*
X87612969Y-127911961D01*
X87612969Y-127911961D02*
X87660588Y-127816723D01*
X87660588Y-127816723D02*
X87708207Y-127626247D01*
X87708207Y-127626247D02*
X87708207Y-127483390D01*
X87708207Y-127483390D02*
X87660588Y-127292914D01*
X87660588Y-127292914D02*
X87612969Y-127197676D01*
X87612969Y-127197676D02*
X87517731Y-127102438D01*
X87517731Y-127102438D02*
X87374874Y-127054819D01*
X87374874Y-127054819D02*
X87279636Y-127054819D01*
X87279636Y-127054819D02*
X87136779Y-127102438D01*
X87136779Y-127102438D02*
X87089160Y-127150057D01*
X86660588Y-128054819D02*
X86660588Y-127054819D01*
X86089160Y-128054819D02*
X86517731Y-127483390D01*
X86089160Y-127054819D02*
X86660588Y-127626247D01*
X113564285Y-153104819D02*
X113564285Y-152104819D01*
X113564285Y-152104819D02*
X113183333Y-152104819D01*
X113183333Y-152104819D02*
X113088095Y-152152438D01*
X113088095Y-152152438D02*
X113040476Y-152200057D01*
X113040476Y-152200057D02*
X112992857Y-152295295D01*
X112992857Y-152295295D02*
X112992857Y-152438152D01*
X112992857Y-152438152D02*
X113040476Y-152533390D01*
X113040476Y-152533390D02*
X113088095Y-152581009D01*
X113088095Y-152581009D02*
X113183333Y-152628628D01*
X113183333Y-152628628D02*
X113564285Y-152628628D01*
X112373809Y-152104819D02*
X112278571Y-152104819D01*
X112278571Y-152104819D02*
X112183333Y-152152438D01*
X112183333Y-152152438D02*
X112135714Y-152200057D01*
X112135714Y-152200057D02*
X112088095Y-152295295D01*
X112088095Y-152295295D02*
X112040476Y-152485771D01*
X112040476Y-152485771D02*
X112040476Y-152723866D01*
X112040476Y-152723866D02*
X112088095Y-152914342D01*
X112088095Y-152914342D02*
X112135714Y-153009580D01*
X112135714Y-153009580D02*
X112183333Y-153057200D01*
X112183333Y-153057200D02*
X112278571Y-153104819D01*
X112278571Y-153104819D02*
X112373809Y-153104819D01*
X112373809Y-153104819D02*
X112469047Y-153057200D01*
X112469047Y-153057200D02*
X112516666Y-153009580D01*
X112516666Y-153009580D02*
X112564285Y-152914342D01*
X112564285Y-152914342D02*
X112611904Y-152723866D01*
X112611904Y-152723866D02*
X112611904Y-152485771D01*
X112611904Y-152485771D02*
X112564285Y-152295295D01*
X112564285Y-152295295D02*
X112516666Y-152200057D01*
X112516666Y-152200057D02*
X112469047Y-152152438D01*
X112469047Y-152152438D02*
X112373809Y-152104819D01*
X111659523Y-152200057D02*
X111611904Y-152152438D01*
X111611904Y-152152438D02*
X111516666Y-152104819D01*
X111516666Y-152104819D02*
X111278571Y-152104819D01*
X111278571Y-152104819D02*
X111183333Y-152152438D01*
X111183333Y-152152438D02*
X111135714Y-152200057D01*
X111135714Y-152200057D02*
X111088095Y-152295295D01*
X111088095Y-152295295D02*
X111088095Y-152390533D01*
X111088095Y-152390533D02*
X111135714Y-152533390D01*
X111135714Y-152533390D02*
X111707142Y-153104819D01*
X111707142Y-153104819D02*
X111088095Y-153104819D01*
X99854819Y-31751666D02*
X100569104Y-31751666D01*
X100569104Y-31751666D02*
X100711961Y-31704047D01*
X100711961Y-31704047D02*
X100807200Y-31608809D01*
X100807200Y-31608809D02*
X100854819Y-31465952D01*
X100854819Y-31465952D02*
X100854819Y-31370714D01*
X99854819Y-32132619D02*
X99854819Y-32751666D01*
X99854819Y-32751666D02*
X100235771Y-32418333D01*
X100235771Y-32418333D02*
X100235771Y-32561190D01*
X100235771Y-32561190D02*
X100283390Y-32656428D01*
X100283390Y-32656428D02*
X100331009Y-32704047D01*
X100331009Y-32704047D02*
X100426247Y-32751666D01*
X100426247Y-32751666D02*
X100664342Y-32751666D01*
X100664342Y-32751666D02*
X100759580Y-32704047D01*
X100759580Y-32704047D02*
X100807200Y-32656428D01*
X100807200Y-32656428D02*
X100854819Y-32561190D01*
X100854819Y-32561190D02*
X100854819Y-32275476D01*
X100854819Y-32275476D02*
X100807200Y-32180238D01*
X100807200Y-32180238D02*
X100759580Y-32132619D01*
X141098069Y-79556905D02*
X140098069Y-79556905D01*
X140098069Y-79556905D02*
X140098069Y-79795000D01*
X140098069Y-79795000D02*
X140145688Y-79937857D01*
X140145688Y-79937857D02*
X140240926Y-80033095D01*
X140240926Y-80033095D02*
X140336164Y-80080714D01*
X140336164Y-80080714D02*
X140526640Y-80128333D01*
X140526640Y-80128333D02*
X140669497Y-80128333D01*
X140669497Y-80128333D02*
X140859973Y-80080714D01*
X140859973Y-80080714D02*
X140955211Y-80033095D01*
X140955211Y-80033095D02*
X141050450Y-79937857D01*
X141050450Y-79937857D02*
X141098069Y-79795000D01*
X141098069Y-79795000D02*
X141098069Y-79556905D01*
X140526640Y-80699762D02*
X140479021Y-80604524D01*
X140479021Y-80604524D02*
X140431402Y-80556905D01*
X140431402Y-80556905D02*
X140336164Y-80509286D01*
X140336164Y-80509286D02*
X140288545Y-80509286D01*
X140288545Y-80509286D02*
X140193307Y-80556905D01*
X140193307Y-80556905D02*
X140145688Y-80604524D01*
X140145688Y-80604524D02*
X140098069Y-80699762D01*
X140098069Y-80699762D02*
X140098069Y-80890238D01*
X140098069Y-80890238D02*
X140145688Y-80985476D01*
X140145688Y-80985476D02*
X140193307Y-81033095D01*
X140193307Y-81033095D02*
X140288545Y-81080714D01*
X140288545Y-81080714D02*
X140336164Y-81080714D01*
X140336164Y-81080714D02*
X140431402Y-81033095D01*
X140431402Y-81033095D02*
X140479021Y-80985476D01*
X140479021Y-80985476D02*
X140526640Y-80890238D01*
X140526640Y-80890238D02*
X140526640Y-80699762D01*
X140526640Y-80699762D02*
X140574259Y-80604524D01*
X140574259Y-80604524D02*
X140621878Y-80556905D01*
X140621878Y-80556905D02*
X140717116Y-80509286D01*
X140717116Y-80509286D02*
X140907592Y-80509286D01*
X140907592Y-80509286D02*
X141002830Y-80556905D01*
X141002830Y-80556905D02*
X141050450Y-80604524D01*
X141050450Y-80604524D02*
X141098069Y-80699762D01*
X141098069Y-80699762D02*
X141098069Y-80890238D01*
X141098069Y-80890238D02*
X141050450Y-80985476D01*
X141050450Y-80985476D02*
X141002830Y-81033095D01*
X141002830Y-81033095D02*
X140907592Y-81080714D01*
X140907592Y-81080714D02*
X140717116Y-81080714D01*
X140717116Y-81080714D02*
X140621878Y-81033095D01*
X140621878Y-81033095D02*
X140574259Y-80985476D01*
X140574259Y-80985476D02*
X140526640Y-80890238D01*
X120042857Y-48759580D02*
X120090476Y-48807200D01*
X120090476Y-48807200D02*
X120233333Y-48854819D01*
X120233333Y-48854819D02*
X120328571Y-48854819D01*
X120328571Y-48854819D02*
X120471428Y-48807200D01*
X120471428Y-48807200D02*
X120566666Y-48711961D01*
X120566666Y-48711961D02*
X120614285Y-48616723D01*
X120614285Y-48616723D02*
X120661904Y-48426247D01*
X120661904Y-48426247D02*
X120661904Y-48283390D01*
X120661904Y-48283390D02*
X120614285Y-48092914D01*
X120614285Y-48092914D02*
X120566666Y-47997676D01*
X120566666Y-47997676D02*
X120471428Y-47902438D01*
X120471428Y-47902438D02*
X120328571Y-47854819D01*
X120328571Y-47854819D02*
X120233333Y-47854819D01*
X120233333Y-47854819D02*
X120090476Y-47902438D01*
X120090476Y-47902438D02*
X120042857Y-47950057D01*
X119709523Y-47854819D02*
X119090476Y-47854819D01*
X119090476Y-47854819D02*
X119423809Y-48235771D01*
X119423809Y-48235771D02*
X119280952Y-48235771D01*
X119280952Y-48235771D02*
X119185714Y-48283390D01*
X119185714Y-48283390D02*
X119138095Y-48331009D01*
X119138095Y-48331009D02*
X119090476Y-48426247D01*
X119090476Y-48426247D02*
X119090476Y-48664342D01*
X119090476Y-48664342D02*
X119138095Y-48759580D01*
X119138095Y-48759580D02*
X119185714Y-48807200D01*
X119185714Y-48807200D02*
X119280952Y-48854819D01*
X119280952Y-48854819D02*
X119566666Y-48854819D01*
X119566666Y-48854819D02*
X119661904Y-48807200D01*
X119661904Y-48807200D02*
X119709523Y-48759580D01*
X118709523Y-47950057D02*
X118661904Y-47902438D01*
X118661904Y-47902438D02*
X118566666Y-47854819D01*
X118566666Y-47854819D02*
X118328571Y-47854819D01*
X118328571Y-47854819D02*
X118233333Y-47902438D01*
X118233333Y-47902438D02*
X118185714Y-47950057D01*
X118185714Y-47950057D02*
X118138095Y-48045295D01*
X118138095Y-48045295D02*
X118138095Y-48140533D01*
X118138095Y-48140533D02*
X118185714Y-48283390D01*
X118185714Y-48283390D02*
X118757142Y-48854819D01*
X118757142Y-48854819D02*
X118138095Y-48854819D01*
X174854819Y-31275476D02*
X175569104Y-31275476D01*
X175569104Y-31275476D02*
X175711961Y-31227857D01*
X175711961Y-31227857D02*
X175807200Y-31132619D01*
X175807200Y-31132619D02*
X175854819Y-30989762D01*
X175854819Y-30989762D02*
X175854819Y-30894524D01*
X175854819Y-32275476D02*
X175854819Y-31704048D01*
X175854819Y-31989762D02*
X174854819Y-31989762D01*
X174854819Y-31989762D02*
X174997676Y-31894524D01*
X174997676Y-31894524D02*
X175092914Y-31799286D01*
X175092914Y-31799286D02*
X175140533Y-31704048D01*
X174950057Y-32656429D02*
X174902438Y-32704048D01*
X174902438Y-32704048D02*
X174854819Y-32799286D01*
X174854819Y-32799286D02*
X174854819Y-33037381D01*
X174854819Y-33037381D02*
X174902438Y-33132619D01*
X174902438Y-33132619D02*
X174950057Y-33180238D01*
X174950057Y-33180238D02*
X175045295Y-33227857D01*
X175045295Y-33227857D02*
X175140533Y-33227857D01*
X175140533Y-33227857D02*
X175283390Y-33180238D01*
X175283390Y-33180238D02*
X175854819Y-32608810D01*
X175854819Y-32608810D02*
X175854819Y-33227857D01*
X139854819Y-31275476D02*
X140569104Y-31275476D01*
X140569104Y-31275476D02*
X140711961Y-31227857D01*
X140711961Y-31227857D02*
X140807200Y-31132619D01*
X140807200Y-31132619D02*
X140854819Y-30989762D01*
X140854819Y-30989762D02*
X140854819Y-30894524D01*
X140854819Y-32275476D02*
X140854819Y-31704048D01*
X140854819Y-31989762D02*
X139854819Y-31989762D01*
X139854819Y-31989762D02*
X139997676Y-31894524D01*
X139997676Y-31894524D02*
X140092914Y-31799286D01*
X140092914Y-31799286D02*
X140140533Y-31704048D01*
X140854819Y-33227857D02*
X140854819Y-32656429D01*
X140854819Y-32942143D02*
X139854819Y-32942143D01*
X139854819Y-32942143D02*
X139997676Y-32846905D01*
X139997676Y-32846905D02*
X140092914Y-32751667D01*
X140092914Y-32751667D02*
X140140533Y-32656429D01*
X197221319Y-80544761D02*
X196745128Y-80211428D01*
X197221319Y-79973333D02*
X196221319Y-79973333D01*
X196221319Y-79973333D02*
X196221319Y-80354285D01*
X196221319Y-80354285D02*
X196268938Y-80449523D01*
X196268938Y-80449523D02*
X196316557Y-80497142D01*
X196316557Y-80497142D02*
X196411795Y-80544761D01*
X196411795Y-80544761D02*
X196554652Y-80544761D01*
X196554652Y-80544761D02*
X196649890Y-80497142D01*
X196649890Y-80497142D02*
X196697509Y-80449523D01*
X196697509Y-80449523D02*
X196745128Y-80354285D01*
X196745128Y-80354285D02*
X196745128Y-79973333D01*
X196221319Y-80830476D02*
X197221319Y-81163809D01*
X197221319Y-81163809D02*
X196221319Y-81497142D01*
X196221319Y-82259047D02*
X196221319Y-82068571D01*
X196221319Y-82068571D02*
X196268938Y-81973333D01*
X196268938Y-81973333D02*
X196316557Y-81925714D01*
X196316557Y-81925714D02*
X196459414Y-81830476D01*
X196459414Y-81830476D02*
X196649890Y-81782857D01*
X196649890Y-81782857D02*
X197030842Y-81782857D01*
X197030842Y-81782857D02*
X197126080Y-81830476D01*
X197126080Y-81830476D02*
X197173700Y-81878095D01*
X197173700Y-81878095D02*
X197221319Y-81973333D01*
X197221319Y-81973333D02*
X197221319Y-82163809D01*
X197221319Y-82163809D02*
X197173700Y-82259047D01*
X197173700Y-82259047D02*
X197126080Y-82306666D01*
X197126080Y-82306666D02*
X197030842Y-82354285D01*
X197030842Y-82354285D02*
X196792747Y-82354285D01*
X196792747Y-82354285D02*
X196697509Y-82306666D01*
X196697509Y-82306666D02*
X196649890Y-82259047D01*
X196649890Y-82259047D02*
X196602271Y-82163809D01*
X196602271Y-82163809D02*
X196602271Y-81973333D01*
X196602271Y-81973333D02*
X196649890Y-81878095D01*
X196649890Y-81878095D02*
X196697509Y-81830476D01*
X196697509Y-81830476D02*
X196792747Y-81782857D01*
X77221319Y-110494761D02*
X76745128Y-110161428D01*
X77221319Y-109923333D02*
X76221319Y-109923333D01*
X76221319Y-109923333D02*
X76221319Y-110304285D01*
X76221319Y-110304285D02*
X76268938Y-110399523D01*
X76268938Y-110399523D02*
X76316557Y-110447142D01*
X76316557Y-110447142D02*
X76411795Y-110494761D01*
X76411795Y-110494761D02*
X76554652Y-110494761D01*
X76554652Y-110494761D02*
X76649890Y-110447142D01*
X76649890Y-110447142D02*
X76697509Y-110399523D01*
X76697509Y-110399523D02*
X76745128Y-110304285D01*
X76745128Y-110304285D02*
X76745128Y-109923333D01*
X76221319Y-110780476D02*
X77221319Y-111113809D01*
X77221319Y-111113809D02*
X76221319Y-111447142D01*
X76221319Y-111685238D02*
X76221319Y-112351904D01*
X76221319Y-112351904D02*
X77221319Y-111923333D01*
X119854819Y-31275476D02*
X120569104Y-31275476D01*
X120569104Y-31275476D02*
X120711961Y-31227857D01*
X120711961Y-31227857D02*
X120807200Y-31132619D01*
X120807200Y-31132619D02*
X120854819Y-30989762D01*
X120854819Y-30989762D02*
X120854819Y-30894524D01*
X120854819Y-32275476D02*
X120854819Y-31704048D01*
X120854819Y-31989762D02*
X119854819Y-31989762D01*
X119854819Y-31989762D02*
X119997676Y-31894524D01*
X119997676Y-31894524D02*
X120092914Y-31799286D01*
X120092914Y-31799286D02*
X120140533Y-31704048D01*
X119854819Y-32894524D02*
X119854819Y-32989762D01*
X119854819Y-32989762D02*
X119902438Y-33085000D01*
X119902438Y-33085000D02*
X119950057Y-33132619D01*
X119950057Y-33132619D02*
X120045295Y-33180238D01*
X120045295Y-33180238D02*
X120235771Y-33227857D01*
X120235771Y-33227857D02*
X120473866Y-33227857D01*
X120473866Y-33227857D02*
X120664342Y-33180238D01*
X120664342Y-33180238D02*
X120759580Y-33132619D01*
X120759580Y-33132619D02*
X120807200Y-33085000D01*
X120807200Y-33085000D02*
X120854819Y-32989762D01*
X120854819Y-32989762D02*
X120854819Y-32894524D01*
X120854819Y-32894524D02*
X120807200Y-32799286D01*
X120807200Y-32799286D02*
X120759580Y-32751667D01*
X120759580Y-32751667D02*
X120664342Y-32704048D01*
X120664342Y-32704048D02*
X120473866Y-32656429D01*
X120473866Y-32656429D02*
X120235771Y-32656429D01*
X120235771Y-32656429D02*
X120045295Y-32704048D01*
X120045295Y-32704048D02*
X119950057Y-32751667D01*
X119950057Y-32751667D02*
X119902438Y-32799286D01*
X119902438Y-32799286D02*
X119854819Y-32894524D01*
X127242857Y-49104819D02*
X127576190Y-48628628D01*
X127814285Y-49104819D02*
X127814285Y-48104819D01*
X127814285Y-48104819D02*
X127433333Y-48104819D01*
X127433333Y-48104819D02*
X127338095Y-48152438D01*
X127338095Y-48152438D02*
X127290476Y-48200057D01*
X127290476Y-48200057D02*
X127242857Y-48295295D01*
X127242857Y-48295295D02*
X127242857Y-48438152D01*
X127242857Y-48438152D02*
X127290476Y-48533390D01*
X127290476Y-48533390D02*
X127338095Y-48581009D01*
X127338095Y-48581009D02*
X127433333Y-48628628D01*
X127433333Y-48628628D02*
X127814285Y-48628628D01*
X126290476Y-49104819D02*
X126861904Y-49104819D01*
X126576190Y-49104819D02*
X126576190Y-48104819D01*
X126576190Y-48104819D02*
X126671428Y-48247676D01*
X126671428Y-48247676D02*
X126766666Y-48342914D01*
X126766666Y-48342914D02*
X126861904Y-48390533D01*
X125433333Y-48104819D02*
X125623809Y-48104819D01*
X125623809Y-48104819D02*
X125719047Y-48152438D01*
X125719047Y-48152438D02*
X125766666Y-48200057D01*
X125766666Y-48200057D02*
X125861904Y-48342914D01*
X125861904Y-48342914D02*
X125909523Y-48533390D01*
X125909523Y-48533390D02*
X125909523Y-48914342D01*
X125909523Y-48914342D02*
X125861904Y-49009580D01*
X125861904Y-49009580D02*
X125814285Y-49057200D01*
X125814285Y-49057200D02*
X125719047Y-49104819D01*
X125719047Y-49104819D02*
X125528571Y-49104819D01*
X125528571Y-49104819D02*
X125433333Y-49057200D01*
X125433333Y-49057200D02*
X125385714Y-49009580D01*
X125385714Y-49009580D02*
X125338095Y-48914342D01*
X125338095Y-48914342D02*
X125338095Y-48676247D01*
X125338095Y-48676247D02*
X125385714Y-48581009D01*
X125385714Y-48581009D02*
X125433333Y-48533390D01*
X125433333Y-48533390D02*
X125528571Y-48485771D01*
X125528571Y-48485771D02*
X125719047Y-48485771D01*
X125719047Y-48485771D02*
X125814285Y-48533390D01*
X125814285Y-48533390D02*
X125861904Y-48581009D01*
X125861904Y-48581009D02*
X125909523Y-48676247D01*
X227221319Y-110494761D02*
X226745128Y-110161428D01*
X227221319Y-109923333D02*
X226221319Y-109923333D01*
X226221319Y-109923333D02*
X226221319Y-110304285D01*
X226221319Y-110304285D02*
X226268938Y-110399523D01*
X226268938Y-110399523D02*
X226316557Y-110447142D01*
X226316557Y-110447142D02*
X226411795Y-110494761D01*
X226411795Y-110494761D02*
X226554652Y-110494761D01*
X226554652Y-110494761D02*
X226649890Y-110447142D01*
X226649890Y-110447142D02*
X226697509Y-110399523D01*
X226697509Y-110399523D02*
X226745128Y-110304285D01*
X226745128Y-110304285D02*
X226745128Y-109923333D01*
X226221319Y-110780476D02*
X227221319Y-111113809D01*
X227221319Y-111113809D02*
X226221319Y-111447142D01*
X227221319Y-112304285D02*
X227221319Y-111732857D01*
X227221319Y-112018571D02*
X226221319Y-112018571D01*
X226221319Y-112018571D02*
X226364176Y-111923333D01*
X226364176Y-111923333D02*
X226459414Y-111828095D01*
X226459414Y-111828095D02*
X226507033Y-111732857D01*
X79854819Y-31751666D02*
X80569104Y-31751666D01*
X80569104Y-31751666D02*
X80711961Y-31704047D01*
X80711961Y-31704047D02*
X80807200Y-31608809D01*
X80807200Y-31608809D02*
X80854819Y-31465952D01*
X80854819Y-31465952D02*
X80854819Y-31370714D01*
X79950057Y-32180238D02*
X79902438Y-32227857D01*
X79902438Y-32227857D02*
X79854819Y-32323095D01*
X79854819Y-32323095D02*
X79854819Y-32561190D01*
X79854819Y-32561190D02*
X79902438Y-32656428D01*
X79902438Y-32656428D02*
X79950057Y-32704047D01*
X79950057Y-32704047D02*
X80045295Y-32751666D01*
X80045295Y-32751666D02*
X80140533Y-32751666D01*
X80140533Y-32751666D02*
X80283390Y-32704047D01*
X80283390Y-32704047D02*
X80854819Y-32132619D01*
X80854819Y-32132619D02*
X80854819Y-32751666D01*
X141764819Y-32292142D02*
X141288628Y-31958809D01*
X141764819Y-31720714D02*
X140764819Y-31720714D01*
X140764819Y-31720714D02*
X140764819Y-32101666D01*
X140764819Y-32101666D02*
X140812438Y-32196904D01*
X140812438Y-32196904D02*
X140860057Y-32244523D01*
X140860057Y-32244523D02*
X140955295Y-32292142D01*
X140955295Y-32292142D02*
X141098152Y-32292142D01*
X141098152Y-32292142D02*
X141193390Y-32244523D01*
X141193390Y-32244523D02*
X141241009Y-32196904D01*
X141241009Y-32196904D02*
X141288628Y-32101666D01*
X141288628Y-32101666D02*
X141288628Y-31720714D01*
X141764819Y-33244523D02*
X141764819Y-32673095D01*
X141764819Y-32958809D02*
X140764819Y-32958809D01*
X140764819Y-32958809D02*
X140907676Y-32863571D01*
X140907676Y-32863571D02*
X141002914Y-32768333D01*
X141002914Y-32768333D02*
X141050533Y-32673095D01*
X141193390Y-33815952D02*
X141145771Y-33720714D01*
X141145771Y-33720714D02*
X141098152Y-33673095D01*
X141098152Y-33673095D02*
X141002914Y-33625476D01*
X141002914Y-33625476D02*
X140955295Y-33625476D01*
X140955295Y-33625476D02*
X140860057Y-33673095D01*
X140860057Y-33673095D02*
X140812438Y-33720714D01*
X140812438Y-33720714D02*
X140764819Y-33815952D01*
X140764819Y-33815952D02*
X140764819Y-34006428D01*
X140764819Y-34006428D02*
X140812438Y-34101666D01*
X140812438Y-34101666D02*
X140860057Y-34149285D01*
X140860057Y-34149285D02*
X140955295Y-34196904D01*
X140955295Y-34196904D02*
X141002914Y-34196904D01*
X141002914Y-34196904D02*
X141098152Y-34149285D01*
X141098152Y-34149285D02*
X141145771Y-34101666D01*
X141145771Y-34101666D02*
X141193390Y-34006428D01*
X141193390Y-34006428D02*
X141193390Y-33815952D01*
X141193390Y-33815952D02*
X141241009Y-33720714D01*
X141241009Y-33720714D02*
X141288628Y-33673095D01*
X141288628Y-33673095D02*
X141383866Y-33625476D01*
X141383866Y-33625476D02*
X141574342Y-33625476D01*
X141574342Y-33625476D02*
X141669580Y-33673095D01*
X141669580Y-33673095D02*
X141717200Y-33720714D01*
X141717200Y-33720714D02*
X141764819Y-33815952D01*
X141764819Y-33815952D02*
X141764819Y-34006428D01*
X141764819Y-34006428D02*
X141717200Y-34101666D01*
X141717200Y-34101666D02*
X141669580Y-34149285D01*
X141669580Y-34149285D02*
X141574342Y-34196904D01*
X141574342Y-34196904D02*
X141383866Y-34196904D01*
X141383866Y-34196904D02*
X141288628Y-34149285D01*
X141288628Y-34149285D02*
X141241009Y-34101666D01*
X141241009Y-34101666D02*
X141193390Y-34006428D01*
X147564819Y-46292142D02*
X147088628Y-45958809D01*
X147564819Y-45720714D02*
X146564819Y-45720714D01*
X146564819Y-45720714D02*
X146564819Y-46101666D01*
X146564819Y-46101666D02*
X146612438Y-46196904D01*
X146612438Y-46196904D02*
X146660057Y-46244523D01*
X146660057Y-46244523D02*
X146755295Y-46292142D01*
X146755295Y-46292142D02*
X146898152Y-46292142D01*
X146898152Y-46292142D02*
X146993390Y-46244523D01*
X146993390Y-46244523D02*
X147041009Y-46196904D01*
X147041009Y-46196904D02*
X147088628Y-46101666D01*
X147088628Y-46101666D02*
X147088628Y-45720714D01*
X147564819Y-47244523D02*
X147564819Y-46673095D01*
X147564819Y-46958809D02*
X146564819Y-46958809D01*
X146564819Y-46958809D02*
X146707676Y-46863571D01*
X146707676Y-46863571D02*
X146802914Y-46768333D01*
X146802914Y-46768333D02*
X146850533Y-46673095D01*
X146564819Y-48149285D02*
X146564819Y-47673095D01*
X146564819Y-47673095D02*
X147041009Y-47625476D01*
X147041009Y-47625476D02*
X146993390Y-47673095D01*
X146993390Y-47673095D02*
X146945771Y-47768333D01*
X146945771Y-47768333D02*
X146945771Y-48006428D01*
X146945771Y-48006428D02*
X146993390Y-48101666D01*
X146993390Y-48101666D02*
X147041009Y-48149285D01*
X147041009Y-48149285D02*
X147136247Y-48196904D01*
X147136247Y-48196904D02*
X147374342Y-48196904D01*
X147374342Y-48196904D02*
X147469580Y-48149285D01*
X147469580Y-48149285D02*
X147517200Y-48101666D01*
X147517200Y-48101666D02*
X147564819Y-48006428D01*
X147564819Y-48006428D02*
X147564819Y-47768333D01*
X147564819Y-47768333D02*
X147517200Y-47673095D01*
X147517200Y-47673095D02*
X147469580Y-47625476D01*
X197221319Y-110494761D02*
X196745128Y-110161428D01*
X197221319Y-109923333D02*
X196221319Y-109923333D01*
X196221319Y-109923333D02*
X196221319Y-110304285D01*
X196221319Y-110304285D02*
X196268938Y-110399523D01*
X196268938Y-110399523D02*
X196316557Y-110447142D01*
X196316557Y-110447142D02*
X196411795Y-110494761D01*
X196411795Y-110494761D02*
X196554652Y-110494761D01*
X196554652Y-110494761D02*
X196649890Y-110447142D01*
X196649890Y-110447142D02*
X196697509Y-110399523D01*
X196697509Y-110399523D02*
X196745128Y-110304285D01*
X196745128Y-110304285D02*
X196745128Y-109923333D01*
X196221319Y-110780476D02*
X197221319Y-111113809D01*
X197221319Y-111113809D02*
X196221319Y-111447142D01*
X196316557Y-111732857D02*
X196268938Y-111780476D01*
X196268938Y-111780476D02*
X196221319Y-111875714D01*
X196221319Y-111875714D02*
X196221319Y-112113809D01*
X196221319Y-112113809D02*
X196268938Y-112209047D01*
X196268938Y-112209047D02*
X196316557Y-112256666D01*
X196316557Y-112256666D02*
X196411795Y-112304285D01*
X196411795Y-112304285D02*
X196507033Y-112304285D01*
X196507033Y-112304285D02*
X196649890Y-112256666D01*
X196649890Y-112256666D02*
X197221319Y-111685238D01*
X197221319Y-111685238D02*
X197221319Y-112304285D01*
X100042857Y-48759580D02*
X100090476Y-48807200D01*
X100090476Y-48807200D02*
X100233333Y-48854819D01*
X100233333Y-48854819D02*
X100328571Y-48854819D01*
X100328571Y-48854819D02*
X100471428Y-48807200D01*
X100471428Y-48807200D02*
X100566666Y-48711961D01*
X100566666Y-48711961D02*
X100614285Y-48616723D01*
X100614285Y-48616723D02*
X100661904Y-48426247D01*
X100661904Y-48426247D02*
X100661904Y-48283390D01*
X100661904Y-48283390D02*
X100614285Y-48092914D01*
X100614285Y-48092914D02*
X100566666Y-47997676D01*
X100566666Y-47997676D02*
X100471428Y-47902438D01*
X100471428Y-47902438D02*
X100328571Y-47854819D01*
X100328571Y-47854819D02*
X100233333Y-47854819D01*
X100233333Y-47854819D02*
X100090476Y-47902438D01*
X100090476Y-47902438D02*
X100042857Y-47950057D01*
X99709523Y-47854819D02*
X99090476Y-47854819D01*
X99090476Y-47854819D02*
X99423809Y-48235771D01*
X99423809Y-48235771D02*
X99280952Y-48235771D01*
X99280952Y-48235771D02*
X99185714Y-48283390D01*
X99185714Y-48283390D02*
X99138095Y-48331009D01*
X99138095Y-48331009D02*
X99090476Y-48426247D01*
X99090476Y-48426247D02*
X99090476Y-48664342D01*
X99090476Y-48664342D02*
X99138095Y-48759580D01*
X99138095Y-48759580D02*
X99185714Y-48807200D01*
X99185714Y-48807200D02*
X99280952Y-48854819D01*
X99280952Y-48854819D02*
X99566666Y-48854819D01*
X99566666Y-48854819D02*
X99661904Y-48807200D01*
X99661904Y-48807200D02*
X99709523Y-48759580D01*
X98757142Y-47854819D02*
X98138095Y-47854819D01*
X98138095Y-47854819D02*
X98471428Y-48235771D01*
X98471428Y-48235771D02*
X98328571Y-48235771D01*
X98328571Y-48235771D02*
X98233333Y-48283390D01*
X98233333Y-48283390D02*
X98185714Y-48331009D01*
X98185714Y-48331009D02*
X98138095Y-48426247D01*
X98138095Y-48426247D02*
X98138095Y-48664342D01*
X98138095Y-48664342D02*
X98185714Y-48759580D01*
X98185714Y-48759580D02*
X98233333Y-48807200D01*
X98233333Y-48807200D02*
X98328571Y-48854819D01*
X98328571Y-48854819D02*
X98614285Y-48854819D01*
X98614285Y-48854819D02*
X98709523Y-48807200D01*
X98709523Y-48807200D02*
X98757142Y-48759580D01*
X116464594Y-79954819D02*
X116464594Y-80764342D01*
X116464594Y-80764342D02*
X116416975Y-80859580D01*
X116416975Y-80859580D02*
X116369356Y-80907200D01*
X116369356Y-80907200D02*
X116274118Y-80954819D01*
X116274118Y-80954819D02*
X116083642Y-80954819D01*
X116083642Y-80954819D02*
X115988404Y-80907200D01*
X115988404Y-80907200D02*
X115940785Y-80859580D01*
X115940785Y-80859580D02*
X115893166Y-80764342D01*
X115893166Y-80764342D02*
X115893166Y-79954819D01*
X114893166Y-80954819D02*
X115464594Y-80954819D01*
X115178880Y-80954819D02*
X115178880Y-79954819D01*
X115178880Y-79954819D02*
X115274118Y-80097676D01*
X115274118Y-80097676D02*
X115369356Y-80192914D01*
X115369356Y-80192914D02*
X115464594Y-80240533D01*
X114512213Y-80050057D02*
X114464594Y-80002438D01*
X114464594Y-80002438D02*
X114369356Y-79954819D01*
X114369356Y-79954819D02*
X114131261Y-79954819D01*
X114131261Y-79954819D02*
X114036023Y-80002438D01*
X114036023Y-80002438D02*
X113988404Y-80050057D01*
X113988404Y-80050057D02*
X113940785Y-80145295D01*
X113940785Y-80145295D02*
X113940785Y-80240533D01*
X113940785Y-80240533D02*
X113988404Y-80383390D01*
X113988404Y-80383390D02*
X114559832Y-80954819D01*
X114559832Y-80954819D02*
X113940785Y-80954819D01*
X167221319Y-110494761D02*
X166745128Y-110161428D01*
X167221319Y-109923333D02*
X166221319Y-109923333D01*
X166221319Y-109923333D02*
X166221319Y-110304285D01*
X166221319Y-110304285D02*
X166268938Y-110399523D01*
X166268938Y-110399523D02*
X166316557Y-110447142D01*
X166316557Y-110447142D02*
X166411795Y-110494761D01*
X166411795Y-110494761D02*
X166554652Y-110494761D01*
X166554652Y-110494761D02*
X166649890Y-110447142D01*
X166649890Y-110447142D02*
X166697509Y-110399523D01*
X166697509Y-110399523D02*
X166745128Y-110304285D01*
X166745128Y-110304285D02*
X166745128Y-109923333D01*
X166221319Y-110780476D02*
X167221319Y-111113809D01*
X167221319Y-111113809D02*
X166221319Y-111447142D01*
X166221319Y-111685238D02*
X166221319Y-112304285D01*
X166221319Y-112304285D02*
X166602271Y-111970952D01*
X166602271Y-111970952D02*
X166602271Y-112113809D01*
X166602271Y-112113809D02*
X166649890Y-112209047D01*
X166649890Y-112209047D02*
X166697509Y-112256666D01*
X166697509Y-112256666D02*
X166792747Y-112304285D01*
X166792747Y-112304285D02*
X167030842Y-112304285D01*
X167030842Y-112304285D02*
X167126080Y-112256666D01*
X167126080Y-112256666D02*
X167173700Y-112209047D01*
X167173700Y-112209047D02*
X167221319Y-112113809D01*
X167221319Y-112113809D02*
X167221319Y-111828095D01*
X167221319Y-111828095D02*
X167173700Y-111732857D01*
X167173700Y-111732857D02*
X167126080Y-111685238D01*
X107230357Y-49104819D02*
X107563690Y-48628628D01*
X107801785Y-49104819D02*
X107801785Y-48104819D01*
X107801785Y-48104819D02*
X107420833Y-48104819D01*
X107420833Y-48104819D02*
X107325595Y-48152438D01*
X107325595Y-48152438D02*
X107277976Y-48200057D01*
X107277976Y-48200057D02*
X107230357Y-48295295D01*
X107230357Y-48295295D02*
X107230357Y-48438152D01*
X107230357Y-48438152D02*
X107277976Y-48533390D01*
X107277976Y-48533390D02*
X107325595Y-48581009D01*
X107325595Y-48581009D02*
X107420833Y-48628628D01*
X107420833Y-48628628D02*
X107801785Y-48628628D01*
X106277976Y-49104819D02*
X106849404Y-49104819D01*
X106563690Y-49104819D02*
X106563690Y-48104819D01*
X106563690Y-48104819D02*
X106658928Y-48247676D01*
X106658928Y-48247676D02*
X106754166Y-48342914D01*
X106754166Y-48342914D02*
X106849404Y-48390533D01*
X105944642Y-48104819D02*
X105277976Y-48104819D01*
X105277976Y-48104819D02*
X105706547Y-49104819D01*
X150249580Y-46292142D02*
X150297200Y-46244523D01*
X150297200Y-46244523D02*
X150344819Y-46101666D01*
X150344819Y-46101666D02*
X150344819Y-46006428D01*
X150344819Y-46006428D02*
X150297200Y-45863571D01*
X150297200Y-45863571D02*
X150201961Y-45768333D01*
X150201961Y-45768333D02*
X150106723Y-45720714D01*
X150106723Y-45720714D02*
X149916247Y-45673095D01*
X149916247Y-45673095D02*
X149773390Y-45673095D01*
X149773390Y-45673095D02*
X149582914Y-45720714D01*
X149582914Y-45720714D02*
X149487676Y-45768333D01*
X149487676Y-45768333D02*
X149392438Y-45863571D01*
X149392438Y-45863571D02*
X149344819Y-46006428D01*
X149344819Y-46006428D02*
X149344819Y-46101666D01*
X149344819Y-46101666D02*
X149392438Y-46244523D01*
X149392438Y-46244523D02*
X149440057Y-46292142D01*
X149344819Y-46625476D02*
X149344819Y-47244523D01*
X149344819Y-47244523D02*
X149725771Y-46911190D01*
X149725771Y-46911190D02*
X149725771Y-47054047D01*
X149725771Y-47054047D02*
X149773390Y-47149285D01*
X149773390Y-47149285D02*
X149821009Y-47196904D01*
X149821009Y-47196904D02*
X149916247Y-47244523D01*
X149916247Y-47244523D02*
X150154342Y-47244523D01*
X150154342Y-47244523D02*
X150249580Y-47196904D01*
X150249580Y-47196904D02*
X150297200Y-47149285D01*
X150297200Y-47149285D02*
X150344819Y-47054047D01*
X150344819Y-47054047D02*
X150344819Y-46768333D01*
X150344819Y-46768333D02*
X150297200Y-46673095D01*
X150297200Y-46673095D02*
X150249580Y-46625476D01*
X150344819Y-48196904D02*
X150344819Y-47625476D01*
X150344819Y-47911190D02*
X149344819Y-47911190D01*
X149344819Y-47911190D02*
X149487676Y-47815952D01*
X149487676Y-47815952D02*
X149582914Y-47720714D01*
X149582914Y-47720714D02*
X149630533Y-47625476D01*
X107221319Y-110494761D02*
X106745128Y-110161428D01*
X107221319Y-109923333D02*
X106221319Y-109923333D01*
X106221319Y-109923333D02*
X106221319Y-110304285D01*
X106221319Y-110304285D02*
X106268938Y-110399523D01*
X106268938Y-110399523D02*
X106316557Y-110447142D01*
X106316557Y-110447142D02*
X106411795Y-110494761D01*
X106411795Y-110494761D02*
X106554652Y-110494761D01*
X106554652Y-110494761D02*
X106649890Y-110447142D01*
X106649890Y-110447142D02*
X106697509Y-110399523D01*
X106697509Y-110399523D02*
X106745128Y-110304285D01*
X106745128Y-110304285D02*
X106745128Y-109923333D01*
X106221319Y-110780476D02*
X107221319Y-111113809D01*
X107221319Y-111113809D02*
X106221319Y-111447142D01*
X106221319Y-112256666D02*
X106221319Y-111780476D01*
X106221319Y-111780476D02*
X106697509Y-111732857D01*
X106697509Y-111732857D02*
X106649890Y-111780476D01*
X106649890Y-111780476D02*
X106602271Y-111875714D01*
X106602271Y-111875714D02*
X106602271Y-112113809D01*
X106602271Y-112113809D02*
X106649890Y-112209047D01*
X106649890Y-112209047D02*
X106697509Y-112256666D01*
X106697509Y-112256666D02*
X106792747Y-112304285D01*
X106792747Y-112304285D02*
X107030842Y-112304285D01*
X107030842Y-112304285D02*
X107126080Y-112256666D01*
X107126080Y-112256666D02*
X107173700Y-112209047D01*
X107173700Y-112209047D02*
X107221319Y-112113809D01*
X107221319Y-112113809D02*
X107221319Y-111875714D01*
X107221319Y-111875714D02*
X107173700Y-111780476D01*
X107173700Y-111780476D02*
X107126080Y-111732857D01*
X227664819Y-80929761D02*
X227188628Y-80596428D01*
X227664819Y-80358333D02*
X226664819Y-80358333D01*
X226664819Y-80358333D02*
X226664819Y-80739285D01*
X226664819Y-80739285D02*
X226712438Y-80834523D01*
X226712438Y-80834523D02*
X226760057Y-80882142D01*
X226760057Y-80882142D02*
X226855295Y-80929761D01*
X226855295Y-80929761D02*
X226998152Y-80929761D01*
X226998152Y-80929761D02*
X227093390Y-80882142D01*
X227093390Y-80882142D02*
X227141009Y-80834523D01*
X227141009Y-80834523D02*
X227188628Y-80739285D01*
X227188628Y-80739285D02*
X227188628Y-80358333D01*
X226664819Y-81215476D02*
X227664819Y-81548809D01*
X227664819Y-81548809D02*
X226664819Y-81882142D01*
X227093390Y-82358333D02*
X227045771Y-82263095D01*
X227045771Y-82263095D02*
X226998152Y-82215476D01*
X226998152Y-82215476D02*
X226902914Y-82167857D01*
X226902914Y-82167857D02*
X226855295Y-82167857D01*
X226855295Y-82167857D02*
X226760057Y-82215476D01*
X226760057Y-82215476D02*
X226712438Y-82263095D01*
X226712438Y-82263095D02*
X226664819Y-82358333D01*
X226664819Y-82358333D02*
X226664819Y-82548809D01*
X226664819Y-82548809D02*
X226712438Y-82644047D01*
X226712438Y-82644047D02*
X226760057Y-82691666D01*
X226760057Y-82691666D02*
X226855295Y-82739285D01*
X226855295Y-82739285D02*
X226902914Y-82739285D01*
X226902914Y-82739285D02*
X226998152Y-82691666D01*
X226998152Y-82691666D02*
X227045771Y-82644047D01*
X227045771Y-82644047D02*
X227093390Y-82548809D01*
X227093390Y-82548809D02*
X227093390Y-82358333D01*
X227093390Y-82358333D02*
X227141009Y-82263095D01*
X227141009Y-82263095D02*
X227188628Y-82215476D01*
X227188628Y-82215476D02*
X227283866Y-82167857D01*
X227283866Y-82167857D02*
X227474342Y-82167857D01*
X227474342Y-82167857D02*
X227569580Y-82215476D01*
X227569580Y-82215476D02*
X227617200Y-82263095D01*
X227617200Y-82263095D02*
X227664819Y-82358333D01*
X227664819Y-82358333D02*
X227664819Y-82548809D01*
X227664819Y-82548809D02*
X227617200Y-82644047D01*
X227617200Y-82644047D02*
X227569580Y-82691666D01*
X227569580Y-82691666D02*
X227474342Y-82739285D01*
X227474342Y-82739285D02*
X227283866Y-82739285D01*
X227283866Y-82739285D02*
X227188628Y-82691666D01*
X227188628Y-82691666D02*
X227141009Y-82644047D01*
X227141009Y-82644047D02*
X227093390Y-82548809D01*
X93674819Y-51896666D02*
X94389104Y-51896666D01*
X94389104Y-51896666D02*
X94531961Y-51849047D01*
X94531961Y-51849047D02*
X94627200Y-51753809D01*
X94627200Y-51753809D02*
X94674819Y-51610952D01*
X94674819Y-51610952D02*
X94674819Y-51515714D01*
X94008152Y-52801428D02*
X94674819Y-52801428D01*
X93627200Y-52563333D02*
X94341485Y-52325238D01*
X94341485Y-52325238D02*
X94341485Y-52944285D01*
X140044819Y-38701905D02*
X140854342Y-38701905D01*
X140854342Y-38701905D02*
X140949580Y-38749524D01*
X140949580Y-38749524D02*
X140997200Y-38797143D01*
X140997200Y-38797143D02*
X141044819Y-38892381D01*
X141044819Y-38892381D02*
X141044819Y-39082857D01*
X141044819Y-39082857D02*
X140997200Y-39178095D01*
X140997200Y-39178095D02*
X140949580Y-39225714D01*
X140949580Y-39225714D02*
X140854342Y-39273333D01*
X140854342Y-39273333D02*
X140044819Y-39273333D01*
X141044819Y-40273333D02*
X141044819Y-39701905D01*
X141044819Y-39987619D02*
X140044819Y-39987619D01*
X140044819Y-39987619D02*
X140187676Y-39892381D01*
X140187676Y-39892381D02*
X140282914Y-39797143D01*
X140282914Y-39797143D02*
X140330533Y-39701905D01*
X141044819Y-41225714D02*
X141044819Y-40654286D01*
X141044819Y-40940000D02*
X140044819Y-40940000D01*
X140044819Y-40940000D02*
X140187676Y-40844762D01*
X140187676Y-40844762D02*
X140282914Y-40749524D01*
X140282914Y-40749524D02*
X140330533Y-40654286D01*
X199854819Y-31751666D02*
X200569104Y-31751666D01*
X200569104Y-31751666D02*
X200711961Y-31704047D01*
X200711961Y-31704047D02*
X200807200Y-31608809D01*
X200807200Y-31608809D02*
X200854819Y-31465952D01*
X200854819Y-31465952D02*
X200854819Y-31370714D01*
X200854819Y-32275476D02*
X200854819Y-32465952D01*
X200854819Y-32465952D02*
X200807200Y-32561190D01*
X200807200Y-32561190D02*
X200759580Y-32608809D01*
X200759580Y-32608809D02*
X200616723Y-32704047D01*
X200616723Y-32704047D02*
X200426247Y-32751666D01*
X200426247Y-32751666D02*
X200045295Y-32751666D01*
X200045295Y-32751666D02*
X199950057Y-32704047D01*
X199950057Y-32704047D02*
X199902438Y-32656428D01*
X199902438Y-32656428D02*
X199854819Y-32561190D01*
X199854819Y-32561190D02*
X199854819Y-32370714D01*
X199854819Y-32370714D02*
X199902438Y-32275476D01*
X199902438Y-32275476D02*
X199950057Y-32227857D01*
X199950057Y-32227857D02*
X200045295Y-32180238D01*
X200045295Y-32180238D02*
X200283390Y-32180238D01*
X200283390Y-32180238D02*
X200378628Y-32227857D01*
X200378628Y-32227857D02*
X200426247Y-32275476D01*
X200426247Y-32275476D02*
X200473866Y-32370714D01*
X200473866Y-32370714D02*
X200473866Y-32561190D01*
X200473866Y-32561190D02*
X200426247Y-32656428D01*
X200426247Y-32656428D02*
X200378628Y-32704047D01*
X200378628Y-32704047D02*
X200283390Y-32751666D01*
X137221319Y-110494761D02*
X136745128Y-110161428D01*
X137221319Y-109923333D02*
X136221319Y-109923333D01*
X136221319Y-109923333D02*
X136221319Y-110304285D01*
X136221319Y-110304285D02*
X136268938Y-110399523D01*
X136268938Y-110399523D02*
X136316557Y-110447142D01*
X136316557Y-110447142D02*
X136411795Y-110494761D01*
X136411795Y-110494761D02*
X136554652Y-110494761D01*
X136554652Y-110494761D02*
X136649890Y-110447142D01*
X136649890Y-110447142D02*
X136697509Y-110399523D01*
X136697509Y-110399523D02*
X136745128Y-110304285D01*
X136745128Y-110304285D02*
X136745128Y-109923333D01*
X136221319Y-110780476D02*
X137221319Y-111113809D01*
X137221319Y-111113809D02*
X136221319Y-111447142D01*
X136554652Y-112209047D02*
X137221319Y-112209047D01*
X136173700Y-111970952D02*
X136887985Y-111732857D01*
X136887985Y-111732857D02*
X136887985Y-112351904D01*
D13*
%TO.C,J3*%
X80065000Y-21615000D02*
X80065000Y-24335000D01*
X80065000Y-21615000D02*
X83465000Y-21615000D01*
X80065000Y-27135000D02*
X80065000Y-30735000D01*
X80065000Y-33435000D02*
X80065000Y-37035000D01*
X80065000Y-39835000D02*
X80065000Y-42465000D01*
X80065000Y-42465000D02*
X84815000Y-42465000D01*
X83465000Y-18615000D02*
X95105000Y-18615000D01*
X83465000Y-21615000D02*
X83465000Y-18615000D01*
X84815000Y-45385000D02*
X84815000Y-42465000D01*
X84855000Y-45385000D02*
X93755000Y-45385000D01*
X93755000Y-42465000D02*
X98505000Y-42465000D01*
X93755000Y-45385000D02*
X93755000Y-42465000D01*
X95105000Y-21615000D02*
X95105000Y-18615000D01*
X95105000Y-21615000D02*
X98505000Y-21615000D01*
X98505000Y-21615000D02*
X98505000Y-24335000D01*
X98505000Y-30735000D02*
X98505000Y-27135000D01*
X98505000Y-37035000D02*
X98505000Y-33435000D01*
X98505000Y-42465000D02*
X98505000Y-39835000D01*
%TO.C,SW1*%
X63726500Y-74200000D02*
X63726500Y-78300000D01*
X63726500Y-82300000D02*
X63726500Y-86400000D01*
X66126500Y-74200000D02*
X63726500Y-74200000D01*
X69626500Y-80800000D02*
X69626500Y-79800000D01*
X70126500Y-80300000D02*
X69126500Y-80300000D01*
X70926500Y-74200000D02*
X68326500Y-74200000D01*
X73426500Y-87800000D02*
X73726500Y-88100000D01*
X73726500Y-87500000D02*
X73426500Y-87800000D01*
X73726500Y-88100000D02*
X73726500Y-87500000D01*
X75526500Y-74200000D02*
X73126500Y-74200000D01*
X75526500Y-78300000D02*
X75526500Y-74200000D01*
X75526500Y-82300000D02*
X75526500Y-86400000D01*
X75526500Y-86400000D02*
X63726500Y-86400000D01*
X72626500Y-80300000D02*
G75*
G02*
X66626500Y-80300000I-3000000J0D01*
G01*
X66626500Y-80300000D02*
G75*
G02*
X72626500Y-80300000I3000000J0D01*
G01*
%TO.C,D7*%
X72291500Y-153755000D02*
X72291500Y-156845000D01*
X66741500Y-155299952D02*
G75*
G02*
X72291500Y-153755170I2990000J-48D01*
G01*
X72291500Y-156844830D02*
G75*
G02*
X66741500Y-155300048I-2560000J1544830D01*
G01*
X72231500Y-155300000D02*
G75*
G02*
X67231500Y-155300000I-2500000J0D01*
G01*
X67231500Y-155300000D02*
G75*
G02*
X72231500Y-155300000I2500000J0D01*
G01*
%TO.C,D8*%
X143058250Y-77735000D02*
X146148250Y-77735000D01*
X144603202Y-83285000D02*
G75*
G02*
X143058420Y-77735000I48J2990000D01*
G01*
X146148080Y-77735000D02*
G75*
G02*
X144603298Y-83285000I-1544830J-2560000D01*
G01*
X147103250Y-80295000D02*
G75*
G02*
X142103250Y-80295000I-2500000J0D01*
G01*
X142103250Y-80295000D02*
G75*
G02*
X147103250Y-80295000I2500000J0D01*
G01*
%TO.C,C32*%
X117140000Y-44004437D02*
X117140000Y-44140000D01*
X117140000Y-44004437D02*
X118204437Y-42940000D01*
X117140000Y-46395563D02*
X117140000Y-46260000D01*
X117140000Y-46395563D02*
X118204437Y-47460000D01*
X118204437Y-42940000D02*
X121660000Y-42940000D01*
X118204437Y-47460000D02*
X121660000Y-47460000D01*
X121660000Y-42940000D02*
X121660000Y-44140000D01*
X121660000Y-47460000D02*
X121660000Y-46260000D01*
%TO.C,J12*%
X155065000Y-21615000D02*
X155065000Y-24335000D01*
X155065000Y-21615000D02*
X158465000Y-21615000D01*
X155065000Y-27135000D02*
X155065000Y-30735000D01*
X155065000Y-33435000D02*
X155065000Y-37035000D01*
X155065000Y-39835000D02*
X155065000Y-42465000D01*
X155065000Y-42465000D02*
X159815000Y-42465000D01*
X158465000Y-18615000D02*
X170105000Y-18615000D01*
X158465000Y-21615000D02*
X158465000Y-18615000D01*
X159815000Y-45385000D02*
X159815000Y-42465000D01*
X159855000Y-45385000D02*
X168755000Y-45385000D01*
X168755000Y-42465000D02*
X173505000Y-42465000D01*
X168755000Y-45385000D02*
X168755000Y-42465000D01*
X170105000Y-21615000D02*
X170105000Y-18615000D01*
X170105000Y-21615000D02*
X173505000Y-21615000D01*
X173505000Y-21615000D02*
X173505000Y-24335000D01*
X173505000Y-30735000D02*
X173505000Y-27135000D01*
X173505000Y-37035000D02*
X173505000Y-33435000D01*
X173505000Y-42465000D02*
X173505000Y-39835000D01*
%TO.C,J11*%
X120065000Y-21615000D02*
X120065000Y-24335000D01*
X120065000Y-21615000D02*
X123465000Y-21615000D01*
X120065000Y-27135000D02*
X120065000Y-30735000D01*
X120065000Y-33435000D02*
X120065000Y-37035000D01*
X120065000Y-39835000D02*
X120065000Y-42465000D01*
X120065000Y-42465000D02*
X124815000Y-42465000D01*
X123465000Y-18615000D02*
X135105000Y-18615000D01*
X123465000Y-21615000D02*
X123465000Y-18615000D01*
X124815000Y-45385000D02*
X124815000Y-42465000D01*
X124855000Y-45385000D02*
X133755000Y-45385000D01*
X133755000Y-42465000D02*
X138505000Y-42465000D01*
X133755000Y-45385000D02*
X133755000Y-42465000D01*
X135105000Y-21615000D02*
X135105000Y-18615000D01*
X135105000Y-21615000D02*
X138505000Y-21615000D01*
X138505000Y-21615000D02*
X138505000Y-24335000D01*
X138505000Y-30735000D02*
X138505000Y-27135000D01*
X138505000Y-37035000D02*
X138505000Y-33435000D01*
X138505000Y-42465000D02*
X138505000Y-39835000D01*
%TO.C,RV6*%
X184756500Y-75380000D02*
X194496500Y-75380000D01*
X184756500Y-78440000D02*
X184756500Y-75380000D01*
X184756500Y-86970000D02*
X184756500Y-82250000D01*
X184756500Y-86970000D02*
X186246500Y-86970000D01*
X187966500Y-86970000D02*
X188796500Y-86970000D01*
X190416500Y-86970000D02*
X190946500Y-86970000D01*
X193316500Y-86970000D02*
X194496500Y-86970000D01*
X194496500Y-78440000D02*
X194496500Y-75380000D01*
X194506500Y-86970000D02*
X194506500Y-82250000D01*
%TO.C,RV7*%
X64756500Y-105330000D02*
X74496500Y-105330000D01*
X64756500Y-108390000D02*
X64756500Y-105330000D01*
X64756500Y-116920000D02*
X64756500Y-112200000D01*
X64756500Y-116920000D02*
X66246500Y-116920000D01*
X67966500Y-116920000D02*
X68796500Y-116920000D01*
X70416500Y-116920000D02*
X70946500Y-116920000D01*
X73316500Y-116920000D02*
X74496500Y-116920000D01*
X74496500Y-108390000D02*
X74496500Y-105330000D01*
X74506500Y-116920000D02*
X74506500Y-112200000D01*
%TO.C,J10*%
X100065000Y-21615000D02*
X100065000Y-24335000D01*
X100065000Y-21615000D02*
X103465000Y-21615000D01*
X100065000Y-27135000D02*
X100065000Y-30735000D01*
X100065000Y-33435000D02*
X100065000Y-37035000D01*
X100065000Y-39835000D02*
X100065000Y-42465000D01*
X100065000Y-42465000D02*
X104815000Y-42465000D01*
X103465000Y-18615000D02*
X115105000Y-18615000D01*
X103465000Y-21615000D02*
X103465000Y-18615000D01*
X104815000Y-45385000D02*
X104815000Y-42465000D01*
X104855000Y-45385000D02*
X113755000Y-45385000D01*
X113755000Y-42465000D02*
X118505000Y-42465000D01*
X113755000Y-45385000D02*
X113755000Y-42465000D01*
X115105000Y-21615000D02*
X115105000Y-18615000D01*
X115105000Y-21615000D02*
X118505000Y-21615000D01*
X118505000Y-21615000D02*
X118505000Y-24335000D01*
X118505000Y-30735000D02*
X118505000Y-27135000D01*
X118505000Y-37035000D02*
X118505000Y-33435000D01*
X118505000Y-42465000D02*
X118505000Y-39835000D01*
%TO.C,R16*%
X126372936Y-46265000D02*
X126827064Y-46265000D01*
X126372936Y-47735000D02*
X126827064Y-47735000D01*
%TO.C,RV1*%
X214756500Y-105330000D02*
X224496500Y-105330000D01*
X214756500Y-108390000D02*
X214756500Y-105330000D01*
X214756500Y-116920000D02*
X214756500Y-112200000D01*
X214756500Y-116920000D02*
X216246500Y-116920000D01*
X217966500Y-116920000D02*
X218796500Y-116920000D01*
X220416500Y-116920000D02*
X220946500Y-116920000D01*
X223316500Y-116920000D02*
X224496500Y-116920000D01*
X224496500Y-108390000D02*
X224496500Y-105330000D01*
X224506500Y-116920000D02*
X224506500Y-112200000D01*
%TO.C,J2*%
X60065000Y-21615000D02*
X60065000Y-24335000D01*
X60065000Y-21615000D02*
X63465000Y-21615000D01*
X60065000Y-27135000D02*
X60065000Y-30735000D01*
X60065000Y-33435000D02*
X60065000Y-37035000D01*
X60065000Y-39835000D02*
X60065000Y-42465000D01*
X60065000Y-42465000D02*
X64815000Y-42465000D01*
X63465000Y-18615000D02*
X75105000Y-18615000D01*
X63465000Y-21615000D02*
X63465000Y-18615000D01*
X64815000Y-45385000D02*
X64815000Y-42465000D01*
X64855000Y-45385000D02*
X73755000Y-45385000D01*
X73755000Y-42465000D02*
X78505000Y-42465000D01*
X73755000Y-45385000D02*
X73755000Y-42465000D01*
X75105000Y-21615000D02*
X75105000Y-18615000D01*
X75105000Y-21615000D02*
X78505000Y-21615000D01*
X78505000Y-21615000D02*
X78505000Y-24335000D01*
X78505000Y-30735000D02*
X78505000Y-27135000D01*
X78505000Y-37035000D02*
X78505000Y-33435000D01*
X78505000Y-42465000D02*
X78505000Y-39835000D01*
%TO.C,R18*%
X142225000Y-32707936D02*
X142225000Y-33162064D01*
X143695000Y-32707936D02*
X143695000Y-33162064D01*
%TO.C,R15*%
X144725000Y-47162064D02*
X144725000Y-46707936D01*
X146195000Y-47162064D02*
X146195000Y-46707936D01*
%TO.C,RV2*%
X184756500Y-105330000D02*
X194496500Y-105330000D01*
X184756500Y-108390000D02*
X184756500Y-105330000D01*
X184756500Y-116920000D02*
X184756500Y-112200000D01*
X184756500Y-116920000D02*
X186246500Y-116920000D01*
X187966500Y-116920000D02*
X188796500Y-116920000D01*
X190416500Y-116920000D02*
X190946500Y-116920000D01*
X193316500Y-116920000D02*
X194496500Y-116920000D01*
X194496500Y-108390000D02*
X194496500Y-105330000D01*
X194506500Y-116920000D02*
X194506500Y-112200000D01*
%TO.C,C33*%
X97140000Y-44004437D02*
X97140000Y-44140000D01*
X97140000Y-44004437D02*
X98204437Y-42940000D01*
X97140000Y-46395563D02*
X97140000Y-46260000D01*
X97140000Y-46395563D02*
X98204437Y-47460000D01*
X98204437Y-42940000D02*
X101660000Y-42940000D01*
X98204437Y-47460000D02*
X101660000Y-47460000D01*
X101660000Y-42940000D02*
X101660000Y-44140000D01*
X101660000Y-47460000D02*
X101660000Y-46260000D01*
%TO.C,U12*%
X101226500Y-68000000D02*
X101226500Y-95300000D01*
X101226500Y-95300000D02*
X128626500Y-95300000D01*
X101764500Y-71283000D02*
X102018500Y-71295000D01*
X101764500Y-87920000D02*
X101764500Y-71283000D01*
X105104500Y-71295000D02*
X102018500Y-71295000D01*
X105104500Y-87895000D02*
X101764500Y-87920000D01*
X105104500Y-87895000D02*
X128204500Y-87895000D01*
X110146500Y-68489000D02*
X110146500Y-70902000D01*
X110146500Y-70902000D02*
X119925500Y-70902000D01*
X119925500Y-68489000D02*
X110146500Y-68489000D01*
X119925500Y-68489000D02*
X119925500Y-70902000D01*
X128204500Y-71295000D02*
X105104500Y-71295000D01*
X128204500Y-87895000D02*
X128204500Y-71295000D01*
X128626500Y-68000000D02*
X101226500Y-68000000D01*
X128626500Y-95300000D02*
X128626500Y-68000000D01*
%TO.C,RV3*%
X154756500Y-105330000D02*
X164496500Y-105330000D01*
X154756500Y-108390000D02*
X154756500Y-105330000D01*
X154756500Y-116920000D02*
X154756500Y-112200000D01*
X154756500Y-116920000D02*
X156246500Y-116920000D01*
X157966500Y-116920000D02*
X158796500Y-116920000D01*
X160416500Y-116920000D02*
X160946500Y-116920000D01*
X163316500Y-116920000D02*
X164496500Y-116920000D01*
X164496500Y-108390000D02*
X164496500Y-105330000D01*
X164506500Y-116920000D02*
X164506500Y-112200000D01*
%TO.C,R17*%
X106360436Y-46265000D02*
X106814564Y-46265000D01*
X106360436Y-47735000D02*
X106814564Y-47735000D01*
%TO.C,D4*%
X222291500Y-153755000D02*
X222291500Y-156845000D01*
X216741500Y-155299952D02*
G75*
G02*
X222291500Y-153755170I2990000J-48D01*
G01*
X222291500Y-156844830D02*
G75*
G02*
X216741500Y-155300048I-2560000J1544830D01*
G01*
X222231500Y-155300000D02*
G75*
G02*
X217231500Y-155300000I-2500000J0D01*
G01*
X217231500Y-155300000D02*
G75*
G02*
X222231500Y-155300000I2500000J0D01*
G01*
%TO.C,C31*%
X147475000Y-47196252D02*
X147475000Y-46673748D01*
X148945000Y-47196252D02*
X148945000Y-46673748D01*
%TO.C,RV5*%
X94756500Y-105330000D02*
X104496500Y-105330000D01*
X94756500Y-108390000D02*
X94756500Y-105330000D01*
X94756500Y-116920000D02*
X94756500Y-112200000D01*
X94756500Y-116920000D02*
X96246500Y-116920000D01*
X97966500Y-116920000D02*
X98796500Y-116920000D01*
X100416500Y-116920000D02*
X100946500Y-116920000D01*
X103316500Y-116920000D02*
X104496500Y-116920000D01*
X104496500Y-108390000D02*
X104496500Y-105330000D01*
X104506500Y-116920000D02*
X104506500Y-112200000D01*
%TO.C,RV8*%
X214780000Y-75405000D02*
X224520000Y-75405000D01*
X214780000Y-78465000D02*
X214780000Y-75405000D01*
X214780000Y-86995000D02*
X214780000Y-82275000D01*
X214780000Y-86995000D02*
X216270000Y-86995000D01*
X217990000Y-86995000D02*
X218820000Y-86995000D01*
X220440000Y-86995000D02*
X220970000Y-86995000D01*
X223340000Y-86995000D02*
X224520000Y-86995000D01*
X224520000Y-78465000D02*
X224520000Y-75405000D01*
X224520000Y-86995000D02*
X224520000Y-82275000D01*
%TO.C,D5*%
X172291500Y-153755000D02*
X172291500Y-156845000D01*
X166741500Y-155299952D02*
G75*
G02*
X172291500Y-153755170I2990000J-48D01*
G01*
X172291500Y-156844830D02*
G75*
G02*
X166741500Y-155300048I-2560000J1544830D01*
G01*
X172231500Y-155300000D02*
G75*
G02*
X167231500Y-155300000I-2500000J0D01*
G01*
X167231500Y-155300000D02*
G75*
G02*
X172231500Y-155300000I2500000J0D01*
G01*
%TO.C,J4*%
X65130000Y-47670000D02*
X65130000Y-56790000D01*
X65130000Y-56790000D02*
X93330000Y-56790000D01*
X66430000Y-48980000D02*
X66430000Y-55480000D01*
X66430000Y-55480000D02*
X77180000Y-55480000D01*
X77180000Y-55480000D02*
X77180000Y-55480000D01*
X77180000Y-55480000D02*
X77180000Y-56790000D01*
X81280000Y-55480000D02*
X92030000Y-55480000D01*
X81280000Y-56790000D02*
X81280000Y-55480000D01*
X87620000Y-58180000D02*
X88120000Y-57180000D01*
X88120000Y-57180000D02*
X88620000Y-58180000D01*
X88620000Y-58180000D02*
X87620000Y-58180000D01*
X92030000Y-48980000D02*
X66430000Y-48980000D01*
X92030000Y-55480000D02*
X92030000Y-48980000D01*
X93330000Y-47670000D02*
X65130000Y-47670000D01*
X93330000Y-56790000D02*
X93330000Y-47670000D01*
%TO.C,U11*%
X141590000Y-37290000D02*
X149330000Y-37290000D01*
X141590000Y-38940000D02*
X141590000Y-37290000D01*
X141590000Y-42590000D02*
X141590000Y-40940000D01*
X149330000Y-37290000D02*
X149330000Y-42590000D01*
X149330000Y-42590000D02*
X141590000Y-42590000D01*
X141590000Y-38940000D02*
G75*
G02*
X141590000Y-40940000I0J-1000000D01*
G01*
%TO.C,D6*%
X122291500Y-153755000D02*
X122291500Y-156845000D01*
X116741500Y-155299952D02*
G75*
G02*
X122291500Y-153755170I2990000J-48D01*
G01*
X122291500Y-156844830D02*
G75*
G02*
X116741500Y-155300048I-2560000J1544830D01*
G01*
X122231500Y-155300000D02*
G75*
G02*
X117231500Y-155300000I-2500000J0D01*
G01*
X117231500Y-155300000D02*
G75*
G02*
X122231500Y-155300000I2500000J0D01*
G01*
%TO.C,J9*%
X180065000Y-21615000D02*
X180065000Y-24335000D01*
X180065000Y-21615000D02*
X183465000Y-21615000D01*
X180065000Y-27135000D02*
X180065000Y-30735000D01*
X180065000Y-33435000D02*
X180065000Y-37035000D01*
X180065000Y-39835000D02*
X180065000Y-42465000D01*
X180065000Y-42465000D02*
X184815000Y-42465000D01*
X183465000Y-18615000D02*
X195105000Y-18615000D01*
X183465000Y-21615000D02*
X183465000Y-18615000D01*
X184815000Y-45385000D02*
X184815000Y-42465000D01*
X184855000Y-45385000D02*
X193755000Y-45385000D01*
X193755000Y-42465000D02*
X198505000Y-42465000D01*
X193755000Y-45385000D02*
X193755000Y-42465000D01*
X195105000Y-21615000D02*
X195105000Y-18615000D01*
X195105000Y-21615000D02*
X198505000Y-21615000D01*
X198505000Y-21615000D02*
X198505000Y-24335000D01*
X198505000Y-30735000D02*
X198505000Y-27135000D01*
X198505000Y-37035000D02*
X198505000Y-33435000D01*
X198505000Y-42465000D02*
X198505000Y-39835000D01*
%TO.C,RV4*%
X124756500Y-105330000D02*
X134496500Y-105330000D01*
X124756500Y-108390000D02*
X124756500Y-105330000D01*
X124756500Y-116920000D02*
X124756500Y-112200000D01*
X124756500Y-116920000D02*
X126246500Y-116920000D01*
X127966500Y-116920000D02*
X128796500Y-116920000D01*
X130416500Y-116920000D02*
X130946500Y-116920000D01*
X133316500Y-116920000D02*
X134496500Y-116920000D01*
X134496500Y-108390000D02*
X134496500Y-105330000D01*
X134506500Y-116920000D02*
X134506500Y-112200000D01*
%TD*%
M02*
