%TF.GenerationSoftware,KiCad,Pcbnew,9.0.3*%
%TF.CreationDate,2025-09-11T12:53:53+02:00*%
%TF.ProjectId,RP2040-DSP_V2.1,52503230-3430-42d4-9453-505f56322e31,V2.1*%
%TF.SameCoordinates,Original*%
%TF.FileFunction,Copper,L2,Bot*%
%TF.FilePolarity,Positive*%
%FSLAX46Y46*%
G04 Gerber Fmt 4.6, Leading zero omitted, Abs format (unit mm)*
G04 Created by KiCad (PCBNEW 9.0.3) date 2025-09-11 12:53:53*
%MOMM*%
%LPD*%
G01*
G04 APERTURE LIST*
G04 Aperture macros list*
%AMRoundRect*
0 Rectangle with rounded corners*
0 $1 Rounding radius*
0 $2 $3 $4 $5 $6 $7 $8 $9 X,Y pos of 4 corners*
0 Add a 4 corners polygon primitive as box body*
4,1,4,$2,$3,$4,$5,$6,$7,$8,$9,$2,$3,0*
0 Add four circle primitives for the rounded corners*
1,1,$1+$1,$2,$3*
1,1,$1+$1,$4,$5*
1,1,$1+$1,$6,$7*
1,1,$1+$1,$8,$9*
0 Add four rect primitives between the rounded corners*
20,1,$1+$1,$2,$3,$4,$5,0*
20,1,$1+$1,$4,$5,$6,$7,0*
20,1,$1+$1,$6,$7,$8,$9,0*
20,1,$1+$1,$8,$9,$2,$3,0*%
G04 Aperture macros list end*
%TA.AperFunction,SMDPad,CuDef*%
%ADD10RoundRect,0.250000X-1.075000X-0.550000X1.075000X-0.550000X1.075000X0.550000X-1.075000X0.550000X0*%
%TD*%
%TA.AperFunction,SMDPad,CuDef*%
%ADD11RoundRect,0.250000X0.450000X-0.262500X0.450000X0.262500X-0.450000X0.262500X-0.450000X-0.262500X0*%
%TD*%
%TA.AperFunction,SMDPad,CuDef*%
%ADD12RoundRect,0.250000X-0.450000X0.262500X-0.450000X-0.262500X0.450000X-0.262500X0.450000X0.262500X0*%
%TD*%
%TA.AperFunction,ComponentPad*%
%ADD13C,3.000000*%
%TD*%
%TA.AperFunction,SMDPad,CuDef*%
%ADD14RoundRect,0.250000X0.475000X-0.250000X0.475000X0.250000X-0.475000X0.250000X-0.475000X-0.250000X0*%
%TD*%
%TA.AperFunction,ComponentPad*%
%ADD15RoundRect,0.250000X0.600000X-0.600000X0.600000X0.600000X-0.600000X0.600000X-0.600000X-0.600000X0*%
%TD*%
%TA.AperFunction,ComponentPad*%
%ADD16C,1.700000*%
%TD*%
%TA.AperFunction,ComponentPad*%
%ADD17RoundRect,0.250000X-0.550000X0.550000X-0.550000X-0.550000X0.550000X-0.550000X0.550000X0.550000X0*%
%TD*%
%TA.AperFunction,ComponentPad*%
%ADD18C,1.600000*%
%TD*%
%TA.AperFunction,ViaPad*%
%ADD19C,0.600000*%
%TD*%
%TA.AperFunction,ViaPad*%
%ADD20C,0.800000*%
%TD*%
%TA.AperFunction,Conductor*%
%ADD21C,0.320000*%
%TD*%
%TA.AperFunction,Conductor*%
%ADD22C,0.650000*%
%TD*%
%TA.AperFunction,Conductor*%
%ADD23C,0.800000*%
%TD*%
G04 APERTURE END LIST*
D10*
%TO.P,C33,1*%
%TO.N,/L_OUTd*%
X100025000Y-47000000D03*
%TO.P,C33,2*%
%TO.N,Net-(C33-Pad2)*%
X103375000Y-47000000D03*
%TD*%
D11*
%TO.P,R15,1*%
%TO.N,+3V3d*%
X147760000Y-49647500D03*
%TO.P,R15,2*%
%TO.N,/MIDI_RXd*%
X147760000Y-47822500D03*
%TD*%
D12*
%TO.P,R18,1*%
%TO.N,Net-(J11-PadR)*%
X145260000Y-33822500D03*
%TO.P,R18,2*%
%TO.N,Net-(R18-Pad2)*%
X145260000Y-35647500D03*
%TD*%
D13*
%TO.P,J10,R*%
%TO.N,Net-(J10-PadR)*%
X139700000Y-33885000D03*
%TO.P,J10,RN*%
%TO.N,unconnected-(J10-PadRN)*%
X123470000Y-33885000D03*
%TO.P,J10,S*%
%TO.N,GNDDd*%
X139700000Y-27535000D03*
%TO.P,J10,SN*%
%TO.N,unconnected-(J10-PadSN)*%
X123470000Y-27535000D03*
%TO.P,J10,T*%
%TO.N,Net-(J10-PadT)*%
X139700000Y-40235000D03*
%TO.P,J10,TN*%
%TO.N,unconnected-(J10-PadTN)*%
X123470000Y-40235000D03*
%TD*%
D10*
%TO.P,C32,1*%
%TO.N,/R_OUTd*%
X120025000Y-47000000D03*
%TO.P,C32,2*%
%TO.N,Net-(C32-Pad2)*%
X123375000Y-47000000D03*
%TD*%
D13*
%TO.P,J12,R*%
%TO.N,Net-(C32-Pad2)*%
X199700000Y-33885000D03*
%TO.P,J12,RN*%
%TO.N,unconnected-(J12-PadRN)*%
X183470000Y-33885000D03*
%TO.P,J12,S*%
%TO.N,GNDd*%
X199700000Y-27535000D03*
%TO.P,J12,SN*%
X183470000Y-27535000D03*
%TO.P,J12,T*%
%TO.N,Net-(C33-Pad2)*%
X199700000Y-40235000D03*
%TO.P,J12,TN*%
%TO.N,unconnected-(J12-PadTN)*%
X183470000Y-40235000D03*
%TD*%
%TO.P,J9,R*%
%TO.N,/R_INd*%
X174700000Y-33885000D03*
%TO.P,J9,RN*%
%TO.N,GNDd*%
X158470000Y-33885000D03*
%TO.P,J9,S*%
X174700000Y-27535000D03*
%TO.P,J9,SN*%
X158470000Y-27535000D03*
%TO.P,J9,T*%
%TO.N,/L_INd*%
X174700000Y-40235000D03*
%TO.P,J9,TN*%
%TO.N,GNDd*%
X158470000Y-40235000D03*
%TD*%
D14*
%TO.P,C31,1*%
%TO.N,+3V3d*%
X150510000Y-49685000D03*
%TO.P,C31,2*%
%TO.N,GNDDd*%
X150510000Y-47785000D03*
%TD*%
D13*
%TO.P,J2,R*%
%TO.N,+3V3d*%
X79700000Y-33885000D03*
%TO.P,J2,RN*%
%TO.N,unconnected-(J2-PadRN)*%
X63470000Y-33885000D03*
%TO.P,J2,S*%
%TO.N,GNDDd*%
X79700000Y-27535000D03*
%TO.P,J2,SN*%
X63470000Y-27535000D03*
%TO.P,J2,T*%
%TO.N,/EXP_1d*%
X79700000Y-40235000D03*
%TO.P,J2,TN*%
%TO.N,GNDDd*%
X63470000Y-40235000D03*
%TD*%
%TO.P,J11,R*%
%TO.N,Net-(J11-PadR)*%
X119700000Y-33885000D03*
%TO.P,J11,RN*%
%TO.N,unconnected-(J11-PadRN)*%
X103470000Y-33885000D03*
%TO.P,J11,S*%
%TO.N,unconnected-(J11-PadS)*%
X119700000Y-27535000D03*
%TO.P,J11,SN*%
%TO.N,unconnected-(J11-PadSN)*%
X103470000Y-27535000D03*
%TO.P,J11,T*%
%TO.N,Net-(J11-PadT)*%
X119700000Y-40235000D03*
%TO.P,J11,TN*%
%TO.N,unconnected-(J11-PadTN)*%
X103470000Y-40235000D03*
%TD*%
D11*
%TO.P,R17,1*%
%TO.N,+3V3d*%
X144400000Y-49612500D03*
%TO.P,R17,2*%
%TO.N,Net-(J10-PadR)*%
X144400000Y-47787500D03*
%TD*%
D15*
%TO.P,J4,1,Pin_1*%
%TO.N,GNDd*%
X90420000Y-55300000D03*
D16*
%TO.P,J4,2,Pin_2*%
%TO.N,/R_OUTd*%
X90420000Y-52760000D03*
%TO.P,J4,3,Pin_3*%
%TO.N,GNDd*%
X87880000Y-55300000D03*
%TO.P,J4,4,Pin_4*%
%TO.N,/L_OUTd*%
X87880000Y-52760000D03*
%TO.P,J4,5,Pin_5*%
%TO.N,GNDd*%
X85340000Y-55300000D03*
%TO.P,J4,6,Pin_6*%
%TO.N,/L_INd*%
X85340000Y-52760000D03*
%TO.P,J4,7,Pin_7*%
%TO.N,GNDd*%
X82800000Y-55300000D03*
%TO.P,J4,8,Pin_8*%
%TO.N,/R_INd*%
X82800000Y-52760000D03*
%TO.P,J4,9,Pin_9*%
%TO.N,GNDd*%
X80260000Y-55300000D03*
%TO.P,J4,10,Pin_10*%
%TO.N,+3V3d*%
X80260000Y-52760000D03*
%TO.P,J4,11,Pin_11*%
%TO.N,/EXP_1d*%
X77720000Y-55300000D03*
%TO.P,J4,12,Pin_12*%
%TO.N,/VOL_1d*%
X77720000Y-52760000D03*
%TO.P,J4,13,Pin_13*%
%TO.N,/VOL_2d*%
X75180000Y-55300000D03*
%TO.P,J4,14,Pin_14*%
%TO.N,/MIDI_RXd*%
X75180000Y-52760000D03*
%TO.P,J4,15,Pin_15*%
%TO.N,GNDDd*%
X72640000Y-55300000D03*
%TO.P,J4,16,Pin_16*%
%TO.N,/MIDI_TXd*%
X72640000Y-52760000D03*
%TD*%
D17*
%TO.P,U11,1*%
%TO.N,Net-(R18-Pad2)*%
X145220000Y-37930000D03*
D18*
%TO.P,U11,2*%
%TO.N,Net-(J11-PadT)*%
X147760000Y-37930000D03*
%TO.P,U11,3,NC*%
%TO.N,unconnected-(U11-NC-Pad3)*%
X150300000Y-37930000D03*
%TO.P,U11,4*%
%TO.N,GNDDd*%
X150300000Y-45550000D03*
%TO.P,U11,5*%
%TO.N,/MIDI_RXd*%
X147760000Y-45550000D03*
%TO.P,U11,6*%
%TO.N,unconnected-(U11-Pad6)*%
X145220000Y-45550000D03*
%TD*%
D11*
%TO.P,R16,1*%
%TO.N,/MIDI_TXd*%
X153900000Y-49612500D03*
%TO.P,R16,2*%
%TO.N,Net-(J10-PadT)*%
X153900000Y-47787500D03*
%TD*%
D13*
%TO.P,J3,R*%
%TO.N,+3V3d*%
X99700000Y-33885000D03*
%TO.P,J3,RN*%
%TO.N,unconnected-(J3-PadRN)*%
X83470000Y-33885000D03*
%TO.P,J3,S*%
%TO.N,GNDDd*%
X99700000Y-27535000D03*
%TO.P,J3,SN*%
X83470000Y-27535000D03*
%TO.P,J3,T*%
%TO.N,/VOL_1d*%
X99700000Y-40235000D03*
%TO.P,J3,TN*%
%TO.N,/VOL_2d*%
X83470000Y-40235000D03*
%TD*%
D19*
%TO.N,Net-(C32-Pad2)*%
X125500000Y-47000000D03*
%TO.N,/MIDI_TXd*%
X97700000Y-54900000D03*
D20*
%TO.N,GNDd*%
X137775000Y-42510000D03*
X142275000Y-38010000D03*
X115275000Y-56010000D03*
X182775000Y-42510000D03*
X164775000Y-38010000D03*
X155775000Y-38010000D03*
X191775000Y-38010000D03*
X88275000Y-42510000D03*
X146775000Y-42510000D03*
X196275000Y-56010000D03*
X110775000Y-33510000D03*
X133275000Y-33510000D03*
X196275000Y-47010000D03*
X196275000Y-33510000D03*
X115275000Y-42510000D03*
X155775000Y-29010000D03*
X196275000Y-29010000D03*
X119775000Y-51510000D03*
X187275000Y-56010000D03*
X160275000Y-42510000D03*
X191775000Y-56010000D03*
X74775000Y-33510000D03*
X196275000Y-51510000D03*
X160275000Y-38010000D03*
X173775000Y-38010000D03*
X97275000Y-33510000D03*
X115275000Y-47010000D03*
X137775000Y-38010000D03*
X79275000Y-38010000D03*
X173775000Y-47010000D03*
X164775000Y-56010000D03*
X128775000Y-56010000D03*
X178275000Y-38010000D03*
X65775000Y-42510000D03*
X106275000Y-56010000D03*
X191775000Y-29010000D03*
X119775000Y-56010000D03*
X164775000Y-47010000D03*
X88275000Y-29010000D03*
X74775000Y-47010000D03*
X79275000Y-42510000D03*
X128775000Y-33510000D03*
X110775000Y-47010000D03*
X70275000Y-33510000D03*
X101775000Y-56010000D03*
X142275000Y-42510000D03*
X65775000Y-47010000D03*
X97275000Y-29010000D03*
X133275000Y-38010000D03*
X187275000Y-38010000D03*
X178275000Y-33510000D03*
X110775000Y-56010000D03*
X164775000Y-33510000D03*
X164775000Y-29010000D03*
X133275000Y-56010000D03*
X169275000Y-42510000D03*
X182775000Y-56010000D03*
X70275000Y-42510000D03*
X182775000Y-38010000D03*
X142275000Y-33510000D03*
X92775000Y-33510000D03*
X191775000Y-51510000D03*
X146775000Y-56010000D03*
X70275000Y-47010000D03*
X178275000Y-56010000D03*
X191775000Y-33510000D03*
X106275000Y-33510000D03*
X133275000Y-47010000D03*
X128775000Y-42510000D03*
X106275000Y-47010000D03*
X169275000Y-29010000D03*
X182775000Y-47010000D03*
X155775000Y-33510000D03*
X92775000Y-42510000D03*
X173775000Y-56010000D03*
X92775000Y-29010000D03*
X88275000Y-33510000D03*
X124275000Y-42510000D03*
X155775000Y-47010000D03*
X70275000Y-38010000D03*
X115275000Y-33510000D03*
X70275000Y-51510000D03*
X187275000Y-29010000D03*
X119775000Y-42510000D03*
X169275000Y-33510000D03*
X137775000Y-56010000D03*
X155775000Y-42510000D03*
X155775000Y-56010000D03*
X88275000Y-47010000D03*
X187275000Y-33510000D03*
X70275000Y-29010000D03*
X142275000Y-56010000D03*
X97275000Y-42510000D03*
X178275000Y-29010000D03*
X74775000Y-42510000D03*
X65775000Y-56010000D03*
X178275000Y-42510000D03*
X74775000Y-29010000D03*
X178275000Y-47010000D03*
X124275000Y-56010000D03*
X92775000Y-56010000D03*
X128775000Y-47010000D03*
X110775000Y-42510000D03*
X187275000Y-42510000D03*
X101775000Y-42510000D03*
X124275000Y-51510000D03*
X169275000Y-56010000D03*
X74775000Y-38010000D03*
D19*
%TO.N,Net-(C33-Pad2)*%
X103400000Y-50800000D03*
%TD*%
D21*
%TO.N,Net-(C33-Pad2)*%
X103375000Y-50775000D02*
X103400000Y-50800000D01*
X103375000Y-47000000D02*
X103375000Y-50775000D01*
D22*
%TO.N,+3V3d*%
X107275000Y-37100000D02*
X107975000Y-37800000D01*
D23*
%TO.N,GNDDd*%
X72640000Y-55300000D02*
X67500000Y-55300000D01*
D22*
%TO.N,+3V3d*%
X97800000Y-37100000D02*
X98950000Y-37100000D01*
X97800000Y-37100000D02*
X82915000Y-37100000D01*
X108675000Y-37100000D02*
X107975000Y-37800000D01*
X111200000Y-37100000D02*
X108675000Y-37100000D01*
X139185000Y-49685000D02*
X150510000Y-49685000D01*
D21*
%TO.N,GNDDd*%
X150510000Y-47785000D02*
X150510000Y-45760000D01*
D22*
%TO.N,+3V3d*%
X107975000Y-37100000D02*
X111200000Y-37100000D01*
X80260000Y-52760000D02*
X80260000Y-50840000D01*
X80260000Y-50840000D02*
X87300000Y-43800000D01*
X111200000Y-37100000D02*
X126600000Y-37100000D01*
X99750000Y-37100000D02*
X97800000Y-37100000D01*
X107975000Y-37100000D02*
X107200000Y-37100000D01*
X87300000Y-43800000D02*
X105200000Y-43800000D01*
X99750000Y-37100000D02*
X99700000Y-37050000D01*
D23*
%TO.N,GNDDd*%
X63470000Y-27535000D02*
X66400000Y-30465000D01*
X66400000Y-37305000D02*
X63470000Y-40235000D01*
X63470000Y-27535000D02*
X99700000Y-27535000D01*
D22*
%TO.N,+3V3d*%
X107200000Y-37100000D02*
X100950000Y-37100000D01*
X107975000Y-41025000D02*
X105200000Y-43800000D01*
X100950000Y-37100000D02*
X99750000Y-37100000D01*
X107975000Y-41025000D02*
X107975000Y-37800000D01*
X82915000Y-37100000D02*
X79700000Y-33885000D01*
D23*
%TO.N,GNDDd*%
X63470000Y-51270000D02*
X63470000Y-40235000D01*
D22*
%TO.N,+3V3d*%
X100950000Y-37100000D02*
X100450000Y-37100000D01*
D23*
%TO.N,GNDDd*%
X67500000Y-55300000D02*
X63470000Y-51270000D01*
D21*
%TO.N,Net-(C32-Pad2)*%
X123375000Y-47000000D02*
X125500000Y-47000000D01*
D22*
%TO.N,+3V3d*%
X99700000Y-36350000D02*
X99700000Y-33885000D01*
X107200000Y-37100000D02*
X107275000Y-37100000D01*
X98950000Y-37100000D02*
X99700000Y-36350000D01*
D21*
%TO.N,/R_INd*%
X151585000Y-57000000D02*
X174700000Y-33885000D01*
%TO.N,/L_INd*%
X83800000Y-59200000D02*
X155735000Y-59200000D01*
%TO.N,/R_INd*%
X84100000Y-54060000D02*
X84100000Y-56200000D01*
%TO.N,Net-(R18-Pad2)*%
X145260000Y-35647500D02*
X145260000Y-37890000D01*
%TO.N,/R_OUTd*%
X90420000Y-52760000D02*
X90980000Y-52200000D01*
%TO.N,/R_INd*%
X82800000Y-52760000D02*
X84100000Y-54060000D01*
%TO.N,/L_OUTd*%
X87880000Y-52760000D02*
X93640000Y-47000000D01*
%TO.N,/R_OUTd*%
X114825000Y-52200000D02*
X120025000Y-47000000D01*
X90980000Y-52200000D02*
X114825000Y-52200000D01*
%TO.N,/L_INd*%
X81500000Y-56900000D02*
X83800000Y-59200000D01*
X81500000Y-52200098D02*
X81500000Y-56900000D01*
X82200098Y-51500000D02*
X81500000Y-52200098D01*
X155735000Y-59200000D02*
X174700000Y-40235000D01*
X85340000Y-52760000D02*
X84080000Y-51500000D01*
%TO.N,/R_INd*%
X84900000Y-57000000D02*
X151585000Y-57000000D01*
X84100000Y-56200000D02*
X84900000Y-57000000D01*
%TO.N,Net-(J11-PadR)*%
X145260000Y-33822500D02*
X142237500Y-30800000D01*
X142237500Y-30800000D02*
X122785000Y-30800000D01*
%TO.N,/VOL_1d*%
X88315000Y-40235000D02*
X77720000Y-50830000D01*
X77720000Y-50830000D02*
X77720000Y-52760000D01*
%TO.N,/VOL_2d*%
X83470000Y-40235000D02*
X83470000Y-42330000D01*
X76450000Y-49350000D02*
X76450000Y-54030000D01*
X76450000Y-54030000D02*
X75180000Y-55300000D01*
D22*
%TO.N,+3V3d*%
X126600000Y-37100000D02*
X139185000Y-49685000D01*
D21*
%TO.N,/VOL_2d*%
X83470000Y-42330000D02*
X76450000Y-49350000D01*
%TO.N,Net-(J10-PadR)*%
X140700000Y-47787500D02*
X136400000Y-43487500D01*
X144400000Y-47787500D02*
X140700000Y-47787500D01*
X136400000Y-43487500D02*
X136400000Y-37185000D01*
%TO.N,/MIDI_TXd*%
X97700000Y-54900000D02*
X148612500Y-54900000D01*
%TO.N,Net-(J10-PadR)*%
X136400000Y-37185000D02*
X139700000Y-33885000D01*
D22*
%TO.N,+3V3d*%
X99700000Y-37050000D02*
X99700000Y-36350000D01*
D21*
%TO.N,Net-(J10-PadT)*%
X149035000Y-40235000D02*
X153900000Y-45100000D01*
%TO.N,/MIDI_TXd*%
X153900000Y-49612500D02*
X148612500Y-54900000D01*
%TO.N,/L_OUTd*%
X93640000Y-47000000D02*
X100025000Y-47000000D01*
%TO.N,Net-(J11-PadR)*%
X122785000Y-30800000D02*
X119700000Y-33885000D01*
%TO.N,Net-(J10-PadT)*%
X139700000Y-40235000D02*
X149035000Y-40235000D01*
D22*
%TO.N,+3V3d*%
X107975000Y-37800000D02*
X107975000Y-37100000D01*
D23*
%TO.N,GNDDd*%
X66400000Y-30465000D02*
X66400000Y-37305000D01*
D21*
%TO.N,/VOL_1d*%
X99700000Y-40235000D02*
X88315000Y-40235000D01*
%TO.N,/L_INd*%
X84080000Y-51500000D02*
X82200098Y-51500000D01*
%TO.N,Net-(J10-PadT)*%
X153900000Y-45100000D02*
X153900000Y-47787500D01*
%TO.N,/MIDI_RXd*%
X147760000Y-47822500D02*
X147760000Y-45550000D01*
D22*
%TO.N,+3V3d*%
X100450000Y-37100000D02*
X99700000Y-36350000D01*
%TD*%
%TA.AperFunction,Conductor*%
%TO.N,Net-(C32-Pad2)*%
G36*
X124547629Y-46231786D02*
G01*
X124549324Y-46235781D01*
X124549389Y-46236080D01*
X124572188Y-46306115D01*
X124572191Y-46306123D01*
X124605470Y-46372332D01*
X124655131Y-46443573D01*
X124655135Y-46443578D01*
X124715264Y-46509456D01*
X124715266Y-46509458D01*
X124715271Y-46509463D01*
X124796280Y-46579366D01*
X124886240Y-46641527D01*
X124886246Y-46641531D01*
X124995281Y-46702245D01*
X125107985Y-46752374D01*
X125148128Y-46766352D01*
X125222509Y-46792255D01*
X125332105Y-46820347D01*
X125489661Y-46838789D01*
X125497479Y-46843155D01*
X125500000Y-46850410D01*
X125500000Y-47149167D01*
X125496573Y-47157440D01*
X125489199Y-47160832D01*
X125399856Y-47167717D01*
X125330514Y-47181116D01*
X125295848Y-47187815D01*
X125295845Y-47187815D01*
X125295844Y-47187816D01*
X125183974Y-47219976D01*
X125183962Y-47219980D01*
X124973220Y-47308971D01*
X124973218Y-47308973D01*
X124800043Y-47417755D01*
X124800037Y-47417759D01*
X124672895Y-47535240D01*
X124672892Y-47535244D01*
X124589543Y-47656454D01*
X124589541Y-47656458D01*
X124550672Y-47766775D01*
X124544691Y-47773439D01*
X124535749Y-47773922D01*
X124533148Y-47772623D01*
X123388605Y-47009735D01*
X123383622Y-47002296D01*
X123385359Y-46993511D01*
X123388604Y-46990265D01*
X124531405Y-46228538D01*
X124540189Y-46226802D01*
X124547629Y-46231786D01*
G37*
%TD.AperFunction*%
%TD*%
%TA.AperFunction,Conductor*%
%TO.N,/MIDI_RXd*%
G36*
X147766507Y-45553357D02*
G01*
X148415066Y-45987685D01*
X148420034Y-45995135D01*
X148418277Y-46003916D01*
X148418015Y-46004292D01*
X148200212Y-46303494D01*
X148200193Y-46303520D01*
X148067860Y-46484269D01*
X147989381Y-46634309D01*
X147989378Y-46634316D01*
X147961083Y-46720766D01*
X147961080Y-46720778D01*
X147940249Y-46820217D01*
X147925031Y-46961428D01*
X147920330Y-47123268D01*
X147916664Y-47131438D01*
X147908635Y-47134628D01*
X147611396Y-47134628D01*
X147603123Y-47131201D01*
X147599700Y-47123236D01*
X147595789Y-46974787D01*
X147595788Y-46974765D01*
X147583061Y-46842262D01*
X147583058Y-46842241D01*
X147561673Y-46731395D01*
X147561672Y-46731393D01*
X147561670Y-46731380D01*
X147531477Y-46636497D01*
X147492337Y-46551936D01*
X147444107Y-46472031D01*
X147319808Y-46303521D01*
X147101983Y-46004291D01*
X147099885Y-45995586D01*
X147104557Y-45987947D01*
X147104889Y-45987715D01*
X147753491Y-45553358D01*
X147762271Y-45551602D01*
X147766507Y-45553357D01*
G37*
%TD.AperFunction*%
%TD*%
%TA.AperFunction,Conductor*%
%TO.N,GNDDd*%
G36*
X151072685Y-45703681D02*
G01*
X151080124Y-45708665D01*
X151081860Y-45717450D01*
X151081759Y-45717909D01*
X151033750Y-45915986D01*
X151033455Y-45917001D01*
X150976697Y-46083709D01*
X150976338Y-46084633D01*
X150916629Y-46220922D01*
X150916356Y-46221501D01*
X150856680Y-46339667D01*
X150856658Y-46339710D01*
X150813118Y-46425061D01*
X150813114Y-46425068D01*
X150736464Y-46608866D01*
X150709314Y-46706610D01*
X150709313Y-46706614D01*
X150688460Y-46819174D01*
X150674809Y-46953611D01*
X150674808Y-46953622D01*
X150670344Y-47100944D01*
X150666668Y-47109110D01*
X150658649Y-47112290D01*
X150361200Y-47112290D01*
X150352927Y-47108863D01*
X150349511Y-47101100D01*
X150343773Y-46969655D01*
X150325717Y-46850980D01*
X150296767Y-46752195D01*
X150257862Y-46669230D01*
X150209936Y-46598016D01*
X150153928Y-46534483D01*
X150021407Y-46414179D01*
X149954502Y-46356128D01*
X149953964Y-46355631D01*
X149787563Y-46191911D01*
X149786512Y-46190726D01*
X149642480Y-46004363D01*
X149640133Y-45995722D01*
X149644583Y-45987952D01*
X149645215Y-45987497D01*
X150295961Y-45551704D01*
X150304738Y-45549948D01*
X151072685Y-45703681D01*
G37*
%TD.AperFunction*%
%TD*%
%TA.AperFunction,Conductor*%
%TO.N,GNDDd*%
G36*
X83814501Y-28240155D02*
G01*
X83817009Y-28248752D01*
X83814798Y-28254420D01*
X83795971Y-28279978D01*
X83794978Y-28281156D01*
X83641997Y-28439980D01*
X83640360Y-28441391D01*
X83537459Y-28514717D01*
X83533981Y-28516410D01*
X83477410Y-28533107D01*
X83475949Y-28532952D01*
X83474616Y-28533575D01*
X83471646Y-28532495D01*
X83468505Y-28532163D01*
X83467580Y-28531018D01*
X83466199Y-28530517D01*
X83464861Y-28527653D01*
X83462877Y-28525198D01*
X83463031Y-28523737D01*
X83462409Y-28522404D01*
X83463487Y-28519434D01*
X83463821Y-28516293D01*
X83465462Y-28513992D01*
X83471000Y-28507943D01*
X83496516Y-28480065D01*
X83497828Y-28478838D01*
X83666059Y-28344351D01*
X83798054Y-28238357D01*
X83806649Y-28235850D01*
X83814501Y-28240155D01*
G37*
%TD.AperFunction*%
%TA.AperFunction,Conductor*%
G36*
X83970005Y-27136271D02*
G01*
X84051182Y-27144309D01*
X84054539Y-27145157D01*
X84124705Y-27174546D01*
X84142179Y-27181865D01*
X84145441Y-27183921D01*
X84177136Y-27212155D01*
X84178981Y-27214242D01*
X84202867Y-27248829D01*
X84204161Y-27251281D01*
X84222597Y-27299255D01*
X84223236Y-27301649D01*
X84231843Y-27356826D01*
X84231979Y-27358941D01*
X84229918Y-27436211D01*
X84229745Y-27437927D01*
X84214759Y-27523078D01*
X84214435Y-27524436D01*
X84180304Y-27637326D01*
X84179922Y-27638400D01*
X84131050Y-27756930D01*
X84130657Y-27757783D01*
X84060069Y-27896262D01*
X84059669Y-27896982D01*
X84033333Y-27940739D01*
X84026131Y-27946061D01*
X84018248Y-27945255D01*
X84006930Y-27939824D01*
X84006928Y-27939823D01*
X84006927Y-27939823D01*
X83967738Y-27936024D01*
X83959834Y-27931815D01*
X83957167Y-27924379D01*
X83957167Y-27147915D01*
X83960594Y-27139642D01*
X83968867Y-27136215D01*
X83970005Y-27136271D01*
G37*
%TD.AperFunction*%
%TD*%
%TA.AperFunction,Conductor*%
%TO.N,+3V3d*%
G36*
X149948457Y-49212319D02*
G01*
X149951260Y-49214068D01*
X150500358Y-49676047D01*
X150504483Y-49683996D01*
X150501779Y-49692532D01*
X150500358Y-49693953D01*
X149950479Y-50156589D01*
X149941943Y-50159293D01*
X149933994Y-50155168D01*
X149932578Y-50153056D01*
X149905872Y-50101969D01*
X149855279Y-50055721D01*
X149855277Y-50055720D01*
X149791224Y-50024603D01*
X149717367Y-50005987D01*
X149676764Y-50003432D01*
X149554958Y-49995767D01*
X149554956Y-49995767D01*
X149554955Y-49995767D01*
X149554952Y-49995767D01*
X149397421Y-50004060D01*
X149397421Y-50004061D01*
X149383043Y-50004820D01*
X149297317Y-50009349D01*
X149288875Y-50006363D01*
X149285016Y-49998282D01*
X149285000Y-49997665D01*
X149285000Y-49372334D01*
X149288427Y-49364061D01*
X149296700Y-49360634D01*
X149297291Y-49360649D01*
X149397421Y-49365939D01*
X149553906Y-49374216D01*
X149712424Y-49364835D01*
X149821972Y-49332867D01*
X149895181Y-49280622D01*
X149920814Y-49245927D01*
X149933026Y-49218291D01*
X149939505Y-49212110D01*
X149948457Y-49212319D01*
G37*
%TD.AperFunction*%
%TD*%
%TA.AperFunction,Conductor*%
%TO.N,/L_OUTd*%
G36*
X88965434Y-51464370D02*
G01*
X89175617Y-51674553D01*
X89179044Y-51682826D01*
X89175839Y-51690871D01*
X89067844Y-51804906D01*
X88978786Y-51913459D01*
X88978774Y-51913475D01*
X88912392Y-52012464D01*
X88912387Y-52012473D01*
X88864573Y-52106099D01*
X88864567Y-52106114D01*
X88831230Y-52198569D01*
X88808280Y-52294038D01*
X88808278Y-52294048D01*
X88777168Y-52510763D01*
X88769076Y-52576643D01*
X88769018Y-52577051D01*
X88715571Y-52913824D01*
X88710890Y-52921458D01*
X88702182Y-52923545D01*
X88701745Y-52923467D01*
X87886978Y-52762227D01*
X87879527Y-52757260D01*
X87877772Y-52753021D01*
X87829830Y-52510763D01*
X87716502Y-51938103D01*
X87718257Y-51929325D01*
X87725708Y-51924358D01*
X87725948Y-51924312D01*
X87942441Y-51887172D01*
X87942885Y-51887105D01*
X88129216Y-51862834D01*
X88381533Y-51824262D01*
X88381540Y-51824259D01*
X88381543Y-51824259D01*
X88440387Y-51804906D01*
X88545233Y-51770424D01*
X88628991Y-51726746D01*
X88717075Y-51668221D01*
X88717076Y-51668219D01*
X88717078Y-51668219D01*
X88761081Y-51632544D01*
X88829822Y-51576815D01*
X88949131Y-51464135D01*
X88957495Y-51460948D01*
X88965434Y-51464370D01*
G37*
%TD.AperFunction*%
%TD*%
%TA.AperFunction,Conductor*%
%TO.N,+3V3d*%
G36*
X81175500Y-33957375D02*
G01*
X81183593Y-33961207D01*
X81186607Y-33969620D01*
X81184170Y-34020498D01*
X81184170Y-34020509D01*
X81180380Y-34309108D01*
X81204592Y-34546849D01*
X81204594Y-34546859D01*
X81260984Y-34765474D01*
X81354849Y-34978059D01*
X81354850Y-34978061D01*
X81417922Y-35084294D01*
X81417925Y-35084297D01*
X81493881Y-35192371D01*
X81583658Y-35302142D01*
X81680747Y-35405618D01*
X81683909Y-35413995D01*
X81680488Y-35421896D01*
X81236687Y-35865697D01*
X81228414Y-35869124D01*
X81220637Y-35866165D01*
X81028007Y-35694775D01*
X80833391Y-35562473D01*
X80833380Y-35562467D01*
X80644604Y-35469965D01*
X80644596Y-35469961D01*
X80461204Y-35410613D01*
X80461197Y-35410611D01*
X80282780Y-35377793D01*
X80108881Y-35364868D01*
X80108879Y-35364868D01*
X80092170Y-35365231D01*
X79784330Y-35371919D01*
X79775984Y-35368673D01*
X79772390Y-35360801D01*
X79764052Y-35192371D01*
X79699931Y-33897194D01*
X79702945Y-33888763D01*
X79711038Y-33884931D01*
X79712180Y-33884931D01*
X81175500Y-33957375D01*
G37*
%TD.AperFunction*%
%TD*%
%TA.AperFunction,Conductor*%
%TO.N,/R_OUTd*%
G36*
X90937992Y-51992883D02*
G01*
X91184755Y-52026905D01*
X91355562Y-52035991D01*
X91414361Y-52039120D01*
X91414367Y-52039120D01*
X91414403Y-52039122D01*
X91715223Y-52040253D01*
X91877267Y-52040017D01*
X91885545Y-52043432D01*
X91888984Y-52051700D01*
X91888984Y-52348995D01*
X91885557Y-52357268D01*
X91878000Y-52360673D01*
X91757923Y-52368038D01*
X91757919Y-52368038D01*
X91757917Y-52368039D01*
X91694662Y-52382140D01*
X91652892Y-52391453D01*
X91569766Y-52429184D01*
X91504381Y-52480182D01*
X91504375Y-52480188D01*
X91452588Y-52543391D01*
X91410250Y-52617743D01*
X91410249Y-52617746D01*
X91353208Y-52756905D01*
X91337315Y-52795677D01*
X91337306Y-52795698D01*
X91239376Y-53033279D01*
X91238738Y-53034588D01*
X91132953Y-53221285D01*
X91125894Y-53226793D01*
X91117006Y-53225696D01*
X91116280Y-53225249D01*
X90425515Y-52764347D01*
X90420535Y-52756905D01*
X90420535Y-52752324D01*
X90583556Y-51937681D01*
X90588539Y-51930243D01*
X90597200Y-51928482D01*
X90937992Y-51992883D01*
G37*
%TD.AperFunction*%
%TD*%
%TA.AperFunction,Conductor*%
%TO.N,GNDDd*%
G36*
X150667149Y-46788427D02*
G01*
X150670561Y-46796110D01*
X150672372Y-46831956D01*
X150704748Y-46990001D01*
X150704748Y-46990004D01*
X150762234Y-47123206D01*
X150762235Y-47123208D01*
X150762236Y-47123209D01*
X150833668Y-47215780D01*
X150915373Y-47270471D01*
X150988636Y-47285569D01*
X150996047Y-47290595D01*
X150997733Y-47299390D01*
X150994514Y-47305334D01*
X150518240Y-47777825D01*
X150509953Y-47781219D01*
X150501760Y-47777825D01*
X150026719Y-47306558D01*
X150023259Y-47298299D01*
X150026653Y-47290012D01*
X150033315Y-47286669D01*
X150075801Y-47280651D01*
X150126798Y-47259707D01*
X150171896Y-47228689D01*
X150220602Y-47178105D01*
X150260789Y-47117931D01*
X150300984Y-47031337D01*
X150328589Y-46942281D01*
X150348622Y-46795121D01*
X150353133Y-46787387D01*
X150360215Y-46785000D01*
X150658876Y-46785000D01*
X150667149Y-46788427D01*
G37*
%TD.AperFunction*%
%TD*%
%TA.AperFunction,Conductor*%
%TO.N,/R_INd*%
G36*
X174696236Y-33887945D02*
G01*
X174700068Y-33896038D01*
X174700068Y-33897196D01*
X174627642Y-35360144D01*
X174623810Y-35368237D01*
X174615377Y-35371251D01*
X174615045Y-35371230D01*
X174541051Y-35365453D01*
X174389270Y-35353605D01*
X174389254Y-35353603D01*
X174389217Y-35353601D01*
X174389217Y-35353600D01*
X174083542Y-35332512D01*
X174083541Y-35332512D01*
X174074393Y-35332891D01*
X173853829Y-35342039D01*
X173648667Y-35383371D01*
X173648664Y-35383372D01*
X173452571Y-35460766D01*
X173452567Y-35460768D01*
X173355214Y-35515033D01*
X173256568Y-35581636D01*
X173156251Y-35661922D01*
X173062708Y-35749126D01*
X173054320Y-35752261D01*
X173046457Y-35748841D01*
X172835942Y-35538326D01*
X172832515Y-35530053D01*
X172835441Y-35522313D01*
X172889730Y-35460768D01*
X172985541Y-35352152D01*
X173100107Y-35178187D01*
X173177990Y-35008091D01*
X173225312Y-34841296D01*
X173248192Y-34677231D01*
X173252752Y-34515328D01*
X173240461Y-34331412D01*
X173231400Y-34195797D01*
X173231395Y-34195731D01*
X173213769Y-33969951D01*
X173216542Y-33961439D01*
X173224523Y-33957378D01*
X173224794Y-33957360D01*
X174687805Y-33884931D01*
X174696236Y-33887945D01*
G37*
%TD.AperFunction*%
%TD*%
%TA.AperFunction,Conductor*%
%TO.N,/L_OUTd*%
G36*
X98866848Y-46227374D02*
G01*
X99399243Y-46582239D01*
X100011393Y-46990264D01*
X100016377Y-46997704D01*
X100014640Y-47006489D01*
X100011393Y-47009736D01*
X98868595Y-47771460D01*
X98859810Y-47773197D01*
X98852370Y-47768213D01*
X98850673Y-47764206D01*
X98850611Y-47763922D01*
X98827808Y-47693875D01*
X98794527Y-47627662D01*
X98744867Y-47556423D01*
X98684729Y-47490537D01*
X98603720Y-47420634D01*
X98513760Y-47358473D01*
X98513761Y-47358473D01*
X98513753Y-47358468D01*
X98404718Y-47297754D01*
X98292015Y-47247625D01*
X98177497Y-47207747D01*
X98177496Y-47207746D01*
X98177491Y-47207745D01*
X98067896Y-47179653D01*
X98067895Y-47179652D01*
X98067892Y-47179652D01*
X97910340Y-47161210D01*
X97902521Y-47156844D01*
X97900000Y-47149589D01*
X97900000Y-46850832D01*
X97903427Y-46842559D01*
X97910799Y-46839167D01*
X97967974Y-46834761D01*
X98000144Y-46832282D01*
X98000146Y-46832281D01*
X98000153Y-46832281D01*
X98104153Y-46812185D01*
X98216023Y-46780024D01*
X98216030Y-46780020D01*
X98216039Y-46780018D01*
X98426780Y-46691028D01*
X98426781Y-46691027D01*
X98599959Y-46582243D01*
X98727107Y-46464757D01*
X98810458Y-46343542D01*
X98849328Y-46233222D01*
X98855308Y-46226560D01*
X98864250Y-46226077D01*
X98866848Y-46227374D01*
G37*
%TD.AperFunction*%
%TD*%
%TA.AperFunction,Conductor*%
%TO.N,GNDDd*%
G36*
X72471285Y-54470505D02*
G01*
X72476465Y-54477810D01*
X72476530Y-54478114D01*
X72640540Y-55297704D01*
X72640540Y-55302296D01*
X72476558Y-56121748D01*
X72471574Y-56129188D01*
X72462789Y-56130925D01*
X72462354Y-56130829D01*
X72249340Y-56079689D01*
X72248379Y-56079414D01*
X72069269Y-56019849D01*
X72068393Y-56019518D01*
X71921659Y-55957287D01*
X71921108Y-55957037D01*
X71793771Y-55895079D01*
X71793773Y-55895074D01*
X71793751Y-55895069D01*
X71687918Y-55843337D01*
X71687915Y-55843336D01*
X71493014Y-55766712D01*
X71408540Y-55744669D01*
X71388433Y-55739422D01*
X71268297Y-55718508D01*
X71268285Y-55718506D01*
X71268276Y-55718505D01*
X71124961Y-55704814D01*
X71124946Y-55704813D01*
X70967699Y-55700324D01*
X70959527Y-55696663D01*
X70956333Y-55688629D01*
X70956333Y-54911085D01*
X70959760Y-54902812D01*
X70967401Y-54899402D01*
X71245760Y-54884369D01*
X71245765Y-54884368D01*
X71245766Y-54884368D01*
X71463091Y-54842061D01*
X71463092Y-54842061D01*
X71463093Y-54842060D01*
X71463096Y-54842060D01*
X71636409Y-54779952D01*
X71793770Y-54704921D01*
X71926219Y-54640598D01*
X71926990Y-54640260D01*
X72169291Y-54544809D01*
X72170265Y-54544476D01*
X72309414Y-54503901D01*
X72310043Y-54503737D01*
X72462459Y-54469002D01*
X72471285Y-54470505D01*
G37*
%TD.AperFunction*%
%TD*%
%TA.AperFunction,Conductor*%
%TO.N,/VOL_2d*%
G36*
X83477464Y-40243928D02*
G01*
X83478206Y-40244870D01*
X84328496Y-41444102D01*
X84330486Y-41452833D01*
X84326417Y-41459878D01*
X84192208Y-41571074D01*
X84192200Y-41571082D01*
X84075248Y-41700045D01*
X83972404Y-41840874D01*
X83972393Y-41840890D01*
X83872179Y-41994562D01*
X83872172Y-41994573D01*
X83749298Y-42182518D01*
X83748896Y-42183094D01*
X83548081Y-42453359D01*
X83547355Y-42454243D01*
X83314086Y-42711344D01*
X83305989Y-42715168D01*
X83297559Y-42712147D01*
X83297148Y-42711755D01*
X83087322Y-42501929D01*
X83083895Y-42493656D01*
X83086812Y-42485927D01*
X83142664Y-42422487D01*
X83188080Y-42352178D01*
X83217071Y-42283214D01*
X83230906Y-42215571D01*
X83230849Y-42149225D01*
X83218167Y-42084152D01*
X83194126Y-42020327D01*
X83180078Y-41994562D01*
X83159992Y-41957724D01*
X83066512Y-41836102D01*
X83066499Y-41836087D01*
X82947850Y-41719077D01*
X82947842Y-41719070D01*
X82675492Y-41498056D01*
X82485687Y-41347332D01*
X82484892Y-41346641D01*
X82358020Y-41225754D01*
X82354394Y-41217566D01*
X82357620Y-41209212D01*
X82358365Y-41208497D01*
X83460954Y-40242834D01*
X83469435Y-40239963D01*
X83477464Y-40243928D01*
G37*
%TD.AperFunction*%
%TD*%
%TA.AperFunction,Conductor*%
%TO.N,/L_INd*%
G36*
X174696236Y-40237945D02*
G01*
X174700068Y-40246038D01*
X174700068Y-40247196D01*
X174627642Y-41710144D01*
X174623810Y-41718237D01*
X174615377Y-41721251D01*
X174615045Y-41721230D01*
X174541051Y-41715453D01*
X174389270Y-41703605D01*
X174389254Y-41703603D01*
X174389217Y-41703601D01*
X174389217Y-41703600D01*
X174083542Y-41682512D01*
X174083541Y-41682512D01*
X174074393Y-41682891D01*
X173853829Y-41692039D01*
X173648667Y-41733371D01*
X173648664Y-41733372D01*
X173452571Y-41810766D01*
X173452567Y-41810768D01*
X173355214Y-41865033D01*
X173256568Y-41931636D01*
X173156251Y-42011922D01*
X173062708Y-42099126D01*
X173054320Y-42102261D01*
X173046457Y-42098841D01*
X172835942Y-41888326D01*
X172832515Y-41880053D01*
X172835441Y-41872313D01*
X172889730Y-41810768D01*
X172985541Y-41702152D01*
X173100107Y-41528187D01*
X173177990Y-41358091D01*
X173225312Y-41191296D01*
X173248192Y-41027231D01*
X173252752Y-40865328D01*
X173240461Y-40681412D01*
X173231400Y-40545797D01*
X173231395Y-40545731D01*
X173213769Y-40319951D01*
X173216542Y-40311439D01*
X173224523Y-40307378D01*
X173224794Y-40307360D01*
X174687805Y-40234931D01*
X174696236Y-40237945D01*
G37*
%TD.AperFunction*%
%TD*%
%TA.AperFunction,Conductor*%
%TO.N,Net-(J10-PadT)*%
G36*
X154057244Y-46765927D02*
G01*
X154060651Y-46773510D01*
X154063355Y-46819262D01*
X154098529Y-46980347D01*
X154158689Y-47115728D01*
X154158689Y-47115729D01*
X154195288Y-47162535D01*
X154232579Y-47210226D01*
X154316396Y-47266512D01*
X154391282Y-47282812D01*
X154398637Y-47287920D01*
X154400226Y-47296732D01*
X154396973Y-47302610D01*
X153908179Y-47780503D01*
X153899868Y-47783836D01*
X153891821Y-47780503D01*
X153403886Y-47303452D01*
X153400366Y-47295218D01*
X153403699Y-47286907D01*
X153410083Y-47283556D01*
X153462500Y-47274562D01*
X153514416Y-47250688D01*
X153537389Y-47233699D01*
X153560356Y-47216716D01*
X153560362Y-47216711D01*
X153609946Y-47162537D01*
X153650859Y-47098970D01*
X153691134Y-47009998D01*
X153718838Y-46919246D01*
X153738632Y-46772635D01*
X153743135Y-46764894D01*
X153750227Y-46762500D01*
X154048971Y-46762500D01*
X154057244Y-46765927D01*
G37*
%TD.AperFunction*%
%TD*%
%TA.AperFunction,Conductor*%
%TO.N,Net-(J10-PadR)*%
G36*
X139696236Y-33887945D02*
G01*
X139700068Y-33896038D01*
X139700068Y-33897196D01*
X139627642Y-35360144D01*
X139623810Y-35368237D01*
X139615377Y-35371251D01*
X139615045Y-35371230D01*
X139541051Y-35365453D01*
X139389270Y-35353605D01*
X139389254Y-35353603D01*
X139389217Y-35353601D01*
X139389217Y-35353600D01*
X139083542Y-35332512D01*
X139083541Y-35332512D01*
X139074393Y-35332891D01*
X138853829Y-35342039D01*
X138648667Y-35383371D01*
X138648664Y-35383372D01*
X138452571Y-35460766D01*
X138452567Y-35460768D01*
X138355214Y-35515033D01*
X138256568Y-35581636D01*
X138156251Y-35661922D01*
X138062708Y-35749126D01*
X138054320Y-35752261D01*
X138046457Y-35748841D01*
X137835942Y-35538326D01*
X137832515Y-35530053D01*
X137835441Y-35522313D01*
X137889730Y-35460768D01*
X137985541Y-35352152D01*
X138100107Y-35178187D01*
X138177990Y-35008091D01*
X138225312Y-34841296D01*
X138248192Y-34677231D01*
X138252752Y-34515328D01*
X138240461Y-34331412D01*
X138231400Y-34195797D01*
X138231395Y-34195731D01*
X138213769Y-33969951D01*
X138216542Y-33961439D01*
X138224523Y-33957378D01*
X138224794Y-33957360D01*
X139687805Y-33884931D01*
X139696236Y-33887945D01*
G37*
%TD.AperFunction*%
%TD*%
%TA.AperFunction,Conductor*%
%TO.N,/R_OUTd*%
G36*
X120025361Y-47002806D02*
G01*
X120029189Y-47007726D01*
X120350150Y-47784938D01*
X120350141Y-47793893D01*
X120343802Y-47800218D01*
X120340110Y-47801078D01*
X120170004Y-47812357D01*
X120169983Y-47812359D01*
X120169982Y-47812360D01*
X120148585Y-47815982D01*
X120022213Y-47837379D01*
X120022212Y-47837379D01*
X119872711Y-47874246D01*
X119707489Y-47927055D01*
X119707469Y-47927062D01*
X119545017Y-47990508D01*
X119544968Y-47990528D01*
X119379929Y-48066482D01*
X119379872Y-48066510D01*
X119223582Y-48149655D01*
X118956264Y-48322769D01*
X118780672Y-48471843D01*
X118772148Y-48474585D01*
X118764827Y-48471197D01*
X118553650Y-48260020D01*
X118550223Y-48251747D01*
X118552852Y-48244358D01*
X118620538Y-48161310D01*
X118721049Y-47978534D01*
X118789057Y-47779960D01*
X118817626Y-47595638D01*
X118809772Y-47436450D01*
X118769960Y-47303285D01*
X118709725Y-47208874D01*
X118708166Y-47200057D01*
X118713297Y-47192718D01*
X118717888Y-47191007D01*
X120016679Y-47000616D01*
X120025361Y-47002806D01*
G37*
%TD.AperFunction*%
%TD*%
%TA.AperFunction,Conductor*%
%TO.N,/VOL_1d*%
G36*
X98605500Y-39242860D02*
G01*
X98605750Y-39243080D01*
X99691424Y-40226328D01*
X99695256Y-40234421D01*
X99692242Y-40242854D01*
X99691424Y-40243672D01*
X98605750Y-41226919D01*
X98597317Y-41229933D01*
X98589224Y-41226101D01*
X98589004Y-41225851D01*
X98441821Y-41053742D01*
X98240555Y-40822647D01*
X98240552Y-40822644D01*
X98071384Y-40666950D01*
X98071382Y-40666948D01*
X97897091Y-40551107D01*
X97897088Y-40551105D01*
X97897087Y-40551105D01*
X97800392Y-40509137D01*
X97703693Y-40467168D01*
X97703690Y-40467167D01*
X97596489Y-40436702D01*
X97479631Y-40414043D01*
X97377400Y-40402703D01*
X97351942Y-40399880D01*
X97303648Y-40398185D01*
X97224123Y-40395396D01*
X97215975Y-40391681D01*
X97212833Y-40383703D01*
X97212833Y-40085989D01*
X97216260Y-40077716D01*
X97223799Y-40074313D01*
X97450260Y-40060127D01*
X97654282Y-40018126D01*
X97829630Y-39952923D01*
X97981033Y-39868442D01*
X98113224Y-39768610D01*
X98230931Y-39657352D01*
X98441818Y-39416261D01*
X98589005Y-39244147D01*
X98596985Y-39240087D01*
X98605500Y-39242860D01*
G37*
%TD.AperFunction*%
%TD*%
%TA.AperFunction,Conductor*%
%TO.N,/VOL_2d*%
G36*
X76265434Y-54004370D02*
G01*
X76475617Y-54214553D01*
X76479044Y-54222826D01*
X76475839Y-54230871D01*
X76367844Y-54344906D01*
X76278786Y-54453459D01*
X76278774Y-54453475D01*
X76212392Y-54552464D01*
X76212387Y-54552473D01*
X76164573Y-54646099D01*
X76164567Y-54646114D01*
X76131230Y-54738569D01*
X76108280Y-54834038D01*
X76108278Y-54834048D01*
X76077168Y-55050763D01*
X76069076Y-55116643D01*
X76069018Y-55117051D01*
X76015571Y-55453824D01*
X76010890Y-55461458D01*
X76002182Y-55463545D01*
X76001745Y-55463467D01*
X75186978Y-55302227D01*
X75179527Y-55297260D01*
X75177772Y-55293021D01*
X75129830Y-55050763D01*
X75016502Y-54478103D01*
X75018257Y-54469325D01*
X75025708Y-54464358D01*
X75025948Y-54464312D01*
X75242441Y-54427172D01*
X75242885Y-54427105D01*
X75429216Y-54402834D01*
X75681533Y-54364262D01*
X75681540Y-54364259D01*
X75681543Y-54364259D01*
X75740387Y-54344906D01*
X75845233Y-54310424D01*
X75928991Y-54266746D01*
X76017075Y-54208221D01*
X76017076Y-54208219D01*
X76017078Y-54208219D01*
X76061081Y-54172544D01*
X76129822Y-54116815D01*
X76249131Y-54004135D01*
X76257495Y-54000948D01*
X76265434Y-54004370D01*
G37*
%TD.AperFunction*%
%TD*%
%TA.AperFunction,Conductor*%
%TO.N,+3V3d*%
G36*
X99707206Y-33892997D02*
G01*
X99708027Y-33893808D01*
X100698021Y-34972311D01*
X100701091Y-34980723D01*
X100697314Y-34988842D01*
X100696636Y-34989418D01*
X100583756Y-35078222D01*
X100583115Y-35078693D01*
X100426652Y-35185414D01*
X100426602Y-35185447D01*
X100309505Y-35264437D01*
X100309449Y-35264477D01*
X100085160Y-35430992D01*
X99940967Y-35568613D01*
X99940959Y-35568622D01*
X99855367Y-35688800D01*
X99855367Y-35688801D01*
X99814820Y-35798588D01*
X99814820Y-35798590D01*
X99812874Y-35905099D01*
X99826996Y-35959900D01*
X99852250Y-36015596D01*
X99852251Y-36015597D01*
X99891787Y-36075253D01*
X99938181Y-36127622D01*
X99941102Y-36136085D01*
X99937696Y-36143652D01*
X99494542Y-36586806D01*
X99486269Y-36590233D01*
X99477996Y-36586806D01*
X99477611Y-36586402D01*
X99366309Y-36463941D01*
X99365579Y-36463055D01*
X99268471Y-36332507D01*
X99267841Y-36331568D01*
X99239175Y-36284055D01*
X99189774Y-36202170D01*
X99189281Y-36201263D01*
X99144554Y-36109199D01*
X99127315Y-36073714D01*
X99126812Y-36072512D01*
X99067434Y-35905099D01*
X99038695Y-35824070D01*
X99038393Y-35823077D01*
X98978577Y-35588283D01*
X98944846Y-35450275D01*
X98881643Y-35252517D01*
X98806102Y-35108905D01*
X98713390Y-35002560D01*
X98710536Y-34994072D01*
X98713486Y-34987073D01*
X98718368Y-34981612D01*
X99690685Y-33893921D01*
X99698754Y-33890038D01*
X99707206Y-33892997D01*
G37*
%TD.AperFunction*%
%TD*%
%TA.AperFunction,Conductor*%
%TO.N,/R_INd*%
G36*
X83630674Y-52598257D02*
G01*
X83635641Y-52605708D01*
X83635696Y-52606001D01*
X83672825Y-52822429D01*
X83672895Y-52822896D01*
X83691944Y-52969138D01*
X83697165Y-53009215D01*
X83727893Y-53210219D01*
X83735738Y-53261535D01*
X83735740Y-53261544D01*
X83789573Y-53425228D01*
X83789578Y-53425241D01*
X83833251Y-53508988D01*
X83891778Y-53597074D01*
X83891780Y-53597078D01*
X83983179Y-53709815D01*
X83983195Y-53709833D01*
X84015999Y-53744567D01*
X84095862Y-53829129D01*
X84099051Y-53837495D01*
X84095629Y-53845434D01*
X83885446Y-54055617D01*
X83877173Y-54059044D01*
X83869128Y-54055839D01*
X83755093Y-53947845D01*
X83646539Y-53858786D01*
X83646523Y-53858774D01*
X83547534Y-53792392D01*
X83547525Y-53792386D01*
X83453900Y-53744573D01*
X83453894Y-53744570D01*
X83453891Y-53744569D01*
X83425052Y-53734170D01*
X83361429Y-53711230D01*
X83265961Y-53688280D01*
X83265951Y-53688278D01*
X83049236Y-53657168D01*
X83049235Y-53657167D01*
X83049215Y-53657165D01*
X82995014Y-53650507D01*
X82983356Y-53649076D01*
X82982948Y-53649018D01*
X82646175Y-53595571D01*
X82638541Y-53590890D01*
X82636454Y-53582182D01*
X82636532Y-53581745D01*
X82650931Y-53508988D01*
X82797772Y-52766977D01*
X82802739Y-52759527D01*
X82806977Y-52757772D01*
X83621895Y-52596502D01*
X83630674Y-52598257D01*
G37*
%TD.AperFunction*%
%TD*%
%TA.AperFunction,Conductor*%
%TO.N,GNDDd*%
G36*
X64581045Y-26542915D02*
G01*
X64757613Y-26720414D01*
X64757624Y-26720423D01*
X64944991Y-26866031D01*
X64944999Y-26866037D01*
X65148190Y-26979093D01*
X65233556Y-27010166D01*
X65377933Y-27062720D01*
X65377940Y-27062722D01*
X65377948Y-27062725D01*
X65505532Y-27093263D01*
X65505544Y-27093265D01*
X65505549Y-27093266D01*
X65541050Y-27099083D01*
X65644162Y-27115981D01*
X65644170Y-27115981D01*
X65644178Y-27115983D01*
X65749360Y-27125885D01*
X65794361Y-27130123D01*
X65945819Y-27134660D01*
X65953984Y-27138332D01*
X65957167Y-27146354D01*
X65957167Y-27923393D01*
X65953740Y-27931666D01*
X65945562Y-27935093D01*
X65911558Y-27935368D01*
X65751747Y-27942881D01*
X65751738Y-27942881D01*
X65604402Y-27959517D01*
X65604397Y-27959518D01*
X65465270Y-27985304D01*
X65337563Y-28019117D01*
X65213145Y-28063042D01*
X65099657Y-28114172D01*
X65099649Y-28114176D01*
X65099644Y-28114179D01*
X64982094Y-28180104D01*
X64982091Y-28180105D01*
X64982091Y-28180106D01*
X64875797Y-28252721D01*
X64875791Y-28252725D01*
X64714074Y-28389730D01*
X64714067Y-28389735D01*
X64714063Y-28389740D01*
X64714055Y-28389747D01*
X64714051Y-28389752D01*
X64581043Y-28526884D01*
X64572824Y-28530437D01*
X64564791Y-28527410D01*
X63478574Y-27543671D01*
X63474743Y-27535579D01*
X63477757Y-27527146D01*
X63478575Y-27526328D01*
X64564898Y-26542493D01*
X64573329Y-26539480D01*
X64581045Y-26542915D01*
G37*
%TD.AperFunction*%
%TD*%
%TA.AperFunction,Conductor*%
%TO.N,/MIDI_TXd*%
G36*
X153893169Y-49611533D02*
G01*
X153901317Y-49615242D01*
X153903582Y-49618767D01*
X154105840Y-50109370D01*
X154105825Y-50118324D01*
X154099482Y-50124646D01*
X154095385Y-50125523D01*
X154048911Y-50126963D01*
X154048908Y-50126963D01*
X153945293Y-50141345D01*
X153945278Y-50141348D01*
X153840831Y-50167902D01*
X153840804Y-50167910D01*
X153716398Y-50213163D01*
X153595336Y-50269930D01*
X153595335Y-50269930D01*
X153461768Y-50346265D01*
X153340115Y-50428586D01*
X153156830Y-50583227D01*
X153148297Y-50585943D01*
X153141012Y-50582558D01*
X152930431Y-50371977D01*
X152927004Y-50363704D01*
X152930248Y-50355619D01*
X152944457Y-50340767D01*
X153068442Y-50176791D01*
X153161701Y-49999640D01*
X153161701Y-49999639D01*
X153161703Y-49999636D01*
X153187917Y-49916336D01*
X153212156Y-49839316D01*
X153223253Y-49702689D01*
X153202936Y-49602234D01*
X153204655Y-49593448D01*
X153212085Y-49588449D01*
X153214799Y-49588224D01*
X153893169Y-49611533D01*
G37*
%TD.AperFunction*%
%TD*%
%TA.AperFunction,Conductor*%
%TO.N,Net-(J11-PadR)*%
G36*
X144516839Y-32851889D02*
G01*
X144678215Y-32990180D01*
X144678217Y-32990181D01*
X144899214Y-33134732D01*
X144899222Y-33134736D01*
X144899229Y-33134741D01*
X145012189Y-33188518D01*
X145113795Y-33236891D01*
X145113797Y-33236891D01*
X145113798Y-33236892D01*
X145305853Y-33293767D01*
X145456595Y-33308469D01*
X145464495Y-33312683D01*
X145467103Y-33321250D01*
X145466275Y-33324573D01*
X145263582Y-33816232D01*
X145257260Y-33822575D01*
X145253167Y-33823466D01*
X144575802Y-33846741D01*
X144567416Y-33843600D01*
X144563707Y-33835450D01*
X144564100Y-33832014D01*
X144566465Y-33823207D01*
X144577911Y-33780579D01*
X144577911Y-33780575D01*
X144577912Y-33780573D01*
X144580197Y-33752137D01*
X144583903Y-33706039D01*
X144583902Y-33706034D01*
X144583903Y-33706030D01*
X144577990Y-33629281D01*
X144577990Y-33629279D01*
X144577989Y-33629273D01*
X144556691Y-33533193D01*
X144522875Y-33438168D01*
X144495304Y-33381134D01*
X144469307Y-33327353D01*
X144469301Y-33327344D01*
X144448787Y-33293766D01*
X144407524Y-33226225D01*
X144333684Y-33134732D01*
X144288945Y-33079297D01*
X144286416Y-33070707D01*
X144289776Y-33063677D01*
X144500954Y-32852499D01*
X144509226Y-32849073D01*
X144516839Y-32851889D01*
G37*
%TD.AperFunction*%
%TD*%
%TA.AperFunction,Conductor*%
%TO.N,+3V3d*%
G36*
X80581937Y-51079760D02*
G01*
X80585357Y-51087662D01*
X80589855Y-51230177D01*
X80589856Y-51230196D01*
X80603698Y-51362640D01*
X80625440Y-51477043D01*
X80625447Y-51477072D01*
X80654019Y-51576881D01*
X80727311Y-51746214D01*
X80814919Y-51897760D01*
X80814960Y-51897832D01*
X80926784Y-52094466D01*
X80927398Y-52095711D01*
X81020034Y-52315800D01*
X81020449Y-52316952D01*
X81059071Y-52444653D01*
X81059271Y-52445404D01*
X81090951Y-52582428D01*
X81089476Y-52591261D01*
X81082188Y-52596463D01*
X81081848Y-52596537D01*
X80262296Y-52760540D01*
X80257704Y-52760540D01*
X79438390Y-52596585D01*
X79430950Y-52591601D01*
X79429213Y-52582816D01*
X79429337Y-52582270D01*
X79485257Y-52360710D01*
X79485646Y-52359465D01*
X79501827Y-52316363D01*
X79554446Y-52176198D01*
X79554926Y-52175100D01*
X79629245Y-52026716D01*
X79629620Y-52026028D01*
X79705081Y-51897760D01*
X79790711Y-51749966D01*
X79792333Y-51746214D01*
X79867514Y-51572306D01*
X79867516Y-51572299D01*
X79895257Y-51474093D01*
X79916427Y-51361776D01*
X79930178Y-51229688D01*
X79934644Y-51087664D01*
X79938329Y-51079504D01*
X79946338Y-51076333D01*
X80573664Y-51076333D01*
X80581937Y-51079760D01*
G37*
%TD.AperFunction*%
%TD*%
%TA.AperFunction,Conductor*%
%TO.N,/VOL_1d*%
G36*
X77876887Y-51079760D02*
G01*
X77880310Y-51087715D01*
X77884580Y-51244724D01*
X77898364Y-51384438D01*
X77898367Y-51384462D01*
X77921424Y-51501405D01*
X77942728Y-51567175D01*
X77953825Y-51601433D01*
X77995632Y-51690388D01*
X78046913Y-51774127D01*
X78178170Y-51949385D01*
X78205292Y-51984102D01*
X78219006Y-52001657D01*
X78219254Y-52001986D01*
X78419608Y-52277930D01*
X78421695Y-52286638D01*
X78417014Y-52294272D01*
X78416650Y-52294526D01*
X77726510Y-52756640D01*
X77717729Y-52758395D01*
X77713490Y-52756640D01*
X77023223Y-52294442D01*
X77018256Y-52286991D01*
X77020011Y-52278210D01*
X77020146Y-52278014D01*
X77146993Y-52098629D01*
X77147211Y-52098335D01*
X77261831Y-51949384D01*
X77412971Y-51743694D01*
X77490656Y-51589873D01*
X77518997Y-51499762D01*
X77539897Y-51396093D01*
X77554987Y-51251736D01*
X77559675Y-51087698D01*
X77563337Y-51079527D01*
X77571370Y-51076333D01*
X77868614Y-51076333D01*
X77876887Y-51079760D01*
G37*
%TD.AperFunction*%
%TD*%
%TA.AperFunction,Conductor*%
%TO.N,Net-(R18-Pad2)*%
G36*
X145268178Y-35654495D02*
G01*
X145756113Y-36131546D01*
X145759633Y-36139780D01*
X145756300Y-36148091D01*
X145749913Y-36151443D01*
X145697503Y-36160436D01*
X145697502Y-36160436D01*
X145679995Y-36168487D01*
X145645584Y-36184311D01*
X145645583Y-36184312D01*
X145599641Y-36218286D01*
X145599638Y-36218288D01*
X145599638Y-36218289D01*
X145550054Y-36272462D01*
X145550052Y-36272464D01*
X145550050Y-36272467D01*
X145509143Y-36336025D01*
X145509142Y-36336027D01*
X145468867Y-36424998D01*
X145468864Y-36425007D01*
X145441164Y-36515745D01*
X145441162Y-36515751D01*
X145421368Y-36662365D01*
X145416865Y-36670106D01*
X145409773Y-36672500D01*
X145111029Y-36672500D01*
X145102756Y-36669073D01*
X145099349Y-36661491D01*
X145096644Y-36615737D01*
X145061470Y-36454653D01*
X145048292Y-36424998D01*
X145001311Y-36319272D01*
X145001310Y-36319270D01*
X144964366Y-36272023D01*
X144927421Y-36224774D01*
X144843604Y-36168487D01*
X144843601Y-36168486D01*
X144768717Y-36152186D01*
X144761362Y-36147078D01*
X144759773Y-36138266D01*
X144763026Y-36132388D01*
X145251821Y-35654495D01*
X145260132Y-35651163D01*
X145268178Y-35654495D01*
G37*
%TD.AperFunction*%
%TD*%
%TA.AperFunction,Conductor*%
%TO.N,GNDDd*%
G36*
X64946018Y-27607401D02*
G01*
X64954109Y-27611232D01*
X64957137Y-27619117D01*
X64956479Y-27869476D01*
X64956480Y-27869486D01*
X64986010Y-28104957D01*
X65049744Y-28328571D01*
X65049745Y-28328576D01*
X65153067Y-28550164D01*
X65153068Y-28550167D01*
X65221693Y-28661984D01*
X65221696Y-28661987D01*
X65303652Y-28776069D01*
X65303663Y-28776083D01*
X65399860Y-28892277D01*
X65503749Y-29002584D01*
X65506927Y-29010956D01*
X65503505Y-29018879D01*
X64954056Y-29568328D01*
X64945783Y-29571755D01*
X64937578Y-29568395D01*
X64913355Y-29544560D01*
X64795031Y-29436861D01*
X64795017Y-29436850D01*
X64795014Y-29436847D01*
X64679069Y-29344426D01*
X64562480Y-29264298D01*
X64562457Y-29264283D01*
X64448253Y-29197894D01*
X64448227Y-29197880D01*
X64329224Y-29140980D01*
X64329225Y-29140980D01*
X64212800Y-29096877D01*
X64212797Y-29096876D01*
X64083069Y-29060373D01*
X64083065Y-29060372D01*
X64083061Y-29060371D01*
X64015230Y-29047601D01*
X63956552Y-29036555D01*
X63956545Y-29036554D01*
X63745303Y-29019078D01*
X63745297Y-29019078D01*
X63745296Y-29019078D01*
X63706264Y-29019673D01*
X63554258Y-29021994D01*
X63545933Y-29018693D01*
X63542394Y-29010876D01*
X63469931Y-27547194D01*
X63472945Y-27538763D01*
X63481038Y-27534931D01*
X63482180Y-27534931D01*
X64946018Y-27607401D01*
G37*
%TD.AperFunction*%
%TD*%
%TA.AperFunction,Conductor*%
%TO.N,Net-(J10-PadR)*%
G36*
X143863118Y-47302459D02*
G01*
X143865523Y-47304135D01*
X144391378Y-47778815D01*
X144395223Y-47786902D01*
X144392223Y-47795340D01*
X144391378Y-47796185D01*
X143866516Y-48269968D01*
X143858078Y-48272968D01*
X143849991Y-48269123D01*
X143847908Y-48265859D01*
X143832497Y-48229592D01*
X143832497Y-48229591D01*
X143795961Y-48176293D01*
X143795959Y-48176291D01*
X143795958Y-48176289D01*
X143749177Y-48129313D01*
X143678749Y-48078769D01*
X143678750Y-48078769D01*
X143599048Y-48037289D01*
X143490380Y-47996801D01*
X143490374Y-47996799D01*
X143490368Y-47996797D01*
X143380961Y-47969060D01*
X143276089Y-47952697D01*
X143276071Y-47952695D01*
X143198515Y-47948146D01*
X143190457Y-47944240D01*
X143187500Y-47936466D01*
X143187500Y-47638895D01*
X143190927Y-47630622D01*
X143198890Y-47627199D01*
X143222976Y-47626563D01*
X143415978Y-47598288D01*
X143590025Y-47541681D01*
X143719803Y-47468913D01*
X143805990Y-47386171D01*
X143847323Y-47307383D01*
X143854200Y-47301650D01*
X143863118Y-47302459D01*
G37*
%TD.AperFunction*%
%TD*%
%TA.AperFunction,Conductor*%
%TO.N,GNDDd*%
G36*
X63477854Y-40242757D02*
G01*
X63478672Y-40243575D01*
X64462505Y-41329896D01*
X64465519Y-41338329D01*
X64462084Y-41346045D01*
X64284585Y-41522613D01*
X64284576Y-41522624D01*
X64138968Y-41709990D01*
X64138964Y-41709995D01*
X64025908Y-41913186D01*
X64025907Y-41913187D01*
X63942279Y-42142932D01*
X63942276Y-42142942D01*
X63911736Y-42270534D01*
X63911733Y-42270548D01*
X63889016Y-42409177D01*
X63874878Y-42559342D01*
X63874877Y-42559352D01*
X63870340Y-42710817D01*
X63866667Y-42718984D01*
X63858645Y-42722167D01*
X63081606Y-42722167D01*
X63073333Y-42718740D01*
X63069906Y-42710561D01*
X63069632Y-42676578D01*
X63062120Y-42516755D01*
X63045483Y-42369404D01*
X63019696Y-42230275D01*
X62985882Y-42102563D01*
X62941961Y-41978156D01*
X62890823Y-41864648D01*
X62824898Y-41747099D01*
X62752281Y-41640801D01*
X62752277Y-41640797D01*
X62752276Y-41640794D01*
X62615270Y-41479076D01*
X62615261Y-41479065D01*
X62478114Y-41346042D01*
X62474562Y-41337824D01*
X62477588Y-41329793D01*
X63461328Y-40243574D01*
X63469421Y-40239743D01*
X63477854Y-40242757D01*
G37*
%TD.AperFunction*%
%TD*%
%TA.AperFunction,Conductor*%
%TO.N,GNDDd*%
G36*
X64953879Y-38201494D02*
G01*
X65503328Y-38750943D01*
X65506755Y-38759216D01*
X65503395Y-38767422D01*
X65479556Y-38791649D01*
X65371870Y-38909956D01*
X65371850Y-38909980D01*
X65279426Y-39025930D01*
X65199298Y-39142518D01*
X65199283Y-39142541D01*
X65132882Y-39256767D01*
X65075980Y-39375773D01*
X65031877Y-39492198D01*
X65031876Y-39492201D01*
X64995373Y-39621928D01*
X64995372Y-39621933D01*
X64971555Y-39748446D01*
X64971554Y-39748453D01*
X64954078Y-39959689D01*
X64954078Y-39959702D01*
X64956994Y-40150740D01*
X64953693Y-40159065D01*
X64945874Y-40162605D01*
X63482196Y-40235068D01*
X63473763Y-40232054D01*
X63469931Y-40223961D01*
X63469931Y-40222819D01*
X63542401Y-38758980D01*
X63546232Y-38750890D01*
X63554116Y-38747862D01*
X63785226Y-38748468D01*
X63804474Y-38748519D01*
X63804474Y-38748518D01*
X63804483Y-38748519D01*
X64039952Y-38718990D01*
X64263573Y-38655254D01*
X64485174Y-38551928D01*
X64596983Y-38483306D01*
X64711073Y-38401344D01*
X64827280Y-38305137D01*
X64937584Y-38201249D01*
X64945956Y-38198072D01*
X64953879Y-38201494D01*
G37*
%TD.AperFunction*%
%TD*%
%TA.AperFunction,Conductor*%
%TO.N,Net-(C33-Pad2)*%
G36*
X103383267Y-47007277D02*
G01*
X104156375Y-47781352D01*
X104159797Y-47789626D01*
X104156365Y-47797897D01*
X104148677Y-47801305D01*
X104131700Y-47802148D01*
X104062393Y-47814804D01*
X103996852Y-47837820D01*
X103926989Y-47875158D01*
X103862303Y-47922751D01*
X103862302Y-47922752D01*
X103793667Y-47988914D01*
X103793654Y-47988928D01*
X103732516Y-48064082D01*
X103732502Y-48064102D01*
X103672335Y-48157248D01*
X103622569Y-48254731D01*
X103622564Y-48254742D01*
X103582723Y-48355147D01*
X103582713Y-48355176D01*
X103554630Y-48451803D01*
X103554630Y-48451804D01*
X103536346Y-48589836D01*
X103531862Y-48597588D01*
X103524747Y-48600000D01*
X103225453Y-48600000D01*
X103217180Y-48596573D01*
X103213827Y-48589613D01*
X103201310Y-48478780D01*
X103201309Y-48478776D01*
X103141354Y-48286823D01*
X103141353Y-48286822D01*
X103141353Y-48286820D01*
X103048859Y-48109891D01*
X102939759Y-47971317D01*
X102823086Y-47875207D01*
X102823085Y-47875206D01*
X102823082Y-47875204D01*
X102701865Y-47818871D01*
X102597961Y-47803415D01*
X102590282Y-47798808D01*
X102588109Y-47790121D01*
X102591402Y-47783577D01*
X103366722Y-47007287D01*
X103374993Y-47003856D01*
X103383267Y-47007277D01*
G37*
%TD.AperFunction*%
%TD*%
%TA.AperFunction,Conductor*%
%TO.N,GNDDd*%
G36*
X80044501Y-28240155D02*
G01*
X80047009Y-28248752D01*
X80044798Y-28254420D01*
X80025971Y-28279978D01*
X80024978Y-28281156D01*
X79871997Y-28439980D01*
X79870360Y-28441391D01*
X79767459Y-28514717D01*
X79763981Y-28516410D01*
X79707410Y-28533107D01*
X79705949Y-28532952D01*
X79704616Y-28533575D01*
X79701646Y-28532495D01*
X79698505Y-28532163D01*
X79697580Y-28531018D01*
X79696199Y-28530517D01*
X79694861Y-28527653D01*
X79692877Y-28525198D01*
X79693031Y-28523737D01*
X79692409Y-28522404D01*
X79693487Y-28519434D01*
X79693821Y-28516293D01*
X79695462Y-28513992D01*
X79701000Y-28507943D01*
X79726516Y-28480065D01*
X79727828Y-28478838D01*
X79896059Y-28344351D01*
X80028054Y-28238357D01*
X80036649Y-28235850D01*
X80044501Y-28240155D01*
G37*
%TD.AperFunction*%
%TA.AperFunction,Conductor*%
G36*
X80200005Y-27136271D02*
G01*
X80281182Y-27144309D01*
X80284539Y-27145157D01*
X80354705Y-27174546D01*
X80372179Y-27181865D01*
X80375441Y-27183921D01*
X80407136Y-27212155D01*
X80408981Y-27214242D01*
X80432867Y-27248829D01*
X80434161Y-27251281D01*
X80452597Y-27299255D01*
X80453236Y-27301649D01*
X80461843Y-27356826D01*
X80461979Y-27358941D01*
X80459918Y-27436211D01*
X80459745Y-27437927D01*
X80444759Y-27523078D01*
X80444435Y-27524436D01*
X80410304Y-27637326D01*
X80409922Y-27638400D01*
X80361050Y-27756930D01*
X80360657Y-27757783D01*
X80290069Y-27896262D01*
X80289669Y-27896982D01*
X80263333Y-27940739D01*
X80256131Y-27946061D01*
X80248248Y-27945255D01*
X80236930Y-27939824D01*
X80236928Y-27939823D01*
X80236927Y-27939823D01*
X80197738Y-27936024D01*
X80189834Y-27931815D01*
X80187167Y-27924379D01*
X80187167Y-27147915D01*
X80190594Y-27139642D01*
X80198867Y-27136215D01*
X80200005Y-27136271D01*
G37*
%TD.AperFunction*%
%TD*%
%TA.AperFunction,Conductor*%
%TO.N,GNDDd*%
G36*
X98605207Y-26542588D02*
G01*
X98908516Y-26817282D01*
X99691424Y-27526328D01*
X99695256Y-27534421D01*
X99692242Y-27542854D01*
X99691424Y-27543672D01*
X98605103Y-28527505D01*
X98596670Y-28530519D01*
X98588954Y-28527084D01*
X98412386Y-28349586D01*
X98412375Y-28349577D01*
X98225008Y-28203969D01*
X98225003Y-28203965D01*
X98021812Y-28090908D01*
X98021811Y-28090907D01*
X97792066Y-28007279D01*
X97792056Y-28007276D01*
X97664464Y-27976736D01*
X97664450Y-27976733D01*
X97525821Y-27954016D01*
X97375657Y-27939878D01*
X97375647Y-27939877D01*
X97224183Y-27935340D01*
X97216016Y-27931667D01*
X97212833Y-27923645D01*
X97212833Y-27146606D01*
X97216260Y-27138333D01*
X97224438Y-27134906D01*
X97258418Y-27134632D01*
X97418240Y-27127120D01*
X97418249Y-27127119D01*
X97418250Y-27127119D01*
X97450986Y-27123422D01*
X97565591Y-27110484D01*
X97704721Y-27084697D01*
X97832433Y-27050883D01*
X97956840Y-27006962D01*
X98070348Y-26955824D01*
X98187898Y-26889899D01*
X98294196Y-26817283D01*
X98455934Y-26680262D01*
X98588957Y-26543114D01*
X98597175Y-26539562D01*
X98605207Y-26542588D01*
G37*
%TD.AperFunction*%
%TD*%
%TA.AperFunction,Conductor*%
%TO.N,Net-(J10-PadT)*%
G36*
X140810775Y-39243898D02*
G01*
X140810995Y-39244148D01*
X140958178Y-39416257D01*
X141159444Y-39647352D01*
X141159447Y-39647355D01*
X141328615Y-39803049D01*
X141328617Y-39803051D01*
X141502908Y-39918892D01*
X141502913Y-39918895D01*
X141696303Y-40002830D01*
X141696305Y-40002830D01*
X141696306Y-40002831D01*
X141696309Y-40002832D01*
X141803510Y-40033297D01*
X141803514Y-40033298D01*
X141920364Y-40055956D01*
X142048058Y-40070120D01*
X142175879Y-40074604D01*
X142184025Y-40078318D01*
X142187167Y-40086296D01*
X142187167Y-40384010D01*
X142183740Y-40392283D01*
X142176198Y-40395687D01*
X142026683Y-40405053D01*
X141949739Y-40409873D01*
X141949737Y-40409873D01*
X141949731Y-40409874D01*
X141821508Y-40436271D01*
X141745716Y-40451874D01*
X141745713Y-40451874D01*
X141745713Y-40451875D01*
X141570367Y-40517078D01*
X141418966Y-40601556D01*
X141286773Y-40701391D01*
X141169071Y-40812646D01*
X141169053Y-40812664D01*
X140958196Y-41053721D01*
X140810995Y-41225851D01*
X140803014Y-41229912D01*
X140794499Y-41227139D01*
X140794249Y-41226919D01*
X140336825Y-40812650D01*
X139708574Y-40243671D01*
X139704743Y-40235579D01*
X139707757Y-40227146D01*
X139708575Y-40226328D01*
X140794251Y-39243079D01*
X140802682Y-39240066D01*
X140810775Y-39243898D01*
G37*
%TD.AperFunction*%
%TD*%
%TA.AperFunction,Conductor*%
%TO.N,Net-(J11-PadR)*%
G36*
X121353542Y-32021158D02*
G01*
X121564057Y-32231673D01*
X121567484Y-32239946D01*
X121564558Y-32247686D01*
X121414457Y-32417850D01*
X121299898Y-32591803D01*
X121299895Y-32591809D01*
X121222007Y-32761911D01*
X121174687Y-32928703D01*
X121151806Y-33092774D01*
X121151806Y-33092776D01*
X121147247Y-33254654D01*
X121147247Y-33254674D01*
X121168600Y-33574204D01*
X121186230Y-33800045D01*
X121183457Y-33808560D01*
X121175476Y-33812621D01*
X121175144Y-33812642D01*
X119712196Y-33885068D01*
X119703763Y-33882054D01*
X119699931Y-33873961D01*
X119699931Y-33872819D01*
X119772357Y-32409853D01*
X119776189Y-32401762D01*
X119784622Y-32398748D01*
X119784896Y-32398765D01*
X120010731Y-32416395D01*
X120010746Y-32416396D01*
X120010784Y-32416399D01*
X120010783Y-32416399D01*
X120109718Y-32423224D01*
X120316457Y-32437487D01*
X120546170Y-32427960D01*
X120751331Y-32386629D01*
X120947429Y-32309232D01*
X121044783Y-32254966D01*
X121143431Y-32188363D01*
X121243739Y-32108085D01*
X121337294Y-32020871D01*
X121345679Y-32017738D01*
X121353542Y-32021158D01*
G37*
%TD.AperFunction*%
%TD*%
%TA.AperFunction,Conductor*%
%TO.N,Net-(R18-Pad2)*%
G36*
X145417281Y-36333427D02*
G01*
X145420685Y-36340971D01*
X145425249Y-36414046D01*
X145442834Y-36519765D01*
X145442842Y-36519801D01*
X145472502Y-36634996D01*
X145472507Y-36635012D01*
X145472509Y-36635017D01*
X145556120Y-36851727D01*
X145556121Y-36851728D01*
X145658826Y-37028510D01*
X145769623Y-37157068D01*
X145808533Y-37185558D01*
X145883714Y-37240607D01*
X145982010Y-37277259D01*
X145988564Y-37283361D01*
X145988885Y-37292310D01*
X145985384Y-37297234D01*
X145228209Y-37924202D01*
X145219651Y-37926839D01*
X145212468Y-37923457D01*
X144509829Y-37219851D01*
X144506408Y-37211576D01*
X144509841Y-37203305D01*
X144515489Y-37200181D01*
X144579192Y-37185558D01*
X144642785Y-37159680D01*
X144711129Y-37118592D01*
X144774401Y-37066972D01*
X144842144Y-36995117D01*
X144902482Y-36913863D01*
X144962474Y-36812366D01*
X145012062Y-36706376D01*
X145052135Y-36596321D01*
X145080327Y-36490747D01*
X145098742Y-36340278D01*
X145103148Y-36332483D01*
X145110355Y-36330000D01*
X145409008Y-36330000D01*
X145417281Y-36333427D01*
G37*
%TD.AperFunction*%
%TD*%
%TA.AperFunction,Conductor*%
%TO.N,/L_INd*%
G36*
X84270871Y-51464160D02*
G01*
X84384906Y-51572154D01*
X84493459Y-51661212D01*
X84493475Y-51661224D01*
X84537685Y-51690871D01*
X84592469Y-51727610D01*
X84686108Y-51775430D01*
X84778571Y-51808769D01*
X84874045Y-51831720D01*
X85090783Y-51862834D01*
X85156683Y-51870927D01*
X85157005Y-51870973D01*
X85484322Y-51922920D01*
X85493824Y-51924428D01*
X85501458Y-51929109D01*
X85503545Y-51937817D01*
X85503467Y-51938254D01*
X85342227Y-52753021D01*
X85337260Y-52760472D01*
X85333021Y-52762227D01*
X84518106Y-52923497D01*
X84509325Y-52921742D01*
X84504358Y-52914291D01*
X84504310Y-52914039D01*
X84467173Y-52697565D01*
X84467104Y-52697102D01*
X84442834Y-52510783D01*
X84404262Y-52258466D01*
X84404260Y-52258460D01*
X84404259Y-52258455D01*
X84350425Y-52094770D01*
X84350424Y-52094766D01*
X84350421Y-52094762D01*
X84350420Y-52094757D01*
X84306747Y-52011010D01*
X84248221Y-51922924D01*
X84248219Y-51922920D01*
X84156820Y-51810184D01*
X84156804Y-51810166D01*
X84078831Y-51727606D01*
X84044136Y-51690869D01*
X84040948Y-51682504D01*
X84044369Y-51674566D01*
X84254554Y-51464381D01*
X84262826Y-51460955D01*
X84270871Y-51464160D01*
G37*
%TD.AperFunction*%
%TD*%
%TA.AperFunction,Conductor*%
%TO.N,/MIDI_RXd*%
G36*
X147917244Y-46800927D02*
G01*
X147920651Y-46808510D01*
X147923355Y-46854262D01*
X147958529Y-47015347D01*
X148018689Y-47150728D01*
X148018689Y-47150729D01*
X148055288Y-47197535D01*
X148092579Y-47245226D01*
X148176396Y-47301512D01*
X148251282Y-47317812D01*
X148258637Y-47322920D01*
X148260226Y-47331732D01*
X148256973Y-47337610D01*
X147768179Y-47815503D01*
X147759868Y-47818836D01*
X147751821Y-47815503D01*
X147263886Y-47338452D01*
X147260366Y-47330218D01*
X147263699Y-47321907D01*
X147270083Y-47318556D01*
X147322500Y-47309562D01*
X147374416Y-47285688D01*
X147397389Y-47268699D01*
X147420356Y-47251716D01*
X147420362Y-47251711D01*
X147469946Y-47197537D01*
X147510859Y-47133970D01*
X147551134Y-47044998D01*
X147578838Y-46954246D01*
X147598632Y-46807635D01*
X147603135Y-46799894D01*
X147610227Y-46797500D01*
X147908971Y-46797500D01*
X147917244Y-46800927D01*
G37*
%TD.AperFunction*%
%TD*%
%TA.AperFunction,Conductor*%
%TO.N,GNDd*%
G36*
X102763480Y-25822174D02*
G01*
X102785154Y-25874500D01*
X102763480Y-25926826D01*
X102739472Y-25942867D01*
X102694120Y-25961652D01*
X102694112Y-25961655D01*
X102495388Y-26076388D01*
X102313334Y-26216085D01*
X102151085Y-26378334D01*
X102011388Y-26560388D01*
X101896655Y-26759112D01*
X101896654Y-26759114D01*
X101808841Y-26971115D01*
X101749451Y-27192761D01*
X101719500Y-27420267D01*
X101719500Y-27649732D01*
X101749451Y-27877238D01*
X101808841Y-28098884D01*
X101896654Y-28310885D01*
X101896655Y-28310887D01*
X101964824Y-28428958D01*
X102011389Y-28509612D01*
X102151081Y-28691661D01*
X102313339Y-28853919D01*
X102495388Y-28993611D01*
X102694112Y-29108344D01*
X102906113Y-29196158D01*
X103127762Y-29255548D01*
X103127761Y-29255548D01*
X103203596Y-29265532D01*
X103355266Y-29285500D01*
X103355268Y-29285500D01*
X103584732Y-29285500D01*
X103584734Y-29285500D01*
X103812238Y-29255548D01*
X104033887Y-29196158D01*
X104245888Y-29108344D01*
X104444612Y-28993611D01*
X104626661Y-28853919D01*
X104788919Y-28691661D01*
X104928611Y-28509612D01*
X105043344Y-28310888D01*
X105131158Y-28098887D01*
X105190548Y-27877238D01*
X105220500Y-27649734D01*
X105220500Y-27420266D01*
X105190548Y-27192762D01*
X105131158Y-26971113D01*
X105043344Y-26759112D01*
X104928611Y-26560388D01*
X104788919Y-26378339D01*
X104626661Y-26216081D01*
X104444612Y-26076389D01*
X104444613Y-26076389D01*
X104444611Y-26076388D01*
X104245887Y-25961655D01*
X104245879Y-25961652D01*
X104200528Y-25942867D01*
X104160479Y-25902819D01*
X104160479Y-25846182D01*
X104200527Y-25806133D01*
X104228846Y-25800500D01*
X118941154Y-25800500D01*
X118993480Y-25822174D01*
X119015154Y-25874500D01*
X118993480Y-25926826D01*
X118969472Y-25942867D01*
X118924120Y-25961652D01*
X118924112Y-25961655D01*
X118725388Y-26076388D01*
X118543334Y-26216085D01*
X118381085Y-26378334D01*
X118241388Y-26560388D01*
X118126655Y-26759112D01*
X118126654Y-26759114D01*
X118038841Y-26971115D01*
X117979451Y-27192761D01*
X117949500Y-27420267D01*
X117949500Y-27649732D01*
X117979451Y-27877238D01*
X118038841Y-28098884D01*
X118126654Y-28310885D01*
X118126655Y-28310887D01*
X118194824Y-28428958D01*
X118241389Y-28509612D01*
X118381081Y-28691661D01*
X118543339Y-28853919D01*
X118725388Y-28993611D01*
X118924112Y-29108344D01*
X119136113Y-29196158D01*
X119357762Y-29255548D01*
X119357761Y-29255548D01*
X119433596Y-29265532D01*
X119585266Y-29285500D01*
X119585268Y-29285500D01*
X119814732Y-29285500D01*
X119814734Y-29285500D01*
X120042238Y-29255548D01*
X120263887Y-29196158D01*
X120475888Y-29108344D01*
X120674612Y-28993611D01*
X120856661Y-28853919D01*
X121018919Y-28691661D01*
X121158611Y-28509612D01*
X121273344Y-28310888D01*
X121361158Y-28098887D01*
X121420548Y-27877238D01*
X121450500Y-27649734D01*
X121450500Y-27420266D01*
X121420548Y-27192762D01*
X121361158Y-26971113D01*
X121273344Y-26759112D01*
X121158611Y-26560388D01*
X121018919Y-26378339D01*
X120856661Y-26216081D01*
X120674612Y-26076389D01*
X120674613Y-26076389D01*
X120674611Y-26076388D01*
X120475887Y-25961655D01*
X120475879Y-25961652D01*
X120430528Y-25942867D01*
X120390479Y-25902819D01*
X120390479Y-25846182D01*
X120430527Y-25806133D01*
X120458846Y-25800500D01*
X122711154Y-25800500D01*
X122763480Y-25822174D01*
X122785154Y-25874500D01*
X122763480Y-25926826D01*
X122739472Y-25942867D01*
X122694120Y-25961652D01*
X122694112Y-25961655D01*
X122495388Y-26076388D01*
X122313334Y-26216085D01*
X122151085Y-26378334D01*
X122011388Y-26560388D01*
X121896655Y-26759112D01*
X121896654Y-26759114D01*
X121808841Y-26971115D01*
X121749451Y-27192761D01*
X121719500Y-27420267D01*
X121719500Y-27649732D01*
X121749451Y-27877238D01*
X121808841Y-28098884D01*
X121896654Y-28310885D01*
X121896655Y-28310887D01*
X121964824Y-28428958D01*
X122011389Y-28509612D01*
X122151081Y-28691661D01*
X122313339Y-28853919D01*
X122495388Y-28993611D01*
X122694112Y-29108344D01*
X122906113Y-29196158D01*
X123127762Y-29255548D01*
X123127761Y-29255548D01*
X123203596Y-29265532D01*
X123355266Y-29285500D01*
X123355268Y-29285500D01*
X123584732Y-29285500D01*
X123584734Y-29285500D01*
X123812238Y-29255548D01*
X124033887Y-29196158D01*
X124245888Y-29108344D01*
X124444612Y-28993611D01*
X124626661Y-28853919D01*
X124788919Y-28691661D01*
X124928611Y-28509612D01*
X125043344Y-28310888D01*
X125131158Y-28098887D01*
X125190548Y-27877238D01*
X125220500Y-27649734D01*
X125220500Y-27420266D01*
X125190548Y-27192762D01*
X125131158Y-26971113D01*
X125043344Y-26759112D01*
X124928611Y-26560388D01*
X124788919Y-26378339D01*
X124626661Y-26216081D01*
X124444612Y-26076389D01*
X124444613Y-26076389D01*
X124444611Y-26076388D01*
X124245887Y-25961655D01*
X124245879Y-25961652D01*
X124200528Y-25942867D01*
X124160479Y-25902819D01*
X124160479Y-25846182D01*
X124200527Y-25806133D01*
X124228846Y-25800500D01*
X138941154Y-25800500D01*
X138993480Y-25822174D01*
X139015154Y-25874500D01*
X138993480Y-25926826D01*
X138969472Y-25942867D01*
X138924120Y-25961652D01*
X138924112Y-25961655D01*
X138725388Y-26076388D01*
X138543334Y-26216085D01*
X138381085Y-26378334D01*
X138241388Y-26560388D01*
X138126655Y-26759112D01*
X138126654Y-26759114D01*
X138038841Y-26971115D01*
X137979451Y-27192761D01*
X137949500Y-27420267D01*
X137949500Y-27649732D01*
X137979451Y-27877238D01*
X138038841Y-28098884D01*
X138126654Y-28310885D01*
X138126655Y-28310887D01*
X138194824Y-28428958D01*
X138241389Y-28509612D01*
X138381081Y-28691661D01*
X138543339Y-28853919D01*
X138725388Y-28993611D01*
X138924112Y-29108344D01*
X139136113Y-29196158D01*
X139357762Y-29255548D01*
X139357761Y-29255548D01*
X139433596Y-29265532D01*
X139585266Y-29285500D01*
X139585268Y-29285500D01*
X139814732Y-29285500D01*
X139814734Y-29285500D01*
X140042238Y-29255548D01*
X140263887Y-29196158D01*
X140475888Y-29108344D01*
X140674612Y-28993611D01*
X140856661Y-28853919D01*
X141018919Y-28691661D01*
X141158611Y-28509612D01*
X141273344Y-28310888D01*
X141361158Y-28098887D01*
X141420548Y-27877238D01*
X141450500Y-27649734D01*
X141450500Y-27420266D01*
X141420548Y-27192762D01*
X141361158Y-26971113D01*
X141273344Y-26759112D01*
X141158611Y-26560388D01*
X141018919Y-26378339D01*
X140856661Y-26216081D01*
X140674612Y-26076389D01*
X140674613Y-26076389D01*
X140674611Y-26076388D01*
X140475887Y-25961655D01*
X140475879Y-25961652D01*
X140430528Y-25942867D01*
X140390479Y-25902819D01*
X140390479Y-25846182D01*
X140430527Y-25806133D01*
X140458846Y-25800500D01*
X141357038Y-25800500D01*
X141409364Y-25822174D01*
X141430785Y-25868389D01*
X141440744Y-25988580D01*
X141514004Y-26427595D01*
X141516476Y-26442409D01*
X141628428Y-26884500D01*
X141629426Y-26888440D01*
X141778818Y-27323605D01*
X141778819Y-27323607D01*
X141963637Y-27744949D01*
X141963638Y-27744952D01*
X142182622Y-28149598D01*
X142182636Y-28149621D01*
X142434272Y-28534779D01*
X142434276Y-28534784D01*
X142500510Y-28619881D01*
X142682669Y-28853919D01*
X142716872Y-28897862D01*
X142716872Y-28897863D01*
X142716875Y-28897866D01*
X142716878Y-28897870D01*
X143028496Y-29236379D01*
X143367005Y-29547997D01*
X143627197Y-29750513D01*
X143730090Y-29830598D01*
X143730095Y-29830602D01*
X144115253Y-30082238D01*
X144115262Y-30082243D01*
X144115272Y-30082250D01*
X144115276Y-30082252D01*
X144519922Y-30301236D01*
X144519925Y-30301237D01*
X144941267Y-30486055D01*
X144941269Y-30486056D01*
X145191552Y-30571978D01*
X145376442Y-30635451D01*
X145822466Y-30748399D01*
X146276293Y-30824130D01*
X146734816Y-30862125D01*
X146734824Y-30862125D01*
X147194934Y-30862125D01*
X147561750Y-30831729D01*
X147653457Y-30824130D01*
X148107284Y-30748399D01*
X148553308Y-30635451D01*
X148988480Y-30486056D01*
X149409830Y-30301235D01*
X149814478Y-30082250D01*
X150199660Y-29830598D01*
X150562745Y-29547997D01*
X150901254Y-29236379D01*
X151212872Y-28897870D01*
X151495473Y-28534785D01*
X151506343Y-28518148D01*
X151594305Y-28383512D01*
X151747125Y-28149603D01*
X151966110Y-27744955D01*
X152150931Y-27323605D01*
X152300326Y-26888433D01*
X152413274Y-26442409D01*
X152489005Y-25988582D01*
X152496112Y-25902819D01*
X152498965Y-25868389D01*
X152524886Y-25818032D01*
X152572712Y-25800500D01*
X199734108Y-25800500D01*
X199797364Y-25800500D01*
X199802642Y-25800688D01*
X200008118Y-25815385D01*
X200018567Y-25816887D01*
X200042872Y-25822174D01*
X200217296Y-25860117D01*
X200227406Y-25863085D01*
X200417965Y-25934161D01*
X200427556Y-25938541D01*
X200547496Y-26004033D01*
X200606041Y-26036001D01*
X200614924Y-26041709D01*
X200777727Y-26163582D01*
X200785706Y-26170496D01*
X200929503Y-26314293D01*
X200936417Y-26322272D01*
X201058290Y-26485075D01*
X201063998Y-26493958D01*
X201161456Y-26672439D01*
X201165841Y-26682040D01*
X201236802Y-26872293D01*
X201236909Y-26872578D01*
X201239884Y-26882710D01*
X201283112Y-27081432D01*
X201284614Y-27091881D01*
X201299311Y-27297356D01*
X201299500Y-27302636D01*
X201299500Y-32878242D01*
X201277826Y-32930568D01*
X201225500Y-32952242D01*
X201173174Y-32930568D01*
X201161415Y-32915244D01*
X201158611Y-32910388D01*
X201133944Y-32878242D01*
X201018919Y-32728339D01*
X200856661Y-32566081D01*
X200674612Y-32426389D01*
X200674613Y-32426389D01*
X200674611Y-32426388D01*
X200475887Y-32311655D01*
X200475885Y-32311654D01*
X200315325Y-32245148D01*
X200263887Y-32223842D01*
X200263885Y-32223841D01*
X200263884Y-32223841D01*
X200042237Y-32164451D01*
X200042238Y-32164451D01*
X199843050Y-32138228D01*
X199814734Y-32134500D01*
X199585266Y-32134500D01*
X199556950Y-32138228D01*
X199357761Y-32164451D01*
X199136115Y-32223841D01*
X198924114Y-32311654D01*
X198924112Y-32311655D01*
X198725388Y-32426388D01*
X198543334Y-32566085D01*
X198381085Y-32728334D01*
X198241388Y-32910388D01*
X198126655Y-33109112D01*
X198126654Y-33109114D01*
X198038841Y-33321115D01*
X197979451Y-33542761D01*
X197949500Y-33770267D01*
X197949500Y-33999732D01*
X197979451Y-34227238D01*
X198038841Y-34448884D01*
X198126654Y-34660885D01*
X198126655Y-34660887D01*
X198241388Y-34859611D01*
X198260486Y-34884500D01*
X198381081Y-35041661D01*
X198543339Y-35203919D01*
X198725388Y-35343611D01*
X198924112Y-35458344D01*
X199136113Y-35546158D01*
X199357762Y-35605548D01*
X199357761Y-35605548D01*
X199433596Y-35615532D01*
X199585266Y-35635500D01*
X199585268Y-35635500D01*
X199814732Y-35635500D01*
X199814734Y-35635500D01*
X200042238Y-35605548D01*
X200263887Y-35546158D01*
X200475888Y-35458344D01*
X200674612Y-35343611D01*
X200856661Y-35203919D01*
X201018919Y-35041661D01*
X201158611Y-34859612D01*
X201161413Y-34854759D01*
X201206345Y-34820279D01*
X201262498Y-34827670D01*
X201296978Y-34872602D01*
X201299500Y-34891757D01*
X201299500Y-39228242D01*
X201277826Y-39280568D01*
X201225500Y-39302242D01*
X201173174Y-39280568D01*
X201161415Y-39265244D01*
X201158611Y-39260388D01*
X201135942Y-39230845D01*
X201018919Y-39078339D01*
X200856661Y-38916081D01*
X200674612Y-38776389D01*
X200674613Y-38776389D01*
X200674611Y-38776388D01*
X200475887Y-38661655D01*
X200475885Y-38661654D01*
X200296817Y-38587482D01*
X200263887Y-38573842D01*
X200263885Y-38573841D01*
X200263884Y-38573841D01*
X200042237Y-38514451D01*
X200042238Y-38514451D01*
X199862150Y-38490742D01*
X199814734Y-38484500D01*
X199585266Y-38484500D01*
X199542324Y-38490153D01*
X199357761Y-38514451D01*
X199136115Y-38573841D01*
X198924114Y-38661654D01*
X198924112Y-38661655D01*
X198725388Y-38776388D01*
X198543334Y-38916085D01*
X198381085Y-39078334D01*
X198241388Y-39260388D01*
X198126655Y-39459112D01*
X198126654Y-39459114D01*
X198038841Y-39671115D01*
X197979451Y-39892761D01*
X197949500Y-40120267D01*
X197949500Y-40349732D01*
X197979451Y-40577238D01*
X198038841Y-40798884D01*
X198126654Y-41010885D01*
X198126655Y-41010887D01*
X198241388Y-41209611D01*
X198264050Y-41239144D01*
X198381081Y-41391661D01*
X198543339Y-41553919D01*
X198725388Y-41693611D01*
X198924112Y-41808344D01*
X199136113Y-41896158D01*
X199357762Y-41955548D01*
X199357761Y-41955548D01*
X199433596Y-41965532D01*
X199585266Y-41985500D01*
X199585268Y-41985500D01*
X199814732Y-41985500D01*
X199814734Y-41985500D01*
X200042238Y-41955548D01*
X200263887Y-41896158D01*
X200475888Y-41808344D01*
X200674612Y-41693611D01*
X200856661Y-41553919D01*
X201018919Y-41391661D01*
X201158611Y-41209612D01*
X201161413Y-41204759D01*
X201206345Y-41170279D01*
X201262498Y-41177670D01*
X201296978Y-41222602D01*
X201299500Y-41241757D01*
X201299500Y-58797363D01*
X201299311Y-58802643D01*
X201284614Y-59008118D01*
X201283112Y-59018567D01*
X201239884Y-59217289D01*
X201236909Y-59227421D01*
X201165842Y-59417957D01*
X201161456Y-59427560D01*
X201063998Y-59606041D01*
X201058290Y-59614924D01*
X200936417Y-59777727D01*
X200929503Y-59785706D01*
X200785706Y-59929503D01*
X200777727Y-59936417D01*
X200614924Y-60058290D01*
X200606041Y-60063998D01*
X200427560Y-60161456D01*
X200417957Y-60165842D01*
X200227421Y-60236909D01*
X200217289Y-60239884D01*
X200018567Y-60283112D01*
X200008118Y-60284614D01*
X199825297Y-60297690D01*
X199802641Y-60299311D01*
X199797364Y-60299500D01*
X63302636Y-60299500D01*
X63297358Y-60299311D01*
X63272878Y-60297560D01*
X63091881Y-60284614D01*
X63081432Y-60283112D01*
X62882710Y-60239884D01*
X62872584Y-60236910D01*
X62682040Y-60165841D01*
X62672439Y-60161456D01*
X62493958Y-60063998D01*
X62485075Y-60058290D01*
X62322272Y-59936417D01*
X62314293Y-59929503D01*
X62170496Y-59785706D01*
X62163582Y-59777727D01*
X62041709Y-59614924D01*
X62036001Y-59606041D01*
X61951916Y-59452050D01*
X61938541Y-59427556D01*
X61934161Y-59417965D01*
X61863085Y-59227406D01*
X61860117Y-59217296D01*
X61816887Y-59018567D01*
X61815385Y-59008117D01*
X61800689Y-58802642D01*
X61800500Y-58797363D01*
X61800500Y-41120512D01*
X61822174Y-41068186D01*
X61874500Y-41046512D01*
X61926826Y-41068186D01*
X61938583Y-41083508D01*
X61973191Y-41143451D01*
X62011388Y-41209611D01*
X62034050Y-41239144D01*
X62151081Y-41391661D01*
X62313339Y-41553919D01*
X62367975Y-41595844D01*
X62374442Y-41601429D01*
X62425797Y-41651240D01*
X62430727Y-41656513D01*
X62546298Y-41792928D01*
X62550934Y-41799013D01*
X62605726Y-41879219D01*
X62609165Y-41884763D01*
X62660893Y-41976996D01*
X62663820Y-41982799D01*
X62703329Y-42070498D01*
X62705639Y-42076257D01*
X62740535Y-42175097D01*
X62742291Y-42180794D01*
X62769516Y-42283624D01*
X62770742Y-42289077D01*
X62792132Y-42404479D01*
X62792904Y-42409662D01*
X62807024Y-42534715D01*
X62807409Y-42539544D01*
X62814036Y-42680571D01*
X62814037Y-42680592D01*
X62814179Y-42683594D01*
X62814414Y-42712621D01*
X62818831Y-42734142D01*
X62819205Y-42738319D01*
X62818921Y-42739223D01*
X62819500Y-42744916D01*
X62819500Y-51334069D01*
X62835072Y-51412353D01*
X62839777Y-51436007D01*
X62844497Y-51459739D01*
X62844498Y-51459742D01*
X62893535Y-51578127D01*
X62959903Y-51677456D01*
X62964723Y-51684669D01*
X67085331Y-55805277D01*
X67191874Y-55876466D01*
X67261219Y-55905188D01*
X67261220Y-55905189D01*
X67295895Y-55919552D01*
X67310256Y-55925501D01*
X67310258Y-55925501D01*
X67310260Y-55925502D01*
X67352903Y-55933984D01*
X67435931Y-55950500D01*
X67564069Y-55950500D01*
X70929231Y-55950500D01*
X70945730Y-55952362D01*
X70960408Y-55955720D01*
X71106677Y-55959894D01*
X71111576Y-55960198D01*
X71231338Y-55971639D01*
X71236977Y-55972398D01*
X71331154Y-55988792D01*
X71337130Y-55990090D01*
X71409465Y-56008966D01*
X71417840Y-56011694D01*
X71582161Y-56076295D01*
X71587553Y-56078668D01*
X71678805Y-56123273D01*
X71678893Y-56123321D01*
X71681391Y-56124537D01*
X71681549Y-56124614D01*
X71681551Y-56124614D01*
X71683324Y-56125481D01*
X71683425Y-56125527D01*
X71809321Y-56186784D01*
X71815540Y-56189708D01*
X71815555Y-56189715D01*
X71816089Y-56189957D01*
X71821888Y-56192502D01*
X71821900Y-56192507D01*
X71968634Y-56254738D01*
X71978083Y-56258525D01*
X71978959Y-56258856D01*
X71978968Y-56258859D01*
X71978994Y-56258869D01*
X71988613Y-56262285D01*
X72075597Y-56291212D01*
X72167751Y-56321859D01*
X72178086Y-56325054D01*
X72179047Y-56325329D01*
X72189695Y-56328130D01*
X72402709Y-56379270D01*
X72407293Y-56380326D01*
X72407728Y-56380422D01*
X72412657Y-56381458D01*
X72412714Y-56381458D01*
X72427532Y-56381474D01*
X72439013Y-56382384D01*
X72532679Y-56397219D01*
X72553388Y-56400500D01*
X72553389Y-56400500D01*
X72726612Y-56400500D01*
X72769383Y-56393725D01*
X72897701Y-56373402D01*
X72897708Y-56373399D01*
X72897711Y-56373399D01*
X73062442Y-56319874D01*
X73062442Y-56319873D01*
X73062445Y-56319873D01*
X73216788Y-56241232D01*
X73356928Y-56139414D01*
X73479414Y-56016928D01*
X73581232Y-55876788D01*
X73659873Y-55722445D01*
X73713402Y-55557701D01*
X73740500Y-55386611D01*
X73740500Y-55213389D01*
X73713402Y-55042299D01*
X73713400Y-55042294D01*
X73713399Y-55042288D01*
X73659874Y-54877557D01*
X73659872Y-54877553D01*
X73581232Y-54723212D01*
X73479417Y-54583076D01*
X73479416Y-54583075D01*
X73479414Y-54583072D01*
X73356928Y-54460586D01*
X73356925Y-54460583D01*
X73356923Y-54460582D01*
X73216787Y-54358767D01*
X73062446Y-54280127D01*
X73062442Y-54280125D01*
X72897711Y-54226600D01*
X72897698Y-54226597D01*
X72726612Y-54199500D01*
X72726611Y-54199500D01*
X72553389Y-54199500D01*
X72553387Y-54199500D01*
X72433418Y-54218500D01*
X72423899Y-54219382D01*
X72405691Y-54219887D01*
X72405688Y-54219888D01*
X72253238Y-54254631D01*
X72245626Y-54256490D01*
X72244952Y-54256666D01*
X72237864Y-54258622D01*
X72098738Y-54299192D01*
X72087615Y-54302713D01*
X72086620Y-54303053D01*
X72075636Y-54307092D01*
X71833381Y-54402524D01*
X71824400Y-54406260D01*
X71823626Y-54406600D01*
X71814612Y-54410762D01*
X71683216Y-54474573D01*
X71682739Y-54474803D01*
X71541440Y-54542175D01*
X71534555Y-54545041D01*
X71400494Y-54593083D01*
X71389670Y-54596057D01*
X71219340Y-54629215D01*
X71209191Y-54630471D01*
X70953632Y-54644272D01*
X70953620Y-54644274D01*
X70940531Y-54647434D01*
X70923169Y-54649500D01*
X67800098Y-54649500D01*
X67747772Y-54627826D01*
X65793334Y-52673388D01*
X71539500Y-52673388D01*
X71539500Y-52846611D01*
X71566597Y-53017698D01*
X71566600Y-53017711D01*
X71620125Y-53182442D01*
X71620127Y-53182446D01*
X71698767Y-53336787D01*
X71716833Y-53361653D01*
X71800586Y-53476928D01*
X71923072Y-53599414D01*
X71923075Y-53599416D01*
X71923076Y-53599417D01*
X72063212Y-53701232D01*
X72217553Y-53779872D01*
X72217557Y-53779874D01*
X72382288Y-53833399D01*
X72382294Y-53833400D01*
X72382299Y-53833402D01*
X72491394Y-53850681D01*
X72553388Y-53860500D01*
X72553389Y-53860500D01*
X72726612Y-53860500D01*
X72769383Y-53853725D01*
X72897701Y-53833402D01*
X72897708Y-53833399D01*
X72897711Y-53833399D01*
X73062442Y-53779874D01*
X73062442Y-53779873D01*
X73062445Y-53779873D01*
X73216788Y-53701232D01*
X73356928Y-53599414D01*
X73479414Y-53476928D01*
X73581232Y-53336788D01*
X73659873Y-53182445D01*
X73671968Y-53145220D01*
X73713399Y-53017711D01*
X73713401Y-53017704D01*
X73713402Y-53017701D01*
X73740500Y-52846611D01*
X73740500Y-52673389D01*
X73740500Y-52673388D01*
X74079500Y-52673388D01*
X74079500Y-52846611D01*
X74106597Y-53017698D01*
X74106600Y-53017711D01*
X74160125Y-53182442D01*
X74160127Y-53182446D01*
X74238767Y-53336787D01*
X74256833Y-53361653D01*
X74340586Y-53476928D01*
X74463072Y-53599414D01*
X74463075Y-53599416D01*
X74463076Y-53599417D01*
X74603212Y-53701232D01*
X74757553Y-53779872D01*
X74757557Y-53779874D01*
X74922288Y-53833399D01*
X74922294Y-53833400D01*
X74922299Y-53833402D01*
X75031394Y-53850681D01*
X75093388Y-53860500D01*
X75093389Y-53860500D01*
X75266612Y-53860500D01*
X75309383Y-53853725D01*
X75437701Y-53833402D01*
X75437708Y-53833399D01*
X75437711Y-53833399D01*
X75602442Y-53779874D01*
X75602442Y-53779873D01*
X75602445Y-53779873D01*
X75756788Y-53701232D01*
X75896928Y-53599414D01*
X75913174Y-53583168D01*
X75965500Y-53561494D01*
X76017826Y-53583168D01*
X76039500Y-53635494D01*
X76039500Y-53818783D01*
X76039064Y-53819833D01*
X76039470Y-53820897D01*
X76028291Y-53845843D01*
X76017826Y-53871109D01*
X76016309Y-53872583D01*
X75963447Y-53922507D01*
X75959240Y-53926189D01*
X75868311Y-53999907D01*
X75862662Y-54004060D01*
X75802128Y-54044281D01*
X75795391Y-54048260D01*
X75750950Y-54071435D01*
X75739853Y-54076117D01*
X75627753Y-54112984D01*
X75615817Y-54115838D01*
X75394230Y-54149713D01*
X75392606Y-54149943D01*
X75209849Y-54173749D01*
X75204782Y-54174461D01*
X75204368Y-54174524D01*
X75204338Y-54174528D01*
X75204317Y-54174532D01*
X75203126Y-54174724D01*
X75199248Y-54175349D01*
X75090202Y-54194056D01*
X74982747Y-54212491D01*
X74982685Y-54212502D01*
X74982669Y-54212505D01*
X74977871Y-54213375D01*
X74977707Y-54213407D01*
X74977613Y-54213426D01*
X74976537Y-54213635D01*
X74976126Y-54213715D01*
X74967066Y-54217456D01*
X74950408Y-54222144D01*
X74922311Y-54226595D01*
X74922294Y-54226599D01*
X74757557Y-54280125D01*
X74757553Y-54280127D01*
X74603212Y-54358767D01*
X74463076Y-54460582D01*
X74340582Y-54583076D01*
X74238767Y-54723212D01*
X74160127Y-54877553D01*
X74160125Y-54877557D01*
X74106600Y-55042288D01*
X74106597Y-55042301D01*
X74079500Y-55213388D01*
X74079500Y-55386611D01*
X74106597Y-55557698D01*
X74106600Y-55557711D01*
X74160125Y-55722442D01*
X74160127Y-55722446D01*
X74238767Y-55876787D01*
X74334799Y-56008964D01*
X74340586Y-56016928D01*
X74463072Y-56139414D01*
X74463075Y-56139416D01*
X74463076Y-56139417D01*
X74603212Y-56241232D01*
X74757553Y-56319872D01*
X74757557Y-56319874D01*
X74922288Y-56373399D01*
X74922294Y-56373400D01*
X74922299Y-56373402D01*
X75036359Y-56391467D01*
X75093388Y-56400500D01*
X75093389Y-56400500D01*
X75266612Y-56400500D01*
X75309383Y-56393725D01*
X75437701Y-56373402D01*
X75437708Y-56373399D01*
X75437711Y-56373399D01*
X75602442Y-56319874D01*
X75602442Y-56319873D01*
X75602445Y-56319873D01*
X75756788Y-56241232D01*
X75896928Y-56139414D01*
X76019414Y-56016928D01*
X76121232Y-55876788D01*
X76199873Y-55722445D01*
X76253402Y-55557701D01*
X76259063Y-55521952D01*
X76262734Y-55507895D01*
X76267913Y-55493872D01*
X76312427Y-55213388D01*
X76619500Y-55213388D01*
X76619500Y-55386611D01*
X76646597Y-55557698D01*
X76646600Y-55557711D01*
X76700125Y-55722442D01*
X76700127Y-55722446D01*
X76778767Y-55876787D01*
X76874799Y-56008964D01*
X76880586Y-56016928D01*
X77003072Y-56139414D01*
X77003075Y-56139416D01*
X77003076Y-56139417D01*
X77143212Y-56241232D01*
X77297553Y-56319872D01*
X77297557Y-56319874D01*
X77462288Y-56373399D01*
X77462294Y-56373400D01*
X77462299Y-56373402D01*
X77576359Y-56391467D01*
X77633388Y-56400500D01*
X77633389Y-56400500D01*
X77806612Y-56400500D01*
X77849383Y-56393725D01*
X77977701Y-56373402D01*
X77977708Y-56373399D01*
X77977711Y-56373399D01*
X78142442Y-56319874D01*
X78142442Y-56319873D01*
X78142445Y-56319873D01*
X78296788Y-56241232D01*
X78436928Y-56139414D01*
X78559414Y-56016928D01*
X78661232Y-55876788D01*
X78739873Y-55722445D01*
X78793402Y-55557701D01*
X78820500Y-55386611D01*
X78820500Y-55213389D01*
X78793402Y-55042299D01*
X78793400Y-55042294D01*
X78793399Y-55042288D01*
X78739874Y-54877557D01*
X78739872Y-54877553D01*
X78661232Y-54723212D01*
X78559417Y-54583076D01*
X78559416Y-54583075D01*
X78559414Y-54583072D01*
X78436928Y-54460586D01*
X78436925Y-54460583D01*
X78436923Y-54460582D01*
X78296787Y-54358767D01*
X78142446Y-54280127D01*
X78142442Y-54280125D01*
X77977711Y-54226600D01*
X77977698Y-54226597D01*
X77806612Y-54199500D01*
X77806611Y-54199500D01*
X77633389Y-54199500D01*
X77633388Y-54199500D01*
X77462301Y-54226597D01*
X77462288Y-54226600D01*
X77297557Y-54280125D01*
X77297553Y-54280127D01*
X77143212Y-54358767D01*
X77003076Y-54460582D01*
X76880582Y-54583076D01*
X76778767Y-54723212D01*
X76700127Y-54877553D01*
X76700125Y-54877557D01*
X76646600Y-55042288D01*
X76646597Y-55042301D01*
X76619500Y-55213388D01*
X76312427Y-55213388D01*
X76321360Y-55157099D01*
X76321975Y-55153011D01*
X76322033Y-55152603D01*
X76322670Y-55147792D01*
X76330427Y-55084637D01*
X76330492Y-55084166D01*
X76330496Y-55084157D01*
X76330544Y-55083796D01*
X76358999Y-54885577D01*
X76360297Y-54878804D01*
X76360597Y-54877557D01*
X76375407Y-54815947D01*
X76377742Y-54808150D01*
X76397871Y-54752326D01*
X76401577Y-54743777D01*
X76431042Y-54686081D01*
X76435476Y-54678539D01*
X76482138Y-54608956D01*
X76486385Y-54603240D01*
X76502928Y-54583076D01*
X76557958Y-54516000D01*
X76561392Y-54512105D01*
X76661351Y-54406557D01*
X76661543Y-54406258D01*
X76670070Y-54392913D01*
X76680096Y-54380436D01*
X76702050Y-54358483D01*
X76702053Y-54358482D01*
X76778482Y-54282053D01*
X76832525Y-54188447D01*
X76836254Y-54174532D01*
X76860499Y-54084046D01*
X76860500Y-54084046D01*
X76860500Y-53635494D01*
X76882174Y-53583168D01*
X76934500Y-53561494D01*
X76986826Y-53583168D01*
X77003072Y-53599414D01*
X77003075Y-53599416D01*
X77003076Y-53599417D01*
X77143212Y-53701232D01*
X77297553Y-53779872D01*
X77297557Y-53779874D01*
X77462288Y-53833399D01*
X77462294Y-53833400D01*
X77462299Y-53833402D01*
X77571394Y-53850681D01*
X77633388Y-53860500D01*
X77633389Y-53860500D01*
X77806612Y-53860500D01*
X77849383Y-53853725D01*
X77977701Y-53833402D01*
X77977708Y-53833399D01*
X77977711Y-53833399D01*
X78142442Y-53779874D01*
X78142442Y-53779873D01*
X78142445Y-53779873D01*
X78296788Y-53701232D01*
X78436928Y-53599414D01*
X78559414Y-53476928D01*
X78661232Y-53336788D01*
X78739873Y-53182445D01*
X78751968Y-53145220D01*
X78793399Y-53017711D01*
X78793401Y-53017704D01*
X78793402Y-53017701D01*
X78820500Y-52846611D01*
X78820500Y-52673389D01*
X78817540Y-52654703D01*
X78806109Y-52582526D01*
X78793402Y-52502299D01*
X78793400Y-52502294D01*
X78793399Y-52502288D01*
X78739874Y-52337557D01*
X78739872Y-52337553D01*
X78719813Y-52298185D01*
X78661232Y-52183212D01*
X78639955Y-52153928D01*
X78632617Y-52141401D01*
X78626359Y-52127815D01*
X78426005Y-51851871D01*
X78423281Y-51848190D01*
X78423033Y-51847861D01*
X78421585Y-51845974D01*
X78420332Y-51844341D01*
X78381567Y-51794720D01*
X78380652Y-51793524D01*
X78300571Y-51686599D01*
X78260629Y-51633267D01*
X78256773Y-51627585D01*
X78222999Y-51572432D01*
X78219143Y-51565278D01*
X78193907Y-51511583D01*
X78190480Y-51502910D01*
X78187922Y-51495014D01*
X78170517Y-51441278D01*
X78168314Y-51432790D01*
X78152111Y-51350613D01*
X78151071Y-51343564D01*
X78139996Y-51231310D01*
X78139668Y-51226098D01*
X78135716Y-51080769D01*
X78132231Y-51064948D01*
X78130500Y-51049033D01*
X78130500Y-51030687D01*
X78152174Y-50978361D01*
X88463361Y-40667174D01*
X88515687Y-40645500D01*
X97184335Y-40645500D01*
X97201307Y-40647473D01*
X97203948Y-40648095D01*
X97215164Y-40650738D01*
X97215163Y-40650738D01*
X97215168Y-40650739D01*
X97272775Y-40652758D01*
X97272776Y-40652759D01*
X97330578Y-40654788D01*
X97336139Y-40655193D01*
X97349231Y-40656645D01*
X97438195Y-40666512D01*
X97444085Y-40667408D01*
X97534040Y-40684851D01*
X97540177Y-40686315D01*
X97612807Y-40706955D01*
X97622028Y-40710250D01*
X97768532Y-40773836D01*
X97780021Y-40780084D01*
X97908322Y-40865358D01*
X97917466Y-40872532D01*
X98054141Y-40998320D01*
X98059822Y-41004158D01*
X98248214Y-41220471D01*
X98248516Y-41220821D01*
X98261596Y-41236115D01*
X98264050Y-41239144D01*
X98381081Y-41391661D01*
X98543339Y-41553919D01*
X98725388Y-41693611D01*
X98924112Y-41808344D01*
X99136113Y-41896158D01*
X99357762Y-41955548D01*
X99357761Y-41955548D01*
X99433596Y-41965532D01*
X99585266Y-41985500D01*
X99585268Y-41985500D01*
X99814732Y-41985500D01*
X99814734Y-41985500D01*
X100042238Y-41955548D01*
X100263887Y-41896158D01*
X100475888Y-41808344D01*
X100674612Y-41693611D01*
X100856661Y-41553919D01*
X101018919Y-41391661D01*
X101158611Y-41209612D01*
X101273344Y-41010888D01*
X101361158Y-40798887D01*
X101420548Y-40577238D01*
X101450500Y-40349734D01*
X101450500Y-40120267D01*
X101719500Y-40120267D01*
X101719500Y-40349732D01*
X101749451Y-40577238D01*
X101808841Y-40798884D01*
X101896654Y-41010885D01*
X101896655Y-41010887D01*
X102011388Y-41209611D01*
X102034050Y-41239144D01*
X102151081Y-41391661D01*
X102313339Y-41553919D01*
X102495388Y-41693611D01*
X102694112Y-41808344D01*
X102906113Y-41896158D01*
X103127762Y-41955548D01*
X103127761Y-41955548D01*
X103203596Y-41965532D01*
X103355266Y-41985500D01*
X103355268Y-41985500D01*
X103584732Y-41985500D01*
X103584734Y-41985500D01*
X103812238Y-41955548D01*
X104033887Y-41896158D01*
X104245888Y-41808344D01*
X104444612Y-41693611D01*
X104626661Y-41553919D01*
X104788919Y-41391661D01*
X104928611Y-41209612D01*
X105043344Y-41010888D01*
X105131158Y-40798887D01*
X105190548Y-40577238D01*
X105220500Y-40349734D01*
X105220500Y-40120266D01*
X105190548Y-39892762D01*
X105131158Y-39671113D01*
X105043344Y-39459112D01*
X104928611Y-39260388D01*
X104788919Y-39078339D01*
X104626661Y-38916081D01*
X104444612Y-38776389D01*
X104444613Y-38776389D01*
X104444611Y-38776388D01*
X104245887Y-38661655D01*
X104245885Y-38661654D01*
X104066817Y-38587482D01*
X104033887Y-38573842D01*
X104033885Y-38573841D01*
X104033884Y-38573841D01*
X103812237Y-38514451D01*
X103812238Y-38514451D01*
X103632150Y-38490742D01*
X103584734Y-38484500D01*
X103355266Y-38484500D01*
X103312324Y-38490153D01*
X103127761Y-38514451D01*
X102906115Y-38573841D01*
X102694114Y-38661654D01*
X102694112Y-38661655D01*
X102495388Y-38776388D01*
X102313334Y-38916085D01*
X102151085Y-39078334D01*
X102011388Y-39260388D01*
X101896655Y-39459112D01*
X101896654Y-39459114D01*
X101808841Y-39671115D01*
X101749451Y-39892761D01*
X101719500Y-40120267D01*
X101450500Y-40120267D01*
X101450500Y-40120266D01*
X101420548Y-39892762D01*
X101361158Y-39671113D01*
X101273344Y-39459112D01*
X101158611Y-39260388D01*
X101018919Y-39078339D01*
X100856661Y-38916081D01*
X100674612Y-38776389D01*
X100674613Y-38776389D01*
X100674611Y-38776388D01*
X100475887Y-38661655D01*
X100475885Y-38661654D01*
X100296817Y-38587482D01*
X100263887Y-38573842D01*
X100263885Y-38573841D01*
X100263884Y-38573841D01*
X100042237Y-38514451D01*
X100042238Y-38514451D01*
X99862150Y-38490742D01*
X99814734Y-38484500D01*
X99585266Y-38484500D01*
X99542324Y-38490153D01*
X99357761Y-38514451D01*
X99136115Y-38573841D01*
X98924114Y-38661654D01*
X98924112Y-38661655D01*
X98725388Y-38776388D01*
X98543334Y-38916085D01*
X98381084Y-39078335D01*
X98264060Y-39230841D01*
X98261593Y-39233885D01*
X98248857Y-39248779D01*
X98248314Y-39249406D01*
X98048928Y-39477349D01*
X98044062Y-39482408D01*
X97950943Y-39570424D01*
X97944708Y-39575697D01*
X97845206Y-39650843D01*
X97836667Y-39656412D01*
X97727179Y-39717505D01*
X97716913Y-39722244D01*
X97588902Y-39769845D01*
X97578031Y-39772965D01*
X97421445Y-39805200D01*
X97411151Y-39806575D01*
X97207828Y-39819312D01*
X97207822Y-39819313D01*
X97195705Y-39822321D01*
X97177879Y-39824500D01*
X88260955Y-39824500D01*
X88156555Y-39852473D01*
X88062946Y-39906518D01*
X77391518Y-50577946D01*
X77337473Y-50671555D01*
X77309500Y-50775954D01*
X77309500Y-51049221D01*
X77307636Y-51065725D01*
X77304279Y-51080397D01*
X77299945Y-51231997D01*
X77299574Y-51237575D01*
X77287407Y-51353975D01*
X77286348Y-51360907D01*
X77271981Y-51432169D01*
X77270032Y-51439745D01*
X77254997Y-51487550D01*
X77250460Y-51498709D01*
X77197262Y-51604044D01*
X77190840Y-51614501D01*
X77058116Y-51795129D01*
X77057130Y-51796441D01*
X76993146Y-51879590D01*
X76944058Y-51907841D01*
X76889371Y-51893107D01*
X76861120Y-51844019D01*
X76860500Y-51834461D01*
X76860500Y-49550685D01*
X76882173Y-49498360D01*
X83477053Y-42903479D01*
X83485324Y-42896350D01*
X83503309Y-42883027D01*
X83558894Y-42821761D01*
X83561353Y-42819179D01*
X83722050Y-42658483D01*
X83722053Y-42658482D01*
X83798482Y-42582053D01*
X83852525Y-42488447D01*
X83855753Y-42476398D01*
X83867830Y-42451420D01*
X83953980Y-42335478D01*
X83958415Y-42329321D01*
X83958817Y-42328745D01*
X83963151Y-42322330D01*
X84086025Y-42134385D01*
X84086121Y-42134236D01*
X84086226Y-42134165D01*
X84086186Y-42134139D01*
X84181659Y-41987735D01*
X84183883Y-41984514D01*
X84271291Y-41864822D01*
X84276232Y-41858758D01*
X84365700Y-41760102D01*
X84373289Y-41752844D01*
X84445874Y-41692705D01*
X84448030Y-41690987D01*
X84626661Y-41553919D01*
X84788919Y-41391661D01*
X84928611Y-41209612D01*
X85043344Y-41010888D01*
X85131158Y-40798887D01*
X85190548Y-40577238D01*
X85220500Y-40349734D01*
X85220500Y-40120266D01*
X85190548Y-39892762D01*
X85131158Y-39671113D01*
X85043344Y-39459112D01*
X84928611Y-39260388D01*
X84788919Y-39078339D01*
X84626661Y-38916081D01*
X84444612Y-38776389D01*
X84444613Y-38776389D01*
X84444611Y-38776388D01*
X84245887Y-38661655D01*
X84245885Y-38661654D01*
X84066817Y-38587482D01*
X84033887Y-38573842D01*
X84033885Y-38573841D01*
X84033884Y-38573841D01*
X83812237Y-38514451D01*
X83812238Y-38514451D01*
X83632150Y-38490742D01*
X83584734Y-38484500D01*
X83355266Y-38484500D01*
X83312324Y-38490153D01*
X83127761Y-38514451D01*
X82906115Y-38573841D01*
X82694114Y-38661654D01*
X82694112Y-38661655D01*
X82495388Y-38776388D01*
X82313334Y-38916085D01*
X82151085Y-39078334D01*
X82011388Y-39260388D01*
X81896655Y-39459112D01*
X81896654Y-39459114D01*
X81808841Y-39671115D01*
X81749451Y-39892761D01*
X81719500Y-40120267D01*
X81719500Y-40349732D01*
X81749451Y-40577238D01*
X81808841Y-40798884D01*
X81896654Y-41010885D01*
X81896655Y-41010887D01*
X82011388Y-41209611D01*
X82034050Y-41239144D01*
X82151081Y-41391661D01*
X82313339Y-41553919D01*
X82495388Y-41693611D01*
X82495391Y-41693613D01*
X82544405Y-41721911D01*
X82554026Y-41728530D01*
X82774464Y-41907417D01*
X82779785Y-41912180D01*
X82870996Y-42002130D01*
X82877708Y-42009723D01*
X82941709Y-42092991D01*
X82948007Y-42102663D01*
X82958824Y-42122502D01*
X82963103Y-42131838D01*
X82969301Y-42148290D01*
X82972687Y-42160232D01*
X82974010Y-42167025D01*
X82975375Y-42181109D01*
X82975376Y-42182299D01*
X82973878Y-42197175D01*
X82973254Y-42200229D01*
X82968969Y-42214094D01*
X82963784Y-42226427D01*
X82957727Y-42237899D01*
X82941326Y-42263290D01*
X82934709Y-42272037D01*
X82895042Y-42317093D01*
X82895040Y-42317095D01*
X82888661Y-42327704D01*
X82877572Y-42341892D01*
X76121518Y-49097946D01*
X76067473Y-49191555D01*
X76039500Y-49295954D01*
X76039500Y-51884506D01*
X76017826Y-51936832D01*
X75965500Y-51958506D01*
X75913174Y-51936832D01*
X75896933Y-51920591D01*
X75896928Y-51920586D01*
X75896925Y-51920583D01*
X75896923Y-51920582D01*
X75756787Y-51818767D01*
X75602446Y-51740127D01*
X75602442Y-51740125D01*
X75437711Y-51686600D01*
X75437698Y-51686597D01*
X75266612Y-51659500D01*
X75266611Y-51659500D01*
X75093389Y-51659500D01*
X75093388Y-51659500D01*
X74922301Y-51686597D01*
X74922288Y-51686600D01*
X74757557Y-51740125D01*
X74757553Y-51740127D01*
X74603212Y-51818767D01*
X74463076Y-51920582D01*
X74340582Y-52043076D01*
X74238767Y-52183212D01*
X74160127Y-52337553D01*
X74160125Y-52337557D01*
X74106600Y-52502288D01*
X74106597Y-52502301D01*
X74079500Y-52673388D01*
X73740500Y-52673388D01*
X73737540Y-52654703D01*
X73726109Y-52582526D01*
X73713402Y-52502299D01*
X73713400Y-52502294D01*
X73713399Y-52502288D01*
X73659874Y-52337557D01*
X73659872Y-52337553D01*
X73581232Y-52183212D01*
X73479417Y-52043076D01*
X73479416Y-52043075D01*
X73479414Y-52043072D01*
X73356928Y-51920586D01*
X73356925Y-51920583D01*
X73356923Y-51920582D01*
X73216787Y-51818767D01*
X73062446Y-51740127D01*
X73062442Y-51740125D01*
X72897711Y-51686600D01*
X72897698Y-51686597D01*
X72726612Y-51659500D01*
X72726611Y-51659500D01*
X72553389Y-51659500D01*
X72553388Y-51659500D01*
X72382301Y-51686597D01*
X72382288Y-51686600D01*
X72217557Y-51740125D01*
X72217553Y-51740127D01*
X72063212Y-51818767D01*
X71923076Y-51920582D01*
X71800582Y-52043076D01*
X71698767Y-52183212D01*
X71620127Y-52337553D01*
X71620125Y-52337557D01*
X71566600Y-52502288D01*
X71566597Y-52502301D01*
X71539500Y-52673388D01*
X65793334Y-52673388D01*
X64142174Y-51022228D01*
X64120500Y-50969902D01*
X64120500Y-42749568D01*
X64122387Y-42732964D01*
X64125725Y-42718467D01*
X64129946Y-42577521D01*
X64130239Y-42572811D01*
X64133600Y-42537113D01*
X64142333Y-42444353D01*
X64142974Y-42439369D01*
X64161939Y-42323643D01*
X64162996Y-42318395D01*
X64163308Y-42317095D01*
X64186372Y-42220731D01*
X64188802Y-42212648D01*
X64192083Y-42203634D01*
X64257037Y-42025188D01*
X64261905Y-42014531D01*
X64349967Y-41856261D01*
X64356191Y-41846849D01*
X64473434Y-41695982D01*
X64479668Y-41688935D01*
X64574026Y-41595072D01*
X64581164Y-41588829D01*
X64626661Y-41553919D01*
X64788919Y-41391661D01*
X64928611Y-41209612D01*
X65043344Y-41010888D01*
X65131158Y-40798887D01*
X65190548Y-40577238D01*
X65220500Y-40349734D01*
X65220500Y-40120267D01*
X77949500Y-40120267D01*
X77949500Y-40349732D01*
X77979451Y-40577238D01*
X78038841Y-40798884D01*
X78126654Y-41010885D01*
X78126655Y-41010887D01*
X78241388Y-41209611D01*
X78264050Y-41239144D01*
X78381081Y-41391661D01*
X78543339Y-41553919D01*
X78725388Y-41693611D01*
X78924112Y-41808344D01*
X79136113Y-41896158D01*
X79357762Y-41955548D01*
X79357761Y-41955548D01*
X79433596Y-41965532D01*
X79585266Y-41985500D01*
X79585268Y-41985500D01*
X79814732Y-41985500D01*
X79814734Y-41985500D01*
X80042238Y-41955548D01*
X80263887Y-41896158D01*
X80475888Y-41808344D01*
X80674612Y-41693611D01*
X80856661Y-41553919D01*
X81018919Y-41391661D01*
X81158611Y-41209612D01*
X81273344Y-41010888D01*
X81361158Y-40798887D01*
X81420548Y-40577238D01*
X81450500Y-40349734D01*
X81450500Y-40120266D01*
X81420548Y-39892762D01*
X81361158Y-39671113D01*
X81273344Y-39459112D01*
X81158611Y-39260388D01*
X81018919Y-39078339D01*
X80856661Y-38916081D01*
X80674612Y-38776389D01*
X80674613Y-38776389D01*
X80674611Y-38776388D01*
X80475887Y-38661655D01*
X80475885Y-38661654D01*
X80296817Y-38587482D01*
X80263887Y-38573842D01*
X80263885Y-38573841D01*
X80263884Y-38573841D01*
X80042237Y-38514451D01*
X80042238Y-38514451D01*
X79862150Y-38490742D01*
X79814734Y-38484500D01*
X79585266Y-38484500D01*
X79542324Y-38490153D01*
X79357761Y-38514451D01*
X79136115Y-38573841D01*
X78924114Y-38661654D01*
X78924112Y-38661655D01*
X78725388Y-38776388D01*
X78543334Y-38916085D01*
X78381085Y-39078334D01*
X78241388Y-39260388D01*
X78126655Y-39459112D01*
X78126654Y-39459114D01*
X78038841Y-39671115D01*
X77979451Y-39892761D01*
X77949500Y-40120267D01*
X65220500Y-40120267D01*
X65220500Y-40120266D01*
X65211488Y-40051820D01*
X65211469Y-40051671D01*
X65211482Y-40051622D01*
X65210884Y-40043454D01*
X65209793Y-39971912D01*
X65210036Y-39964688D01*
X65221815Y-39822321D01*
X65224776Y-39786520D01*
X65225802Y-39778935D01*
X65227141Y-39771822D01*
X65243769Y-39683496D01*
X65245256Y-39677152D01*
X65252659Y-39650843D01*
X65273905Y-39575332D01*
X65275927Y-39569192D01*
X65310023Y-39479183D01*
X65312436Y-39473541D01*
X65357666Y-39378947D01*
X65360436Y-39373708D01*
X65413923Y-39281697D01*
X65416887Y-39277014D01*
X65483397Y-39180239D01*
X65486500Y-39176051D01*
X65564937Y-39077648D01*
X65568062Y-39073980D01*
X65665154Y-38967313D01*
X65685513Y-38946624D01*
X65697609Y-38928279D01*
X65700296Y-38925065D01*
X65701136Y-38924625D01*
X65704747Y-38920197D01*
X66905277Y-37719669D01*
X66976465Y-37613127D01*
X66995354Y-37567525D01*
X67025501Y-37494744D01*
X67050500Y-37369069D01*
X67050500Y-33770267D01*
X77949500Y-33770267D01*
X77949500Y-33999732D01*
X77979451Y-34227238D01*
X78038841Y-34448884D01*
X78126654Y-34660885D01*
X78126655Y-34660887D01*
X78241388Y-34859611D01*
X78260486Y-34884500D01*
X78381081Y-35041661D01*
X78543339Y-35203919D01*
X78725388Y-35343611D01*
X78924112Y-35458344D01*
X79136113Y-35546158D01*
X79357762Y-35605548D01*
X79357761Y-35605548D01*
X79433596Y-35615532D01*
X79585266Y-35635500D01*
X79585268Y-35635500D01*
X79814732Y-35635500D01*
X79814734Y-35635500D01*
X79889697Y-35625630D01*
X79897735Y-35625015D01*
X80098651Y-35620650D01*
X80105705Y-35620836D01*
X80246126Y-35631273D01*
X80254027Y-35632289D01*
X80393714Y-35657983D01*
X80403098Y-35660354D01*
X80543533Y-35705800D01*
X80553306Y-35709752D01*
X80700016Y-35781643D01*
X80709037Y-35786884D01*
X80810460Y-35855832D01*
X80866617Y-35894008D01*
X80874203Y-35899921D01*
X81050802Y-36057048D01*
X81058576Y-36061765D01*
X81061901Y-36063782D01*
X81075842Y-36074722D01*
X82454485Y-37453365D01*
X82561635Y-37560515D01*
X82692865Y-37636281D01*
X82839231Y-37675499D01*
X82839232Y-37675500D01*
X82839234Y-37675500D01*
X82990767Y-37675500D01*
X97724234Y-37675500D01*
X98874234Y-37675500D01*
X99025766Y-37675500D01*
X99674234Y-37675500D01*
X100374233Y-37675500D01*
X100374234Y-37675500D01*
X100874234Y-37675500D01*
X107005968Y-37675500D01*
X107058294Y-37697174D01*
X107377826Y-38016706D01*
X107399500Y-38069032D01*
X107399500Y-40755968D01*
X107377826Y-40808294D01*
X104983294Y-43202826D01*
X104930968Y-43224500D01*
X87224231Y-43224500D01*
X87077868Y-43263717D01*
X87077863Y-43263719D01*
X86946636Y-43339484D01*
X86946633Y-43339486D01*
X86946626Y-43339494D01*
X79799483Y-50486637D01*
X79723721Y-50617860D01*
X79723717Y-50617869D01*
X79684500Y-50764231D01*
X79684500Y-51048605D01*
X79682589Y-51065315D01*
X79679269Y-51079634D01*
X79675178Y-51209742D01*
X79674817Y-51215078D01*
X79663708Y-51321789D01*
X79662825Y-51327834D01*
X79646894Y-51412353D01*
X79645388Y-51418762D01*
X79627592Y-51481763D01*
X79624304Y-51491011D01*
X79563847Y-51630859D01*
X79559951Y-51638593D01*
X79484530Y-51768766D01*
X79484283Y-51769190D01*
X79409409Y-51896462D01*
X79405260Y-51903785D01*
X79404919Y-51904410D01*
X79400787Y-51912316D01*
X79326488Y-52060660D01*
X79320812Y-52072770D01*
X79320331Y-52073871D01*
X79315249Y-52086389D01*
X79271184Y-52203771D01*
X79247016Y-52268150D01*
X79246448Y-52269662D01*
X79241771Y-52283271D01*
X79241378Y-52284528D01*
X79237528Y-52298178D01*
X79181599Y-52519771D01*
X79180187Y-52525662D01*
X79180052Y-52526256D01*
X79178680Y-52532682D01*
X79178663Y-52546656D01*
X79177752Y-52558140D01*
X79159500Y-52673387D01*
X79159500Y-52846611D01*
X79186597Y-53017698D01*
X79186600Y-53017711D01*
X79240125Y-53182442D01*
X79240127Y-53182446D01*
X79318767Y-53336787D01*
X79336833Y-53361653D01*
X79420586Y-53476928D01*
X79543072Y-53599414D01*
X79543075Y-53599416D01*
X79543076Y-53599417D01*
X79683212Y-53701232D01*
X79837553Y-53779872D01*
X79837557Y-53779874D01*
X80002288Y-53833399D01*
X80002294Y-53833400D01*
X80002299Y-53833402D01*
X80111394Y-53850681D01*
X80173388Y-53860500D01*
X80173389Y-53860500D01*
X80346612Y-53860500D01*
X80389383Y-53853725D01*
X80517701Y-53833402D01*
X80517708Y-53833399D01*
X80517711Y-53833399D01*
X80682442Y-53779874D01*
X80682442Y-53779873D01*
X80682445Y-53779873D01*
X80836788Y-53701232D01*
X80972005Y-53602990D01*
X81027076Y-53589769D01*
X81075367Y-53619362D01*
X81089500Y-53662858D01*
X81089500Y-56954045D01*
X81117473Y-57058444D01*
X81171518Y-57152053D01*
X83468929Y-59449463D01*
X83468934Y-59449469D01*
X83471518Y-59452053D01*
X83547947Y-59528482D01*
X83641553Y-59582525D01*
X83641555Y-59582526D01*
X83714938Y-59602188D01*
X83745953Y-59610499D01*
X83745954Y-59610500D01*
X83745956Y-59610500D01*
X155789045Y-59610500D01*
X155789045Y-59610499D01*
X155862428Y-59590836D01*
X155893444Y-59582526D01*
X155893444Y-59582525D01*
X155893447Y-59582525D01*
X155987053Y-59528482D01*
X173211435Y-42304097D01*
X173214887Y-42300861D01*
X173219539Y-42296771D01*
X173236931Y-42286013D01*
X173322202Y-42206519D01*
X173322986Y-42205831D01*
X173323112Y-42205787D01*
X173325578Y-42203656D01*
X173405798Y-42139454D01*
X173410598Y-42135921D01*
X173486535Y-42084650D01*
X173491895Y-42081356D01*
X173557856Y-42044590D01*
X173566712Y-42040395D01*
X173715262Y-41981766D01*
X173727785Y-41978065D01*
X173878836Y-41947634D01*
X173890365Y-41946243D01*
X174075956Y-41938546D01*
X174084092Y-41938656D01*
X174370090Y-41958387D01*
X174370730Y-41958434D01*
X174390793Y-41960000D01*
X174394669Y-41960406D01*
X174585266Y-41985500D01*
X174585268Y-41985500D01*
X174814732Y-41985500D01*
X174814734Y-41985500D01*
X175042238Y-41955548D01*
X175263887Y-41896158D01*
X175475888Y-41808344D01*
X175674612Y-41693611D01*
X175856661Y-41553919D01*
X176018919Y-41391661D01*
X176158611Y-41209612D01*
X176273344Y-41010888D01*
X176361158Y-40798887D01*
X176420548Y-40577238D01*
X176450500Y-40349734D01*
X176450500Y-40120267D01*
X181719500Y-40120267D01*
X181719500Y-40349732D01*
X181749451Y-40577238D01*
X181808841Y-40798884D01*
X181896654Y-41010885D01*
X181896655Y-41010887D01*
X182011388Y-41209611D01*
X182034050Y-41239144D01*
X182151081Y-41391661D01*
X182313339Y-41553919D01*
X182495388Y-41693611D01*
X182694112Y-41808344D01*
X182906113Y-41896158D01*
X183127762Y-41955548D01*
X183127761Y-41955548D01*
X183203596Y-41965532D01*
X183355266Y-41985500D01*
X183355268Y-41985500D01*
X183584732Y-41985500D01*
X183584734Y-41985500D01*
X183812238Y-41955548D01*
X184033887Y-41896158D01*
X184245888Y-41808344D01*
X184444612Y-41693611D01*
X184626661Y-41553919D01*
X184788919Y-41391661D01*
X184928611Y-41209612D01*
X185043344Y-41010888D01*
X185131158Y-40798887D01*
X185190548Y-40577238D01*
X185220500Y-40349734D01*
X185220500Y-40120266D01*
X185190548Y-39892762D01*
X185131158Y-39671113D01*
X185043344Y-39459112D01*
X184928611Y-39260388D01*
X184788919Y-39078339D01*
X184626661Y-38916081D01*
X184444612Y-38776389D01*
X184444613Y-38776389D01*
X184444611Y-38776388D01*
X184245887Y-38661655D01*
X184245885Y-38661654D01*
X184066817Y-38587482D01*
X184033887Y-38573842D01*
X184033885Y-38573841D01*
X184033884Y-38573841D01*
X183812237Y-38514451D01*
X183812238Y-38514451D01*
X183632150Y-38490742D01*
X183584734Y-38484500D01*
X183355266Y-38484500D01*
X183312324Y-38490153D01*
X183127761Y-38514451D01*
X182906115Y-38573841D01*
X182694114Y-38661654D01*
X182694112Y-38661655D01*
X182495388Y-38776388D01*
X182313334Y-38916085D01*
X182151085Y-39078334D01*
X182011388Y-39260388D01*
X181896655Y-39459112D01*
X181896654Y-39459114D01*
X181808841Y-39671115D01*
X181749451Y-39892761D01*
X181719500Y-40120267D01*
X176450500Y-40120267D01*
X176450500Y-40120266D01*
X176420548Y-39892762D01*
X176361158Y-39671113D01*
X176273344Y-39459112D01*
X176158611Y-39260388D01*
X176018919Y-39078339D01*
X175856661Y-38916081D01*
X175674612Y-38776389D01*
X175674613Y-38776389D01*
X175674611Y-38776388D01*
X175475887Y-38661655D01*
X175475885Y-38661654D01*
X175296817Y-38587482D01*
X175263887Y-38573842D01*
X175263885Y-38573841D01*
X175263884Y-38573841D01*
X175042237Y-38514451D01*
X175042238Y-38514451D01*
X174862150Y-38490742D01*
X174814734Y-38484500D01*
X174585266Y-38484500D01*
X174542324Y-38490153D01*
X174357761Y-38514451D01*
X174136115Y-38573841D01*
X173924114Y-38661654D01*
X173924112Y-38661655D01*
X173725388Y-38776388D01*
X173543334Y-38916085D01*
X173381085Y-39078334D01*
X173241388Y-39260388D01*
X173126655Y-39459112D01*
X173126654Y-39459114D01*
X173038841Y-39671115D01*
X172979451Y-39892761D01*
X172949500Y-40120267D01*
X172949500Y-40349732D01*
X172974588Y-40540300D01*
X172974996Y-40544199D01*
X172976522Y-40563744D01*
X172976582Y-40564570D01*
X172985843Y-40703153D01*
X172985845Y-40703166D01*
X172996776Y-40866741D01*
X172996912Y-40873758D01*
X172993305Y-41001840D01*
X172992625Y-41009978D01*
X172975402Y-41133475D01*
X172973301Y-41143451D01*
X172939081Y-41264067D01*
X172935173Y-41274677D01*
X172878314Y-41398855D01*
X172872834Y-41408748D01*
X172784906Y-41542264D01*
X172778599Y-41550516D01*
X172643832Y-41703296D01*
X172637384Y-41714001D01*
X172626324Y-41728140D01*
X155586639Y-58767826D01*
X155534313Y-58789500D01*
X84000686Y-58789500D01*
X83948360Y-58767826D01*
X81932174Y-56751639D01*
X81910500Y-56699313D01*
X81910500Y-53605494D01*
X81932174Y-53553168D01*
X81984500Y-53531494D01*
X82036826Y-53553168D01*
X82083072Y-53599414D01*
X82083075Y-53599416D01*
X82083076Y-53599417D01*
X82223212Y-53701232D01*
X82377553Y-53779872D01*
X82377557Y-53779874D01*
X82542288Y-53833399D01*
X82542294Y-53833400D01*
X82542299Y-53833402D01*
X82578043Y-53839063D01*
X82592098Y-53842732D01*
X82606127Y-53847913D01*
X82606129Y-53847913D01*
X82606132Y-53847914D01*
X82742388Y-53869538D01*
X82942900Y-53901360D01*
X82946988Y-53901975D01*
X82947084Y-53901988D01*
X82947093Y-53901990D01*
X82947324Y-53902023D01*
X82947348Y-53902026D01*
X82947396Y-53902033D01*
X82952227Y-53902673D01*
X82963885Y-53904104D01*
X82977452Y-53905769D01*
X82980988Y-53906203D01*
X82980990Y-53906204D01*
X82998265Y-53908325D01*
X83014736Y-53910348D01*
X83016196Y-53910543D01*
X83214408Y-53938997D01*
X83221189Y-53940296D01*
X83284047Y-53955406D01*
X83291850Y-53957743D01*
X83347658Y-53977866D01*
X83356213Y-53981575D01*
X83413913Y-54011041D01*
X83421455Y-54015475D01*
X83491041Y-54062138D01*
X83496752Y-54066381D01*
X83583983Y-54137947D01*
X83587904Y-54141405D01*
X83666383Y-54215725D01*
X83689473Y-54267441D01*
X83689500Y-54269454D01*
X83689500Y-56254045D01*
X83717473Y-56358444D01*
X83731295Y-56382385D01*
X83771518Y-56452053D01*
X84647947Y-57328482D01*
X84741553Y-57382525D01*
X84741555Y-57382526D01*
X84814938Y-57402188D01*
X84845954Y-57410499D01*
X84845955Y-57410500D01*
X84845957Y-57410500D01*
X151639045Y-57410500D01*
X151639045Y-57410499D01*
X151712428Y-57390836D01*
X151743444Y-57382526D01*
X151743444Y-57382525D01*
X151743447Y-57382525D01*
X151837053Y-57328482D01*
X173211437Y-35954096D01*
X173214888Y-35950861D01*
X173219543Y-35946768D01*
X173236931Y-35936013D01*
X173322200Y-35856521D01*
X173322985Y-35855832D01*
X173323111Y-35855788D01*
X173325578Y-35853656D01*
X173405798Y-35789454D01*
X173410598Y-35785921D01*
X173486535Y-35734650D01*
X173491895Y-35731356D01*
X173557856Y-35694590D01*
X173566712Y-35690395D01*
X173715262Y-35631766D01*
X173727785Y-35628065D01*
X173878836Y-35597634D01*
X173890365Y-35596243D01*
X174075956Y-35588546D01*
X174084092Y-35588656D01*
X174370090Y-35608387D01*
X174370730Y-35608434D01*
X174390793Y-35610000D01*
X174394669Y-35610406D01*
X174585266Y-35635500D01*
X174585268Y-35635500D01*
X174814732Y-35635500D01*
X174814734Y-35635500D01*
X175042238Y-35605548D01*
X175263887Y-35546158D01*
X175475888Y-35458344D01*
X175674612Y-35343611D01*
X175856661Y-35203919D01*
X176018919Y-35041661D01*
X176158611Y-34859612D01*
X176273344Y-34660888D01*
X176361158Y-34448887D01*
X176420548Y-34227238D01*
X176450500Y-33999734D01*
X176450500Y-33770267D01*
X181719500Y-33770267D01*
X181719500Y-33999732D01*
X181749451Y-34227238D01*
X181808841Y-34448884D01*
X181896654Y-34660885D01*
X181896655Y-34660887D01*
X182011388Y-34859611D01*
X182030486Y-34884500D01*
X182151081Y-35041661D01*
X182313339Y-35203919D01*
X182495388Y-35343611D01*
X182694112Y-35458344D01*
X182906113Y-35546158D01*
X183127762Y-35605548D01*
X183127761Y-35605548D01*
X183203596Y-35615532D01*
X183355266Y-35635500D01*
X183355268Y-35635500D01*
X183584732Y-35635500D01*
X183584734Y-35635500D01*
X183812238Y-35605548D01*
X184033887Y-35546158D01*
X184245888Y-35458344D01*
X184444612Y-35343611D01*
X184626661Y-35203919D01*
X184788919Y-35041661D01*
X184928611Y-34859612D01*
X185043344Y-34660888D01*
X185131158Y-34448887D01*
X185190548Y-34227238D01*
X185220500Y-33999734D01*
X185220500Y-33770266D01*
X185196584Y-33588610D01*
X185190548Y-33542761D01*
X185146352Y-33377818D01*
X185131158Y-33321113D01*
X185043344Y-33109112D01*
X184928611Y-32910388D01*
X184788919Y-32728339D01*
X184626661Y-32566081D01*
X184444612Y-32426389D01*
X184444613Y-32426389D01*
X184444611Y-32426388D01*
X184245887Y-32311655D01*
X184245885Y-32311654D01*
X184085325Y-32245148D01*
X184033887Y-32223842D01*
X184033885Y-32223841D01*
X184033884Y-32223841D01*
X183812237Y-32164451D01*
X183812238Y-32164451D01*
X183613050Y-32138228D01*
X183584734Y-32134500D01*
X183355266Y-32134500D01*
X183326950Y-32138228D01*
X183127761Y-32164451D01*
X182906115Y-32223841D01*
X182694114Y-32311654D01*
X182694112Y-32311655D01*
X182495388Y-32426388D01*
X182313334Y-32566085D01*
X182151085Y-32728334D01*
X182011388Y-32910388D01*
X181896655Y-33109112D01*
X181896654Y-33109114D01*
X181808841Y-33321115D01*
X181749451Y-33542761D01*
X181719500Y-33770267D01*
X176450500Y-33770267D01*
X176450500Y-33770266D01*
X176426584Y-33588610D01*
X176420548Y-33542761D01*
X176376352Y-33377818D01*
X176361158Y-33321113D01*
X176273344Y-33109112D01*
X176158611Y-32910388D01*
X176018919Y-32728339D01*
X175856661Y-32566081D01*
X175674612Y-32426389D01*
X175674613Y-32426389D01*
X175674611Y-32426388D01*
X175475887Y-32311655D01*
X175475885Y-32311654D01*
X175315325Y-32245148D01*
X175263887Y-32223842D01*
X175263885Y-32223841D01*
X175263884Y-32223841D01*
X175042237Y-32164451D01*
X175042238Y-32164451D01*
X174843050Y-32138228D01*
X174814734Y-32134500D01*
X174585266Y-32134500D01*
X174556950Y-32138228D01*
X174357761Y-32164451D01*
X174136115Y-32223841D01*
X173924114Y-32311654D01*
X173924112Y-32311655D01*
X173725388Y-32426388D01*
X173543334Y-32566085D01*
X173381085Y-32728334D01*
X173241388Y-32910388D01*
X173126655Y-33109112D01*
X173126654Y-33109114D01*
X173038841Y-33321115D01*
X172979451Y-33542761D01*
X172949500Y-33770267D01*
X172949500Y-33999732D01*
X172974588Y-34190300D01*
X172974996Y-34194199D01*
X172976522Y-34213744D01*
X172976582Y-34214570D01*
X172985843Y-34353153D01*
X172985845Y-34353166D01*
X172996776Y-34516741D01*
X172996912Y-34523758D01*
X172993305Y-34651840D01*
X172992625Y-34659978D01*
X172975402Y-34783475D01*
X172973301Y-34793451D01*
X172939081Y-34914067D01*
X172935173Y-34924677D01*
X172878314Y-35048855D01*
X172872834Y-35058748D01*
X172784906Y-35192264D01*
X172778599Y-35200516D01*
X172643836Y-35353291D01*
X172637387Y-35363997D01*
X172626327Y-35378136D01*
X151436639Y-56567826D01*
X151384313Y-56589500D01*
X85100687Y-56589500D01*
X85048361Y-56567826D01*
X84532174Y-56051639D01*
X84510500Y-55999313D01*
X84510500Y-54827522D01*
X97149500Y-54827522D01*
X97149500Y-54972477D01*
X97187014Y-55112481D01*
X97187016Y-55112486D01*
X97253987Y-55228482D01*
X97259491Y-55238015D01*
X97361985Y-55340509D01*
X97487515Y-55412984D01*
X97487516Y-55412984D01*
X97487518Y-55412985D01*
X97557520Y-55431742D01*
X97627522Y-55450499D01*
X97627523Y-55450500D01*
X97627525Y-55450500D01*
X97772477Y-55450500D01*
X97772477Y-55450499D01*
X97912485Y-55412984D01*
X98038015Y-55340509D01*
X98046350Y-55332174D01*
X98098676Y-55310500D01*
X148666545Y-55310500D01*
X148666545Y-55310499D01*
X148739928Y-55290836D01*
X148770944Y-55282526D01*
X148770944Y-55282525D01*
X148770947Y-55282525D01*
X148864553Y-55228482D01*
X153298426Y-50794607D01*
X153314979Y-50782156D01*
X153321591Y-50778506D01*
X153491536Y-50635118D01*
X153497757Y-50630410D01*
X153594633Y-50564855D01*
X153599376Y-50561902D01*
X153710572Y-50498351D01*
X153715832Y-50495621D01*
X153811508Y-50450758D01*
X153817607Y-50448225D01*
X153912673Y-50413644D01*
X153919725Y-50411472D01*
X153990497Y-50393479D01*
X153998545Y-50391902D01*
X154066573Y-50382460D01*
X154074435Y-50381793D01*
X154103297Y-50380900D01*
X154140955Y-50376324D01*
X154143301Y-50376039D01*
X154152226Y-50375499D01*
X154397872Y-50375499D01*
X154457483Y-50369091D01*
X154524907Y-50343943D01*
X154592329Y-50318797D01*
X154592329Y-50318796D01*
X154592331Y-50318796D01*
X154707546Y-50232546D01*
X154793796Y-50117331D01*
X154844091Y-49982483D01*
X154850500Y-49922873D01*
X154850499Y-49302128D01*
X154844091Y-49242517D01*
X154844089Y-49242512D01*
X154793797Y-49107670D01*
X154793796Y-49107669D01*
X154786517Y-49097946D01*
X154707546Y-48992454D01*
X154592331Y-48906204D01*
X154592330Y-48906203D01*
X154592329Y-48906202D01*
X154457487Y-48855910D01*
X154457484Y-48855909D01*
X154457483Y-48855909D01*
X154397873Y-48849500D01*
X153402126Y-48849500D01*
X153342514Y-48855909D01*
X153207670Y-48906202D01*
X153207669Y-48906203D01*
X153092454Y-48992454D01*
X153006203Y-49107669D01*
X153006202Y-49107670D01*
X152955910Y-49242512D01*
X152955909Y-49242517D01*
X152949500Y-49302126D01*
X152949500Y-49811428D01*
X152946087Y-49833642D01*
X152926897Y-49894620D01*
X152921791Y-49906877D01*
X152854881Y-50033979D01*
X152848426Y-50044139D01*
X152752179Y-50171430D01*
X152746634Y-50177944D01*
X152745634Y-50178989D01*
X152745626Y-50178999D01*
X152742274Y-50184199D01*
X152739221Y-50188579D01*
X152729720Y-50201212D01*
X152722905Y-50209059D01*
X148464139Y-54467826D01*
X148411813Y-54489500D01*
X98098676Y-54489500D01*
X98046350Y-54467826D01*
X98038015Y-54459491D01*
X97912486Y-54387016D01*
X97912481Y-54387014D01*
X97772477Y-54349500D01*
X97772475Y-54349500D01*
X97627525Y-54349500D01*
X97627523Y-54349500D01*
X97487518Y-54387014D01*
X97487513Y-54387016D01*
X97361984Y-54459491D01*
X97259491Y-54561984D01*
X97187016Y-54687513D01*
X97187014Y-54687518D01*
X97149500Y-54827522D01*
X84510500Y-54827522D01*
X84510500Y-54005955D01*
X84510499Y-54005954D01*
X84509471Y-54002119D01*
X84492558Y-53938997D01*
X84482526Y-53901555D01*
X84482525Y-53901553D01*
X84428482Y-53807947D01*
X84352053Y-53731518D01*
X84299966Y-53679431D01*
X84289614Y-53666443D01*
X84281615Y-53653698D01*
X84177484Y-53543441D01*
X84173815Y-53539250D01*
X84100085Y-53448308D01*
X84095945Y-53442674D01*
X84055710Y-53382116D01*
X84051732Y-53375382D01*
X84037057Y-53347241D01*
X84028562Y-53330952D01*
X84023881Y-53319856D01*
X83987016Y-53207765D01*
X83984162Y-53195829D01*
X83982116Y-53182445D01*
X83950272Y-52974147D01*
X83950063Y-52972670D01*
X83926255Y-52789893D01*
X83925572Y-52785021D01*
X83925502Y-52784554D01*
X83924646Y-52779228D01*
X83887517Y-52562800D01*
X83886810Y-52558864D01*
X83886755Y-52558571D01*
X83886736Y-52558473D01*
X83886719Y-52558381D01*
X83886285Y-52556134D01*
X83886284Y-52556130D01*
X83882672Y-52547385D01*
X83882545Y-52547077D01*
X83877853Y-52530406D01*
X83873402Y-52502299D01*
X83873401Y-52502295D01*
X83819874Y-52337557D01*
X83819872Y-52337553D01*
X83741232Y-52183212D01*
X83639417Y-52043076D01*
X83639416Y-52043075D01*
X83639414Y-52043072D01*
X83633168Y-52036826D01*
X83611494Y-51984500D01*
X83633168Y-51932174D01*
X83685494Y-51910500D01*
X83868230Y-51910500D01*
X83869280Y-51910935D01*
X83870344Y-51910530D01*
X83895297Y-51921711D01*
X83920556Y-51932174D01*
X83922013Y-51933674D01*
X83962515Y-51976558D01*
X83966197Y-51980765D01*
X84039123Y-52070717D01*
X84039898Y-52071672D01*
X84044052Y-52077323D01*
X84084282Y-52137873D01*
X84088260Y-52144606D01*
X84111436Y-52189047D01*
X84116118Y-52200146D01*
X84152984Y-52312243D01*
X84155838Y-52324179D01*
X84189712Y-52545761D01*
X84189942Y-52547385D01*
X84213745Y-52730113D01*
X84214402Y-52734816D01*
X84214444Y-52735098D01*
X84214457Y-52735180D01*
X84214464Y-52735226D01*
X84215352Y-52740766D01*
X84252489Y-52957240D01*
X84253322Y-52961846D01*
X84253370Y-52962098D01*
X84253386Y-52962180D01*
X84253714Y-52963866D01*
X84257455Y-52972927D01*
X84262145Y-52989590D01*
X84266598Y-53017704D01*
X84266599Y-53017706D01*
X84320125Y-53182442D01*
X84320127Y-53182446D01*
X84398767Y-53336787D01*
X84416833Y-53361653D01*
X84500586Y-53476928D01*
X84623072Y-53599414D01*
X84623075Y-53599416D01*
X84623076Y-53599417D01*
X84763212Y-53701232D01*
X84917553Y-53779872D01*
X84917557Y-53779874D01*
X85082288Y-53833399D01*
X85082294Y-53833400D01*
X85082299Y-53833402D01*
X85191394Y-53850681D01*
X85253388Y-53860500D01*
X85253389Y-53860500D01*
X85426612Y-53860500D01*
X85469383Y-53853725D01*
X85597701Y-53833402D01*
X85597708Y-53833399D01*
X85597711Y-53833399D01*
X85762442Y-53779874D01*
X85762442Y-53779873D01*
X85762445Y-53779873D01*
X85916788Y-53701232D01*
X86056928Y-53599414D01*
X86179414Y-53476928D01*
X86281232Y-53336788D01*
X86359873Y-53182445D01*
X86371968Y-53145220D01*
X86413399Y-53017711D01*
X86413401Y-53017704D01*
X86413402Y-53017701D01*
X86440500Y-52846611D01*
X86440500Y-52673389D01*
X86440500Y-52673388D01*
X86779500Y-52673388D01*
X86779500Y-52846611D01*
X86806597Y-53017698D01*
X86806600Y-53017711D01*
X86860125Y-53182442D01*
X86860127Y-53182446D01*
X86938767Y-53336787D01*
X86956833Y-53361653D01*
X87040586Y-53476928D01*
X87163072Y-53599414D01*
X87163075Y-53599416D01*
X87163076Y-53599417D01*
X87303212Y-53701232D01*
X87457553Y-53779872D01*
X87457557Y-53779874D01*
X87622288Y-53833399D01*
X87622294Y-53833400D01*
X87622299Y-53833402D01*
X87731394Y-53850681D01*
X87793388Y-53860500D01*
X87793389Y-53860500D01*
X87966612Y-53860500D01*
X88009383Y-53853725D01*
X88137701Y-53833402D01*
X88137708Y-53833399D01*
X88137711Y-53833399D01*
X88302442Y-53779874D01*
X88302442Y-53779873D01*
X88302445Y-53779873D01*
X88456788Y-53701232D01*
X88596928Y-53599414D01*
X88719414Y-53476928D01*
X88821232Y-53336788D01*
X88899873Y-53182445D01*
X88953402Y-53017701D01*
X88959063Y-52981952D01*
X88962734Y-52967895D01*
X88967913Y-52953872D01*
X89012427Y-52673388D01*
X89319500Y-52673388D01*
X89319500Y-52846611D01*
X89346597Y-53017698D01*
X89346600Y-53017711D01*
X89400125Y-53182442D01*
X89400127Y-53182446D01*
X89478767Y-53336787D01*
X89496833Y-53361653D01*
X89580586Y-53476928D01*
X89703072Y-53599414D01*
X89703075Y-53599416D01*
X89703076Y-53599417D01*
X89843212Y-53701232D01*
X89997553Y-53779872D01*
X89997557Y-53779874D01*
X90162288Y-53833399D01*
X90162294Y-53833400D01*
X90162299Y-53833402D01*
X90271394Y-53850681D01*
X90333388Y-53860500D01*
X90333389Y-53860500D01*
X90506612Y-53860500D01*
X90549383Y-53853725D01*
X90677701Y-53833402D01*
X90677708Y-53833399D01*
X90677711Y-53833399D01*
X90842442Y-53779874D01*
X90842442Y-53779873D01*
X90842445Y-53779873D01*
X90996788Y-53701232D01*
X91136928Y-53599414D01*
X91259414Y-53476928D01*
X91345041Y-53359072D01*
X91355249Y-53347241D01*
X91360958Y-53337164D01*
X91361232Y-53336788D01*
X91361760Y-53335749D01*
X91361921Y-53335526D01*
X91362555Y-53334345D01*
X91461034Y-53160544D01*
X91468410Y-53146529D01*
X91469048Y-53145220D01*
X91475595Y-53130648D01*
X91573525Y-52893067D01*
X91573716Y-52892603D01*
X91638614Y-52734273D01*
X91642769Y-52725744D01*
X91660825Y-52694035D01*
X91667884Y-52683764D01*
X91676385Y-52673389D01*
X91678737Y-52670517D01*
X91690465Y-52659067D01*
X91696063Y-52654702D01*
X91710983Y-52645673D01*
X91727365Y-52638237D01*
X91741847Y-52633394D01*
X91758200Y-52629747D01*
X91788045Y-52623093D01*
X91799605Y-52621460D01*
X91893641Y-52615694D01*
X91900261Y-52614057D01*
X91905914Y-52612661D01*
X91923668Y-52610500D01*
X114879045Y-52610500D01*
X114879045Y-52610499D01*
X114952428Y-52590836D01*
X114983444Y-52582526D01*
X114983444Y-52582525D01*
X114983447Y-52582525D01*
X115077053Y-52528482D01*
X118922691Y-48682842D01*
X118939050Y-48670498D01*
X118946031Y-48666617D01*
X119105384Y-48531328D01*
X119113032Y-48525642D01*
X119350598Y-48371795D01*
X119356060Y-48368583D01*
X119491524Y-48296517D01*
X119495310Y-48294639D01*
X119642974Y-48226682D01*
X119646980Y-48224981D01*
X119790750Y-48168831D01*
X119795126Y-48167278D01*
X119939888Y-48121007D01*
X119944686Y-48119650D01*
X120071541Y-48088367D01*
X120076890Y-48087256D01*
X120191238Y-48067897D01*
X120191237Y-48067896D01*
X120196148Y-48067064D01*
X120203577Y-48066192D01*
X120357015Y-48056018D01*
X120388738Y-48051303D01*
X120399617Y-48050499D01*
X121147872Y-48050499D01*
X121207483Y-48044091D01*
X121293572Y-48011982D01*
X121342329Y-47993797D01*
X121342329Y-47993796D01*
X121342331Y-47993796D01*
X121457546Y-47907546D01*
X121543796Y-47792331D01*
X121594091Y-47657483D01*
X121600500Y-47597873D01*
X121600499Y-46402128D01*
X121600499Y-46402126D01*
X121799500Y-46402126D01*
X121799500Y-47597873D01*
X121805909Y-47657485D01*
X121856202Y-47792329D01*
X121856203Y-47792330D01*
X121856204Y-47792331D01*
X121942454Y-47907546D01*
X122057669Y-47993796D01*
X122057670Y-47993797D01*
X122122217Y-48017871D01*
X122192517Y-48044091D01*
X122252127Y-48050500D01*
X124497872Y-48050499D01*
X124557483Y-48044091D01*
X124643572Y-48011982D01*
X124692329Y-47993797D01*
X124692329Y-47993796D01*
X124692331Y-47993796D01*
X124807546Y-47907546D01*
X124893796Y-47792331D01*
X124944091Y-47657483D01*
X124944092Y-47657472D01*
X124945020Y-47653548D01*
X124977675Y-47607898D01*
X125086577Y-47539490D01*
X125097144Y-47533986D01*
X125194197Y-47493002D01*
X125250832Y-47492614D01*
X125259984Y-47497089D01*
X125287510Y-47512982D01*
X125287518Y-47512985D01*
X125333101Y-47525199D01*
X125427522Y-47550499D01*
X125427523Y-47550500D01*
X125427525Y-47550500D01*
X125572477Y-47550500D01*
X125572477Y-47550499D01*
X125712485Y-47512984D01*
X125838015Y-47440509D01*
X125940509Y-47338015D01*
X126012984Y-47212485D01*
X126050499Y-47072477D01*
X126050500Y-47072477D01*
X126050500Y-46927523D01*
X126050499Y-46927522D01*
X126034335Y-46867199D01*
X126013883Y-46790870D01*
X126012985Y-46787518D01*
X126012983Y-46787513D01*
X125978913Y-46728503D01*
X125940509Y-46661985D01*
X125838015Y-46559491D01*
X125820045Y-46549116D01*
X125712486Y-46487016D01*
X125712481Y-46487014D01*
X125572477Y-46449500D01*
X125572475Y-46449500D01*
X125427525Y-46449500D01*
X125427523Y-46449500D01*
X125287518Y-46487014D01*
X125287509Y-46487018D01*
X125255996Y-46505212D01*
X125249959Y-46506006D01*
X125245543Y-46510201D01*
X125222595Y-46509608D01*
X125199843Y-46512604D01*
X125188924Y-46508740D01*
X125112608Y-46474797D01*
X125106680Y-46471836D01*
X125092038Y-46463683D01*
X125024448Y-46426046D01*
X125018385Y-46422275D01*
X124975277Y-46392487D01*
X124945817Y-46346871D01*
X124945157Y-46347028D01*
X124944717Y-46345168D01*
X124944550Y-46344909D01*
X124944381Y-46343747D01*
X124944091Y-46342521D01*
X124944091Y-46342517D01*
X124929588Y-46303633D01*
X124893797Y-46207670D01*
X124893796Y-46207669D01*
X124854123Y-46154673D01*
X124807546Y-46092454D01*
X124692331Y-46006204D01*
X124692330Y-46006203D01*
X124692329Y-46006202D01*
X124557487Y-45955910D01*
X124557484Y-45955909D01*
X124557483Y-45955909D01*
X124497873Y-45949500D01*
X122252126Y-45949500D01*
X122192514Y-45955909D01*
X122057670Y-46006202D01*
X122057669Y-46006203D01*
X121942454Y-46092454D01*
X121856203Y-46207669D01*
X121856202Y-46207670D01*
X121805910Y-46342512D01*
X121805909Y-46342517D01*
X121799500Y-46402126D01*
X121600499Y-46402126D01*
X121594091Y-46342517D01*
X121586991Y-46323481D01*
X121543797Y-46207670D01*
X121543796Y-46207669D01*
X121504123Y-46154673D01*
X121457546Y-46092454D01*
X121342331Y-46006204D01*
X121342330Y-46006203D01*
X121342329Y-46006202D01*
X121207487Y-45955910D01*
X121207484Y-45955909D01*
X121207483Y-45955909D01*
X121147873Y-45949500D01*
X118902126Y-45949500D01*
X118842514Y-45955909D01*
X118707670Y-46006202D01*
X118707669Y-46006203D01*
X118592454Y-46092454D01*
X118506203Y-46207669D01*
X118506202Y-46207670D01*
X118455910Y-46342512D01*
X118455909Y-46342517D01*
X118449500Y-46402126D01*
X118449500Y-47597873D01*
X118452930Y-47629771D01*
X118455909Y-47657483D01*
X118455912Y-47657490D01*
X118501410Y-47779478D01*
X118502083Y-47829314D01*
X118488577Y-47868750D01*
X118483411Y-47880432D01*
X118411070Y-48011982D01*
X118403591Y-48023074D01*
X118364807Y-48070663D01*
X118354856Y-48082873D01*
X118354801Y-48082940D01*
X118354797Y-48082945D01*
X118351111Y-48089491D01*
X118338960Y-48105503D01*
X114676639Y-51767826D01*
X114624313Y-51789500D01*
X91909372Y-51789500D01*
X91895041Y-51788099D01*
X91876896Y-51784517D01*
X91876895Y-51784517D01*
X91876628Y-51784517D01*
X91715513Y-51784751D01*
X91715128Y-51784750D01*
X91423525Y-51783653D01*
X91419874Y-51783550D01*
X91373879Y-51781104D01*
X91369138Y-51780852D01*
X91369136Y-51780852D01*
X91369133Y-51780851D01*
X91212137Y-51772498D01*
X91205962Y-51771910D01*
X90981004Y-51740895D01*
X90977370Y-51740301D01*
X90644644Y-51677425D01*
X90644641Y-51677424D01*
X90626905Y-51677547D01*
X90614819Y-51676638D01*
X90594248Y-51673380D01*
X90581979Y-51671436D01*
X90506612Y-51659500D01*
X90506611Y-51659500D01*
X90333389Y-51659500D01*
X90333388Y-51659500D01*
X90162301Y-51686597D01*
X90162288Y-51686600D01*
X89997557Y-51740125D01*
X89997553Y-51740127D01*
X89843212Y-51818767D01*
X89703076Y-51920582D01*
X89580582Y-52043076D01*
X89478767Y-52183212D01*
X89400127Y-52337553D01*
X89400125Y-52337557D01*
X89346600Y-52502288D01*
X89346597Y-52502301D01*
X89319500Y-52673388D01*
X89012427Y-52673388D01*
X89021360Y-52617099D01*
X89021975Y-52613011D01*
X89022033Y-52612603D01*
X89022670Y-52607792D01*
X89030427Y-52544637D01*
X89030492Y-52544166D01*
X89030496Y-52544157D01*
X89030544Y-52543796D01*
X89058999Y-52345577D01*
X89060297Y-52338804D01*
X89060597Y-52337557D01*
X89075407Y-52275947D01*
X89077742Y-52268150D01*
X89097871Y-52212326D01*
X89101577Y-52203777D01*
X89131042Y-52146081D01*
X89135476Y-52138539D01*
X89182138Y-52068956D01*
X89186385Y-52063240D01*
X89188018Y-52061250D01*
X89257958Y-51976000D01*
X89261392Y-51972105D01*
X89361351Y-51866557D01*
X89370071Y-51852910D01*
X89380093Y-51840440D01*
X93788360Y-47432174D01*
X93840686Y-47410500D01*
X97855126Y-47410500D01*
X97877898Y-47414091D01*
X97880636Y-47414977D01*
X97880640Y-47414977D01*
X97880642Y-47414978D01*
X97961244Y-47424411D01*
X98016158Y-47430839D01*
X98025920Y-47432653D01*
X98100617Y-47451800D01*
X98106567Y-47453595D01*
X98195011Y-47484393D01*
X98200729Y-47486655D01*
X98287410Y-47525210D01*
X98293302Y-47528154D01*
X98375543Y-47573949D01*
X98381607Y-47577720D01*
X98410773Y-47597873D01*
X98424722Y-47607511D01*
X98454186Y-47653133D01*
X98454844Y-47652978D01*
X98455281Y-47654828D01*
X98455449Y-47655088D01*
X98455618Y-47656253D01*
X98455908Y-47657483D01*
X98506202Y-47792329D01*
X98506203Y-47792330D01*
X98506204Y-47792331D01*
X98592454Y-47907546D01*
X98707669Y-47993796D01*
X98707670Y-47993797D01*
X98772217Y-48017871D01*
X98842517Y-48044091D01*
X98902127Y-48050500D01*
X101147872Y-48050499D01*
X101207483Y-48044091D01*
X101293572Y-48011982D01*
X101342329Y-47993797D01*
X101342329Y-47993796D01*
X101342331Y-47993796D01*
X101457546Y-47907546D01*
X101543796Y-47792331D01*
X101594091Y-47657483D01*
X101600500Y-47597873D01*
X101600499Y-46402128D01*
X101600499Y-46402126D01*
X101799500Y-46402126D01*
X101799500Y-47597873D01*
X101805909Y-47657485D01*
X101856202Y-47792329D01*
X101856203Y-47792330D01*
X101856204Y-47792331D01*
X101942454Y-47907546D01*
X102057669Y-47993796D01*
X102057670Y-47993797D01*
X102122217Y-48017871D01*
X102192517Y-48044091D01*
X102252127Y-48050500D01*
X102531784Y-48050499D01*
X102544770Y-48051647D01*
X102550889Y-48052737D01*
X102560368Y-48056134D01*
X102618207Y-48064736D01*
X102619217Y-48064917D01*
X102620061Y-48065456D01*
X102637414Y-48070661D01*
X102663838Y-48082941D01*
X102677249Y-48089174D01*
X102693107Y-48099161D01*
X102749892Y-48145938D01*
X102760981Y-48157275D01*
X102829178Y-48243896D01*
X102836612Y-48255386D01*
X102901229Y-48378988D01*
X102906283Y-48391205D01*
X102948054Y-48524941D01*
X102950763Y-48537168D01*
X102950864Y-48537927D01*
X102959941Y-48618287D01*
X102963118Y-48629306D01*
X102963844Y-48634719D01*
X102963365Y-48636522D01*
X102964500Y-48644554D01*
X102964500Y-50433480D01*
X102954586Y-50470480D01*
X102887016Y-50587513D01*
X102887014Y-50587518D01*
X102849500Y-50727522D01*
X102849500Y-50872477D01*
X102887014Y-51012481D01*
X102887016Y-51012486D01*
X102926440Y-51080769D01*
X102959491Y-51138015D01*
X103061985Y-51240509D01*
X103187515Y-51312984D01*
X103187516Y-51312984D01*
X103187518Y-51312985D01*
X103242935Y-51327834D01*
X103327522Y-51350499D01*
X103327523Y-51350500D01*
X103327525Y-51350500D01*
X103472477Y-51350500D01*
X103472477Y-51350499D01*
X103612485Y-51312984D01*
X103738015Y-51240509D01*
X103840509Y-51138015D01*
X103912984Y-51012485D01*
X103950499Y-50872477D01*
X103950500Y-50872477D01*
X103950500Y-50727523D01*
X103950499Y-50727522D01*
X103912985Y-50587518D01*
X103912983Y-50587513D01*
X103861511Y-50498361D01*
X103840509Y-50461985D01*
X103807174Y-50428650D01*
X103785500Y-50376324D01*
X103785500Y-48647781D01*
X103786261Y-48637194D01*
X103787240Y-48630420D01*
X103789634Y-48623387D01*
X103804715Y-48509533D01*
X103804761Y-48509216D01*
X103804858Y-48509051D01*
X103806937Y-48499163D01*
X103823701Y-48441480D01*
X103825969Y-48434866D01*
X103854320Y-48363415D01*
X103857194Y-48357066D01*
X103874497Y-48323170D01*
X103892289Y-48288319D01*
X103896027Y-48281831D01*
X103937344Y-48217867D01*
X103942083Y-48211343D01*
X103979290Y-48165607D01*
X103985330Y-48159037D01*
X104023859Y-48121896D01*
X104031348Y-48115578D01*
X104059344Y-48094980D01*
X104068293Y-48089337D01*
X104094996Y-48075066D01*
X104105344Y-48070516D01*
X104122585Y-48064462D01*
X104133793Y-48061490D01*
X104159141Y-48056861D01*
X104161872Y-48056419D01*
X104163907Y-48055991D01*
X104187407Y-48051702D01*
X104200693Y-48050499D01*
X104497872Y-48050499D01*
X104557483Y-48044091D01*
X104643572Y-48011982D01*
X104692329Y-47993797D01*
X104692329Y-47993796D01*
X104692331Y-47993796D01*
X104807546Y-47907546D01*
X104893796Y-47792331D01*
X104944091Y-47657483D01*
X104950500Y-47597873D01*
X104950499Y-46402128D01*
X104944091Y-46342517D01*
X104936991Y-46323481D01*
X104893797Y-46207670D01*
X104893796Y-46207669D01*
X104854123Y-46154673D01*
X104807546Y-46092454D01*
X104692331Y-46006204D01*
X104692330Y-46006203D01*
X104692329Y-46006202D01*
X104557487Y-45955910D01*
X104557484Y-45955909D01*
X104557483Y-45955909D01*
X104497873Y-45949500D01*
X102252126Y-45949500D01*
X102192514Y-45955909D01*
X102057670Y-46006202D01*
X102057669Y-46006203D01*
X101942454Y-46092454D01*
X101856203Y-46207669D01*
X101856202Y-46207670D01*
X101805910Y-46342512D01*
X101805909Y-46342517D01*
X101799500Y-46402126D01*
X101600499Y-46402126D01*
X101594091Y-46342517D01*
X101586991Y-46323481D01*
X101543797Y-46207670D01*
X101543796Y-46207669D01*
X101504123Y-46154673D01*
X101457546Y-46092454D01*
X101342331Y-46006204D01*
X101342330Y-46006203D01*
X101342329Y-46006202D01*
X101207487Y-45955910D01*
X101207484Y-45955909D01*
X101207483Y-45955909D01*
X101147873Y-45949500D01*
X98902126Y-45949500D01*
X98842514Y-45955909D01*
X98707670Y-46006202D01*
X98707669Y-46006203D01*
X98592454Y-46092454D01*
X98506203Y-46207669D01*
X98506202Y-46207670D01*
X98455908Y-46342516D01*
X98454978Y-46346455D01*
X98422324Y-46392099D01*
X98313430Y-46460502D01*
X98302855Y-46466010D01*
X98134807Y-46536972D01*
X98126467Y-46539920D01*
X98047680Y-46562571D01*
X98041272Y-46564108D01*
X97970127Y-46577855D01*
X97961775Y-46578980D01*
X97891167Y-46584422D01*
X97884933Y-46586041D01*
X97880762Y-46587124D01*
X97862162Y-46589500D01*
X93585954Y-46589500D01*
X93504116Y-46611429D01*
X93493831Y-46614185D01*
X93486740Y-46616084D01*
X93481551Y-46617475D01*
X93387946Y-46671518D01*
X93311516Y-46747949D01*
X88799433Y-51260030D01*
X88786450Y-51270379D01*
X88773700Y-51278382D01*
X88773698Y-51278383D01*
X88663447Y-51382507D01*
X88659240Y-51386189D01*
X88568311Y-51459907D01*
X88562662Y-51464060D01*
X88502128Y-51504281D01*
X88495391Y-51508260D01*
X88450950Y-51531435D01*
X88439853Y-51536117D01*
X88327753Y-51572984D01*
X88315817Y-51575838D01*
X88094230Y-51609713D01*
X88092606Y-51609943D01*
X87909849Y-51633749D01*
X87904782Y-51634461D01*
X87904368Y-51634524D01*
X87904338Y-51634528D01*
X87904317Y-51634532D01*
X87903126Y-51634724D01*
X87899248Y-51635349D01*
X87790202Y-51654056D01*
X87682747Y-51672491D01*
X87682685Y-51672502D01*
X87682669Y-51672505D01*
X87677871Y-51673375D01*
X87677707Y-51673407D01*
X87677613Y-51673426D01*
X87676537Y-51673635D01*
X87676126Y-51673715D01*
X87667066Y-51677456D01*
X87650408Y-51682144D01*
X87622311Y-51686595D01*
X87622294Y-51686599D01*
X87457557Y-51740125D01*
X87457553Y-51740127D01*
X87303212Y-51818767D01*
X87163076Y-51920582D01*
X87040582Y-52043076D01*
X86938767Y-52183212D01*
X86860127Y-52337553D01*
X86860125Y-52337557D01*
X86806600Y-52502288D01*
X86806597Y-52502301D01*
X86779500Y-52673388D01*
X86440500Y-52673388D01*
X86437540Y-52654703D01*
X86426109Y-52582526D01*
X86413402Y-52502299D01*
X86413400Y-52502294D01*
X86413399Y-52502288D01*
X86359874Y-52337557D01*
X86359872Y-52337553D01*
X86281232Y-52183212D01*
X86179417Y-52043076D01*
X86179416Y-52043075D01*
X86179414Y-52043072D01*
X86056928Y-51920586D01*
X86056925Y-51920583D01*
X86056923Y-51920582D01*
X85916787Y-51818767D01*
X85762446Y-51740127D01*
X85762442Y-51740125D01*
X85597711Y-51686600D01*
X85597702Y-51686598D01*
X85597701Y-51686598D01*
X85561958Y-51680936D01*
X85547903Y-51677267D01*
X85544866Y-51676145D01*
X85533872Y-51672086D01*
X85533870Y-51672085D01*
X85533866Y-51672084D01*
X85533869Y-51672084D01*
X85197112Y-51618639D01*
X85193081Y-51618032D01*
X85192780Y-51617989D01*
X85187844Y-51617333D01*
X85125234Y-51609644D01*
X85123740Y-51609445D01*
X84925581Y-51580998D01*
X84918813Y-51579702D01*
X84855936Y-51564588D01*
X84848147Y-51562255D01*
X84792338Y-51542131D01*
X84783784Y-51538422D01*
X84726095Y-51508962D01*
X84718535Y-51504518D01*
X84648959Y-51457860D01*
X84643243Y-51453614D01*
X84556016Y-51382051D01*
X84552091Y-51378591D01*
X84446556Y-51278647D01*
X84432903Y-51269922D01*
X84420431Y-51259897D01*
X84386612Y-51226078D01*
X84332053Y-51171518D01*
X84238447Y-51117475D01*
X84238444Y-51117473D01*
X84134045Y-51089500D01*
X84134043Y-51089500D01*
X82254141Y-51089500D01*
X82146054Y-51089500D01*
X82146052Y-51089500D01*
X82041653Y-51117473D01*
X81948044Y-51171518D01*
X81909821Y-51209742D01*
X81871616Y-51247947D01*
X81871614Y-51247949D01*
X81554970Y-51564593D01*
X81237539Y-51882023D01*
X81218451Y-51901112D01*
X81166126Y-51922787D01*
X81113799Y-51901114D01*
X81101798Y-51885368D01*
X81093977Y-51871616D01*
X81063923Y-51818767D01*
X81037136Y-51771663D01*
X81037058Y-51771527D01*
X81036159Y-51769959D01*
X81036106Y-51769867D01*
X80958059Y-51634858D01*
X80954212Y-51627217D01*
X80926095Y-51562255D01*
X80896990Y-51495011D01*
X80893763Y-51485994D01*
X80875200Y-51421150D01*
X80873651Y-51414633D01*
X80857277Y-51328474D01*
X80856381Y-51322376D01*
X80845214Y-51215532D01*
X80844851Y-51210178D01*
X80841543Y-51105359D01*
X80861556Y-51052376D01*
X80863180Y-51050699D01*
X87516706Y-44397174D01*
X87569032Y-44375500D01*
X105275768Y-44375500D01*
X105275768Y-44375499D01*
X105422135Y-44336281D01*
X105553365Y-44260515D01*
X108435515Y-41378365D01*
X108511281Y-41247135D01*
X108550499Y-41100768D01*
X108550500Y-41100768D01*
X108550500Y-40120267D01*
X117949500Y-40120267D01*
X117949500Y-40349732D01*
X117979451Y-40577238D01*
X118038841Y-40798884D01*
X118126654Y-41010885D01*
X118126655Y-41010887D01*
X118241388Y-41209611D01*
X118264050Y-41239144D01*
X118381081Y-41391661D01*
X118543339Y-41553919D01*
X118725388Y-41693611D01*
X118924112Y-41808344D01*
X119136113Y-41896158D01*
X119357762Y-41955548D01*
X119357761Y-41955548D01*
X119433596Y-41965532D01*
X119585266Y-41985500D01*
X119585268Y-41985500D01*
X119814732Y-41985500D01*
X119814734Y-41985500D01*
X120042238Y-41955548D01*
X120263887Y-41896158D01*
X120475888Y-41808344D01*
X120674612Y-41693611D01*
X120856661Y-41553919D01*
X121018919Y-41391661D01*
X121158611Y-41209612D01*
X121273344Y-41010888D01*
X121361158Y-40798887D01*
X121420548Y-40577238D01*
X121450500Y-40349734D01*
X121450500Y-40120267D01*
X121719500Y-40120267D01*
X121719500Y-40349732D01*
X121749451Y-40577238D01*
X121808841Y-40798884D01*
X121896654Y-41010885D01*
X121896655Y-41010887D01*
X122011388Y-41209611D01*
X122034050Y-41239144D01*
X122151081Y-41391661D01*
X122313339Y-41553919D01*
X122495388Y-41693611D01*
X122694112Y-41808344D01*
X122906113Y-41896158D01*
X123127762Y-41955548D01*
X123127761Y-41955548D01*
X123203596Y-41965532D01*
X123355266Y-41985500D01*
X123355268Y-41985500D01*
X123584732Y-41985500D01*
X123584734Y-41985500D01*
X123812238Y-41955548D01*
X124033887Y-41896158D01*
X124245888Y-41808344D01*
X124444612Y-41693611D01*
X124626661Y-41553919D01*
X124788919Y-41391661D01*
X124928611Y-41209612D01*
X125043344Y-41010888D01*
X125131158Y-40798887D01*
X125190548Y-40577238D01*
X125220500Y-40349734D01*
X125220500Y-40120266D01*
X125190548Y-39892762D01*
X125131158Y-39671113D01*
X125043344Y-39459112D01*
X124928611Y-39260388D01*
X124788919Y-39078339D01*
X124626661Y-38916081D01*
X124444612Y-38776389D01*
X124444613Y-38776389D01*
X124444611Y-38776388D01*
X124245887Y-38661655D01*
X124245885Y-38661654D01*
X124066817Y-38587482D01*
X124033887Y-38573842D01*
X124033885Y-38573841D01*
X124033884Y-38573841D01*
X123812237Y-38514451D01*
X123812238Y-38514451D01*
X123632150Y-38490742D01*
X123584734Y-38484500D01*
X123355266Y-38484500D01*
X123312324Y-38490153D01*
X123127761Y-38514451D01*
X122906115Y-38573841D01*
X122694114Y-38661654D01*
X122694112Y-38661655D01*
X122495388Y-38776388D01*
X122313334Y-38916085D01*
X122151085Y-39078334D01*
X122011388Y-39260388D01*
X121896655Y-39459112D01*
X121896654Y-39459114D01*
X121808841Y-39671115D01*
X121749451Y-39892761D01*
X121719500Y-40120267D01*
X121450500Y-40120267D01*
X121450500Y-40120266D01*
X121420548Y-39892762D01*
X121361158Y-39671113D01*
X121273344Y-39459112D01*
X121158611Y-39260388D01*
X121018919Y-39078339D01*
X120856661Y-38916081D01*
X120674612Y-38776389D01*
X120674613Y-38776389D01*
X120674611Y-38776388D01*
X120475887Y-38661655D01*
X120475885Y-38661654D01*
X120296817Y-38587482D01*
X120263887Y-38573842D01*
X120263885Y-38573841D01*
X120263884Y-38573841D01*
X120042237Y-38514451D01*
X120042238Y-38514451D01*
X119862150Y-38490742D01*
X119814734Y-38484500D01*
X119585266Y-38484500D01*
X119542324Y-38490153D01*
X119357761Y-38514451D01*
X119136115Y-38573841D01*
X118924114Y-38661654D01*
X118924112Y-38661655D01*
X118725388Y-38776388D01*
X118543334Y-38916085D01*
X118381085Y-39078334D01*
X118241388Y-39260388D01*
X118126655Y-39459112D01*
X118126654Y-39459114D01*
X118038841Y-39671115D01*
X117979451Y-39892761D01*
X117949500Y-40120267D01*
X108550500Y-40120267D01*
X108550500Y-38069032D01*
X108572174Y-38016706D01*
X108891706Y-37697174D01*
X108944032Y-37675500D01*
X111124234Y-37675500D01*
X126330968Y-37675500D01*
X126383294Y-37697174D01*
X138831635Y-50145515D01*
X138962865Y-50221281D01*
X139109231Y-50260499D01*
X139109232Y-50260500D01*
X139109234Y-50260500D01*
X139260767Y-50260500D01*
X143605166Y-50260500D01*
X143649512Y-50275259D01*
X143672604Y-50292546D01*
X143707669Y-50318796D01*
X143707670Y-50318797D01*
X143818605Y-50360172D01*
X143842517Y-50369091D01*
X143902127Y-50375500D01*
X144897872Y-50375499D01*
X144957483Y-50369091D01*
X145024907Y-50343943D01*
X145092329Y-50318797D01*
X145092329Y-50318796D01*
X145092331Y-50318796D01*
X145150487Y-50275259D01*
X145194834Y-50260500D01*
X146918411Y-50260500D01*
X146962758Y-50275260D01*
X147067669Y-50353796D01*
X147067670Y-50353797D01*
X147169831Y-50391900D01*
X147202517Y-50404091D01*
X147262127Y-50410500D01*
X148257872Y-50410499D01*
X148317483Y-50404091D01*
X148411326Y-50369090D01*
X148452329Y-50353797D01*
X148452329Y-50353796D01*
X148452331Y-50353796D01*
X148519476Y-50303530D01*
X148557242Y-50275260D01*
X148601589Y-50260500D01*
X149283175Y-50260500D01*
X149310795Y-50264493D01*
X149386384Y-50260500D01*
X149616423Y-50260500D01*
X149668749Y-50282174D01*
X149675659Y-50290148D01*
X149677454Y-50292546D01*
X149779705Y-50369091D01*
X149792669Y-50378796D01*
X149792670Y-50378797D01*
X149886112Y-50413648D01*
X149927517Y-50429091D01*
X149987127Y-50435500D01*
X151032872Y-50435499D01*
X151092483Y-50429091D01*
X151190677Y-50392467D01*
X151227329Y-50378797D01*
X151227329Y-50378796D01*
X151227331Y-50378796D01*
X151342546Y-50292546D01*
X151428796Y-50177331D01*
X151479091Y-50042483D01*
X151485500Y-49982873D01*
X151485499Y-49387128D01*
X151479091Y-49327517D01*
X151467319Y-49295954D01*
X151428797Y-49192670D01*
X151428796Y-49192669D01*
X151427961Y-49191553D01*
X151342546Y-49077454D01*
X151227331Y-48991204D01*
X151227330Y-48991203D01*
X151227329Y-48991202D01*
X151092487Y-48940910D01*
X151092484Y-48940909D01*
X151092483Y-48940909D01*
X151032873Y-48934500D01*
X149987126Y-48934500D01*
X149927514Y-48940909D01*
X149792670Y-48991202D01*
X149792669Y-48991203D01*
X149677455Y-49077453D01*
X149677454Y-49077454D01*
X149675662Y-49079846D01*
X149674183Y-49080724D01*
X149673712Y-49081196D01*
X149673591Y-49081075D01*
X149626955Y-49108747D01*
X149616423Y-49109500D01*
X149386389Y-49109500D01*
X149310771Y-49105505D01*
X149303774Y-49105231D01*
X149303183Y-49105216D01*
X149296694Y-49105134D01*
X149274747Y-49109500D01*
X148666008Y-49109500D01*
X148613682Y-49087826D01*
X148606769Y-49079847D01*
X148567549Y-49027457D01*
X148567546Y-49027454D01*
X148452330Y-48941203D01*
X148452329Y-48941202D01*
X148317487Y-48890910D01*
X148317484Y-48890909D01*
X148317483Y-48890909D01*
X148257873Y-48884500D01*
X147262126Y-48884500D01*
X147202514Y-48890909D01*
X147067670Y-48941202D01*
X147067669Y-48941203D01*
X146952453Y-49027454D01*
X146952450Y-49027457D01*
X146913231Y-49079847D01*
X146864522Y-49108747D01*
X146853992Y-49109500D01*
X145332208Y-49109500D01*
X145279882Y-49087826D01*
X145272968Y-49079847D01*
X145207546Y-48992454D01*
X145092331Y-48906204D01*
X145092330Y-48906203D01*
X145092329Y-48906202D01*
X144957487Y-48855910D01*
X144957484Y-48855909D01*
X144957483Y-48855909D01*
X144897873Y-48849500D01*
X143902126Y-48849500D01*
X143842514Y-48855909D01*
X143707670Y-48906202D01*
X143707669Y-48906203D01*
X143594126Y-48991202D01*
X143592454Y-48992454D01*
X143527033Y-49079846D01*
X143527032Y-49079847D01*
X143478323Y-49108747D01*
X143467792Y-49109500D01*
X139454032Y-49109500D01*
X139401706Y-49087826D01*
X133516706Y-43202826D01*
X127444834Y-37130954D01*
X135989500Y-37130954D01*
X135989500Y-43541545D01*
X136017473Y-43645944D01*
X136071518Y-43739553D01*
X140368929Y-48036963D01*
X140368934Y-48036969D01*
X140371518Y-48039553D01*
X140447947Y-48115982D01*
X140519828Y-48157482D01*
X140534755Y-48166100D01*
X140534754Y-48166101D01*
X140534760Y-48166103D01*
X140536787Y-48167273D01*
X140541549Y-48170023D01*
X140541551Y-48170023D01*
X140541553Y-48170025D01*
X140541554Y-48170025D01*
X140541556Y-48170026D01*
X140593754Y-48184012D01*
X140645953Y-48197999D01*
X140645954Y-48198000D01*
X140645956Y-48198000D01*
X140645957Y-48198000D01*
X143154087Y-48198000D01*
X143161462Y-48198368D01*
X143167181Y-48198940D01*
X143183555Y-48203208D01*
X143246836Y-48206919D01*
X143248329Y-48207069D01*
X143248526Y-48207175D01*
X143252351Y-48207584D01*
X143326343Y-48219129D01*
X143333112Y-48220511D01*
X143410271Y-48240073D01*
X143417900Y-48242453D01*
X143468690Y-48261377D01*
X143501154Y-48289500D01*
X143503033Y-48288094D01*
X143506203Y-48292328D01*
X143506204Y-48292331D01*
X143592454Y-48407546D01*
X143687632Y-48478796D01*
X143707669Y-48493796D01*
X143707670Y-48493797D01*
X143802297Y-48529090D01*
X143842517Y-48544091D01*
X143902127Y-48550500D01*
X144897872Y-48550499D01*
X144957483Y-48544091D01*
X145051430Y-48509051D01*
X145092329Y-48493797D01*
X145092329Y-48493796D01*
X145092331Y-48493796D01*
X145207546Y-48407546D01*
X145293796Y-48292331D01*
X145295377Y-48288094D01*
X145313288Y-48240070D01*
X145344091Y-48157483D01*
X145350500Y-48097873D01*
X145350499Y-47477128D01*
X145344091Y-47417517D01*
X145326948Y-47371554D01*
X145293797Y-47282670D01*
X145293796Y-47282669D01*
X145207546Y-47167454D01*
X145092331Y-47081204D01*
X145092330Y-47081203D01*
X145092329Y-47081202D01*
X144957487Y-47030910D01*
X144957484Y-47030909D01*
X144957483Y-47030909D01*
X144897873Y-47024500D01*
X143902126Y-47024500D01*
X143842514Y-47030909D01*
X143707670Y-47081202D01*
X143707669Y-47081203D01*
X143592454Y-47167454D01*
X143506204Y-47282669D01*
X143506204Y-47282670D01*
X143503033Y-47286906D01*
X143500533Y-47285035D01*
X143466553Y-47313163D01*
X143363490Y-47346684D01*
X143351328Y-47349531D01*
X143205367Y-47370914D01*
X143196602Y-47371670D01*
X143192150Y-47371787D01*
X143192138Y-47371789D01*
X143176259Y-47375277D01*
X143160385Y-47377000D01*
X140900686Y-47377000D01*
X140848360Y-47355326D01*
X138988260Y-45495226D01*
X138939569Y-45446535D01*
X144169500Y-45446535D01*
X144169500Y-45653464D01*
X144209868Y-45856413D01*
X144209870Y-45856420D01*
X144289059Y-46047598D01*
X144375599Y-46177116D01*
X144404023Y-46219655D01*
X144550345Y-46365977D01*
X144722402Y-46480941D01*
X144913580Y-46560130D01*
X145116535Y-46600500D01*
X145116536Y-46600500D01*
X145323464Y-46600500D01*
X145323465Y-46600500D01*
X145526420Y-46560130D01*
X145717598Y-46480941D01*
X145889655Y-46365977D01*
X146035977Y-46219655D01*
X146150941Y-46047598D01*
X146230130Y-45856420D01*
X146270500Y-45653465D01*
X146270500Y-45446535D01*
X146709500Y-45446535D01*
X146709500Y-45653464D01*
X146749868Y-45856413D01*
X146749870Y-45856420D01*
X146829060Y-46047601D01*
X146880590Y-46124723D01*
X146886234Y-46134789D01*
X146895418Y-46154662D01*
X146895419Y-46154663D01*
X147045953Y-46361454D01*
X147113243Y-46453891D01*
X147114194Y-46455189D01*
X147219323Y-46597711D01*
X147229442Y-46611429D01*
X147233244Y-46617117D01*
X147264257Y-46668499D01*
X147268058Y-46675654D01*
X147290920Y-46725046D01*
X147294281Y-46733691D01*
X147312321Y-46790384D01*
X147314465Y-46798804D01*
X147328288Y-46870449D01*
X147326403Y-46906075D01*
X147312971Y-46950072D01*
X147309611Y-46958981D01*
X147288088Y-47006529D01*
X147282898Y-47016064D01*
X147273551Y-47030586D01*
X147227006Y-47062855D01*
X147219239Y-47064111D01*
X147202513Y-47065909D01*
X147067670Y-47116202D01*
X147067669Y-47116203D01*
X146952454Y-47202454D01*
X146866203Y-47317669D01*
X146866202Y-47317670D01*
X146815910Y-47452512D01*
X146815909Y-47452517D01*
X146809500Y-47512126D01*
X146809500Y-48132873D01*
X146815909Y-48192485D01*
X146866202Y-48327329D01*
X146866203Y-48327330D01*
X146866204Y-48327331D01*
X146952454Y-48442546D01*
X147066926Y-48528240D01*
X147067669Y-48528796D01*
X147067670Y-48528797D01*
X147125860Y-48550500D01*
X147202517Y-48579091D01*
X147262127Y-48585500D01*
X148257872Y-48585499D01*
X148317483Y-48579091D01*
X148411326Y-48544090D01*
X148452329Y-48528797D01*
X148452329Y-48528796D01*
X148452331Y-48528796D01*
X148567546Y-48442546D01*
X148653796Y-48327331D01*
X148704091Y-48192483D01*
X148710500Y-48132873D01*
X148710499Y-47512128D01*
X148704091Y-47452517D01*
X148694767Y-47427517D01*
X148653797Y-47317670D01*
X148653796Y-47317669D01*
X148629366Y-47285035D01*
X148567546Y-47202454D01*
X148452331Y-47116204D01*
X148452330Y-47116203D01*
X148452329Y-47116202D01*
X148317487Y-47065910D01*
X148317483Y-47065909D01*
X148304064Y-47064466D01*
X148303551Y-47064185D01*
X148302989Y-47064342D01*
X148278779Y-47050657D01*
X148254356Y-47037320D01*
X148253684Y-47036473D01*
X148252142Y-47034501D01*
X148244997Y-47025363D01*
X148235669Y-47009833D01*
X148222885Y-46981064D01*
X148205651Y-46942282D01*
X148200980Y-46928022D01*
X148193254Y-46892643D01*
X148191977Y-46868929D01*
X148192525Y-46863842D01*
X148193670Y-46856612D01*
X148193923Y-46855408D01*
X148207444Y-46790865D01*
X148209536Y-46783043D01*
X148223701Y-46739763D01*
X148228444Y-46728517D01*
X148282790Y-46624617D01*
X148288637Y-46615228D01*
X148406347Y-46454453D01*
X148406759Y-46453889D01*
X148428290Y-46424312D01*
X148577269Y-46219655D01*
X148624581Y-46154661D01*
X148627643Y-46150362D01*
X148627905Y-46149986D01*
X148630556Y-46146105D01*
X148636719Y-46131271D01*
X148643516Y-46118572D01*
X148690941Y-46047598D01*
X148770130Y-45856420D01*
X148810500Y-45653465D01*
X148810500Y-45446535D01*
X149249500Y-45446535D01*
X149249500Y-45653464D01*
X149289868Y-45856413D01*
X149289870Y-45856420D01*
X149369059Y-46047598D01*
X149427940Y-46135721D01*
X149440319Y-46160604D01*
X149471678Y-46201180D01*
X149473096Y-46203302D01*
X149484018Y-46219649D01*
X149484020Y-46219651D01*
X149484023Y-46219655D01*
X149489202Y-46224834D01*
X149495424Y-46231905D01*
X149584350Y-46346966D01*
X149595366Y-46360266D01*
X149596420Y-46361454D01*
X149608362Y-46374031D01*
X149774766Y-46537753D01*
X149780592Y-46543307D01*
X149781109Y-46543785D01*
X149781125Y-46543799D01*
X149781129Y-46543803D01*
X149787057Y-46549111D01*
X149851218Y-46604781D01*
X149852379Y-46605811D01*
X149968626Y-46711342D01*
X149974381Y-46717182D01*
X150001503Y-46747947D01*
X150004073Y-46750862D01*
X150009952Y-46758477D01*
X150013798Y-46764191D01*
X150031710Y-46790808D01*
X150037316Y-46800705D01*
X150054685Y-46837744D01*
X150058699Y-46848351D01*
X150067738Y-46879195D01*
X150067407Y-46921916D01*
X150063483Y-46934575D01*
X150059922Y-46943821D01*
X150039759Y-46987259D01*
X150034175Y-46997203D01*
X150030197Y-47003159D01*
X149983111Y-47034634D01*
X149976571Y-47035635D01*
X149927514Y-47040909D01*
X149792670Y-47091202D01*
X149792669Y-47091203D01*
X149677454Y-47177454D01*
X149591203Y-47292669D01*
X149591202Y-47292670D01*
X149540910Y-47427512D01*
X149540909Y-47427517D01*
X149534500Y-47487126D01*
X149534500Y-48082873D01*
X149540909Y-48142485D01*
X149591202Y-48277329D01*
X149591203Y-48277330D01*
X149604818Y-48295517D01*
X149677454Y-48392546D01*
X149792669Y-48478796D01*
X149792670Y-48478797D01*
X149874229Y-48509216D01*
X149927517Y-48529091D01*
X149987127Y-48535500D01*
X151032872Y-48535499D01*
X151092483Y-48529091D01*
X151187114Y-48493796D01*
X151227329Y-48478797D01*
X151227329Y-48478796D01*
X151227331Y-48478796D01*
X151342546Y-48392546D01*
X151428796Y-48277331D01*
X151441267Y-48243896D01*
X151458247Y-48198368D01*
X151479091Y-48142483D01*
X151485500Y-48082873D01*
X151485499Y-47487128D01*
X151479091Y-47427517D01*
X151475360Y-47417514D01*
X151428797Y-47292670D01*
X151428796Y-47292669D01*
X151421310Y-47282669D01*
X151342546Y-47177454D01*
X151227331Y-47091204D01*
X151227330Y-47091203D01*
X151227329Y-47091202D01*
X151092487Y-47040910D01*
X151092484Y-47040909D01*
X151092483Y-47040909D01*
X151085816Y-47040192D01*
X151046414Y-47035955D01*
X151045677Y-47035552D01*
X151044869Y-47035772D01*
X151020929Y-47022038D01*
X150996705Y-47008810D01*
X150995742Y-47007589D01*
X150994537Y-47006027D01*
X150989787Y-46999872D01*
X150980430Y-46983988D01*
X150952784Y-46919930D01*
X150948234Y-46905462D01*
X150947012Y-46899498D01*
X150942774Y-46878807D01*
X150942507Y-46850479D01*
X150957902Y-46767377D01*
X150959358Y-46761076D01*
X150977165Y-46696966D01*
X150980162Y-46688303D01*
X151044073Y-46535052D01*
X151046441Y-46529934D01*
X151084254Y-46455814D01*
X151084724Y-46454888D01*
X151084783Y-46454773D01*
X151132513Y-46360261D01*
X151144422Y-46336679D01*
X151147456Y-46330465D01*
X151147729Y-46329886D01*
X151150655Y-46323450D01*
X151210364Y-46187161D01*
X151214494Y-46177163D01*
X151214619Y-46176840D01*
X151214845Y-46176261D01*
X151214905Y-46176093D01*
X151218563Y-46166056D01*
X151275321Y-45999348D01*
X151278803Y-45988309D01*
X151279098Y-45987294D01*
X151282060Y-45976170D01*
X151330069Y-45778093D01*
X151331289Y-45772817D01*
X151331390Y-45772358D01*
X151332388Y-45767610D01*
X151332407Y-45751607D01*
X151333827Y-45737280D01*
X151350500Y-45653465D01*
X151350500Y-45446535D01*
X151310130Y-45243580D01*
X151230941Y-45052402D01*
X151115977Y-44880345D01*
X150969655Y-44734023D01*
X150797598Y-44619059D01*
X150606420Y-44539870D01*
X150606413Y-44539868D01*
X150453516Y-44509455D01*
X150403465Y-44499500D01*
X150196535Y-44499500D01*
X150156385Y-44507486D01*
X149993586Y-44539868D01*
X149993579Y-44539870D01*
X149802401Y-44619059D01*
X149630345Y-44734022D01*
X149630344Y-44734024D01*
X149484024Y-44880344D01*
X149484022Y-44880345D01*
X149369059Y-45052401D01*
X149289870Y-45243579D01*
X149289868Y-45243586D01*
X149249500Y-45446535D01*
X148810500Y-45446535D01*
X148770130Y-45243580D01*
X148690941Y-45052402D01*
X148575977Y-44880345D01*
X148429655Y-44734023D01*
X148257598Y-44619059D01*
X148066420Y-44539870D01*
X148066413Y-44539868D01*
X147913516Y-44509455D01*
X147863465Y-44499500D01*
X147656535Y-44499500D01*
X147616385Y-44507486D01*
X147453586Y-44539868D01*
X147453579Y-44539870D01*
X147262401Y-44619059D01*
X147090345Y-44734022D01*
X147090344Y-44734024D01*
X146944024Y-44880344D01*
X146944022Y-44880345D01*
X146829059Y-45052401D01*
X146749870Y-45243579D01*
X146749868Y-45243586D01*
X146709500Y-45446535D01*
X146270500Y-45446535D01*
X146230130Y-45243580D01*
X146150941Y-45052402D01*
X146035977Y-44880345D01*
X145889655Y-44734023D01*
X145717598Y-44619059D01*
X145526420Y-44539870D01*
X145526413Y-44539868D01*
X145373516Y-44509455D01*
X145323465Y-44499500D01*
X145116535Y-44499500D01*
X145076385Y-44507486D01*
X144913586Y-44539868D01*
X144913579Y-44539870D01*
X144722401Y-44619059D01*
X144550345Y-44734022D01*
X144550344Y-44734024D01*
X144404024Y-44880344D01*
X144404022Y-44880345D01*
X144289059Y-45052401D01*
X144209870Y-45243579D01*
X144209868Y-45243586D01*
X144169500Y-45446535D01*
X138939569Y-45446535D01*
X138793721Y-45300687D01*
X136832174Y-43339139D01*
X136810500Y-43286813D01*
X136810500Y-40120267D01*
X137949500Y-40120267D01*
X137949500Y-40349732D01*
X137979451Y-40577238D01*
X138038841Y-40798884D01*
X138126654Y-41010885D01*
X138126655Y-41010887D01*
X138241388Y-41209611D01*
X138264050Y-41239144D01*
X138381081Y-41391661D01*
X138543339Y-41553919D01*
X138725388Y-41693611D01*
X138924112Y-41808344D01*
X139136113Y-41896158D01*
X139357762Y-41955548D01*
X139357761Y-41955548D01*
X139433596Y-41965532D01*
X139585266Y-41985500D01*
X139585268Y-41985500D01*
X139814732Y-41985500D01*
X139814734Y-41985500D01*
X140042238Y-41955548D01*
X140263887Y-41896158D01*
X140475888Y-41808344D01*
X140674612Y-41693611D01*
X140856661Y-41553919D01*
X141018919Y-41391661D01*
X141135969Y-41239117D01*
X141138419Y-41236095D01*
X141151265Y-41221075D01*
X141151665Y-41220610D01*
X141351083Y-40992631D01*
X141355910Y-40987613D01*
X141449060Y-40899565D01*
X141455270Y-40894313D01*
X141554790Y-40819154D01*
X141563328Y-40813587D01*
X141572814Y-40808294D01*
X141672826Y-40752489D01*
X141683069Y-40747761D01*
X141811109Y-40700149D01*
X141821963Y-40697034D01*
X141978554Y-40664797D01*
X141988832Y-40663424D01*
X142192172Y-40650687D01*
X142204293Y-40647678D01*
X142222117Y-40645500D01*
X148834313Y-40645500D01*
X148886639Y-40667174D01*
X153467826Y-45248361D01*
X153489500Y-45300687D01*
X153489500Y-46714243D01*
X153488724Y-46724933D01*
X153487729Y-46731745D01*
X153485429Y-46738450D01*
X153469173Y-46858846D01*
X153469103Y-46859333D01*
X153469006Y-46859495D01*
X153466655Y-46870249D01*
X153452972Y-46915071D01*
X153449611Y-46923981D01*
X153428088Y-46971529D01*
X153422898Y-46981064D01*
X153413551Y-46995586D01*
X153367006Y-47027855D01*
X153359239Y-47029111D01*
X153342513Y-47030909D01*
X153207670Y-47081202D01*
X153207669Y-47081203D01*
X153092454Y-47167454D01*
X153006203Y-47282669D01*
X153006202Y-47282670D01*
X152955910Y-47417512D01*
X152955909Y-47417517D01*
X152949500Y-47477126D01*
X152949500Y-48097873D01*
X152955909Y-48157485D01*
X153006202Y-48292329D01*
X153006203Y-48292330D01*
X153027886Y-48321295D01*
X153092454Y-48407546D01*
X153187632Y-48478796D01*
X153207669Y-48493796D01*
X153207670Y-48493797D01*
X153302297Y-48529090D01*
X153342517Y-48544091D01*
X153402127Y-48550500D01*
X154397872Y-48550499D01*
X154457483Y-48544091D01*
X154551430Y-48509051D01*
X154592329Y-48493797D01*
X154592329Y-48493796D01*
X154592331Y-48493796D01*
X154707546Y-48407546D01*
X154793796Y-48292331D01*
X154795377Y-48288094D01*
X154813288Y-48240070D01*
X154844091Y-48157483D01*
X154850500Y-48097873D01*
X154850499Y-47477128D01*
X154844091Y-47417517D01*
X154826948Y-47371554D01*
X154793797Y-47282670D01*
X154793796Y-47282669D01*
X154707546Y-47167454D01*
X154592331Y-47081204D01*
X154592330Y-47081203D01*
X154592329Y-47081202D01*
X154457487Y-47030910D01*
X154457483Y-47030909D01*
X154444064Y-47029466D01*
X154443551Y-47029185D01*
X154442989Y-47029342D01*
X154418779Y-47015657D01*
X154394356Y-47002320D01*
X154393684Y-47001473D01*
X154384997Y-46990363D01*
X154375669Y-46974834D01*
X154345650Y-46907279D01*
X154340982Y-46893029D01*
X154318462Y-46789899D01*
X154316890Y-46778489D01*
X154315706Y-46758436D01*
X154313847Y-46750862D01*
X154312632Y-46745908D01*
X154310500Y-46728273D01*
X154310500Y-45045955D01*
X154310499Y-45045954D01*
X154282526Y-44941555D01*
X154228481Y-44847946D01*
X149287053Y-39906518D01*
X149193444Y-39852473D01*
X149089045Y-39824500D01*
X149089043Y-39824500D01*
X142215670Y-39824500D01*
X142210918Y-39824347D01*
X142204731Y-39823948D01*
X142184837Y-39819261D01*
X142068407Y-39815176D01*
X142067279Y-39815104D01*
X142067159Y-39815045D01*
X142063872Y-39814806D01*
X141961805Y-39803484D01*
X141955878Y-39802582D01*
X141865955Y-39785146D01*
X141859812Y-39783680D01*
X141787195Y-39763043D01*
X141777962Y-39759744D01*
X141631472Y-39696164D01*
X141619973Y-39689911D01*
X141491675Y-39604639D01*
X141482529Y-39597464D01*
X141345856Y-39471677D01*
X141340171Y-39465833D01*
X141151867Y-39249622D01*
X141151429Y-39249115D01*
X141138409Y-39233889D01*
X141135942Y-39230845D01*
X141097119Y-39180251D01*
X141018919Y-39078339D01*
X140856661Y-38916081D01*
X140674612Y-38776389D01*
X140674613Y-38776389D01*
X140674611Y-38776388D01*
X140475887Y-38661655D01*
X140475885Y-38661654D01*
X140296817Y-38587482D01*
X140263887Y-38573842D01*
X140263885Y-38573841D01*
X140263884Y-38573841D01*
X140042237Y-38514451D01*
X140042238Y-38514451D01*
X139862150Y-38490742D01*
X139814734Y-38484500D01*
X139585266Y-38484500D01*
X139542324Y-38490153D01*
X139357761Y-38514451D01*
X139136115Y-38573841D01*
X138924114Y-38661654D01*
X138924112Y-38661655D01*
X138725388Y-38776388D01*
X138543334Y-38916085D01*
X138381085Y-39078334D01*
X138241388Y-39260388D01*
X138126655Y-39459112D01*
X138126654Y-39459114D01*
X138038841Y-39671115D01*
X137979451Y-39892761D01*
X137949500Y-40120267D01*
X136810500Y-40120267D01*
X136810500Y-37385686D01*
X136832173Y-37333361D01*
X136833408Y-37332126D01*
X144169500Y-37332126D01*
X144169500Y-38527873D01*
X144175909Y-38587485D01*
X144226202Y-38722329D01*
X144226203Y-38722330D01*
X144226204Y-38722331D01*
X144312454Y-38837546D01*
X144422855Y-38920192D01*
X144427669Y-38923796D01*
X144427670Y-38923797D01*
X144538605Y-38965172D01*
X144562517Y-38974091D01*
X144622127Y-38980500D01*
X145817872Y-38980499D01*
X145877483Y-38974091D01*
X145968540Y-38940129D01*
X146012329Y-38923797D01*
X146012329Y-38923796D01*
X146012331Y-38923796D01*
X146127546Y-38837546D01*
X146213796Y-38722331D01*
X146264091Y-38587483D01*
X146270500Y-38527873D01*
X146270499Y-37826535D01*
X146709500Y-37826535D01*
X146709500Y-38033464D01*
X146749868Y-38236413D01*
X146749870Y-38236420D01*
X146829059Y-38427598D01*
X146935892Y-38587487D01*
X146944023Y-38599655D01*
X147090345Y-38745977D01*
X147262402Y-38860941D01*
X147453580Y-38940130D01*
X147656535Y-38980500D01*
X147656536Y-38980500D01*
X147863464Y-38980500D01*
X147863465Y-38980500D01*
X148066420Y-38940130D01*
X148257598Y-38860941D01*
X148429655Y-38745977D01*
X148575977Y-38599655D01*
X148690941Y-38427598D01*
X148770130Y-38236420D01*
X148810500Y-38033465D01*
X148810500Y-37826535D01*
X149249500Y-37826535D01*
X149249500Y-38033464D01*
X149289868Y-38236413D01*
X149289870Y-38236420D01*
X149369059Y-38427598D01*
X149475892Y-38587487D01*
X149484023Y-38599655D01*
X149630345Y-38745977D01*
X149802402Y-38860941D01*
X149993580Y-38940130D01*
X150196535Y-38980500D01*
X150196536Y-38980500D01*
X150403464Y-38980500D01*
X150403465Y-38980500D01*
X150606420Y-38940130D01*
X150797598Y-38860941D01*
X150969655Y-38745977D01*
X151115977Y-38599655D01*
X151230941Y-38427598D01*
X151310130Y-38236420D01*
X151350500Y-38033465D01*
X151350500Y-37826535D01*
X151310130Y-37623580D01*
X151230941Y-37432402D01*
X151115977Y-37260345D01*
X150969655Y-37114023D01*
X150797598Y-36999059D01*
X150606420Y-36919870D01*
X150606413Y-36919868D01*
X150435685Y-36885909D01*
X150403465Y-36879500D01*
X150196535Y-36879500D01*
X150164315Y-36885909D01*
X149993586Y-36919868D01*
X149993579Y-36919870D01*
X149802401Y-36999059D01*
X149630345Y-37114022D01*
X149630344Y-37114024D01*
X149484024Y-37260344D01*
X149484022Y-37260345D01*
X149369059Y-37432401D01*
X149289870Y-37623579D01*
X149289868Y-37623586D01*
X149249500Y-37826535D01*
X148810500Y-37826535D01*
X148770130Y-37623580D01*
X148690941Y-37432402D01*
X148575977Y-37260345D01*
X148429655Y-37114023D01*
X148257598Y-36999059D01*
X148066420Y-36919870D01*
X148066413Y-36919868D01*
X147895685Y-36885909D01*
X147863465Y-36879500D01*
X147656535Y-36879500D01*
X147624315Y-36885909D01*
X147453586Y-36919868D01*
X147453579Y-36919870D01*
X147262401Y-36999059D01*
X147090345Y-37114022D01*
X147090344Y-37114024D01*
X146944024Y-37260344D01*
X146944022Y-37260345D01*
X146829059Y-37432401D01*
X146749870Y-37623579D01*
X146749868Y-37623586D01*
X146709500Y-37826535D01*
X146270499Y-37826535D01*
X146270499Y-37332128D01*
X146264091Y-37272517D01*
X146229000Y-37178433D01*
X146213797Y-37137670D01*
X146213796Y-37137669D01*
X146196095Y-37114024D01*
X146127546Y-37022454D01*
X146012331Y-36936204D01*
X146012330Y-36936203D01*
X146012329Y-36936202D01*
X145894622Y-36892301D01*
X145856496Y-36860140D01*
X145839426Y-36830758D01*
X145790154Y-36745946D01*
X145785101Y-36735410D01*
X145717777Y-36560918D01*
X145715152Y-36552727D01*
X145713074Y-36544654D01*
X145717323Y-36495692D01*
X145720303Y-36489109D01*
X145731918Y-36463451D01*
X145737094Y-36453941D01*
X145746444Y-36439413D01*
X145792988Y-36407145D01*
X145800751Y-36405889D01*
X145817483Y-36404091D01*
X145884907Y-36378943D01*
X145952329Y-36353797D01*
X145952329Y-36353796D01*
X145952331Y-36353796D01*
X146067546Y-36267546D01*
X146153796Y-36152331D01*
X146204091Y-36017483D01*
X146210500Y-35957873D01*
X146210499Y-35337128D01*
X146204091Y-35277517D01*
X146196221Y-35256417D01*
X146153797Y-35142670D01*
X146153796Y-35142669D01*
X146145588Y-35131704D01*
X146067546Y-35027454D01*
X145961041Y-34947724D01*
X145952330Y-34941203D01*
X145952329Y-34941202D01*
X145817487Y-34890910D01*
X145817484Y-34890909D01*
X145817483Y-34890909D01*
X145757873Y-34884500D01*
X144762126Y-34884500D01*
X144702514Y-34890909D01*
X144567670Y-34941202D01*
X144567669Y-34941203D01*
X144452454Y-35027454D01*
X144366203Y-35142669D01*
X144366202Y-35142670D01*
X144315910Y-35277512D01*
X144315909Y-35277517D01*
X144309500Y-35337126D01*
X144309500Y-35957873D01*
X144315909Y-36017485D01*
X144366202Y-36152329D01*
X144366203Y-36152330D01*
X144381186Y-36172345D01*
X144452454Y-36267546D01*
X144567669Y-36353796D01*
X144567670Y-36353797D01*
X144678605Y-36395172D01*
X144702517Y-36404091D01*
X144715931Y-36405533D01*
X144716444Y-36405813D01*
X144717008Y-36405657D01*
X144741221Y-36419343D01*
X144765640Y-36432677D01*
X144766314Y-36433526D01*
X144775000Y-36444634D01*
X144784330Y-36460167D01*
X144797191Y-36489109D01*
X144799101Y-36544478D01*
X144776967Y-36605265D01*
X144774460Y-36611305D01*
X144737772Y-36689723D01*
X144734449Y-36696017D01*
X144691336Y-36768958D01*
X144687042Y-36775423D01*
X144648542Y-36827268D01*
X144642977Y-36833912D01*
X144616256Y-36862256D01*
X144570323Y-36885069D01*
X144567753Y-36885346D01*
X144562514Y-36885909D01*
X144427670Y-36936202D01*
X144427669Y-36936203D01*
X144312454Y-37022454D01*
X144226203Y-37137669D01*
X144226202Y-37137670D01*
X144175910Y-37272512D01*
X144175909Y-37272517D01*
X144169500Y-37332126D01*
X136833408Y-37332126D01*
X138211425Y-35954108D01*
X138224816Y-35943506D01*
X138236931Y-35936013D01*
X138321396Y-35857271D01*
X138325578Y-35853656D01*
X138405798Y-35789454D01*
X138410598Y-35785921D01*
X138486535Y-35734650D01*
X138491895Y-35731356D01*
X138557856Y-35694590D01*
X138566712Y-35690395D01*
X138715262Y-35631766D01*
X138727785Y-35628065D01*
X138878836Y-35597634D01*
X138890365Y-35596243D01*
X139075956Y-35588546D01*
X139084092Y-35588656D01*
X139370090Y-35608387D01*
X139370730Y-35608434D01*
X139390793Y-35610000D01*
X139394669Y-35610406D01*
X139585266Y-35635500D01*
X139585268Y-35635500D01*
X139814732Y-35635500D01*
X139814734Y-35635500D01*
X140042238Y-35605548D01*
X140263887Y-35546158D01*
X140475888Y-35458344D01*
X140674612Y-35343611D01*
X140856661Y-35203919D01*
X141018919Y-35041661D01*
X141158611Y-34859612D01*
X141273344Y-34660888D01*
X141361158Y-34448887D01*
X141420548Y-34227238D01*
X141450500Y-33999734D01*
X141450500Y-33770266D01*
X141426584Y-33588610D01*
X141420548Y-33542761D01*
X141376352Y-33377818D01*
X141361158Y-33321113D01*
X141273344Y-33109112D01*
X141158611Y-32910388D01*
X141018919Y-32728339D01*
X140856661Y-32566081D01*
X140674612Y-32426389D01*
X140674613Y-32426389D01*
X140674611Y-32426388D01*
X140475887Y-32311655D01*
X140475885Y-32311654D01*
X140315325Y-32245148D01*
X140263887Y-32223842D01*
X140263885Y-32223841D01*
X140263884Y-32223841D01*
X140042237Y-32164451D01*
X140042238Y-32164451D01*
X139843050Y-32138228D01*
X139814734Y-32134500D01*
X139585266Y-32134500D01*
X139556950Y-32138228D01*
X139357761Y-32164451D01*
X139136115Y-32223841D01*
X138924114Y-32311654D01*
X138924112Y-32311655D01*
X138725388Y-32426388D01*
X138543334Y-32566085D01*
X138381085Y-32728334D01*
X138241388Y-32910388D01*
X138126655Y-33109112D01*
X138126654Y-33109114D01*
X138038841Y-33321115D01*
X137979451Y-33542761D01*
X137949500Y-33770267D01*
X137949500Y-33999732D01*
X137974588Y-34190300D01*
X137974996Y-34194199D01*
X137976522Y-34213744D01*
X137976582Y-34214570D01*
X137985843Y-34353153D01*
X137985845Y-34353166D01*
X137996776Y-34516741D01*
X137996912Y-34523758D01*
X137993305Y-34651840D01*
X137992625Y-34659978D01*
X137975402Y-34783475D01*
X137973301Y-34793451D01*
X137939081Y-34914067D01*
X137935173Y-34924677D01*
X137878314Y-35048855D01*
X137872834Y-35058748D01*
X137784906Y-35192264D01*
X137778599Y-35200516D01*
X137643836Y-35353291D01*
X137637387Y-35363997D01*
X137626327Y-35378136D01*
X136147947Y-36856518D01*
X136071518Y-36932946D01*
X136017473Y-37026555D01*
X135989500Y-37130954D01*
X127444834Y-37130954D01*
X126953365Y-36639485D01*
X126953362Y-36639483D01*
X126822139Y-36563721D01*
X126822130Y-36563717D01*
X126675768Y-36524500D01*
X126675766Y-36524500D01*
X111275766Y-36524500D01*
X108050766Y-36524500D01*
X107350766Y-36524500D01*
X107275766Y-36524500D01*
X101025766Y-36524500D01*
X100719031Y-36524500D01*
X100666705Y-36502826D01*
X100297174Y-36133294D01*
X100275500Y-36080968D01*
X100275500Y-35645121D01*
X100297174Y-35592795D01*
X100305389Y-35585705D01*
X100391074Y-35522092D01*
X100455817Y-35474026D01*
X100458535Y-35472103D01*
X100494879Y-35447585D01*
X100499244Y-35444858D01*
X100674612Y-35343611D01*
X100856661Y-35203919D01*
X101018919Y-35041661D01*
X101158611Y-34859612D01*
X101273344Y-34660888D01*
X101361158Y-34448887D01*
X101420548Y-34227238D01*
X101450500Y-33999734D01*
X101450500Y-33770267D01*
X101719500Y-33770267D01*
X101719500Y-33999732D01*
X101749451Y-34227238D01*
X101808841Y-34448884D01*
X101896654Y-34660885D01*
X101896655Y-34660887D01*
X102011388Y-34859611D01*
X102030486Y-34884500D01*
X102151081Y-35041661D01*
X102313339Y-35203919D01*
X102495388Y-35343611D01*
X102694112Y-35458344D01*
X102906113Y-35546158D01*
X103127762Y-35605548D01*
X103127761Y-35605548D01*
X103203596Y-35615532D01*
X103355266Y-35635500D01*
X103355268Y-35635500D01*
X103584732Y-35635500D01*
X103584734Y-35635500D01*
X103812238Y-35605548D01*
X104033887Y-35546158D01*
X104245888Y-35458344D01*
X104444612Y-35343611D01*
X104626661Y-35203919D01*
X104788919Y-35041661D01*
X104928611Y-34859612D01*
X105043344Y-34660888D01*
X105131158Y-34448887D01*
X105190548Y-34227238D01*
X105220500Y-33999734D01*
X105220500Y-33770267D01*
X117949500Y-33770267D01*
X117949500Y-33999732D01*
X117979451Y-34227238D01*
X118038841Y-34448884D01*
X118126654Y-34660885D01*
X118126655Y-34660887D01*
X118241388Y-34859611D01*
X118260486Y-34884500D01*
X118381081Y-35041661D01*
X118543339Y-35203919D01*
X118725388Y-35343611D01*
X118924112Y-35458344D01*
X119136113Y-35546158D01*
X119357762Y-35605548D01*
X119357761Y-35605548D01*
X119433596Y-35615532D01*
X119585266Y-35635500D01*
X119585268Y-35635500D01*
X119814732Y-35635500D01*
X119814734Y-35635500D01*
X120042238Y-35605548D01*
X120263887Y-35546158D01*
X120475888Y-35458344D01*
X120674612Y-35343611D01*
X120856661Y-35203919D01*
X121018919Y-35041661D01*
X121158611Y-34859612D01*
X121273344Y-34660888D01*
X121361158Y-34448887D01*
X121420548Y-34227238D01*
X121450500Y-33999734D01*
X121450500Y-33770267D01*
X121719500Y-33770267D01*
X121719500Y-33999732D01*
X121749451Y-34227238D01*
X121808841Y-34448884D01*
X121896654Y-34660885D01*
X121896655Y-34660887D01*
X122011388Y-34859611D01*
X122030486Y-34884500D01*
X122151081Y-35041661D01*
X122313339Y-35203919D01*
X122495388Y-35343611D01*
X122694112Y-35458344D01*
X122906113Y-35546158D01*
X123127762Y-35605548D01*
X123127761Y-35605548D01*
X123203596Y-35615532D01*
X123355266Y-35635500D01*
X123355268Y-35635500D01*
X123584732Y-35635500D01*
X123584734Y-35635500D01*
X123812238Y-35605548D01*
X124033887Y-35546158D01*
X124245888Y-35458344D01*
X124444612Y-35343611D01*
X124626661Y-35203919D01*
X124788919Y-35041661D01*
X124928611Y-34859612D01*
X125043344Y-34660888D01*
X125131158Y-34448887D01*
X125190548Y-34227238D01*
X125220500Y-33999734D01*
X125220500Y-33770266D01*
X125196584Y-33588610D01*
X125190548Y-33542761D01*
X125146352Y-33377818D01*
X125131158Y-33321113D01*
X125043344Y-33109112D01*
X124928611Y-32910388D01*
X124788919Y-32728339D01*
X124626661Y-32566081D01*
X124444612Y-32426389D01*
X124444613Y-32426389D01*
X124444611Y-32426388D01*
X124245887Y-32311655D01*
X124245885Y-32311654D01*
X124085325Y-32245148D01*
X124033887Y-32223842D01*
X124033885Y-32223841D01*
X124033884Y-32223841D01*
X123812237Y-32164451D01*
X123812238Y-32164451D01*
X123613050Y-32138228D01*
X123584734Y-32134500D01*
X123355266Y-32134500D01*
X123326950Y-32138228D01*
X123127761Y-32164451D01*
X122906115Y-32223841D01*
X122694114Y-32311654D01*
X122694112Y-32311655D01*
X122495388Y-32426388D01*
X122313334Y-32566085D01*
X122151085Y-32728334D01*
X122011388Y-32910388D01*
X121896655Y-33109112D01*
X121896654Y-33109114D01*
X121808841Y-33321115D01*
X121749451Y-33542761D01*
X121719500Y-33770267D01*
X121450500Y-33770267D01*
X121450500Y-33770266D01*
X121425405Y-33579660D01*
X121425001Y-33575811D01*
X121423449Y-33555920D01*
X121423413Y-33555421D01*
X121403220Y-33253244D01*
X121403085Y-33246256D01*
X121406692Y-33118148D01*
X121407369Y-33110043D01*
X121424598Y-32986504D01*
X121426692Y-32976558D01*
X121460916Y-32855928D01*
X121464817Y-32845337D01*
X121521687Y-32721135D01*
X121527166Y-32711246D01*
X121573453Y-32640961D01*
X121615097Y-32577724D01*
X121621386Y-32569496D01*
X121756166Y-32416703D01*
X121762604Y-32406012D01*
X121773665Y-32391868D01*
X122933361Y-31232174D01*
X122985687Y-31210500D01*
X142036813Y-31210500D01*
X142089139Y-31232174D01*
X144074865Y-33217900D01*
X144088083Y-33235876D01*
X144090117Y-33239757D01*
X144090117Y-33239758D01*
X144195167Y-33369922D01*
X144200729Y-33377818D01*
X144242840Y-33446747D01*
X144246316Y-33453120D01*
X144285062Y-33533273D01*
X144288155Y-33540668D01*
X144305217Y-33588613D01*
X144309500Y-33613421D01*
X144309500Y-33815505D01*
X144308358Y-33844233D01*
X144309500Y-33849096D01*
X144309500Y-34132872D01*
X144315909Y-34192485D01*
X144366202Y-34327329D01*
X144366203Y-34327330D01*
X144366204Y-34327331D01*
X144452454Y-34442546D01*
X144560939Y-34523758D01*
X144567669Y-34528796D01*
X144567670Y-34528797D01*
X144678605Y-34570172D01*
X144702517Y-34579091D01*
X144762127Y-34585500D01*
X145757872Y-34585499D01*
X145817483Y-34579091D01*
X145884907Y-34553943D01*
X145952329Y-34528797D01*
X145952329Y-34528796D01*
X145952331Y-34528796D01*
X146067546Y-34442546D01*
X146153796Y-34327331D01*
X146204091Y-34192483D01*
X146210500Y-34132873D01*
X146210499Y-33512128D01*
X146204091Y-33452517D01*
X146201939Y-33446747D01*
X146153797Y-33317670D01*
X146153796Y-33317669D01*
X146067546Y-33202454D01*
X145952331Y-33116204D01*
X145952330Y-33116203D01*
X145952329Y-33116202D01*
X145817487Y-33065910D01*
X145817484Y-33065909D01*
X145817483Y-33065909D01*
X145787678Y-33062704D01*
X145757874Y-33059500D01*
X145757873Y-33059500D01*
X145509948Y-33059500D01*
X145501271Y-33058990D01*
X145494789Y-33058224D01*
X145481396Y-33054176D01*
X145361226Y-33042454D01*
X145360524Y-33042372D01*
X145360166Y-33042171D01*
X145348190Y-33039836D01*
X145276614Y-33018640D01*
X145211109Y-32999241D01*
X145200313Y-32995102D01*
X145029146Y-32913614D01*
X145020448Y-32908728D01*
X144835919Y-32788031D01*
X144828282Y-32782299D01*
X144683094Y-32657880D01*
X144683094Y-32657879D01*
X144673820Y-32652428D01*
X144658996Y-32640961D01*
X142489553Y-30471518D01*
X142395944Y-30417473D01*
X142291545Y-30389500D01*
X142291543Y-30389500D01*
X122839044Y-30389500D01*
X122730957Y-30389500D01*
X122730955Y-30389500D01*
X122626555Y-30417473D01*
X122532946Y-30471518D01*
X121188578Y-31815885D01*
X121185110Y-31819137D01*
X121180453Y-31823230D01*
X121163073Y-31833983D01*
X121077842Y-31913436D01*
X121077012Y-31914166D01*
X121076885Y-31914209D01*
X121074393Y-31916363D01*
X120994215Y-31980531D01*
X120989384Y-31984086D01*
X120913473Y-32035338D01*
X120908099Y-32038641D01*
X120842796Y-32075042D01*
X120842143Y-32075407D01*
X120833281Y-32079603D01*
X120684744Y-32138228D01*
X120672191Y-32141938D01*
X120521173Y-32172361D01*
X120509626Y-32173754D01*
X120324052Y-32181451D01*
X120315892Y-32181340D01*
X120029766Y-32161600D01*
X120029144Y-32161554D01*
X120009187Y-32159996D01*
X120005306Y-32159589D01*
X119892369Y-32144720D01*
X119814734Y-32134500D01*
X119585266Y-32134500D01*
X119556950Y-32138228D01*
X119357761Y-32164451D01*
X119136115Y-32223841D01*
X118924114Y-32311654D01*
X118924112Y-32311655D01*
X118725388Y-32426388D01*
X118543334Y-32566085D01*
X118381085Y-32728334D01*
X118241388Y-32910388D01*
X118126655Y-33109112D01*
X118126654Y-33109114D01*
X118038841Y-33321115D01*
X117979451Y-33542761D01*
X117949500Y-33770267D01*
X105220500Y-33770267D01*
X105220500Y-33770266D01*
X105196584Y-33588610D01*
X105190548Y-33542761D01*
X105146352Y-33377818D01*
X105131158Y-33321113D01*
X105043344Y-33109112D01*
X104928611Y-32910388D01*
X104788919Y-32728339D01*
X104626661Y-32566081D01*
X104444612Y-32426389D01*
X104444613Y-32426389D01*
X104444611Y-32426388D01*
X104245887Y-32311655D01*
X104245885Y-32311654D01*
X104085325Y-32245148D01*
X104033887Y-32223842D01*
X104033885Y-32223841D01*
X104033884Y-32223841D01*
X103812237Y-32164451D01*
X103812238Y-32164451D01*
X103613050Y-32138228D01*
X103584734Y-32134500D01*
X103355266Y-32134500D01*
X103326950Y-32138228D01*
X103127761Y-32164451D01*
X102906115Y-32223841D01*
X102694114Y-32311654D01*
X102694112Y-32311655D01*
X102495388Y-32426388D01*
X102313334Y-32566085D01*
X102151085Y-32728334D01*
X102011388Y-32910388D01*
X101896655Y-33109112D01*
X101896654Y-33109114D01*
X101808841Y-33321115D01*
X101749451Y-33542761D01*
X101719500Y-33770267D01*
X101450500Y-33770267D01*
X101450500Y-33770266D01*
X101426584Y-33588610D01*
X101420548Y-33542761D01*
X101376352Y-33377818D01*
X101361158Y-33321113D01*
X101273344Y-33109112D01*
X101158611Y-32910388D01*
X101018919Y-32728339D01*
X100856661Y-32566081D01*
X100674612Y-32426389D01*
X100674613Y-32426389D01*
X100674611Y-32426388D01*
X100475887Y-32311655D01*
X100475885Y-32311654D01*
X100315325Y-32245148D01*
X100263887Y-32223842D01*
X100263885Y-32223841D01*
X100263884Y-32223841D01*
X100042237Y-32164451D01*
X100042238Y-32164451D01*
X99843050Y-32138228D01*
X99814734Y-32134500D01*
X99585266Y-32134500D01*
X99556950Y-32138228D01*
X99357761Y-32164451D01*
X99136115Y-32223841D01*
X98924114Y-32311654D01*
X98924112Y-32311655D01*
X98725388Y-32426388D01*
X98543334Y-32566085D01*
X98381085Y-32728334D01*
X98241388Y-32910388D01*
X98126655Y-33109112D01*
X98126654Y-33109114D01*
X98038841Y-33321115D01*
X97979451Y-33542761D01*
X97949500Y-33770267D01*
X97949500Y-33999732D01*
X97979451Y-34227238D01*
X98038841Y-34448884D01*
X98126654Y-34660885D01*
X98126655Y-34660887D01*
X98241388Y-34859611D01*
X98260486Y-34884500D01*
X98381081Y-35041661D01*
X98381085Y-35041665D01*
X98543340Y-35203920D01*
X98557507Y-35214790D01*
X98568239Y-35224871D01*
X98588198Y-35247765D01*
X98597910Y-35261942D01*
X98642067Y-35345890D01*
X98647063Y-35357811D01*
X98697982Y-35517134D01*
X98699378Y-35522092D01*
X98730397Y-35649004D01*
X98730996Y-35651405D01*
X98765690Y-35787587D01*
X98790801Y-35886153D01*
X98792995Y-35894008D01*
X98793953Y-35897438D01*
X98794245Y-35898399D01*
X98797897Y-35909490D01*
X98850233Y-36057047D01*
X98884027Y-36152329D01*
X98886010Y-36157918D01*
X98891120Y-36171153D01*
X98891614Y-36172333D01*
X98894198Y-36178052D01*
X98897500Y-36185363D01*
X98915031Y-36221448D01*
X98924582Y-36241109D01*
X98927952Y-36297646D01*
X98910347Y-36325771D01*
X98733294Y-36502826D01*
X98680968Y-36524500D01*
X83184032Y-36524500D01*
X83131706Y-36502826D01*
X81885297Y-35256417D01*
X81874818Y-35243226D01*
X81867072Y-35230794D01*
X81777650Y-35135490D01*
X81774333Y-35131704D01*
X81699267Y-35039919D01*
X81696006Y-35035622D01*
X81634230Y-34947724D01*
X81631143Y-34942951D01*
X81584653Y-34864648D01*
X81580588Y-34856760D01*
X81579704Y-34854759D01*
X81505607Y-34686944D01*
X81501648Y-34675538D01*
X81497869Y-34660887D01*
X81458213Y-34507149D01*
X81456252Y-34496177D01*
X81436479Y-34302024D01*
X81436105Y-34293578D01*
X81438738Y-34092973D01*
X81439363Y-34084311D01*
X81450500Y-33999734D01*
X81450500Y-33770267D01*
X81719500Y-33770267D01*
X81719500Y-33999732D01*
X81749451Y-34227238D01*
X81808841Y-34448884D01*
X81896654Y-34660885D01*
X81896655Y-34660887D01*
X82011388Y-34859611D01*
X82030486Y-34884500D01*
X82151081Y-35041661D01*
X82313339Y-35203919D01*
X82495388Y-35343611D01*
X82694112Y-35458344D01*
X82906113Y-35546158D01*
X83127762Y-35605548D01*
X83127761Y-35605548D01*
X83203596Y-35615532D01*
X83355266Y-35635500D01*
X83355268Y-35635500D01*
X83584732Y-35635500D01*
X83584734Y-35635500D01*
X83812238Y-35605548D01*
X84033887Y-35546158D01*
X84245888Y-35458344D01*
X84444612Y-35343611D01*
X84626661Y-35203919D01*
X84788919Y-35041661D01*
X84928611Y-34859612D01*
X85043344Y-34660888D01*
X85131158Y-34448887D01*
X85190548Y-34227238D01*
X85220500Y-33999734D01*
X85220500Y-33770266D01*
X85196584Y-33588610D01*
X85190548Y-33542761D01*
X85146352Y-33377818D01*
X85131158Y-33321113D01*
X85043344Y-33109112D01*
X84928611Y-32910388D01*
X84788919Y-32728339D01*
X84626661Y-32566081D01*
X84444612Y-32426389D01*
X84444613Y-32426389D01*
X84444611Y-32426388D01*
X84245887Y-32311655D01*
X84245885Y-32311654D01*
X84085325Y-32245148D01*
X84033887Y-32223842D01*
X84033885Y-32223841D01*
X84033884Y-32223841D01*
X83812237Y-32164451D01*
X83812238Y-32164451D01*
X83613050Y-32138228D01*
X83584734Y-32134500D01*
X83355266Y-32134500D01*
X83326950Y-32138228D01*
X83127761Y-32164451D01*
X82906115Y-32223841D01*
X82694114Y-32311654D01*
X82694112Y-32311655D01*
X82495388Y-32426388D01*
X82313334Y-32566085D01*
X82151085Y-32728334D01*
X82011388Y-32910388D01*
X81896655Y-33109112D01*
X81896654Y-33109114D01*
X81808841Y-33321115D01*
X81749451Y-33542761D01*
X81719500Y-33770267D01*
X81450500Y-33770267D01*
X81450500Y-33770266D01*
X81426584Y-33588610D01*
X81420548Y-33542761D01*
X81376352Y-33377818D01*
X81361158Y-33321113D01*
X81273344Y-33109112D01*
X81158611Y-32910388D01*
X81018919Y-32728339D01*
X80856661Y-32566081D01*
X80674612Y-32426389D01*
X80674613Y-32426389D01*
X80674611Y-32426388D01*
X80475887Y-32311655D01*
X80475885Y-32311654D01*
X80315325Y-32245148D01*
X80263887Y-32223842D01*
X80263885Y-32223841D01*
X80263884Y-32223841D01*
X80042237Y-32164451D01*
X80042238Y-32164451D01*
X79843050Y-32138228D01*
X79814734Y-32134500D01*
X79585266Y-32134500D01*
X79556950Y-32138228D01*
X79357761Y-32164451D01*
X79136115Y-32223841D01*
X78924114Y-32311654D01*
X78924112Y-32311655D01*
X78725388Y-32426388D01*
X78543334Y-32566085D01*
X78381085Y-32728334D01*
X78241388Y-32910388D01*
X78126655Y-33109112D01*
X78126654Y-33109114D01*
X78038841Y-33321115D01*
X77979451Y-33542761D01*
X77949500Y-33770267D01*
X67050500Y-33770267D01*
X67050500Y-30400931D01*
X67025501Y-30275256D01*
X66976465Y-30156873D01*
X66926604Y-30082250D01*
X66905277Y-30050331D01*
X65708042Y-28853096D01*
X65697636Y-28840021D01*
X65689748Y-28827414D01*
X65689743Y-28827408D01*
X65593077Y-28724770D01*
X65589946Y-28721225D01*
X65507659Y-28621831D01*
X65504561Y-28617817D01*
X65489432Y-28596758D01*
X65436156Y-28522598D01*
X65433198Y-28518148D01*
X65427959Y-28509612D01*
X65380675Y-28432567D01*
X65376676Y-28425132D01*
X65351533Y-28371209D01*
X65351366Y-28367403D01*
X65348822Y-28364572D01*
X65350154Y-28339608D01*
X65349064Y-28314626D01*
X65351637Y-28311818D01*
X65351840Y-28308015D01*
X65370436Y-28291302D01*
X65387329Y-28272869D01*
X65393957Y-28270161D01*
X65410112Y-28264458D01*
X65415781Y-28262709D01*
X65518633Y-28235477D01*
X65524047Y-28234260D01*
X65639488Y-28212865D01*
X65644648Y-28212096D01*
X65769727Y-28197972D01*
X65774506Y-28197591D01*
X65918579Y-28190819D01*
X65947628Y-28190585D01*
X65969147Y-28186167D01*
X65973327Y-28185794D01*
X65974232Y-28186077D01*
X65979918Y-28185500D01*
X78025273Y-28185500D01*
X78077599Y-28207174D01*
X78093640Y-28231181D01*
X78126654Y-28310884D01*
X78126655Y-28310887D01*
X78194824Y-28428958D01*
X78241389Y-28509612D01*
X78381081Y-28691661D01*
X78543339Y-28853919D01*
X78725388Y-28993611D01*
X78924112Y-29108344D01*
X79136113Y-29196158D01*
X79357762Y-29255548D01*
X79357761Y-29255548D01*
X79433596Y-29265532D01*
X79585266Y-29285500D01*
X79585268Y-29285500D01*
X79814732Y-29285500D01*
X79814734Y-29285500D01*
X80042238Y-29255548D01*
X80263887Y-29196158D01*
X80475888Y-29108344D01*
X80674612Y-28993611D01*
X80856661Y-28853919D01*
X81018919Y-28691661D01*
X81158611Y-28509612D01*
X81273344Y-28310888D01*
X81306360Y-28231180D01*
X81346409Y-28191133D01*
X81374727Y-28185500D01*
X81795273Y-28185500D01*
X81847599Y-28207174D01*
X81863640Y-28231181D01*
X81896654Y-28310884D01*
X81896655Y-28310887D01*
X81964824Y-28428958D01*
X82011389Y-28509612D01*
X82151081Y-28691661D01*
X82313339Y-28853919D01*
X82495388Y-28993611D01*
X82694112Y-29108344D01*
X82906113Y-29196158D01*
X83127762Y-29255548D01*
X83127761Y-29255548D01*
X83203596Y-29265532D01*
X83355266Y-29285500D01*
X83355268Y-29285500D01*
X83584732Y-29285500D01*
X83584734Y-29285500D01*
X83812238Y-29255548D01*
X84033887Y-29196158D01*
X84245888Y-29108344D01*
X84444612Y-28993611D01*
X84626661Y-28853919D01*
X84788919Y-28691661D01*
X84928611Y-28509612D01*
X85043344Y-28310888D01*
X85076360Y-28231180D01*
X85116409Y-28191133D01*
X85144727Y-28185500D01*
X97185429Y-28185500D01*
X97202028Y-28187385D01*
X97216533Y-28190725D01*
X97357471Y-28194946D01*
X97362175Y-28195238D01*
X97490629Y-28207332D01*
X97495649Y-28207979D01*
X97611359Y-28226940D01*
X97616580Y-28227991D01*
X97694983Y-28246757D01*
X97714263Y-28251372D01*
X97722348Y-28253802D01*
X97774730Y-28272869D01*
X97879169Y-28310885D01*
X97909807Y-28322037D01*
X97920476Y-28326910D01*
X98078722Y-28414959D01*
X98088148Y-28421191D01*
X98239013Y-28538434D01*
X98246058Y-28544667D01*
X98318825Y-28617817D01*
X98339934Y-28639037D01*
X98346178Y-28646176D01*
X98381080Y-28691660D01*
X98381081Y-28691661D01*
X98543339Y-28853919D01*
X98725388Y-28993611D01*
X98924112Y-29108344D01*
X99136113Y-29196158D01*
X99357762Y-29255548D01*
X99357761Y-29255548D01*
X99433596Y-29265532D01*
X99585266Y-29285500D01*
X99585268Y-29285500D01*
X99814732Y-29285500D01*
X99814734Y-29285500D01*
X100042238Y-29255548D01*
X100263887Y-29196158D01*
X100475888Y-29108344D01*
X100674612Y-28993611D01*
X100856661Y-28853919D01*
X101018919Y-28691661D01*
X101158611Y-28509612D01*
X101273344Y-28310888D01*
X101361158Y-28098887D01*
X101420548Y-27877238D01*
X101450500Y-27649734D01*
X101450500Y-27420266D01*
X101420548Y-27192762D01*
X101361158Y-26971113D01*
X101273344Y-26759112D01*
X101158611Y-26560388D01*
X101018919Y-26378339D01*
X100856661Y-26216081D01*
X100674612Y-26076389D01*
X100674613Y-26076389D01*
X100674611Y-26076388D01*
X100475887Y-25961655D01*
X100475879Y-25961652D01*
X100430528Y-25942867D01*
X100390479Y-25902819D01*
X100390479Y-25846182D01*
X100430527Y-25806133D01*
X100458846Y-25800500D01*
X102711154Y-25800500D01*
X102763480Y-25822174D01*
G37*
%TD.AperFunction*%
%TD*%
M02*
