%TF.GenerationSoftware,KiCad,Pcbnew,9.0.3*%
%TF.CreationDate,2025-09-11T12:53:53+02:00*%
%TF.ProjectId,RP2040-DSP_V2.1,52503230-3430-42d4-9453-505f56322e31,V2.1*%
%TF.SameCoordinates,Original*%
%TF.FileFunction,Legend,Bot*%
%TF.FilePolarity,Positive*%
%FSLAX46Y46*%
G04 Gerber Fmt 4.6, Leading zero omitted, Abs format (unit mm)*
G04 Created by KiCad (PCBNEW 9.0.3) date 2025-09-11 12:53:53*
%MOMM*%
%LPD*%
G01*
G04 APERTURE LIST*
%ADD10C,0.150000*%
%ADD11C,0.120000*%
G04 APERTURE END LIST*
D10*
X102342857Y-50559580D02*
X102390476Y-50607200D01*
X102390476Y-50607200D02*
X102533333Y-50654819D01*
X102533333Y-50654819D02*
X102628571Y-50654819D01*
X102628571Y-50654819D02*
X102771428Y-50607200D01*
X102771428Y-50607200D02*
X102866666Y-50511961D01*
X102866666Y-50511961D02*
X102914285Y-50416723D01*
X102914285Y-50416723D02*
X102961904Y-50226247D01*
X102961904Y-50226247D02*
X102961904Y-50083390D01*
X102961904Y-50083390D02*
X102914285Y-49892914D01*
X102914285Y-49892914D02*
X102866666Y-49797676D01*
X102866666Y-49797676D02*
X102771428Y-49702438D01*
X102771428Y-49702438D02*
X102628571Y-49654819D01*
X102628571Y-49654819D02*
X102533333Y-49654819D01*
X102533333Y-49654819D02*
X102390476Y-49702438D01*
X102390476Y-49702438D02*
X102342857Y-49750057D01*
X102009523Y-49654819D02*
X101390476Y-49654819D01*
X101390476Y-49654819D02*
X101723809Y-50035771D01*
X101723809Y-50035771D02*
X101580952Y-50035771D01*
X101580952Y-50035771D02*
X101485714Y-50083390D01*
X101485714Y-50083390D02*
X101438095Y-50131009D01*
X101438095Y-50131009D02*
X101390476Y-50226247D01*
X101390476Y-50226247D02*
X101390476Y-50464342D01*
X101390476Y-50464342D02*
X101438095Y-50559580D01*
X101438095Y-50559580D02*
X101485714Y-50607200D01*
X101485714Y-50607200D02*
X101580952Y-50654819D01*
X101580952Y-50654819D02*
X101866666Y-50654819D01*
X101866666Y-50654819D02*
X101961904Y-50607200D01*
X101961904Y-50607200D02*
X102009523Y-50559580D01*
X101057142Y-49654819D02*
X100438095Y-49654819D01*
X100438095Y-49654819D02*
X100771428Y-50035771D01*
X100771428Y-50035771D02*
X100628571Y-50035771D01*
X100628571Y-50035771D02*
X100533333Y-50083390D01*
X100533333Y-50083390D02*
X100485714Y-50131009D01*
X100485714Y-50131009D02*
X100438095Y-50226247D01*
X100438095Y-50226247D02*
X100438095Y-50464342D01*
X100438095Y-50464342D02*
X100485714Y-50559580D01*
X100485714Y-50559580D02*
X100533333Y-50607200D01*
X100533333Y-50607200D02*
X100628571Y-50654819D01*
X100628571Y-50654819D02*
X100914285Y-50654819D01*
X100914285Y-50654819D02*
X101009523Y-50607200D01*
X101009523Y-50607200D02*
X101057142Y-50559580D01*
X148254819Y-51157142D02*
X147778628Y-50823809D01*
X148254819Y-50585714D02*
X147254819Y-50585714D01*
X147254819Y-50585714D02*
X147254819Y-50966666D01*
X147254819Y-50966666D02*
X147302438Y-51061904D01*
X147302438Y-51061904D02*
X147350057Y-51109523D01*
X147350057Y-51109523D02*
X147445295Y-51157142D01*
X147445295Y-51157142D02*
X147588152Y-51157142D01*
X147588152Y-51157142D02*
X147683390Y-51109523D01*
X147683390Y-51109523D02*
X147731009Y-51061904D01*
X147731009Y-51061904D02*
X147778628Y-50966666D01*
X147778628Y-50966666D02*
X147778628Y-50585714D01*
X148254819Y-52109523D02*
X148254819Y-51538095D01*
X148254819Y-51823809D02*
X147254819Y-51823809D01*
X147254819Y-51823809D02*
X147397676Y-51728571D01*
X147397676Y-51728571D02*
X147492914Y-51633333D01*
X147492914Y-51633333D02*
X147540533Y-51538095D01*
X147254819Y-53014285D02*
X147254819Y-52538095D01*
X147254819Y-52538095D02*
X147731009Y-52490476D01*
X147731009Y-52490476D02*
X147683390Y-52538095D01*
X147683390Y-52538095D02*
X147635771Y-52633333D01*
X147635771Y-52633333D02*
X147635771Y-52871428D01*
X147635771Y-52871428D02*
X147683390Y-52966666D01*
X147683390Y-52966666D02*
X147731009Y-53014285D01*
X147731009Y-53014285D02*
X147826247Y-53061904D01*
X147826247Y-53061904D02*
X148064342Y-53061904D01*
X148064342Y-53061904D02*
X148159580Y-53014285D01*
X148159580Y-53014285D02*
X148207200Y-52966666D01*
X148207200Y-52966666D02*
X148254819Y-52871428D01*
X148254819Y-52871428D02*
X148254819Y-52633333D01*
X148254819Y-52633333D02*
X148207200Y-52538095D01*
X148207200Y-52538095D02*
X148159580Y-52490476D01*
X144064819Y-34092142D02*
X143588628Y-33758809D01*
X144064819Y-33520714D02*
X143064819Y-33520714D01*
X143064819Y-33520714D02*
X143064819Y-33901666D01*
X143064819Y-33901666D02*
X143112438Y-33996904D01*
X143112438Y-33996904D02*
X143160057Y-34044523D01*
X143160057Y-34044523D02*
X143255295Y-34092142D01*
X143255295Y-34092142D02*
X143398152Y-34092142D01*
X143398152Y-34092142D02*
X143493390Y-34044523D01*
X143493390Y-34044523D02*
X143541009Y-33996904D01*
X143541009Y-33996904D02*
X143588628Y-33901666D01*
X143588628Y-33901666D02*
X143588628Y-33520714D01*
X144064819Y-35044523D02*
X144064819Y-34473095D01*
X144064819Y-34758809D02*
X143064819Y-34758809D01*
X143064819Y-34758809D02*
X143207676Y-34663571D01*
X143207676Y-34663571D02*
X143302914Y-34568333D01*
X143302914Y-34568333D02*
X143350533Y-34473095D01*
X143493390Y-35615952D02*
X143445771Y-35520714D01*
X143445771Y-35520714D02*
X143398152Y-35473095D01*
X143398152Y-35473095D02*
X143302914Y-35425476D01*
X143302914Y-35425476D02*
X143255295Y-35425476D01*
X143255295Y-35425476D02*
X143160057Y-35473095D01*
X143160057Y-35473095D02*
X143112438Y-35520714D01*
X143112438Y-35520714D02*
X143064819Y-35615952D01*
X143064819Y-35615952D02*
X143064819Y-35806428D01*
X143064819Y-35806428D02*
X143112438Y-35901666D01*
X143112438Y-35901666D02*
X143160057Y-35949285D01*
X143160057Y-35949285D02*
X143255295Y-35996904D01*
X143255295Y-35996904D02*
X143302914Y-35996904D01*
X143302914Y-35996904D02*
X143398152Y-35949285D01*
X143398152Y-35949285D02*
X143445771Y-35901666D01*
X143445771Y-35901666D02*
X143493390Y-35806428D01*
X143493390Y-35806428D02*
X143493390Y-35615952D01*
X143493390Y-35615952D02*
X143541009Y-35520714D01*
X143541009Y-35520714D02*
X143588628Y-35473095D01*
X143588628Y-35473095D02*
X143683866Y-35425476D01*
X143683866Y-35425476D02*
X143874342Y-35425476D01*
X143874342Y-35425476D02*
X143969580Y-35473095D01*
X143969580Y-35473095D02*
X144017200Y-35520714D01*
X144017200Y-35520714D02*
X144064819Y-35615952D01*
X144064819Y-35615952D02*
X144064819Y-35806428D01*
X144064819Y-35806428D02*
X144017200Y-35901666D01*
X144017200Y-35901666D02*
X143969580Y-35949285D01*
X143969580Y-35949285D02*
X143874342Y-35996904D01*
X143874342Y-35996904D02*
X143683866Y-35996904D01*
X143683866Y-35996904D02*
X143588628Y-35949285D01*
X143588628Y-35949285D02*
X143541009Y-35901666D01*
X143541009Y-35901666D02*
X143493390Y-35806428D01*
X122342857Y-50559580D02*
X122390476Y-50607200D01*
X122390476Y-50607200D02*
X122533333Y-50654819D01*
X122533333Y-50654819D02*
X122628571Y-50654819D01*
X122628571Y-50654819D02*
X122771428Y-50607200D01*
X122771428Y-50607200D02*
X122866666Y-50511961D01*
X122866666Y-50511961D02*
X122914285Y-50416723D01*
X122914285Y-50416723D02*
X122961904Y-50226247D01*
X122961904Y-50226247D02*
X122961904Y-50083390D01*
X122961904Y-50083390D02*
X122914285Y-49892914D01*
X122914285Y-49892914D02*
X122866666Y-49797676D01*
X122866666Y-49797676D02*
X122771428Y-49702438D01*
X122771428Y-49702438D02*
X122628571Y-49654819D01*
X122628571Y-49654819D02*
X122533333Y-49654819D01*
X122533333Y-49654819D02*
X122390476Y-49702438D01*
X122390476Y-49702438D02*
X122342857Y-49750057D01*
X122009523Y-49654819D02*
X121390476Y-49654819D01*
X121390476Y-49654819D02*
X121723809Y-50035771D01*
X121723809Y-50035771D02*
X121580952Y-50035771D01*
X121580952Y-50035771D02*
X121485714Y-50083390D01*
X121485714Y-50083390D02*
X121438095Y-50131009D01*
X121438095Y-50131009D02*
X121390476Y-50226247D01*
X121390476Y-50226247D02*
X121390476Y-50464342D01*
X121390476Y-50464342D02*
X121438095Y-50559580D01*
X121438095Y-50559580D02*
X121485714Y-50607200D01*
X121485714Y-50607200D02*
X121580952Y-50654819D01*
X121580952Y-50654819D02*
X121866666Y-50654819D01*
X121866666Y-50654819D02*
X121961904Y-50607200D01*
X121961904Y-50607200D02*
X122009523Y-50559580D01*
X121009523Y-49750057D02*
X120961904Y-49702438D01*
X120961904Y-49702438D02*
X120866666Y-49654819D01*
X120866666Y-49654819D02*
X120628571Y-49654819D01*
X120628571Y-49654819D02*
X120533333Y-49702438D01*
X120533333Y-49702438D02*
X120485714Y-49750057D01*
X120485714Y-49750057D02*
X120438095Y-49845295D01*
X120438095Y-49845295D02*
X120438095Y-49940533D01*
X120438095Y-49940533D02*
X120485714Y-50083390D01*
X120485714Y-50083390D02*
X121057142Y-50654819D01*
X121057142Y-50654819D02*
X120438095Y-50654819D01*
X150859580Y-51257142D02*
X150907200Y-51209523D01*
X150907200Y-51209523D02*
X150954819Y-51066666D01*
X150954819Y-51066666D02*
X150954819Y-50971428D01*
X150954819Y-50971428D02*
X150907200Y-50828571D01*
X150907200Y-50828571D02*
X150811961Y-50733333D01*
X150811961Y-50733333D02*
X150716723Y-50685714D01*
X150716723Y-50685714D02*
X150526247Y-50638095D01*
X150526247Y-50638095D02*
X150383390Y-50638095D01*
X150383390Y-50638095D02*
X150192914Y-50685714D01*
X150192914Y-50685714D02*
X150097676Y-50733333D01*
X150097676Y-50733333D02*
X150002438Y-50828571D01*
X150002438Y-50828571D02*
X149954819Y-50971428D01*
X149954819Y-50971428D02*
X149954819Y-51066666D01*
X149954819Y-51066666D02*
X150002438Y-51209523D01*
X150002438Y-51209523D02*
X150050057Y-51257142D01*
X149954819Y-51590476D02*
X149954819Y-52209523D01*
X149954819Y-52209523D02*
X150335771Y-51876190D01*
X150335771Y-51876190D02*
X150335771Y-52019047D01*
X150335771Y-52019047D02*
X150383390Y-52114285D01*
X150383390Y-52114285D02*
X150431009Y-52161904D01*
X150431009Y-52161904D02*
X150526247Y-52209523D01*
X150526247Y-52209523D02*
X150764342Y-52209523D01*
X150764342Y-52209523D02*
X150859580Y-52161904D01*
X150859580Y-52161904D02*
X150907200Y-52114285D01*
X150907200Y-52114285D02*
X150954819Y-52019047D01*
X150954819Y-52019047D02*
X150954819Y-51733333D01*
X150954819Y-51733333D02*
X150907200Y-51638095D01*
X150907200Y-51638095D02*
X150859580Y-51590476D01*
X150954819Y-53161904D02*
X150954819Y-52590476D01*
X150954819Y-52876190D02*
X149954819Y-52876190D01*
X149954819Y-52876190D02*
X150097676Y-52780952D01*
X150097676Y-52780952D02*
X150192914Y-52685714D01*
X150192914Y-52685714D02*
X150240533Y-52590476D01*
X82154819Y-33551666D02*
X82869104Y-33551666D01*
X82869104Y-33551666D02*
X83011961Y-33504047D01*
X83011961Y-33504047D02*
X83107200Y-33408809D01*
X83107200Y-33408809D02*
X83154819Y-33265952D01*
X83154819Y-33265952D02*
X83154819Y-33170714D01*
X82250057Y-33980238D02*
X82202438Y-34027857D01*
X82202438Y-34027857D02*
X82154819Y-34123095D01*
X82154819Y-34123095D02*
X82154819Y-34361190D01*
X82154819Y-34361190D02*
X82202438Y-34456428D01*
X82202438Y-34456428D02*
X82250057Y-34504047D01*
X82250057Y-34504047D02*
X82345295Y-34551666D01*
X82345295Y-34551666D02*
X82440533Y-34551666D01*
X82440533Y-34551666D02*
X82583390Y-34504047D01*
X82583390Y-34504047D02*
X83154819Y-33932619D01*
X83154819Y-33932619D02*
X83154819Y-34551666D01*
X122154819Y-33075476D02*
X122869104Y-33075476D01*
X122869104Y-33075476D02*
X123011961Y-33027857D01*
X123011961Y-33027857D02*
X123107200Y-32932619D01*
X123107200Y-32932619D02*
X123154819Y-32789762D01*
X123154819Y-32789762D02*
X123154819Y-32694524D01*
X123154819Y-34075476D02*
X123154819Y-33504048D01*
X123154819Y-33789762D02*
X122154819Y-33789762D01*
X122154819Y-33789762D02*
X122297676Y-33694524D01*
X122297676Y-33694524D02*
X122392914Y-33599286D01*
X122392914Y-33599286D02*
X122440533Y-33504048D01*
X123154819Y-35027857D02*
X123154819Y-34456429D01*
X123154819Y-34742143D02*
X122154819Y-34742143D01*
X122154819Y-34742143D02*
X122297676Y-34646905D01*
X122297676Y-34646905D02*
X122392914Y-34551667D01*
X122392914Y-34551667D02*
X122440533Y-34456429D01*
X144854819Y-51057142D02*
X144378628Y-50723809D01*
X144854819Y-50485714D02*
X143854819Y-50485714D01*
X143854819Y-50485714D02*
X143854819Y-50866666D01*
X143854819Y-50866666D02*
X143902438Y-50961904D01*
X143902438Y-50961904D02*
X143950057Y-51009523D01*
X143950057Y-51009523D02*
X144045295Y-51057142D01*
X144045295Y-51057142D02*
X144188152Y-51057142D01*
X144188152Y-51057142D02*
X144283390Y-51009523D01*
X144283390Y-51009523D02*
X144331009Y-50961904D01*
X144331009Y-50961904D02*
X144378628Y-50866666D01*
X144378628Y-50866666D02*
X144378628Y-50485714D01*
X144854819Y-52009523D02*
X144854819Y-51438095D01*
X144854819Y-51723809D02*
X143854819Y-51723809D01*
X143854819Y-51723809D02*
X143997676Y-51628571D01*
X143997676Y-51628571D02*
X144092914Y-51533333D01*
X144092914Y-51533333D02*
X144140533Y-51438095D01*
X143854819Y-52342857D02*
X143854819Y-53009523D01*
X143854819Y-53009523D02*
X144854819Y-52580952D01*
X95974819Y-53696666D02*
X96689104Y-53696666D01*
X96689104Y-53696666D02*
X96831961Y-53649047D01*
X96831961Y-53649047D02*
X96927200Y-53553809D01*
X96927200Y-53553809D02*
X96974819Y-53410952D01*
X96974819Y-53410952D02*
X96974819Y-53315714D01*
X96308152Y-54601428D02*
X96974819Y-54601428D01*
X95927200Y-54363333D02*
X96641485Y-54125238D01*
X96641485Y-54125238D02*
X96641485Y-54744285D01*
X142344819Y-40501905D02*
X143154342Y-40501905D01*
X143154342Y-40501905D02*
X143249580Y-40549524D01*
X143249580Y-40549524D02*
X143297200Y-40597143D01*
X143297200Y-40597143D02*
X143344819Y-40692381D01*
X143344819Y-40692381D02*
X143344819Y-40882857D01*
X143344819Y-40882857D02*
X143297200Y-40978095D01*
X143297200Y-40978095D02*
X143249580Y-41025714D01*
X143249580Y-41025714D02*
X143154342Y-41073333D01*
X143154342Y-41073333D02*
X142344819Y-41073333D01*
X143344819Y-42073333D02*
X143344819Y-41501905D01*
X143344819Y-41787619D02*
X142344819Y-41787619D01*
X142344819Y-41787619D02*
X142487676Y-41692381D01*
X142487676Y-41692381D02*
X142582914Y-41597143D01*
X142582914Y-41597143D02*
X142630533Y-41501905D01*
X143344819Y-43025714D02*
X143344819Y-42454286D01*
X143344819Y-42740000D02*
X142344819Y-42740000D01*
X142344819Y-42740000D02*
X142487676Y-42644762D01*
X142487676Y-42644762D02*
X142582914Y-42549524D01*
X142582914Y-42549524D02*
X142630533Y-42454286D01*
X154354819Y-51157142D02*
X153878628Y-50823809D01*
X154354819Y-50585714D02*
X153354819Y-50585714D01*
X153354819Y-50585714D02*
X153354819Y-50966666D01*
X153354819Y-50966666D02*
X153402438Y-51061904D01*
X153402438Y-51061904D02*
X153450057Y-51109523D01*
X153450057Y-51109523D02*
X153545295Y-51157142D01*
X153545295Y-51157142D02*
X153688152Y-51157142D01*
X153688152Y-51157142D02*
X153783390Y-51109523D01*
X153783390Y-51109523D02*
X153831009Y-51061904D01*
X153831009Y-51061904D02*
X153878628Y-50966666D01*
X153878628Y-50966666D02*
X153878628Y-50585714D01*
X154354819Y-52109523D02*
X154354819Y-51538095D01*
X154354819Y-51823809D02*
X153354819Y-51823809D01*
X153354819Y-51823809D02*
X153497676Y-51728571D01*
X153497676Y-51728571D02*
X153592914Y-51633333D01*
X153592914Y-51633333D02*
X153640533Y-51538095D01*
X153354819Y-52966666D02*
X153354819Y-52776190D01*
X153354819Y-52776190D02*
X153402438Y-52680952D01*
X153402438Y-52680952D02*
X153450057Y-52633333D01*
X153450057Y-52633333D02*
X153592914Y-52538095D01*
X153592914Y-52538095D02*
X153783390Y-52490476D01*
X153783390Y-52490476D02*
X154164342Y-52490476D01*
X154164342Y-52490476D02*
X154259580Y-52538095D01*
X154259580Y-52538095D02*
X154307200Y-52585714D01*
X154307200Y-52585714D02*
X154354819Y-52680952D01*
X154354819Y-52680952D02*
X154354819Y-52871428D01*
X154354819Y-52871428D02*
X154307200Y-52966666D01*
X154307200Y-52966666D02*
X154259580Y-53014285D01*
X154259580Y-53014285D02*
X154164342Y-53061904D01*
X154164342Y-53061904D02*
X153926247Y-53061904D01*
X153926247Y-53061904D02*
X153831009Y-53014285D01*
X153831009Y-53014285D02*
X153783390Y-52966666D01*
X153783390Y-52966666D02*
X153735771Y-52871428D01*
X153735771Y-52871428D02*
X153735771Y-52680952D01*
X153735771Y-52680952D02*
X153783390Y-52585714D01*
X153783390Y-52585714D02*
X153831009Y-52538095D01*
X153831009Y-52538095D02*
X153926247Y-52490476D01*
X102154819Y-33551666D02*
X102869104Y-33551666D01*
X102869104Y-33551666D02*
X103011961Y-33504047D01*
X103011961Y-33504047D02*
X103107200Y-33408809D01*
X103107200Y-33408809D02*
X103154819Y-33265952D01*
X103154819Y-33265952D02*
X103154819Y-33170714D01*
X102154819Y-33932619D02*
X102154819Y-34551666D01*
X102154819Y-34551666D02*
X102535771Y-34218333D01*
X102535771Y-34218333D02*
X102535771Y-34361190D01*
X102535771Y-34361190D02*
X102583390Y-34456428D01*
X102583390Y-34456428D02*
X102631009Y-34504047D01*
X102631009Y-34504047D02*
X102726247Y-34551666D01*
X102726247Y-34551666D02*
X102964342Y-34551666D01*
X102964342Y-34551666D02*
X103059580Y-34504047D01*
X103059580Y-34504047D02*
X103107200Y-34456428D01*
X103107200Y-34456428D02*
X103154819Y-34361190D01*
X103154819Y-34361190D02*
X103154819Y-34075476D01*
X103154819Y-34075476D02*
X103107200Y-33980238D01*
X103107200Y-33980238D02*
X103059580Y-33932619D01*
D11*
%TO.C,C33*%
X99440000Y-45804437D02*
X99440000Y-45940000D01*
X99440000Y-45804437D02*
X100504437Y-44740000D01*
X99440000Y-48195563D02*
X99440000Y-48060000D01*
X99440000Y-48195563D02*
X100504437Y-49260000D01*
X100504437Y-44740000D02*
X103960000Y-44740000D01*
X100504437Y-49260000D02*
X103960000Y-49260000D01*
X103960000Y-44740000D02*
X103960000Y-45940000D01*
X103960000Y-49260000D02*
X103960000Y-48060000D01*
%TO.C,R15*%
X147025000Y-48962064D02*
X147025000Y-48507936D01*
X148495000Y-48962064D02*
X148495000Y-48507936D01*
%TO.C,R18*%
X144525000Y-34507936D02*
X144525000Y-34962064D01*
X145995000Y-34507936D02*
X145995000Y-34962064D01*
%TO.C,J10*%
X122365000Y-23415000D02*
X122365000Y-26135000D01*
X122365000Y-23415000D02*
X125765000Y-23415000D01*
X122365000Y-28935000D02*
X122365000Y-32535000D01*
X122365000Y-35235000D02*
X122365000Y-38835000D01*
X122365000Y-41635000D02*
X122365000Y-44265000D01*
X122365000Y-44265000D02*
X127115000Y-44265000D01*
X125765000Y-20415000D02*
X137405000Y-20415000D01*
X125765000Y-23415000D02*
X125765000Y-20415000D01*
X127115000Y-47185000D02*
X127115000Y-44265000D01*
X127155000Y-47185000D02*
X136055000Y-47185000D01*
X136055000Y-44265000D02*
X140805000Y-44265000D01*
X136055000Y-47185000D02*
X136055000Y-44265000D01*
X137405000Y-23415000D02*
X137405000Y-20415000D01*
X137405000Y-23415000D02*
X140805000Y-23415000D01*
X140805000Y-23415000D02*
X140805000Y-26135000D01*
X140805000Y-32535000D02*
X140805000Y-28935000D01*
X140805000Y-38835000D02*
X140805000Y-35235000D01*
X140805000Y-44265000D02*
X140805000Y-41635000D01*
%TO.C,C32*%
X119440000Y-45804437D02*
X119440000Y-45940000D01*
X119440000Y-45804437D02*
X120504437Y-44740000D01*
X119440000Y-48195563D02*
X119440000Y-48060000D01*
X119440000Y-48195563D02*
X120504437Y-49260000D01*
X120504437Y-44740000D02*
X123960000Y-44740000D01*
X120504437Y-49260000D02*
X123960000Y-49260000D01*
X123960000Y-44740000D02*
X123960000Y-45940000D01*
X123960000Y-49260000D02*
X123960000Y-48060000D01*
%TO.C,J12*%
X182365000Y-23415000D02*
X182365000Y-26135000D01*
X182365000Y-23415000D02*
X185765000Y-23415000D01*
X182365000Y-28935000D02*
X182365000Y-32535000D01*
X182365000Y-35235000D02*
X182365000Y-38835000D01*
X182365000Y-41635000D02*
X182365000Y-44265000D01*
X182365000Y-44265000D02*
X187115000Y-44265000D01*
X185765000Y-20415000D02*
X197405000Y-20415000D01*
X185765000Y-23415000D02*
X185765000Y-20415000D01*
X187115000Y-47185000D02*
X187115000Y-44265000D01*
X187155000Y-47185000D02*
X196055000Y-47185000D01*
X196055000Y-44265000D02*
X200805000Y-44265000D01*
X196055000Y-47185000D02*
X196055000Y-44265000D01*
X197405000Y-23415000D02*
X197405000Y-20415000D01*
X197405000Y-23415000D02*
X200805000Y-23415000D01*
X200805000Y-23415000D02*
X200805000Y-26135000D01*
X200805000Y-32535000D02*
X200805000Y-28935000D01*
X200805000Y-38835000D02*
X200805000Y-35235000D01*
X200805000Y-44265000D02*
X200805000Y-41635000D01*
%TO.C,J9*%
X157365000Y-23415000D02*
X157365000Y-26135000D01*
X157365000Y-23415000D02*
X160765000Y-23415000D01*
X157365000Y-28935000D02*
X157365000Y-32535000D01*
X157365000Y-35235000D02*
X157365000Y-38835000D01*
X157365000Y-41635000D02*
X157365000Y-44265000D01*
X157365000Y-44265000D02*
X162115000Y-44265000D01*
X160765000Y-20415000D02*
X172405000Y-20415000D01*
X160765000Y-23415000D02*
X160765000Y-20415000D01*
X162115000Y-47185000D02*
X162115000Y-44265000D01*
X162155000Y-47185000D02*
X171055000Y-47185000D01*
X171055000Y-44265000D02*
X175805000Y-44265000D01*
X171055000Y-47185000D02*
X171055000Y-44265000D01*
X172405000Y-23415000D02*
X172405000Y-20415000D01*
X172405000Y-23415000D02*
X175805000Y-23415000D01*
X175805000Y-23415000D02*
X175805000Y-26135000D01*
X175805000Y-32535000D02*
X175805000Y-28935000D01*
X175805000Y-38835000D02*
X175805000Y-35235000D01*
X175805000Y-44265000D02*
X175805000Y-41635000D01*
%TO.C,C31*%
X149775000Y-48996252D02*
X149775000Y-48473748D01*
X151245000Y-48996252D02*
X151245000Y-48473748D01*
%TO.C,J2*%
X62365000Y-23415000D02*
X62365000Y-26135000D01*
X62365000Y-23415000D02*
X65765000Y-23415000D01*
X62365000Y-28935000D02*
X62365000Y-32535000D01*
X62365000Y-35235000D02*
X62365000Y-38835000D01*
X62365000Y-41635000D02*
X62365000Y-44265000D01*
X62365000Y-44265000D02*
X67115000Y-44265000D01*
X65765000Y-20415000D02*
X77405000Y-20415000D01*
X65765000Y-23415000D02*
X65765000Y-20415000D01*
X67115000Y-47185000D02*
X67115000Y-44265000D01*
X67155000Y-47185000D02*
X76055000Y-47185000D01*
X76055000Y-44265000D02*
X80805000Y-44265000D01*
X76055000Y-47185000D02*
X76055000Y-44265000D01*
X77405000Y-23415000D02*
X77405000Y-20415000D01*
X77405000Y-23415000D02*
X80805000Y-23415000D01*
X80805000Y-23415000D02*
X80805000Y-26135000D01*
X80805000Y-32535000D02*
X80805000Y-28935000D01*
X80805000Y-38835000D02*
X80805000Y-35235000D01*
X80805000Y-44265000D02*
X80805000Y-41635000D01*
%TO.C,J11*%
X102365000Y-23415000D02*
X102365000Y-26135000D01*
X102365000Y-23415000D02*
X105765000Y-23415000D01*
X102365000Y-28935000D02*
X102365000Y-32535000D01*
X102365000Y-35235000D02*
X102365000Y-38835000D01*
X102365000Y-41635000D02*
X102365000Y-44265000D01*
X102365000Y-44265000D02*
X107115000Y-44265000D01*
X105765000Y-20415000D02*
X117405000Y-20415000D01*
X105765000Y-23415000D02*
X105765000Y-20415000D01*
X107115000Y-47185000D02*
X107115000Y-44265000D01*
X107155000Y-47185000D02*
X116055000Y-47185000D01*
X116055000Y-44265000D02*
X120805000Y-44265000D01*
X116055000Y-47185000D02*
X116055000Y-44265000D01*
X117405000Y-23415000D02*
X117405000Y-20415000D01*
X117405000Y-23415000D02*
X120805000Y-23415000D01*
X120805000Y-23415000D02*
X120805000Y-26135000D01*
X120805000Y-32535000D02*
X120805000Y-28935000D01*
X120805000Y-38835000D02*
X120805000Y-35235000D01*
X120805000Y-44265000D02*
X120805000Y-41635000D01*
%TO.C,R17*%
X143665000Y-48927064D02*
X143665000Y-48472936D01*
X145135000Y-48927064D02*
X145135000Y-48472936D01*
%TO.C,J4*%
X67430000Y-49470000D02*
X67430000Y-58590000D01*
X67430000Y-58590000D02*
X95630000Y-58590000D01*
X68730000Y-50780000D02*
X68730000Y-57280000D01*
X68730000Y-57280000D02*
X79480000Y-57280000D01*
X79480000Y-57280000D02*
X79480000Y-57280000D01*
X79480000Y-57280000D02*
X79480000Y-58590000D01*
X83580000Y-57280000D02*
X94330000Y-57280000D01*
X83580000Y-58590000D02*
X83580000Y-57280000D01*
X89920000Y-59980000D02*
X90420000Y-58980000D01*
X90420000Y-58980000D02*
X90920000Y-59980000D01*
X90920000Y-59980000D02*
X89920000Y-59980000D01*
X94330000Y-50780000D02*
X68730000Y-50780000D01*
X94330000Y-57280000D02*
X94330000Y-50780000D01*
X95630000Y-49470000D02*
X67430000Y-49470000D01*
X95630000Y-58590000D02*
X95630000Y-49470000D01*
%TO.C,U11*%
X143890000Y-39090000D02*
X151630000Y-39090000D01*
X143890000Y-40740000D02*
X143890000Y-39090000D01*
X143890000Y-44390000D02*
X143890000Y-42740000D01*
X151630000Y-39090000D02*
X151630000Y-44390000D01*
X151630000Y-44390000D02*
X143890000Y-44390000D01*
X143890000Y-40740000D02*
G75*
G02*
X143890000Y-42740000I0J-1000000D01*
G01*
%TO.C,R16*%
X153165000Y-48927064D02*
X153165000Y-48472936D01*
X154635000Y-48927064D02*
X154635000Y-48472936D01*
%TO.C,J3*%
X82365000Y-23415000D02*
X82365000Y-26135000D01*
X82365000Y-23415000D02*
X85765000Y-23415000D01*
X82365000Y-28935000D02*
X82365000Y-32535000D01*
X82365000Y-35235000D02*
X82365000Y-38835000D01*
X82365000Y-41635000D02*
X82365000Y-44265000D01*
X82365000Y-44265000D02*
X87115000Y-44265000D01*
X85765000Y-20415000D02*
X97405000Y-20415000D01*
X85765000Y-23415000D02*
X85765000Y-20415000D01*
X87115000Y-47185000D02*
X87115000Y-44265000D01*
X87155000Y-47185000D02*
X96055000Y-47185000D01*
X96055000Y-44265000D02*
X100805000Y-44265000D01*
X96055000Y-47185000D02*
X96055000Y-44265000D01*
X97405000Y-23415000D02*
X97405000Y-20415000D01*
X97405000Y-23415000D02*
X100805000Y-23415000D01*
X100805000Y-23415000D02*
X100805000Y-26135000D01*
X100805000Y-32535000D02*
X100805000Y-28935000D01*
X100805000Y-38835000D02*
X100805000Y-35235000D01*
X100805000Y-44265000D02*
X100805000Y-41635000D01*
%TD*%
M02*
