%TF.GenerationSoftware,KiCad,Pcbnew,9.0.3*%
%TF.CreationDate,2025-09-11T12:53:53+02:00*%
%TF.ProjectId,RP2040-DSP_V2.1,52503230-3430-42d4-9453-505f56322e31,V2.1*%
%TF.SameCoordinates,Original*%
%TF.FileFunction,Soldermask,Bot*%
%TF.FilePolarity,Negative*%
%FSLAX46Y46*%
G04 Gerber Fmt 4.6, Leading zero omitted, Abs format (unit mm)*
G04 Created by KiCad (PCBNEW 9.0.3) date 2025-09-11 12:53:53*
%MOMM*%
%LPD*%
G01*
G04 APERTURE LIST*
G04 Aperture macros list*
%AMRoundRect*
0 Rectangle with rounded corners*
0 $1 Rounding radius*
0 $2 $3 $4 $5 $6 $7 $8 $9 X,Y pos of 4 corners*
0 Add a 4 corners polygon primitive as box body*
4,1,4,$2,$3,$4,$5,$6,$7,$8,$9,$2,$3,0*
0 Add four circle primitives for the rounded corners*
1,1,$1+$1,$2,$3*
1,1,$1+$1,$4,$5*
1,1,$1+$1,$6,$7*
1,1,$1+$1,$8,$9*
0 Add four rect primitives between the rounded corners*
20,1,$1+$1,$2,$3,$4,$5,0*
20,1,$1+$1,$4,$5,$6,$7,0*
20,1,$1+$1,$6,$7,$8,$9,0*
20,1,$1+$1,$8,$9,$2,$3,0*%
G04 Aperture macros list end*
%ADD10RoundRect,0.271875X-1.123125X-0.598125X1.123125X-0.598125X1.123125X0.598125X-1.123125X0.598125X0*%
%ADD11RoundRect,0.284146X0.485854X-0.298354X0.485854X0.298354X-0.485854X0.298354X-0.485854X-0.298354X0*%
%ADD12RoundRect,0.284146X-0.485854X0.298354X-0.485854X-0.298354X0.485854X-0.298354X0.485854X0.298354X0*%
%ADD13C,3.140000*%
%ADD14RoundRect,0.285000X0.510000X-0.285000X0.510000X0.285000X-0.510000X0.285000X-0.510000X-0.285000X0*%
%ADD15RoundRect,0.270589X0.649411X-0.649411X0.649411X0.649411X-0.649411X0.649411X-0.649411X-0.649411X0*%
%ADD16C,1.840000*%
%ADD17RoundRect,0.271875X-0.598125X0.598125X-0.598125X-0.598125X0.598125X-0.598125X0.598125X0.598125X0*%
%ADD18C,1.740000*%
G04 APERTURE END LIST*
D10*
%TO.C,C33*%
X100025000Y-47000000D03*
X103375000Y-47000000D03*
%TD*%
D11*
%TO.C,R15*%
X147760000Y-49647500D03*
X147760000Y-47822500D03*
%TD*%
D12*
%TO.C,R18*%
X145260000Y-33822500D03*
X145260000Y-35647500D03*
%TD*%
D13*
%TO.C,J10*%
X139700000Y-33885000D03*
X123470000Y-33885000D03*
X139700000Y-27535000D03*
X123470000Y-27535000D03*
X139700000Y-40235000D03*
X123470000Y-40235000D03*
%TD*%
D10*
%TO.C,C32*%
X120025000Y-47000000D03*
X123375000Y-47000000D03*
%TD*%
D13*
%TO.C,J12*%
X199700000Y-33885000D03*
X183470000Y-33885000D03*
X199700000Y-27535000D03*
X183470000Y-27535000D03*
X199700000Y-40235000D03*
X183470000Y-40235000D03*
%TD*%
%TO.C,J9*%
X174700000Y-33885000D03*
X158470000Y-33885000D03*
X174700000Y-27535000D03*
X158470000Y-27535000D03*
X174700000Y-40235000D03*
X158470000Y-40235000D03*
%TD*%
D14*
%TO.C,C31*%
X150510000Y-49685000D03*
X150510000Y-47785000D03*
%TD*%
D13*
%TO.C,J2*%
X79700000Y-33885000D03*
X63470000Y-33885000D03*
X79700000Y-27535000D03*
X63470000Y-27535000D03*
X79700000Y-40235000D03*
X63470000Y-40235000D03*
%TD*%
%TO.C,J11*%
X119700000Y-33885000D03*
X103470000Y-33885000D03*
X119700000Y-27535000D03*
X103470000Y-27535000D03*
X119700000Y-40235000D03*
X103470000Y-40235000D03*
%TD*%
D11*
%TO.C,R17*%
X144400000Y-49612500D03*
X144400000Y-47787500D03*
%TD*%
D15*
%TO.C,J4*%
X90420000Y-55300000D03*
D16*
X90420000Y-52760000D03*
X87880000Y-55300000D03*
X87880000Y-52760000D03*
X85340000Y-55300000D03*
X85340000Y-52760000D03*
X82800000Y-55300000D03*
X82800000Y-52760000D03*
X80260000Y-55300000D03*
X80260000Y-52760000D03*
X77720000Y-55300000D03*
X77720000Y-52760000D03*
X75180000Y-55300000D03*
X75180000Y-52760000D03*
X72640000Y-55300000D03*
X72640000Y-52760000D03*
%TD*%
D17*
%TO.C,U11*%
X145220000Y-37930000D03*
D18*
X147760000Y-37930000D03*
X150300000Y-37930000D03*
X150300000Y-45550000D03*
X147760000Y-45550000D03*
X145220000Y-45550000D03*
%TD*%
D11*
%TO.C,R16*%
X153900000Y-49612500D03*
X153900000Y-47787500D03*
%TD*%
D13*
%TO.C,J3*%
X99700000Y-33885000D03*
X83470000Y-33885000D03*
X99700000Y-27535000D03*
X83470000Y-27535000D03*
X99700000Y-40235000D03*
X83470000Y-40235000D03*
%TD*%
M02*
