%TF.GenerationSoftware,KiCad,Pcbnew,9.0.3*%
%TF.CreationDate,2025-09-11T12:53:53+02:00*%
%TF.ProjectId,RP2040-DSP_V2.1,52503230-3430-42d4-9453-505f56322e31,V2.1*%
%TF.SameCoordinates,Original*%
%TF.FileFunction,Legend,Top*%
%TF.FilePolarity,Positive*%
%FSLAX46Y46*%
G04 Gerber Fmt 4.6, Leading zero omitted, Abs format (unit mm)*
G04 Created by KiCad (PCBNEW 9.0.3) date 2025-09-11 12:53:53*
%MOMM*%
%LPD*%
G01*
G04 APERTURE LIST*
%ADD10C,0.150000*%
%ADD11C,0.400000*%
%ADD12C,0.100000*%
%ADD13C,0.750000*%
%ADD14C,0.650000*%
%ADD15C,0.250000*%
%ADD16C,0.000000*%
G04 APERTURE END LIST*
D10*
X85704819Y-50587030D02*
X85704819Y-51063220D01*
X85704819Y-51063220D02*
X84704819Y-51063220D01*
X85800057Y-50491792D02*
X85800057Y-49729887D01*
X85704819Y-49491791D02*
X84704819Y-49491791D01*
X85704819Y-49015601D02*
X84704819Y-49015601D01*
X84704819Y-49015601D02*
X85704819Y-48444173D01*
X85704819Y-48444173D02*
X84704819Y-48444173D01*
D11*
G36*
X187253882Y-57199399D02*
G01*
X187308333Y-57221789D01*
X187353611Y-57258562D01*
X187388297Y-57306636D01*
X187414373Y-57368767D01*
X187430792Y-57448339D01*
X187434822Y-57481189D01*
X186905202Y-57481189D01*
X186912597Y-57404646D01*
X186938008Y-57330140D01*
X186977844Y-57272117D01*
X187032367Y-57228419D01*
X187100872Y-57201257D01*
X187187526Y-57191517D01*
X187253882Y-57199399D01*
G37*
G36*
X192094473Y-57219992D02*
G01*
X192152052Y-57242139D01*
X192197802Y-57277613D01*
X192231582Y-57324977D01*
X192252957Y-57385211D01*
X192260694Y-57462016D01*
X192260694Y-57697100D01*
X192252944Y-57774831D01*
X192231553Y-57835741D01*
X192197802Y-57883579D01*
X192152004Y-57919410D01*
X192094424Y-57941749D01*
X192021581Y-57949769D01*
X191948849Y-57941723D01*
X191891756Y-57919370D01*
X191846703Y-57883579D01*
X191813795Y-57835856D01*
X191792870Y-57774949D01*
X191785276Y-57697100D01*
X191785276Y-57462016D01*
X191792936Y-57385152D01*
X191814078Y-57324919D01*
X191847435Y-57277613D01*
X191892782Y-57242094D01*
X191949693Y-57219971D01*
X192021581Y-57212034D01*
X192094473Y-57219992D01*
G37*
G36*
X189838776Y-53846828D02*
G01*
X189892102Y-53870762D01*
X189935258Y-53910163D01*
X189966116Y-53961102D01*
X189986077Y-54026902D01*
X189993388Y-54111664D01*
X189993388Y-54337100D01*
X189986088Y-54419924D01*
X189966145Y-54484151D01*
X189935258Y-54533838D01*
X189892272Y-54571924D01*
X189838951Y-54595187D01*
X189772104Y-54603447D01*
X189708444Y-54596608D01*
X189657920Y-54577557D01*
X189616516Y-54545865D01*
X189586235Y-54502452D01*
X189568201Y-54449900D01*
X189561689Y-54383506D01*
X189561689Y-54065136D01*
X189568229Y-53996196D01*
X189586235Y-53942159D01*
X189616597Y-53897405D01*
X189657920Y-53864979D01*
X189708494Y-53845377D01*
X189772104Y-53838356D01*
X189838776Y-53846828D01*
G37*
G36*
X188336366Y-53839399D02*
G01*
X188390817Y-53861789D01*
X188436095Y-53898562D01*
X188470781Y-53946636D01*
X188496857Y-54008767D01*
X188513276Y-54088339D01*
X188517306Y-54121189D01*
X187987686Y-54121189D01*
X187995081Y-54044646D01*
X188020492Y-53970140D01*
X188060328Y-53912117D01*
X188114851Y-53868419D01*
X188183356Y-53841257D01*
X188270010Y-53831517D01*
X188336366Y-53839399D01*
G37*
G36*
X193557919Y-53288874D02*
G01*
X193612031Y-53314749D01*
X193653000Y-53356831D01*
X193680828Y-53411005D01*
X193699344Y-53483332D01*
X193706245Y-53578848D01*
X193706245Y-54290572D01*
X193699344Y-54386088D01*
X193680828Y-54458415D01*
X193653000Y-54512588D01*
X193612041Y-54554597D01*
X193557930Y-54580435D01*
X193486305Y-54589769D01*
X193414679Y-54580435D01*
X193360569Y-54554597D01*
X193319609Y-54512588D01*
X193291781Y-54458415D01*
X193273265Y-54386088D01*
X193266364Y-54290572D01*
X193266364Y-53578848D01*
X193273265Y-53483332D01*
X193291781Y-53411005D01*
X193319609Y-53356831D01*
X193360578Y-53314749D01*
X193414690Y-53288874D01*
X193486305Y-53279528D01*
X193557919Y-53288874D01*
G37*
G36*
X192060582Y-50479399D02*
G01*
X192115033Y-50501789D01*
X192160311Y-50538562D01*
X192194997Y-50586636D01*
X192221072Y-50648767D01*
X192237491Y-50728339D01*
X192241521Y-50761189D01*
X191711901Y-50761189D01*
X191719296Y-50684646D01*
X191744707Y-50610140D01*
X191784543Y-50552117D01*
X191839066Y-50508419D01*
X191907571Y-50481257D01*
X191994225Y-50471517D01*
X192060582Y-50479399D01*
G37*
G36*
X195092919Y-50485377D02*
G01*
X195143493Y-50504979D01*
X195184816Y-50537405D01*
X195215178Y-50582159D01*
X195233184Y-50636196D01*
X195239724Y-50705136D01*
X195239724Y-51023506D01*
X195233211Y-51089900D01*
X195215178Y-51142452D01*
X195184897Y-51185865D01*
X195143493Y-51217557D01*
X195092969Y-51236608D01*
X195029309Y-51243447D01*
X194962458Y-51235190D01*
X194909093Y-51211929D01*
X194866033Y-51173838D01*
X194835215Y-51124161D01*
X194815312Y-51059934D01*
X194808025Y-50977100D01*
X194808025Y-50751664D01*
X194815322Y-50666893D01*
X194835244Y-50601093D01*
X194866033Y-50550163D01*
X194909262Y-50510758D01*
X194962633Y-50486826D01*
X195029309Y-50478356D01*
X195092919Y-50485377D01*
G37*
G36*
X198111249Y-58532738D02*
G01*
X184684198Y-58532738D01*
X184684198Y-56303450D01*
X184906420Y-56303450D01*
X185567708Y-58290000D01*
X185860066Y-58290000D01*
X186117923Y-57515383D01*
X186563241Y-57515383D01*
X186563241Y-57675240D01*
X186572403Y-57807290D01*
X186598380Y-57920807D01*
X186639689Y-58018768D01*
X186698514Y-58106507D01*
X186772005Y-58178464D01*
X186861706Y-58236022D01*
X186961389Y-58276206D01*
X187077216Y-58301559D01*
X187212195Y-58310516D01*
X187351272Y-58296871D01*
X187490876Y-58255195D01*
X187621912Y-58188502D01*
X187739515Y-58098757D01*
X187495028Y-57881503D01*
X187431501Y-57925032D01*
X187361061Y-57957341D01*
X187286575Y-57977377D01*
X187212195Y-57983963D01*
X187117847Y-57974262D01*
X187043499Y-57947380D01*
X186984682Y-57904706D01*
X186940823Y-57847021D01*
X186913284Y-57773843D01*
X186909037Y-57733981D01*
X187776396Y-57733981D01*
X187776396Y-57641046D01*
X187767964Y-57475192D01*
X187744304Y-57334042D01*
X187707397Y-57214110D01*
X187652525Y-57102507D01*
X187585412Y-57013663D01*
X187505897Y-56944344D01*
X187413608Y-56893533D01*
X187340492Y-56871803D01*
X188104780Y-56871803D01*
X188104780Y-58290000D01*
X188506438Y-58290000D01*
X188506438Y-58116465D01*
X189182502Y-58116465D01*
X189267905Y-58172799D01*
X189368248Y-58221734D01*
X189476277Y-58259887D01*
X189593685Y-58288046D01*
X189715117Y-58304847D01*
X189841103Y-58310516D01*
X189968758Y-58303773D01*
X190047882Y-58290000D01*
X190729902Y-58290000D01*
X191104327Y-58290000D01*
X191104327Y-57462016D01*
X191410973Y-57462016D01*
X191410973Y-57692948D01*
X191419589Y-57821616D01*
X191443980Y-57932030D01*
X191482659Y-58027072D01*
X191538002Y-58112454D01*
X191607197Y-58182310D01*
X191691609Y-58238098D01*
X191785821Y-58277182D01*
X191895331Y-58301815D01*
X192023046Y-58310516D01*
X192150679Y-58301815D01*
X192260107Y-58277182D01*
X192354239Y-58238098D01*
X192438823Y-58182376D01*
X192508044Y-58112939D01*
X192563311Y-58028415D01*
X192602058Y-57934241D01*
X192626488Y-57824767D01*
X192635119Y-57697100D01*
X192635119Y-57462016D01*
X192626507Y-57335263D01*
X192602094Y-57226250D01*
X192563311Y-57132166D01*
X192508010Y-57047616D01*
X192438790Y-56978395D01*
X192354239Y-56923094D01*
X192260151Y-56884420D01*
X192203547Y-56871803D01*
X192975960Y-56871803D01*
X192975960Y-58290000D01*
X193350384Y-58290000D01*
X193350384Y-57433318D01*
X193357337Y-57365435D01*
X193376572Y-57312141D01*
X193407048Y-57270163D01*
X193448294Y-57238828D01*
X193500688Y-57219141D01*
X193567516Y-57212034D01*
X193638187Y-57219123D01*
X193693275Y-57238653D01*
X193736288Y-57269431D01*
X193768434Y-57311228D01*
X193788533Y-57363896D01*
X193795761Y-57430631D01*
X193795761Y-58290000D01*
X194170063Y-58290000D01*
X194170063Y-57429288D01*
X194161166Y-57289868D01*
X194136444Y-57174863D01*
X194098070Y-57080155D01*
X194047087Y-57002351D01*
X193980395Y-56937164D01*
X193902072Y-56890558D01*
X193859797Y-56877299D01*
X195221162Y-56877299D01*
X195221162Y-56878642D01*
X195605112Y-56878642D01*
X195605112Y-56877299D01*
X195619297Y-56804837D01*
X195642824Y-56748283D01*
X195674721Y-56704497D01*
X195716380Y-56671036D01*
X195765723Y-56650773D01*
X195825052Y-56643681D01*
X195913037Y-56655615D01*
X195972575Y-56687400D01*
X196010904Y-56738930D01*
X196024477Y-56811720D01*
X196024477Y-56814406D01*
X196018510Y-56869641D01*
X195999197Y-56932620D01*
X195969105Y-56994489D01*
X195927512Y-57056329D01*
X195245708Y-57952578D01*
X195245708Y-58290000D01*
X196420761Y-58290000D01*
X196673918Y-58290000D01*
X197048221Y-58290000D01*
X197048221Y-57915697D01*
X196673918Y-57915697D01*
X196673918Y-58290000D01*
X196420761Y-58290000D01*
X196420761Y-57929253D01*
X195741643Y-57929253D01*
X196230740Y-57311807D01*
X196305856Y-57197957D01*
X196362631Y-57070617D01*
X196398111Y-56936174D01*
X196409770Y-56802194D01*
X196409770Y-56800851D01*
X196401552Y-56693353D01*
X196378180Y-56600821D01*
X196340771Y-56520704D01*
X196288303Y-56450004D01*
X196274076Y-56437418D01*
X197272802Y-56437418D01*
X197272802Y-56834923D01*
X197514602Y-56743454D01*
X197514602Y-58290000D01*
X197889027Y-58290000D01*
X197889027Y-56303450D01*
X197569313Y-56303450D01*
X197272802Y-56437418D01*
X196274076Y-56437418D01*
X196221952Y-56391306D01*
X196139881Y-56343872D01*
X196050036Y-56311185D01*
X195945049Y-56290420D01*
X195822244Y-56283056D01*
X195709300Y-56291289D01*
X195608896Y-56315005D01*
X195519016Y-56353398D01*
X195437837Y-56407150D01*
X195368705Y-56474783D01*
X195310677Y-56557707D01*
X195267516Y-56649766D01*
X195237348Y-56755518D01*
X195221162Y-56877299D01*
X193859797Y-56877299D01*
X193809796Y-56861617D01*
X193700140Y-56851409D01*
X193612125Y-56859394D01*
X193538090Y-56882007D01*
X193475314Y-56918332D01*
X193421033Y-56967631D01*
X193369784Y-57033527D01*
X193350384Y-57068041D01*
X193350384Y-56871803D01*
X192975960Y-56871803D01*
X192203547Y-56871803D01*
X192150720Y-56860028D01*
X192023046Y-56851409D01*
X191895289Y-56860028D01*
X191785776Y-56884419D01*
X191691609Y-56923094D01*
X191607135Y-56978388D01*
X191537953Y-57047607D01*
X191482659Y-57132166D01*
X191443944Y-57226243D01*
X191419572Y-57335256D01*
X191410973Y-57462016D01*
X191104327Y-57462016D01*
X191104327Y-56871803D01*
X190729902Y-56871803D01*
X190729902Y-58290000D01*
X190047882Y-58290000D01*
X190077611Y-58284825D01*
X190170342Y-58255195D01*
X190256315Y-58211409D01*
X190324701Y-58157991D01*
X190377948Y-58094727D01*
X190416737Y-58021585D01*
X190440669Y-57938068D01*
X190449023Y-57841814D01*
X190439603Y-57727216D01*
X190414283Y-57641034D01*
X190375872Y-57576810D01*
X190322924Y-57522695D01*
X190264298Y-57483066D01*
X190199040Y-57456643D01*
X190087274Y-57430632D01*
X189929885Y-57407428D01*
X189917551Y-57406085D01*
X189905338Y-57404619D01*
X189880670Y-57401933D01*
X189856124Y-57399246D01*
X189710555Y-57379462D01*
X189663404Y-57367337D01*
X189627268Y-57350764D01*
X189601964Y-57326602D01*
X189593807Y-57295321D01*
X189607825Y-57256042D01*
X189656577Y-57223025D01*
X189726181Y-57204429D01*
X189832920Y-57197013D01*
X189926311Y-57203967D01*
X190026849Y-57225711D01*
X190125774Y-57260150D01*
X190220900Y-57306311D01*
X190443528Y-57034469D01*
X190357030Y-56981505D01*
X190261811Y-56936161D01*
X190161605Y-56900023D01*
X190056281Y-56873269D01*
X189948701Y-56856856D01*
X189841103Y-56851409D01*
X189718755Y-56857844D01*
X189614862Y-56875889D01*
X189526762Y-56904043D01*
X189445219Y-56945649D01*
X189379928Y-56996773D01*
X189328681Y-57057672D01*
X189291433Y-57127933D01*
X189268443Y-57208220D01*
X189260415Y-57300816D01*
X189268932Y-57407567D01*
X189291853Y-57488310D01*
X189326605Y-57548845D01*
X189401010Y-57620921D01*
X189488538Y-57664249D01*
X189592334Y-57690388D01*
X189742673Y-57714808D01*
X189754274Y-57715540D01*
X189765876Y-57717494D01*
X189817167Y-57723112D01*
X189866992Y-57728485D01*
X190004990Y-57746926D01*
X190050924Y-57761301D01*
X190085590Y-57781852D01*
X190108840Y-57811341D01*
X190117097Y-57854148D01*
X190110049Y-57884344D01*
X190087817Y-57911067D01*
X190044679Y-57935481D01*
X189964511Y-57956420D01*
X189841103Y-57964790D01*
X189739248Y-57956267D01*
X189627879Y-57929375D01*
X189518723Y-57886538D01*
X189413433Y-57828258D01*
X189182502Y-58116465D01*
X188506438Y-58116465D01*
X188506438Y-57488028D01*
X188514159Y-57403578D01*
X188535398Y-57337268D01*
X188568597Y-57285184D01*
X188614568Y-57245270D01*
X188671939Y-57220765D01*
X188744208Y-57212034D01*
X188794279Y-57215643D01*
X188835677Y-57225711D01*
X188872619Y-57243014D01*
X188902722Y-57266744D01*
X189121319Y-56962051D01*
X189063424Y-56914061D01*
X188996267Y-56879375D01*
X188921731Y-56858651D01*
X188835799Y-56851409D01*
X188763363Y-56859172D01*
X188695304Y-56882329D01*
X188630147Y-56921751D01*
X188573151Y-56973302D01*
X188522350Y-57038411D01*
X188506438Y-57067191D01*
X188506438Y-56871803D01*
X188104780Y-56871803D01*
X187340492Y-56871803D01*
X187308493Y-56862293D01*
X187187526Y-56851409D01*
X187057385Y-56860739D01*
X186945677Y-56887197D01*
X186849372Y-56929323D01*
X186763699Y-56988917D01*
X186693053Y-57063910D01*
X186636270Y-57156102D01*
X186596956Y-57257862D01*
X186572059Y-57376589D01*
X186565413Y-57481189D01*
X186563241Y-57515383D01*
X186117923Y-57515383D01*
X186396715Y-56677875D01*
X190729902Y-56677875D01*
X191104327Y-56677875D01*
X191104327Y-56303450D01*
X190729902Y-56303450D01*
X190729902Y-56677875D01*
X186396715Y-56677875D01*
X186521354Y-56303450D01*
X186136061Y-56303450D01*
X185713887Y-57628712D01*
X185291713Y-56303450D01*
X184906420Y-56303450D01*
X184684198Y-56303450D01*
X184684198Y-54704563D01*
X185867638Y-54704563D01*
X185967269Y-54776226D01*
X186081472Y-54837798D01*
X186204301Y-54886194D01*
X186336950Y-54921817D01*
X186474046Y-54943302D01*
X186615021Y-54950516D01*
X186773387Y-54941872D01*
X186908648Y-54917552D01*
X187024127Y-54879441D01*
X187130892Y-54823380D01*
X187216236Y-54754764D01*
X187283025Y-54673178D01*
X187331479Y-54579316D01*
X187361452Y-54471917D01*
X187371929Y-54347969D01*
X187371929Y-54345282D01*
X187361301Y-54212769D01*
X187345291Y-54155383D01*
X187645726Y-54155383D01*
X187645726Y-54315240D01*
X187654887Y-54447290D01*
X187680864Y-54560807D01*
X187722174Y-54658768D01*
X187780998Y-54746507D01*
X187854489Y-54818464D01*
X187944190Y-54876022D01*
X188043873Y-54916206D01*
X188159700Y-54941559D01*
X188294679Y-54950516D01*
X188433756Y-54936871D01*
X188573360Y-54895195D01*
X188704396Y-54828502D01*
X188821999Y-54738757D01*
X188577512Y-54521503D01*
X188513985Y-54565032D01*
X188443545Y-54597341D01*
X188369059Y-54617377D01*
X188294679Y-54623963D01*
X188200331Y-54614262D01*
X188125983Y-54587380D01*
X188067167Y-54544706D01*
X188023307Y-54487021D01*
X187995768Y-54413843D01*
X187991521Y-54373981D01*
X188858880Y-54373981D01*
X188858880Y-54281046D01*
X188850448Y-54115192D01*
X188826788Y-53974042D01*
X188789881Y-53854110D01*
X188735009Y-53742507D01*
X188667896Y-53653663D01*
X188588381Y-53584344D01*
X188496093Y-53533533D01*
X188422976Y-53511803D01*
X189187264Y-53511803D01*
X189187264Y-54065136D01*
X189187264Y-55506535D01*
X189561689Y-55506535D01*
X189561689Y-54747053D01*
X189577725Y-54780343D01*
X189622249Y-54839645D01*
X189676361Y-54887013D01*
X189739196Y-54921825D01*
X189810073Y-54943126D01*
X189890928Y-54950516D01*
X189988849Y-54942008D01*
X190073861Y-54917627D01*
X190148360Y-54878098D01*
X190213044Y-54823825D01*
X190267375Y-54754705D01*
X190311636Y-54668415D01*
X190341657Y-54575162D01*
X190360856Y-54465630D01*
X190367690Y-54337100D01*
X190367690Y-54110198D01*
X190360869Y-53980770D01*
X190341680Y-53870116D01*
X190311636Y-53775586D01*
X190267251Y-53687869D01*
X190212901Y-53618120D01*
X190148360Y-53563827D01*
X190073861Y-53524298D01*
X190049457Y-53517299D01*
X191391434Y-53517299D01*
X191391434Y-53518642D01*
X191775384Y-53518642D01*
X191775384Y-53517299D01*
X191789569Y-53444837D01*
X191813096Y-53388283D01*
X191844993Y-53344497D01*
X191886651Y-53311036D01*
X191935995Y-53290773D01*
X191995324Y-53283681D01*
X192083309Y-53295615D01*
X192142847Y-53327400D01*
X192181176Y-53378930D01*
X192194749Y-53451720D01*
X192194749Y-53454406D01*
X192188782Y-53509641D01*
X192169469Y-53572620D01*
X192139377Y-53634489D01*
X192097784Y-53696329D01*
X191415980Y-54592578D01*
X191415980Y-54930000D01*
X192591033Y-54930000D01*
X192591033Y-54569253D01*
X191911915Y-54569253D01*
X192401012Y-53951807D01*
X192476128Y-53837957D01*
X192532903Y-53710617D01*
X192568383Y-53576174D01*
X192576482Y-53483105D01*
X192891940Y-53483105D01*
X192891940Y-53578848D01*
X192891940Y-54386193D01*
X192902444Y-54517733D01*
X192932058Y-54628343D01*
X192979117Y-54721793D01*
X193043615Y-54800917D01*
X193123394Y-54863461D01*
X193221085Y-54909978D01*
X193340446Y-54939790D01*
X193486305Y-54950516D01*
X193631499Y-54939899D01*
X193750580Y-54910369D01*
X193848272Y-54864261D01*
X193928262Y-54802260D01*
X193992941Y-54723750D01*
X194040228Y-54630380D01*
X194070062Y-54519181D01*
X194080670Y-54386193D01*
X194080670Y-53517299D01*
X194380966Y-53517299D01*
X194380966Y-53518642D01*
X194764916Y-53518642D01*
X194764916Y-53517299D01*
X194779101Y-53444837D01*
X194802628Y-53388283D01*
X194834525Y-53344497D01*
X194876184Y-53311036D01*
X194925528Y-53290773D01*
X194984857Y-53283681D01*
X195072842Y-53295615D01*
X195132379Y-53327400D01*
X195170708Y-53378930D01*
X195184281Y-53451720D01*
X195184281Y-53454406D01*
X195178314Y-53509641D01*
X195159002Y-53572620D01*
X195128909Y-53634489D01*
X195087317Y-53696329D01*
X194405513Y-54592578D01*
X194405513Y-54930000D01*
X195580565Y-54930000D01*
X195580565Y-54569253D01*
X194901448Y-54569253D01*
X195071316Y-54354808D01*
X195881472Y-54354808D01*
X195881472Y-54356151D01*
X195897615Y-54477111D01*
X195927758Y-54582741D01*
X195970987Y-54675254D01*
X196028857Y-54758740D01*
X196096907Y-54826536D01*
X196175907Y-54880174D01*
X196263453Y-54918851D01*
X196358769Y-54942425D01*
X196463503Y-54950516D01*
X196585702Y-54941915D01*
X196690428Y-54917551D01*
X196780530Y-54878831D01*
X196861027Y-54823798D01*
X196927358Y-54754863D01*
X196980687Y-54670491D01*
X197017880Y-54576966D01*
X197041377Y-54468125D01*
X197049686Y-54341130D01*
X197049686Y-54174434D01*
X197042702Y-54046889D01*
X197023060Y-53938043D01*
X196992289Y-53845195D01*
X196946970Y-53759556D01*
X196891291Y-53691115D01*
X196824860Y-53637588D01*
X196748689Y-53598884D01*
X196661411Y-53574904D01*
X196560589Y-53566514D01*
X196488525Y-53572410D01*
X196415021Y-53590450D01*
X196347711Y-53619670D01*
X196299616Y-53655296D01*
X196299616Y-53304197D01*
X196992289Y-53304197D01*
X196992289Y-52943450D01*
X195925192Y-52943450D01*
X195925192Y-54085652D01*
X196274947Y-54085652D01*
X196305986Y-54019409D01*
X196353471Y-53970980D01*
X196414998Y-53940572D01*
X196490858Y-53929947D01*
X196546011Y-53937346D01*
X196590453Y-53958394D01*
X196626779Y-53993450D01*
X196652330Y-54038373D01*
X196669076Y-54097395D01*
X196675261Y-54174434D01*
X196675261Y-54341130D01*
X196668480Y-54417724D01*
X196649961Y-54477034D01*
X196621284Y-54522847D01*
X196581385Y-54557932D01*
X196531635Y-54579430D01*
X196468998Y-54587083D01*
X196411584Y-54580034D01*
X196363594Y-54559824D01*
X196322819Y-54526266D01*
X196279304Y-54456433D01*
X196255896Y-54356151D01*
X196255896Y-54354808D01*
X195881472Y-54354808D01*
X195071316Y-54354808D01*
X195390544Y-53951807D01*
X195465660Y-53837957D01*
X195522435Y-53710617D01*
X195557916Y-53576174D01*
X195569574Y-53442194D01*
X195569574Y-53440851D01*
X195561357Y-53333353D01*
X195537985Y-53240821D01*
X195500575Y-53160704D01*
X195448108Y-53090004D01*
X195381756Y-53031306D01*
X195299686Y-52983872D01*
X195209841Y-52951185D01*
X195104853Y-52930420D01*
X194982048Y-52923056D01*
X194869104Y-52931289D01*
X194768700Y-52955005D01*
X194678820Y-52993398D01*
X194597642Y-53047150D01*
X194528509Y-53114783D01*
X194470481Y-53197707D01*
X194427321Y-53289766D01*
X194397153Y-53395518D01*
X194380966Y-53517299D01*
X194080670Y-53517299D01*
X194080670Y-53483105D01*
X194070073Y-53349316D01*
X194040319Y-53237810D01*
X193993250Y-53144532D01*
X193928995Y-53066427D01*
X193849354Y-53004836D01*
X193751720Y-52958948D01*
X193632313Y-52929505D01*
X193486305Y-52918904D01*
X193341114Y-52929519D01*
X193222009Y-52959046D01*
X193124274Y-53005154D01*
X193044225Y-53067159D01*
X192979598Y-53145663D01*
X192932348Y-53239012D01*
X192902539Y-53350175D01*
X192891940Y-53483105D01*
X192576482Y-53483105D01*
X192580042Y-53442194D01*
X192580042Y-53440851D01*
X192571824Y-53333353D01*
X192548452Y-53240821D01*
X192511043Y-53160704D01*
X192458575Y-53090004D01*
X192392224Y-53031306D01*
X192310153Y-52983872D01*
X192220308Y-52951185D01*
X192115321Y-52930420D01*
X191992515Y-52923056D01*
X191879572Y-52931289D01*
X191779168Y-52955005D01*
X191689288Y-52993398D01*
X191608109Y-53047150D01*
X191538977Y-53114783D01*
X191480949Y-53197707D01*
X191437788Y-53289766D01*
X191407620Y-53395518D01*
X191391434Y-53517299D01*
X190049457Y-53517299D01*
X189988849Y-53499917D01*
X189890928Y-53491409D01*
X189817458Y-53498936D01*
X189748940Y-53521284D01*
X189683932Y-53559064D01*
X189627008Y-53608893D01*
X189576713Y-53672170D01*
X189561689Y-53699228D01*
X189561689Y-53511803D01*
X189187264Y-53511803D01*
X188422976Y-53511803D01*
X188390977Y-53502293D01*
X188270010Y-53491409D01*
X188139869Y-53500739D01*
X188028161Y-53527197D01*
X187931856Y-53569323D01*
X187846183Y-53628917D01*
X187775537Y-53703910D01*
X187718754Y-53796102D01*
X187679440Y-53897862D01*
X187654543Y-54016589D01*
X187647898Y-54121189D01*
X187645726Y-54155383D01*
X187345291Y-54155383D01*
X187332173Y-54108364D01*
X187287177Y-54026301D01*
X187225294Y-53954796D01*
X187155215Y-53898727D01*
X187076029Y-53856796D01*
X186941212Y-53810115D01*
X186761200Y-53767281D01*
X186745446Y-53763984D01*
X186729693Y-53760443D01*
X186718824Y-53758489D01*
X186707833Y-53756413D01*
X186504257Y-53707198D01*
X186437127Y-53676975D01*
X186382746Y-53634169D01*
X186346501Y-53576996D01*
X186333531Y-53498126D01*
X186333531Y-53496782D01*
X186343952Y-53433715D01*
X186374466Y-53381638D01*
X186427809Y-53337658D01*
X186493283Y-53308126D01*
X186580224Y-53288362D01*
X186694277Y-53280994D01*
X186809393Y-53291535D01*
X186934002Y-53324713D01*
X187055722Y-53376940D01*
X187173726Y-53447690D01*
X187332240Y-53130662D01*
X187233905Y-53069895D01*
X187130007Y-53018677D01*
X187022051Y-52977565D01*
X186912142Y-52947602D01*
X186801079Y-52929091D01*
X186694277Y-52923056D01*
X186540570Y-52931775D01*
X186409593Y-52956297D01*
X186297993Y-52994741D01*
X186195518Y-53051015D01*
X186113026Y-53120252D01*
X186048011Y-53203080D01*
X186001203Y-53297652D01*
X185972113Y-53406385D01*
X185961915Y-53532320D01*
X185961915Y-53533663D01*
X185973541Y-53675983D01*
X186005087Y-53785429D01*
X186053384Y-53869131D01*
X186119860Y-53940959D01*
X186193778Y-53995572D01*
X186276134Y-54034483D01*
X186416385Y-54075764D01*
X186606839Y-54113007D01*
X186636880Y-54117037D01*
X186644330Y-54118503D01*
X186651901Y-54119846D01*
X186837648Y-54159413D01*
X186904364Y-54188106D01*
X186955129Y-54227801D01*
X186988417Y-54280776D01*
X187000314Y-54353464D01*
X187000314Y-54354808D01*
X186989036Y-54424864D01*
X186956190Y-54482312D01*
X186899197Y-54530418D01*
X186828885Y-54562897D01*
X186736116Y-54584535D01*
X186615021Y-54592578D01*
X186458586Y-54579791D01*
X186306176Y-54541409D01*
X186163753Y-54478784D01*
X186041172Y-54395840D01*
X185867638Y-54704563D01*
X184684198Y-54704563D01*
X184684198Y-51570000D01*
X186514271Y-51570000D01*
X186854501Y-51570000D01*
X186854501Y-50185723D01*
X187220621Y-51348715D01*
X187551204Y-51348715D01*
X187917446Y-50158957D01*
X187917446Y-51570000D01*
X188257554Y-51570000D01*
X188606089Y-51570000D01*
X188980391Y-51570000D01*
X188980391Y-51195697D01*
X188606089Y-51195697D01*
X188606089Y-51570000D01*
X188257554Y-51570000D01*
X188257554Y-49583450D01*
X188986253Y-49583450D01*
X189443964Y-51570000D01*
X189796406Y-51570000D01*
X190165335Y-50181845D01*
X190517777Y-51570000D01*
X190870220Y-51570000D01*
X191048696Y-50795383D01*
X191369941Y-50795383D01*
X191369941Y-50955240D01*
X191379102Y-51087290D01*
X191405080Y-51200807D01*
X191446389Y-51298768D01*
X191505214Y-51386507D01*
X191578705Y-51458464D01*
X191668406Y-51516022D01*
X191768088Y-51556206D01*
X191883915Y-51581559D01*
X192018894Y-51590516D01*
X192157971Y-51576871D01*
X192297575Y-51535195D01*
X192428611Y-51468502D01*
X192546214Y-51378757D01*
X192301727Y-51161503D01*
X192238200Y-51205032D01*
X192167760Y-51237341D01*
X192093274Y-51257377D01*
X192018894Y-51263963D01*
X191924546Y-51254262D01*
X191850198Y-51227380D01*
X191791382Y-51184706D01*
X191747522Y-51127021D01*
X191719984Y-51053843D01*
X191715736Y-51013981D01*
X192583095Y-51013981D01*
X192583095Y-50921046D01*
X192574663Y-50755192D01*
X192551003Y-50614042D01*
X192514096Y-50494110D01*
X192459224Y-50382507D01*
X192392112Y-50293663D01*
X192312596Y-50224344D01*
X192220308Y-50173533D01*
X192147192Y-50151803D01*
X192911480Y-50151803D01*
X192911480Y-51570000D01*
X193285904Y-51570000D01*
X193285904Y-50713318D01*
X193292857Y-50645435D01*
X193312092Y-50592141D01*
X193342568Y-50550163D01*
X193383814Y-50518828D01*
X193436208Y-50499141D01*
X193503036Y-50492034D01*
X193573707Y-50499123D01*
X193628795Y-50518653D01*
X193671807Y-50549431D01*
X193703954Y-50591228D01*
X193724053Y-50643896D01*
X193731281Y-50710631D01*
X193731281Y-51570000D01*
X194105583Y-51570000D01*
X194105583Y-50750198D01*
X194433723Y-50750198D01*
X194433723Y-50751664D01*
X194433723Y-50977100D01*
X194440542Y-51105637D01*
X194459701Y-51215168D01*
X194489655Y-51308415D01*
X194533979Y-51394718D01*
X194588313Y-51463838D01*
X194652931Y-51518098D01*
X194727432Y-51557622D01*
X194812482Y-51582006D01*
X194910485Y-51590516D01*
X194991338Y-51583123D01*
X195062171Y-51561821D01*
X195124930Y-51527013D01*
X195179117Y-51479636D01*
X195223680Y-51420334D01*
X195239724Y-51387039D01*
X195239724Y-51570000D01*
X195614149Y-51570000D01*
X195614149Y-50151803D01*
X195873779Y-50151803D01*
X195873779Y-50471517D01*
X196019958Y-50471517D01*
X196019958Y-51201071D01*
X196030987Y-51322095D01*
X196060813Y-51413431D01*
X196106664Y-51481950D01*
X196170908Y-51532157D01*
X196259169Y-51564721D01*
X196379362Y-51576838D01*
X196567917Y-51576838D01*
X196567917Y-51216092D01*
X196474983Y-51216092D01*
X196439544Y-51208845D01*
X196414777Y-51188126D01*
X196400039Y-51156289D01*
X196394383Y-51108258D01*
X196394383Y-50471517D01*
X196567917Y-50471517D01*
X196567917Y-50151803D01*
X196394383Y-50151803D01*
X196394383Y-49739277D01*
X196019958Y-49739277D01*
X196019958Y-50151803D01*
X195873779Y-50151803D01*
X195614149Y-50151803D01*
X195614149Y-49583450D01*
X195239724Y-49583450D01*
X195239724Y-50339228D01*
X195224700Y-50312170D01*
X195174404Y-50248893D01*
X195117481Y-50199064D01*
X195052473Y-50161284D01*
X194983955Y-50138936D01*
X194910485Y-50131409D01*
X194812482Y-50139919D01*
X194727432Y-50164303D01*
X194652931Y-50203827D01*
X194588455Y-50258107D01*
X194534103Y-50327855D01*
X194489655Y-50415586D01*
X194459678Y-50510110D01*
X194440530Y-50620763D01*
X194433723Y-50750198D01*
X194105583Y-50750198D01*
X194105583Y-50709288D01*
X194096686Y-50569868D01*
X194071964Y-50454863D01*
X194033590Y-50360155D01*
X193982607Y-50282351D01*
X193915915Y-50217164D01*
X193837592Y-50170558D01*
X193745316Y-50141617D01*
X193635660Y-50131409D01*
X193547645Y-50139394D01*
X193473610Y-50162007D01*
X193410834Y-50198332D01*
X193356553Y-50247631D01*
X193305304Y-50313527D01*
X193285904Y-50348041D01*
X193285904Y-50151803D01*
X192911480Y-50151803D01*
X192147192Y-50151803D01*
X192115193Y-50142293D01*
X191994225Y-50131409D01*
X191864084Y-50140739D01*
X191752376Y-50167197D01*
X191656071Y-50209323D01*
X191570398Y-50268917D01*
X191499753Y-50343910D01*
X191442969Y-50436102D01*
X191403655Y-50537862D01*
X191378758Y-50656589D01*
X191372113Y-50761189D01*
X191369941Y-50795383D01*
X191048696Y-50795383D01*
X191327931Y-49583450D01*
X190942638Y-49583450D01*
X190687160Y-50908712D01*
X190307362Y-49583450D01*
X190006821Y-49583450D01*
X189627024Y-50908712D01*
X189371546Y-49583450D01*
X188986253Y-49583450D01*
X188257554Y-49583450D01*
X187764428Y-49583450D01*
X187385974Y-50922390D01*
X187007519Y-49583450D01*
X186514271Y-49583450D01*
X186514271Y-51570000D01*
X184684198Y-51570000D01*
X184684198Y-49361228D01*
X198111249Y-49361228D01*
X198111249Y-58532738D01*
G37*
D10*
X90690476Y-36204819D02*
X91357142Y-37204819D01*
X91357142Y-36204819D02*
X90690476Y-37204819D01*
X91690476Y-36300057D02*
X91738095Y-36252438D01*
X91738095Y-36252438D02*
X91833333Y-36204819D01*
X91833333Y-36204819D02*
X92071428Y-36204819D01*
X92071428Y-36204819D02*
X92166666Y-36252438D01*
X92166666Y-36252438D02*
X92214285Y-36300057D01*
X92214285Y-36300057D02*
X92261904Y-36395295D01*
X92261904Y-36395295D02*
X92261904Y-36490533D01*
X92261904Y-36490533D02*
X92214285Y-36633390D01*
X92214285Y-36633390D02*
X91642857Y-37204819D01*
X91642857Y-37204819D02*
X92261904Y-37204819D01*
X73097561Y-57360588D02*
X73145180Y-57265350D01*
X73145180Y-57265350D02*
X73145180Y-57122493D01*
X73145180Y-57122493D02*
X73097561Y-56979636D01*
X73097561Y-56979636D02*
X73002323Y-56884398D01*
X73002323Y-56884398D02*
X72907085Y-56836779D01*
X72907085Y-56836779D02*
X72716609Y-56789160D01*
X72716609Y-56789160D02*
X72573752Y-56789160D01*
X72573752Y-56789160D02*
X72383276Y-56836779D01*
X72383276Y-56836779D02*
X72288038Y-56884398D01*
X72288038Y-56884398D02*
X72192800Y-56979636D01*
X72192800Y-56979636D02*
X72145180Y-57122493D01*
X72145180Y-57122493D02*
X72145180Y-57217731D01*
X72145180Y-57217731D02*
X72192800Y-57360588D01*
X72192800Y-57360588D02*
X72240419Y-57408207D01*
X72240419Y-57408207D02*
X72573752Y-57408207D01*
X72573752Y-57408207D02*
X72573752Y-57217731D01*
X72145180Y-57836779D02*
X73145180Y-57836779D01*
X73145180Y-57836779D02*
X72145180Y-58408207D01*
X72145180Y-58408207D02*
X73145180Y-58408207D01*
X72145180Y-58884398D02*
X73145180Y-58884398D01*
X73145180Y-58884398D02*
X73145180Y-59122493D01*
X73145180Y-59122493D02*
X73097561Y-59265350D01*
X73097561Y-59265350D02*
X73002323Y-59360588D01*
X73002323Y-59360588D02*
X72907085Y-59408207D01*
X72907085Y-59408207D02*
X72716609Y-59455826D01*
X72716609Y-59455826D02*
X72573752Y-59455826D01*
X72573752Y-59455826D02*
X72383276Y-59408207D01*
X72383276Y-59408207D02*
X72288038Y-59360588D01*
X72288038Y-59360588D02*
X72192800Y-59265350D01*
X72192800Y-59265350D02*
X72145180Y-59122493D01*
X72145180Y-59122493D02*
X72145180Y-58884398D01*
D12*
G36*
X111357810Y-35515188D02*
G01*
X111425868Y-35543715D01*
X111482337Y-35589806D01*
X111524939Y-35653013D01*
X111550931Y-35727626D01*
X111560049Y-35816045D01*
X111550766Y-35902847D01*
X111524175Y-35976635D01*
X111480934Y-36039022D01*
X111424188Y-36085018D01*
X111356351Y-36113594D01*
X111276574Y-36123486D01*
X110736797Y-36123486D01*
X110736797Y-35505246D01*
X111276574Y-35505246D01*
X111357810Y-35515188D01*
G37*
G36*
X112836899Y-31319104D02*
G01*
X112953405Y-31357070D01*
X113043824Y-31416224D01*
X113112554Y-31497989D01*
X113155027Y-31600644D01*
X113170220Y-31730534D01*
X113170220Y-32461431D01*
X113155030Y-32591218D01*
X113112562Y-32693827D01*
X113043824Y-32775588D01*
X112953405Y-32834743D01*
X112836899Y-32872708D01*
X112686924Y-32886566D01*
X112323155Y-32886566D01*
X112323155Y-31305246D01*
X112686924Y-31305246D01*
X112836899Y-31319104D01*
G37*
G36*
X116463481Y-37840923D02*
G01*
X106544875Y-37840923D01*
X106544875Y-37537500D01*
X106822653Y-37537500D01*
X107307781Y-37537500D01*
X107307781Y-37535820D01*
X107819164Y-37535820D01*
X108266586Y-37535820D01*
X108266586Y-35745590D01*
X109146166Y-37535820D01*
X109721663Y-37535820D01*
X109721663Y-36123486D01*
X110268920Y-36123486D01*
X110268920Y-37537500D01*
X110736797Y-37537500D01*
X110736797Y-36639144D01*
X112379178Y-36639144D01*
X112391915Y-36831509D01*
X112427971Y-36996628D01*
X112485118Y-37138773D01*
X112567031Y-37266691D01*
X112669418Y-37371272D01*
X112794238Y-37454762D01*
X112933645Y-37513282D01*
X113095595Y-37550134D01*
X113284403Y-37563145D01*
X113473107Y-37550152D01*
X113635338Y-37513316D01*
X113775331Y-37454762D01*
X113900783Y-37371242D01*
X114003721Y-37266651D01*
X114086130Y-37138773D01*
X114143704Y-36996582D01*
X114180011Y-36831466D01*
X114192834Y-36639144D01*
X114192834Y-35505246D01*
X114365330Y-35505246D01*
X115041578Y-35505246D01*
X115041578Y-37537500D01*
X115509455Y-37537500D01*
X115509455Y-35505246D01*
X116185703Y-35505246D01*
X116185703Y-35054313D01*
X114365330Y-35054313D01*
X114365330Y-35505246D01*
X114192834Y-35505246D01*
X114192834Y-35054313D01*
X113724956Y-35054313D01*
X113724956Y-36651203D01*
X113710820Y-36788962D01*
X113671705Y-36897171D01*
X113609704Y-36982458D01*
X113525866Y-37046016D01*
X113419625Y-37085915D01*
X113284403Y-37100305D01*
X113150335Y-37085937D01*
X113044883Y-37046063D01*
X112961544Y-36982458D01*
X112900074Y-36897243D01*
X112861249Y-36789035D01*
X112847208Y-36651203D01*
X112847208Y-35054313D01*
X112379178Y-35054313D01*
X112379178Y-36639144D01*
X110736797Y-36639144D01*
X110736797Y-36574267D01*
X111264515Y-36574267D01*
X111417071Y-36563265D01*
X111552532Y-36531596D01*
X111673621Y-36480386D01*
X111783167Y-36408738D01*
X111873929Y-36320724D01*
X111947631Y-36214924D01*
X112000832Y-36096916D01*
X112033638Y-35964896D01*
X112045023Y-35816045D01*
X112033651Y-35667188D01*
X112000856Y-35534898D01*
X111947631Y-35416403D01*
X111873905Y-35309964D01*
X111783134Y-35221345D01*
X111673621Y-35149110D01*
X111552480Y-35097383D01*
X111417024Y-35065415D01*
X111264515Y-35054313D01*
X110736797Y-35054313D01*
X110268920Y-35054313D01*
X110268920Y-36123486D01*
X109721663Y-36123486D01*
X109721663Y-35054313D01*
X109274241Y-35054313D01*
X109274241Y-36872565D01*
X108391303Y-35054313D01*
X107819164Y-35054313D01*
X107819164Y-37535820D01*
X107307781Y-37535820D01*
X107307781Y-35054313D01*
X106822653Y-35054313D01*
X106822653Y-37537500D01*
X106544875Y-37537500D01*
X106544875Y-33337500D01*
X108167210Y-33337500D01*
X108592498Y-33337500D01*
X108592498Y-31607157D01*
X109050148Y-33060894D01*
X109463376Y-33060894D01*
X109921179Y-31573697D01*
X109921179Y-33337500D01*
X110346314Y-33337500D01*
X110858766Y-33337500D01*
X111343894Y-33337500D01*
X111343894Y-32886566D01*
X111855277Y-32886566D01*
X111855277Y-33337500D01*
X112090972Y-33337500D01*
X112675017Y-33337500D01*
X114082772Y-33337500D01*
X114567899Y-33337500D01*
X114567899Y-30854313D01*
X114082772Y-30854313D01*
X114082772Y-33337500D01*
X112675017Y-33337500D01*
X112885688Y-33324005D01*
X113063834Y-33286089D01*
X113214641Y-33226522D01*
X113351246Y-33141142D01*
X113460370Y-33037970D01*
X113545132Y-32915723D01*
X113605153Y-32778548D01*
X113642373Y-32623684D01*
X113655347Y-32447692D01*
X113655347Y-31744120D01*
X113641681Y-31559186D01*
X113602854Y-31400084D01*
X113540858Y-31262504D01*
X113453502Y-31140549D01*
X113343178Y-31039733D01*
X113207009Y-30958574D01*
X113057156Y-30902519D01*
X112881908Y-30866933D01*
X112676696Y-30854313D01*
X112323155Y-30854313D01*
X111855277Y-30854313D01*
X111855277Y-32886566D01*
X111343894Y-32886566D01*
X111343894Y-30854313D01*
X110858766Y-30854313D01*
X110858766Y-33337500D01*
X110346314Y-33337500D01*
X110346314Y-30854313D01*
X109729906Y-30854313D01*
X109256839Y-32527987D01*
X108783771Y-30854313D01*
X108167210Y-30854313D01*
X108167210Y-33337500D01*
X106544875Y-33337500D01*
X106544875Y-30576535D01*
X116463481Y-30576535D01*
X116463481Y-37840923D01*
G37*
G36*
X166357810Y-35515188D02*
G01*
X166425868Y-35543715D01*
X166482337Y-35589806D01*
X166524939Y-35653013D01*
X166550931Y-35727626D01*
X166560049Y-35816045D01*
X166550766Y-35902847D01*
X166524175Y-35976635D01*
X166480934Y-36039022D01*
X166424188Y-36085018D01*
X166356351Y-36113594D01*
X166276574Y-36123486D01*
X165736797Y-36123486D01*
X165736797Y-35505246D01*
X166276574Y-35505246D01*
X166357810Y-35515188D01*
G37*
G36*
X170275185Y-31310649D02*
G01*
X170376496Y-31350584D01*
X170461116Y-31415468D01*
X170524263Y-31503388D01*
X170562812Y-31607913D01*
X170576317Y-31732213D01*
X170576317Y-32459752D01*
X170562820Y-32583941D01*
X170524263Y-32688577D01*
X170461116Y-32776497D01*
X170376496Y-32841381D01*
X170275194Y-32881200D01*
X170154541Y-32895115D01*
X170033865Y-32881205D01*
X169932432Y-32841381D01*
X169847937Y-32776509D01*
X169784818Y-32688577D01*
X169746261Y-32583941D01*
X169732764Y-32459752D01*
X169732764Y-31732213D01*
X169746269Y-31607913D01*
X169784818Y-31503388D01*
X169847937Y-31415456D01*
X169932432Y-31350584D01*
X170033874Y-31310645D01*
X170154541Y-31296698D01*
X170275185Y-31310649D01*
G37*
G36*
X162844211Y-32488756D02*
G01*
X162250449Y-32488756D01*
X162547292Y-31641691D01*
X162844211Y-32488756D01*
G37*
G36*
X167056544Y-31319104D02*
G01*
X167173050Y-31357070D01*
X167263468Y-31416224D01*
X167332199Y-31497989D01*
X167374671Y-31600644D01*
X167389864Y-31730534D01*
X167389864Y-32461431D01*
X167374675Y-32591218D01*
X167332206Y-32693827D01*
X167263468Y-32775588D01*
X167173050Y-32834743D01*
X167056544Y-32872708D01*
X166906569Y-32886566D01*
X166542799Y-32886566D01*
X166542799Y-31305246D01*
X166906569Y-31305246D01*
X167056544Y-31319104D01*
G37*
G36*
X171463481Y-37840923D02*
G01*
X161171489Y-37840923D01*
X161171489Y-37537500D01*
X161822653Y-37537500D01*
X162307781Y-37537500D01*
X162307781Y-37535820D01*
X162819164Y-37535820D01*
X163266586Y-37535820D01*
X163266586Y-35745590D01*
X164146166Y-37535820D01*
X164721663Y-37535820D01*
X164721663Y-36123486D01*
X165268920Y-36123486D01*
X165268920Y-37537500D01*
X165736797Y-37537500D01*
X165736797Y-36639144D01*
X167379178Y-36639144D01*
X167391915Y-36831509D01*
X167427971Y-36996628D01*
X167485118Y-37138773D01*
X167567031Y-37266691D01*
X167669418Y-37371272D01*
X167794238Y-37454762D01*
X167933645Y-37513282D01*
X168095595Y-37550134D01*
X168284403Y-37563145D01*
X168473107Y-37550152D01*
X168635338Y-37513316D01*
X168775331Y-37454762D01*
X168900783Y-37371242D01*
X169003721Y-37266651D01*
X169086130Y-37138773D01*
X169143704Y-36996582D01*
X169180011Y-36831466D01*
X169192834Y-36639144D01*
X169192834Y-35505246D01*
X169365330Y-35505246D01*
X170041578Y-35505246D01*
X170041578Y-37537500D01*
X170509455Y-37537500D01*
X170509455Y-35505246D01*
X171185703Y-35505246D01*
X171185703Y-35054313D01*
X169365330Y-35054313D01*
X169365330Y-35505246D01*
X169192834Y-35505246D01*
X169192834Y-35054313D01*
X168724956Y-35054313D01*
X168724956Y-36651203D01*
X168710820Y-36788962D01*
X168671705Y-36897171D01*
X168609704Y-36982458D01*
X168525866Y-37046016D01*
X168419625Y-37085915D01*
X168284403Y-37100305D01*
X168150335Y-37085937D01*
X168044883Y-37046063D01*
X167961544Y-36982458D01*
X167900074Y-36897243D01*
X167861249Y-36789035D01*
X167847208Y-36651203D01*
X167847208Y-35054313D01*
X167379178Y-35054313D01*
X167379178Y-36639144D01*
X165736797Y-36639144D01*
X165736797Y-36574267D01*
X166264515Y-36574267D01*
X166417071Y-36563265D01*
X166552532Y-36531596D01*
X166673621Y-36480386D01*
X166783167Y-36408738D01*
X166873929Y-36320724D01*
X166947631Y-36214924D01*
X167000832Y-36096916D01*
X167033638Y-35964896D01*
X167045023Y-35816045D01*
X167033651Y-35667188D01*
X167000856Y-35534898D01*
X166947631Y-35416403D01*
X166873905Y-35309964D01*
X166783134Y-35221345D01*
X166673621Y-35149110D01*
X166552480Y-35097383D01*
X166417024Y-35065415D01*
X166264515Y-35054313D01*
X165736797Y-35054313D01*
X165268920Y-35054313D01*
X165268920Y-36123486D01*
X164721663Y-36123486D01*
X164721663Y-35054313D01*
X164274241Y-35054313D01*
X164274241Y-36872565D01*
X163391303Y-35054313D01*
X162819164Y-35054313D01*
X162819164Y-37535820D01*
X162307781Y-37535820D01*
X162307781Y-35054313D01*
X161822653Y-35054313D01*
X161822653Y-37537500D01*
X161171489Y-37537500D01*
X161171489Y-33337500D01*
X161449267Y-33337500D01*
X161953018Y-33337500D01*
X162092479Y-32939536D01*
X163002221Y-32939536D01*
X163141718Y-33337500D01*
X163645469Y-33337500D01*
X163301965Y-32439144D01*
X163781481Y-32439144D01*
X163794219Y-32631509D01*
X163830274Y-32796628D01*
X163887422Y-32938773D01*
X163969334Y-33066691D01*
X164071721Y-33171272D01*
X164196542Y-33254762D01*
X164335949Y-33313282D01*
X164497898Y-33350134D01*
X164686706Y-33363145D01*
X164875410Y-33350152D01*
X165037642Y-33313316D01*
X165177635Y-33254762D01*
X165303086Y-33171242D01*
X165406024Y-33066651D01*
X165488434Y-32938773D01*
X165509573Y-32886566D01*
X166074922Y-32886566D01*
X166074922Y-33337500D01*
X166310616Y-33337500D01*
X166894662Y-33337500D01*
X168302416Y-33337500D01*
X168787544Y-33337500D01*
X168787544Y-31744120D01*
X169247636Y-31744120D01*
X169247636Y-32447692D01*
X169260825Y-32626994D01*
X169298808Y-32786193D01*
X169360293Y-32928545D01*
X169446184Y-33056851D01*
X169551773Y-33163218D01*
X169678878Y-33249572D01*
X169820071Y-33311624D01*
X169977555Y-33349880D01*
X170154541Y-33363145D01*
X170331526Y-33349880D01*
X170489010Y-33311624D01*
X170630203Y-33249572D01*
X170757297Y-33163212D01*
X170862834Y-33056846D01*
X170948635Y-32928545D01*
X171010206Y-32786185D01*
X171048239Y-32626987D01*
X171061445Y-32447692D01*
X171061445Y-31744120D01*
X171048237Y-31564827D01*
X171010202Y-31405683D01*
X170948635Y-31263420D01*
X170862819Y-31135033D01*
X170757281Y-31028672D01*
X170630203Y-30942393D01*
X170489010Y-30880341D01*
X170331526Y-30842085D01*
X170154541Y-30828820D01*
X169977555Y-30842085D01*
X169820071Y-30880341D01*
X169678878Y-30942393D01*
X169551789Y-31028666D01*
X169446199Y-31135028D01*
X169360293Y-31263420D01*
X169298813Y-31405674D01*
X169260828Y-31564819D01*
X169248512Y-31732213D01*
X169247636Y-31744120D01*
X168787544Y-31744120D01*
X168787544Y-30854313D01*
X168302416Y-30854313D01*
X168302416Y-33337500D01*
X166894662Y-33337500D01*
X167105333Y-33324005D01*
X167283479Y-33286089D01*
X167434286Y-33226522D01*
X167570890Y-33141142D01*
X167680015Y-33037970D01*
X167764777Y-32915723D01*
X167824798Y-32778548D01*
X167862018Y-32623684D01*
X167874992Y-32447692D01*
X167874992Y-31744120D01*
X167861325Y-31559186D01*
X167822498Y-31400084D01*
X167760503Y-31262504D01*
X167673147Y-31140549D01*
X167562822Y-31039733D01*
X167426653Y-30958574D01*
X167276801Y-30902519D01*
X167101553Y-30866933D01*
X166896341Y-30854313D01*
X166542799Y-30854313D01*
X166074922Y-30854313D01*
X166074922Y-32886566D01*
X165509573Y-32886566D01*
X165546007Y-32796582D01*
X165582314Y-32631466D01*
X165595137Y-32439144D01*
X165595137Y-30854313D01*
X165127259Y-30854313D01*
X165127259Y-32451203D01*
X165113123Y-32588962D01*
X165074009Y-32697171D01*
X165012007Y-32782458D01*
X164928169Y-32846016D01*
X164821928Y-32885915D01*
X164686706Y-32900305D01*
X164552638Y-32885937D01*
X164447186Y-32846063D01*
X164363848Y-32782458D01*
X164302377Y-32697243D01*
X164263552Y-32589035D01*
X164249512Y-32451203D01*
X164249512Y-30854313D01*
X163781481Y-30854313D01*
X163781481Y-32439144D01*
X163301965Y-32439144D01*
X162695975Y-30854313D01*
X162398762Y-30854313D01*
X161773801Y-32488756D01*
X161449267Y-33337500D01*
X161171489Y-33337500D01*
X161171489Y-30551042D01*
X171463481Y-30551042D01*
X171463481Y-37840923D01*
G37*
G36*
X129415939Y-35510649D02*
G01*
X129517250Y-35550584D01*
X129601870Y-35615468D01*
X129665017Y-35703388D01*
X129703565Y-35807913D01*
X129717071Y-35932213D01*
X129717071Y-36659752D01*
X129703574Y-36783941D01*
X129665017Y-36888577D01*
X129601870Y-36976497D01*
X129517250Y-37041381D01*
X129415948Y-37081200D01*
X129295294Y-37095115D01*
X129174618Y-37081205D01*
X129073186Y-37041381D01*
X128988691Y-36976509D01*
X128925572Y-36888577D01*
X128887015Y-36783941D01*
X128873518Y-36659752D01*
X128873518Y-35932213D01*
X128887023Y-35807913D01*
X128925572Y-35703388D01*
X128988691Y-35615456D01*
X129073186Y-35550584D01*
X129174628Y-35510645D01*
X129295294Y-35496698D01*
X129415939Y-35510649D01*
G37*
G36*
X132736899Y-31319104D02*
G01*
X132853405Y-31357070D01*
X132943824Y-31416224D01*
X133012554Y-31497989D01*
X133055027Y-31600644D01*
X133070220Y-31730534D01*
X133070220Y-32461431D01*
X133055030Y-32591218D01*
X133012562Y-32693827D01*
X132943824Y-32775588D01*
X132853405Y-32834743D01*
X132736899Y-32872708D01*
X132586924Y-32886566D01*
X132223155Y-32886566D01*
X132223155Y-31305246D01*
X132586924Y-31305246D01*
X132736899Y-31319104D01*
G37*
G36*
X134745677Y-37840923D02*
G01*
X127789432Y-37840923D01*
X127789432Y-35944120D01*
X128388390Y-35944120D01*
X128388390Y-36647692D01*
X128401579Y-36826994D01*
X128439562Y-36986193D01*
X128501047Y-37128545D01*
X128586938Y-37256851D01*
X128692527Y-37363218D01*
X128819631Y-37449572D01*
X128960825Y-37511624D01*
X129118309Y-37549880D01*
X129295294Y-37563145D01*
X129472280Y-37549880D01*
X129629764Y-37511624D01*
X129770957Y-37449572D01*
X129898051Y-37363212D01*
X130003588Y-37256846D01*
X130089389Y-37128545D01*
X130150960Y-36986185D01*
X130188993Y-36826987D01*
X130202199Y-36647692D01*
X130202199Y-36639144D01*
X130596346Y-36639144D01*
X130609083Y-36831509D01*
X130645138Y-36996628D01*
X130702286Y-37138773D01*
X130784199Y-37266691D01*
X130886585Y-37371272D01*
X131011406Y-37454762D01*
X131150813Y-37513282D01*
X131312762Y-37550134D01*
X131501571Y-37563145D01*
X131690274Y-37550152D01*
X131852506Y-37513316D01*
X131992499Y-37454762D01*
X132117950Y-37371242D01*
X132220889Y-37266651D01*
X132303298Y-37138773D01*
X132360871Y-36996582D01*
X132397178Y-36831466D01*
X132410001Y-36639144D01*
X132410001Y-35505246D01*
X132582498Y-35505246D01*
X133258745Y-35505246D01*
X133258745Y-37537500D01*
X133726623Y-37537500D01*
X133726623Y-35505246D01*
X134402870Y-35505246D01*
X134402870Y-35054313D01*
X132582498Y-35054313D01*
X132582498Y-35505246D01*
X132410001Y-35505246D01*
X132410001Y-35054313D01*
X131942124Y-35054313D01*
X131942124Y-36651203D01*
X131927987Y-36788962D01*
X131888873Y-36897171D01*
X131826872Y-36982458D01*
X131743033Y-37046016D01*
X131636792Y-37085915D01*
X131501571Y-37100305D01*
X131367503Y-37085937D01*
X131262050Y-37046063D01*
X131178712Y-36982458D01*
X131117241Y-36897243D01*
X131078416Y-36789035D01*
X131064376Y-36651203D01*
X131064376Y-35054313D01*
X130596346Y-35054313D01*
X130596346Y-36639144D01*
X130202199Y-36639144D01*
X130202199Y-35944120D01*
X130188990Y-35764827D01*
X130150956Y-35605683D01*
X130089389Y-35463420D01*
X130003573Y-35335033D01*
X129898035Y-35228672D01*
X129770957Y-35142393D01*
X129629764Y-35080341D01*
X129472280Y-35042085D01*
X129295294Y-35028820D01*
X129118309Y-35042085D01*
X128960825Y-35080341D01*
X128819631Y-35142393D01*
X128692543Y-35228666D01*
X128586953Y-35335028D01*
X128501047Y-35463420D01*
X128439567Y-35605674D01*
X128401582Y-35764819D01*
X128389266Y-35932213D01*
X128388390Y-35944120D01*
X127789432Y-35944120D01*
X127789432Y-33337500D01*
X128067210Y-33337500D01*
X128492498Y-33337500D01*
X128492498Y-31607157D01*
X128950148Y-33060894D01*
X129363376Y-33060894D01*
X129821179Y-31573697D01*
X129821179Y-33337500D01*
X130246314Y-33337500D01*
X130758766Y-33337500D01*
X131243894Y-33337500D01*
X131243894Y-32886566D01*
X131755277Y-32886566D01*
X131755277Y-33337500D01*
X131990972Y-33337500D01*
X132575017Y-33337500D01*
X133982772Y-33337500D01*
X134467899Y-33337500D01*
X134467899Y-30854313D01*
X133982772Y-30854313D01*
X133982772Y-33337500D01*
X132575017Y-33337500D01*
X132785688Y-33324005D01*
X132963834Y-33286089D01*
X133114641Y-33226522D01*
X133251246Y-33141142D01*
X133360370Y-33037970D01*
X133445132Y-32915723D01*
X133505153Y-32778548D01*
X133542373Y-32623684D01*
X133555347Y-32447692D01*
X133555347Y-31744120D01*
X133541681Y-31559186D01*
X133502854Y-31400084D01*
X133440858Y-31262504D01*
X133353502Y-31140549D01*
X133243178Y-31039733D01*
X133107009Y-30958574D01*
X132957156Y-30902519D01*
X132781908Y-30866933D01*
X132576696Y-30854313D01*
X132223155Y-30854313D01*
X131755277Y-30854313D01*
X131755277Y-32886566D01*
X131243894Y-32886566D01*
X131243894Y-30854313D01*
X130758766Y-30854313D01*
X130758766Y-33337500D01*
X130246314Y-33337500D01*
X130246314Y-30854313D01*
X129629906Y-30854313D01*
X129156839Y-32527987D01*
X128683771Y-30854313D01*
X128067210Y-30854313D01*
X128067210Y-33337500D01*
X127789432Y-33337500D01*
X127789432Y-30576535D01*
X134745677Y-30576535D01*
X134745677Y-37840923D01*
G37*
G36*
X150253221Y-41693086D02*
G01*
X150303430Y-41715253D01*
X150343597Y-41751510D01*
X150372151Y-41798691D01*
X150390734Y-41860420D01*
X150397575Y-41940799D01*
X150397575Y-41942142D01*
X150390878Y-42011158D01*
X150372471Y-42064895D01*
X150343597Y-42106762D01*
X150304080Y-42138108D01*
X150253895Y-42157707D01*
X150189846Y-42164769D01*
X150126729Y-42157818D01*
X150076988Y-42138480D01*
X150037561Y-42107494D01*
X150008720Y-42066074D01*
X149990300Y-42012575D01*
X149983583Y-41943485D01*
X149983583Y-41942142D01*
X149990368Y-41862682D01*
X150008905Y-41800846D01*
X150037561Y-41752854D01*
X150077795Y-41715713D01*
X150127561Y-41693175D01*
X150189846Y-41685198D01*
X150253221Y-41693086D01*
G37*
G36*
X150994099Y-42747738D02*
G01*
X144369334Y-42747738D01*
X144369334Y-41856046D01*
X144591556Y-41856046D01*
X144591556Y-42200307D01*
X145393527Y-42200307D01*
X145393527Y-42506343D01*
X145767830Y-42506343D01*
X145767830Y-42503656D01*
X146252285Y-42503656D01*
X146610223Y-42503656D01*
X146610223Y-41071472D01*
X147313887Y-42503656D01*
X147774285Y-42503656D01*
X147774285Y-41969375D01*
X148089114Y-41969375D01*
X148103498Y-42082504D01*
X148134215Y-42181496D01*
X148180582Y-42268695D01*
X148242415Y-42345653D01*
X148316647Y-42409116D01*
X148404675Y-42459937D01*
X148500584Y-42495695D01*
X148607047Y-42517837D01*
X148725855Y-42525516D01*
X148847474Y-42517774D01*
X148951774Y-42495886D01*
X149041416Y-42461280D01*
X149122573Y-42411391D01*
X149188513Y-42349327D01*
X149240841Y-42274068D01*
X149277831Y-42189524D01*
X149301048Y-42091603D01*
X149309229Y-41977679D01*
X149309229Y-41924312D01*
X149609281Y-41924312D01*
X149609281Y-41925655D01*
X149610364Y-41942142D01*
X149617503Y-42050867D01*
X149640750Y-42158129D01*
X149677547Y-42250254D01*
X149730401Y-42333250D01*
X149796271Y-42401061D01*
X149876361Y-42455174D01*
X149965885Y-42493204D01*
X150069479Y-42517096D01*
X150189846Y-42525516D01*
X150311167Y-42516991D01*
X150415215Y-42492837D01*
X150504797Y-42454441D01*
X150584833Y-42399850D01*
X150650718Y-42331178D01*
X150703611Y-42246835D01*
X150740438Y-42153365D01*
X150763673Y-42044976D01*
X150771877Y-41918939D01*
X150771877Y-41917473D01*
X150764520Y-41793844D01*
X150743760Y-41687949D01*
X150711061Y-41597149D01*
X150663573Y-41514177D01*
X150604863Y-41447196D01*
X150534229Y-41394305D01*
X150454066Y-41356482D01*
X150361538Y-41332871D01*
X150254082Y-41324574D01*
X150180782Y-41332686D01*
X150573796Y-40518450D01*
X150150279Y-40518450D01*
X149747278Y-41373789D01*
X149728716Y-41413356D01*
X149711741Y-41454389D01*
X149667886Y-41576513D01*
X149635903Y-41696189D01*
X149615718Y-41815190D01*
X149609281Y-41924312D01*
X149309229Y-41924312D01*
X149309229Y-41917473D01*
X149299666Y-41798554D01*
X149272882Y-41700092D01*
X149230582Y-41618276D01*
X149171123Y-41549469D01*
X149098004Y-41499802D01*
X149008566Y-41468066D01*
X149089223Y-41427624D01*
X149154579Y-41376747D01*
X149206647Y-41315048D01*
X149244931Y-41243908D01*
X149268298Y-41164422D01*
X149276378Y-41074591D01*
X149276378Y-41014385D01*
X149266349Y-40891763D01*
X149238170Y-40789629D01*
X149193493Y-40704188D01*
X149132275Y-40632634D01*
X149056873Y-40576180D01*
X148965982Y-40534314D01*
X148856478Y-40507613D01*
X148724389Y-40498056D01*
X148618656Y-40505969D01*
X148521710Y-40529081D01*
X148432031Y-40567055D01*
X148350495Y-40619686D01*
X148279949Y-40686160D01*
X148219539Y-40767822D01*
X148173612Y-40858790D01*
X148140826Y-40962607D01*
X148121964Y-41081430D01*
X148507257Y-41081430D01*
X148524166Y-41015203D01*
X148548168Y-40962606D01*
X148580756Y-40918497D01*
X148618510Y-40887379D01*
X148662302Y-40867910D01*
X148710712Y-40861367D01*
X148781225Y-40874412D01*
X148831612Y-40911315D01*
X148862993Y-40968550D01*
X148874721Y-41052732D01*
X148874721Y-41086803D01*
X148863994Y-41176822D01*
X148835764Y-41237868D01*
X148789288Y-41278023D01*
X148725855Y-41291723D01*
X148557693Y-41291723D01*
X148557693Y-41652470D01*
X148725855Y-41652470D01*
X148781108Y-41659718D01*
X148825014Y-41680193D01*
X148860310Y-41714019D01*
X148894456Y-41784083D01*
X148907449Y-41888775D01*
X148907449Y-41935303D01*
X148900326Y-42005011D01*
X148880630Y-42059698D01*
X148849442Y-42102732D01*
X148807223Y-42134703D01*
X148753482Y-42154815D01*
X148684822Y-42162083D01*
X148629868Y-42156246D01*
X148583705Y-42139612D01*
X148544082Y-42112093D01*
X148511898Y-42074033D01*
X148489311Y-42027556D01*
X148475750Y-41969375D01*
X148089114Y-41969375D01*
X147774285Y-41969375D01*
X147774285Y-40518450D01*
X147416347Y-40518450D01*
X147416347Y-41973052D01*
X146709996Y-40518450D01*
X146252285Y-40518450D01*
X146252285Y-42503656D01*
X145767830Y-42503656D01*
X145767830Y-42200307D01*
X145923534Y-42200307D01*
X145923534Y-41839682D01*
X145767830Y-41839682D01*
X145767830Y-41336908D01*
X145393527Y-41336908D01*
X145393527Y-41839682D01*
X145031437Y-41839682D01*
X145627146Y-40519916D01*
X145203629Y-40519916D01*
X144591556Y-41856046D01*
X144369334Y-41856046D01*
X144369334Y-40275834D01*
X150994099Y-40275834D01*
X150994099Y-42747738D01*
G37*
D10*
X79754819Y-51058458D02*
X79754819Y-50439411D01*
X79754819Y-50439411D02*
X80135771Y-50772744D01*
X80135771Y-50772744D02*
X80135771Y-50629887D01*
X80135771Y-50629887D02*
X80183390Y-50534649D01*
X80183390Y-50534649D02*
X80231009Y-50487030D01*
X80231009Y-50487030D02*
X80326247Y-50439411D01*
X80326247Y-50439411D02*
X80564342Y-50439411D01*
X80564342Y-50439411D02*
X80659580Y-50487030D01*
X80659580Y-50487030D02*
X80707200Y-50534649D01*
X80707200Y-50534649D02*
X80754819Y-50629887D01*
X80754819Y-50629887D02*
X80754819Y-50915601D01*
X80754819Y-50915601D02*
X80707200Y-51010839D01*
X80707200Y-51010839D02*
X80659580Y-51058458D01*
X79754819Y-50153696D02*
X80754819Y-49820363D01*
X80754819Y-49820363D02*
X79754819Y-49487030D01*
X79754819Y-49248934D02*
X79754819Y-48629887D01*
X79754819Y-48629887D02*
X80135771Y-48963220D01*
X80135771Y-48963220D02*
X80135771Y-48820363D01*
X80135771Y-48820363D02*
X80183390Y-48725125D01*
X80183390Y-48725125D02*
X80231009Y-48677506D01*
X80231009Y-48677506D02*
X80326247Y-48629887D01*
X80326247Y-48629887D02*
X80564342Y-48629887D01*
X80564342Y-48629887D02*
X80659580Y-48677506D01*
X80659580Y-48677506D02*
X80707200Y-48725125D01*
X80707200Y-48725125D02*
X80754819Y-48820363D01*
X80754819Y-48820363D02*
X80754819Y-49106077D01*
X80754819Y-49106077D02*
X80707200Y-49201315D01*
X80707200Y-49201315D02*
X80659580Y-49248934D01*
X77818990Y-56836779D02*
X77818990Y-57170112D01*
X77295180Y-57312969D02*
X77295180Y-56836779D01*
X77295180Y-56836779D02*
X78295180Y-56836779D01*
X78295180Y-56836779D02*
X78295180Y-57312969D01*
X78295180Y-57646303D02*
X77295180Y-58312969D01*
X78295180Y-58312969D02*
X77295180Y-57646303D01*
X77295180Y-58693922D02*
X78295180Y-58693922D01*
X78295180Y-58693922D02*
X78295180Y-59074874D01*
X78295180Y-59074874D02*
X78247561Y-59170112D01*
X78247561Y-59170112D02*
X78199942Y-59217731D01*
X78199942Y-59217731D02*
X78104704Y-59265350D01*
X78104704Y-59265350D02*
X77961847Y-59265350D01*
X77961847Y-59265350D02*
X77866609Y-59217731D01*
X77866609Y-59217731D02*
X77818990Y-59170112D01*
X77818990Y-59170112D02*
X77771371Y-59074874D01*
X77771371Y-59074874D02*
X77771371Y-58693922D01*
D13*
G36*
X164828385Y-51783879D02*
G01*
X165543528Y-51783879D01*
X165723498Y-51767250D01*
X165863305Y-51721692D01*
X165971808Y-51650706D01*
X166054293Y-51552593D01*
X166105255Y-51429462D01*
X166123482Y-51273717D01*
X166123482Y-50396641D01*
X166105251Y-50240773D01*
X166054284Y-50117587D01*
X165971808Y-50019469D01*
X165863305Y-49948484D01*
X165723498Y-49902925D01*
X165543528Y-49886296D01*
X164828385Y-49886296D01*
X164828385Y-49345176D01*
X165531255Y-49345176D01*
X165777509Y-49360320D01*
X165987806Y-49403023D01*
X166167629Y-49470289D01*
X166331032Y-49567680D01*
X166463422Y-49688659D01*
X166568249Y-49835005D01*
X166642644Y-50000101D01*
X166689236Y-50191023D01*
X166705635Y-50412944D01*
X166705635Y-51257231D01*
X166690067Y-51468420D01*
X166645403Y-51654258D01*
X166573378Y-51818867D01*
X166471663Y-51965564D01*
X166340714Y-52089370D01*
X166176788Y-52191826D01*
X165995820Y-52263307D01*
X165782045Y-52308806D01*
X165529240Y-52325000D01*
X164828385Y-52325000D01*
X164828385Y-51783879D01*
G37*
G36*
X164545552Y-49345176D02*
G01*
X165107005Y-49345176D01*
X165107005Y-52325000D01*
X164545552Y-52325000D01*
X164545552Y-49345176D01*
G37*
G36*
X169134814Y-49345176D02*
G01*
X169874503Y-49345176D01*
X169874503Y-52325000D01*
X169364341Y-52325000D01*
X169364341Y-50011226D01*
X169384674Y-50142384D01*
X168814978Y-51993073D01*
X168319104Y-51993073D01*
X167749407Y-50183417D01*
X167769923Y-50011226D01*
X167769923Y-52325000D01*
X167259578Y-52325000D01*
X167259578Y-49345176D01*
X167999451Y-49345176D01*
X168567132Y-51353585D01*
X169134814Y-49345176D01*
G37*
G36*
X172405714Y-49345176D02*
G01*
X173145403Y-49345176D01*
X173145403Y-52325000D01*
X172635241Y-52325000D01*
X172635241Y-50011226D01*
X172655574Y-50142384D01*
X172085878Y-51993073D01*
X171590004Y-51993073D01*
X171020307Y-50183417D01*
X171040824Y-50011226D01*
X171040824Y-52325000D01*
X170530478Y-52325000D01*
X170530478Y-49345176D01*
X171270351Y-49345176D01*
X171838032Y-51353585D01*
X172405714Y-49345176D01*
G37*
G36*
X173801378Y-49345176D02*
G01*
X174362832Y-49345176D01*
X174362832Y-52325000D01*
X173801378Y-52325000D01*
X173801378Y-49345176D01*
G37*
G36*
X174004344Y-51783879D02*
G01*
X175797514Y-51783879D01*
X175797514Y-52325000D01*
X174004344Y-52325000D01*
X174004344Y-51783879D01*
G37*
G36*
X174004344Y-50574877D02*
G01*
X175572017Y-50574877D01*
X175572017Y-51115814D01*
X174004344Y-51115814D01*
X174004344Y-50574877D01*
G37*
G36*
X174004344Y-49345176D02*
G01*
X175797514Y-49345176D01*
X175797514Y-49886296D01*
X174004344Y-49886296D01*
X174004344Y-49345176D01*
G37*
G36*
X158902626Y-55625136D02*
G01*
X159939620Y-55625136D01*
X160021466Y-55614122D01*
X160091294Y-55582088D01*
X160148757Y-55530677D01*
X160192777Y-55459173D01*
X160219791Y-55375041D01*
X160230696Y-55274708D01*
X160221316Y-55174242D01*
X160194792Y-55090244D01*
X160150772Y-55018739D01*
X160093309Y-54967329D01*
X160023213Y-54935358D01*
X159939620Y-54924281D01*
X158902626Y-54924281D01*
X158902626Y-54383161D01*
X159984682Y-54383161D01*
X160145630Y-54396041D01*
X160288758Y-54433240D01*
X160417175Y-54493803D01*
X160531710Y-54577306D01*
X160627575Y-54680728D01*
X160706054Y-54806311D01*
X160761894Y-54944346D01*
X160796563Y-55099445D01*
X160808636Y-55274708D01*
X160796565Y-55449848D01*
X160761899Y-55604889D01*
X160706054Y-55742922D01*
X160627511Y-55868426D01*
X160531298Y-55971857D01*
X160416076Y-56055430D01*
X160287102Y-56116091D01*
X160144291Y-56153243D01*
X159984682Y-56166072D01*
X158902626Y-56166072D01*
X158902626Y-55625136D01*
G37*
G36*
X158679327Y-54383161D02*
G01*
X159240780Y-54383161D01*
X159240780Y-57365000D01*
X158679327Y-57365000D01*
X158679327Y-54383161D01*
G37*
G36*
X159529841Y-56073932D02*
G01*
X160130312Y-55979593D01*
X160933566Y-57365000D01*
X160253227Y-57365000D01*
X159529841Y-56073932D01*
G37*
G36*
X161672889Y-55668183D02*
G01*
X162625986Y-55668183D01*
X162721718Y-55656313D01*
X162803123Y-55622021D01*
X162871217Y-55566826D01*
X162923107Y-55491962D01*
X162955016Y-55403417D01*
X162966155Y-55299255D01*
X162955214Y-55193151D01*
X162924023Y-55103616D01*
X162872901Y-55027767D01*
X162805138Y-54972458D01*
X162723469Y-54938225D01*
X162625986Y-54926296D01*
X161672889Y-54926296D01*
X161672889Y-54385176D01*
X162611514Y-54385176D01*
X162794525Y-54398498D01*
X162957073Y-54436860D01*
X163102442Y-54498932D01*
X163233858Y-54585614D01*
X163342783Y-54691957D01*
X163431254Y-54819684D01*
X163495124Y-54961878D01*
X163534478Y-55120626D01*
X163548124Y-55299255D01*
X163534462Y-55477876D01*
X163495095Y-55636300D01*
X163431254Y-55777909D01*
X163342812Y-55904869D01*
X163233897Y-56010486D01*
X163102442Y-56096463D01*
X162957135Y-56157915D01*
X162794581Y-56195919D01*
X162611514Y-56209120D01*
X161672889Y-56209120D01*
X161672889Y-55668183D01*
G37*
G36*
X161416800Y-54385176D02*
G01*
X161978254Y-54385176D01*
X161978254Y-57365000D01*
X161416800Y-57365000D01*
X161416800Y-54385176D01*
G37*
G36*
X163924564Y-56858867D02*
G01*
X164947270Y-55514494D01*
X165009659Y-55421733D01*
X165054798Y-55328930D01*
X165083766Y-55234462D01*
X165092716Y-55151610D01*
X165092716Y-55147580D01*
X165072357Y-55038395D01*
X165014864Y-54961100D01*
X164925557Y-54913423D01*
X164793580Y-54895521D01*
X164704586Y-54906160D01*
X164630571Y-54936555D01*
X164568083Y-54986746D01*
X164520237Y-55052424D01*
X164484947Y-55137256D01*
X164463669Y-55245949D01*
X164463669Y-55247964D01*
X163887744Y-55247964D01*
X163887744Y-55245949D01*
X163912024Y-55063277D01*
X163957276Y-54904650D01*
X164022017Y-54766561D01*
X164109058Y-54642175D01*
X164212757Y-54540725D01*
X164334525Y-54460097D01*
X164469345Y-54402508D01*
X164619951Y-54366933D01*
X164789367Y-54354584D01*
X164973574Y-54365630D01*
X165131056Y-54396778D01*
X165265823Y-54445809D01*
X165388929Y-54516959D01*
X165488456Y-54605007D01*
X165567158Y-54711057D01*
X165623272Y-54831232D01*
X165658330Y-54970030D01*
X165670656Y-55131277D01*
X165670656Y-55133292D01*
X165653168Y-55334261D01*
X165599948Y-55535926D01*
X165514785Y-55726936D01*
X165402111Y-55897711D01*
X164668466Y-56823879D01*
X165687142Y-56823879D01*
X165687142Y-57365000D01*
X163924564Y-57365000D01*
X163924564Y-56858867D01*
G37*
G36*
X167249063Y-54364257D02*
G01*
X167428174Y-54408422D01*
X167574625Y-54477254D01*
X167694086Y-54569640D01*
X167790469Y-54686798D01*
X167861072Y-54826715D01*
X167905703Y-54993975D01*
X167921598Y-55194658D01*
X167921598Y-56549289D01*
X167905686Y-56748771D01*
X167860936Y-56915571D01*
X167790005Y-57055625D01*
X167692987Y-57173391D01*
X167573001Y-57266392D01*
X167426464Y-57335554D01*
X167247842Y-57379849D01*
X167030051Y-57395774D01*
X166811262Y-57379685D01*
X166632220Y-57334968D01*
X166485684Y-57265191D01*
X166366015Y-57171376D01*
X166269270Y-57052690D01*
X166198681Y-56912515D01*
X166154259Y-56746600D01*
X166138503Y-56549289D01*
X166138503Y-55338272D01*
X166700140Y-55338272D01*
X166700140Y-56405858D01*
X166710491Y-56549132D01*
X166738265Y-56657622D01*
X166780007Y-56738883D01*
X166841446Y-56801896D01*
X166922613Y-56840653D01*
X167030051Y-56854654D01*
X167137488Y-56840653D01*
X167218655Y-56801896D01*
X167280094Y-56738883D01*
X167321836Y-56657622D01*
X167349610Y-56549132D01*
X167359962Y-56405858D01*
X167359962Y-55338272D01*
X167349610Y-55194998D01*
X167321836Y-55086508D01*
X167280094Y-55005247D01*
X167218640Y-54942124D01*
X167137472Y-54903311D01*
X167030051Y-54889293D01*
X166922629Y-54903311D01*
X166841461Y-54942124D01*
X166780007Y-55005247D01*
X166738265Y-55086508D01*
X166710491Y-55194998D01*
X166700140Y-55338272D01*
X166138503Y-55338272D01*
X166138503Y-55194658D01*
X166154401Y-54995263D01*
X166199116Y-54828519D01*
X166269990Y-54688495D01*
X166366931Y-54570739D01*
X166487004Y-54477731D01*
X166633607Y-54408570D01*
X166812264Y-54364278D01*
X167030051Y-54348356D01*
X167249063Y-54364257D01*
G37*
G36*
X168413076Y-56391570D02*
G01*
X169331185Y-54387374D01*
X169966460Y-54387374D01*
X169072898Y-56367023D01*
X170411043Y-56367023D01*
X170411043Y-56907960D01*
X168413076Y-56907960D01*
X168413076Y-56391570D01*
G37*
G36*
X169616033Y-55612862D02*
G01*
X170177486Y-55612862D01*
X170177486Y-57367015D01*
X169616033Y-57367015D01*
X169616033Y-55612862D01*
G37*
G36*
X171953180Y-54364257D02*
G01*
X172132291Y-54408422D01*
X172278742Y-54477254D01*
X172398203Y-54569640D01*
X172494586Y-54686798D01*
X172565189Y-54826715D01*
X172609820Y-54993975D01*
X172625715Y-55194658D01*
X172625715Y-56549289D01*
X172609803Y-56748771D01*
X172565053Y-56915571D01*
X172494122Y-57055625D01*
X172397104Y-57173391D01*
X172277118Y-57266392D01*
X172130581Y-57335554D01*
X171951959Y-57379849D01*
X171734168Y-57395774D01*
X171515379Y-57379685D01*
X171336338Y-57334968D01*
X171189802Y-57265191D01*
X171070133Y-57171376D01*
X170973387Y-57052690D01*
X170902798Y-56912515D01*
X170858376Y-56746600D01*
X170842620Y-56549289D01*
X170842620Y-55338272D01*
X171404257Y-55338272D01*
X171404257Y-56405858D01*
X171414608Y-56549132D01*
X171442383Y-56657622D01*
X171484124Y-56738883D01*
X171545564Y-56801896D01*
X171626730Y-56840653D01*
X171734168Y-56854654D01*
X171841606Y-56840653D01*
X171922772Y-56801896D01*
X171984211Y-56738883D01*
X172025953Y-56657622D01*
X172053727Y-56549132D01*
X172064079Y-56405858D01*
X172064079Y-55338272D01*
X172053727Y-55194998D01*
X172025953Y-55086508D01*
X171984211Y-55005247D01*
X171922757Y-54942124D01*
X171841589Y-54903311D01*
X171734168Y-54889293D01*
X171626746Y-54903311D01*
X171545578Y-54942124D01*
X171484124Y-55005247D01*
X171442383Y-55086508D01*
X171414608Y-55194998D01*
X171404257Y-55338272D01*
X170842620Y-55338272D01*
X170842620Y-55194658D01*
X170858519Y-54995263D01*
X170903233Y-54828519D01*
X170974108Y-54688495D01*
X171071048Y-54570739D01*
X171191121Y-54477731D01*
X171337724Y-54408570D01*
X171516382Y-54364278D01*
X171734168Y-54348356D01*
X171953180Y-54364257D01*
G37*
G36*
X174627896Y-56823879D02*
G01*
X175343039Y-56823879D01*
X175523009Y-56807250D01*
X175662817Y-56761692D01*
X175771319Y-56690706D01*
X175853804Y-56592593D01*
X175904767Y-56469462D01*
X175922994Y-56313717D01*
X175922994Y-55436641D01*
X175904762Y-55280773D01*
X175853795Y-55157587D01*
X175771319Y-55059469D01*
X175662817Y-54988484D01*
X175523009Y-54942925D01*
X175343039Y-54926296D01*
X174627896Y-54926296D01*
X174627896Y-54385176D01*
X175330766Y-54385176D01*
X175577020Y-54400320D01*
X175787318Y-54443023D01*
X175967141Y-54510289D01*
X176130544Y-54607680D01*
X176262933Y-54728659D01*
X176367760Y-54875005D01*
X176442155Y-55040101D01*
X176488747Y-55231023D01*
X176505146Y-55452944D01*
X176505146Y-56297231D01*
X176489578Y-56508420D01*
X176444914Y-56694258D01*
X176372889Y-56858867D01*
X176271174Y-57005564D01*
X176140225Y-57129370D01*
X175976300Y-57231826D01*
X175795331Y-57303307D01*
X175581556Y-57348806D01*
X175328751Y-57365000D01*
X174627896Y-57365000D01*
X174627896Y-56823879D01*
G37*
G36*
X174345063Y-54385176D02*
G01*
X174906516Y-54385176D01*
X174906516Y-57365000D01*
X174345063Y-57365000D01*
X174345063Y-54385176D01*
G37*
G36*
X177954667Y-57395774D02*
G01*
X177743205Y-57384953D01*
X177537561Y-57352726D01*
X177338588Y-57299291D01*
X177154344Y-57226697D01*
X176983040Y-57134340D01*
X176833592Y-57026845D01*
X177093894Y-56563761D01*
X177277766Y-56688177D01*
X177491399Y-56782114D01*
X177720015Y-56839687D01*
X177954667Y-56858867D01*
X178136309Y-56846803D01*
X178275464Y-56814346D01*
X178380932Y-56765628D01*
X178466421Y-56693469D01*
X178515690Y-56607297D01*
X178532606Y-56502212D01*
X178532606Y-56500197D01*
X178514761Y-56391165D01*
X178464829Y-56311702D01*
X178388681Y-56252159D01*
X178288608Y-56209120D01*
X178009988Y-56149769D01*
X177998630Y-56147754D01*
X177987456Y-56145556D01*
X177942394Y-56139511D01*
X177656713Y-56083646D01*
X177446336Y-56021725D01*
X177322803Y-55963358D01*
X177211926Y-55881439D01*
X177112212Y-55773696D01*
X177039766Y-55648144D01*
X176992447Y-55483974D01*
X176975009Y-55270495D01*
X176975009Y-55268480D01*
X176990305Y-55079578D01*
X177033940Y-54916478D01*
X177104152Y-54774621D01*
X177201675Y-54650379D01*
X177325412Y-54546523D01*
X177479126Y-54462112D01*
X177646525Y-54404446D01*
X177842991Y-54367662D01*
X178073552Y-54354584D01*
X178233755Y-54363636D01*
X178400349Y-54391404D01*
X178565212Y-54436347D01*
X178727146Y-54498016D01*
X178882993Y-54574843D01*
X179030495Y-54665994D01*
X178792725Y-55141535D01*
X178615719Y-55035410D01*
X178433138Y-54957070D01*
X178246225Y-54907302D01*
X178073552Y-54891491D01*
X177902472Y-54902544D01*
X177772060Y-54932189D01*
X177673849Y-54976488D01*
X177593834Y-55042457D01*
X177548064Y-55120572D01*
X177532432Y-55215174D01*
X177532432Y-55217189D01*
X177551887Y-55335495D01*
X177606254Y-55421254D01*
X177687826Y-55485463D01*
X177788521Y-55530797D01*
X178093885Y-55604619D01*
X178110372Y-55607733D01*
X178126675Y-55610664D01*
X178150305Y-55615976D01*
X178173936Y-55620922D01*
X178443954Y-55685173D01*
X178646179Y-55755195D01*
X178764959Y-55818091D01*
X178870077Y-55902195D01*
X178962901Y-56009452D01*
X179030396Y-56132546D01*
X179074087Y-56289153D01*
X179090030Y-56487923D01*
X179090030Y-56491953D01*
X179074314Y-56677875D01*
X179029354Y-56838975D01*
X178956673Y-56979767D01*
X178856490Y-57102146D01*
X178728474Y-57205070D01*
X178568327Y-57289162D01*
X178395107Y-57346328D01*
X178192216Y-57382809D01*
X177954667Y-57395774D01*
G37*
G36*
X179818179Y-55668183D02*
G01*
X180771275Y-55668183D01*
X180867007Y-55656313D01*
X180948412Y-55622021D01*
X181016507Y-55566826D01*
X181068397Y-55491962D01*
X181100305Y-55403417D01*
X181111444Y-55299255D01*
X181100504Y-55193151D01*
X181069313Y-55103616D01*
X181018190Y-55027767D01*
X180950427Y-54972458D01*
X180868759Y-54938225D01*
X180771275Y-54926296D01*
X179818179Y-54926296D01*
X179818179Y-54385176D01*
X180756804Y-54385176D01*
X180939815Y-54398498D01*
X181102363Y-54436860D01*
X181247732Y-54498932D01*
X181379147Y-54585614D01*
X181488072Y-54691957D01*
X181576544Y-54819684D01*
X181640414Y-54961878D01*
X181679767Y-55120626D01*
X181693414Y-55299255D01*
X181679751Y-55477876D01*
X181640385Y-55636300D01*
X181576544Y-55777909D01*
X181488101Y-55904869D01*
X181379187Y-56010486D01*
X181247732Y-56096463D01*
X181102424Y-56157915D01*
X180939871Y-56195919D01*
X180756804Y-56209120D01*
X179818179Y-56209120D01*
X179818179Y-55668183D01*
G37*
G36*
X179562090Y-54385176D02*
G01*
X180123543Y-54385176D01*
X180123543Y-57365000D01*
X179562090Y-57365000D01*
X179562090Y-54385176D01*
G37*
D12*
G36*
X69915939Y-37410649D02*
G01*
X70017250Y-37450584D01*
X70101870Y-37515468D01*
X70165017Y-37603388D01*
X70203565Y-37707913D01*
X70217071Y-37832213D01*
X70217071Y-38559752D01*
X70203574Y-38683941D01*
X70165017Y-38788577D01*
X70101870Y-38876497D01*
X70017250Y-38941381D01*
X69915948Y-38981200D01*
X69795294Y-38995115D01*
X69674618Y-38981205D01*
X69573186Y-38941381D01*
X69488691Y-38876509D01*
X69425572Y-38788577D01*
X69387015Y-38683941D01*
X69373518Y-38559752D01*
X69373518Y-37832213D01*
X69387023Y-37707913D01*
X69425572Y-37603388D01*
X69488691Y-37515456D01*
X69573186Y-37450584D01*
X69674628Y-37410645D01*
X69795294Y-37396698D01*
X69915939Y-37410649D01*
G37*
G36*
X71894305Y-33210649D02*
G01*
X71995616Y-33250584D01*
X72080237Y-33315468D01*
X72143383Y-33403388D01*
X72181932Y-33507913D01*
X72195438Y-33632213D01*
X72195438Y-34359752D01*
X72181940Y-34483941D01*
X72143383Y-34588577D01*
X72080237Y-34676497D01*
X71995616Y-34741381D01*
X71894314Y-34781200D01*
X71773661Y-34795115D01*
X71652985Y-34781205D01*
X71551552Y-34741381D01*
X71467058Y-34676509D01*
X71403938Y-34588577D01*
X71365382Y-34483941D01*
X71351884Y-34359752D01*
X71351884Y-33632213D01*
X71365390Y-33507913D01*
X71403938Y-33403388D01*
X71467058Y-33315456D01*
X71551552Y-33250584D01*
X71652994Y-33210645D01*
X71773661Y-33196698D01*
X71894305Y-33210649D01*
G37*
G36*
X75180648Y-39740923D02*
G01*
X68364231Y-39740923D01*
X68364231Y-37844120D01*
X68888390Y-37844120D01*
X68888390Y-38547692D01*
X68901579Y-38726994D01*
X68939562Y-38886193D01*
X69001047Y-39028545D01*
X69086938Y-39156851D01*
X69192527Y-39263218D01*
X69319631Y-39349572D01*
X69460825Y-39411624D01*
X69618309Y-39449880D01*
X69795294Y-39463145D01*
X69972280Y-39449880D01*
X70129764Y-39411624D01*
X70270957Y-39349572D01*
X70398051Y-39263212D01*
X70503588Y-39156846D01*
X70589389Y-39028545D01*
X70650960Y-38886185D01*
X70688993Y-38726987D01*
X70702199Y-38547692D01*
X70702199Y-38539144D01*
X71096346Y-38539144D01*
X71109083Y-38731509D01*
X71145138Y-38896628D01*
X71202286Y-39038773D01*
X71284199Y-39166691D01*
X71386585Y-39271272D01*
X71511406Y-39354762D01*
X71650813Y-39413282D01*
X71812762Y-39450134D01*
X72001571Y-39463145D01*
X72190274Y-39450152D01*
X72352506Y-39413316D01*
X72492499Y-39354762D01*
X72617950Y-39271242D01*
X72720889Y-39166651D01*
X72803298Y-39038773D01*
X72860871Y-38896582D01*
X72897178Y-38731466D01*
X72910001Y-38539144D01*
X72910001Y-37405246D01*
X73082498Y-37405246D01*
X73758745Y-37405246D01*
X73758745Y-39437500D01*
X74226623Y-39437500D01*
X74226623Y-37405246D01*
X74902870Y-37405246D01*
X74902870Y-36954313D01*
X73082498Y-36954313D01*
X73082498Y-37405246D01*
X72910001Y-37405246D01*
X72910001Y-36954313D01*
X72442124Y-36954313D01*
X72442124Y-38551203D01*
X72427987Y-38688962D01*
X72388873Y-38797171D01*
X72326872Y-38882458D01*
X72243033Y-38946016D01*
X72136792Y-38985915D01*
X72001571Y-39000305D01*
X71867503Y-38985937D01*
X71762050Y-38946063D01*
X71678712Y-38882458D01*
X71617241Y-38797243D01*
X71578416Y-38689035D01*
X71564376Y-38551203D01*
X71564376Y-36954313D01*
X71096346Y-36954313D01*
X71096346Y-38539144D01*
X70702199Y-38539144D01*
X70702199Y-37844120D01*
X70688990Y-37664827D01*
X70650956Y-37505683D01*
X70589389Y-37363420D01*
X70503573Y-37235033D01*
X70398035Y-37128672D01*
X70270957Y-37042393D01*
X70129764Y-36980341D01*
X69972280Y-36942085D01*
X69795294Y-36928820D01*
X69618309Y-36942085D01*
X69460825Y-36980341D01*
X69319631Y-37042393D01*
X69192543Y-37128666D01*
X69086953Y-37235028D01*
X69001047Y-37363420D01*
X68939567Y-37505674D01*
X68901582Y-37664819D01*
X68889266Y-37832213D01*
X68888390Y-37844120D01*
X68364231Y-37844120D01*
X68364231Y-32754313D01*
X68642009Y-32754313D01*
X69468619Y-35237500D01*
X69834067Y-35237500D01*
X70364476Y-33644120D01*
X70866757Y-33644120D01*
X70866757Y-34347692D01*
X70879945Y-34526994D01*
X70917928Y-34686193D01*
X70979414Y-34828545D01*
X71065304Y-34956851D01*
X71170894Y-35063218D01*
X71297998Y-35149572D01*
X71439191Y-35211624D01*
X71596675Y-35249880D01*
X71773661Y-35263145D01*
X71950646Y-35249880D01*
X72001609Y-35237500D01*
X73143100Y-35237500D01*
X73351470Y-35237500D01*
X74806546Y-35237500D01*
X74806546Y-34786566D01*
X73610978Y-34786566D01*
X73610978Y-32754313D01*
X73143100Y-32754313D01*
X73143100Y-35237500D01*
X72001609Y-35237500D01*
X72108130Y-35211624D01*
X72249324Y-35149572D01*
X72376417Y-35063212D01*
X72481954Y-34956846D01*
X72567755Y-34828545D01*
X72629327Y-34686185D01*
X72667359Y-34526987D01*
X72680565Y-34347692D01*
X72680565Y-33644120D01*
X72667357Y-33464827D01*
X72629322Y-33305683D01*
X72567755Y-33163420D01*
X72481939Y-33035033D01*
X72376402Y-32928672D01*
X72249324Y-32842393D01*
X72108130Y-32780341D01*
X71950646Y-32742085D01*
X71773661Y-32728820D01*
X71596675Y-32742085D01*
X71439191Y-32780341D01*
X71297998Y-32842393D01*
X71170909Y-32928666D01*
X71065319Y-33035028D01*
X70979414Y-33163420D01*
X70917933Y-33305674D01*
X70879948Y-33464819D01*
X70867633Y-33632213D01*
X70866757Y-33644120D01*
X70364476Y-33644120D01*
X70660677Y-32754313D01*
X70179060Y-32754313D01*
X69651343Y-34410890D01*
X69123626Y-32754313D01*
X68642009Y-32754313D01*
X68364231Y-32754313D01*
X68364231Y-32451042D01*
X75180648Y-32451042D01*
X75180648Y-39740923D01*
G37*
D10*
X70740476Y-40504819D02*
X71407142Y-41504819D01*
X71407142Y-40504819D02*
X70740476Y-41504819D01*
X72264285Y-40504819D02*
X71788095Y-40504819D01*
X71788095Y-40504819D02*
X71740476Y-40981009D01*
X71740476Y-40981009D02*
X71788095Y-40933390D01*
X71788095Y-40933390D02*
X71883333Y-40885771D01*
X71883333Y-40885771D02*
X72121428Y-40885771D01*
X72121428Y-40885771D02*
X72216666Y-40933390D01*
X72216666Y-40933390D02*
X72264285Y-40981009D01*
X72264285Y-40981009D02*
X72311904Y-41076247D01*
X72311904Y-41076247D02*
X72311904Y-41314342D01*
X72311904Y-41314342D02*
X72264285Y-41409580D01*
X72264285Y-41409580D02*
X72216666Y-41457200D01*
X72216666Y-41457200D02*
X72121428Y-41504819D01*
X72121428Y-41504819D02*
X71883333Y-41504819D01*
X71883333Y-41504819D02*
X71788095Y-41457200D01*
X71788095Y-41457200D02*
X71740476Y-41409580D01*
D12*
X193300000Y-29800000D02*
X189299998Y-29800000D01*
X191299999Y-26800000D01*
X193300000Y-29800000D01*
G36*
X193300000Y-29800000D02*
G01*
X189299998Y-29800000D01*
X191299999Y-26800000D01*
X193300000Y-29800000D01*
G37*
X166300000Y-29800000D02*
X164299999Y-26800000D01*
X168300001Y-26800000D01*
X166300000Y-29800000D01*
G36*
X166300000Y-29800000D02*
G01*
X164299999Y-26800000D01*
X168300001Y-26800000D01*
X166300000Y-29800000D01*
G37*
X111300001Y-29800000D02*
X109300000Y-26800000D01*
X113300002Y-26800000D01*
X111300001Y-29800000D01*
G36*
X111300001Y-29800000D02*
G01*
X109300000Y-26800000D01*
X113300002Y-26800000D01*
X111300001Y-29800000D01*
G37*
D10*
X88304819Y-50587030D02*
X88304819Y-51063220D01*
X88304819Y-51063220D02*
X87304819Y-51063220D01*
X88400057Y-50491792D02*
X88400057Y-49729887D01*
X87304819Y-49301315D02*
X87304819Y-49110839D01*
X87304819Y-49110839D02*
X87352438Y-49015601D01*
X87352438Y-49015601D02*
X87447676Y-48920363D01*
X87447676Y-48920363D02*
X87638152Y-48872744D01*
X87638152Y-48872744D02*
X87971485Y-48872744D01*
X87971485Y-48872744D02*
X88161961Y-48920363D01*
X88161961Y-48920363D02*
X88257200Y-49015601D01*
X88257200Y-49015601D02*
X88304819Y-49110839D01*
X88304819Y-49110839D02*
X88304819Y-49301315D01*
X88304819Y-49301315D02*
X88257200Y-49396553D01*
X88257200Y-49396553D02*
X88161961Y-49491791D01*
X88161961Y-49491791D02*
X87971485Y-49539410D01*
X87971485Y-49539410D02*
X87638152Y-49539410D01*
X87638152Y-49539410D02*
X87447676Y-49491791D01*
X87447676Y-49491791D02*
X87352438Y-49396553D01*
X87352438Y-49396553D02*
X87304819Y-49301315D01*
X87304819Y-48444172D02*
X88114342Y-48444172D01*
X88114342Y-48444172D02*
X88209580Y-48396553D01*
X88209580Y-48396553D02*
X88257200Y-48348934D01*
X88257200Y-48348934D02*
X88304819Y-48253696D01*
X88304819Y-48253696D02*
X88304819Y-48063220D01*
X88304819Y-48063220D02*
X88257200Y-47967982D01*
X88257200Y-47967982D02*
X88209580Y-47920363D01*
X88209580Y-47920363D02*
X88114342Y-47872744D01*
X88114342Y-47872744D02*
X87304819Y-47872744D01*
X87304819Y-47539410D02*
X87304819Y-46967982D01*
X88304819Y-47253696D02*
X87304819Y-47253696D01*
X90500000Y-57600000D02*
X90500000Y-56900000D01*
D12*
G36*
X189865939Y-35510649D02*
G01*
X189967250Y-35550584D01*
X190051870Y-35615468D01*
X190115017Y-35703388D01*
X190153565Y-35807913D01*
X190167071Y-35932213D01*
X190167071Y-36659752D01*
X190153574Y-36783941D01*
X190115017Y-36888577D01*
X190051870Y-36976497D01*
X189967250Y-37041381D01*
X189865948Y-37081200D01*
X189745294Y-37095115D01*
X189624618Y-37081205D01*
X189523186Y-37041381D01*
X189438691Y-36976509D01*
X189375572Y-36888577D01*
X189337015Y-36783941D01*
X189323518Y-36659752D01*
X189323518Y-35932213D01*
X189337023Y-35807913D01*
X189375572Y-35703388D01*
X189438691Y-35615456D01*
X189523186Y-35550584D01*
X189624628Y-35510645D01*
X189745294Y-35496698D01*
X189865939Y-35510649D01*
G37*
G36*
X195625185Y-31310649D02*
G01*
X195726496Y-31350584D01*
X195811116Y-31415468D01*
X195874263Y-31503388D01*
X195912812Y-31607913D01*
X195926317Y-31732213D01*
X195926317Y-32459752D01*
X195912820Y-32583941D01*
X195874263Y-32688577D01*
X195811116Y-32776497D01*
X195726496Y-32841381D01*
X195625194Y-32881200D01*
X195504541Y-32895115D01*
X195383865Y-32881205D01*
X195282432Y-32841381D01*
X195197937Y-32776509D01*
X195134818Y-32688577D01*
X195096261Y-32583941D01*
X195082764Y-32459752D01*
X195082764Y-31732213D01*
X195096269Y-31607913D01*
X195134818Y-31503388D01*
X195197937Y-31415456D01*
X195282432Y-31350584D01*
X195383874Y-31310645D01*
X195504541Y-31296698D01*
X195625185Y-31310649D01*
G37*
G36*
X188194211Y-32488756D02*
G01*
X187600449Y-32488756D01*
X187897292Y-31641691D01*
X188194211Y-32488756D01*
G37*
G36*
X192406544Y-31319104D02*
G01*
X192523050Y-31357070D01*
X192613468Y-31416224D01*
X192682199Y-31497989D01*
X192724671Y-31600644D01*
X192739864Y-31730534D01*
X192739864Y-32461431D01*
X192724675Y-32591218D01*
X192682206Y-32693827D01*
X192613468Y-32775588D01*
X192523050Y-32834743D01*
X192406544Y-32872708D01*
X192256569Y-32886566D01*
X191892799Y-32886566D01*
X191892799Y-31305246D01*
X192256569Y-31305246D01*
X192406544Y-31319104D01*
G37*
G36*
X196689223Y-37840923D02*
G01*
X186521489Y-37840923D01*
X186521489Y-35944120D01*
X188838390Y-35944120D01*
X188838390Y-36647692D01*
X188851579Y-36826994D01*
X188889562Y-36986193D01*
X188951047Y-37128545D01*
X189036938Y-37256851D01*
X189142527Y-37363218D01*
X189269631Y-37449572D01*
X189410825Y-37511624D01*
X189568309Y-37549880D01*
X189745294Y-37563145D01*
X189922280Y-37549880D01*
X190079764Y-37511624D01*
X190220957Y-37449572D01*
X190348051Y-37363212D01*
X190453588Y-37256846D01*
X190539389Y-37128545D01*
X190600960Y-36986185D01*
X190638993Y-36826987D01*
X190652199Y-36647692D01*
X190652199Y-36639144D01*
X191046346Y-36639144D01*
X191059083Y-36831509D01*
X191095138Y-36996628D01*
X191152286Y-37138773D01*
X191234199Y-37266691D01*
X191336585Y-37371272D01*
X191461406Y-37454762D01*
X191600813Y-37513282D01*
X191762762Y-37550134D01*
X191951571Y-37563145D01*
X192140274Y-37550152D01*
X192302506Y-37513316D01*
X192442499Y-37454762D01*
X192567950Y-37371242D01*
X192670889Y-37266651D01*
X192753298Y-37138773D01*
X192810871Y-36996582D01*
X192847178Y-36831466D01*
X192860001Y-36639144D01*
X192860001Y-35505246D01*
X193032498Y-35505246D01*
X193708745Y-35505246D01*
X193708745Y-37537500D01*
X194176623Y-37537500D01*
X194176623Y-35505246D01*
X194852870Y-35505246D01*
X194852870Y-35054313D01*
X193032498Y-35054313D01*
X193032498Y-35505246D01*
X192860001Y-35505246D01*
X192860001Y-35054313D01*
X192392124Y-35054313D01*
X192392124Y-36651203D01*
X192377987Y-36788962D01*
X192338873Y-36897171D01*
X192276872Y-36982458D01*
X192193033Y-37046016D01*
X192086792Y-37085915D01*
X191951571Y-37100305D01*
X191817503Y-37085937D01*
X191712050Y-37046063D01*
X191628712Y-36982458D01*
X191567241Y-36897243D01*
X191528416Y-36789035D01*
X191514376Y-36651203D01*
X191514376Y-35054313D01*
X191046346Y-35054313D01*
X191046346Y-36639144D01*
X190652199Y-36639144D01*
X190652199Y-35944120D01*
X190638990Y-35764827D01*
X190600956Y-35605683D01*
X190539389Y-35463420D01*
X190453573Y-35335033D01*
X190348035Y-35228672D01*
X190220957Y-35142393D01*
X190079764Y-35080341D01*
X189922280Y-35042085D01*
X189745294Y-35028820D01*
X189568309Y-35042085D01*
X189410825Y-35080341D01*
X189269631Y-35142393D01*
X189142543Y-35228666D01*
X189036953Y-35335028D01*
X188951047Y-35463420D01*
X188889567Y-35605674D01*
X188851582Y-35764819D01*
X188839266Y-35932213D01*
X188838390Y-35944120D01*
X186521489Y-35944120D01*
X186521489Y-33337500D01*
X186799267Y-33337500D01*
X187303018Y-33337500D01*
X187442479Y-32939536D01*
X188352221Y-32939536D01*
X188491718Y-33337500D01*
X188995469Y-33337500D01*
X188651965Y-32439144D01*
X189131481Y-32439144D01*
X189144219Y-32631509D01*
X189180274Y-32796628D01*
X189237422Y-32938773D01*
X189319334Y-33066691D01*
X189421721Y-33171272D01*
X189546542Y-33254762D01*
X189685949Y-33313282D01*
X189847898Y-33350134D01*
X190036706Y-33363145D01*
X190225410Y-33350152D01*
X190387642Y-33313316D01*
X190527635Y-33254762D01*
X190653086Y-33171242D01*
X190756024Y-33066651D01*
X190838434Y-32938773D01*
X190859573Y-32886566D01*
X191424922Y-32886566D01*
X191424922Y-33337500D01*
X191660616Y-33337500D01*
X192244662Y-33337500D01*
X193652416Y-33337500D01*
X194137544Y-33337500D01*
X194137544Y-31744120D01*
X194597636Y-31744120D01*
X194597636Y-32447692D01*
X194610825Y-32626994D01*
X194648808Y-32786193D01*
X194710293Y-32928545D01*
X194796184Y-33056851D01*
X194901773Y-33163218D01*
X195028878Y-33249572D01*
X195170071Y-33311624D01*
X195327555Y-33349880D01*
X195504541Y-33363145D01*
X195681526Y-33349880D01*
X195839010Y-33311624D01*
X195980203Y-33249572D01*
X196107297Y-33163212D01*
X196212834Y-33056846D01*
X196298635Y-32928545D01*
X196360206Y-32786185D01*
X196398239Y-32626987D01*
X196411445Y-32447692D01*
X196411445Y-31744120D01*
X196398237Y-31564827D01*
X196360202Y-31405683D01*
X196298635Y-31263420D01*
X196212819Y-31135033D01*
X196107281Y-31028672D01*
X195980203Y-30942393D01*
X195839010Y-30880341D01*
X195681526Y-30842085D01*
X195504541Y-30828820D01*
X195327555Y-30842085D01*
X195170071Y-30880341D01*
X195028878Y-30942393D01*
X194901789Y-31028666D01*
X194796199Y-31135028D01*
X194710293Y-31263420D01*
X194648813Y-31405674D01*
X194610828Y-31564819D01*
X194598512Y-31732213D01*
X194597636Y-31744120D01*
X194137544Y-31744120D01*
X194137544Y-30854313D01*
X193652416Y-30854313D01*
X193652416Y-33337500D01*
X192244662Y-33337500D01*
X192455333Y-33324005D01*
X192633479Y-33286089D01*
X192784286Y-33226522D01*
X192920890Y-33141142D01*
X193030015Y-33037970D01*
X193114777Y-32915723D01*
X193174798Y-32778548D01*
X193212018Y-32623684D01*
X193224992Y-32447692D01*
X193224992Y-31744120D01*
X193211325Y-31559186D01*
X193172498Y-31400084D01*
X193110503Y-31262504D01*
X193023147Y-31140549D01*
X192912822Y-31039733D01*
X192776653Y-30958574D01*
X192626801Y-30902519D01*
X192451553Y-30866933D01*
X192246341Y-30854313D01*
X191892799Y-30854313D01*
X191424922Y-30854313D01*
X191424922Y-32886566D01*
X190859573Y-32886566D01*
X190896007Y-32796582D01*
X190932314Y-32631466D01*
X190945137Y-32439144D01*
X190945137Y-30854313D01*
X190477259Y-30854313D01*
X190477259Y-32451203D01*
X190463123Y-32588962D01*
X190424009Y-32697171D01*
X190362007Y-32782458D01*
X190278169Y-32846016D01*
X190171928Y-32885915D01*
X190036706Y-32900305D01*
X189902638Y-32885937D01*
X189797186Y-32846063D01*
X189713848Y-32782458D01*
X189652377Y-32697243D01*
X189613552Y-32589035D01*
X189599512Y-32451203D01*
X189599512Y-30854313D01*
X189131481Y-30854313D01*
X189131481Y-32439144D01*
X188651965Y-32439144D01*
X188045975Y-30854313D01*
X187748762Y-30854313D01*
X187123801Y-32488756D01*
X186799267Y-33337500D01*
X186521489Y-33337500D01*
X186521489Y-30551042D01*
X196689223Y-30551042D01*
X196689223Y-37840923D01*
G37*
D10*
X142800000Y-36300000D02*
X152550000Y-36300000D01*
X152550000Y-47050000D01*
X142800000Y-47050000D01*
X142800000Y-36300000D01*
D14*
X157200000Y-47900000D02*
X182800000Y-47900000D01*
X182800000Y-58700000D01*
X157200000Y-58700000D01*
X157200000Y-47900000D01*
D11*
G36*
X182621839Y-50552222D02*
G01*
X180977796Y-50552222D01*
X180977796Y-48917299D01*
X181200018Y-48917299D01*
X181200018Y-48918642D01*
X181583968Y-48918642D01*
X181583968Y-48917299D01*
X181598153Y-48844837D01*
X181621680Y-48788283D01*
X181653577Y-48744497D01*
X181695235Y-48711036D01*
X181744579Y-48690773D01*
X181803908Y-48683681D01*
X181891893Y-48695615D01*
X181951431Y-48727400D01*
X181989760Y-48778930D01*
X182003332Y-48851720D01*
X182003332Y-48854406D01*
X181997366Y-48909641D01*
X181978053Y-48972620D01*
X181947961Y-49034489D01*
X181906368Y-49096329D01*
X181224564Y-49992578D01*
X181224564Y-50330000D01*
X182399617Y-50330000D01*
X182399617Y-49969253D01*
X181720499Y-49969253D01*
X182209596Y-49351807D01*
X182284712Y-49237957D01*
X182341487Y-49110617D01*
X182376967Y-48976174D01*
X182388626Y-48842194D01*
X182388626Y-48840851D01*
X182380408Y-48733353D01*
X182357036Y-48640821D01*
X182319627Y-48560704D01*
X182267159Y-48490004D01*
X182200808Y-48431306D01*
X182118737Y-48383872D01*
X182028892Y-48351185D01*
X181923904Y-48330420D01*
X181801099Y-48323056D01*
X181688156Y-48331289D01*
X181587752Y-48355005D01*
X181497872Y-48393398D01*
X181416693Y-48447150D01*
X181347561Y-48514783D01*
X181289533Y-48597707D01*
X181246372Y-48689766D01*
X181216204Y-48795518D01*
X181200018Y-48917299D01*
X180977796Y-48917299D01*
X180977796Y-48100834D01*
X182621839Y-48100834D01*
X182621839Y-50552222D01*
G37*
D10*
X87320074Y-29806999D02*
G75*
G02*
X88110460Y-26931203I1767766J1060659D01*
G01*
D12*
X95800000Y-30100000D02*
X95500000Y-30368285D01*
X87900000Y-28668285D01*
X87800000Y-28200000D01*
X95800000Y-30100000D01*
G36*
X95800000Y-30100000D02*
G01*
X95500000Y-30368285D01*
X87900000Y-28668285D01*
X87800000Y-28200000D01*
X95800000Y-30100000D01*
G37*
D10*
X88110465Y-26931201D02*
X88110460Y-27300001D01*
X87749004Y-26859694D01*
X88110465Y-26931201D01*
G36*
X88110465Y-26931201D02*
G01*
X88110460Y-27300001D01*
X87749004Y-26859694D01*
X88110465Y-26931201D01*
G37*
D15*
X95500000Y-30700000D02*
X95500000Y-31300000D01*
X87900000Y-31300000D01*
X87900000Y-30000000D01*
X92200000Y-30000000D01*
X95500000Y-30700000D01*
D10*
X87351857Y-29892171D02*
X87037068Y-29807819D01*
X87495561Y-29600000D01*
X87351857Y-29892171D01*
G36*
X87351857Y-29892171D02*
G01*
X87037068Y-29807819D01*
X87495561Y-29600000D01*
X87351857Y-29892171D01*
G37*
D15*
X75650000Y-30700000D02*
X75650000Y-31300000D01*
X68050000Y-31300000D01*
X68050000Y-30000000D01*
X72350000Y-30000000D01*
X75650000Y-30700000D01*
D12*
X75950000Y-30100000D02*
X75650000Y-30368285D01*
X68050000Y-28668285D01*
X67950000Y-28200000D01*
X75950000Y-30100000D01*
G36*
X75950000Y-30100000D02*
G01*
X75650000Y-30368285D01*
X68050000Y-28668285D01*
X67950000Y-28200000D01*
X75950000Y-30100000D01*
G37*
D10*
X67470074Y-29806999D02*
G75*
G02*
X68260460Y-26931203I1767766J1060659D01*
G01*
X67501857Y-29892171D02*
X67187068Y-29807819D01*
X67645561Y-29600000D01*
X67501857Y-29892171D01*
G36*
X67501857Y-29892171D02*
G01*
X67187068Y-29807819D01*
X67645561Y-29600000D01*
X67501857Y-29892171D01*
G37*
X68260465Y-26931201D02*
X68260460Y-27300001D01*
X67899004Y-26859694D01*
X68260465Y-26931201D01*
G36*
X68260465Y-26931201D02*
G01*
X68260460Y-27300001D01*
X67899004Y-26859694D01*
X68260465Y-26931201D01*
G37*
D12*
X133300001Y-29800000D02*
X129299999Y-29800000D01*
X131300000Y-26800000D01*
X133300001Y-29800000D01*
G36*
X133300001Y-29800000D02*
G01*
X129299999Y-29800000D01*
X131300000Y-26800000D01*
X133300001Y-29800000D01*
G37*
X142800000Y-36300000D02*
X143550000Y-36300000D01*
X143550000Y-37050000D01*
X142800000Y-37050000D01*
X142800000Y-36300000D01*
G36*
X142800000Y-36300000D02*
G01*
X143550000Y-36300000D01*
X143550000Y-37050000D01*
X142800000Y-37050000D01*
X142800000Y-36300000D01*
G37*
D10*
X80200000Y-57600000D02*
X90500000Y-57600000D01*
X80200000Y-56900000D02*
X80200000Y-57600000D01*
D14*
X184800000Y-49100000D02*
X198100000Y-49100000D01*
X198100000Y-58700000D01*
X184800000Y-58700000D01*
X184800000Y-49100000D01*
D10*
X73104819Y-50963220D02*
X72104819Y-50963220D01*
X72104819Y-50963220D02*
X72819104Y-50629887D01*
X72819104Y-50629887D02*
X72104819Y-50296554D01*
X72104819Y-50296554D02*
X73104819Y-50296554D01*
X73104819Y-49820363D02*
X72104819Y-49820363D01*
X73104819Y-49344173D02*
X72104819Y-49344173D01*
X72104819Y-49344173D02*
X72104819Y-49106078D01*
X72104819Y-49106078D02*
X72152438Y-48963221D01*
X72152438Y-48963221D02*
X72247676Y-48867983D01*
X72247676Y-48867983D02*
X72342914Y-48820364D01*
X72342914Y-48820364D02*
X72533390Y-48772745D01*
X72533390Y-48772745D02*
X72676247Y-48772745D01*
X72676247Y-48772745D02*
X72866723Y-48820364D01*
X72866723Y-48820364D02*
X72961961Y-48867983D01*
X72961961Y-48867983D02*
X73057200Y-48963221D01*
X73057200Y-48963221D02*
X73104819Y-49106078D01*
X73104819Y-49106078D02*
X73104819Y-49344173D01*
X73104819Y-48344173D02*
X72104819Y-48344173D01*
X73200057Y-48106079D02*
X73200057Y-47344174D01*
X72104819Y-47248935D02*
X72104819Y-46677507D01*
X73104819Y-46963221D02*
X72104819Y-46963221D01*
X72104819Y-46439411D02*
X73104819Y-45772745D01*
X72104819Y-45772745D02*
X73104819Y-46439411D01*
X90854819Y-50491792D02*
X90378628Y-50825125D01*
X90854819Y-51063220D02*
X89854819Y-51063220D01*
X89854819Y-51063220D02*
X89854819Y-50682268D01*
X89854819Y-50682268D02*
X89902438Y-50587030D01*
X89902438Y-50587030D02*
X89950057Y-50539411D01*
X89950057Y-50539411D02*
X90045295Y-50491792D01*
X90045295Y-50491792D02*
X90188152Y-50491792D01*
X90188152Y-50491792D02*
X90283390Y-50539411D01*
X90283390Y-50539411D02*
X90331009Y-50587030D01*
X90331009Y-50587030D02*
X90378628Y-50682268D01*
X90378628Y-50682268D02*
X90378628Y-51063220D01*
X90950057Y-50301316D02*
X90950057Y-49539411D01*
X89854819Y-49110839D02*
X89854819Y-48920363D01*
X89854819Y-48920363D02*
X89902438Y-48825125D01*
X89902438Y-48825125D02*
X89997676Y-48729887D01*
X89997676Y-48729887D02*
X90188152Y-48682268D01*
X90188152Y-48682268D02*
X90521485Y-48682268D01*
X90521485Y-48682268D02*
X90711961Y-48729887D01*
X90711961Y-48729887D02*
X90807200Y-48825125D01*
X90807200Y-48825125D02*
X90854819Y-48920363D01*
X90854819Y-48920363D02*
X90854819Y-49110839D01*
X90854819Y-49110839D02*
X90807200Y-49206077D01*
X90807200Y-49206077D02*
X90711961Y-49301315D01*
X90711961Y-49301315D02*
X90521485Y-49348934D01*
X90521485Y-49348934D02*
X90188152Y-49348934D01*
X90188152Y-49348934D02*
X89997676Y-49301315D01*
X89997676Y-49301315D02*
X89902438Y-49206077D01*
X89902438Y-49206077D02*
X89854819Y-49110839D01*
X89854819Y-48253696D02*
X90664342Y-48253696D01*
X90664342Y-48253696D02*
X90759580Y-48206077D01*
X90759580Y-48206077D02*
X90807200Y-48158458D01*
X90807200Y-48158458D02*
X90854819Y-48063220D01*
X90854819Y-48063220D02*
X90854819Y-47872744D01*
X90854819Y-47872744D02*
X90807200Y-47777506D01*
X90807200Y-47777506D02*
X90759580Y-47729887D01*
X90759580Y-47729887D02*
X90664342Y-47682268D01*
X90664342Y-47682268D02*
X89854819Y-47682268D01*
X89854819Y-47348934D02*
X89854819Y-46777506D01*
X90854819Y-47063220D02*
X89854819Y-47063220D01*
X77204819Y-51106077D02*
X78204819Y-50772744D01*
X78204819Y-50772744D02*
X77204819Y-50439411D01*
X77204819Y-49915601D02*
X77204819Y-49725125D01*
X77204819Y-49725125D02*
X77252438Y-49629887D01*
X77252438Y-49629887D02*
X77347676Y-49534649D01*
X77347676Y-49534649D02*
X77538152Y-49487030D01*
X77538152Y-49487030D02*
X77871485Y-49487030D01*
X77871485Y-49487030D02*
X78061961Y-49534649D01*
X78061961Y-49534649D02*
X78157200Y-49629887D01*
X78157200Y-49629887D02*
X78204819Y-49725125D01*
X78204819Y-49725125D02*
X78204819Y-49915601D01*
X78204819Y-49915601D02*
X78157200Y-50010839D01*
X78157200Y-50010839D02*
X78061961Y-50106077D01*
X78061961Y-50106077D02*
X77871485Y-50153696D01*
X77871485Y-50153696D02*
X77538152Y-50153696D01*
X77538152Y-50153696D02*
X77347676Y-50106077D01*
X77347676Y-50106077D02*
X77252438Y-50010839D01*
X77252438Y-50010839D02*
X77204819Y-49915601D01*
X78204819Y-48582268D02*
X78204819Y-49058458D01*
X78204819Y-49058458D02*
X77204819Y-49058458D01*
X78204819Y-47725125D02*
X78204819Y-48296553D01*
X78204819Y-48010839D02*
X77204819Y-48010839D01*
X77204819Y-48010839D02*
X77347676Y-48106077D01*
X77347676Y-48106077D02*
X77442914Y-48201315D01*
X77442914Y-48201315D02*
X77490533Y-48296553D01*
X75695180Y-56693922D02*
X74695180Y-57027255D01*
X74695180Y-57027255D02*
X75695180Y-57360588D01*
X75695180Y-57884398D02*
X75695180Y-58074874D01*
X75695180Y-58074874D02*
X75647561Y-58170112D01*
X75647561Y-58170112D02*
X75552323Y-58265350D01*
X75552323Y-58265350D02*
X75361847Y-58312969D01*
X75361847Y-58312969D02*
X75028514Y-58312969D01*
X75028514Y-58312969D02*
X74838038Y-58265350D01*
X74838038Y-58265350D02*
X74742800Y-58170112D01*
X74742800Y-58170112D02*
X74695180Y-58074874D01*
X74695180Y-58074874D02*
X74695180Y-57884398D01*
X74695180Y-57884398D02*
X74742800Y-57789160D01*
X74742800Y-57789160D02*
X74838038Y-57693922D01*
X74838038Y-57693922D02*
X75028514Y-57646303D01*
X75028514Y-57646303D02*
X75361847Y-57646303D01*
X75361847Y-57646303D02*
X75552323Y-57693922D01*
X75552323Y-57693922D02*
X75647561Y-57789160D01*
X75647561Y-57789160D02*
X75695180Y-57884398D01*
X74695180Y-59217731D02*
X74695180Y-58741541D01*
X74695180Y-58741541D02*
X75695180Y-58741541D01*
X75599942Y-59503446D02*
X75647561Y-59551065D01*
X75647561Y-59551065D02*
X75695180Y-59646303D01*
X75695180Y-59646303D02*
X75695180Y-59884398D01*
X75695180Y-59884398D02*
X75647561Y-59979636D01*
X75647561Y-59979636D02*
X75599942Y-60027255D01*
X75599942Y-60027255D02*
X75504704Y-60074874D01*
X75504704Y-60074874D02*
X75409466Y-60074874D01*
X75409466Y-60074874D02*
X75266609Y-60027255D01*
X75266609Y-60027255D02*
X74695180Y-59455827D01*
X74695180Y-59455827D02*
X74695180Y-60074874D01*
D14*
X180900000Y-47900000D02*
X182800000Y-47900000D01*
X182800000Y-50700000D01*
X180900000Y-50700000D01*
X180900000Y-47900000D01*
D10*
X75604819Y-50963220D02*
X74604819Y-50963220D01*
X74604819Y-50963220D02*
X75319104Y-50629887D01*
X75319104Y-50629887D02*
X74604819Y-50296554D01*
X74604819Y-50296554D02*
X75604819Y-50296554D01*
X75604819Y-49820363D02*
X74604819Y-49820363D01*
X74604819Y-49439411D02*
X75604819Y-48772745D01*
X74604819Y-48772745D02*
X75604819Y-49439411D01*
X75604819Y-48391792D02*
X74604819Y-48391792D01*
X75700057Y-48153698D02*
X75700057Y-47391793D01*
X75604819Y-46582269D02*
X75128628Y-46915602D01*
X75604819Y-47153697D02*
X74604819Y-47153697D01*
X74604819Y-47153697D02*
X74604819Y-46772745D01*
X74604819Y-46772745D02*
X74652438Y-46677507D01*
X74652438Y-46677507D02*
X74700057Y-46629888D01*
X74700057Y-46629888D02*
X74795295Y-46582269D01*
X74795295Y-46582269D02*
X74938152Y-46582269D01*
X74938152Y-46582269D02*
X75033390Y-46629888D01*
X75033390Y-46629888D02*
X75081009Y-46677507D01*
X75081009Y-46677507D02*
X75128628Y-46772745D01*
X75128628Y-46772745D02*
X75128628Y-47153697D01*
X74604819Y-46248935D02*
X75604819Y-45582269D01*
X74604819Y-45582269D02*
X75604819Y-46248935D01*
X83204819Y-50491792D02*
X82728628Y-50825125D01*
X83204819Y-51063220D02*
X82204819Y-51063220D01*
X82204819Y-51063220D02*
X82204819Y-50682268D01*
X82204819Y-50682268D02*
X82252438Y-50587030D01*
X82252438Y-50587030D02*
X82300057Y-50539411D01*
X82300057Y-50539411D02*
X82395295Y-50491792D01*
X82395295Y-50491792D02*
X82538152Y-50491792D01*
X82538152Y-50491792D02*
X82633390Y-50539411D01*
X82633390Y-50539411D02*
X82681009Y-50587030D01*
X82681009Y-50587030D02*
X82728628Y-50682268D01*
X82728628Y-50682268D02*
X82728628Y-51063220D01*
X83300057Y-50301316D02*
X83300057Y-49539411D01*
X83204819Y-49301315D02*
X82204819Y-49301315D01*
X83204819Y-48825125D02*
X82204819Y-48825125D01*
X82204819Y-48825125D02*
X83204819Y-48253697D01*
X83204819Y-48253697D02*
X82204819Y-48253697D01*
X81389160Y-58669104D02*
X81865350Y-58669104D01*
X81293922Y-58954819D02*
X81627255Y-57954819D01*
X81627255Y-57954819D02*
X81960588Y-58954819D01*
X82293922Y-58288152D02*
X82293922Y-58954819D01*
X82293922Y-58383390D02*
X82341541Y-58335771D01*
X82341541Y-58335771D02*
X82436779Y-58288152D01*
X82436779Y-58288152D02*
X82579636Y-58288152D01*
X82579636Y-58288152D02*
X82674874Y-58335771D01*
X82674874Y-58335771D02*
X82722493Y-58431009D01*
X82722493Y-58431009D02*
X82722493Y-58954819D01*
X83627255Y-58954819D02*
X83627255Y-58431009D01*
X83627255Y-58431009D02*
X83579636Y-58335771D01*
X83579636Y-58335771D02*
X83484398Y-58288152D01*
X83484398Y-58288152D02*
X83293922Y-58288152D01*
X83293922Y-58288152D02*
X83198684Y-58335771D01*
X83627255Y-58907200D02*
X83532017Y-58954819D01*
X83532017Y-58954819D02*
X83293922Y-58954819D01*
X83293922Y-58954819D02*
X83198684Y-58907200D01*
X83198684Y-58907200D02*
X83151065Y-58811961D01*
X83151065Y-58811961D02*
X83151065Y-58716723D01*
X83151065Y-58716723D02*
X83198684Y-58621485D01*
X83198684Y-58621485D02*
X83293922Y-58573866D01*
X83293922Y-58573866D02*
X83532017Y-58573866D01*
X83532017Y-58573866D02*
X83627255Y-58526247D01*
X84246303Y-58954819D02*
X84151065Y-58907200D01*
X84151065Y-58907200D02*
X84103446Y-58811961D01*
X84103446Y-58811961D02*
X84103446Y-57954819D01*
X84770113Y-58954819D02*
X84674875Y-58907200D01*
X84674875Y-58907200D02*
X84627256Y-58859580D01*
X84627256Y-58859580D02*
X84579637Y-58764342D01*
X84579637Y-58764342D02*
X84579637Y-58478628D01*
X84579637Y-58478628D02*
X84627256Y-58383390D01*
X84627256Y-58383390D02*
X84674875Y-58335771D01*
X84674875Y-58335771D02*
X84770113Y-58288152D01*
X84770113Y-58288152D02*
X84912970Y-58288152D01*
X84912970Y-58288152D02*
X85008208Y-58335771D01*
X85008208Y-58335771D02*
X85055827Y-58383390D01*
X85055827Y-58383390D02*
X85103446Y-58478628D01*
X85103446Y-58478628D02*
X85103446Y-58764342D01*
X85103446Y-58764342D02*
X85055827Y-58859580D01*
X85055827Y-58859580D02*
X85008208Y-58907200D01*
X85008208Y-58907200D02*
X84912970Y-58954819D01*
X84912970Y-58954819D02*
X84770113Y-58954819D01*
X85960589Y-58288152D02*
X85960589Y-59097676D01*
X85960589Y-59097676D02*
X85912970Y-59192914D01*
X85912970Y-59192914D02*
X85865351Y-59240533D01*
X85865351Y-59240533D02*
X85770113Y-59288152D01*
X85770113Y-59288152D02*
X85627256Y-59288152D01*
X85627256Y-59288152D02*
X85532018Y-59240533D01*
X85960589Y-58907200D02*
X85865351Y-58954819D01*
X85865351Y-58954819D02*
X85674875Y-58954819D01*
X85674875Y-58954819D02*
X85579637Y-58907200D01*
X85579637Y-58907200D02*
X85532018Y-58859580D01*
X85532018Y-58859580D02*
X85484399Y-58764342D01*
X85484399Y-58764342D02*
X85484399Y-58478628D01*
X85484399Y-58478628D02*
X85532018Y-58383390D01*
X85532018Y-58383390D02*
X85579637Y-58335771D01*
X85579637Y-58335771D02*
X85674875Y-58288152D01*
X85674875Y-58288152D02*
X85865351Y-58288152D01*
X85865351Y-58288152D02*
X85960589Y-58335771D01*
X87722494Y-58002438D02*
X87627256Y-57954819D01*
X87627256Y-57954819D02*
X87484399Y-57954819D01*
X87484399Y-57954819D02*
X87341542Y-58002438D01*
X87341542Y-58002438D02*
X87246304Y-58097676D01*
X87246304Y-58097676D02*
X87198685Y-58192914D01*
X87198685Y-58192914D02*
X87151066Y-58383390D01*
X87151066Y-58383390D02*
X87151066Y-58526247D01*
X87151066Y-58526247D02*
X87198685Y-58716723D01*
X87198685Y-58716723D02*
X87246304Y-58811961D01*
X87246304Y-58811961D02*
X87341542Y-58907200D01*
X87341542Y-58907200D02*
X87484399Y-58954819D01*
X87484399Y-58954819D02*
X87579637Y-58954819D01*
X87579637Y-58954819D02*
X87722494Y-58907200D01*
X87722494Y-58907200D02*
X87770113Y-58859580D01*
X87770113Y-58859580D02*
X87770113Y-58526247D01*
X87770113Y-58526247D02*
X87579637Y-58526247D01*
X88198685Y-58954819D02*
X88198685Y-57954819D01*
X88198685Y-57954819D02*
X88770113Y-58954819D01*
X88770113Y-58954819D02*
X88770113Y-57954819D01*
X89246304Y-58954819D02*
X89246304Y-57954819D01*
X89246304Y-57954819D02*
X89484399Y-57954819D01*
X89484399Y-57954819D02*
X89627256Y-58002438D01*
X89627256Y-58002438D02*
X89722494Y-58097676D01*
X89722494Y-58097676D02*
X89770113Y-58192914D01*
X89770113Y-58192914D02*
X89817732Y-58383390D01*
X89817732Y-58383390D02*
X89817732Y-58526247D01*
X89817732Y-58526247D02*
X89770113Y-58716723D01*
X89770113Y-58716723D02*
X89722494Y-58811961D01*
X89722494Y-58811961D02*
X89627256Y-58907200D01*
X89627256Y-58907200D02*
X89484399Y-58954819D01*
X89484399Y-58954819D02*
X89246304Y-58954819D01*
D12*
G36*
X94078118Y-33165188D02*
G01*
X94146175Y-33193715D01*
X94202644Y-33239806D01*
X94245246Y-33303013D01*
X94271239Y-33377626D01*
X94280356Y-33466045D01*
X94271073Y-33552847D01*
X94244483Y-33626635D01*
X94201241Y-33689022D01*
X94144496Y-33735018D01*
X94076659Y-33763594D01*
X93996882Y-33773486D01*
X93457105Y-33773486D01*
X93457105Y-33155246D01*
X93996882Y-33155246D01*
X94078118Y-33165188D01*
G37*
G36*
X95043109Y-35465278D02*
G01*
X88600842Y-35465278D01*
X88600842Y-35187500D01*
X88878620Y-35187500D01*
X89047758Y-35187500D01*
X90542067Y-35187500D01*
X90696092Y-35187500D01*
X91189615Y-35187500D01*
X91685757Y-34340103D01*
X92187042Y-35187500D01*
X92680565Y-35187500D01*
X91930266Y-33922380D01*
X92017391Y-33773486D01*
X92989227Y-33773486D01*
X92989227Y-35187500D01*
X93457105Y-35187500D01*
X93457105Y-34224267D01*
X93984822Y-34224267D01*
X94137378Y-34213265D01*
X94272839Y-34181596D01*
X94393929Y-34130386D01*
X94503475Y-34058738D01*
X94594237Y-33970724D01*
X94667939Y-33864924D01*
X94721139Y-33746916D01*
X94753945Y-33614896D01*
X94765331Y-33466045D01*
X94753958Y-33317188D01*
X94721164Y-33184898D01*
X94667939Y-33066403D01*
X94594213Y-32959964D01*
X94503442Y-32871345D01*
X94393929Y-32799110D01*
X94272788Y-32747383D01*
X94137332Y-32715415D01*
X93984822Y-32704313D01*
X93457105Y-32704313D01*
X92989227Y-32704313D01*
X92989227Y-33773486D01*
X92017391Y-33773486D01*
X92643013Y-32704313D01*
X92149490Y-32704313D01*
X91682439Y-33502599D01*
X91210071Y-32704313D01*
X90716548Y-32704313D01*
X91437369Y-33921309D01*
X90696092Y-35187500D01*
X90542067Y-35187500D01*
X90542067Y-34736566D01*
X89346498Y-34736566D01*
X89346498Y-34179845D01*
X90354152Y-34179845D01*
X90354152Y-33729064D01*
X89346498Y-33729064D01*
X89346498Y-33155246D01*
X90542067Y-33155246D01*
X90542067Y-32704313D01*
X89346498Y-32704313D01*
X88878620Y-32704313D01*
X88878620Y-35187500D01*
X88600842Y-35187500D01*
X88600842Y-32426535D01*
X95043109Y-32426535D01*
X95043109Y-35465278D01*
G37*
D16*
%TO.C,G\u002A\u002A\u002A*%
G36*
X147466019Y-48933583D02*
G01*
X147825365Y-48963290D01*
X148182043Y-49019443D01*
X148534428Y-49102039D01*
X148880897Y-49211071D01*
X149219826Y-49346533D01*
X149549592Y-49508422D01*
X149819026Y-49665265D01*
X150127928Y-49875701D01*
X150418109Y-50107716D01*
X150688601Y-50359986D01*
X150938439Y-50631185D01*
X151166657Y-50919988D01*
X151372288Y-51225070D01*
X151554366Y-51545107D01*
X151711926Y-51878774D01*
X151844000Y-52224745D01*
X151949623Y-52581695D01*
X151951730Y-52590007D01*
X152027670Y-52949577D01*
X152076001Y-53315327D01*
X152096821Y-53684647D01*
X152090229Y-54054927D01*
X152056322Y-54423558D01*
X151995199Y-54787930D01*
X151906958Y-55145433D01*
X151848492Y-55333437D01*
X151718008Y-55678813D01*
X151562569Y-56010697D01*
X151383432Y-56328007D01*
X151181851Y-56629665D01*
X150959081Y-56914588D01*
X150716377Y-57181698D01*
X150454994Y-57429914D01*
X150176187Y-57658157D01*
X149881211Y-57865345D01*
X149571321Y-58050398D01*
X149247772Y-58212237D01*
X148911819Y-58349782D01*
X148564716Y-58461952D01*
X148207719Y-58547666D01*
X148088356Y-58569893D01*
X147846364Y-58604280D01*
X147588500Y-58627365D01*
X147324584Y-58638781D01*
X147064438Y-58638165D01*
X146817886Y-58625150D01*
X146754626Y-58619434D01*
X146386630Y-58568530D01*
X146026371Y-58490170D01*
X145675181Y-58385263D01*
X145334394Y-58254716D01*
X145005340Y-58099438D01*
X144689353Y-57920338D01*
X144387764Y-57718325D01*
X144101907Y-57494305D01*
X143833112Y-57249188D01*
X143582713Y-56983882D01*
X143352041Y-56699295D01*
X143142430Y-56396336D01*
X142955210Y-56075913D01*
X142917004Y-56002864D01*
X142760894Y-55666734D01*
X142631913Y-55322044D01*
X142529995Y-54970452D01*
X142455076Y-54613615D01*
X142407089Y-54253192D01*
X142385970Y-53890839D01*
X142387621Y-53785461D01*
X142691170Y-53785461D01*
X142705562Y-54146190D01*
X142748408Y-54502786D01*
X142819215Y-54853854D01*
X142917488Y-55198000D01*
X143042733Y-55533831D01*
X143194455Y-55859952D01*
X143372159Y-56174971D01*
X143575352Y-56477493D01*
X143707095Y-56649685D01*
X143774449Y-56729253D01*
X143858687Y-56821936D01*
X143954334Y-56922257D01*
X144055916Y-57024741D01*
X144157955Y-57123912D01*
X144254978Y-57214296D01*
X144341508Y-57290416D01*
X144377619Y-57320208D01*
X144670736Y-57537040D01*
X144978354Y-57729499D01*
X145298756Y-57896888D01*
X145630224Y-58038508D01*
X145971041Y-58153661D01*
X146319492Y-58241649D01*
X146673859Y-58301774D01*
X146834745Y-58319549D01*
X146940447Y-58326833D01*
X147065637Y-58331536D01*
X147201336Y-58333640D01*
X147338562Y-58333125D01*
X147468335Y-58329975D01*
X147581674Y-58324170D01*
X147619862Y-58321148D01*
X147985814Y-58274001D01*
X148343497Y-58199087D01*
X148692003Y-58096774D01*
X149030422Y-57967427D01*
X149357846Y-57811412D01*
X149673366Y-57629095D01*
X149976071Y-57420843D01*
X150106067Y-57320208D01*
X150185636Y-57252855D01*
X150278318Y-57168617D01*
X150378639Y-57072969D01*
X150481123Y-56971388D01*
X150580294Y-56869348D01*
X150670678Y-56772326D01*
X150746798Y-56685796D01*
X150776590Y-56649685D01*
X150971779Y-56387774D01*
X151149810Y-56111350D01*
X151306431Y-55827381D01*
X151404003Y-55621149D01*
X151537197Y-55282846D01*
X151642303Y-54939232D01*
X151719516Y-54591758D01*
X151769027Y-54241873D01*
X151791032Y-53891028D01*
X151785723Y-53540672D01*
X151753294Y-53192257D01*
X151693939Y-52847232D01*
X151607851Y-52507048D01*
X151495224Y-52173155D01*
X151356252Y-51847003D01*
X151191128Y-51530042D01*
X151000045Y-51223722D01*
X150783198Y-50929494D01*
X150776590Y-50921236D01*
X150709237Y-50841668D01*
X150624999Y-50748986D01*
X150529351Y-50648665D01*
X150427770Y-50546181D01*
X150325730Y-50447009D01*
X150228708Y-50356626D01*
X150142178Y-50280506D01*
X150106067Y-50250713D01*
X149811578Y-50032703D01*
X149503770Y-49839889D01*
X149184035Y-49672766D01*
X148853769Y-49531828D01*
X148514364Y-49417570D01*
X148167214Y-49330485D01*
X147813714Y-49271070D01*
X147455257Y-49239817D01*
X147241843Y-49234787D01*
X146881113Y-49249179D01*
X146524518Y-49292026D01*
X146173450Y-49362833D01*
X145829304Y-49461106D01*
X145493473Y-49586351D01*
X145167351Y-49738072D01*
X144852333Y-49915777D01*
X144549811Y-50118970D01*
X144377619Y-50250713D01*
X144298050Y-50318067D01*
X144205368Y-50402305D01*
X144105047Y-50497952D01*
X144002563Y-50599534D01*
X143903391Y-50701573D01*
X143813008Y-50798596D01*
X143736888Y-50885126D01*
X143707095Y-50921236D01*
X143489085Y-51215725D01*
X143296271Y-51523534D01*
X143129148Y-51843268D01*
X142988210Y-52173535D01*
X142873952Y-52512940D01*
X142786868Y-52860089D01*
X142727452Y-53213589D01*
X142696199Y-53572047D01*
X142691170Y-53785461D01*
X142387621Y-53785461D01*
X142391653Y-53528215D01*
X142424073Y-53166977D01*
X142483165Y-52808783D01*
X142568862Y-52455291D01*
X142681100Y-52108158D01*
X142819814Y-51769043D01*
X142984937Y-51439603D01*
X143105031Y-51233656D01*
X143309497Y-50929570D01*
X143537967Y-50640258D01*
X143788209Y-50367951D01*
X144057995Y-50114878D01*
X144345092Y-49883271D01*
X144647271Y-49675359D01*
X144690038Y-49648648D01*
X145012277Y-49466591D01*
X145344837Y-49311022D01*
X145686094Y-49181937D01*
X146034426Y-49079330D01*
X146388209Y-49003197D01*
X146745817Y-48953531D01*
X147105629Y-48930328D01*
X147466019Y-48933583D01*
G37*
G36*
X145903417Y-50319500D02*
G01*
X145936626Y-50341808D01*
X145947853Y-50381550D01*
X145945148Y-50408943D01*
X145937740Y-50459003D01*
X145926687Y-50525897D01*
X145913049Y-50603789D01*
X145897884Y-50686847D01*
X145882253Y-50769235D01*
X145867214Y-50845120D01*
X145853826Y-50908667D01*
X145845917Y-50943045D01*
X145838471Y-50974782D01*
X145825921Y-51029610D01*
X145809466Y-51102232D01*
X145790306Y-51187350D01*
X145769639Y-51279670D01*
X145765269Y-51299256D01*
X145720645Y-51497714D01*
X145679961Y-51674920D01*
X145641500Y-51838144D01*
X145603549Y-51994659D01*
X145564392Y-52151735D01*
X145561647Y-52162601D01*
X145543817Y-52234869D01*
X145529462Y-52296443D01*
X145519718Y-52342173D01*
X145515720Y-52366908D01*
X145515959Y-52369747D01*
X145526929Y-52363663D01*
X145555270Y-52340236D01*
X145601452Y-52299025D01*
X145665948Y-52239593D01*
X145749229Y-52161499D01*
X145851767Y-52064306D01*
X145974034Y-51947573D01*
X146116500Y-51810863D01*
X146122160Y-51805421D01*
X146211341Y-51719561D01*
X146282049Y-51650939D01*
X146336789Y-51596655D01*
X146378065Y-51553810D01*
X146408381Y-51519502D01*
X146430242Y-51490833D01*
X146446151Y-51464903D01*
X146458614Y-51438811D01*
X146470134Y-51409658D01*
X146474835Y-51397043D01*
X146545047Y-51248891D01*
X146643191Y-51107049D01*
X146768698Y-50972058D01*
X146921000Y-50844460D01*
X147099527Y-50724794D01*
X147292730Y-50619038D01*
X147417059Y-50561134D01*
X147532438Y-50515118D01*
X147636120Y-50481664D01*
X147725357Y-50461447D01*
X147797400Y-50455141D01*
X147849503Y-50463421D01*
X147871395Y-50476964D01*
X147891330Y-50506255D01*
X147892311Y-50539653D01*
X147873352Y-50582693D01*
X147845023Y-50625230D01*
X147798706Y-50690319D01*
X147766139Y-50739671D01*
X147743343Y-50780602D01*
X147726344Y-50820428D01*
X147711164Y-50866463D01*
X147707832Y-50877619D01*
X147694607Y-50928099D01*
X147678445Y-50998469D01*
X147661264Y-51079947D01*
X147644980Y-51163751D01*
X147642789Y-51175673D01*
X147626573Y-51263398D01*
X147609748Y-51351690D01*
X147591714Y-51443383D01*
X147571868Y-51541309D01*
X147549610Y-51648304D01*
X147524339Y-51767201D01*
X147495453Y-51900834D01*
X147462351Y-52052038D01*
X147424432Y-52223646D01*
X147381095Y-52418492D01*
X147342066Y-52593245D01*
X147318371Y-52699427D01*
X147294304Y-52807694D01*
X147271451Y-52910886D01*
X147251396Y-53001840D01*
X147235724Y-53073396D01*
X147232642Y-53087579D01*
X147170778Y-53369626D01*
X147108528Y-53647256D01*
X147046774Y-53916723D01*
X146986401Y-54174279D01*
X146928291Y-54416179D01*
X146873326Y-54638675D01*
X146822389Y-54838022D01*
X146800926Y-54919519D01*
X146763765Y-55054689D01*
X146718418Y-55212231D01*
X146666412Y-55387108D01*
X146609275Y-55574285D01*
X146548534Y-55768724D01*
X146485715Y-55965390D01*
X146457402Y-56052581D01*
X146430693Y-56135675D01*
X146407935Y-56208944D01*
X146390406Y-56268066D01*
X146379383Y-56308716D01*
X146376145Y-56326572D01*
X146376315Y-56326954D01*
X146391430Y-56322368D01*
X146424467Y-56299741D01*
X146472724Y-56261532D01*
X146533499Y-56210200D01*
X146604091Y-56148203D01*
X146681798Y-56078001D01*
X146763919Y-56002053D01*
X146847752Y-55922817D01*
X146930596Y-55842753D01*
X147009750Y-55764319D01*
X147082511Y-55689974D01*
X147122668Y-55647612D01*
X147208115Y-55555178D01*
X147288540Y-55466353D01*
X147360351Y-55385206D01*
X147419959Y-55315808D01*
X147463773Y-55262228D01*
X147471564Y-55252143D01*
X147485422Y-55221789D01*
X147502491Y-55163365D01*
X147522602Y-55077684D01*
X147545585Y-54965557D01*
X147571270Y-54827796D01*
X147599489Y-54665212D01*
X147619940Y-54541500D01*
X147633176Y-54465913D01*
X147647267Y-54395223D01*
X147660510Y-54337446D01*
X147671016Y-54301100D01*
X147705622Y-54239409D01*
X147765365Y-54170932D01*
X147847659Y-54097668D01*
X147949921Y-54021615D01*
X148069567Y-53944773D01*
X148204013Y-53869139D01*
X148278477Y-53831168D01*
X148421328Y-53764756D01*
X148554764Y-53710613D01*
X148676144Y-53669469D01*
X148782829Y-53642058D01*
X148872179Y-53629110D01*
X148941556Y-53631358D01*
X148970169Y-53639307D01*
X149007834Y-53666838D01*
X149019738Y-53706368D01*
X149005676Y-53756029D01*
X148986317Y-53787661D01*
X148970931Y-53820273D01*
X148954738Y-53872707D01*
X148940407Y-53935914D01*
X148936998Y-53954862D01*
X148896009Y-54188432D01*
X148854165Y-54409349D01*
X148819749Y-54577848D01*
X148810178Y-54620627D01*
X148794522Y-54687837D01*
X148773690Y-54775752D01*
X148748591Y-54880645D01*
X148720135Y-54998791D01*
X148689230Y-55126465D01*
X148656787Y-55259939D01*
X148623714Y-55395488D01*
X148590922Y-55529387D01*
X148559318Y-55657908D01*
X148529813Y-55777327D01*
X148503316Y-55883917D01*
X148480736Y-55973952D01*
X148462983Y-56043707D01*
X148450966Y-56089455D01*
X148449744Y-56093910D01*
X148436565Y-56141512D01*
X148518912Y-56094943D01*
X148829788Y-55902880D01*
X149121067Y-55689409D01*
X149379107Y-55467235D01*
X149440047Y-55410254D01*
X149494048Y-55359209D01*
X149537266Y-55317780D01*
X149565856Y-55289644D01*
X149575386Y-55279477D01*
X149590863Y-55261534D01*
X149621372Y-55227600D01*
X149662126Y-55182963D01*
X149697434Y-55144672D01*
X149868032Y-54950138D01*
X150045241Y-54727871D01*
X150229138Y-54477764D01*
X150419802Y-54199709D01*
X150617309Y-53893597D01*
X150741824Y-53691989D01*
X150806514Y-53590687D01*
X150863361Y-53512173D01*
X150911013Y-53458275D01*
X150922397Y-53447950D01*
X150969547Y-53414482D01*
X151014583Y-53393527D01*
X151051217Y-53387012D01*
X151073161Y-53396863D01*
X151075283Y-53401105D01*
X151069374Y-53417511D01*
X151049537Y-53455247D01*
X151017664Y-53511249D01*
X150975650Y-53582452D01*
X150925388Y-53665789D01*
X150868771Y-53758195D01*
X150807695Y-53856606D01*
X150744052Y-53957955D01*
X150679736Y-54059177D01*
X150616641Y-54157207D01*
X150556661Y-54248979D01*
X150501689Y-54331427D01*
X150488800Y-54350446D01*
X150256734Y-54676826D01*
X150022248Y-54976734D01*
X149782945Y-55252773D01*
X149536429Y-55507549D01*
X149280303Y-55743666D01*
X149012171Y-55963731D01*
X148986548Y-55983467D01*
X148892702Y-56053264D01*
X148789024Y-56126713D01*
X148678594Y-56201942D01*
X148564491Y-56277076D01*
X148449794Y-56350242D01*
X148337584Y-56419566D01*
X148230940Y-56483175D01*
X148132942Y-56539195D01*
X148046668Y-56585752D01*
X147975199Y-56620972D01*
X147921615Y-56642983D01*
X147891117Y-56649951D01*
X147870965Y-56655413D01*
X147831106Y-56669818D01*
X147778526Y-56690574D01*
X147750715Y-56702074D01*
X147592418Y-56764852D01*
X147457321Y-56810614D01*
X147345495Y-56839344D01*
X147257010Y-56851027D01*
X147191937Y-56845646D01*
X147162320Y-56833052D01*
X147135779Y-56806505D01*
X147125529Y-56779334D01*
X147128908Y-56757806D01*
X147138439Y-56712046D01*
X147153212Y-56646028D01*
X147172319Y-56563728D01*
X147194852Y-56469120D01*
X147219902Y-56366181D01*
X147221012Y-56361667D01*
X147265828Y-56179399D01*
X147304078Y-56023526D01*
X147336199Y-55892219D01*
X147362631Y-55783650D01*
X147383810Y-55695990D01*
X147400175Y-55627413D01*
X147412165Y-55576089D01*
X147420216Y-55540191D01*
X147424768Y-55517891D01*
X147426258Y-55507360D01*
X147426052Y-55505979D01*
X147415809Y-55514880D01*
X147390582Y-55541672D01*
X147354254Y-55582119D01*
X147314041Y-55628126D01*
X147257337Y-55691391D01*
X147183363Y-55770366D01*
X147096181Y-55860996D01*
X146999852Y-55959229D01*
X146898439Y-56061012D01*
X146796002Y-56162292D01*
X146696604Y-56259015D01*
X146604305Y-56347128D01*
X146523168Y-56422579D01*
X146471265Y-56469137D01*
X146348675Y-56574302D01*
X146238370Y-56663402D01*
X146133029Y-56741845D01*
X146025327Y-56815038D01*
X145907943Y-56888390D01*
X145884409Y-56902512D01*
X145716797Y-56998840D01*
X145568927Y-57075814D01*
X145439381Y-57134022D01*
X145326739Y-57174052D01*
X145229579Y-57196490D01*
X145160023Y-57202175D01*
X145110808Y-57200780D01*
X145082379Y-57194756D01*
X145066505Y-57181345D01*
X145059541Y-57168516D01*
X145054467Y-57148079D01*
X145056124Y-57118896D01*
X145065506Y-57075780D01*
X145083607Y-57013541D01*
X145097859Y-56968602D01*
X145143373Y-56827354D01*
X145181449Y-56708593D01*
X145213689Y-56607166D01*
X145241693Y-56517922D01*
X145267060Y-56435708D01*
X145291391Y-56355373D01*
X145316286Y-56271765D01*
X145343345Y-56179732D01*
X145350796Y-56154253D01*
X145411590Y-55941146D01*
X145470145Y-55725123D01*
X145527399Y-55502272D01*
X145584287Y-55268681D01*
X145641749Y-55020438D01*
X145700722Y-54753631D01*
X145762142Y-54464349D01*
X145801754Y-54272524D01*
X145822733Y-54170597D01*
X145844558Y-54065646D01*
X145865539Y-53965735D01*
X145883982Y-53878926D01*
X145897128Y-53818140D01*
X145916663Y-53729060D01*
X145938829Y-53627922D01*
X145960049Y-53531054D01*
X145968816Y-53491008D01*
X146008985Y-53308015D01*
X146049869Y-53122739D01*
X146090683Y-52938671D01*
X146130647Y-52759300D01*
X146168975Y-52588117D01*
X146204886Y-52428611D01*
X146237596Y-52284273D01*
X146266322Y-52158592D01*
X146290281Y-52055060D01*
X146305420Y-51990815D01*
X146319342Y-51930174D01*
X146329583Y-51881076D01*
X146334919Y-51849691D01*
X146335070Y-51841558D01*
X146323626Y-51849628D01*
X146294591Y-51874955D01*
X146251240Y-51914544D01*
X146196847Y-51965398D01*
X146134689Y-52024524D01*
X146128152Y-52030795D01*
X146053323Y-52102007D01*
X145964032Y-52185973D01*
X145867447Y-52276015D01*
X145770736Y-52365452D01*
X145681067Y-52447605D01*
X145671608Y-52456213D01*
X145591167Y-52529569D01*
X145510173Y-52603804D01*
X145433708Y-52674231D01*
X145366856Y-52736162D01*
X145314703Y-52784911D01*
X145300858Y-52797996D01*
X145210497Y-52880774D01*
X145116285Y-52961737D01*
X145022730Y-53037400D01*
X144934341Y-53104278D01*
X144855627Y-53158886D01*
X144791096Y-53197741D01*
X144770300Y-53208075D01*
X144712405Y-53234436D01*
X144655823Y-53260300D01*
X144617516Y-53277898D01*
X144508254Y-53323220D01*
X144415120Y-53351242D01*
X144339813Y-53361695D01*
X144284032Y-53354310D01*
X144254675Y-53335452D01*
X144247970Y-53326698D01*
X144243663Y-53315497D01*
X144242315Y-53298860D01*
X144244485Y-53273796D01*
X144250734Y-53237314D01*
X144261621Y-53186423D01*
X144277707Y-53118134D01*
X144299552Y-53029456D01*
X144327715Y-52917398D01*
X144347934Y-52837484D01*
X144438573Y-52468147D01*
X144517681Y-52121124D01*
X144586153Y-51792438D01*
X144604320Y-51699084D01*
X144624914Y-51602201D01*
X144650909Y-51496365D01*
X144680658Y-51386918D01*
X144712517Y-51279198D01*
X144744841Y-51178548D01*
X144775985Y-51090308D01*
X144804303Y-51019818D01*
X144828140Y-50972437D01*
X144874549Y-50911506D01*
X144942696Y-50841209D01*
X145028170Y-50764904D01*
X145126565Y-50685952D01*
X145233471Y-50607711D01*
X145344480Y-50533541D01*
X145455182Y-50466801D01*
X145561170Y-50410850D01*
X145571880Y-50405722D01*
X145682457Y-50357984D01*
X145775276Y-50327656D01*
X145849281Y-50314805D01*
X145903417Y-50319500D01*
G37*
%TD*%
M02*
