M48
; DRILL file {KiCad 9.0.3} date 2025-09-11T12:53:51+0200
; FORMAT={-:-/ absolute / metric / decimal}
; #@! TF.CreationDate,2025-09-11T12:53:51+02:00
; #@! TF.GenerationSoftware,Kicad,Pcbnew,9.0.3
; #@! TF.FileFunction,Plated,1,2,PTH
FMAT,2
METRIC
; #@! TA.AperFunction,Plated,PTH,ViaDrill
T1C0.300
; #@! TA.AperFunction,Plated,PTH,ViaDrill
T2C0.400
; #@! TA.AperFunction,Plated,PTH,ComponentDrill
T3C0.800
; #@! TA.AperFunction,Plated,PTH,ComponentDrill
T4C1.000
; #@! TA.AperFunction,Plated,PTH,ComponentDrill
T5C1.400
%
G90
G05
T1
X97.7Y-54.9
X103.4Y-50.8
X125.5Y-47.0
T2
X65.775Y-42.51
X65.775Y-47.01
X65.775Y-56.01
X70.275Y-29.01
X70.275Y-33.51
X70.275Y-38.01
X70.275Y-42.51
X70.275Y-47.01
X70.275Y-51.51
X74.775Y-29.01
X74.775Y-33.51
X74.775Y-38.01
X74.775Y-42.51
X74.775Y-47.01
X79.275Y-38.01
X79.275Y-42.51
X88.275Y-29.01
X88.275Y-33.51
X88.275Y-42.51
X88.275Y-47.01
X92.775Y-29.01
X92.775Y-33.51
X92.775Y-42.51
X92.775Y-56.01
X97.275Y-29.01
X97.275Y-33.51
X97.275Y-42.51
X101.775Y-42.51
X101.775Y-56.01
X106.275Y-33.51
X106.275Y-47.01
X106.275Y-56.01
X110.775Y-33.51
X110.775Y-42.51
X110.775Y-47.01
X110.775Y-56.01
X115.275Y-33.51
X115.275Y-42.51
X115.275Y-47.01
X115.275Y-56.01
X119.775Y-42.51
X119.775Y-51.51
X119.775Y-56.01
X124.275Y-42.51
X124.275Y-51.51
X124.275Y-56.01
X128.775Y-33.51
X128.775Y-42.51
X128.775Y-47.01
X128.775Y-56.01
X133.275Y-33.51
X133.275Y-38.01
X133.275Y-47.01
X133.275Y-56.01
X137.775Y-38.01
X137.775Y-42.51
X137.775Y-56.01
X142.275Y-33.51
X142.275Y-38.01
X142.275Y-42.51
X142.275Y-56.01
X146.775Y-42.51
X146.775Y-56.01
X155.775Y-29.01
X155.775Y-33.51
X155.775Y-38.01
X155.775Y-42.51
X155.775Y-47.01
X155.775Y-56.01
X160.275Y-38.01
X160.275Y-42.51
X164.775Y-29.01
X164.775Y-33.51
X164.775Y-38.01
X164.775Y-47.01
X164.775Y-56.01
X169.275Y-29.01
X169.275Y-33.51
X169.275Y-42.51
X169.275Y-56.01
X173.775Y-38.01
X173.775Y-47.01
X173.775Y-56.01
X178.275Y-29.01
X178.275Y-33.51
X178.275Y-38.01
X178.275Y-42.51
X178.275Y-47.01
X178.275Y-56.01
X182.775Y-38.01
X182.775Y-42.51
X182.775Y-47.01
X182.775Y-56.01
X187.275Y-29.01
X187.275Y-33.51
X187.275Y-38.01
X187.275Y-42.51
X187.275Y-56.01
X191.775Y-29.01
X191.775Y-33.51
X191.775Y-38.01
X191.775Y-51.51
X191.775Y-56.01
X196.275Y-29.01
X196.275Y-33.51
X196.275Y-47.01
X196.275Y-51.51
X196.275Y-56.01
T3
X145.22Y-37.93
X145.22Y-45.55
X147.76Y-37.93
X147.76Y-45.55
X150.3Y-37.93
X150.3Y-45.55
T4
X72.64Y-52.76
X72.64Y-55.3
X75.18Y-52.76
X75.18Y-55.3
X77.72Y-52.76
X77.72Y-55.3
X80.26Y-52.76
X80.26Y-55.3
X82.8Y-52.76
X82.8Y-55.3
X85.34Y-52.76
X85.34Y-55.3
X87.88Y-52.76
X87.88Y-55.3
X90.42Y-52.76
X90.42Y-55.3
T5
X63.47Y-27.535
X63.47Y-33.885
X63.47Y-40.235
X79.7Y-27.535
X79.7Y-33.885
X79.7Y-40.235
X83.47Y-27.535
X83.47Y-33.885
X83.47Y-40.235
X99.7Y-27.535
X99.7Y-33.885
X99.7Y-40.235
X103.47Y-27.535
X103.47Y-33.885
X103.47Y-40.235
X119.7Y-27.535
X119.7Y-33.885
X119.7Y-40.235
X123.47Y-27.535
X123.47Y-33.885
X123.47Y-40.235
X139.7Y-27.535
X139.7Y-33.885
X139.7Y-40.235
X158.47Y-27.535
X158.47Y-33.885
X158.47Y-40.235
X174.7Y-27.535
X174.7Y-33.885
X174.7Y-40.235
X183.47Y-27.535
X183.47Y-33.885
X183.47Y-40.235
X199.7Y-27.535
X199.7Y-33.885
X199.7Y-40.235
M30
