%TF.GenerationSoftware,KiCad,Pcbnew,9.0.3*%
%TF.CreationDate,2025-09-11T12:52:37+02:00*%
%TF.ProjectId,RP2040-DSP_V2.1,52503230-3430-42d4-9453-505f56322e31,V2.1*%
%TF.SameCoordinates,Original*%
%TF.FileFunction,Soldermask,Bot*%
%TF.FilePolarity,Negative*%
%FSLAX46Y46*%
G04 Gerber Fmt 4.6, Leading zero omitted, Abs format (unit mm)*
G04 Created by KiCad (PCBNEW 9.0.3) date 2025-09-11 12:52:37*
%MOMM*%
%LPD*%
G01*
G04 APERTURE LIST*
G04 Aperture macros list*
%AMRoundRect*
0 Rectangle with rounded corners*
0 $1 Rounding radius*
0 $2 $3 $4 $5 $6 $7 $8 $9 X,Y pos of 4 corners*
0 Add a 4 corners polygon primitive as box body*
4,1,4,$2,$3,$4,$5,$6,$7,$8,$9,$2,$3,0*
0 Add four circle primitives for the rounded corners*
1,1,$1+$1,$2,$3*
1,1,$1+$1,$4,$5*
1,1,$1+$1,$6,$7*
1,1,$1+$1,$8,$9*
0 Add four rect primitives between the rounded corners*
20,1,$1+$1,$2,$3,$4,$5,0*
20,1,$1+$1,$4,$5,$6,$7,0*
20,1,$1+$1,$6,$7,$8,$9,0*
20,1,$1+$1,$8,$9,$2,$3,0*%
G04 Aperture macros list end*
%ADD10RoundRect,0.070000X0.850000X-0.850000X0.850000X0.850000X-0.850000X0.850000X-0.850000X-0.850000X0*%
%ADD11C,1.840000*%
%ADD12RoundRect,0.271875X-0.598125X0.598125X-0.598125X-0.598125X0.598125X-0.598125X0.598125X0.598125X0*%
%ADD13C,1.740000*%
%ADD14RoundRect,0.270589X-0.649411X0.649411X-0.649411X-0.649411X0.649411X-0.649411X0.649411X0.649411X0*%
%ADD15RoundRect,0.070000X1.000000X-1.000000X1.000000X1.000000X-1.000000X1.000000X-1.000000X-1.000000X0*%
%ADD16C,2.140000*%
%ADD17RoundRect,0.070000X1.000000X-1.600000X1.000000X1.600000X-1.000000X1.600000X-1.000000X-1.600000X0*%
%ADD18RoundRect,0.070000X0.900000X0.900000X-0.900000X0.900000X-0.900000X-0.900000X0.900000X-0.900000X0*%
%ADD19C,1.940000*%
%ADD20RoundRect,0.070000X-0.900000X0.900000X-0.900000X-0.900000X0.900000X-0.900000X0.900000X0.900000X0*%
%ADD21O,2.860000X3.380000*%
%ADD22RoundRect,0.070000X-0.900000X-0.900000X0.900000X-0.900000X0.900000X0.900000X-0.900000X0.900000X0*%
%ADD23O,1.740000X2.140000*%
G04 APERTURE END LIST*
D10*
%TO.C,J5*%
X211728250Y-155200000D03*
D11*
X214268250Y-155200000D03*
%TD*%
D12*
%TO.C,SW2*%
X110397500Y-135732500D03*
D13*
X107857500Y-135732500D03*
X105317500Y-135732500D03*
X102777500Y-135732500D03*
X102777500Y-143352500D03*
X105317500Y-143352500D03*
X107857500Y-143352500D03*
X110397500Y-143352500D03*
%TD*%
D10*
%TO.C,J8*%
X75903250Y-155260000D03*
D11*
X78443250Y-155260000D03*
%TD*%
D10*
%TO.C,J7*%
X111203250Y-155260000D03*
D11*
X113743250Y-155260000D03*
%TD*%
%TO.C,U4*%
X64087750Y-142812000D03*
X66627750Y-142812000D03*
X69167750Y-142812000D03*
X71707750Y-142812000D03*
X74247750Y-142812000D03*
X76787750Y-142812000D03*
X79327750Y-142812000D03*
X81867750Y-142812000D03*
X84407750Y-142812000D03*
X64087750Y-127572000D03*
X66627750Y-127572000D03*
X69167750Y-127572000D03*
X71707750Y-127572000D03*
X74247750Y-127572000D03*
X76787750Y-127572000D03*
X79327750Y-127572000D03*
X81867750Y-127572000D03*
X84407750Y-127572000D03*
X84407750Y-140272000D03*
X84407750Y-137732000D03*
X84407750Y-135192000D03*
X84407750Y-132652000D03*
X84407750Y-130112000D03*
%TD*%
D14*
%TO.C,J13*%
X123660000Y-98960000D03*
D11*
X123660000Y-101500000D03*
X121120000Y-98960000D03*
X121120000Y-101500000D03*
X118580000Y-98960000D03*
X118580000Y-101500000D03*
X116040000Y-98960000D03*
X116040000Y-101500000D03*
X113500000Y-98960000D03*
X113500000Y-101500000D03*
X110960000Y-98960000D03*
X110960000Y-101500000D03*
X108420000Y-98960000D03*
X108420000Y-101500000D03*
X105880000Y-98960000D03*
X105880000Y-101500000D03*
%TD*%
D10*
%TO.C,J6*%
X175278250Y-155260000D03*
D11*
X177818250Y-155260000D03*
%TD*%
D10*
%TO.C,J1*%
X204878250Y-93550000D03*
D11*
X207418250Y-93550000D03*
%TD*%
D15*
%TO.C,SW1*%
X72126500Y-87800000D03*
D16*
X67126500Y-87800000D03*
X69626500Y-87800000D03*
D17*
X64026500Y-80300000D03*
X75226500Y-80300000D03*
D16*
X67126500Y-73300000D03*
X72126500Y-73300000D03*
%TD*%
D18*
%TO.C,D7*%
X71001500Y-155300000D03*
D19*
X68461500Y-155300000D03*
%TD*%
D20*
%TO.C,D8*%
X144603250Y-79025000D03*
D19*
X144603250Y-81565000D03*
%TD*%
D21*
%TO.C,RV6*%
X184826500Y-80350000D03*
X194426500Y-80350000D03*
D22*
X192126500Y-87850000D03*
D19*
X189626500Y-87850000D03*
X187126500Y-87850000D03*
%TD*%
D21*
%TO.C,RV7*%
X64826500Y-110300000D03*
X74426500Y-110300000D03*
D22*
X72126500Y-117800000D03*
D19*
X69626500Y-117800000D03*
X67126500Y-117800000D03*
%TD*%
D21*
%TO.C,RV1*%
X214826500Y-110300000D03*
X224426500Y-110300000D03*
D22*
X222126500Y-117800000D03*
D19*
X219626500Y-117800000D03*
X217126500Y-117800000D03*
%TD*%
D21*
%TO.C,RV2*%
X184826500Y-110300000D03*
X194426500Y-110300000D03*
D22*
X192126500Y-117800000D03*
D19*
X189626500Y-117800000D03*
X187126500Y-117800000D03*
%TD*%
D23*
%TO.C,U12*%
X118846500Y-69700000D03*
X116306500Y-69700000D03*
X113766500Y-69700000D03*
X111226500Y-69700000D03*
%TD*%
D21*
%TO.C,RV3*%
X154826500Y-110300000D03*
X164426500Y-110300000D03*
D22*
X162126500Y-117800000D03*
D19*
X159626500Y-117800000D03*
X157126500Y-117800000D03*
%TD*%
D18*
%TO.C,D4*%
X221001500Y-155300000D03*
D19*
X218461500Y-155300000D03*
%TD*%
D21*
%TO.C,RV5*%
X94826500Y-110300000D03*
X104426500Y-110300000D03*
D22*
X102126500Y-117800000D03*
D19*
X99626500Y-117800000D03*
X97126500Y-117800000D03*
%TD*%
D21*
%TO.C,RV8*%
X214900000Y-80275000D03*
X224400000Y-80275000D03*
D22*
X222150000Y-87775000D03*
D19*
X219650000Y-87775000D03*
X217150000Y-87775000D03*
X222150000Y-90275000D03*
X219650000Y-90275000D03*
X217150000Y-90275000D03*
%TD*%
D18*
%TO.C,D5*%
X171001500Y-155300000D03*
D19*
X168461500Y-155300000D03*
%TD*%
D18*
%TO.C,D6*%
X121001500Y-155300000D03*
D19*
X118461500Y-155300000D03*
%TD*%
D21*
%TO.C,RV4*%
X124826500Y-110300000D03*
X134426500Y-110300000D03*
D22*
X132126500Y-117800000D03*
D19*
X129626500Y-117800000D03*
X127126500Y-117800000D03*
%TD*%
M02*
