%TF.GenerationSoftware,KiCad,Pcbnew,9.0.3*%
%TF.CreationDate,2025-09-08T10:38:29+02:00*%
%TF.ProjectId,RP2040-DSP_V2.1,52503230-3430-42d4-9453-505f56322e31,V2.1*%
%TF.SameCoordinates,Original*%
%TF.FileFunction,Profile,NP*%
%FSLAX46Y46*%
G04 Gerber Fmt 4.6, Leading zero omitted, Abs format (unit mm)*
G04 Created by KiCad (PCBNEW 9.0.3) date 2025-09-08 10:38:29*
%MOMM*%
%LPD*%
G01*
G04 APERTURE LIST*
%TA.AperFunction,Profile*%
%ADD10C,0.050000*%
%TD*%
G04 APERTURE END LIST*
D10*
X141903250Y-25300000D02*
X63300000Y-25300000D01*
X199800000Y-25300000D02*
G75*
G02*
X201800000Y-27300000I0J-2000000D01*
G01*
X61300000Y-27300000D02*
G75*
G02*
X63300000Y-25300000I2000000J0D01*
G01*
X201800000Y-58800000D02*
X201800000Y-27300000D01*
X227700000Y-156100000D02*
G75*
G02*
X223700000Y-160100000I-4000000J0D01*
G01*
X223700000Y-160100000D02*
X65503250Y-160100000D01*
X63300000Y-60800000D02*
X199800000Y-60800000D01*
X65503250Y-160100000D02*
G75*
G02*
X61503300Y-156100000I50J4000000D01*
G01*
X227700000Y-71496753D02*
X227700000Y-156100000D01*
X149726500Y-67500000D02*
G75*
G02*
X139603250Y-67500000I-5061625J0D01*
G01*
X61503250Y-156100000D02*
X61503250Y-71500000D01*
X149726500Y-67500000D02*
X223703250Y-67500000D01*
X65503250Y-67500000D02*
X139603250Y-67500000D01*
X61300000Y-27300000D02*
X61300000Y-58800000D01*
X223703250Y-67500000D02*
G75*
G02*
X227700000Y-71496753I-50J-3996800D01*
G01*
X63300000Y-60800000D02*
G75*
G02*
X61300000Y-58800000I0J2000000D01*
G01*
X199800000Y-25300000D02*
X152026500Y-25300000D01*
X61503250Y-71500000D02*
G75*
G02*
X65503250Y-67499950I4000050J0D01*
G01*
X201800000Y-58800000D02*
G75*
G02*
X199800000Y-60800000I-2000000J0D01*
G01*
X152026500Y-25300000D02*
G75*
G02*
X141903250Y-25300000I-5061625J0D01*
G01*
M02*
