%TF.GenerationSoftware,KiCad,Pcbnew,9.0.3*%
%TF.CreationDate,2025-09-11T09:39:57+02:00*%
%TF.ProjectId,RP2040_DSP_V1.2,52503230-3430-45f4-9453-505f56312e32,V1.2*%
%TF.SameCoordinates,Original*%
%TF.FileFunction,Soldermask,Bot*%
%TF.FilePolarity,Negative*%
%FSLAX46Y46*%
G04 Gerber Fmt 4.6, Leading zero omitted, Abs format (unit mm)*
G04 Created by KiCad (PCBNEW 9.0.3) date 2025-09-11 09:39:57*
%MOMM*%
%LPD*%
G01*
G04 APERTURE LIST*
G04 Aperture macros list*
%AMRoundRect*
0 Rectangle with rounded corners*
0 $1 Rounding radius*
0 $2 $3 $4 $5 $6 $7 $8 $9 X,Y pos of 4 corners*
0 Add a 4 corners polygon primitive as box body*
4,1,4,$2,$3,$4,$5,$6,$7,$8,$9,$2,$3,0*
0 Add four circle primitives for the rounded corners*
1,1,$1+$1,$2,$3*
1,1,$1+$1,$4,$5*
1,1,$1+$1,$6,$7*
1,1,$1+$1,$8,$9*
0 Add four rect primitives between the rounded corners*
20,1,$1+$1,$2,$3,$4,$5,0*
20,1,$1+$1,$4,$5,$6,$7,0*
20,1,$1+$1,$6,$7,$8,$9,0*
20,1,$1+$1,$8,$9,$2,$3,0*%
G04 Aperture macros list end*
%ADD10RoundRect,0.285000X0.510000X-0.285000X0.510000X0.285000X-0.510000X0.285000X-0.510000X-0.285000X0*%
%ADD11C,3.140000*%
%ADD12RoundRect,0.270589X0.649411X-0.649411X0.649411X0.649411X-0.649411X0.649411X-0.649411X-0.649411X0*%
%ADD13C,1.840000*%
%ADD14RoundRect,0.271875X-0.598125X0.598125X-0.598125X-0.598125X0.598125X-0.598125X0.598125X0.598125X0*%
%ADD15C,1.740000*%
%ADD16RoundRect,0.284146X0.485854X-0.298354X0.485854X0.298354X-0.485854X0.298354X-0.485854X-0.298354X0*%
%ADD17RoundRect,0.271875X-1.123125X-0.598125X1.123125X-0.598125X1.123125X0.598125X-1.123125X0.598125X0*%
%ADD18RoundRect,0.284146X-0.485854X0.298354X-0.485854X-0.298354X0.485854X-0.298354X0.485854X0.298354X0*%
G04 APERTURE END LIST*
D10*
%TO.C,C31*%
X148210000Y-47885000D03*
X148210000Y-45985000D03*
%TD*%
D11*
%TO.C,J9*%
X172400000Y-32085000D03*
X156170000Y-32085000D03*
X172400000Y-25735000D03*
X156170000Y-25735000D03*
X172400000Y-38435000D03*
X156170000Y-38435000D03*
%TD*%
D12*
%TO.C,J4*%
X88120000Y-53500000D03*
D13*
X88120000Y-50960000D03*
X85580000Y-53500000D03*
X85580000Y-50960000D03*
X83040000Y-53500000D03*
X83040000Y-50960000D03*
X80500000Y-53500000D03*
X80500000Y-50960000D03*
X77960000Y-53500000D03*
X77960000Y-50960000D03*
X75420000Y-53500000D03*
X75420000Y-50960000D03*
X72880000Y-53500000D03*
X72880000Y-50960000D03*
X70340000Y-53500000D03*
X70340000Y-50960000D03*
%TD*%
D14*
%TO.C,U11*%
X142920000Y-36130000D03*
D15*
X145460000Y-36130000D03*
X148000000Y-36130000D03*
X148000000Y-43750000D03*
X145460000Y-43750000D03*
X142920000Y-43750000D03*
%TD*%
D16*
%TO.C,R17*%
X142100000Y-47812500D03*
X142100000Y-45987500D03*
%TD*%
D17*
%TO.C,C33*%
X97725000Y-45200000D03*
X101075000Y-45200000D03*
%TD*%
D18*
%TO.C,R18*%
X142960000Y-32022500D03*
X142960000Y-33847500D03*
%TD*%
D11*
%TO.C,J11*%
X117400000Y-32085000D03*
X101170000Y-32085000D03*
X117400000Y-25735000D03*
X101170000Y-25735000D03*
X117400000Y-38435000D03*
X101170000Y-38435000D03*
%TD*%
D16*
%TO.C,R16*%
X151600000Y-47812500D03*
X151600000Y-45987500D03*
%TD*%
D11*
%TO.C,J10*%
X137400000Y-32085000D03*
X121170000Y-32085000D03*
X137400000Y-25735000D03*
X121170000Y-25735000D03*
X137400000Y-38435000D03*
X121170000Y-38435000D03*
%TD*%
D17*
%TO.C,C32*%
X117725000Y-45200000D03*
X121075000Y-45200000D03*
%TD*%
D11*
%TO.C,J2*%
X77400000Y-32085000D03*
X61170000Y-32085000D03*
X77400000Y-25735000D03*
X61170000Y-25735000D03*
X77400000Y-38435000D03*
X61170000Y-38435000D03*
%TD*%
D16*
%TO.C,R15*%
X145460000Y-47847500D03*
X145460000Y-46022500D03*
%TD*%
D11*
%TO.C,J12*%
X197400000Y-32085000D03*
X181170000Y-32085000D03*
X197400000Y-25735000D03*
X181170000Y-25735000D03*
X197400000Y-38435000D03*
X181170000Y-38435000D03*
%TD*%
%TO.C,J3*%
X97400000Y-32085000D03*
X81170000Y-32085000D03*
X97400000Y-25735000D03*
X81170000Y-25735000D03*
X97400000Y-38435000D03*
X81170000Y-38435000D03*
%TD*%
M02*
