M48
; DRILL file {KiCad 9.0.3} date 2025-09-11T09:39:59+0200
; FORMAT={-:-/ absolute / metric / decimal}
; #@! TF.CreationDate,2025-09-11T09:39:59+02:00
; #@! TF.GenerationSoftware,Kicad,Pcbnew,9.0.3
; #@! TF.FileFunction,Plated,1,2,PTH
FMAT,2
METRIC
; #@! TA.AperFunction,Plated,PTH,ViaDrill
T1C0.400
; #@! TA.AperFunction,Plated,PTH,ComponentDrill
T2C0.800
; #@! TA.AperFunction,Plated,PTH,ComponentDrill
T3C1.000
; #@! TA.AperFunction,Plated,PTH,ComponentDrill
T4C1.400
%
G90
G05
T1
X63.475Y-40.71
X63.475Y-45.21
X63.475Y-54.21
X67.975Y-27.21
X67.975Y-31.71
X67.975Y-36.21
X67.975Y-40.71
X67.975Y-45.21
X67.975Y-49.71
X72.475Y-27.21
X72.475Y-31.71
X72.475Y-36.21
X72.475Y-40.71
X72.475Y-45.21
X76.975Y-36.21
X76.975Y-40.71
X85.975Y-27.21
X85.975Y-31.71
X85.975Y-40.71
X85.975Y-45.21
X90.475Y-27.21
X90.475Y-31.71
X90.475Y-40.71
X90.475Y-54.21
X94.975Y-27.21
X94.975Y-31.71
X94.975Y-40.71
X95.4Y-53.1
X99.475Y-40.71
X99.475Y-54.21
X101.1Y-49.0
X103.975Y-31.71
X103.975Y-45.21
X103.975Y-54.21
X108.475Y-31.71
X108.475Y-40.71
X108.475Y-45.21
X108.475Y-54.21
X112.975Y-31.71
X112.975Y-40.71
X112.975Y-45.21
X112.975Y-54.21
X117.475Y-40.71
X117.475Y-49.71
X117.475Y-54.21
X121.975Y-40.71
X121.975Y-49.71
X121.975Y-54.21
X123.2Y-45.2
X126.475Y-31.71
X126.475Y-40.71
X126.475Y-45.21
X126.475Y-54.21
X130.975Y-31.71
X130.975Y-36.21
X130.975Y-45.21
X130.975Y-54.21
X135.475Y-36.21
X135.475Y-40.71
X135.475Y-54.21
X139.975Y-31.71
X139.975Y-36.21
X139.975Y-40.71
X139.975Y-54.21
X144.475Y-40.71
X144.475Y-54.21
X153.475Y-27.21
X153.475Y-31.71
X153.475Y-36.21
X153.475Y-40.71
X153.475Y-45.21
X153.475Y-54.21
X157.975Y-36.21
X157.975Y-40.71
X162.475Y-27.21
X162.475Y-31.71
X162.475Y-36.21
X162.475Y-45.21
X162.475Y-54.21
X166.975Y-27.21
X166.975Y-31.71
X166.975Y-40.71
X166.975Y-54.21
X171.475Y-36.21
X171.475Y-45.21
X171.475Y-54.21
X175.975Y-27.21
X175.975Y-31.71
X175.975Y-36.21
X175.975Y-40.71
X175.975Y-45.21
X175.975Y-54.21
X180.475Y-36.21
X180.475Y-40.71
X180.475Y-45.21
X180.475Y-54.21
X184.975Y-27.21
X184.975Y-31.71
X184.975Y-36.21
X184.975Y-40.71
X184.975Y-54.21
X189.475Y-27.21
X189.475Y-31.71
X189.475Y-36.21
X189.475Y-49.71
X189.475Y-54.21
X193.975Y-27.21
X193.975Y-31.71
X193.975Y-45.21
X193.975Y-49.71
X193.975Y-54.21
T2
X142.92Y-36.13
X142.92Y-43.75
X145.46Y-36.13
X145.46Y-43.75
X148.0Y-36.13
X148.0Y-43.75
T3
X70.34Y-50.96
X70.34Y-53.5
X72.88Y-50.96
X72.88Y-53.5
X75.42Y-50.96
X75.42Y-53.5
X77.96Y-50.96
X77.96Y-53.5
X80.5Y-50.96
X80.5Y-53.5
X83.04Y-50.96
X83.04Y-53.5
X85.58Y-50.96
X85.58Y-53.5
X88.12Y-50.96
X88.12Y-53.5
T4
X61.17Y-25.735
X61.17Y-32.085
X61.17Y-38.435
X77.4Y-25.735
X77.4Y-32.085
X77.4Y-38.435
X81.17Y-25.735
X81.17Y-32.085
X81.17Y-38.435
X97.4Y-25.735
X97.4Y-32.085
X97.4Y-38.435
X101.17Y-25.735
X101.17Y-32.085
X101.17Y-38.435
X117.4Y-25.735
X117.4Y-32.085
X117.4Y-38.435
X121.17Y-25.735
X121.17Y-32.085
X121.17Y-38.435
X137.4Y-25.735
X137.4Y-32.085
X137.4Y-38.435
X156.17Y-25.735
X156.17Y-32.085
X156.17Y-38.435
X172.4Y-25.735
X172.4Y-32.085
X172.4Y-38.435
X181.17Y-25.735
X181.17Y-32.085
X181.17Y-38.435
X197.4Y-25.735
X197.4Y-32.085
X197.4Y-38.435
M30
