%TF.GenerationSoftware,KiCad,Pcbnew,9.0.3*%
%TF.CreationDate,2025-09-11T09:39:57+02:00*%
%TF.ProjectId,RP2040_DSP_V1.2,52503230-3430-45f4-9453-505f56312e32,V1.2*%
%TF.SameCoordinates,Original*%
%TF.FileFunction,Copper,L1,Top*%
%TF.FilePolarity,Positive*%
%FSLAX46Y46*%
G04 Gerber Fmt 4.6, Leading zero omitted, Abs format (unit mm)*
G04 Created by KiCad (PCBNEW 9.0.3) date 2025-09-11 09:39:57*
%MOMM*%
%LPD*%
G01*
G04 APERTURE LIST*
G04 Aperture macros list*
%AMRoundRect*
0 Rectangle with rounded corners*
0 $1 Rounding radius*
0 $2 $3 $4 $5 $6 $7 $8 $9 X,Y pos of 4 corners*
0 Add a 4 corners polygon primitive as box body*
4,1,4,$2,$3,$4,$5,$6,$7,$8,$9,$2,$3,0*
0 Add four circle primitives for the rounded corners*
1,1,$1+$1,$2,$3*
1,1,$1+$1,$4,$5*
1,1,$1+$1,$6,$7*
1,1,$1+$1,$8,$9*
0 Add four rect primitives between the rounded corners*
20,1,$1+$1,$2,$3,$4,$5,0*
20,1,$1+$1,$4,$5,$6,$7,0*
20,1,$1+$1,$6,$7,$8,$9,0*
20,1,$1+$1,$8,$9,$2,$3,0*%
G04 Aperture macros list end*
%TA.AperFunction,ComponentPad*%
%ADD10C,3.000000*%
%TD*%
%TA.AperFunction,ComponentPad*%
%ADD11RoundRect,0.250000X0.600000X-0.600000X0.600000X0.600000X-0.600000X0.600000X-0.600000X-0.600000X0*%
%TD*%
%TA.AperFunction,ComponentPad*%
%ADD12C,1.700000*%
%TD*%
%TA.AperFunction,ComponentPad*%
%ADD13RoundRect,0.250000X-0.550000X0.550000X-0.550000X-0.550000X0.550000X-0.550000X0.550000X0.550000X0*%
%TD*%
%TA.AperFunction,ComponentPad*%
%ADD14C,1.600000*%
%TD*%
%TA.AperFunction,ViaPad*%
%ADD15C,0.800000*%
%TD*%
%TA.AperFunction,Conductor*%
%ADD16C,0.800000*%
%TD*%
%TA.AperFunction,Conductor*%
%ADD17C,0.320000*%
%TD*%
G04 APERTURE END LIST*
D10*
%TO.P,J9,R*%
%TO.N,/R_INd*%
X172400000Y-32085000D03*
%TO.P,J9,RN*%
%TO.N,GNDd*%
X156170000Y-32085000D03*
%TO.P,J9,S*%
X172400000Y-25735000D03*
%TO.P,J9,SN*%
X156170000Y-25735000D03*
%TO.P,J9,T*%
%TO.N,/L_INd*%
X172400000Y-38435000D03*
%TO.P,J9,TN*%
%TO.N,GNDd*%
X156170000Y-38435000D03*
%TD*%
D11*
%TO.P,J4,1,Pin_1*%
%TO.N,GNDd*%
X88120000Y-53500000D03*
D12*
%TO.P,J4,2,Pin_2*%
%TO.N,/R_OUTd*%
X88120000Y-50960000D03*
%TO.P,J4,3,Pin_3*%
%TO.N,GNDd*%
X85580000Y-53500000D03*
%TO.P,J4,4,Pin_4*%
%TO.N,/L_OUTd*%
X85580000Y-50960000D03*
%TO.P,J4,5,Pin_5*%
%TO.N,GNDd*%
X83040000Y-53500000D03*
%TO.P,J4,6,Pin_6*%
%TO.N,/L_INd*%
X83040000Y-50960000D03*
%TO.P,J4,7,Pin_7*%
%TO.N,GNDd*%
X80500000Y-53500000D03*
%TO.P,J4,8,Pin_8*%
%TO.N,/R_INd*%
X80500000Y-50960000D03*
%TO.P,J4,9,Pin_9*%
%TO.N,GNDd*%
X77960000Y-53500000D03*
%TO.P,J4,10,Pin_10*%
%TO.N,+3V3d*%
X77960000Y-50960000D03*
%TO.P,J4,11,Pin_11*%
%TO.N,/EXP_1d*%
X75420000Y-53500000D03*
%TO.P,J4,12,Pin_12*%
%TO.N,/VOL_1d*%
X75420000Y-50960000D03*
%TO.P,J4,13,Pin_13*%
%TO.N,/VOL_2d*%
X72880000Y-53500000D03*
%TO.P,J4,14,Pin_14*%
%TO.N,/MIDI_RXd*%
X72880000Y-50960000D03*
%TO.P,J4,15,Pin_15*%
%TO.N,GNDDd*%
X70340000Y-53500000D03*
%TO.P,J4,16,Pin_16*%
%TO.N,/MIDI_TXd*%
X70340000Y-50960000D03*
%TD*%
D13*
%TO.P,U11,1*%
%TO.N,Net-(R18-Pad2)*%
X142920000Y-36130000D03*
D14*
%TO.P,U11,2*%
%TO.N,Net-(J11-PadT)*%
X145460000Y-36130000D03*
%TO.P,U11,3,NC*%
%TO.N,unconnected-(U11-NC-Pad3)*%
X148000000Y-36130000D03*
%TO.P,U11,4*%
%TO.N,GNDDd*%
X148000000Y-43750000D03*
%TO.P,U11,5*%
%TO.N,/MIDI_RXd*%
X145460000Y-43750000D03*
%TO.P,U11,6*%
%TO.N,unconnected-(U11-Pad6)*%
X142920000Y-43750000D03*
%TD*%
D10*
%TO.P,J11,R*%
%TO.N,Net-(J11-PadR)*%
X117400000Y-32085000D03*
%TO.P,J11,RN*%
%TO.N,unconnected-(J11-PadRN)*%
X101170000Y-32085000D03*
%TO.P,J11,S*%
%TO.N,unconnected-(J11-PadS)*%
X117400000Y-25735000D03*
%TO.P,J11,SN*%
%TO.N,unconnected-(J11-PadSN)*%
X101170000Y-25735000D03*
%TO.P,J11,T*%
%TO.N,Net-(J11-PadT)*%
X117400000Y-38435000D03*
%TO.P,J11,TN*%
%TO.N,unconnected-(J11-PadTN)*%
X101170000Y-38435000D03*
%TD*%
%TO.P,J10,R*%
%TO.N,Net-(J10-PadR)*%
X137400000Y-32085000D03*
%TO.P,J10,RN*%
%TO.N,unconnected-(J10-PadRN)*%
X121170000Y-32085000D03*
%TO.P,J10,S*%
%TO.N,GNDDd*%
X137400000Y-25735000D03*
%TO.P,J10,SN*%
%TO.N,unconnected-(J10-PadSN)*%
X121170000Y-25735000D03*
%TO.P,J10,T*%
%TO.N,Net-(J10-PadT)*%
X137400000Y-38435000D03*
%TO.P,J10,TN*%
%TO.N,unconnected-(J10-PadTN)*%
X121170000Y-38435000D03*
%TD*%
%TO.P,J2,R*%
%TO.N,+3V3d*%
X77400000Y-32085000D03*
%TO.P,J2,RN*%
%TO.N,unconnected-(J2-PadRN)*%
X61170000Y-32085000D03*
%TO.P,J2,S*%
%TO.N,GNDDd*%
X77400000Y-25735000D03*
%TO.P,J2,SN*%
X61170000Y-25735000D03*
%TO.P,J2,T*%
%TO.N,/EXP_1d*%
X77400000Y-38435000D03*
%TO.P,J2,TN*%
%TO.N,GNDDd*%
X61170000Y-38435000D03*
%TD*%
%TO.P,J12,R*%
%TO.N,Net-(C32-Pad2)*%
X197400000Y-32085000D03*
%TO.P,J12,RN*%
%TO.N,unconnected-(J12-PadRN)*%
X181170000Y-32085000D03*
%TO.P,J12,S*%
%TO.N,GNDd*%
X197400000Y-25735000D03*
%TO.P,J12,SN*%
X181170000Y-25735000D03*
%TO.P,J12,T*%
%TO.N,Net-(C33-Pad2)*%
X197400000Y-38435000D03*
%TO.P,J12,TN*%
%TO.N,unconnected-(J12-PadTN)*%
X181170000Y-38435000D03*
%TD*%
%TO.P,J3,R*%
%TO.N,+3V3d*%
X97400000Y-32085000D03*
%TO.P,J3,RN*%
%TO.N,unconnected-(J3-PadRN)*%
X81170000Y-32085000D03*
%TO.P,J3,S*%
%TO.N,GNDDd*%
X97400000Y-25735000D03*
%TO.P,J3,SN*%
X81170000Y-25735000D03*
%TO.P,J3,T*%
%TO.N,/VOL_1d*%
X97400000Y-38435000D03*
%TO.P,J3,TN*%
%TO.N,/VOL_2d*%
X81170000Y-38435000D03*
%TD*%
D15*
%TO.N,GNDd*%
X175975000Y-45210000D03*
X171475000Y-45210000D03*
X94975000Y-40710000D03*
X103975000Y-54210000D03*
X76975000Y-36210000D03*
X67975000Y-27210000D03*
X157975000Y-40710000D03*
X135475000Y-40710000D03*
X153475000Y-54210000D03*
X184975000Y-31710000D03*
X112975000Y-54210000D03*
X144475000Y-54210000D03*
X121975000Y-49710000D03*
X184975000Y-54210000D03*
X139975000Y-36210000D03*
X108475000Y-31710000D03*
X180475000Y-45210000D03*
X144475000Y-40710000D03*
X90475000Y-27210000D03*
X193975000Y-54210000D03*
X180475000Y-36210000D03*
X72475000Y-45210000D03*
X180475000Y-40710000D03*
X72475000Y-36210000D03*
X130975000Y-54210000D03*
X72475000Y-27210000D03*
X67975000Y-40710000D03*
X117475000Y-40710000D03*
X162475000Y-27210000D03*
X85975000Y-31710000D03*
X117475000Y-49710000D03*
X112975000Y-45210000D03*
X171475000Y-54210000D03*
X189475000Y-31710000D03*
X99475000Y-40710000D03*
X63475000Y-54210000D03*
X193975000Y-45210000D03*
X126475000Y-54210000D03*
X180475000Y-54210000D03*
X117475000Y-54210000D03*
X99475000Y-54210000D03*
X175975000Y-54210000D03*
X153475000Y-40710000D03*
X175975000Y-27210000D03*
X121975000Y-54210000D03*
X189475000Y-54210000D03*
X130975000Y-36210000D03*
X130975000Y-31710000D03*
X193975000Y-27210000D03*
X94975000Y-27210000D03*
X67975000Y-45210000D03*
X139975000Y-40710000D03*
X94975000Y-31710000D03*
X162475000Y-54210000D03*
X175975000Y-40710000D03*
X121975000Y-40710000D03*
X153475000Y-36210000D03*
X76975000Y-40710000D03*
X162475000Y-36210000D03*
X166975000Y-40710000D03*
X103975000Y-31710000D03*
X193975000Y-31710000D03*
X175975000Y-36210000D03*
X171475000Y-36210000D03*
X189475000Y-49710000D03*
X108475000Y-40710000D03*
X126475000Y-40710000D03*
X126475000Y-31710000D03*
X90475000Y-40710000D03*
X85975000Y-45210000D03*
X153475000Y-27210000D03*
X67975000Y-31710000D03*
X184975000Y-36210000D03*
X175975000Y-31710000D03*
X189475000Y-27210000D03*
X103975000Y-45210000D03*
X139975000Y-54210000D03*
X130975000Y-45210000D03*
X108475000Y-45210000D03*
X157975000Y-36210000D03*
X166975000Y-54210000D03*
X63475000Y-45210000D03*
X153475000Y-45210000D03*
X85975000Y-40710000D03*
X135475000Y-54210000D03*
X166975000Y-31710000D03*
X72475000Y-40710000D03*
X67975000Y-36210000D03*
X112975000Y-31710000D03*
X139975000Y-31710000D03*
X153475000Y-31710000D03*
X135475000Y-36210000D03*
X189475000Y-36210000D03*
X184975000Y-27210000D03*
X162475000Y-45210000D03*
X90475000Y-54210000D03*
X184975000Y-40710000D03*
X193975000Y-49710000D03*
X63475000Y-40710000D03*
X126475000Y-45210000D03*
X72475000Y-31710000D03*
X90475000Y-31710000D03*
X162475000Y-31710000D03*
X85975000Y-27210000D03*
X67975000Y-49710000D03*
X166975000Y-27210000D03*
X108475000Y-54210000D03*
X112975000Y-40710000D03*
%TO.N,/MIDI_TXd*%
X95400000Y-53100000D03*
%TO.N,Net-(C33-Pad2)*%
X101100000Y-49000000D03*
%TO.N,Net-(C32-Pad2)*%
X123200000Y-45200000D03*
%TD*%
D16*
%TO.N,GNDDd*%
X97400000Y-25735000D02*
X99665000Y-28000000D01*
X137400000Y-26800000D02*
X139050000Y-28450000D01*
X150200000Y-34900000D02*
X150200000Y-41550000D01*
X137400000Y-25735000D02*
X137400000Y-27100000D01*
X137500000Y-27200000D02*
X137400000Y-27100000D01*
D17*
%TO.N,/EXP_1d*%
X74120000Y-54800000D02*
X75420000Y-53500000D01*
X72350000Y-54800000D02*
X74120000Y-54800000D01*
X77400000Y-38435000D02*
X71600000Y-44235000D01*
X71600000Y-44235000D02*
X71600000Y-54050000D01*
D16*
%TO.N,GNDDd*%
X146100000Y-30800000D02*
X150200000Y-34900000D01*
X137400000Y-27100000D02*
X136500000Y-28000000D01*
X137500000Y-28000000D02*
X137500000Y-27200000D01*
X136500000Y-28000000D02*
X137500000Y-28000000D01*
X137500000Y-28000000D02*
X138600000Y-28000000D01*
D17*
%TO.N,Net-(C33-Pad2)*%
X115200000Y-51800000D02*
X184035000Y-51800000D01*
D16*
%TO.N,GNDDd*%
X99665000Y-28000000D02*
X136500000Y-28000000D01*
D17*
%TO.N,Net-(C32-Pad2)*%
X123200000Y-45200000D02*
X127200000Y-49200000D01*
X127200000Y-49200000D02*
X180285000Y-49200000D01*
%TO.N,Net-(C33-Pad2)*%
X112400000Y-49000000D02*
X115200000Y-51800000D01*
X184035000Y-51800000D02*
X197400000Y-38435000D01*
D16*
%TO.N,GNDDd*%
X139050000Y-28450000D02*
X141400000Y-30800000D01*
X138600000Y-28000000D02*
X139050000Y-28450000D01*
D17*
%TO.N,Net-(J11-PadT)*%
X117400000Y-38435000D02*
X120535000Y-35300000D01*
X144000000Y-33600000D02*
X145460000Y-35060000D01*
X120535000Y-35300000D02*
X139700000Y-35300000D01*
X141400000Y-33600000D02*
X144000000Y-33600000D01*
X139700000Y-35300000D02*
X141400000Y-33600000D01*
D16*
%TO.N,GNDDd*%
X141400000Y-30800000D02*
X146100000Y-30800000D01*
D17*
%TO.N,/MIDI_RXd*%
X145460000Y-43750000D02*
X143660000Y-41950000D01*
%TO.N,/MIDI_TXd*%
X69000000Y-52300000D02*
X70340000Y-50960000D01*
X69000000Y-54500000D02*
X69000000Y-52300000D01*
X70800000Y-56300000D02*
X69000000Y-54500000D01*
%TO.N,/MIDI_RXd*%
X81050000Y-41950000D02*
X72880000Y-50120000D01*
X72880000Y-50120000D02*
X72880000Y-50960000D01*
%TO.N,/MIDI_TXd*%
X95400000Y-53100000D02*
X92200000Y-56300000D01*
%TO.N,/MIDI_RXd*%
X143660000Y-41950000D02*
X81050000Y-41950000D01*
%TO.N,Net-(J11-PadT)*%
X145460000Y-35060000D02*
X145460000Y-36130000D01*
%TO.N,/EXP_1d*%
X71600000Y-54050000D02*
X72350000Y-54800000D01*
%TO.N,Net-(C32-Pad2)*%
X180285000Y-49200000D02*
X197400000Y-32085000D01*
%TO.N,Net-(C33-Pad2)*%
X101100000Y-49000000D02*
X112400000Y-49000000D01*
D16*
%TO.N,GNDDd*%
X150200000Y-41550000D02*
X148000000Y-43750000D01*
D17*
%TO.N,/MIDI_TXd*%
X92200000Y-56300000D02*
X70800000Y-56300000D01*
%TD*%
%TA.AperFunction,Conductor*%
%TO.N,/MIDI_RXd*%
G36*
X144460901Y-42524203D02*
G01*
X144568643Y-42626414D01*
X144568643Y-42626415D01*
X144671349Y-42711120D01*
X144671354Y-42711123D01*
X144671356Y-42711125D01*
X144764879Y-42774398D01*
X144764883Y-42774400D01*
X144853320Y-42820141D01*
X144928046Y-42847578D01*
X144940791Y-42852258D01*
X145031396Y-42874656D01*
X145238373Y-42905907D01*
X145238439Y-42905947D01*
X145238444Y-42905918D01*
X145604053Y-42963479D01*
X145611691Y-42968151D01*
X145613790Y-42976857D01*
X145613710Y-42977308D01*
X145462227Y-43743020D01*
X145457259Y-43750470D01*
X145453020Y-43752227D01*
X144687308Y-43903710D01*
X144678527Y-43901953D01*
X144673559Y-43894503D01*
X144673484Y-43894080D01*
X144615918Y-43528444D01*
X144581681Y-43307064D01*
X144581678Y-43307053D01*
X144531084Y-43145483D01*
X144531077Y-43145466D01*
X144489969Y-43064354D01*
X144489966Y-43064349D01*
X144489960Y-43064337D01*
X144434362Y-42979273D01*
X144345276Y-42868665D01*
X144345272Y-42868660D01*
X144345269Y-42868657D01*
X144234161Y-42750901D01*
X144230976Y-42742532D01*
X144234397Y-42734600D01*
X144444579Y-42524418D01*
X144452851Y-42520992D01*
X144460901Y-42524203D01*
G37*
%TD.AperFunction*%
%TD*%
%TA.AperFunction,Conductor*%
%TO.N,/MIDI_TXd*%
G36*
X69518247Y-50796530D02*
G01*
X69566981Y-50806175D01*
X70333021Y-50957772D01*
X70340472Y-50962739D01*
X70342227Y-50966978D01*
X70503497Y-51781893D01*
X70501742Y-51790674D01*
X70494291Y-51795641D01*
X70493998Y-51795696D01*
X70277570Y-51832825D01*
X70277103Y-51832895D01*
X70106517Y-51855115D01*
X70090785Y-51857165D01*
X69941096Y-51880048D01*
X69838463Y-51895738D01*
X69838454Y-51895740D01*
X69674770Y-51949573D01*
X69674757Y-51949578D01*
X69591010Y-51993251D01*
X69502924Y-52051778D01*
X69502920Y-52051780D01*
X69390184Y-52143179D01*
X69390166Y-52143195D01*
X69270871Y-52255862D01*
X69262504Y-52259051D01*
X69254565Y-52255629D01*
X69044382Y-52045446D01*
X69040955Y-52037173D01*
X69044160Y-52029128D01*
X69078135Y-51993253D01*
X69152154Y-51915094D01*
X69241216Y-51806535D01*
X69307610Y-51707531D01*
X69355430Y-51613891D01*
X69388769Y-51521429D01*
X69411720Y-51425954D01*
X69442834Y-51209216D01*
X69450928Y-51143307D01*
X69450972Y-51143002D01*
X69504428Y-50806174D01*
X69509109Y-50798541D01*
X69517817Y-50796454D01*
X69518247Y-50796530D01*
G37*
%TD.AperFunction*%
%TD*%
%TA.AperFunction,Conductor*%
%TO.N,Net-(J11-PadT)*%
G36*
X145217513Y-34591231D02*
G01*
X145285679Y-34659344D01*
X145285681Y-34659351D01*
X145285684Y-34659349D01*
X145404905Y-34778616D01*
X145405025Y-34778738D01*
X145605773Y-34985518D01*
X145606243Y-34986033D01*
X145758678Y-35163016D01*
X145759236Y-35163716D01*
X145914848Y-35375144D01*
X145915111Y-35375516D01*
X146118578Y-35675807D01*
X146120382Y-35684578D01*
X146115455Y-35692056D01*
X146115404Y-35692090D01*
X145464744Y-36128001D01*
X145455964Y-36129759D01*
X145455941Y-36129755D01*
X144687932Y-35976435D01*
X144680490Y-35971454D01*
X144678749Y-35962670D01*
X144678999Y-35961656D01*
X144723819Y-35810053D01*
X144724520Y-35808249D01*
X144781095Y-35692090D01*
X144793205Y-35667226D01*
X144793896Y-35666002D01*
X144874167Y-35542303D01*
X144874583Y-35541707D01*
X144957372Y-35431019D01*
X144988614Y-35390110D01*
X145082809Y-35251398D01*
X145124510Y-35146930D01*
X145127997Y-35049282D01*
X145114250Y-34996806D01*
X145088439Y-34941875D01*
X145044553Y-34877759D01*
X144990381Y-34817490D01*
X144987400Y-34809047D01*
X144990809Y-34801397D01*
X145200972Y-34591234D01*
X145209244Y-34587808D01*
X145217513Y-34591231D01*
G37*
%TD.AperFunction*%
%TD*%
%TA.AperFunction,Conductor*%
%TO.N,Net-(J11-PadT)*%
G36*
X119053542Y-36571158D02*
G01*
X119264057Y-36781673D01*
X119267484Y-36789946D01*
X119264558Y-36797686D01*
X119114457Y-36967850D01*
X118999898Y-37141803D01*
X118999895Y-37141809D01*
X118922007Y-37311911D01*
X118874687Y-37478703D01*
X118851806Y-37642774D01*
X118851806Y-37642776D01*
X118847247Y-37804654D01*
X118847247Y-37804674D01*
X118868600Y-38124204D01*
X118886230Y-38350045D01*
X118883457Y-38358560D01*
X118875476Y-38362621D01*
X118875144Y-38362642D01*
X117412196Y-38435068D01*
X117403763Y-38432054D01*
X117399931Y-38423961D01*
X117399931Y-38422819D01*
X117472357Y-36959853D01*
X117476189Y-36951762D01*
X117484622Y-36948748D01*
X117484896Y-36948765D01*
X117710731Y-36966395D01*
X117710746Y-36966396D01*
X117710784Y-36966399D01*
X117710783Y-36966399D01*
X117809718Y-36973224D01*
X118016457Y-36987487D01*
X118246170Y-36977960D01*
X118451331Y-36936629D01*
X118647429Y-36859232D01*
X118744783Y-36804966D01*
X118843431Y-36738363D01*
X118943739Y-36658085D01*
X119037294Y-36570871D01*
X119045679Y-36567738D01*
X119053542Y-36571158D01*
G37*
%TD.AperFunction*%
%TD*%
%TA.AperFunction,Conductor*%
%TO.N,/EXP_1d*%
G36*
X77396236Y-38437945D02*
G01*
X77400068Y-38446038D01*
X77400068Y-38447196D01*
X77327642Y-39910144D01*
X77323810Y-39918237D01*
X77315377Y-39921251D01*
X77315045Y-39921230D01*
X77241051Y-39915453D01*
X77089270Y-39903605D01*
X77089254Y-39903603D01*
X77089217Y-39903601D01*
X77089217Y-39903600D01*
X76783542Y-39882512D01*
X76783541Y-39882512D01*
X76774393Y-39882891D01*
X76553829Y-39892039D01*
X76348667Y-39933371D01*
X76348664Y-39933372D01*
X76152571Y-40010766D01*
X76152567Y-40010768D01*
X76055214Y-40065033D01*
X75956568Y-40131636D01*
X75856251Y-40211922D01*
X75762708Y-40299126D01*
X75754320Y-40302261D01*
X75746457Y-40298841D01*
X75535942Y-40088326D01*
X75532515Y-40080053D01*
X75535441Y-40072313D01*
X75589730Y-40010768D01*
X75685541Y-39902152D01*
X75800107Y-39728187D01*
X75877990Y-39558091D01*
X75925312Y-39391296D01*
X75948192Y-39227231D01*
X75952752Y-39065328D01*
X75940461Y-38881412D01*
X75931400Y-38745797D01*
X75931395Y-38745731D01*
X75913769Y-38519951D01*
X75916542Y-38511439D01*
X75924523Y-38507378D01*
X75924794Y-38507360D01*
X77387805Y-38434931D01*
X77396236Y-38437945D01*
G37*
%TD.AperFunction*%
%TD*%
%TA.AperFunction,Conductor*%
%TO.N,/EXP_1d*%
G36*
X74598247Y-53336530D02*
G01*
X74646981Y-53346175D01*
X75413021Y-53497772D01*
X75420472Y-53502739D01*
X75422227Y-53506978D01*
X75583497Y-54321893D01*
X75581742Y-54330674D01*
X75574291Y-54335641D01*
X75573998Y-54335696D01*
X75357570Y-54372825D01*
X75357103Y-54372895D01*
X75186517Y-54395115D01*
X75170785Y-54397165D01*
X75021096Y-54420048D01*
X74918463Y-54435738D01*
X74918454Y-54435740D01*
X74754770Y-54489573D01*
X74754757Y-54489578D01*
X74671010Y-54533251D01*
X74582924Y-54591778D01*
X74582920Y-54591780D01*
X74470184Y-54683179D01*
X74470166Y-54683195D01*
X74350871Y-54795862D01*
X74342504Y-54799051D01*
X74334565Y-54795629D01*
X74124382Y-54585446D01*
X74120955Y-54577173D01*
X74124160Y-54569128D01*
X74158135Y-54533253D01*
X74232154Y-54455094D01*
X74321216Y-54346535D01*
X74387610Y-54247531D01*
X74435430Y-54153891D01*
X74468769Y-54061429D01*
X74491720Y-53965954D01*
X74522834Y-53749216D01*
X74530928Y-53683307D01*
X74530972Y-53683002D01*
X74584428Y-53346174D01*
X74589109Y-53338541D01*
X74597817Y-53336454D01*
X74598247Y-53336530D01*
G37*
%TD.AperFunction*%
%TD*%
%TA.AperFunction,Conductor*%
%TO.N,GNDDd*%
G36*
X137411366Y-25739011D02*
G01*
X138782431Y-26274843D01*
X138788889Y-26281046D01*
X138789069Y-26289999D01*
X138788885Y-26290444D01*
X138719263Y-26448988D01*
X138719218Y-26449090D01*
X138657211Y-26586734D01*
X138577404Y-26802195D01*
X138539224Y-26985778D01*
X138537812Y-27150690D01*
X138537812Y-27150692D01*
X138541145Y-27165638D01*
X138572110Y-27304508D01*
X138591542Y-27350762D01*
X138603278Y-27378697D01*
X138603281Y-27378704D01*
X138645161Y-27452625D01*
X138645171Y-27452641D01*
X138696239Y-27522815D01*
X138698504Y-27525928D01*
X138756806Y-27590338D01*
X138759818Y-27598772D01*
X138756405Y-27606463D01*
X138206969Y-28155899D01*
X138198696Y-28159326D01*
X138190423Y-28155899D01*
X138190320Y-28155795D01*
X137886339Y-27844102D01*
X137568368Y-27522825D01*
X137568360Y-27522817D01*
X137568358Y-27522815D01*
X137365819Y-27350762D01*
X137187295Y-27239634D01*
X137187292Y-27239633D01*
X137187291Y-27239632D01*
X137187289Y-27239631D01*
X137011926Y-27171818D01*
X137005446Y-27165638D01*
X137004871Y-27157785D01*
X137395832Y-25746782D01*
X137401342Y-25739726D01*
X137410230Y-25738633D01*
X137411366Y-25739011D01*
G37*
%TD.AperFunction*%
%TD*%
%TA.AperFunction,Conductor*%
%TO.N,GNDDd*%
G36*
X98876018Y-25807401D02*
G01*
X98884109Y-25811232D01*
X98887137Y-25819117D01*
X98886479Y-26069476D01*
X98886480Y-26069486D01*
X98916010Y-26304957D01*
X98979744Y-26528571D01*
X98979745Y-26528576D01*
X99083067Y-26750164D01*
X99083068Y-26750167D01*
X99151693Y-26861984D01*
X99151696Y-26861987D01*
X99233652Y-26976069D01*
X99233663Y-26976083D01*
X99329860Y-27092277D01*
X99433749Y-27202584D01*
X99436927Y-27210956D01*
X99433505Y-27218879D01*
X98884056Y-27768328D01*
X98875783Y-27771755D01*
X98867578Y-27768395D01*
X98843355Y-27744560D01*
X98725031Y-27636861D01*
X98725017Y-27636850D01*
X98725014Y-27636847D01*
X98609069Y-27544426D01*
X98492480Y-27464298D01*
X98492457Y-27464283D01*
X98378253Y-27397894D01*
X98378227Y-27397880D01*
X98259224Y-27340980D01*
X98259225Y-27340980D01*
X98142800Y-27296877D01*
X98142797Y-27296876D01*
X98013069Y-27260373D01*
X98013065Y-27260372D01*
X98013061Y-27260371D01*
X97945230Y-27247601D01*
X97886552Y-27236555D01*
X97886545Y-27236554D01*
X97675303Y-27219078D01*
X97675297Y-27219078D01*
X97675296Y-27219078D01*
X97636264Y-27219673D01*
X97484258Y-27221994D01*
X97475933Y-27218693D01*
X97472394Y-27210876D01*
X97399931Y-25747194D01*
X97402945Y-25738763D01*
X97411038Y-25734931D01*
X97412180Y-25734931D01*
X98876018Y-25807401D01*
G37*
%TD.AperFunction*%
%TD*%
%TA.AperFunction,Conductor*%
%TO.N,GNDDd*%
G36*
X137404909Y-25745286D02*
G01*
X137405401Y-25746384D01*
X137933280Y-27106047D01*
X137938315Y-27119014D01*
X137938115Y-27127966D01*
X137932258Y-27133895D01*
X137855509Y-27168857D01*
X137855488Y-27168868D01*
X137775388Y-27216754D01*
X137775379Y-27216760D01*
X137628228Y-27336687D01*
X137486911Y-27487245D01*
X137337504Y-27666564D01*
X137337496Y-27666573D01*
X137140103Y-27903008D01*
X137139702Y-27903464D01*
X136861829Y-28203204D01*
X136853692Y-28206942D01*
X136845295Y-28203830D01*
X136844976Y-28203523D01*
X136295693Y-27654240D01*
X136292266Y-27645967D01*
X136295229Y-27638187D01*
X136347533Y-27579486D01*
X136393892Y-27512014D01*
X136427941Y-27444191D01*
X136450658Y-27376197D01*
X136466020Y-27240403D01*
X136447817Y-27106054D01*
X136403889Y-26974573D01*
X136342075Y-26847383D01*
X136196142Y-26611566D01*
X136081282Y-26424561D01*
X136079873Y-26415720D01*
X136085130Y-26408470D01*
X136085903Y-26408034D01*
X137389162Y-25740208D01*
X137398086Y-25739486D01*
X137404909Y-25745286D01*
G37*
%TD.AperFunction*%
%TD*%
%TA.AperFunction,Conductor*%
%TO.N,GNDDd*%
G36*
X137407994Y-25742588D02*
G01*
X137408946Y-25743304D01*
X138535832Y-26684171D01*
X138539986Y-26692104D01*
X138537314Y-26700651D01*
X138536542Y-26701488D01*
X138474534Y-26762551D01*
X138473668Y-26763323D01*
X138371241Y-26845902D01*
X138370757Y-26846273D01*
X138108213Y-27036257D01*
X137761721Y-27290630D01*
X137761708Y-27290641D01*
X137617206Y-27420069D01*
X137561153Y-27496578D01*
X137553414Y-27543992D01*
X137553414Y-27543994D01*
X137565181Y-27564777D01*
X137589665Y-27581083D01*
X137589667Y-27581084D01*
X137642948Y-27595136D01*
X137711185Y-27599325D01*
X137719232Y-27603252D01*
X137722167Y-27611003D01*
X137722167Y-28387697D01*
X137718740Y-28395970D01*
X137710467Y-28399397D01*
X137709880Y-28399382D01*
X137619522Y-28394841D01*
X137618251Y-28394708D01*
X137525773Y-28379832D01*
X137524418Y-28379530D01*
X137440912Y-28355678D01*
X137439534Y-28355190D01*
X137364282Y-28323090D01*
X137362960Y-28322424D01*
X137295298Y-28282793D01*
X137294101Y-28281989D01*
X137233587Y-28235683D01*
X137232148Y-28234378D01*
X137128573Y-28123242D01*
X137127269Y-28121558D01*
X137044223Y-27991408D01*
X137043494Y-27990084D01*
X136976091Y-27846413D01*
X136975652Y-27845341D01*
X136868557Y-27540023D01*
X136868490Y-27539823D01*
X136814245Y-27375692D01*
X136733668Y-27179522D01*
X136653431Y-27052451D01*
X136572431Y-26977026D01*
X136568711Y-26968880D01*
X136570705Y-26961920D01*
X137391751Y-25745737D01*
X137399219Y-25740799D01*
X137407994Y-25742588D01*
G37*
%TD.AperFunction*%
%TD*%
%TA.AperFunction,Conductor*%
%TO.N,GNDDd*%
G36*
X148845699Y-42354697D02*
G01*
X149395475Y-42904473D01*
X149398902Y-42912746D01*
X149395879Y-42920594D01*
X149219232Y-43115896D01*
X149219231Y-43115897D01*
X149100028Y-43287880D01*
X149100027Y-43287881D01*
X149022498Y-43443179D01*
X149022489Y-43443197D01*
X148963374Y-43596783D01*
X148930986Y-43684088D01*
X148930725Y-43684735D01*
X148825708Y-43923200D01*
X148825252Y-43924122D01*
X148755737Y-44050513D01*
X148755387Y-44051107D01*
X148671572Y-44184292D01*
X148664266Y-44189468D01*
X148655438Y-44187962D01*
X148655182Y-44187796D01*
X148001242Y-43752005D01*
X147997994Y-43748757D01*
X147752606Y-43380533D01*
X147562256Y-43094897D01*
X147560521Y-43086113D01*
X147565505Y-43078674D01*
X147565841Y-43078458D01*
X147737554Y-42972302D01*
X147738306Y-42971876D01*
X147893689Y-42891540D01*
X147894652Y-42891098D01*
X148153145Y-42786655D01*
X148153422Y-42786548D01*
X148220182Y-42761904D01*
X148414072Y-42676752D01*
X148505659Y-42623267D01*
X148603920Y-42554307D01*
X148714375Y-42463142D01*
X148829393Y-42354465D01*
X148837757Y-42351275D01*
X148845699Y-42354697D01*
G37*
%TD.AperFunction*%
%TD*%
%TA.AperFunction,Conductor*%
%TO.N,Net-(C32-Pad2)*%
G36*
X197396236Y-32087945D02*
G01*
X197400068Y-32096038D01*
X197400068Y-32097196D01*
X197327642Y-33560144D01*
X197323810Y-33568237D01*
X197315377Y-33571251D01*
X197315045Y-33571230D01*
X197241051Y-33565453D01*
X197089270Y-33553605D01*
X197089254Y-33553603D01*
X197089217Y-33553601D01*
X197089217Y-33553600D01*
X196783542Y-33532512D01*
X196783541Y-33532512D01*
X196774393Y-33532891D01*
X196553829Y-33542039D01*
X196348667Y-33583371D01*
X196348664Y-33583372D01*
X196152571Y-33660766D01*
X196152567Y-33660768D01*
X196055214Y-33715033D01*
X195956568Y-33781636D01*
X195856251Y-33861922D01*
X195762708Y-33949126D01*
X195754320Y-33952261D01*
X195746457Y-33948841D01*
X195535942Y-33738326D01*
X195532515Y-33730053D01*
X195535441Y-33722313D01*
X195589730Y-33660768D01*
X195685541Y-33552152D01*
X195800107Y-33378187D01*
X195877990Y-33208091D01*
X195925312Y-33041296D01*
X195948192Y-32877231D01*
X195952752Y-32715328D01*
X195940461Y-32531412D01*
X195931400Y-32395797D01*
X195931395Y-32395731D01*
X195913769Y-32169951D01*
X195916542Y-32161439D01*
X195924523Y-32157378D01*
X195924794Y-32157360D01*
X197387805Y-32084931D01*
X197396236Y-32087945D01*
G37*
%TD.AperFunction*%
%TD*%
%TA.AperFunction,Conductor*%
%TO.N,Net-(C33-Pad2)*%
G36*
X197396236Y-38437945D02*
G01*
X197400068Y-38446038D01*
X197400068Y-38447196D01*
X197327642Y-39910144D01*
X197323810Y-39918237D01*
X197315377Y-39921251D01*
X197315045Y-39921230D01*
X197241051Y-39915453D01*
X197089270Y-39903605D01*
X197089254Y-39903603D01*
X197089217Y-39903601D01*
X197089217Y-39903600D01*
X196783542Y-39882512D01*
X196783541Y-39882512D01*
X196774393Y-39882891D01*
X196553829Y-39892039D01*
X196348667Y-39933371D01*
X196348664Y-39933372D01*
X196152571Y-40010766D01*
X196152567Y-40010768D01*
X196055214Y-40065033D01*
X195956568Y-40131636D01*
X195856251Y-40211922D01*
X195762708Y-40299126D01*
X195754320Y-40302261D01*
X195746457Y-40298841D01*
X195535942Y-40088326D01*
X195532515Y-40080053D01*
X195535441Y-40072313D01*
X195589730Y-40010768D01*
X195685541Y-39902152D01*
X195800107Y-39728187D01*
X195877990Y-39558091D01*
X195925312Y-39391296D01*
X195948192Y-39227231D01*
X195952752Y-39065328D01*
X195940461Y-38881412D01*
X195931400Y-38745797D01*
X195931395Y-38745731D01*
X195913769Y-38519951D01*
X195916542Y-38511439D01*
X195924523Y-38507378D01*
X195924794Y-38507360D01*
X197387805Y-38434931D01*
X197396236Y-38437945D01*
G37*
%TD.AperFunction*%
%TD*%
%TA.AperFunction,Conductor*%
%TO.N,GNDd*%
G36*
X76693480Y-24022174D02*
G01*
X76715154Y-24074500D01*
X76693480Y-24126826D01*
X76669472Y-24142867D01*
X76624120Y-24161652D01*
X76624112Y-24161655D01*
X76425388Y-24276388D01*
X76243334Y-24416085D01*
X76081085Y-24578334D01*
X75941388Y-24760388D01*
X75826655Y-24959112D01*
X75826654Y-24959114D01*
X75738841Y-25171115D01*
X75679451Y-25392761D01*
X75649500Y-25620267D01*
X75649500Y-25849732D01*
X75679451Y-26077238D01*
X75738841Y-26298884D01*
X75826654Y-26510885D01*
X75826655Y-26510887D01*
X75926426Y-26683695D01*
X75941389Y-26709612D01*
X76081081Y-26891661D01*
X76243339Y-27053919D01*
X76387058Y-27164199D01*
X76425388Y-27193611D01*
X76624112Y-27308344D01*
X76624114Y-27308345D01*
X76634145Y-27312500D01*
X76836113Y-27396158D01*
X77057762Y-27455548D01*
X77057761Y-27455548D01*
X77133596Y-27465532D01*
X77285266Y-27485500D01*
X77285268Y-27485500D01*
X77514732Y-27485500D01*
X77514734Y-27485500D01*
X77742238Y-27455548D01*
X77963887Y-27396158D01*
X78175888Y-27308344D01*
X78374612Y-27193611D01*
X78556661Y-27053919D01*
X78718919Y-26891661D01*
X78858611Y-26709612D01*
X78973344Y-26510888D01*
X79061158Y-26298887D01*
X79120548Y-26077238D01*
X79150500Y-25849734D01*
X79150500Y-25620266D01*
X79120548Y-25392762D01*
X79061158Y-25171113D01*
X78973344Y-24959112D01*
X78858611Y-24760388D01*
X78718919Y-24578339D01*
X78556661Y-24416081D01*
X78374612Y-24276389D01*
X78374613Y-24276389D01*
X78374611Y-24276388D01*
X78175887Y-24161655D01*
X78175879Y-24161652D01*
X78130528Y-24142867D01*
X78090479Y-24102819D01*
X78090479Y-24046182D01*
X78130527Y-24006133D01*
X78158846Y-24000500D01*
X80411154Y-24000500D01*
X80463480Y-24022174D01*
X80485154Y-24074500D01*
X80463480Y-24126826D01*
X80439472Y-24142867D01*
X80394120Y-24161652D01*
X80394112Y-24161655D01*
X80195388Y-24276388D01*
X80013334Y-24416085D01*
X79851085Y-24578334D01*
X79711388Y-24760388D01*
X79596655Y-24959112D01*
X79596654Y-24959114D01*
X79508841Y-25171115D01*
X79449451Y-25392761D01*
X79419500Y-25620267D01*
X79419500Y-25849732D01*
X79449451Y-26077238D01*
X79508841Y-26298884D01*
X79596654Y-26510885D01*
X79596655Y-26510887D01*
X79696426Y-26683695D01*
X79711389Y-26709612D01*
X79851081Y-26891661D01*
X80013339Y-27053919D01*
X80157058Y-27164199D01*
X80195388Y-27193611D01*
X80394112Y-27308344D01*
X80394114Y-27308345D01*
X80404145Y-27312500D01*
X80606113Y-27396158D01*
X80827762Y-27455548D01*
X80827761Y-27455548D01*
X80903596Y-27465532D01*
X81055266Y-27485500D01*
X81055268Y-27485500D01*
X81284732Y-27485500D01*
X81284734Y-27485500D01*
X81512238Y-27455548D01*
X81733887Y-27396158D01*
X81945888Y-27308344D01*
X82144612Y-27193611D01*
X82326661Y-27053919D01*
X82488919Y-26891661D01*
X82628611Y-26709612D01*
X82743344Y-26510888D01*
X82831158Y-26298887D01*
X82890548Y-26077238D01*
X82920500Y-25849734D01*
X82920500Y-25620266D01*
X82890548Y-25392762D01*
X82831158Y-25171113D01*
X82743344Y-24959112D01*
X82628611Y-24760388D01*
X82488919Y-24578339D01*
X82326661Y-24416081D01*
X82144612Y-24276389D01*
X82144613Y-24276389D01*
X82144611Y-24276388D01*
X81945887Y-24161655D01*
X81945879Y-24161652D01*
X81900528Y-24142867D01*
X81860479Y-24102819D01*
X81860479Y-24046182D01*
X81900527Y-24006133D01*
X81928846Y-24000500D01*
X96641154Y-24000500D01*
X96693480Y-24022174D01*
X96715154Y-24074500D01*
X96693480Y-24126826D01*
X96669472Y-24142867D01*
X96624120Y-24161652D01*
X96624112Y-24161655D01*
X96425388Y-24276388D01*
X96243334Y-24416085D01*
X96081085Y-24578334D01*
X95941388Y-24760388D01*
X95826655Y-24959112D01*
X95826654Y-24959114D01*
X95738841Y-25171115D01*
X95679451Y-25392761D01*
X95649500Y-25620267D01*
X95649500Y-25849732D01*
X95679451Y-26077238D01*
X95738841Y-26298884D01*
X95826654Y-26510885D01*
X95826655Y-26510887D01*
X95926426Y-26683695D01*
X95941389Y-26709612D01*
X96081081Y-26891661D01*
X96243339Y-27053919D01*
X96387058Y-27164199D01*
X96425388Y-27193611D01*
X96624112Y-27308344D01*
X96624114Y-27308345D01*
X96634145Y-27312500D01*
X96836113Y-27396158D01*
X97057762Y-27455548D01*
X97057761Y-27455548D01*
X97133596Y-27465532D01*
X97285266Y-27485500D01*
X97285268Y-27485500D01*
X97514732Y-27485500D01*
X97514734Y-27485500D01*
X97583034Y-27476507D01*
X97591543Y-27475884D01*
X97640165Y-27475143D01*
X97640164Y-27475142D01*
X97656807Y-27474888D01*
X97663070Y-27474793D01*
X97670285Y-27475035D01*
X97848464Y-27489776D01*
X97856036Y-27490799D01*
X97951520Y-27508773D01*
X97957844Y-27510255D01*
X98059664Y-27538905D01*
X98065810Y-27540930D01*
X98155807Y-27575021D01*
X98161461Y-27577439D01*
X98256052Y-27622667D01*
X98261297Y-27625439D01*
X98353298Y-27678921D01*
X98358001Y-27681898D01*
X98454177Y-27747997D01*
X98454726Y-27748374D01*
X98458938Y-27751494D01*
X98557342Y-27829933D01*
X98561027Y-27833073D01*
X98667707Y-27930174D01*
X98688377Y-27950513D01*
X98706716Y-27962607D01*
X98709929Y-27965292D01*
X98710368Y-27966131D01*
X98714802Y-27969748D01*
X99250331Y-28505277D01*
X99356873Y-28576465D01*
X99475256Y-28625501D01*
X99475258Y-28625501D01*
X99475260Y-28625502D01*
X99517903Y-28633984D01*
X99600931Y-28650500D01*
X99600933Y-28650500D01*
X137616269Y-28650500D01*
X137697056Y-28654560D01*
X137703353Y-28654799D01*
X137703940Y-28654814D01*
X137710473Y-28654897D01*
X137732576Y-28650500D01*
X138299902Y-28650500D01*
X138352228Y-28672174D01*
X138544723Y-28864669D01*
X140985331Y-31305277D01*
X141047323Y-31346698D01*
X141091873Y-31376465D01*
X141210256Y-31425501D01*
X141210258Y-31425501D01*
X141210260Y-31425502D01*
X141252903Y-31433984D01*
X141335931Y-31450500D01*
X145799902Y-31450500D01*
X145852228Y-31472174D01*
X149527826Y-35147772D01*
X149549500Y-35200098D01*
X149549500Y-41249901D01*
X149527826Y-41302227D01*
X148679661Y-42150391D01*
X148666691Y-42160731D01*
X148653926Y-42168747D01*
X148653919Y-42168753D01*
X148546933Y-42269839D01*
X148543215Y-42273123D01*
X148451204Y-42349065D01*
X148446609Y-42352565D01*
X148370135Y-42406234D01*
X148364944Y-42409563D01*
X148301571Y-42446572D01*
X148294009Y-42450425D01*
X148126522Y-42523981D01*
X148122395Y-42525647D01*
X148064950Y-42546854D01*
X148061351Y-42548214D01*
X148061105Y-42548308D01*
X148057383Y-42549779D01*
X147798930Y-42654206D01*
X147788079Y-42658884D01*
X147787144Y-42659314D01*
X147776328Y-42664589D01*
X147620983Y-42744905D01*
X147612345Y-42749582D01*
X147611626Y-42749989D01*
X147603193Y-42754983D01*
X147431423Y-42861175D01*
X147427735Y-42863499D01*
X147427276Y-42863794D01*
X147423825Y-42866054D01*
X147423819Y-42866059D01*
X147412228Y-42877621D01*
X147401083Y-42886755D01*
X147330351Y-42934018D01*
X147330347Y-42934021D01*
X147184023Y-43080344D01*
X147184022Y-43080345D01*
X147069059Y-43252401D01*
X146989870Y-43443579D01*
X146989868Y-43443586D01*
X146949500Y-43646535D01*
X146949500Y-43853464D01*
X146989868Y-44056413D01*
X146989870Y-44056420D01*
X147069059Y-44247598D01*
X147159771Y-44383360D01*
X147184023Y-44419655D01*
X147330345Y-44565977D01*
X147502402Y-44680941D01*
X147693580Y-44760130D01*
X147896535Y-44800500D01*
X147896536Y-44800500D01*
X148103464Y-44800500D01*
X148103465Y-44800500D01*
X148306420Y-44760130D01*
X148497598Y-44680941D01*
X148669655Y-44565977D01*
X148815977Y-44419655D01*
X148865632Y-44345340D01*
X148873417Y-44335584D01*
X148887815Y-44320377D01*
X148971630Y-44187192D01*
X148972740Y-44185369D01*
X148975501Y-44180838D01*
X148975516Y-44180813D01*
X148975866Y-44180219D01*
X148979610Y-44173643D01*
X149049125Y-44047252D01*
X149054273Y-44037390D01*
X149054729Y-44036468D01*
X149059538Y-44026176D01*
X149164555Y-43787711D01*
X149167672Y-43780319D01*
X149167933Y-43779672D01*
X149170534Y-43772954D01*
X149202275Y-43687387D01*
X149202487Y-43686826D01*
X149255275Y-43549680D01*
X149258125Y-43543218D01*
X149318083Y-43423114D01*
X149323460Y-43414031D01*
X149417084Y-43278954D01*
X149423011Y-43271483D01*
X149585368Y-43091983D01*
X149592646Y-43080149D01*
X149603347Y-43066597D01*
X150705277Y-41964669D01*
X150776465Y-41858127D01*
X150825501Y-41739744D01*
X150833815Y-41697947D01*
X150850500Y-41614069D01*
X150850500Y-38320267D01*
X170649500Y-38320267D01*
X170649500Y-38549732D01*
X170679451Y-38777238D01*
X170738841Y-38998884D01*
X170826654Y-39210885D01*
X170826655Y-39210887D01*
X170941388Y-39409611D01*
X170966055Y-39441757D01*
X171081081Y-39591661D01*
X171243339Y-39753919D01*
X171425388Y-39893611D01*
X171624112Y-40008344D01*
X171836113Y-40096158D01*
X172057762Y-40155548D01*
X172057761Y-40155548D01*
X172133596Y-40165532D01*
X172285266Y-40185500D01*
X172285268Y-40185500D01*
X172514732Y-40185500D01*
X172514734Y-40185500D01*
X172742238Y-40155548D01*
X172963887Y-40096158D01*
X173175888Y-40008344D01*
X173374612Y-39893611D01*
X173556661Y-39753919D01*
X173718919Y-39591661D01*
X173858611Y-39409612D01*
X173973344Y-39210888D01*
X174061158Y-38998887D01*
X174120548Y-38777238D01*
X174150500Y-38549734D01*
X174150500Y-38320267D01*
X179419500Y-38320267D01*
X179419500Y-38549732D01*
X179449451Y-38777238D01*
X179508841Y-38998884D01*
X179596654Y-39210885D01*
X179596655Y-39210887D01*
X179711388Y-39409611D01*
X179736055Y-39441757D01*
X179851081Y-39591661D01*
X180013339Y-39753919D01*
X180195388Y-39893611D01*
X180394112Y-40008344D01*
X180606113Y-40096158D01*
X180827762Y-40155548D01*
X180827761Y-40155548D01*
X180903596Y-40165532D01*
X181055266Y-40185500D01*
X181055268Y-40185500D01*
X181284732Y-40185500D01*
X181284734Y-40185500D01*
X181512238Y-40155548D01*
X181733887Y-40096158D01*
X181945888Y-40008344D01*
X182144612Y-39893611D01*
X182326661Y-39753919D01*
X182488919Y-39591661D01*
X182628611Y-39409612D01*
X182743344Y-39210888D01*
X182831158Y-38998887D01*
X182890548Y-38777238D01*
X182920500Y-38549734D01*
X182920500Y-38320266D01*
X182905524Y-38206514D01*
X182890548Y-38092761D01*
X182839500Y-37902246D01*
X182831158Y-37871113D01*
X182743344Y-37659112D01*
X182628611Y-37460388D01*
X182488919Y-37278339D01*
X182326661Y-37116081D01*
X182144612Y-36976389D01*
X182144613Y-36976389D01*
X182144611Y-36976388D01*
X181945887Y-36861655D01*
X181945885Y-36861654D01*
X181766817Y-36787482D01*
X181733887Y-36773842D01*
X181733885Y-36773841D01*
X181733884Y-36773841D01*
X181512237Y-36714451D01*
X181512238Y-36714451D01*
X181313050Y-36688228D01*
X181284734Y-36684500D01*
X181055266Y-36684500D01*
X181026950Y-36688228D01*
X180827761Y-36714451D01*
X180606115Y-36773841D01*
X180394114Y-36861654D01*
X180394112Y-36861655D01*
X180195388Y-36976388D01*
X180013334Y-37116085D01*
X179851085Y-37278334D01*
X179711388Y-37460388D01*
X179596655Y-37659112D01*
X179596654Y-37659114D01*
X179508841Y-37871115D01*
X179449451Y-38092761D01*
X179419500Y-38320267D01*
X174150500Y-38320267D01*
X174150500Y-38320266D01*
X174135524Y-38206514D01*
X174120548Y-38092761D01*
X174069500Y-37902246D01*
X174061158Y-37871113D01*
X173973344Y-37659112D01*
X173858611Y-37460388D01*
X173718919Y-37278339D01*
X173556661Y-37116081D01*
X173374612Y-36976389D01*
X173374613Y-36976389D01*
X173374611Y-36976388D01*
X173175887Y-36861655D01*
X173175885Y-36861654D01*
X172996817Y-36787482D01*
X172963887Y-36773842D01*
X172963885Y-36773841D01*
X172963884Y-36773841D01*
X172742237Y-36714451D01*
X172742238Y-36714451D01*
X172543050Y-36688228D01*
X172514734Y-36684500D01*
X172285266Y-36684500D01*
X172256950Y-36688228D01*
X172057761Y-36714451D01*
X171836115Y-36773841D01*
X171624114Y-36861654D01*
X171624112Y-36861655D01*
X171425388Y-36976388D01*
X171243334Y-37116085D01*
X171081085Y-37278334D01*
X170941388Y-37460388D01*
X170826655Y-37659112D01*
X170826654Y-37659114D01*
X170738841Y-37871115D01*
X170679451Y-38092761D01*
X170649500Y-38320267D01*
X150850500Y-38320267D01*
X150850500Y-34835931D01*
X150825501Y-34710256D01*
X150800335Y-34649500D01*
X150776466Y-34591874D01*
X150705277Y-34485331D01*
X148190213Y-31970267D01*
X170649500Y-31970267D01*
X170649500Y-32199732D01*
X170679451Y-32427238D01*
X170738841Y-32648884D01*
X170826654Y-32860885D01*
X170826655Y-32860887D01*
X170941388Y-33059611D01*
X170966055Y-33091757D01*
X171081081Y-33241661D01*
X171243339Y-33403919D01*
X171425388Y-33543611D01*
X171624112Y-33658344D01*
X171836113Y-33746158D01*
X172057762Y-33805548D01*
X172057761Y-33805548D01*
X172133596Y-33815532D01*
X172285266Y-33835500D01*
X172285268Y-33835500D01*
X172514732Y-33835500D01*
X172514734Y-33835500D01*
X172742238Y-33805548D01*
X172963887Y-33746158D01*
X173175888Y-33658344D01*
X173374612Y-33543611D01*
X173556661Y-33403919D01*
X173718919Y-33241661D01*
X173858611Y-33059612D01*
X173973344Y-32860888D01*
X174061158Y-32648887D01*
X174120548Y-32427238D01*
X174150500Y-32199734D01*
X174150500Y-31970267D01*
X179419500Y-31970267D01*
X179419500Y-32199732D01*
X179449451Y-32427238D01*
X179508841Y-32648884D01*
X179596654Y-32860885D01*
X179596655Y-32860887D01*
X179711388Y-33059611D01*
X179736055Y-33091757D01*
X179851081Y-33241661D01*
X180013339Y-33403919D01*
X180195388Y-33543611D01*
X180394112Y-33658344D01*
X180606113Y-33746158D01*
X180827762Y-33805548D01*
X180827761Y-33805548D01*
X180903596Y-33815532D01*
X181055266Y-33835500D01*
X181055268Y-33835500D01*
X181284732Y-33835500D01*
X181284734Y-33835500D01*
X181512238Y-33805548D01*
X181733887Y-33746158D01*
X181945888Y-33658344D01*
X182144612Y-33543611D01*
X182326661Y-33403919D01*
X182488919Y-33241661D01*
X182628611Y-33059612D01*
X182743344Y-32860888D01*
X182831158Y-32648887D01*
X182890548Y-32427238D01*
X182920500Y-32199734D01*
X182920500Y-31970266D01*
X182890548Y-31742762D01*
X182831158Y-31521113D01*
X182743344Y-31309112D01*
X182628611Y-31110388D01*
X182488919Y-30928339D01*
X182326661Y-30766081D01*
X182144612Y-30626389D01*
X182144613Y-30626389D01*
X182144611Y-30626388D01*
X181945887Y-30511655D01*
X181945885Y-30511654D01*
X181785325Y-30445148D01*
X181733887Y-30423842D01*
X181733885Y-30423841D01*
X181733884Y-30423841D01*
X181512237Y-30364451D01*
X181512238Y-30364451D01*
X181332150Y-30340742D01*
X181284734Y-30334500D01*
X181055266Y-30334500D01*
X181012324Y-30340153D01*
X180827761Y-30364451D01*
X180606115Y-30423841D01*
X180394114Y-30511654D01*
X180394112Y-30511655D01*
X180195388Y-30626388D01*
X180013334Y-30766085D01*
X179851085Y-30928334D01*
X179711388Y-31110388D01*
X179596655Y-31309112D01*
X179596654Y-31309114D01*
X179508841Y-31521115D01*
X179449451Y-31742761D01*
X179419500Y-31970267D01*
X174150500Y-31970267D01*
X174150500Y-31970266D01*
X174120548Y-31742762D01*
X174061158Y-31521113D01*
X173973344Y-31309112D01*
X173858611Y-31110388D01*
X173718919Y-30928339D01*
X173556661Y-30766081D01*
X173374612Y-30626389D01*
X173374613Y-30626389D01*
X173374611Y-30626388D01*
X173175887Y-30511655D01*
X173175885Y-30511654D01*
X173015325Y-30445148D01*
X172963887Y-30423842D01*
X172963885Y-30423841D01*
X172963884Y-30423841D01*
X172742237Y-30364451D01*
X172742238Y-30364451D01*
X172562150Y-30340742D01*
X172514734Y-30334500D01*
X172285266Y-30334500D01*
X172242324Y-30340153D01*
X172057761Y-30364451D01*
X171836115Y-30423841D01*
X171624114Y-30511654D01*
X171624112Y-30511655D01*
X171425388Y-30626388D01*
X171243334Y-30766085D01*
X171081085Y-30928334D01*
X170941388Y-31110388D01*
X170826655Y-31309112D01*
X170826654Y-31309114D01*
X170738841Y-31521115D01*
X170679451Y-31742761D01*
X170649500Y-31970267D01*
X148190213Y-31970267D01*
X146514669Y-30294723D01*
X146408127Y-30223535D01*
X146289744Y-30174499D01*
X146289742Y-30174498D01*
X146289739Y-30174497D01*
X146199696Y-30156586D01*
X146164069Y-30149500D01*
X146164067Y-30149500D01*
X141700098Y-30149500D01*
X141647772Y-30127826D01*
X138963741Y-27443795D01*
X138959265Y-27438898D01*
X138955550Y-27434448D01*
X138946230Y-27418877D01*
X138898720Y-27366389D01*
X138897774Y-27365256D01*
X138897694Y-27365003D01*
X138894751Y-27361380D01*
X138862782Y-27317451D01*
X138858232Y-27310388D01*
X138838466Y-27275500D01*
X138835154Y-27269654D01*
X138831316Y-27261840D01*
X138823501Y-27243237D01*
X138819073Y-27232698D01*
X138815074Y-27220151D01*
X138795395Y-27131895D01*
X138793625Y-27115164D01*
X138794436Y-27020435D01*
X138795982Y-27006014D01*
X138822524Y-26878387D01*
X138825572Y-26867782D01*
X138892881Y-26686063D01*
X138894800Y-26681384D01*
X138916792Y-26632567D01*
X138952171Y-26554033D01*
X138953156Y-26551820D01*
X138964098Y-26526901D01*
X138973344Y-26510888D01*
X139010133Y-26422070D01*
X139022823Y-26393174D01*
X139024997Y-26388072D01*
X139025181Y-26387627D01*
X139027038Y-26383010D01*
X139027039Y-26383002D01*
X139027507Y-26381371D01*
X139030270Y-26373452D01*
X139061158Y-26298887D01*
X139120548Y-26077238D01*
X139150500Y-25849734D01*
X139150500Y-25620266D01*
X139120548Y-25392762D01*
X139061158Y-25171113D01*
X138973344Y-24959112D01*
X138858611Y-24760388D01*
X138718919Y-24578339D01*
X138556661Y-24416081D01*
X138374612Y-24276389D01*
X138374613Y-24276389D01*
X138374611Y-24276388D01*
X138175887Y-24161655D01*
X138175879Y-24161652D01*
X138130528Y-24142867D01*
X138090479Y-24102819D01*
X138090479Y-24046182D01*
X138130527Y-24006133D01*
X138158846Y-24000500D01*
X139057038Y-24000500D01*
X139109364Y-24022174D01*
X139130785Y-24068389D01*
X139140744Y-24188580D01*
X139216475Y-24642404D01*
X139216476Y-24642409D01*
X139296676Y-24959112D01*
X139329426Y-25088440D01*
X139478818Y-25523605D01*
X139478819Y-25523607D01*
X139663637Y-25944949D01*
X139663638Y-25944952D01*
X139882622Y-26349598D01*
X139882636Y-26349621D01*
X140134272Y-26734779D01*
X140134276Y-26734784D01*
X140200510Y-26819881D01*
X140382669Y-27053919D01*
X140416872Y-27097862D01*
X140416872Y-27097863D01*
X140416875Y-27097866D01*
X140416878Y-27097870D01*
X140728496Y-27436379D01*
X141067005Y-27747997D01*
X141327197Y-27950513D01*
X141430090Y-28030598D01*
X141430095Y-28030602D01*
X141815253Y-28282238D01*
X141815262Y-28282243D01*
X141815272Y-28282250D01*
X141815276Y-28282252D01*
X142219922Y-28501236D01*
X142219925Y-28501237D01*
X142641267Y-28686055D01*
X142641269Y-28686056D01*
X142891552Y-28771978D01*
X143076442Y-28835451D01*
X143522466Y-28948399D01*
X143976293Y-29024130D01*
X144434816Y-29062125D01*
X144434824Y-29062125D01*
X144894934Y-29062125D01*
X145261750Y-29031729D01*
X145353457Y-29024130D01*
X145807284Y-28948399D01*
X146253308Y-28835451D01*
X146688480Y-28686056D01*
X147109830Y-28501235D01*
X147514478Y-28282250D01*
X147899660Y-28030598D01*
X148262745Y-27747997D01*
X148601254Y-27436379D01*
X148912872Y-27097870D01*
X149195473Y-26734785D01*
X149206343Y-26718148D01*
X149313564Y-26554033D01*
X149447125Y-26349603D01*
X149666110Y-25944955D01*
X149850931Y-25523605D01*
X150000326Y-25088433D01*
X150113274Y-24642409D01*
X150189005Y-24188582D01*
X150196112Y-24102819D01*
X150198965Y-24068389D01*
X150224886Y-24018032D01*
X150272712Y-24000500D01*
X197434108Y-24000500D01*
X197497364Y-24000500D01*
X197502642Y-24000688D01*
X197708118Y-24015385D01*
X197718567Y-24016887D01*
X197742872Y-24022174D01*
X197917296Y-24060117D01*
X197927406Y-24063085D01*
X198117965Y-24134161D01*
X198127556Y-24138541D01*
X198247496Y-24204033D01*
X198306041Y-24236001D01*
X198314924Y-24241709D01*
X198477727Y-24363582D01*
X198485706Y-24370496D01*
X198629503Y-24514293D01*
X198636417Y-24522272D01*
X198758290Y-24685075D01*
X198763998Y-24693958D01*
X198861456Y-24872439D01*
X198865841Y-24882040D01*
X198894588Y-24959114D01*
X198936909Y-25072578D01*
X198939884Y-25082710D01*
X198983112Y-25281432D01*
X198984614Y-25291881D01*
X198999311Y-25497356D01*
X198999500Y-25502636D01*
X198999500Y-31078242D01*
X198977826Y-31130568D01*
X198925500Y-31152242D01*
X198873174Y-31130568D01*
X198861415Y-31115244D01*
X198858611Y-31110388D01*
X198833944Y-31078242D01*
X198718919Y-30928339D01*
X198556661Y-30766081D01*
X198374612Y-30626389D01*
X198374613Y-30626389D01*
X198374611Y-30626388D01*
X198175887Y-30511655D01*
X198175885Y-30511654D01*
X198015325Y-30445148D01*
X197963887Y-30423842D01*
X197963885Y-30423841D01*
X197963884Y-30423841D01*
X197742237Y-30364451D01*
X197742238Y-30364451D01*
X197562150Y-30340742D01*
X197514734Y-30334500D01*
X197285266Y-30334500D01*
X197242324Y-30340153D01*
X197057761Y-30364451D01*
X196836115Y-30423841D01*
X196624114Y-30511654D01*
X196624112Y-30511655D01*
X196425388Y-30626388D01*
X196243334Y-30766085D01*
X196081085Y-30928334D01*
X195941388Y-31110388D01*
X195826655Y-31309112D01*
X195826654Y-31309114D01*
X195738841Y-31521115D01*
X195679451Y-31742761D01*
X195649500Y-31970267D01*
X195649500Y-32199732D01*
X195674588Y-32390300D01*
X195674996Y-32394199D01*
X195676522Y-32413744D01*
X195676582Y-32414570D01*
X195685843Y-32553153D01*
X195685845Y-32553166D01*
X195696776Y-32716741D01*
X195696912Y-32723758D01*
X195693305Y-32851840D01*
X195692625Y-32859978D01*
X195675402Y-32983475D01*
X195673301Y-32993451D01*
X195639081Y-33114067D01*
X195635173Y-33124677D01*
X195578314Y-33248855D01*
X195572834Y-33258748D01*
X195484906Y-33392264D01*
X195478599Y-33400516D01*
X195343832Y-33553296D01*
X195337384Y-33564001D01*
X195326324Y-33578140D01*
X180136639Y-48767826D01*
X180084313Y-48789500D01*
X127400686Y-48789500D01*
X127348360Y-48767826D01*
X123872174Y-45291639D01*
X123850500Y-45239313D01*
X123850500Y-45135932D01*
X123825502Y-45010260D01*
X123825501Y-45010257D01*
X123776466Y-44891876D01*
X123776465Y-44891873D01*
X123705276Y-44785331D01*
X123614669Y-44694724D01*
X123508127Y-44623535D01*
X123508124Y-44623533D01*
X123508123Y-44623533D01*
X123389742Y-44574498D01*
X123389739Y-44574497D01*
X123299696Y-44556586D01*
X123264069Y-44549500D01*
X123135931Y-44549500D01*
X123104726Y-44555707D01*
X123010260Y-44574497D01*
X123010257Y-44574498D01*
X122891876Y-44623533D01*
X122785331Y-44694723D01*
X122785330Y-44694725D01*
X122694725Y-44785330D01*
X122694723Y-44785331D01*
X122623533Y-44891876D01*
X122574498Y-45010257D01*
X122574497Y-45010260D01*
X122549500Y-45135932D01*
X122549500Y-45264067D01*
X122574497Y-45389739D01*
X122574498Y-45389742D01*
X122574499Y-45389744D01*
X122623535Y-45508127D01*
X122694724Y-45614669D01*
X122785331Y-45705276D01*
X122891873Y-45776465D01*
X123010256Y-45825501D01*
X123010258Y-45825501D01*
X123010260Y-45825502D01*
X123052903Y-45833984D01*
X123135931Y-45850500D01*
X123135933Y-45850500D01*
X123239313Y-45850500D01*
X123291639Y-45872174D01*
X126868929Y-49449463D01*
X126868934Y-49449469D01*
X126871518Y-49452053D01*
X126947947Y-49528482D01*
X127031057Y-49576465D01*
X127031058Y-49576466D01*
X127041547Y-49582522D01*
X127041550Y-49582523D01*
X127041553Y-49582525D01*
X127041554Y-49582525D01*
X127041556Y-49582526D01*
X127093754Y-49596512D01*
X127145953Y-49610499D01*
X127145954Y-49610500D01*
X127145956Y-49610500D01*
X180339045Y-49610500D01*
X180339045Y-49610499D01*
X180412428Y-49590836D01*
X180443444Y-49582526D01*
X180443444Y-49582525D01*
X180443447Y-49582525D01*
X180537053Y-49528482D01*
X195911435Y-34154097D01*
X195914887Y-34150861D01*
X195919539Y-34146771D01*
X195936931Y-34136013D01*
X196022202Y-34056519D01*
X196022986Y-34055831D01*
X196023112Y-34055787D01*
X196025578Y-34053656D01*
X196105798Y-33989454D01*
X196110598Y-33985921D01*
X196186535Y-33934650D01*
X196191895Y-33931356D01*
X196257856Y-33894590D01*
X196266712Y-33890395D01*
X196415262Y-33831766D01*
X196427785Y-33828065D01*
X196578836Y-33797634D01*
X196590365Y-33796243D01*
X196775956Y-33788546D01*
X196784092Y-33788656D01*
X197070090Y-33808387D01*
X197070730Y-33808434D01*
X197090793Y-33810000D01*
X197094669Y-33810406D01*
X197285266Y-33835500D01*
X197285268Y-33835500D01*
X197514732Y-33835500D01*
X197514734Y-33835500D01*
X197742238Y-33805548D01*
X197963887Y-33746158D01*
X198175888Y-33658344D01*
X198374612Y-33543611D01*
X198556661Y-33403919D01*
X198718919Y-33241661D01*
X198858611Y-33059612D01*
X198861413Y-33054759D01*
X198906345Y-33020279D01*
X198962498Y-33027670D01*
X198996978Y-33072602D01*
X198999500Y-33091757D01*
X198999500Y-37428242D01*
X198977826Y-37480568D01*
X198925500Y-37502242D01*
X198873174Y-37480568D01*
X198861415Y-37465244D01*
X198858611Y-37460388D01*
X198833944Y-37428242D01*
X198718919Y-37278339D01*
X198556661Y-37116081D01*
X198374612Y-36976389D01*
X198374613Y-36976389D01*
X198374611Y-36976388D01*
X198175887Y-36861655D01*
X198175885Y-36861654D01*
X197996817Y-36787482D01*
X197963887Y-36773842D01*
X197963885Y-36773841D01*
X197963884Y-36773841D01*
X197742237Y-36714451D01*
X197742238Y-36714451D01*
X197543050Y-36688228D01*
X197514734Y-36684500D01*
X197285266Y-36684500D01*
X197256950Y-36688228D01*
X197057761Y-36714451D01*
X196836115Y-36773841D01*
X196624114Y-36861654D01*
X196624112Y-36861655D01*
X196425388Y-36976388D01*
X196243334Y-37116085D01*
X196081085Y-37278334D01*
X195941388Y-37460388D01*
X195826655Y-37659112D01*
X195826654Y-37659114D01*
X195738841Y-37871115D01*
X195679451Y-38092761D01*
X195649500Y-38320267D01*
X195649500Y-38549732D01*
X195674588Y-38740300D01*
X195674996Y-38744199D01*
X195676522Y-38763744D01*
X195676582Y-38764570D01*
X195685843Y-38903153D01*
X195685845Y-38903166D01*
X195696776Y-39066741D01*
X195696912Y-39073758D01*
X195693305Y-39201840D01*
X195692625Y-39209978D01*
X195675402Y-39333475D01*
X195673301Y-39343451D01*
X195639081Y-39464067D01*
X195635173Y-39474677D01*
X195578314Y-39598855D01*
X195572834Y-39608748D01*
X195484906Y-39742264D01*
X195478599Y-39750516D01*
X195343832Y-39903296D01*
X195337384Y-39914001D01*
X195326324Y-39928140D01*
X183886639Y-51367826D01*
X183834313Y-51389500D01*
X115400687Y-51389500D01*
X115348361Y-51367826D01*
X112652053Y-48671518D01*
X112558444Y-48617473D01*
X112454045Y-48589500D01*
X112454043Y-48589500D01*
X101640097Y-48589500D01*
X101587771Y-48567826D01*
X101514668Y-48494723D01*
X101479473Y-48471207D01*
X101408127Y-48423535D01*
X101408124Y-48423533D01*
X101408123Y-48423533D01*
X101289742Y-48374498D01*
X101289739Y-48374497D01*
X101199696Y-48356586D01*
X101164069Y-48349500D01*
X101035931Y-48349500D01*
X101004726Y-48355707D01*
X100910260Y-48374497D01*
X100910257Y-48374498D01*
X100791876Y-48423533D01*
X100685331Y-48494723D01*
X100685330Y-48494725D01*
X100594725Y-48585330D01*
X100594723Y-48585331D01*
X100523533Y-48691876D01*
X100474498Y-48810257D01*
X100474497Y-48810260D01*
X100449500Y-48935932D01*
X100449500Y-49064067D01*
X100474497Y-49189739D01*
X100474498Y-49189742D01*
X100474499Y-49189744D01*
X100523535Y-49308127D01*
X100594724Y-49414669D01*
X100685331Y-49505276D01*
X100791873Y-49576465D01*
X100910256Y-49625501D01*
X100910258Y-49625501D01*
X100910260Y-49625502D01*
X100952903Y-49633984D01*
X101035931Y-49650500D01*
X101035933Y-49650500D01*
X101164067Y-49650500D01*
X101164069Y-49650500D01*
X101289744Y-49625501D01*
X101408127Y-49576465D01*
X101514669Y-49505276D01*
X101587771Y-49432174D01*
X101640097Y-49410500D01*
X112199313Y-49410500D01*
X112251639Y-49432174D01*
X114947947Y-52128482D01*
X115041553Y-52182525D01*
X115041555Y-52182526D01*
X115114938Y-52202188D01*
X115145954Y-52210499D01*
X115145955Y-52210500D01*
X115145957Y-52210500D01*
X184089045Y-52210500D01*
X184089045Y-52210499D01*
X184170913Y-52188563D01*
X184193444Y-52182526D01*
X184193444Y-52182525D01*
X184193447Y-52182525D01*
X184287053Y-52128482D01*
X195911435Y-40504097D01*
X195914887Y-40500861D01*
X195919539Y-40496771D01*
X195936931Y-40486013D01*
X196022202Y-40406519D01*
X196022986Y-40405831D01*
X196023112Y-40405787D01*
X196025578Y-40403656D01*
X196105798Y-40339454D01*
X196110598Y-40335921D01*
X196186535Y-40284650D01*
X196191895Y-40281356D01*
X196257856Y-40244590D01*
X196266712Y-40240395D01*
X196415262Y-40181766D01*
X196427785Y-40178065D01*
X196578836Y-40147634D01*
X196590365Y-40146243D01*
X196775956Y-40138546D01*
X196784092Y-40138656D01*
X197070090Y-40158387D01*
X197070730Y-40158434D01*
X197090793Y-40160000D01*
X197094669Y-40160406D01*
X197285266Y-40185500D01*
X197285268Y-40185500D01*
X197514732Y-40185500D01*
X197514734Y-40185500D01*
X197742238Y-40155548D01*
X197963887Y-40096158D01*
X198175888Y-40008344D01*
X198374612Y-39893611D01*
X198556661Y-39753919D01*
X198718919Y-39591661D01*
X198858611Y-39409612D01*
X198861413Y-39404759D01*
X198906345Y-39370279D01*
X198962498Y-39377670D01*
X198996978Y-39422602D01*
X198999500Y-39441757D01*
X198999500Y-56997363D01*
X198999311Y-57002643D01*
X198984614Y-57208118D01*
X198983112Y-57218567D01*
X198939884Y-57417289D01*
X198936909Y-57427421D01*
X198865842Y-57617957D01*
X198861456Y-57627560D01*
X198763998Y-57806041D01*
X198758290Y-57814924D01*
X198636417Y-57977727D01*
X198629503Y-57985706D01*
X198485706Y-58129503D01*
X198477727Y-58136417D01*
X198314924Y-58258290D01*
X198306041Y-58263998D01*
X198127560Y-58361456D01*
X198117957Y-58365842D01*
X197927421Y-58436909D01*
X197917289Y-58439884D01*
X197718567Y-58483112D01*
X197708118Y-58484614D01*
X197525297Y-58497690D01*
X197502641Y-58499311D01*
X197497364Y-58499500D01*
X61002636Y-58499500D01*
X60997358Y-58499311D01*
X60972878Y-58497560D01*
X60791881Y-58484614D01*
X60781432Y-58483112D01*
X60582710Y-58439884D01*
X60572584Y-58436910D01*
X60382040Y-58365841D01*
X60372439Y-58361456D01*
X60193958Y-58263998D01*
X60185075Y-58258290D01*
X60022272Y-58136417D01*
X60014293Y-58129503D01*
X59870496Y-57985706D01*
X59863582Y-57977727D01*
X59741709Y-57814924D01*
X59736001Y-57806041D01*
X59638543Y-57627560D01*
X59634161Y-57617965D01*
X59563085Y-57427406D01*
X59560117Y-57417296D01*
X59516887Y-57218567D01*
X59515385Y-57208117D01*
X59500689Y-57002642D01*
X59500500Y-56997363D01*
X59500500Y-52245954D01*
X68589500Y-52245954D01*
X68589500Y-54554045D01*
X68617473Y-54658444D01*
X68671518Y-54752053D01*
X70468929Y-56549463D01*
X70468934Y-56549469D01*
X70471518Y-56552053D01*
X70547947Y-56628482D01*
X70641553Y-56682525D01*
X70641555Y-56682526D01*
X70714938Y-56702188D01*
X70745953Y-56710499D01*
X70745954Y-56710500D01*
X70745956Y-56710500D01*
X92254045Y-56710500D01*
X92254045Y-56710499D01*
X92327428Y-56690836D01*
X92358444Y-56682526D01*
X92358444Y-56682525D01*
X92358447Y-56682525D01*
X92452053Y-56628482D01*
X95308359Y-53772173D01*
X95360685Y-53750500D01*
X95464067Y-53750500D01*
X95464069Y-53750500D01*
X95589744Y-53725501D01*
X95708127Y-53676465D01*
X95814669Y-53605276D01*
X95905276Y-53514669D01*
X95976465Y-53408127D01*
X96025501Y-53289744D01*
X96050500Y-53164069D01*
X96050500Y-53035931D01*
X96025501Y-52910256D01*
X95976465Y-52791873D01*
X95905276Y-52685331D01*
X95814669Y-52594724D01*
X95708127Y-52523535D01*
X95708124Y-52523533D01*
X95708123Y-52523533D01*
X95589742Y-52474498D01*
X95589739Y-52474497D01*
X95499696Y-52456586D01*
X95464069Y-52449500D01*
X95335931Y-52449500D01*
X95304726Y-52455707D01*
X95210260Y-52474497D01*
X95210257Y-52474498D01*
X95091876Y-52523533D01*
X94985331Y-52594723D01*
X94985330Y-52594725D01*
X94894725Y-52685330D01*
X94894723Y-52685331D01*
X94823533Y-52791876D01*
X94774498Y-52910257D01*
X94774497Y-52910260D01*
X94749500Y-53035932D01*
X94749500Y-53139313D01*
X94727826Y-53191639D01*
X92051639Y-55867826D01*
X91999313Y-55889500D01*
X71000686Y-55889500D01*
X70948360Y-55867826D01*
X69545138Y-54464603D01*
X69523464Y-54412277D01*
X69545138Y-54359951D01*
X69597464Y-54338277D01*
X69640958Y-54352409D01*
X69723359Y-54412277D01*
X69763212Y-54441232D01*
X69917553Y-54519872D01*
X69917557Y-54519874D01*
X70082288Y-54573399D01*
X70082294Y-54573400D01*
X70082299Y-54573402D01*
X70166607Y-54586755D01*
X70253388Y-54600500D01*
X70253389Y-54600500D01*
X70426612Y-54600500D01*
X70508582Y-54587517D01*
X70597701Y-54573402D01*
X70597708Y-54573399D01*
X70597711Y-54573399D01*
X70762442Y-54519874D01*
X70762442Y-54519873D01*
X70762445Y-54519873D01*
X70916788Y-54441232D01*
X71056928Y-54339414D01*
X71138456Y-54257885D01*
X71190781Y-54236212D01*
X71243107Y-54257886D01*
X71254867Y-54273212D01*
X71271518Y-54302053D01*
X72018929Y-55049463D01*
X72018934Y-55049469D01*
X72021518Y-55052053D01*
X72097947Y-55128482D01*
X72097949Y-55128483D01*
X72191555Y-55182526D01*
X72264938Y-55202188D01*
X72295953Y-55210499D01*
X72295954Y-55210500D01*
X72295956Y-55210500D01*
X74174045Y-55210500D01*
X74174045Y-55210499D01*
X74247428Y-55190836D01*
X74278444Y-55182526D01*
X74278444Y-55182525D01*
X74278447Y-55182525D01*
X74372053Y-55128482D01*
X74500572Y-54999961D01*
X74513557Y-54989613D01*
X74526303Y-54981614D01*
X74636573Y-54877468D01*
X74640736Y-54873824D01*
X74731709Y-54800070D01*
X74737306Y-54795956D01*
X74797886Y-54755705D01*
X74804593Y-54751743D01*
X74849048Y-54728560D01*
X74860134Y-54723883D01*
X74972234Y-54687015D01*
X74984163Y-54684162D01*
X75205882Y-54650267D01*
X75207307Y-54650065D01*
X75219518Y-54648474D01*
X75219519Y-54648475D01*
X75390105Y-54626255D01*
X75394978Y-54625572D01*
X75395445Y-54625502D01*
X75400771Y-54624646D01*
X75617199Y-54587517D01*
X75621135Y-54586810D01*
X75621428Y-54586755D01*
X75623867Y-54586285D01*
X75632922Y-54582545D01*
X75649587Y-54577854D01*
X75677701Y-54573402D01*
X75677707Y-54573399D01*
X75677711Y-54573399D01*
X75842442Y-54519874D01*
X75842442Y-54519873D01*
X75842445Y-54519873D01*
X75996788Y-54441232D01*
X76136928Y-54339414D01*
X76259414Y-54216928D01*
X76361232Y-54076788D01*
X76439873Y-53922445D01*
X76441371Y-53917834D01*
X76493399Y-53757711D01*
X76493399Y-53757708D01*
X76493402Y-53757701D01*
X76520500Y-53586611D01*
X76520500Y-53413389D01*
X76493402Y-53242299D01*
X76493400Y-53242293D01*
X76493399Y-53242288D01*
X76439874Y-53077557D01*
X76439872Y-53077553D01*
X76361232Y-52923212D01*
X76259417Y-52783076D01*
X76259416Y-52783075D01*
X76259414Y-52783072D01*
X76136928Y-52660586D01*
X76136925Y-52660583D01*
X76136923Y-52660582D01*
X75996787Y-52558767D01*
X75842446Y-52480127D01*
X75842442Y-52480125D01*
X75677711Y-52426600D01*
X75677698Y-52426597D01*
X75506612Y-52399500D01*
X75506611Y-52399500D01*
X75333389Y-52399500D01*
X75333388Y-52399500D01*
X75162301Y-52426597D01*
X75162288Y-52426600D01*
X74997557Y-52480125D01*
X74997553Y-52480127D01*
X74843212Y-52558767D01*
X74703076Y-52660582D01*
X74580582Y-52783076D01*
X74478767Y-52923212D01*
X74400127Y-53077553D01*
X74400125Y-53077557D01*
X74346599Y-53242293D01*
X74340936Y-53278042D01*
X74337267Y-53292092D01*
X74332084Y-53306128D01*
X74278636Y-53642909D01*
X74278095Y-53646484D01*
X74278044Y-53646836D01*
X74277334Y-53652158D01*
X74269644Y-53714764D01*
X74269445Y-53716257D01*
X74240998Y-53914417D01*
X74239701Y-53921188D01*
X74239400Y-53922446D01*
X74224594Y-53984040D01*
X74222256Y-53991846D01*
X74202131Y-54047658D01*
X74198422Y-54056212D01*
X74168958Y-54113910D01*
X74164513Y-54121471D01*
X74117864Y-54191031D01*
X74113616Y-54196750D01*
X74042053Y-54283980D01*
X74038572Y-54287928D01*
X73964273Y-54366383D01*
X73912556Y-54389473D01*
X73910543Y-54389500D01*
X73725494Y-54389500D01*
X73673168Y-54367826D01*
X73651494Y-54315500D01*
X73673168Y-54263174D01*
X73719409Y-54216933D01*
X73719414Y-54216928D01*
X73821232Y-54076788D01*
X73899873Y-53922445D01*
X73901371Y-53917834D01*
X73953399Y-53757711D01*
X73953399Y-53757708D01*
X73953402Y-53757701D01*
X73980500Y-53586611D01*
X73980500Y-53413389D01*
X73953402Y-53242299D01*
X73953400Y-53242293D01*
X73953399Y-53242288D01*
X73899874Y-53077557D01*
X73899872Y-53077553D01*
X73821232Y-52923212D01*
X73719417Y-52783076D01*
X73719416Y-52783075D01*
X73719414Y-52783072D01*
X73596928Y-52660586D01*
X73596925Y-52660583D01*
X73596923Y-52660582D01*
X73456787Y-52558767D01*
X73302446Y-52480127D01*
X73302442Y-52480125D01*
X73137711Y-52426600D01*
X73137698Y-52426597D01*
X72966612Y-52399500D01*
X72966611Y-52399500D01*
X72793389Y-52399500D01*
X72793388Y-52399500D01*
X72622301Y-52426597D01*
X72622288Y-52426600D01*
X72457557Y-52480125D01*
X72457553Y-52480127D01*
X72303212Y-52558767D01*
X72163076Y-52660582D01*
X72136826Y-52686832D01*
X72084500Y-52708506D01*
X72032174Y-52686832D01*
X72010500Y-52634506D01*
X72010500Y-51825494D01*
X72032174Y-51773168D01*
X72084500Y-51751494D01*
X72136826Y-51773168D01*
X72163072Y-51799414D01*
X72163075Y-51799416D01*
X72163076Y-51799417D01*
X72303212Y-51901232D01*
X72457553Y-51979872D01*
X72457557Y-51979874D01*
X72622288Y-52033399D01*
X72622294Y-52033400D01*
X72622299Y-52033402D01*
X72736359Y-52051467D01*
X72793388Y-52060500D01*
X72793389Y-52060500D01*
X72966612Y-52060500D01*
X73009383Y-52053725D01*
X73137701Y-52033402D01*
X73137708Y-52033399D01*
X73137711Y-52033399D01*
X73302442Y-51979874D01*
X73302442Y-51979873D01*
X73302445Y-51979873D01*
X73456788Y-51901232D01*
X73596928Y-51799414D01*
X73719414Y-51676928D01*
X73821232Y-51536788D01*
X73899873Y-51382445D01*
X73901371Y-51377834D01*
X73953399Y-51217711D01*
X73953399Y-51217708D01*
X73953402Y-51217701D01*
X73980500Y-51046611D01*
X73980500Y-50873389D01*
X73980500Y-50873388D01*
X74319500Y-50873388D01*
X74319500Y-51046611D01*
X74346597Y-51217698D01*
X74346600Y-51217711D01*
X74400125Y-51382442D01*
X74400127Y-51382446D01*
X74478767Y-51536787D01*
X74565925Y-51656750D01*
X74580586Y-51676928D01*
X74703072Y-51799414D01*
X74703075Y-51799416D01*
X74703076Y-51799417D01*
X74843212Y-51901232D01*
X74997553Y-51979872D01*
X74997557Y-51979874D01*
X75162288Y-52033399D01*
X75162294Y-52033400D01*
X75162299Y-52033402D01*
X75276359Y-52051467D01*
X75333388Y-52060500D01*
X75333389Y-52060500D01*
X75506612Y-52060500D01*
X75549383Y-52053725D01*
X75677701Y-52033402D01*
X75677708Y-52033399D01*
X75677711Y-52033399D01*
X75842442Y-51979874D01*
X75842442Y-51979873D01*
X75842445Y-51979873D01*
X75996788Y-51901232D01*
X76136928Y-51799414D01*
X76259414Y-51676928D01*
X76361232Y-51536788D01*
X76439873Y-51382445D01*
X76441371Y-51377834D01*
X76493399Y-51217711D01*
X76493399Y-51217708D01*
X76493402Y-51217701D01*
X76520500Y-51046611D01*
X76520500Y-50873389D01*
X76520500Y-50873388D01*
X76859500Y-50873388D01*
X76859500Y-51046611D01*
X76886597Y-51217698D01*
X76886600Y-51217711D01*
X76940125Y-51382442D01*
X76940127Y-51382446D01*
X77018767Y-51536787D01*
X77105925Y-51656750D01*
X77120586Y-51676928D01*
X77243072Y-51799414D01*
X77243075Y-51799416D01*
X77243076Y-51799417D01*
X77383212Y-51901232D01*
X77537553Y-51979872D01*
X77537557Y-51979874D01*
X77702288Y-52033399D01*
X77702294Y-52033400D01*
X77702299Y-52033402D01*
X77816359Y-52051467D01*
X77873388Y-52060500D01*
X77873389Y-52060500D01*
X78046612Y-52060500D01*
X78089383Y-52053725D01*
X78217701Y-52033402D01*
X78217708Y-52033399D01*
X78217711Y-52033399D01*
X78382442Y-51979874D01*
X78382442Y-51979873D01*
X78382445Y-51979873D01*
X78536788Y-51901232D01*
X78676928Y-51799414D01*
X78799414Y-51676928D01*
X78901232Y-51536788D01*
X78979873Y-51382445D01*
X78981371Y-51377834D01*
X79033399Y-51217711D01*
X79033399Y-51217708D01*
X79033402Y-51217701D01*
X79060500Y-51046611D01*
X79060500Y-50873389D01*
X79060500Y-50873388D01*
X79399500Y-50873388D01*
X79399500Y-51046611D01*
X79426597Y-51217698D01*
X79426600Y-51217711D01*
X79480125Y-51382442D01*
X79480127Y-51382446D01*
X79558767Y-51536787D01*
X79645925Y-51656750D01*
X79660586Y-51676928D01*
X79783072Y-51799414D01*
X79783075Y-51799416D01*
X79783076Y-51799417D01*
X79923212Y-51901232D01*
X80077553Y-51979872D01*
X80077557Y-51979874D01*
X80242288Y-52033399D01*
X80242294Y-52033400D01*
X80242299Y-52033402D01*
X80356359Y-52051467D01*
X80413388Y-52060500D01*
X80413389Y-52060500D01*
X80586612Y-52060500D01*
X80629383Y-52053725D01*
X80757701Y-52033402D01*
X80757708Y-52033399D01*
X80757711Y-52033399D01*
X80922442Y-51979874D01*
X80922442Y-51979873D01*
X80922445Y-51979873D01*
X81076788Y-51901232D01*
X81216928Y-51799414D01*
X81339414Y-51676928D01*
X81441232Y-51536788D01*
X81519873Y-51382445D01*
X81521371Y-51377834D01*
X81573399Y-51217711D01*
X81573399Y-51217708D01*
X81573402Y-51217701D01*
X81600500Y-51046611D01*
X81600500Y-50873389D01*
X81600500Y-50873388D01*
X81939500Y-50873388D01*
X81939500Y-51046611D01*
X81966597Y-51217698D01*
X81966600Y-51217711D01*
X82020125Y-51382442D01*
X82020127Y-51382446D01*
X82098767Y-51536787D01*
X82185925Y-51656750D01*
X82200586Y-51676928D01*
X82323072Y-51799414D01*
X82323075Y-51799416D01*
X82323076Y-51799417D01*
X82463212Y-51901232D01*
X82617553Y-51979872D01*
X82617557Y-51979874D01*
X82782288Y-52033399D01*
X82782294Y-52033400D01*
X82782299Y-52033402D01*
X82896359Y-52051467D01*
X82953388Y-52060500D01*
X82953389Y-52060500D01*
X83126612Y-52060500D01*
X83169383Y-52053725D01*
X83297701Y-52033402D01*
X83297708Y-52033399D01*
X83297711Y-52033399D01*
X83462442Y-51979874D01*
X83462442Y-51979873D01*
X83462445Y-51979873D01*
X83616788Y-51901232D01*
X83756928Y-51799414D01*
X83879414Y-51676928D01*
X83981232Y-51536788D01*
X84059873Y-51382445D01*
X84061371Y-51377834D01*
X84113399Y-51217711D01*
X84113399Y-51217708D01*
X84113402Y-51217701D01*
X84140500Y-51046611D01*
X84140500Y-50873389D01*
X84140500Y-50873388D01*
X84479500Y-50873388D01*
X84479500Y-51046611D01*
X84506597Y-51217698D01*
X84506600Y-51217711D01*
X84560125Y-51382442D01*
X84560127Y-51382446D01*
X84638767Y-51536787D01*
X84725925Y-51656750D01*
X84740586Y-51676928D01*
X84863072Y-51799414D01*
X84863075Y-51799416D01*
X84863076Y-51799417D01*
X85003212Y-51901232D01*
X85157553Y-51979872D01*
X85157557Y-51979874D01*
X85322288Y-52033399D01*
X85322294Y-52033400D01*
X85322299Y-52033402D01*
X85436359Y-52051467D01*
X85493388Y-52060500D01*
X85493389Y-52060500D01*
X85666612Y-52060500D01*
X85709383Y-52053725D01*
X85837701Y-52033402D01*
X85837708Y-52033399D01*
X85837711Y-52033399D01*
X86002442Y-51979874D01*
X86002442Y-51979873D01*
X86002445Y-51979873D01*
X86156788Y-51901232D01*
X86296928Y-51799414D01*
X86419414Y-51676928D01*
X86521232Y-51536788D01*
X86599873Y-51382445D01*
X86601371Y-51377834D01*
X86653399Y-51217711D01*
X86653399Y-51217708D01*
X86653402Y-51217701D01*
X86680500Y-51046611D01*
X86680500Y-50873389D01*
X86680500Y-50873388D01*
X87019500Y-50873388D01*
X87019500Y-51046611D01*
X87046597Y-51217698D01*
X87046600Y-51217711D01*
X87100125Y-51382442D01*
X87100127Y-51382446D01*
X87178767Y-51536787D01*
X87265925Y-51656750D01*
X87280586Y-51676928D01*
X87403072Y-51799414D01*
X87403075Y-51799416D01*
X87403076Y-51799417D01*
X87543212Y-51901232D01*
X87697553Y-51979872D01*
X87697557Y-51979874D01*
X87862288Y-52033399D01*
X87862294Y-52033400D01*
X87862299Y-52033402D01*
X87976359Y-52051467D01*
X88033388Y-52060500D01*
X88033389Y-52060500D01*
X88206612Y-52060500D01*
X88249383Y-52053725D01*
X88377701Y-52033402D01*
X88377708Y-52033399D01*
X88377711Y-52033399D01*
X88542442Y-51979874D01*
X88542442Y-51979873D01*
X88542445Y-51979873D01*
X88696788Y-51901232D01*
X88836928Y-51799414D01*
X88959414Y-51676928D01*
X89061232Y-51536788D01*
X89139873Y-51382445D01*
X89141371Y-51377834D01*
X89193399Y-51217711D01*
X89193399Y-51217708D01*
X89193402Y-51217701D01*
X89220500Y-51046611D01*
X89220500Y-50873389D01*
X89193402Y-50702299D01*
X89193400Y-50702293D01*
X89193399Y-50702288D01*
X89139874Y-50537557D01*
X89139872Y-50537553D01*
X89061232Y-50383212D01*
X88959417Y-50243076D01*
X88959416Y-50243075D01*
X88959414Y-50243072D01*
X88836928Y-50120586D01*
X88836925Y-50120583D01*
X88836923Y-50120582D01*
X88696787Y-50018767D01*
X88542446Y-49940127D01*
X88542442Y-49940125D01*
X88377711Y-49886600D01*
X88377698Y-49886597D01*
X88206612Y-49859500D01*
X88206611Y-49859500D01*
X88033389Y-49859500D01*
X88033388Y-49859500D01*
X87862301Y-49886597D01*
X87862288Y-49886600D01*
X87697557Y-49940125D01*
X87697553Y-49940127D01*
X87543212Y-50018767D01*
X87403076Y-50120582D01*
X87280582Y-50243076D01*
X87178767Y-50383212D01*
X87100127Y-50537553D01*
X87100125Y-50537557D01*
X87046600Y-50702288D01*
X87046597Y-50702301D01*
X87019500Y-50873388D01*
X86680500Y-50873388D01*
X86653402Y-50702299D01*
X86653400Y-50702293D01*
X86653399Y-50702288D01*
X86599874Y-50537557D01*
X86599872Y-50537553D01*
X86521232Y-50383212D01*
X86419417Y-50243076D01*
X86419416Y-50243075D01*
X86419414Y-50243072D01*
X86296928Y-50120586D01*
X86296925Y-50120583D01*
X86296923Y-50120582D01*
X86156787Y-50018767D01*
X86002446Y-49940127D01*
X86002442Y-49940125D01*
X85837711Y-49886600D01*
X85837698Y-49886597D01*
X85666612Y-49859500D01*
X85666611Y-49859500D01*
X85493389Y-49859500D01*
X85493388Y-49859500D01*
X85322301Y-49886597D01*
X85322288Y-49886600D01*
X85157557Y-49940125D01*
X85157553Y-49940127D01*
X85003212Y-50018767D01*
X84863076Y-50120582D01*
X84740582Y-50243076D01*
X84638767Y-50383212D01*
X84560127Y-50537553D01*
X84560125Y-50537557D01*
X84506600Y-50702288D01*
X84506597Y-50702301D01*
X84479500Y-50873388D01*
X84140500Y-50873388D01*
X84113402Y-50702299D01*
X84113400Y-50702293D01*
X84113399Y-50702288D01*
X84059874Y-50537557D01*
X84059872Y-50537553D01*
X83981232Y-50383212D01*
X83879417Y-50243076D01*
X83879416Y-50243075D01*
X83879414Y-50243072D01*
X83756928Y-50120586D01*
X83756925Y-50120583D01*
X83756923Y-50120582D01*
X83616787Y-50018767D01*
X83462446Y-49940127D01*
X83462442Y-49940125D01*
X83297711Y-49886600D01*
X83297698Y-49886597D01*
X83126612Y-49859500D01*
X83126611Y-49859500D01*
X82953389Y-49859500D01*
X82953388Y-49859500D01*
X82782301Y-49886597D01*
X82782288Y-49886600D01*
X82617557Y-49940125D01*
X82617553Y-49940127D01*
X82463212Y-50018767D01*
X82323076Y-50120582D01*
X82200582Y-50243076D01*
X82098767Y-50383212D01*
X82020127Y-50537553D01*
X82020125Y-50537557D01*
X81966600Y-50702288D01*
X81966597Y-50702301D01*
X81939500Y-50873388D01*
X81600500Y-50873388D01*
X81573402Y-50702299D01*
X81573400Y-50702293D01*
X81573399Y-50702288D01*
X81519874Y-50537557D01*
X81519872Y-50537553D01*
X81441232Y-50383212D01*
X81339417Y-50243076D01*
X81339416Y-50243075D01*
X81339414Y-50243072D01*
X81216928Y-50120586D01*
X81216925Y-50120583D01*
X81216923Y-50120582D01*
X81076787Y-50018767D01*
X80922446Y-49940127D01*
X80922442Y-49940125D01*
X80757711Y-49886600D01*
X80757698Y-49886597D01*
X80586612Y-49859500D01*
X80586611Y-49859500D01*
X80413389Y-49859500D01*
X80413388Y-49859500D01*
X80242301Y-49886597D01*
X80242288Y-49886600D01*
X80077557Y-49940125D01*
X80077553Y-49940127D01*
X79923212Y-50018767D01*
X79783076Y-50120582D01*
X79660582Y-50243076D01*
X79558767Y-50383212D01*
X79480127Y-50537553D01*
X79480125Y-50537557D01*
X79426600Y-50702288D01*
X79426597Y-50702301D01*
X79399500Y-50873388D01*
X79060500Y-50873388D01*
X79033402Y-50702299D01*
X79033400Y-50702293D01*
X79033399Y-50702288D01*
X78979874Y-50537557D01*
X78979872Y-50537553D01*
X78901232Y-50383212D01*
X78799417Y-50243076D01*
X78799416Y-50243075D01*
X78799414Y-50243072D01*
X78676928Y-50120586D01*
X78676925Y-50120583D01*
X78676923Y-50120582D01*
X78536787Y-50018767D01*
X78382446Y-49940127D01*
X78382442Y-49940125D01*
X78217711Y-49886600D01*
X78217698Y-49886597D01*
X78046612Y-49859500D01*
X78046611Y-49859500D01*
X77873389Y-49859500D01*
X77873388Y-49859500D01*
X77702301Y-49886597D01*
X77702288Y-49886600D01*
X77537557Y-49940125D01*
X77537553Y-49940127D01*
X77383212Y-50018767D01*
X77243076Y-50120582D01*
X77120582Y-50243076D01*
X77018767Y-50383212D01*
X76940127Y-50537553D01*
X76940125Y-50537557D01*
X76886600Y-50702288D01*
X76886597Y-50702301D01*
X76859500Y-50873388D01*
X76520500Y-50873388D01*
X76493402Y-50702299D01*
X76493400Y-50702293D01*
X76493399Y-50702288D01*
X76439874Y-50537557D01*
X76439872Y-50537553D01*
X76361232Y-50383212D01*
X76259417Y-50243076D01*
X76259416Y-50243075D01*
X76259414Y-50243072D01*
X76136928Y-50120586D01*
X76136925Y-50120583D01*
X76136923Y-50120582D01*
X75996787Y-50018767D01*
X75842446Y-49940127D01*
X75842442Y-49940125D01*
X75677711Y-49886600D01*
X75677698Y-49886597D01*
X75506612Y-49859500D01*
X75506611Y-49859500D01*
X75333389Y-49859500D01*
X75333388Y-49859500D01*
X75162301Y-49886597D01*
X75162288Y-49886600D01*
X74997557Y-49940125D01*
X74997553Y-49940127D01*
X74843212Y-50018767D01*
X74703076Y-50120582D01*
X74580582Y-50243076D01*
X74478767Y-50383212D01*
X74400127Y-50537553D01*
X74400125Y-50537557D01*
X74346600Y-50702288D01*
X74346597Y-50702301D01*
X74319500Y-50873388D01*
X73980500Y-50873388D01*
X73953402Y-50702299D01*
X73953400Y-50702293D01*
X73953399Y-50702288D01*
X73899874Y-50537557D01*
X73899872Y-50537553D01*
X73821232Y-50383212D01*
X73719417Y-50243076D01*
X73719416Y-50243075D01*
X73719414Y-50243072D01*
X73596928Y-50120586D01*
X73587685Y-50113870D01*
X73558092Y-50065581D01*
X73571313Y-50010509D01*
X73578849Y-50001684D01*
X79934000Y-43646535D01*
X141869500Y-43646535D01*
X141869500Y-43853464D01*
X141909868Y-44056413D01*
X141909870Y-44056420D01*
X141989059Y-44247598D01*
X142079771Y-44383360D01*
X142104023Y-44419655D01*
X142250345Y-44565977D01*
X142422402Y-44680941D01*
X142613580Y-44760130D01*
X142816535Y-44800500D01*
X142816536Y-44800500D01*
X143023464Y-44800500D01*
X143023465Y-44800500D01*
X143226420Y-44760130D01*
X143417598Y-44680941D01*
X143589655Y-44565977D01*
X143735977Y-44419655D01*
X143850941Y-44247598D01*
X143930130Y-44056420D01*
X143970500Y-43853465D01*
X143970500Y-43646535D01*
X143930130Y-43443580D01*
X143850941Y-43252402D01*
X143735977Y-43080345D01*
X143589655Y-42934023D01*
X143589652Y-42934021D01*
X143417598Y-42819059D01*
X143226420Y-42739870D01*
X143226413Y-42739868D01*
X143073516Y-42709455D01*
X143023465Y-42699500D01*
X142816535Y-42699500D01*
X142776385Y-42707486D01*
X142613586Y-42739868D01*
X142613579Y-42739870D01*
X142422401Y-42819059D01*
X142250345Y-42934022D01*
X142250344Y-42934024D01*
X142104024Y-43080344D01*
X142104022Y-43080345D01*
X141989059Y-43252401D01*
X141909870Y-43443579D01*
X141909868Y-43443586D01*
X141869500Y-43646535D01*
X79934000Y-43646535D01*
X81198361Y-42382174D01*
X81250687Y-42360500D01*
X143459313Y-42360500D01*
X143511639Y-42382174D01*
X144029992Y-42900527D01*
X144040361Y-42913542D01*
X144048325Y-42926243D01*
X144048328Y-42926247D01*
X144150578Y-43034615D01*
X144154384Y-43038980D01*
X144225120Y-43126803D01*
X144229427Y-43132730D01*
X144266185Y-43188970D01*
X144270249Y-43196003D01*
X144290815Y-43236583D01*
X144295427Y-43247922D01*
X144330454Y-43359780D01*
X144332966Y-43370583D01*
X144360156Y-43546387D01*
X144363420Y-43567494D01*
X144363426Y-43567533D01*
X144363425Y-43567533D01*
X144363517Y-43568121D01*
X144363518Y-43568121D01*
X144363527Y-43568181D01*
X144416795Y-43906518D01*
X144421096Y-43933835D01*
X144421913Y-43938717D01*
X144421970Y-43939038D01*
X144422923Y-43944119D01*
X144422924Y-43944122D01*
X144429041Y-43958927D01*
X144433226Y-43972745D01*
X144449868Y-44056414D01*
X144449870Y-44056420D01*
X144529059Y-44247598D01*
X144619771Y-44383360D01*
X144644023Y-44419655D01*
X144790345Y-44565977D01*
X144962402Y-44680941D01*
X145153580Y-44760130D01*
X145356535Y-44800500D01*
X145356536Y-44800500D01*
X145563464Y-44800500D01*
X145563465Y-44800500D01*
X145766420Y-44760130D01*
X145957598Y-44680941D01*
X146129655Y-44565977D01*
X146275977Y-44419655D01*
X146390941Y-44247598D01*
X146470130Y-44056420D01*
X146510500Y-43853465D01*
X146510500Y-43646535D01*
X146470130Y-43443580D01*
X146390941Y-43252402D01*
X146275977Y-43080345D01*
X146129655Y-42934023D01*
X146129652Y-42934021D01*
X145957598Y-42819059D01*
X145766418Y-42739869D01*
X145766415Y-42739868D01*
X145675446Y-42721773D01*
X145664339Y-42718646D01*
X145643795Y-42711090D01*
X145643793Y-42711089D01*
X145643789Y-42711088D01*
X145404478Y-42673411D01*
X145279821Y-42653785D01*
X145279818Y-42653784D01*
X145277024Y-42653344D01*
X145275321Y-42653076D01*
X145275030Y-42653045D01*
X145084615Y-42624294D01*
X145077908Y-42622961D01*
X145019637Y-42608557D01*
X145011902Y-42606188D01*
X144960797Y-42587424D01*
X144952319Y-42583692D01*
X144899470Y-42556357D01*
X144892001Y-42551920D01*
X144827464Y-42508258D01*
X144821855Y-42504063D01*
X144740023Y-42436573D01*
X144736208Y-42433198D01*
X144636746Y-42338842D01*
X144632624Y-42336204D01*
X144623036Y-42330067D01*
X144610601Y-42320066D01*
X143912053Y-41621518D01*
X143818444Y-41567473D01*
X143714045Y-41539500D01*
X143714043Y-41539500D01*
X81104044Y-41539500D01*
X80995957Y-41539500D01*
X80995955Y-41539500D01*
X80891555Y-41567473D01*
X80797946Y-41621518D01*
X72627947Y-49791518D01*
X72551514Y-49867951D01*
X72551514Y-49867952D01*
X72536120Y-49894614D01*
X72494903Y-49927991D01*
X72457560Y-49940124D01*
X72303211Y-50018767D01*
X72163076Y-50120582D01*
X72136826Y-50146832D01*
X72084500Y-50168506D01*
X72032174Y-50146832D01*
X72010500Y-50094506D01*
X72010500Y-44435686D01*
X72032173Y-44383361D01*
X75911437Y-40504096D01*
X75914888Y-40500861D01*
X75919543Y-40496768D01*
X75936931Y-40486013D01*
X76022200Y-40406521D01*
X76022985Y-40405832D01*
X76023111Y-40405788D01*
X76025578Y-40403656D01*
X76105798Y-40339454D01*
X76110598Y-40335921D01*
X76186535Y-40284650D01*
X76191895Y-40281356D01*
X76257856Y-40244590D01*
X76266712Y-40240395D01*
X76415262Y-40181766D01*
X76427785Y-40178065D01*
X76578836Y-40147634D01*
X76590365Y-40146243D01*
X76775956Y-40138546D01*
X76784092Y-40138656D01*
X77070090Y-40158387D01*
X77070730Y-40158434D01*
X77090793Y-40160000D01*
X77094669Y-40160406D01*
X77285266Y-40185500D01*
X77285268Y-40185500D01*
X77514732Y-40185500D01*
X77514734Y-40185500D01*
X77742238Y-40155548D01*
X77963887Y-40096158D01*
X78175888Y-40008344D01*
X78374612Y-39893611D01*
X78556661Y-39753919D01*
X78718919Y-39591661D01*
X78858611Y-39409612D01*
X78973344Y-39210888D01*
X79061158Y-38998887D01*
X79120548Y-38777238D01*
X79150500Y-38549734D01*
X79150500Y-38320267D01*
X79419500Y-38320267D01*
X79419500Y-38549732D01*
X79449451Y-38777238D01*
X79508841Y-38998884D01*
X79596654Y-39210885D01*
X79596655Y-39210887D01*
X79711388Y-39409611D01*
X79736055Y-39441757D01*
X79851081Y-39591661D01*
X80013339Y-39753919D01*
X80195388Y-39893611D01*
X80394112Y-40008344D01*
X80606113Y-40096158D01*
X80827762Y-40155548D01*
X80827761Y-40155548D01*
X80903596Y-40165532D01*
X81055266Y-40185500D01*
X81055268Y-40185500D01*
X81284732Y-40185500D01*
X81284734Y-40185500D01*
X81512238Y-40155548D01*
X81733887Y-40096158D01*
X81945888Y-40008344D01*
X82144612Y-39893611D01*
X82326661Y-39753919D01*
X82488919Y-39591661D01*
X82628611Y-39409612D01*
X82743344Y-39210888D01*
X82831158Y-38998887D01*
X82890548Y-38777238D01*
X82920500Y-38549734D01*
X82920500Y-38320267D01*
X95649500Y-38320267D01*
X95649500Y-38549732D01*
X95679451Y-38777238D01*
X95738841Y-38998884D01*
X95826654Y-39210885D01*
X95826655Y-39210887D01*
X95941388Y-39409611D01*
X95966055Y-39441757D01*
X96081081Y-39591661D01*
X96243339Y-39753919D01*
X96425388Y-39893611D01*
X96624112Y-40008344D01*
X96836113Y-40096158D01*
X97057762Y-40155548D01*
X97057761Y-40155548D01*
X97133596Y-40165532D01*
X97285266Y-40185500D01*
X97285268Y-40185500D01*
X97514732Y-40185500D01*
X97514734Y-40185500D01*
X97742238Y-40155548D01*
X97963887Y-40096158D01*
X98175888Y-40008344D01*
X98374612Y-39893611D01*
X98556661Y-39753919D01*
X98718919Y-39591661D01*
X98858611Y-39409612D01*
X98973344Y-39210888D01*
X99061158Y-38998887D01*
X99120548Y-38777238D01*
X99150500Y-38549734D01*
X99150500Y-38320267D01*
X99419500Y-38320267D01*
X99419500Y-38549732D01*
X99449451Y-38777238D01*
X99508841Y-38998884D01*
X99596654Y-39210885D01*
X99596655Y-39210887D01*
X99711388Y-39409611D01*
X99736055Y-39441757D01*
X99851081Y-39591661D01*
X100013339Y-39753919D01*
X100195388Y-39893611D01*
X100394112Y-40008344D01*
X100606113Y-40096158D01*
X100827762Y-40155548D01*
X100827761Y-40155548D01*
X100903596Y-40165532D01*
X101055266Y-40185500D01*
X101055268Y-40185500D01*
X101284732Y-40185500D01*
X101284734Y-40185500D01*
X101512238Y-40155548D01*
X101733887Y-40096158D01*
X101945888Y-40008344D01*
X102144612Y-39893611D01*
X102326661Y-39753919D01*
X102488919Y-39591661D01*
X102628611Y-39409612D01*
X102743344Y-39210888D01*
X102831158Y-38998887D01*
X102890548Y-38777238D01*
X102920500Y-38549734D01*
X102920500Y-38320267D01*
X115649500Y-38320267D01*
X115649500Y-38549732D01*
X115679451Y-38777238D01*
X115738841Y-38998884D01*
X115826654Y-39210885D01*
X115826655Y-39210887D01*
X115941388Y-39409611D01*
X115966055Y-39441757D01*
X116081081Y-39591661D01*
X116243339Y-39753919D01*
X116425388Y-39893611D01*
X116624112Y-40008344D01*
X116836113Y-40096158D01*
X117057762Y-40155548D01*
X117057761Y-40155548D01*
X117133596Y-40165532D01*
X117285266Y-40185500D01*
X117285268Y-40185500D01*
X117514732Y-40185500D01*
X117514734Y-40185500D01*
X117742238Y-40155548D01*
X117963887Y-40096158D01*
X118175888Y-40008344D01*
X118374612Y-39893611D01*
X118556661Y-39753919D01*
X118718919Y-39591661D01*
X118858611Y-39409612D01*
X118973344Y-39210888D01*
X119061158Y-38998887D01*
X119120548Y-38777238D01*
X119150500Y-38549734D01*
X119150500Y-38320267D01*
X119419500Y-38320267D01*
X119419500Y-38549732D01*
X119449451Y-38777238D01*
X119508841Y-38998884D01*
X119596654Y-39210885D01*
X119596655Y-39210887D01*
X119711388Y-39409611D01*
X119736055Y-39441757D01*
X119851081Y-39591661D01*
X120013339Y-39753919D01*
X120195388Y-39893611D01*
X120394112Y-40008344D01*
X120606113Y-40096158D01*
X120827762Y-40155548D01*
X120827761Y-40155548D01*
X120903596Y-40165532D01*
X121055266Y-40185500D01*
X121055268Y-40185500D01*
X121284732Y-40185500D01*
X121284734Y-40185500D01*
X121512238Y-40155548D01*
X121733887Y-40096158D01*
X121945888Y-40008344D01*
X122144612Y-39893611D01*
X122326661Y-39753919D01*
X122488919Y-39591661D01*
X122628611Y-39409612D01*
X122743344Y-39210888D01*
X122831158Y-38998887D01*
X122890548Y-38777238D01*
X122920500Y-38549734D01*
X122920500Y-38320267D01*
X135649500Y-38320267D01*
X135649500Y-38549732D01*
X135679451Y-38777238D01*
X135738841Y-38998884D01*
X135826654Y-39210885D01*
X135826655Y-39210887D01*
X135941388Y-39409611D01*
X135966055Y-39441757D01*
X136081081Y-39591661D01*
X136243339Y-39753919D01*
X136425388Y-39893611D01*
X136624112Y-40008344D01*
X136836113Y-40096158D01*
X137057762Y-40155548D01*
X137057761Y-40155548D01*
X137133596Y-40165532D01*
X137285266Y-40185500D01*
X137285268Y-40185500D01*
X137514732Y-40185500D01*
X137514734Y-40185500D01*
X137742238Y-40155548D01*
X137963887Y-40096158D01*
X138175888Y-40008344D01*
X138374612Y-39893611D01*
X138556661Y-39753919D01*
X138718919Y-39591661D01*
X138858611Y-39409612D01*
X138973344Y-39210888D01*
X139061158Y-38998887D01*
X139120548Y-38777238D01*
X139150500Y-38549734D01*
X139150500Y-38320266D01*
X139135524Y-38206514D01*
X139120548Y-38092761D01*
X139069500Y-37902246D01*
X139061158Y-37871113D01*
X138973344Y-37659112D01*
X138858611Y-37460388D01*
X138718919Y-37278339D01*
X138556661Y-37116081D01*
X138374612Y-36976389D01*
X138374613Y-36976389D01*
X138374611Y-36976388D01*
X138175887Y-36861655D01*
X138175885Y-36861654D01*
X137996817Y-36787482D01*
X137963887Y-36773842D01*
X137963885Y-36773841D01*
X137963884Y-36773841D01*
X137742237Y-36714451D01*
X137742238Y-36714451D01*
X137543050Y-36688228D01*
X137514734Y-36684500D01*
X137285266Y-36684500D01*
X137256950Y-36688228D01*
X137057761Y-36714451D01*
X136836115Y-36773841D01*
X136624114Y-36861654D01*
X136624112Y-36861655D01*
X136425388Y-36976388D01*
X136243334Y-37116085D01*
X136081085Y-37278334D01*
X135941388Y-37460388D01*
X135826655Y-37659112D01*
X135826654Y-37659114D01*
X135738841Y-37871115D01*
X135679451Y-38092761D01*
X135649500Y-38320267D01*
X122920500Y-38320267D01*
X122920500Y-38320266D01*
X122905524Y-38206514D01*
X122890548Y-38092761D01*
X122839500Y-37902246D01*
X122831158Y-37871113D01*
X122743344Y-37659112D01*
X122628611Y-37460388D01*
X122488919Y-37278339D01*
X122326661Y-37116081D01*
X122144612Y-36976389D01*
X122144613Y-36976389D01*
X122144611Y-36976388D01*
X121945887Y-36861655D01*
X121945885Y-36861654D01*
X121766817Y-36787482D01*
X121733887Y-36773842D01*
X121733885Y-36773841D01*
X121733884Y-36773841D01*
X121512237Y-36714451D01*
X121512238Y-36714451D01*
X121313050Y-36688228D01*
X121284734Y-36684500D01*
X121055266Y-36684500D01*
X121026950Y-36688228D01*
X120827761Y-36714451D01*
X120606115Y-36773841D01*
X120394114Y-36861654D01*
X120394112Y-36861655D01*
X120195388Y-36976388D01*
X120013334Y-37116085D01*
X119851085Y-37278334D01*
X119711388Y-37460388D01*
X119596655Y-37659112D01*
X119596654Y-37659114D01*
X119508841Y-37871115D01*
X119449451Y-38092761D01*
X119419500Y-38320267D01*
X119150500Y-38320267D01*
X119150500Y-38320266D01*
X119125405Y-38129660D01*
X119125001Y-38125811D01*
X119123449Y-38105920D01*
X119123413Y-38105421D01*
X119103220Y-37803244D01*
X119103085Y-37796256D01*
X119106692Y-37668148D01*
X119107369Y-37660043D01*
X119124598Y-37536504D01*
X119126692Y-37526558D01*
X119160916Y-37405928D01*
X119164817Y-37395337D01*
X119221687Y-37271135D01*
X119227166Y-37261246D01*
X119284564Y-37174089D01*
X119315097Y-37127724D01*
X119321386Y-37119496D01*
X119456166Y-36966703D01*
X119462604Y-36956012D01*
X119473665Y-36941868D01*
X120683361Y-35732174D01*
X120735687Y-35710500D01*
X139754045Y-35710500D01*
X139754045Y-35710499D01*
X139827428Y-35690836D01*
X139858444Y-35682526D01*
X139858444Y-35682525D01*
X139858447Y-35682525D01*
X139952053Y-35628482D01*
X140048409Y-35532126D01*
X141869500Y-35532126D01*
X141869500Y-36727873D01*
X141875909Y-36787485D01*
X141926202Y-36922329D01*
X141926203Y-36922330D01*
X141926204Y-36922331D01*
X142012454Y-37037546D01*
X142121900Y-37119477D01*
X142127669Y-37123796D01*
X142127670Y-37123797D01*
X142238605Y-37165172D01*
X142262517Y-37174091D01*
X142322127Y-37180500D01*
X143517872Y-37180499D01*
X143577483Y-37174091D01*
X143668540Y-37140129D01*
X143712329Y-37123797D01*
X143712329Y-37123796D01*
X143712331Y-37123796D01*
X143827546Y-37037546D01*
X143913796Y-36922331D01*
X143964091Y-36787483D01*
X143970500Y-36727873D01*
X143970499Y-35532128D01*
X143964091Y-35472517D01*
X143938251Y-35403236D01*
X143913797Y-35337670D01*
X143913796Y-35337669D01*
X143896095Y-35314024D01*
X143827546Y-35222454D01*
X143712331Y-35136204D01*
X143712330Y-35136203D01*
X143712329Y-35136202D01*
X143577487Y-35085910D01*
X143577484Y-35085909D01*
X143577483Y-35085909D01*
X143517873Y-35079500D01*
X142322126Y-35079500D01*
X142262514Y-35085909D01*
X142127670Y-35136202D01*
X142127669Y-35136203D01*
X142012454Y-35222454D01*
X141926203Y-35337669D01*
X141926202Y-35337670D01*
X141875910Y-35472512D01*
X141875909Y-35472517D01*
X141869500Y-35532126D01*
X140048409Y-35532126D01*
X140761242Y-34819293D01*
X141548360Y-34032174D01*
X141600686Y-34010500D01*
X143799313Y-34010500D01*
X143851639Y-34032174D01*
X144782989Y-34963524D01*
X144787812Y-34968839D01*
X144791401Y-34973202D01*
X144800359Y-34988288D01*
X144841065Y-35033576D01*
X144842093Y-35034825D01*
X144842207Y-35035202D01*
X144846009Y-35040038D01*
X144852810Y-35049974D01*
X144864480Y-35105396D01*
X144860469Y-35119212D01*
X144858802Y-35123387D01*
X144851297Y-35137519D01*
X144782392Y-35238990D01*
X144779985Y-35242331D01*
X144754304Y-35275958D01*
X144752714Y-35278062D01*
X144669993Y-35388660D01*
X144665088Y-35395447D01*
X144664633Y-35396098D01*
X144659828Y-35403236D01*
X144579579Y-35526901D01*
X144571404Y-35540393D01*
X144570697Y-35541644D01*
X144563506Y-35555336D01*
X144494813Y-35696378D01*
X144486365Y-35715712D01*
X144485667Y-35717507D01*
X144478800Y-35737620D01*
X144463262Y-35790173D01*
X144462157Y-35793914D01*
X144449870Y-35823580D01*
X144442636Y-35859944D01*
X144441679Y-35863182D01*
X144441678Y-35863183D01*
X144433987Y-35889200D01*
X144430926Y-35900497D01*
X144430680Y-35901493D01*
X144428193Y-35912651D01*
X144428193Y-35912659D01*
X144428184Y-35925367D01*
X144426762Y-35939750D01*
X144409500Y-36026535D01*
X144409500Y-36233464D01*
X144449868Y-36436413D01*
X144449870Y-36436420D01*
X144529059Y-36627598D01*
X144635892Y-36787487D01*
X144644023Y-36799655D01*
X144790345Y-36945977D01*
X144962402Y-37060941D01*
X145153580Y-37140130D01*
X145356535Y-37180500D01*
X145356536Y-37180500D01*
X145563464Y-37180500D01*
X145563465Y-37180500D01*
X145766420Y-37140130D01*
X145957598Y-37060941D01*
X146129655Y-36945977D01*
X146275977Y-36799655D01*
X146390941Y-36627598D01*
X146470130Y-36436420D01*
X146510500Y-36233465D01*
X146510500Y-36026535D01*
X146949500Y-36026535D01*
X146949500Y-36233464D01*
X146989868Y-36436413D01*
X146989870Y-36436420D01*
X147069059Y-36627598D01*
X147175892Y-36787487D01*
X147184023Y-36799655D01*
X147330345Y-36945977D01*
X147502402Y-37060941D01*
X147693580Y-37140130D01*
X147896535Y-37180500D01*
X147896536Y-37180500D01*
X148103464Y-37180500D01*
X148103465Y-37180500D01*
X148306420Y-37140130D01*
X148497598Y-37060941D01*
X148669655Y-36945977D01*
X148815977Y-36799655D01*
X148930941Y-36627598D01*
X149010130Y-36436420D01*
X149050500Y-36233465D01*
X149050500Y-36026535D01*
X149010130Y-35823580D01*
X148930941Y-35632402D01*
X148815977Y-35460345D01*
X148669655Y-35314023D01*
X148615835Y-35278062D01*
X148497598Y-35199059D01*
X148306420Y-35119870D01*
X148306413Y-35119868D01*
X148135685Y-35085909D01*
X148103465Y-35079500D01*
X147896535Y-35079500D01*
X147864315Y-35085909D01*
X147693586Y-35119868D01*
X147693579Y-35119870D01*
X147502401Y-35199059D01*
X147330345Y-35314022D01*
X147330344Y-35314024D01*
X147184024Y-35460344D01*
X147184022Y-35460345D01*
X147069059Y-35632401D01*
X146989870Y-35823579D01*
X146989868Y-35823586D01*
X146949500Y-36026535D01*
X146510500Y-36026535D01*
X146470130Y-35823580D01*
X146390941Y-35632402D01*
X146344137Y-35562355D01*
X146337486Y-35550007D01*
X146330099Y-35532493D01*
X146330098Y-35532492D01*
X146330097Y-35532489D01*
X146126630Y-35232198D01*
X146123737Y-35228019D01*
X146123474Y-35227647D01*
X146120622Y-35223693D01*
X146120591Y-35223650D01*
X145965014Y-35012270D01*
X145959033Y-35004464D01*
X145959026Y-35004455D01*
X145958468Y-35003755D01*
X145952270Y-34996276D01*
X145799835Y-34819293D01*
X145794966Y-34813801D01*
X145794907Y-34813736D01*
X145794531Y-34813323D01*
X145793864Y-34812615D01*
X145789093Y-34807546D01*
X145588345Y-34600766D01*
X145588269Y-34600688D01*
X145588269Y-34600687D01*
X145587299Y-34599694D01*
X145586978Y-34599368D01*
X145585614Y-34597993D01*
X145468786Y-34481119D01*
X145466694Y-34479027D01*
X145465198Y-34477530D01*
X145465158Y-34477492D01*
X145398109Y-34410495D01*
X145382873Y-34400321D01*
X145371641Y-34391106D01*
X144252053Y-33271518D01*
X144158444Y-33217473D01*
X144054045Y-33189500D01*
X144054043Y-33189500D01*
X141454043Y-33189500D01*
X141345956Y-33189500D01*
X141345954Y-33189500D01*
X141241555Y-33217473D01*
X141147946Y-33271518D01*
X139551639Y-34867826D01*
X139499313Y-34889500D01*
X120593590Y-34889500D01*
X120593574Y-34889499D01*
X120589044Y-34889499D01*
X120480957Y-34889499D01*
X120480955Y-34889499D01*
X120376556Y-34917473D01*
X120376551Y-34917475D01*
X120282946Y-34971518D01*
X118888578Y-36365885D01*
X118885110Y-36369137D01*
X118880453Y-36373230D01*
X118863073Y-36383983D01*
X118777842Y-36463436D01*
X118777012Y-36464166D01*
X118776885Y-36464209D01*
X118774393Y-36466363D01*
X118694215Y-36530531D01*
X118689384Y-36534086D01*
X118613473Y-36585338D01*
X118608099Y-36588641D01*
X118542796Y-36625042D01*
X118542143Y-36625407D01*
X118533281Y-36629603D01*
X118384744Y-36688228D01*
X118372191Y-36691938D01*
X118221173Y-36722361D01*
X118209626Y-36723754D01*
X118024052Y-36731451D01*
X118015892Y-36731340D01*
X117729766Y-36711600D01*
X117729144Y-36711554D01*
X117709187Y-36709996D01*
X117705306Y-36709589D01*
X117592369Y-36694720D01*
X117514734Y-36684500D01*
X117285266Y-36684500D01*
X117256950Y-36688228D01*
X117057761Y-36714451D01*
X116836115Y-36773841D01*
X116624114Y-36861654D01*
X116624112Y-36861655D01*
X116425388Y-36976388D01*
X116243334Y-37116085D01*
X116081085Y-37278334D01*
X115941388Y-37460388D01*
X115826655Y-37659112D01*
X115826654Y-37659114D01*
X115738841Y-37871115D01*
X115679451Y-38092761D01*
X115649500Y-38320267D01*
X102920500Y-38320267D01*
X102920500Y-38320266D01*
X102905524Y-38206514D01*
X102890548Y-38092761D01*
X102839500Y-37902246D01*
X102831158Y-37871113D01*
X102743344Y-37659112D01*
X102628611Y-37460388D01*
X102488919Y-37278339D01*
X102326661Y-37116081D01*
X102144612Y-36976389D01*
X102144613Y-36976389D01*
X102144611Y-36976388D01*
X101945887Y-36861655D01*
X101945885Y-36861654D01*
X101766817Y-36787482D01*
X101733887Y-36773842D01*
X101733885Y-36773841D01*
X101733884Y-36773841D01*
X101512237Y-36714451D01*
X101512238Y-36714451D01*
X101313050Y-36688228D01*
X101284734Y-36684500D01*
X101055266Y-36684500D01*
X101026950Y-36688228D01*
X100827761Y-36714451D01*
X100606115Y-36773841D01*
X100394114Y-36861654D01*
X100394112Y-36861655D01*
X100195388Y-36976388D01*
X100013334Y-37116085D01*
X99851085Y-37278334D01*
X99711388Y-37460388D01*
X99596655Y-37659112D01*
X99596654Y-37659114D01*
X99508841Y-37871115D01*
X99449451Y-38092761D01*
X99419500Y-38320267D01*
X99150500Y-38320267D01*
X99150500Y-38320266D01*
X99135524Y-38206514D01*
X99120548Y-38092761D01*
X99069500Y-37902246D01*
X99061158Y-37871113D01*
X98973344Y-37659112D01*
X98858611Y-37460388D01*
X98718919Y-37278339D01*
X98556661Y-37116081D01*
X98374612Y-36976389D01*
X98374613Y-36976389D01*
X98374611Y-36976388D01*
X98175887Y-36861655D01*
X98175885Y-36861654D01*
X97996817Y-36787482D01*
X97963887Y-36773842D01*
X97963885Y-36773841D01*
X97963884Y-36773841D01*
X97742237Y-36714451D01*
X97742238Y-36714451D01*
X97543050Y-36688228D01*
X97514734Y-36684500D01*
X97285266Y-36684500D01*
X97256950Y-36688228D01*
X97057761Y-36714451D01*
X96836115Y-36773841D01*
X96624114Y-36861654D01*
X96624112Y-36861655D01*
X96425388Y-36976388D01*
X96243334Y-37116085D01*
X96081085Y-37278334D01*
X95941388Y-37460388D01*
X95826655Y-37659112D01*
X95826654Y-37659114D01*
X95738841Y-37871115D01*
X95679451Y-38092761D01*
X95649500Y-38320267D01*
X82920500Y-38320267D01*
X82920500Y-38320266D01*
X82905524Y-38206514D01*
X82890548Y-38092761D01*
X82839500Y-37902246D01*
X82831158Y-37871113D01*
X82743344Y-37659112D01*
X82628611Y-37460388D01*
X82488919Y-37278339D01*
X82326661Y-37116081D01*
X82144612Y-36976389D01*
X82144613Y-36976389D01*
X82144611Y-36976388D01*
X81945887Y-36861655D01*
X81945885Y-36861654D01*
X81766817Y-36787482D01*
X81733887Y-36773842D01*
X81733885Y-36773841D01*
X81733884Y-36773841D01*
X81512237Y-36714451D01*
X81512238Y-36714451D01*
X81313050Y-36688228D01*
X81284734Y-36684500D01*
X81055266Y-36684500D01*
X81026950Y-36688228D01*
X80827761Y-36714451D01*
X80606115Y-36773841D01*
X80394114Y-36861654D01*
X80394112Y-36861655D01*
X80195388Y-36976388D01*
X80013334Y-37116085D01*
X79851085Y-37278334D01*
X79711388Y-37460388D01*
X79596655Y-37659112D01*
X79596654Y-37659114D01*
X79508841Y-37871115D01*
X79449451Y-38092761D01*
X79419500Y-38320267D01*
X79150500Y-38320267D01*
X79150500Y-38320266D01*
X79135524Y-38206514D01*
X79120548Y-38092761D01*
X79069500Y-37902246D01*
X79061158Y-37871113D01*
X78973344Y-37659112D01*
X78858611Y-37460388D01*
X78718919Y-37278339D01*
X78556661Y-37116081D01*
X78374612Y-36976389D01*
X78374613Y-36976389D01*
X78374611Y-36976388D01*
X78175887Y-36861655D01*
X78175885Y-36861654D01*
X77996817Y-36787482D01*
X77963887Y-36773842D01*
X77963885Y-36773841D01*
X77963884Y-36773841D01*
X77742237Y-36714451D01*
X77742238Y-36714451D01*
X77543050Y-36688228D01*
X77514734Y-36684500D01*
X77285266Y-36684500D01*
X77256950Y-36688228D01*
X77057761Y-36714451D01*
X76836115Y-36773841D01*
X76624114Y-36861654D01*
X76624112Y-36861655D01*
X76425388Y-36976388D01*
X76243334Y-37116085D01*
X76081085Y-37278334D01*
X75941388Y-37460388D01*
X75826655Y-37659112D01*
X75826654Y-37659114D01*
X75738841Y-37871115D01*
X75679451Y-38092761D01*
X75649500Y-38320267D01*
X75649500Y-38549732D01*
X75674588Y-38740300D01*
X75674996Y-38744199D01*
X75676522Y-38763744D01*
X75676582Y-38764570D01*
X75685843Y-38903153D01*
X75685845Y-38903166D01*
X75696776Y-39066741D01*
X75696912Y-39073758D01*
X75693305Y-39201840D01*
X75692625Y-39209978D01*
X75675402Y-39333475D01*
X75673301Y-39343451D01*
X75639081Y-39464067D01*
X75635173Y-39474677D01*
X75578314Y-39598855D01*
X75572834Y-39608748D01*
X75484906Y-39742264D01*
X75478599Y-39750516D01*
X75343836Y-39903291D01*
X75337387Y-39913997D01*
X75326327Y-39928136D01*
X71347947Y-43906518D01*
X71271518Y-43982946D01*
X71217473Y-44076555D01*
X71189500Y-44180954D01*
X71189500Y-50074506D01*
X71167826Y-50126832D01*
X71115500Y-50148506D01*
X71063174Y-50126832D01*
X71056933Y-50120591D01*
X71056928Y-50120586D01*
X71056925Y-50120583D01*
X71056923Y-50120582D01*
X70916787Y-50018767D01*
X70762446Y-49940127D01*
X70762442Y-49940125D01*
X70597711Y-49886600D01*
X70597698Y-49886597D01*
X70426612Y-49859500D01*
X70426611Y-49859500D01*
X70253389Y-49859500D01*
X70253388Y-49859500D01*
X70082301Y-49886597D01*
X70082288Y-49886600D01*
X69917557Y-49940125D01*
X69917553Y-49940127D01*
X69763212Y-50018767D01*
X69623076Y-50120582D01*
X69500582Y-50243076D01*
X69398767Y-50383212D01*
X69320127Y-50537553D01*
X69320125Y-50537557D01*
X69266599Y-50702293D01*
X69260936Y-50738042D01*
X69257267Y-50752092D01*
X69252084Y-50766128D01*
X69198636Y-51102909D01*
X69198095Y-51106484D01*
X69198044Y-51106836D01*
X69197334Y-51112158D01*
X69189644Y-51174764D01*
X69189445Y-51176257D01*
X69160998Y-51374417D01*
X69159701Y-51381188D01*
X69159400Y-51382446D01*
X69144594Y-51444040D01*
X69142256Y-51451846D01*
X69122131Y-51507658D01*
X69118422Y-51516212D01*
X69088958Y-51573910D01*
X69084513Y-51581471D01*
X69037864Y-51651031D01*
X69033616Y-51656750D01*
X68962053Y-51743980D01*
X68958572Y-51747928D01*
X68858646Y-51853444D01*
X68849919Y-51867097D01*
X68839895Y-51879568D01*
X68737539Y-51981925D01*
X68671518Y-52047946D01*
X68617473Y-52141555D01*
X68589500Y-52245954D01*
X59500500Y-52245954D01*
X59500500Y-39320512D01*
X59522174Y-39268186D01*
X59574500Y-39246512D01*
X59626826Y-39268186D01*
X59638583Y-39283508D01*
X59673191Y-39343451D01*
X59711388Y-39409611D01*
X59736055Y-39441757D01*
X59851081Y-39591661D01*
X60013339Y-39753919D01*
X60195388Y-39893611D01*
X60394112Y-40008344D01*
X60606113Y-40096158D01*
X60827762Y-40155548D01*
X60827761Y-40155548D01*
X60903596Y-40165532D01*
X61055266Y-40185500D01*
X61055268Y-40185500D01*
X61284732Y-40185500D01*
X61284734Y-40185500D01*
X61512238Y-40155548D01*
X61733887Y-40096158D01*
X61945888Y-40008344D01*
X62144612Y-39893611D01*
X62326661Y-39753919D01*
X62488919Y-39591661D01*
X62628611Y-39409612D01*
X62743344Y-39210888D01*
X62831158Y-38998887D01*
X62890548Y-38777238D01*
X62920500Y-38549734D01*
X62920500Y-38320266D01*
X62905524Y-38206514D01*
X62890548Y-38092761D01*
X62839500Y-37902246D01*
X62831158Y-37871113D01*
X62743344Y-37659112D01*
X62628611Y-37460388D01*
X62488919Y-37278339D01*
X62326661Y-37116081D01*
X62144612Y-36976389D01*
X62144613Y-36976389D01*
X62144611Y-36976388D01*
X61945887Y-36861655D01*
X61945885Y-36861654D01*
X61766817Y-36787482D01*
X61733887Y-36773842D01*
X61733885Y-36773841D01*
X61733884Y-36773841D01*
X61512237Y-36714451D01*
X61512238Y-36714451D01*
X61313050Y-36688228D01*
X61284734Y-36684500D01*
X61055266Y-36684500D01*
X61026950Y-36688228D01*
X60827761Y-36714451D01*
X60606115Y-36773841D01*
X60394114Y-36861654D01*
X60394112Y-36861655D01*
X60195388Y-36976388D01*
X60013334Y-37116085D01*
X59851085Y-37278334D01*
X59711388Y-37460388D01*
X59638586Y-37586487D01*
X59593653Y-37620965D01*
X59537500Y-37613573D01*
X59503022Y-37568640D01*
X59500500Y-37549487D01*
X59500500Y-32970512D01*
X59522174Y-32918186D01*
X59574500Y-32896512D01*
X59626826Y-32918186D01*
X59638583Y-32933508D01*
X59673191Y-32993451D01*
X59711388Y-33059611D01*
X59736055Y-33091757D01*
X59851081Y-33241661D01*
X60013339Y-33403919D01*
X60195388Y-33543611D01*
X60394112Y-33658344D01*
X60606113Y-33746158D01*
X60827762Y-33805548D01*
X60827761Y-33805548D01*
X60903596Y-33815532D01*
X61055266Y-33835500D01*
X61055268Y-33835500D01*
X61284732Y-33835500D01*
X61284734Y-33835500D01*
X61512238Y-33805548D01*
X61733887Y-33746158D01*
X61945888Y-33658344D01*
X62144612Y-33543611D01*
X62326661Y-33403919D01*
X62488919Y-33241661D01*
X62628611Y-33059612D01*
X62743344Y-32860888D01*
X62831158Y-32648887D01*
X62890548Y-32427238D01*
X62920500Y-32199734D01*
X62920500Y-31970267D01*
X75649500Y-31970267D01*
X75649500Y-32199732D01*
X75679451Y-32427238D01*
X75738841Y-32648884D01*
X75826654Y-32860885D01*
X75826655Y-32860887D01*
X75941388Y-33059611D01*
X75966055Y-33091757D01*
X76081081Y-33241661D01*
X76243339Y-33403919D01*
X76425388Y-33543611D01*
X76624112Y-33658344D01*
X76836113Y-33746158D01*
X77057762Y-33805548D01*
X77057761Y-33805548D01*
X77133596Y-33815532D01*
X77285266Y-33835500D01*
X77285268Y-33835500D01*
X77514732Y-33835500D01*
X77514734Y-33835500D01*
X77742238Y-33805548D01*
X77963887Y-33746158D01*
X78175888Y-33658344D01*
X78374612Y-33543611D01*
X78556661Y-33403919D01*
X78718919Y-33241661D01*
X78858611Y-33059612D01*
X78973344Y-32860888D01*
X79061158Y-32648887D01*
X79120548Y-32427238D01*
X79150500Y-32199734D01*
X79150500Y-31970267D01*
X79419500Y-31970267D01*
X79419500Y-32199732D01*
X79449451Y-32427238D01*
X79508841Y-32648884D01*
X79596654Y-32860885D01*
X79596655Y-32860887D01*
X79711388Y-33059611D01*
X79736055Y-33091757D01*
X79851081Y-33241661D01*
X80013339Y-33403919D01*
X80195388Y-33543611D01*
X80394112Y-33658344D01*
X80606113Y-33746158D01*
X80827762Y-33805548D01*
X80827761Y-33805548D01*
X80903596Y-33815532D01*
X81055266Y-33835500D01*
X81055268Y-33835500D01*
X81284732Y-33835500D01*
X81284734Y-33835500D01*
X81512238Y-33805548D01*
X81733887Y-33746158D01*
X81945888Y-33658344D01*
X82144612Y-33543611D01*
X82326661Y-33403919D01*
X82488919Y-33241661D01*
X82628611Y-33059612D01*
X82743344Y-32860888D01*
X82831158Y-32648887D01*
X82890548Y-32427238D01*
X82920500Y-32199734D01*
X82920500Y-31970267D01*
X95649500Y-31970267D01*
X95649500Y-32199732D01*
X95679451Y-32427238D01*
X95738841Y-32648884D01*
X95826654Y-32860885D01*
X95826655Y-32860887D01*
X95941388Y-33059611D01*
X95966055Y-33091757D01*
X96081081Y-33241661D01*
X96243339Y-33403919D01*
X96425388Y-33543611D01*
X96624112Y-33658344D01*
X96836113Y-33746158D01*
X97057762Y-33805548D01*
X97057761Y-33805548D01*
X97133596Y-33815532D01*
X97285266Y-33835500D01*
X97285268Y-33835500D01*
X97514732Y-33835500D01*
X97514734Y-33835500D01*
X97742238Y-33805548D01*
X97963887Y-33746158D01*
X98175888Y-33658344D01*
X98374612Y-33543611D01*
X98556661Y-33403919D01*
X98718919Y-33241661D01*
X98858611Y-33059612D01*
X98973344Y-32860888D01*
X99061158Y-32648887D01*
X99120548Y-32427238D01*
X99150500Y-32199734D01*
X99150500Y-31970267D01*
X99419500Y-31970267D01*
X99419500Y-32199732D01*
X99449451Y-32427238D01*
X99508841Y-32648884D01*
X99596654Y-32860885D01*
X99596655Y-32860887D01*
X99711388Y-33059611D01*
X99736055Y-33091757D01*
X99851081Y-33241661D01*
X100013339Y-33403919D01*
X100195388Y-33543611D01*
X100394112Y-33658344D01*
X100606113Y-33746158D01*
X100827762Y-33805548D01*
X100827761Y-33805548D01*
X100903596Y-33815532D01*
X101055266Y-33835500D01*
X101055268Y-33835500D01*
X101284732Y-33835500D01*
X101284734Y-33835500D01*
X101512238Y-33805548D01*
X101733887Y-33746158D01*
X101945888Y-33658344D01*
X102144612Y-33543611D01*
X102326661Y-33403919D01*
X102488919Y-33241661D01*
X102628611Y-33059612D01*
X102743344Y-32860888D01*
X102831158Y-32648887D01*
X102890548Y-32427238D01*
X102920500Y-32199734D01*
X102920500Y-31970267D01*
X115649500Y-31970267D01*
X115649500Y-32199732D01*
X115679451Y-32427238D01*
X115738841Y-32648884D01*
X115826654Y-32860885D01*
X115826655Y-32860887D01*
X115941388Y-33059611D01*
X115966055Y-33091757D01*
X116081081Y-33241661D01*
X116243339Y-33403919D01*
X116425388Y-33543611D01*
X116624112Y-33658344D01*
X116836113Y-33746158D01*
X117057762Y-33805548D01*
X117057761Y-33805548D01*
X117133596Y-33815532D01*
X117285266Y-33835500D01*
X117285268Y-33835500D01*
X117514732Y-33835500D01*
X117514734Y-33835500D01*
X117742238Y-33805548D01*
X117963887Y-33746158D01*
X118175888Y-33658344D01*
X118374612Y-33543611D01*
X118556661Y-33403919D01*
X118718919Y-33241661D01*
X118858611Y-33059612D01*
X118973344Y-32860888D01*
X119061158Y-32648887D01*
X119120548Y-32427238D01*
X119150500Y-32199734D01*
X119150500Y-31970267D01*
X119419500Y-31970267D01*
X119419500Y-32199732D01*
X119449451Y-32427238D01*
X119508841Y-32648884D01*
X119596654Y-32860885D01*
X119596655Y-32860887D01*
X119711388Y-33059611D01*
X119736055Y-33091757D01*
X119851081Y-33241661D01*
X120013339Y-33403919D01*
X120195388Y-33543611D01*
X120394112Y-33658344D01*
X120606113Y-33746158D01*
X120827762Y-33805548D01*
X120827761Y-33805548D01*
X120903596Y-33815532D01*
X121055266Y-33835500D01*
X121055268Y-33835500D01*
X121284732Y-33835500D01*
X121284734Y-33835500D01*
X121512238Y-33805548D01*
X121733887Y-33746158D01*
X121945888Y-33658344D01*
X122144612Y-33543611D01*
X122326661Y-33403919D01*
X122488919Y-33241661D01*
X122628611Y-33059612D01*
X122743344Y-32860888D01*
X122831158Y-32648887D01*
X122890548Y-32427238D01*
X122920500Y-32199734D01*
X122920500Y-31970267D01*
X135649500Y-31970267D01*
X135649500Y-32199732D01*
X135679451Y-32427238D01*
X135738841Y-32648884D01*
X135826654Y-32860885D01*
X135826655Y-32860887D01*
X135941388Y-33059611D01*
X135966055Y-33091757D01*
X136081081Y-33241661D01*
X136243339Y-33403919D01*
X136425388Y-33543611D01*
X136624112Y-33658344D01*
X136836113Y-33746158D01*
X137057762Y-33805548D01*
X137057761Y-33805548D01*
X137133596Y-33815532D01*
X137285266Y-33835500D01*
X137285268Y-33835500D01*
X137514732Y-33835500D01*
X137514734Y-33835500D01*
X137742238Y-33805548D01*
X137963887Y-33746158D01*
X138175888Y-33658344D01*
X138374612Y-33543611D01*
X138556661Y-33403919D01*
X138718919Y-33241661D01*
X138858611Y-33059612D01*
X138973344Y-32860888D01*
X139061158Y-32648887D01*
X139120548Y-32427238D01*
X139150500Y-32199734D01*
X139150500Y-31970266D01*
X139120548Y-31742762D01*
X139061158Y-31521113D01*
X138973344Y-31309112D01*
X138858611Y-31110388D01*
X138718919Y-30928339D01*
X138556661Y-30766081D01*
X138374612Y-30626389D01*
X138374613Y-30626389D01*
X138374611Y-30626388D01*
X138175887Y-30511655D01*
X138175885Y-30511654D01*
X138015325Y-30445148D01*
X137963887Y-30423842D01*
X137963885Y-30423841D01*
X137963884Y-30423841D01*
X137742237Y-30364451D01*
X137742238Y-30364451D01*
X137562150Y-30340742D01*
X137514734Y-30334500D01*
X137285266Y-30334500D01*
X137242324Y-30340153D01*
X137057761Y-30364451D01*
X136836115Y-30423841D01*
X136624114Y-30511654D01*
X136624112Y-30511655D01*
X136425388Y-30626388D01*
X136243334Y-30766085D01*
X136081085Y-30928334D01*
X135941388Y-31110388D01*
X135826655Y-31309112D01*
X135826654Y-31309114D01*
X135738841Y-31521115D01*
X135679451Y-31742761D01*
X135649500Y-31970267D01*
X122920500Y-31970267D01*
X122920500Y-31970266D01*
X122890548Y-31742762D01*
X122831158Y-31521113D01*
X122743344Y-31309112D01*
X122628611Y-31110388D01*
X122488919Y-30928339D01*
X122326661Y-30766081D01*
X122144612Y-30626389D01*
X122144613Y-30626389D01*
X122144611Y-30626388D01*
X121945887Y-30511655D01*
X121945885Y-30511654D01*
X121785325Y-30445148D01*
X121733887Y-30423842D01*
X121733885Y-30423841D01*
X121733884Y-30423841D01*
X121512237Y-30364451D01*
X121512238Y-30364451D01*
X121332150Y-30340742D01*
X121284734Y-30334500D01*
X121055266Y-30334500D01*
X121012324Y-30340153D01*
X120827761Y-30364451D01*
X120606115Y-30423841D01*
X120394114Y-30511654D01*
X120394112Y-30511655D01*
X120195388Y-30626388D01*
X120013334Y-30766085D01*
X119851085Y-30928334D01*
X119711388Y-31110388D01*
X119596655Y-31309112D01*
X119596654Y-31309114D01*
X119508841Y-31521115D01*
X119449451Y-31742761D01*
X119419500Y-31970267D01*
X119150500Y-31970267D01*
X119150500Y-31970266D01*
X119120548Y-31742762D01*
X119061158Y-31521113D01*
X118973344Y-31309112D01*
X118858611Y-31110388D01*
X118718919Y-30928339D01*
X118556661Y-30766081D01*
X118374612Y-30626389D01*
X118374613Y-30626389D01*
X118374611Y-30626388D01*
X118175887Y-30511655D01*
X118175885Y-30511654D01*
X118015325Y-30445148D01*
X117963887Y-30423842D01*
X117963885Y-30423841D01*
X117963884Y-30423841D01*
X117742237Y-30364451D01*
X117742238Y-30364451D01*
X117562150Y-30340742D01*
X117514734Y-30334500D01*
X117285266Y-30334500D01*
X117242324Y-30340153D01*
X117057761Y-30364451D01*
X116836115Y-30423841D01*
X116624114Y-30511654D01*
X116624112Y-30511655D01*
X116425388Y-30626388D01*
X116243334Y-30766085D01*
X116081085Y-30928334D01*
X115941388Y-31110388D01*
X115826655Y-31309112D01*
X115826654Y-31309114D01*
X115738841Y-31521115D01*
X115679451Y-31742761D01*
X115649500Y-31970267D01*
X102920500Y-31970267D01*
X102920500Y-31970266D01*
X102890548Y-31742762D01*
X102831158Y-31521113D01*
X102743344Y-31309112D01*
X102628611Y-31110388D01*
X102488919Y-30928339D01*
X102326661Y-30766081D01*
X102144612Y-30626389D01*
X102144613Y-30626389D01*
X102144611Y-30626388D01*
X101945887Y-30511655D01*
X101945885Y-30511654D01*
X101785325Y-30445148D01*
X101733887Y-30423842D01*
X101733885Y-30423841D01*
X101733884Y-30423841D01*
X101512237Y-30364451D01*
X101512238Y-30364451D01*
X101332150Y-30340742D01*
X101284734Y-30334500D01*
X101055266Y-30334500D01*
X101012324Y-30340153D01*
X100827761Y-30364451D01*
X100606115Y-30423841D01*
X100394114Y-30511654D01*
X100394112Y-30511655D01*
X100195388Y-30626388D01*
X100013334Y-30766085D01*
X99851085Y-30928334D01*
X99711388Y-31110388D01*
X99596655Y-31309112D01*
X99596654Y-31309114D01*
X99508841Y-31521115D01*
X99449451Y-31742761D01*
X99419500Y-31970267D01*
X99150500Y-31970267D01*
X99150500Y-31970266D01*
X99120548Y-31742762D01*
X99061158Y-31521113D01*
X98973344Y-31309112D01*
X98858611Y-31110388D01*
X98718919Y-30928339D01*
X98556661Y-30766081D01*
X98374612Y-30626389D01*
X98374613Y-30626389D01*
X98374611Y-30626388D01*
X98175887Y-30511655D01*
X98175885Y-30511654D01*
X98015325Y-30445148D01*
X97963887Y-30423842D01*
X97963885Y-30423841D01*
X97963884Y-30423841D01*
X97742237Y-30364451D01*
X97742238Y-30364451D01*
X97562150Y-30340742D01*
X97514734Y-30334500D01*
X97285266Y-30334500D01*
X97242324Y-30340153D01*
X97057761Y-30364451D01*
X96836115Y-30423841D01*
X96624114Y-30511654D01*
X96624112Y-30511655D01*
X96425388Y-30626388D01*
X96243334Y-30766085D01*
X96081085Y-30928334D01*
X95941388Y-31110388D01*
X95826655Y-31309112D01*
X95826654Y-31309114D01*
X95738841Y-31521115D01*
X95679451Y-31742761D01*
X95649500Y-31970267D01*
X82920500Y-31970267D01*
X82920500Y-31970266D01*
X82890548Y-31742762D01*
X82831158Y-31521113D01*
X82743344Y-31309112D01*
X82628611Y-31110388D01*
X82488919Y-30928339D01*
X82326661Y-30766081D01*
X82144612Y-30626389D01*
X82144613Y-30626389D01*
X82144611Y-30626388D01*
X81945887Y-30511655D01*
X81945885Y-30511654D01*
X81785325Y-30445148D01*
X81733887Y-30423842D01*
X81733885Y-30423841D01*
X81733884Y-30423841D01*
X81512237Y-30364451D01*
X81512238Y-30364451D01*
X81332150Y-30340742D01*
X81284734Y-30334500D01*
X81055266Y-30334500D01*
X81012324Y-30340153D01*
X80827761Y-30364451D01*
X80606115Y-30423841D01*
X80394114Y-30511654D01*
X80394112Y-30511655D01*
X80195388Y-30626388D01*
X80013334Y-30766085D01*
X79851085Y-30928334D01*
X79711388Y-31110388D01*
X79596655Y-31309112D01*
X79596654Y-31309114D01*
X79508841Y-31521115D01*
X79449451Y-31742761D01*
X79419500Y-31970267D01*
X79150500Y-31970267D01*
X79150500Y-31970266D01*
X79120548Y-31742762D01*
X79061158Y-31521113D01*
X78973344Y-31309112D01*
X78858611Y-31110388D01*
X78718919Y-30928339D01*
X78556661Y-30766081D01*
X78374612Y-30626389D01*
X78374613Y-30626389D01*
X78374611Y-30626388D01*
X78175887Y-30511655D01*
X78175885Y-30511654D01*
X78015325Y-30445148D01*
X77963887Y-30423842D01*
X77963885Y-30423841D01*
X77963884Y-30423841D01*
X77742237Y-30364451D01*
X77742238Y-30364451D01*
X77562150Y-30340742D01*
X77514734Y-30334500D01*
X77285266Y-30334500D01*
X77242324Y-30340153D01*
X77057761Y-30364451D01*
X76836115Y-30423841D01*
X76624114Y-30511654D01*
X76624112Y-30511655D01*
X76425388Y-30626388D01*
X76243334Y-30766085D01*
X76081085Y-30928334D01*
X75941388Y-31110388D01*
X75826655Y-31309112D01*
X75826654Y-31309114D01*
X75738841Y-31521115D01*
X75679451Y-31742761D01*
X75649500Y-31970267D01*
X62920500Y-31970267D01*
X62920500Y-31970266D01*
X62890548Y-31742762D01*
X62831158Y-31521113D01*
X62743344Y-31309112D01*
X62628611Y-31110388D01*
X62488919Y-30928339D01*
X62326661Y-30766081D01*
X62144612Y-30626389D01*
X62144613Y-30626389D01*
X62144611Y-30626388D01*
X61945887Y-30511655D01*
X61945885Y-30511654D01*
X61785325Y-30445148D01*
X61733887Y-30423842D01*
X61733885Y-30423841D01*
X61733884Y-30423841D01*
X61512237Y-30364451D01*
X61512238Y-30364451D01*
X61332150Y-30340742D01*
X61284734Y-30334500D01*
X61055266Y-30334500D01*
X61012324Y-30340153D01*
X60827761Y-30364451D01*
X60606115Y-30423841D01*
X60394114Y-30511654D01*
X60394112Y-30511655D01*
X60195388Y-30626388D01*
X60013334Y-30766085D01*
X59851085Y-30928334D01*
X59711388Y-31110388D01*
X59638586Y-31236487D01*
X59593653Y-31270965D01*
X59537500Y-31263573D01*
X59503022Y-31218640D01*
X59500500Y-31199487D01*
X59500500Y-26620512D01*
X59522174Y-26568186D01*
X59574500Y-26546512D01*
X59626826Y-26568186D01*
X59638583Y-26583508D01*
X59662615Y-26625132D01*
X59695091Y-26681384D01*
X59711389Y-26709612D01*
X59851081Y-26891661D01*
X60013339Y-27053919D01*
X60157058Y-27164199D01*
X60195388Y-27193611D01*
X60394112Y-27308344D01*
X60394114Y-27308345D01*
X60404145Y-27312500D01*
X60606113Y-27396158D01*
X60827762Y-27455548D01*
X60827761Y-27455548D01*
X60903596Y-27465532D01*
X61055266Y-27485500D01*
X61055268Y-27485500D01*
X61284732Y-27485500D01*
X61284734Y-27485500D01*
X61512238Y-27455548D01*
X61733887Y-27396158D01*
X61945888Y-27308344D01*
X62144612Y-27193611D01*
X62326661Y-27053919D01*
X62488919Y-26891661D01*
X62628611Y-26709612D01*
X62743344Y-26510888D01*
X62831158Y-26298887D01*
X62890548Y-26077238D01*
X62920500Y-25849734D01*
X62920500Y-25620266D01*
X62890548Y-25392762D01*
X62831158Y-25171113D01*
X62743344Y-24959112D01*
X62628611Y-24760388D01*
X62488919Y-24578339D01*
X62326661Y-24416081D01*
X62144612Y-24276389D01*
X62144613Y-24276389D01*
X62144611Y-24276388D01*
X61945887Y-24161655D01*
X61945879Y-24161652D01*
X61900528Y-24142867D01*
X61860479Y-24102819D01*
X61860479Y-24046182D01*
X61900527Y-24006133D01*
X61928846Y-24000500D01*
X76641154Y-24000500D01*
X76693480Y-24022174D01*
G37*
%TD.AperFunction*%
%TD*%
M02*
