%TF.GenerationSoftware,KiCad,Pcbnew,9.0.3*%
%TF.CreationDate,2025-09-11T09:39:57+02:00*%
%TF.ProjectId,RP2040_DSP_V1.2,52503230-3430-45f4-9453-505f56312e32,V1.2*%
%TF.SameCoordinates,Original*%
%TF.FileFunction,Soldermask,Top*%
%TF.FilePolarity,Negative*%
%FSLAX46Y46*%
G04 Gerber Fmt 4.6, Leading zero omitted, Abs format (unit mm)*
G04 Created by KiCad (PCBNEW 9.0.3) date 2025-09-11 09:39:57*
%MOMM*%
%LPD*%
G01*
G04 APERTURE LIST*
G04 Aperture macros list*
%AMRoundRect*
0 Rectangle with rounded corners*
0 $1 Rounding radius*
0 $2 $3 $4 $5 $6 $7 $8 $9 X,Y pos of 4 corners*
0 Add a 4 corners polygon primitive as box body*
4,1,4,$2,$3,$4,$5,$6,$7,$8,$9,$2,$3,0*
0 Add four circle primitives for the rounded corners*
1,1,$1+$1,$2,$3*
1,1,$1+$1,$4,$5*
1,1,$1+$1,$6,$7*
1,1,$1+$1,$8,$9*
0 Add four rect primitives between the rounded corners*
20,1,$1+$1,$2,$3,$4,$5,0*
20,1,$1+$1,$4,$5,$6,$7,0*
20,1,$1+$1,$6,$7,$8,$9,0*
20,1,$1+$1,$8,$9,$2,$3,0*%
G04 Aperture macros list end*
%ADD10C,3.140000*%
%ADD11RoundRect,0.270589X0.649411X-0.649411X0.649411X0.649411X-0.649411X0.649411X-0.649411X-0.649411X0*%
%ADD12C,1.840000*%
%ADD13RoundRect,0.271875X-0.598125X0.598125X-0.598125X-0.598125X0.598125X-0.598125X0.598125X0.598125X0*%
%ADD14C,1.740000*%
G04 APERTURE END LIST*
D10*
%TO.C,J9*%
X172400000Y-32085000D03*
X156170000Y-32085000D03*
X172400000Y-25735000D03*
X156170000Y-25735000D03*
X172400000Y-38435000D03*
X156170000Y-38435000D03*
%TD*%
D11*
%TO.C,J4*%
X88120000Y-53500000D03*
D12*
X88120000Y-50960000D03*
X85580000Y-53500000D03*
X85580000Y-50960000D03*
X83040000Y-53500000D03*
X83040000Y-50960000D03*
X80500000Y-53500000D03*
X80500000Y-50960000D03*
X77960000Y-53500000D03*
X77960000Y-50960000D03*
X75420000Y-53500000D03*
X75420000Y-50960000D03*
X72880000Y-53500000D03*
X72880000Y-50960000D03*
X70340000Y-53500000D03*
X70340000Y-50960000D03*
%TD*%
D13*
%TO.C,U11*%
X142920000Y-36130000D03*
D14*
X145460000Y-36130000D03*
X148000000Y-36130000D03*
X148000000Y-43750000D03*
X145460000Y-43750000D03*
X142920000Y-43750000D03*
%TD*%
D10*
%TO.C,J11*%
X117400000Y-32085000D03*
X101170000Y-32085000D03*
X117400000Y-25735000D03*
X101170000Y-25735000D03*
X117400000Y-38435000D03*
X101170000Y-38435000D03*
%TD*%
%TO.C,J10*%
X137400000Y-32085000D03*
X121170000Y-32085000D03*
X137400000Y-25735000D03*
X121170000Y-25735000D03*
X137400000Y-38435000D03*
X121170000Y-38435000D03*
%TD*%
%TO.C,J2*%
X77400000Y-32085000D03*
X61170000Y-32085000D03*
X77400000Y-25735000D03*
X61170000Y-25735000D03*
X77400000Y-38435000D03*
X61170000Y-38435000D03*
%TD*%
%TO.C,J12*%
X197400000Y-32085000D03*
X181170000Y-32085000D03*
X197400000Y-25735000D03*
X181170000Y-25735000D03*
X197400000Y-38435000D03*
X181170000Y-38435000D03*
%TD*%
%TO.C,J3*%
X97400000Y-32085000D03*
X81170000Y-32085000D03*
X97400000Y-25735000D03*
X81170000Y-25735000D03*
X97400000Y-38435000D03*
X81170000Y-38435000D03*
%TD*%
M02*
