%TF.GenerationSoftware,KiCad,Pcbnew,9.0.3*%
%TF.CreationDate,2025-08-21T10:40:16+02:00*%
%TF.ProjectId,RP2040-DSP_V2.0,52503230-3430-42d4-9453-505f56322e30,V2.0*%
%TF.SameCoordinates,Original*%
%TF.FileFunction,Paste,Top*%
%TF.FilePolarity,Positive*%
%FSLAX46Y46*%
G04 Gerber Fmt 4.6, Leading zero omitted, Abs format (unit mm)*
G04 Created by KiCad (PCBNEW 9.0.3) date 2025-08-21 10:40:16*
%MOMM*%
%LPD*%
G01*
G04 APERTURE LIST*
G04 Aperture macros list*
%AMRoundRect*
0 Rectangle with rounded corners*
0 $1 Rounding radius*
0 $2 $3 $4 $5 $6 $7 $8 $9 X,Y pos of 4 corners*
0 Add a 4 corners polygon primitive as box body*
4,1,4,$2,$3,$4,$5,$6,$7,$8,$9,$2,$3,0*
0 Add four circle primitives for the rounded corners*
1,1,$1+$1,$2,$3*
1,1,$1+$1,$4,$5*
1,1,$1+$1,$6,$7*
1,1,$1+$1,$8,$9*
0 Add four rect primitives between the rounded corners*
20,1,$1+$1,$2,$3,$4,$5,0*
20,1,$1+$1,$4,$5,$6,$7,0*
20,1,$1+$1,$6,$7,$8,$9,0*
20,1,$1+$1,$8,$9,$2,$3,0*%
G04 Aperture macros list end*
%ADD10RoundRect,0.225609X-0.424391X0.236891X-0.424391X-0.236891X0.424391X-0.236891X0.424391X0.236891X0*%
%ADD11RoundRect,0.225609X0.424391X-0.236891X0.424391X0.236891X-0.424391X0.236891X-0.424391X-0.236891X0*%
%ADD12RoundRect,0.234375X-1.040625X-0.515625X1.040625X-0.515625X1.040625X0.515625X-1.040625X0.515625X0*%
%ADD13RoundRect,0.225609X-0.236891X-0.424391X0.236891X-0.424391X0.236891X0.424391X-0.236891X0.424391X0*%
%ADD14RoundRect,0.075000X-0.612500X-0.075000X0.612500X-0.075000X0.612500X0.075000X-0.612500X0.075000X0*%
%ADD15RoundRect,0.225000X0.450000X-0.225000X0.450000X0.225000X-0.450000X0.225000X-0.450000X-0.225000X0*%
%ADD16RoundRect,0.218750X0.431250X-0.218750X0.431250X0.218750X-0.431250X0.218750X-0.431250X-0.218750X0*%
%ADD17RoundRect,0.225000X0.225000X0.450000X-0.225000X0.450000X-0.225000X-0.450000X0.225000X-0.450000X0*%
%ADD18RoundRect,0.234375X1.040625X0.515625X-1.040625X0.515625X-1.040625X-0.515625X1.040625X-0.515625X0*%
%ADD19RoundRect,0.225000X-0.225000X-0.450000X0.225000X-0.450000X0.225000X0.450000X-0.225000X0.450000X0*%
%ADD20RoundRect,0.234375X0.515625X-1.040625X0.515625X1.040625X-0.515625X1.040625X-0.515625X-1.040625X0*%
%ADD21RoundRect,0.218750X-0.431250X0.218750X-0.431250X-0.218750X0.431250X-0.218750X0.431250X0.218750X0*%
%ADD22RoundRect,0.225000X-0.450000X0.225000X-0.450000X-0.225000X0.450000X-0.225000X0.450000X0.225000X0*%
%ADD23RoundRect,0.250000X1.125000X-1.275000X1.125000X1.275000X-1.125000X1.275000X-1.125000X-1.275000X0*%
%ADD24RoundRect,0.229166X0.320834X-0.820834X0.320834X0.820834X-0.320834X0.820834X-0.320834X-0.820834X0*%
%ADD25RoundRect,0.250000X-1.125000X1.275000X-1.125000X-1.275000X1.125000X-1.275000X1.125000X1.275000X0*%
%ADD26RoundRect,0.229166X-0.320834X0.820834X-0.320834X-0.820834X0.320834X-0.820834X0.320834X0.820834X0*%
%ADD27RoundRect,0.125000X0.800000X0.125000X-0.800000X0.125000X-0.800000X-0.125000X0.800000X-0.125000X0*%
%ADD28RoundRect,0.125000X-0.800000X-0.125000X0.800000X-0.125000X0.800000X0.125000X-0.800000X0.125000X0*%
%ADD29RoundRect,0.234375X-0.515625X1.040625X-0.515625X-1.040625X0.515625X-1.040625X0.515625X1.040625X0*%
%ADD30RoundRect,0.218750X-0.218750X-0.431250X0.218750X-0.431250X0.218750X0.431250X-0.218750X0.431250X0*%
%ADD31RoundRect,0.225609X0.236891X0.424391X-0.236891X0.424391X-0.236891X-0.424391X0.236891X-0.424391X0*%
%ADD32R,1.650000X0.350000*%
%ADD33RoundRect,0.075000X0.612500X0.075000X-0.612500X0.075000X-0.612500X-0.075000X0.612500X-0.075000X0*%
%ADD34RoundRect,0.234375X-1.378125X-0.515625X1.378125X-0.515625X1.378125X0.515625X-1.378125X0.515625X0*%
G04 APERTURE END LIST*
D10*
%TO.C,R7*%
X217903250Y-150887500D03*
X217903250Y-152712500D03*
%TD*%
%TO.C,Rb1*%
X174803250Y-96987500D03*
X174803250Y-98812500D03*
%TD*%
D11*
%TO.C,Rg1*%
X179503250Y-98912500D03*
X179503250Y-97087500D03*
%TD*%
%TO.C,Rb4*%
X160753250Y-105100000D03*
X160753250Y-103275000D03*
%TD*%
D12*
%TO.C,C28*%
X153900000Y-139300000D03*
X157250000Y-139300000D03*
%TD*%
D13*
%TO.C,R5*%
X97390750Y-136800000D03*
X99215750Y-136800000D03*
%TD*%
%TO.C,R22*%
X142887500Y-151500000D03*
X144712500Y-151500000D03*
%TD*%
D11*
%TO.C,R1*%
X113250000Y-108162500D03*
X113250000Y-106337500D03*
%TD*%
D13*
%TO.C,Rp1*%
X116090750Y-135600000D03*
X117915750Y-135600000D03*
%TD*%
D11*
%TO.C,R2*%
X111050000Y-108162500D03*
X111050000Y-106337500D03*
%TD*%
D14*
%TO.C,U2*%
X140937500Y-140975000D03*
X140937500Y-141625000D03*
X140937500Y-142275000D03*
X140937500Y-142925000D03*
X140937500Y-143575000D03*
X140937500Y-144225000D03*
X140937500Y-144875000D03*
X140937500Y-145525000D03*
X140937500Y-146175000D03*
X140937500Y-146825000D03*
X140937500Y-147475000D03*
X140937500Y-148125000D03*
X140937500Y-148775000D03*
X140937500Y-149425000D03*
X146662500Y-149425000D03*
X146662500Y-148775000D03*
X146662500Y-148125000D03*
X146662500Y-147475000D03*
X146662500Y-146825000D03*
X146662500Y-146175000D03*
X146662500Y-145525000D03*
X146662500Y-144875000D03*
X146662500Y-144225000D03*
X146662500Y-143575000D03*
X146662500Y-142925000D03*
X146662500Y-142275000D03*
X146662500Y-141625000D03*
X146662500Y-140975000D03*
%TD*%
D10*
%TO.C,R9*%
X117903250Y-150887500D03*
X117903250Y-152712500D03*
%TD*%
D15*
%TO.C,C21*%
X163003250Y-105137500D03*
X163003250Y-103237500D03*
%TD*%
D11*
%TO.C,R13*%
X144603250Y-87125000D03*
X144603250Y-85300000D03*
%TD*%
D15*
%TO.C,C25*%
X151050000Y-145249999D03*
X151050000Y-143350001D03*
%TD*%
D16*
%TO.C,D2*%
X168723250Y-123742500D03*
X168723250Y-121867500D03*
%TD*%
D12*
%TO.C,C15*%
X166928250Y-93400000D03*
X170278250Y-93400000D03*
%TD*%
D15*
%TO.C,C3*%
X149425000Y-104985000D03*
X149425000Y-103085000D03*
%TD*%
D17*
%TO.C,C9*%
X68853250Y-146050000D03*
X66953250Y-146050000D03*
%TD*%
D18*
%TO.C,C8*%
X145000000Y-111535000D03*
X141650000Y-111535000D03*
%TD*%
D19*
%TO.C,C18*%
X172653250Y-106800000D03*
X174553250Y-106800000D03*
%TD*%
D20*
%TO.C,C7*%
X173223250Y-115680000D03*
X173223250Y-112330000D03*
%TD*%
%TO.C,C26*%
X178423250Y-115680000D03*
X178423250Y-112330000D03*
%TD*%
D21*
%TO.C,D3*%
X138603250Y-107662500D03*
X138603250Y-109537500D03*
%TD*%
D22*
%TO.C,C12*%
X177203250Y-97050000D03*
X177203250Y-98950000D03*
%TD*%
%TO.C,C2*%
X180623250Y-118355000D03*
X180623250Y-120255000D03*
%TD*%
D23*
%TO.C,U13*%
X143000000Y-100350000D03*
X146050000Y-100350000D03*
X143000000Y-97000000D03*
X146050000Y-97000000D03*
D24*
X142245000Y-104975000D03*
X144525000Y-104975000D03*
X146805000Y-104975000D03*
%TD*%
D25*
%TO.C,U1*%
X177348250Y-123530000D03*
X174298250Y-123530000D03*
X177348250Y-126880000D03*
X174298250Y-126880000D03*
D26*
X178103250Y-118905000D03*
X173543250Y-118905000D03*
%TD*%
D27*
%TO.C,U5*%
X94853250Y-139340000D03*
X94853250Y-138070000D03*
X94853250Y-136800000D03*
X94853250Y-135530000D03*
X89903250Y-135530000D03*
X89903250Y-136800000D03*
X89903250Y-138070000D03*
X89903250Y-139340000D03*
%TD*%
D17*
%TO.C,C5*%
X144275000Y-107735000D03*
X142375000Y-107735000D03*
%TD*%
D13*
%TO.C,R6*%
X93990750Y-132800000D03*
X95815750Y-132800000D03*
%TD*%
D17*
%TO.C,C11*%
X122453250Y-135625000D03*
X120553250Y-135625000D03*
%TD*%
D10*
%TO.C,R10*%
X67903250Y-150887500D03*
X67903250Y-152712500D03*
%TD*%
D15*
%TO.C,C17*%
X168403250Y-104350000D03*
X168403250Y-102450000D03*
%TD*%
D28*
%TO.C,U10*%
X157028250Y-97495000D03*
X157028250Y-98765000D03*
X157028250Y-100035000D03*
X157028250Y-101305000D03*
X161978250Y-101305000D03*
X161978250Y-100035000D03*
X161978250Y-98765000D03*
X161978250Y-97495000D03*
%TD*%
D29*
%TO.C,C27*%
X149425000Y-107560000D03*
X149425000Y-110910000D03*
%TD*%
D22*
%TO.C,C23*%
X138800000Y-144650001D03*
X138800000Y-146549999D03*
%TD*%
D30*
%TO.C,D1*%
X202912500Y-90450000D03*
X204787500Y-90450000D03*
%TD*%
D11*
%TO.C,Rg2*%
X167603250Y-98812500D03*
X167603250Y-96987500D03*
%TD*%
D10*
%TO.C,R11*%
X164503250Y-99687500D03*
X164503250Y-101512500D03*
%TD*%
D15*
%TO.C,C30*%
X173603250Y-95050000D03*
X173603250Y-93150000D03*
%TD*%
D31*
%TO.C,R21*%
X147112500Y-136800000D03*
X145287500Y-136800000D03*
%TD*%
D15*
%TO.C,C24*%
X151050000Y-141649999D03*
X151050000Y-139750001D03*
%TD*%
D22*
%TO.C,C13*%
X170003250Y-96950000D03*
X170003250Y-98850000D03*
%TD*%
D15*
%TO.C,C20*%
X156003250Y-105137500D03*
X156003250Y-103237500D03*
%TD*%
D32*
%TO.C,U6*%
X117903250Y-137800000D03*
X117903250Y-138450000D03*
X117903250Y-139100000D03*
X117903250Y-139750000D03*
X117903250Y-140400000D03*
X117903250Y-141050000D03*
X117903250Y-141700000D03*
X117903250Y-142350000D03*
X117903250Y-143000000D03*
X117903250Y-143650000D03*
X117903250Y-144300000D03*
X117903250Y-144950000D03*
X125103250Y-144950000D03*
X125103250Y-144300000D03*
X125103250Y-143650000D03*
X125103250Y-143000000D03*
X125103250Y-142350000D03*
X125103250Y-141700000D03*
X125103250Y-141050000D03*
X125103250Y-140400000D03*
X125103250Y-139750000D03*
X125103250Y-139100000D03*
X125103250Y-138450000D03*
X125103250Y-137800000D03*
%TD*%
D11*
%TO.C,R4*%
X138603250Y-113012500D03*
X138603250Y-111187500D03*
%TD*%
D33*
%TO.C,U3*%
X148465750Y-126275000D03*
X148465750Y-125625000D03*
X148465750Y-124975000D03*
X148465750Y-124325000D03*
X148465750Y-123675000D03*
X148465750Y-123025000D03*
X148465750Y-122375000D03*
X148465750Y-121725000D03*
X142740750Y-121725000D03*
X142740750Y-122375000D03*
X142740750Y-123025000D03*
X142740750Y-123675000D03*
X142740750Y-124325000D03*
X142740750Y-124975000D03*
X142740750Y-125625000D03*
X142740750Y-126275000D03*
%TD*%
D19*
%TO.C,C10*%
X91453250Y-141400000D03*
X93353250Y-141400000D03*
%TD*%
D17*
%TO.C,C19*%
X160453250Y-95462500D03*
X158553250Y-95462500D03*
%TD*%
D19*
%TO.C,C6*%
X144603250Y-128000000D03*
X146503250Y-128000000D03*
%TD*%
D10*
%TO.C,R12*%
X165803250Y-103287500D03*
X165803250Y-105112500D03*
%TD*%
D11*
%TO.C,Rb3*%
X158253250Y-105100000D03*
X158253250Y-103275000D03*
%TD*%
D34*
%TO.C,C1*%
X195615750Y-93550000D03*
X200690750Y-93550000D03*
%TD*%
D31*
%TO.C,R20*%
X142512500Y-136800000D03*
X140687500Y-136800000D03*
%TD*%
%TO.C,R14*%
X147112500Y-138900000D03*
X145287500Y-138900000D03*
%TD*%
D11*
%TO.C,Rb2*%
X172403250Y-98812500D03*
X172403250Y-96987500D03*
%TD*%
D29*
%TO.C,C22*%
X135100000Y-143900000D03*
X135100000Y-147250000D03*
%TD*%
D12*
%TO.C,C34*%
X153900000Y-144300000D03*
X157250000Y-144300000D03*
%TD*%
D31*
%TO.C,R19*%
X142512500Y-138900000D03*
X140687500Y-138900000D03*
%TD*%
D10*
%TO.C,R3*%
X168723250Y-118392500D03*
X168723250Y-120217500D03*
%TD*%
D27*
%TO.C,U9*%
X176078250Y-104505000D03*
X176078250Y-103235000D03*
X176078250Y-101965000D03*
X176078250Y-100695000D03*
X171128250Y-100695000D03*
X171128250Y-101965000D03*
X171128250Y-103235000D03*
X171128250Y-104505000D03*
%TD*%
D22*
%TO.C,C4*%
X171023250Y-118355000D03*
X171023250Y-120255000D03*
%TD*%
D15*
%TO.C,C16*%
X178803250Y-104350000D03*
X178803250Y-102450000D03*
%TD*%
D22*
%TO.C,C29*%
X159503250Y-106987500D03*
X159503250Y-108887500D03*
%TD*%
D18*
%TO.C,C14*%
X180278250Y-93500000D03*
X176928250Y-93500000D03*
%TD*%
D10*
%TO.C,R8*%
X167903250Y-150887500D03*
X167903250Y-152712500D03*
%TD*%
M02*
