M48
; DRILL file {KiCad 9.0.3} date 2025-08-21T10:40:18+0200
; FORMAT={-:-/ absolute / metric / decimal}
; #@! TF.CreationDate,2025-08-21T10:40:18+02:00
; #@! TF.GenerationSoftware,Kicad,Pcbnew,9.0.3
; #@! TF.FileFunction,Plated,1,2,PTH
FMAT,2
METRIC
; #@! TA.AperFunction,Plated,PTH,ViaDrill
T1C0.400
; #@! TA.AperFunction,Plated,PTH,ComponentDrill
T2C0.800
; #@! TA.AperFunction,Plated,PTH,ComponentDrill
T3C0.900
; #@! TA.AperFunction,Plated,PTH,ComponentDrill
T4C1.000
; #@! TA.AperFunction,Plated,PTH,ComponentDrill
T5C1.100
; #@! TA.AperFunction,Plated,PTH,ComponentDrill
T6C1.400
; #@! TA.AperFunction,Plated,PTH,ComponentDrill
T7C1.500
%
G90
G05
T1
X63.475Y-40.71
X63.475Y-49.71
X63.475Y-54.21
X63.475Y-72.21
X63.475Y-76.71
X63.475Y-85.71
X63.475Y-90.21
X63.475Y-94.71
X63.475Y-99.21
X63.475Y-103.71
X63.475Y-108.21
X63.475Y-130.71
X63.475Y-135.21
X63.475Y-139.71
X63.475Y-148.71
X63.475Y-153.21
X63.475Y-157.71
X67.975Y-27.21
X67.975Y-76.71
X67.975Y-85.71
X67.975Y-94.71
X67.975Y-99.21
X67.975Y-103.71
X67.975Y-121.71
X67.975Y-126.21
X67.975Y-130.71
X67.975Y-135.21
X67.975Y-139.71
X67.975Y-144.21
X67.975Y-157.71
X72.475Y-31.71
X72.475Y-36.21
X72.475Y-40.71
X72.475Y-81.21
X72.475Y-85.71
X72.475Y-94.71
X72.475Y-148.71
X72.475Y-153.21
X72.475Y-157.71
X74.403Y-125.2
X76.975Y-36.21
X76.975Y-40.71
X76.975Y-72.21
X76.975Y-76.71
X76.975Y-81.21
X76.975Y-85.71
X76.975Y-90.21
X76.975Y-94.71
X76.975Y-99.21
X76.975Y-121.71
X76.975Y-153.21
X76.975Y-157.71
X81.475Y-72.21
X81.475Y-76.71
X81.475Y-81.21
X81.475Y-85.71
X81.475Y-90.21
X81.475Y-94.71
X81.475Y-99.21
X81.475Y-135.21
X81.475Y-139.71
X81.475Y-153.21
X81.475Y-157.71
X82.8Y-120.8
X84.8Y-122.8
X85.6Y-105.75
X85.975Y-27.21
X85.975Y-31.71
X85.975Y-40.71
X85.975Y-45.21
X85.975Y-72.21
X85.975Y-76.71
X85.975Y-81.21
X85.975Y-85.71
X85.975Y-90.21
X85.975Y-94.71
X85.975Y-103.71
X85.975Y-112.71
X85.975Y-117.21
X85.975Y-126.21
X85.975Y-144.21
X85.975Y-153.21
X85.975Y-157.71
X86.303Y-123.7
X87.25Y-107.15
X89.0Y-124.2
X89.653Y-141.55
X90.475Y-27.21
X90.475Y-31.71
X90.475Y-40.71
X90.475Y-49.71
X90.475Y-54.21
X90.475Y-72.21
X90.475Y-76.71
X90.475Y-81.21
X90.475Y-85.71
X90.475Y-90.21
X90.475Y-99.21
X90.475Y-103.71
X90.475Y-108.21
X90.475Y-112.71
X90.475Y-117.21
X90.475Y-153.21
X90.475Y-157.71
X94.975Y-27.21
X94.975Y-31.71
X94.975Y-40.71
X94.975Y-49.71
X94.975Y-72.21
X94.975Y-76.71
X94.975Y-81.21
X94.975Y-85.71
X94.975Y-94.71
X94.975Y-99.21
X94.975Y-103.71
X94.975Y-117.21
X94.975Y-153.21
X94.975Y-157.71
X97.2Y-53.15
X99.475Y-40.71
X99.475Y-49.71
X99.475Y-54.21
X99.475Y-72.21
X99.475Y-76.71
X99.475Y-81.21
X99.475Y-135.21
X99.475Y-148.71
X99.475Y-153.21
X99.475Y-157.71
X101.0Y-49.0
X101.2Y-131.6
X103.975Y-27.21
X103.975Y-31.71
X103.975Y-40.71
X103.975Y-45.21
X103.975Y-54.21
X103.975Y-72.21
X103.975Y-76.71
X103.975Y-85.71
X103.975Y-90.21
X103.975Y-94.71
X103.975Y-99.21
X103.975Y-117.21
X103.975Y-148.71
X103.975Y-157.71
X108.475Y-36.21
X108.475Y-45.21
X108.475Y-54.21
X108.475Y-72.21
X108.475Y-81.21
X108.475Y-85.71
X108.475Y-90.21
X108.475Y-108.21
X108.475Y-112.71
X108.475Y-117.21
X108.475Y-153.21
X108.475Y-157.71
X112.975Y-27.21
X112.975Y-31.71
X112.975Y-40.71
X112.975Y-45.21
X112.975Y-54.21
X112.975Y-76.71
X112.975Y-81.21
X112.975Y-85.71
X112.975Y-94.71
X112.975Y-117.21
X112.975Y-153.21
X112.975Y-157.71
X113.6Y-131.6
X113.7Y-135.55
X114.153Y-140.3
X114.153Y-142.3
X115.153Y-139.3
X115.153Y-141.3
X117.475Y-36.21
X117.475Y-40.71
X117.475Y-54.21
X117.475Y-72.21
X117.475Y-76.71
X117.475Y-81.21
X117.475Y-90.21
X117.475Y-103.71
X117.475Y-108.21
X117.475Y-117.21
X117.475Y-157.71
X121.2Y-51.0
X121.975Y-36.21
X121.975Y-72.21
X121.975Y-76.71
X121.975Y-81.21
X121.975Y-103.71
X121.975Y-108.21
X121.975Y-112.71
X121.975Y-117.21
X121.975Y-139.71
X121.975Y-148.71
X121.975Y-153.21
X121.975Y-157.71
X123.2Y-131.6
X126.475Y-27.21
X126.475Y-36.21
X126.475Y-40.71
X126.475Y-54.21
X126.475Y-72.21
X126.475Y-76.71
X126.475Y-81.21
X126.475Y-99.21
X126.475Y-103.71
X126.475Y-153.21
X126.5Y-157.7
X126.803Y-137.7
X127.603Y-139.1
X129.6Y-134.8
X129.875Y-130.6
X130.0Y-129.2
X130.975Y-27.21
X130.975Y-31.71
X130.975Y-40.71
X130.975Y-45.21
X130.975Y-54.21
X130.975Y-72.21
X130.975Y-76.71
X130.975Y-81.21
X130.975Y-94.71
X130.975Y-99.21
X130.975Y-103.71
X130.975Y-108.21
X130.975Y-112.71
X130.975Y-139.71
X130.975Y-148.71
X131.2Y-133.4
X131.5Y-144.4
X134.6Y-139.6
X135.475Y-27.21
X135.475Y-36.21
X135.475Y-45.21
X135.475Y-54.21
X135.475Y-72.21
X135.475Y-76.71
X135.475Y-81.21
X135.475Y-94.71
X135.475Y-153.21
X135.8Y-129.2
X135.8Y-130.7
X136.0Y-138.2
X138.6Y-137.6
X138.8Y-148.0
X139.3Y-96.5
X139.3Y-98.0
X139.3Y-99.5
X139.3Y-101.0
X139.975Y-36.21
X139.975Y-54.21
X139.975Y-72.21
X139.975Y-76.71
X139.975Y-81.21
X139.975Y-130.71
X139.975Y-135.21
X140.5Y-96.5
X140.5Y-98.0
X140.5Y-99.5
X140.5Y-101.0
X140.603Y-124.6
X141.5Y-156.5
X142.4Y-145.2
X143.4Y-145.2
X143.403Y-128.0
X144.475Y-31.71
X144.475Y-54.21
X144.475Y-76.71
X144.475Y-130.71
X144.475Y-135.21
X144.475Y-148.71
X144.5Y-145.2
X144.525Y-106.5
X146.1Y-113.6
X146.103Y-114.9
X146.3Y-135.1
X147.4Y-113.6
X147.403Y-114.9
X148.5Y-96.5
X148.5Y-98.0
X148.5Y-99.5
X148.5Y-101.0
X148.7Y-113.6
X148.703Y-114.9
X148.975Y-31.71
X148.975Y-40.71
X148.975Y-54.21
X148.975Y-72.21
X148.975Y-76.71
X148.975Y-81.21
X148.975Y-130.71
X148.975Y-153.21
X149.7Y-96.5
X149.7Y-98.0
X149.7Y-99.5
X149.7Y-101.0
X150.303Y-125.0
X151.127Y-120.123
X153.475Y-27.21
X153.475Y-31.71
X153.475Y-36.21
X153.475Y-40.71
X153.475Y-45.21
X153.475Y-54.21
X153.475Y-72.21
X153.475Y-76.71
X153.475Y-81.21
X153.475Y-108.21
X153.475Y-117.21
X153.475Y-153.21
X154.903Y-91.3
X154.903Y-92.4
X154.903Y-93.5
X155.7Y-141.7
X155.9Y-156.5
X157.975Y-36.21
X157.975Y-40.71
X157.975Y-45.21
X157.975Y-54.21
X157.975Y-72.21
X157.975Y-76.71
X157.975Y-81.21
X157.975Y-126.21
X157.975Y-153.21
X159.503Y-102.3
X159.503Y-110.0
X161.803Y-96.1
X162.475Y-27.21
X162.475Y-31.71
X162.475Y-36.21
X162.475Y-40.71
X162.475Y-45.21
X162.475Y-54.21
X162.475Y-72.21
X162.475Y-76.71
X162.475Y-81.21
X162.475Y-121.71
X162.475Y-126.21
X162.475Y-148.71
X162.475Y-153.21
X164.403Y-117.8
X164.803Y-138.9
X165.5Y-107.4
X165.503Y-117.8
X166.0Y-138.5
X166.6Y-137.4
X166.603Y-117.8
X166.975Y-27.21
X166.975Y-31.71
X166.975Y-36.21
X166.975Y-40.71
X166.975Y-49.71
X166.975Y-54.21
X166.975Y-72.21
X166.975Y-76.71
X166.975Y-81.21
X166.975Y-144.21
X166.975Y-148.71
X171.103Y-116.7
X171.453Y-105.75
X171.475Y-36.21
X171.475Y-45.21
X171.475Y-49.71
X171.475Y-54.21
X171.475Y-72.21
X171.475Y-76.71
X171.475Y-81.21
X171.475Y-144.21
X171.475Y-148.71
X171.475Y-153.21
X171.803Y-95.3
X173.603Y-92.0
X173.603Y-99.8
X174.503Y-105.5
X175.403Y-95.3
X175.975Y-27.21
X175.975Y-31.71
X175.975Y-45.21
X175.975Y-49.71
X175.975Y-54.21
X175.975Y-72.21
X175.975Y-76.71
X175.975Y-81.21
X175.975Y-90.21
X175.975Y-139.71
X175.975Y-144.21
X175.975Y-148.71
X175.975Y-153.21
X180.475Y-36.21
X180.475Y-40.71
X180.475Y-45.21
X180.475Y-72.21
X180.475Y-76.71
X180.475Y-81.21
X180.475Y-90.21
X180.475Y-139.71
X180.475Y-144.21
X180.475Y-148.71
X180.475Y-153.21
X181.703Y-112.2
X184.975Y-27.21
X184.975Y-31.71
X184.975Y-36.21
X184.975Y-40.71
X184.975Y-54.21
X184.975Y-72.21
X184.975Y-76.71
X184.975Y-94.71
X184.975Y-117.21
X184.975Y-139.71
X184.975Y-144.21
X184.975Y-148.71
X185.227Y-97.527
X189.475Y-27.21
X189.475Y-31.71
X189.475Y-36.21
X189.475Y-49.71
X189.475Y-54.21
X189.475Y-72.21
X189.475Y-76.71
X189.475Y-81.21
X189.475Y-85.71
X189.475Y-139.71
X189.475Y-144.21
X189.475Y-148.71
X189.475Y-153.21
X193.975Y-27.21
X193.975Y-31.71
X193.975Y-45.21
X193.975Y-49.71
X193.975Y-54.21
X193.975Y-72.21
X193.975Y-76.71
X193.975Y-85.71
X193.975Y-90.21
X193.975Y-99.21
X193.975Y-139.71
X193.975Y-144.21
X193.975Y-148.71
X193.975Y-153.21
X194.0Y-133.5
X194.9Y-134.5
X195.9Y-135.8
X198.475Y-72.21
X198.475Y-76.71
X198.475Y-81.21
X198.475Y-85.71
X198.475Y-99.21
X198.475Y-108.21
X198.475Y-121.71
X198.475Y-126.21
X198.475Y-135.21
X198.475Y-139.71
X198.475Y-144.21
X198.475Y-148.71
X198.475Y-153.21
X201.603Y-103.0
X201.603Y-104.4
X202.603Y-105.7
X202.975Y-72.21
X202.975Y-76.71
X202.975Y-81.21
X202.975Y-85.71
X202.975Y-117.21
X202.975Y-121.71
X202.975Y-126.21
X202.975Y-135.21
X202.975Y-139.71
X202.975Y-144.21
X202.975Y-148.71
X202.975Y-153.21
X207.475Y-72.21
X207.475Y-76.71
X207.475Y-81.21
X207.475Y-85.71
X207.475Y-90.21
X207.475Y-103.71
X207.475Y-108.21
X207.475Y-112.71
X207.475Y-117.21
X207.475Y-121.71
X207.475Y-126.21
X207.475Y-135.21
X207.475Y-139.71
X207.475Y-144.21
X207.475Y-148.71
X207.475Y-153.21
X211.975Y-72.21
X211.975Y-76.71
X211.975Y-81.21
X211.975Y-85.71
X211.975Y-99.21
X211.975Y-103.71
X211.975Y-108.21
X211.975Y-112.71
X211.975Y-117.21
X211.975Y-121.71
X211.975Y-130.71
X211.975Y-135.21
X211.975Y-139.71
X211.975Y-144.21
X211.975Y-148.71
X216.475Y-72.21
X216.475Y-76.71
X216.475Y-94.71
X216.475Y-99.21
X216.475Y-103.71
X216.475Y-126.21
X216.475Y-130.71
X216.475Y-135.21
X216.475Y-139.71
X216.475Y-144.21
X216.475Y-148.71
X216.475Y-153.21
X216.475Y-157.71
X220.975Y-72.21
X220.975Y-76.71
X220.975Y-94.71
X220.975Y-99.21
X220.975Y-103.71
X220.975Y-108.21
X220.975Y-112.71
X220.975Y-121.71
X220.975Y-126.21
X220.975Y-130.71
X220.975Y-135.21
X220.975Y-139.71
X220.975Y-144.21
X220.975Y-148.71
X220.975Y-153.21
X220.975Y-157.71
X225.475Y-72.21
X225.475Y-76.71
X225.475Y-85.71
X225.475Y-90.21
X225.475Y-94.71
X225.475Y-99.21
X225.475Y-103.71
X225.475Y-117.21
X225.475Y-121.71
X225.475Y-126.21
X225.475Y-130.71
X225.475Y-135.21
X225.475Y-139.71
X225.475Y-144.21
X225.475Y-148.71
X225.475Y-153.21
X225.475Y-157.71
T2
X64.088Y-127.572
X64.088Y-142.812
X66.628Y-127.572
X66.628Y-142.812
X69.168Y-127.572
X69.168Y-142.812
X71.708Y-127.572
X71.708Y-142.812
X74.248Y-127.572
X74.248Y-142.812
X76.788Y-127.572
X76.788Y-142.812
X79.328Y-127.572
X79.328Y-142.812
X81.868Y-127.572
X81.868Y-142.812
X84.408Y-127.572
X84.408Y-130.112
X84.408Y-132.652
X84.408Y-135.192
X84.408Y-137.732
X84.408Y-140.272
X84.408Y-142.812
X102.777Y-135.732
X102.777Y-143.352
X105.317Y-135.732
X105.317Y-143.352
X107.858Y-135.732
X107.858Y-143.352
X110.397Y-135.732
X110.397Y-143.352
X142.92Y-36.13
X142.92Y-43.75
X145.46Y-36.13
X145.46Y-43.75
X148.0Y-36.13
X148.0Y-43.75
T3
X68.462Y-155.3
X71.001Y-155.3
X118.462Y-155.3
X121.001Y-155.3
X144.603Y-79.025
X144.603Y-81.565
X168.462Y-155.3
X171.001Y-155.3
X218.462Y-155.3
X221.001Y-155.3
T4
X67.126Y-73.3
X67.126Y-87.8
X67.126Y-117.8
X69.626Y-87.8
X69.626Y-117.8
X70.34Y-50.96
X70.34Y-53.5
X72.126Y-73.3
X72.126Y-87.8
X72.126Y-117.8
X72.88Y-50.96
X72.88Y-53.5
X75.42Y-50.96
X75.42Y-53.5
X75.903Y-155.26
X77.96Y-50.96
X77.96Y-53.5
X78.443Y-155.26
X80.5Y-50.96
X80.5Y-53.5
X83.04Y-50.96
X83.04Y-53.5
X85.58Y-50.96
X85.58Y-53.5
X88.12Y-50.96
X88.12Y-53.5
X97.126Y-117.8
X99.626Y-117.8
X102.126Y-117.8
X105.88Y-98.96
X105.88Y-101.5
X108.42Y-98.96
X108.42Y-101.5
X110.96Y-98.96
X110.96Y-101.5
X111.203Y-155.26
X111.227Y-69.7
X113.5Y-98.96
X113.5Y-101.5
X113.743Y-155.26
X113.766Y-69.7
X116.04Y-98.96
X116.04Y-101.5
X116.306Y-69.7
X118.58Y-98.96
X118.58Y-101.5
X118.846Y-69.7
X121.12Y-98.96
X121.12Y-101.5
X123.66Y-98.96
X123.66Y-101.5
X127.126Y-117.8
X129.626Y-117.8
X132.126Y-117.8
X157.126Y-117.8
X159.626Y-117.8
X162.126Y-117.8
X175.278Y-155.26
X177.818Y-155.26
X187.126Y-87.85
X187.126Y-117.8
X189.626Y-87.85
X189.626Y-117.8
X192.126Y-87.85
X192.126Y-117.8
X204.878Y-93.55
X207.418Y-93.55
X211.728Y-155.2
X214.268Y-155.2
X217.126Y-117.8
X217.15Y-87.775
X217.15Y-90.275
X219.626Y-117.8
X219.65Y-87.775
X219.65Y-90.275
X222.126Y-117.8
X222.15Y-87.775
X222.15Y-90.275
T6
X61.17Y-25.735
X61.17Y-32.085
X61.17Y-38.435
X77.4Y-25.735
X77.4Y-32.085
X77.4Y-38.435
X81.17Y-25.735
X81.17Y-32.085
X81.17Y-38.435
X97.4Y-25.735
X97.4Y-32.085
X97.4Y-38.435
X101.17Y-25.735
X101.17Y-32.085
X101.17Y-38.435
X117.4Y-25.735
X117.4Y-32.085
X117.4Y-38.435
X121.17Y-25.735
X121.17Y-32.085
X121.17Y-38.435
X137.4Y-25.735
X137.4Y-32.085
X137.4Y-38.435
X156.17Y-25.735
X156.17Y-32.085
X156.17Y-38.435
X172.4Y-25.735
X172.4Y-32.085
X172.4Y-38.435
X181.17Y-25.735
X181.17Y-32.085
X181.17Y-38.435
X197.4Y-25.735
X197.4Y-32.085
X197.4Y-38.435
T5
G00X64.826Y-109.95
M15
G01X64.826Y-110.65
M16
G05
G00X74.426Y-109.95
M15
G01X74.426Y-110.65
M16
G05
G00X94.826Y-109.95
M15
G01X94.826Y-110.65
M16
G05
G00X104.426Y-109.95
M15
G01X104.426Y-110.65
M16
G05
G00X124.826Y-109.95
M15
G01X124.826Y-110.65
M16
G05
G00X134.427Y-109.95
M15
G01X134.427Y-110.65
M16
G05
G00X154.826Y-109.95
M15
G01X154.826Y-110.65
M16
G05
G00X164.427Y-109.95
M15
G01X164.427Y-110.65
M16
G05
G00X184.826Y-80.0
M15
G01X184.826Y-80.7
M16
G05
G00X184.826Y-109.95
M15
G01X184.826Y-110.65
M16
G05
G00X194.427Y-80.0
M15
G01X194.427Y-80.7
M16
G05
G00X194.427Y-109.95
M15
G01X194.427Y-110.65
M16
G05
G00X214.826Y-109.95
M15
G01X214.826Y-110.65
M16
G05
G00X214.9Y-79.925
M15
G01X214.9Y-80.625
M16
G05
G00X224.4Y-79.925
M15
G01X224.4Y-80.625
M16
G05
G00X224.426Y-109.95
M15
G01X224.426Y-110.65
M16
G05
T7
G00X64.026Y-80.95
M15
G01X64.026Y-79.65
M16
G05
G00X75.227Y-80.95
M15
G01X75.227Y-79.65
M16
G05
M30
